<svg width="18" height="18" viewBox="0 0 18 18" fill="none" xmlns="http://www.w3.org/2000/svg">
<path d="M0.948712 6.13696H4.34434V17.0626H0.948712V6.13696ZM2.64746 0.699463C3.03692 0.699463 3.41764 0.814976 3.74144 1.03139C4.06523 1.2478 4.31757 1.55539 4.46653 1.91524C4.61548 2.27509 4.65436 2.67104 4.57824 3.05299C4.50213 3.43494 4.31444 3.78573 4.03891 4.06099C3.76339 4.33625 3.41242 4.52361 3.0304 4.59936C2.64837 4.67512 2.25246 4.63586 1.89275 4.48656C1.53304 4.33726 1.2257 4.08463 1.00959 3.76063C0.793491 3.43662 0.678341 3.0558 0.678712 2.66634C0.679209 2.14452 0.886849 1.64424 1.25601 1.27543C1.62517 0.906626 2.12564 0.699463 2.64746 0.699463ZM6.47434 6.13696H9.72934V7.63696H9.77434C10.2281 6.77821 11.3343 5.87259 12.9862 5.87259C16.425 5.86509 17.0625 8.12821 17.0625 11.0626V17.0626H13.6668V11.747C13.6668 10.4813 13.6443 8.85196 11.9025 8.85196C10.1606 8.85196 9.86434 10.232 9.86434 11.6645V17.0626H6.47434V6.13696Z" fill="white"/>
</svg>
