<svg width="110" height="111" viewBox="0 0 110 111" fill="none" xmlns="http://www.w3.org/2000/svg">
<path d="M4.45586 82.0601V103H0.255859V82.0601H4.45586Z" fill="#1A377D"/>
<path d="M28.9455 86.1401C30.9855 86.1401 32.6255 86.7701 33.8655 88.0301C35.1255 89.2701 35.7555 91.0101 35.7555 93.2501V103H31.5555V93.8201C31.5555 92.5201 31.2255 91.5301 30.5655 90.8501C29.9055 90.1501 29.0055 89.8001 27.8655 89.8001C26.7255 89.8001 25.8155 90.1501 25.1355 90.8501C24.4755 91.5301 24.1455 92.5201 24.1455 93.8201V103H19.9455V93.8201C19.9455 92.5201 19.6155 91.5301 18.9555 90.8501C18.2955 90.1501 17.3955 89.8001 16.2555 89.8001C15.0955 89.8001 14.1755 90.1501 13.4955 90.8501C12.8355 91.5301 12.5055 92.5201 12.5055 93.8201V103H8.30547V86.3801H12.5055V88.3901C13.0455 87.6901 13.7355 87.1401 14.5755 86.7401C15.4355 86.3401 16.3755 86.1401 17.3955 86.1401C18.6955 86.1401 19.8555 86.4201 20.8755 86.9801C21.8955 87.5201 22.6855 88.3001 23.2455 89.3201C23.7855 88.3601 24.5655 87.5901 25.5855 87.0101C26.6255 86.4301 27.7455 86.1401 28.9455 86.1401Z" fill="#1A377D"/>
<path d="M43.641 88.7801C44.181 88.0201 44.921 87.3901 45.861 86.8901C46.821 86.3701 47.911 86.1101 49.131 86.1101C50.551 86.1101 51.831 86.4601 52.971 87.1601C54.131 87.8601 55.041 88.8601 55.701 90.1601C56.381 91.4401 56.721 92.9301 56.721 94.6301C56.721 96.3301 56.381 97.8401 55.701 99.1601C55.041 100.46 54.131 101.47 52.971 102.19C51.831 102.91 50.551 103.27 49.131 103.27C47.911 103.27 46.831 103.02 45.891 102.52C44.971 102.02 44.221 101.39 43.641 100.63V110.92H39.441V86.3801H43.641V88.7801ZM52.431 94.6301C52.431 93.6301 52.221 92.7701 51.801 92.0501C51.401 91.3101 50.861 90.7501 50.181 90.3701C49.521 89.9901 48.801 89.8001 48.021 89.8001C47.261 89.8001 46.541 90.0001 45.861 90.4001C45.201 90.7801 44.661 91.3401 44.241 92.0801C43.841 92.8201 43.641 93.6901 43.641 94.6901C43.641 95.6901 43.841 96.5601 44.241 97.3001C44.661 98.0401 45.201 98.6101 45.861 99.0101C46.541 99.3901 47.261 99.5801 48.021 99.5801C48.801 99.5801 49.521 99.3801 50.181 98.9801C50.861 98.5801 51.401 98.0101 51.801 97.2701C52.221 96.5301 52.431 95.6501 52.431 94.6301Z" fill="#1A377D"/>
<path d="M58.393 94.6301C58.393 92.9501 58.723 91.4601 59.383 90.1601C60.063 88.8601 60.973 87.8601 62.113 87.1601C63.273 86.4601 64.563 86.1101 65.983 86.1101C67.223 86.1101 68.303 86.3601 69.223 86.8601C70.163 87.3601 70.913 87.9901 71.473 88.7501V86.3801H75.703V103H71.473V100.57C70.933 101.35 70.183 102 69.223 102.52C68.283 103.02 67.193 103.27 65.953 103.27C64.553 103.27 63.273 102.91 62.113 102.19C60.973 101.47 60.063 100.46 59.383 99.1601C58.723 97.8401 58.393 96.3301 58.393 94.6301ZM71.473 94.6901C71.473 93.6701 71.273 92.8001 70.873 92.0801C70.473 91.3401 69.933 90.7801 69.253 90.4001C68.573 90.0001 67.843 89.8001 67.063 89.8001C66.2831 89.8001 65.563 89.9901 64.903 90.3701C64.243 90.7501 63.703 91.3101 63.283 92.0501C62.883 92.7701 62.683 93.6301 62.683 94.6301C62.683 95.6301 62.883 96.5101 63.283 97.2701C63.703 98.0101 64.243 98.5801 64.903 98.9801C65.583 99.3801 66.303 99.5801 67.063 99.5801C67.843 99.5801 68.573 99.3901 69.253 99.0101C69.933 98.6101 70.473 98.0501 70.873 97.3301C71.273 96.5901 71.473 95.7101 71.473 94.6901Z" fill="#1A377D"/>
<path d="M78.4251 94.6901C78.4251 92.9701 78.7751 91.4701 79.4751 90.1901C80.1751 88.8901 81.1451 87.8901 82.3851 87.1901C83.6251 86.4701 85.0451 86.1101 86.6451 86.1101C88.7051 86.1101 90.4051 86.6301 91.7451 87.6701C93.1051 88.6901 94.0151 90.1301 94.4751 91.9901H89.9451C89.7051 91.2701 89.2951 90.7101 88.7151 90.3101C88.1551 89.8901 87.4551 89.6801 86.6151 89.6801C85.4151 89.6801 84.4651 90.1201 83.7651 91.0001C83.0651 91.8601 82.7151 93.0901 82.7151 94.6901C82.7151 96.2701 83.0651 97.5001 83.7651 98.3801C84.4651 99.2401 85.4151 99.6701 86.6151 99.6701C88.3151 99.6701 89.4251 98.9101 89.9451 97.3901H94.4751C94.0151 99.1901 93.1051 100.62 91.7451 101.68C90.3851 102.74 88.6851 103.27 86.6451 103.27C85.0451 103.27 83.6251 102.92 82.3851 102.22C81.1451 101.5 80.1751 100.5 79.4751 99.2201C78.7751 97.9201 78.4251 96.4101 78.4251 94.6901Z" fill="#1A377D"/>
<path d="M102.142 89.8301V97.8701C102.142 98.4301 102.272 98.8401 102.532 99.1001C102.812 99.3401 103.272 99.4601 103.912 99.4601H105.862V103H103.222C99.682 103 97.912 101.28 97.912 97.8401V89.8301H95.932V86.3801H97.912V82.2701H102.142V86.3801H105.862V89.8301H102.142Z" fill="#1A377D"/>
<path d="M0 72L110 72" stroke="#FF4848"/>
<rect x="4" y="3" width="96" height="58" rx="7" fill="#FF3636"/>
<path d="M35.2463 19.4784L20 44H25.011C25.011 44 36.4191 25.376 36.739 25.1691C37.0588 24.9622 43.7757 36.8608 43.7757 36.8608H49L37.9118 19.4784C37.1217 18.8303 36.528 18.8508 35.2463 19.4784Z" fill="white"/>
<path d="M31 43.8966L32.9954 39.4521L53.895 39.2454L54 44L31 43.8966Z" fill="white"/>
<path d="M43.8128 19.0899L53.6849 19L53.79 23.6378L46.3034 23.524L43.8128 19.0899Z" fill="white"/>
<path d="M54.2387 44C57.6547 43.9693 60.9182 42.6229 63.3113 40.257C65.7044 37.8912 67.0311 34.6996 66.9994 31.3845C66.9678 28.0693 65.5804 24.9022 63.1426 22.5797C60.7047 20.2573 57.416 18.9698 54 19.0005L54.0446 23.6695C56.1846 23.6503 58.2449 24.4568 59.7722 25.9118C61.2994 27.3667 62.1686 29.3509 62.1884 31.4277C62.2082 33.5046 61.3771 35.504 59.8779 36.9862C58.3787 38.4683 56.3341 39.3118 54.1941 39.331L54.2387 44Z" fill="white"/>
<path d="M75.6049 44C73.9726 44 72.5034 43.7187 71.1975 43.1561C69.8916 42.5701 68.8656 41.7496 68.1193 40.6948C67.3731 39.6399 67 38.4093 67 37.0028H71.2675C71.3608 38.0577 71.7689 38.925 72.4918 39.6048C73.238 40.2846 74.2757 40.6245 75.6049 40.6245C76.9808 40.6245 78.0535 40.2963 78.823 39.6399C79.5926 38.9601 79.9774 38.0928 79.9774 37.038C79.9774 36.2175 79.7325 35.5495 79.2428 35.0338C78.7764 34.518 78.1818 34.1195 77.4588 33.8383C76.7593 33.557 75.7798 33.2522 74.5206 32.9241C72.9348 32.5021 71.6406 32.0802 70.6379 31.6582C69.6584 31.2128 68.8189 30.5331 68.1193 29.6188C67.4198 28.7046 67.07 27.4857 67.07 25.962C67.07 24.5556 67.4198 23.3249 68.1193 22.27C68.8189 21.2152 69.7984 20.4065 71.0576 19.8439C72.3169 19.2813 73.7743 19 75.43 19C77.7853 19 79.7092 19.5977 81.2016 20.7932C82.7174 21.9653 83.5569 23.5827 83.7202 25.6456H79.3128C79.2428 24.7548 78.823 23.993 78.0535 23.3601C77.284 22.7271 76.2695 22.4107 75.0103 22.4107C73.8676 22.4107 72.9348 22.7037 72.2119 23.2897C71.489 23.8758 71.1276 24.7196 71.1276 25.8214C71.1276 26.5715 71.3491 27.1927 71.7922 27.685C72.2586 28.1538 72.8416 28.5288 73.5412 28.8101C74.2407 29.0914 75.1968 29.3962 76.4095 29.7243C78.0185 30.1697 79.3244 30.6151 80.3272 31.0605C81.3532 31.5059 82.216 32.1974 82.9156 33.135C83.6385 34.0492 84 35.2799 84 36.827C84 38.0694 83.6619 39.2414 82.9856 40.3432C82.3326 41.4449 81.3649 42.3357 80.0823 43.0155C78.823 43.6718 77.3306 44 75.6049 44Z" fill="white"/>
<circle cx="106.5" cy="3.5" r="3.5" fill="#1A377D"/>
</svg>
