<svg width="404" height="383" viewBox="0 0 404 383" fill="none" xmlns="http://www.w3.org/2000/svg">
<path d="M55.9936 324.076L46.593 317.603C46.593 317.603 41.1631 325.5 32.868 319.999C31.2503 318.968 29.9937 317.458 29.2727 315.68C28.5517 313.902 28.4019 311.944 28.8442 310.077C29.1949 308.503 29.9129 307.034 30.9396 305.791C31.9662 304.547 33.2725 303.565 34.7516 302.922C38.1475 301.393 43.2856 301.41 48.8569 306.884L63.4309 285.66L54.1365 279.266L45.6025 291.647C45.6025 291.647 30.2503 286.049 20.3633 300.411C10.9097 314.154 21.0354 325.827 26.315 329.453C30.3476 332.292 44.7182 340.772 55.9936 324.076Z" fill="#EBEBEB"/>
<path d="M56.9847 274.857L66.4121 281.344L72.4726 272.536L63.0452 266.049L56.9847 274.857Z" fill="#EBEBEB"/>
<path d="M96.0189 350.067L101.007 348.75C100.858 348.182 100.825 347.591 100.907 347.01C100.99 346.43 101.187 345.871 101.487 345.368C101.788 344.864 102.185 344.425 102.657 344.077C103.129 343.728 103.665 343.477 104.234 343.337C105.065 343.085 105.954 343.098 106.777 343.375C107.6 343.653 108.316 344.181 108.824 344.885C109.261 345.468 109.554 346.146 109.678 346.864C109.803 347.582 109.755 348.319 109.541 349.015C109.063 350.633 107.542 352.393 104.022 352.685L106.985 363.943L111.919 362.643L110.151 356.045C112.016 354.914 113.459 353.202 114.258 351.172C115.057 349.141 115.167 346.905 114.572 344.805C112.645 337.51 105.649 337.536 102.855 338.279C100.759 338.845 93.6046 341.286 96.0189 350.067Z" fill="#EBEBEB"/>
<path d="M112.615 364.928L107.604 366.25L108.839 370.927L113.849 369.605L112.615 364.928Z" fill="#EBEBEB"/>
<path d="M178.917 34.9575C181.44 33.4202 184.159 32.2304 187 31.4202L188.663 23.4611L202.184 23.2223L204.13 31.1814C206.998 31.8839 209.758 32.9697 212.337 34.4092L219.173 29.9256L228.9 39.3174L224.664 46.3037C226.196 48.8326 227.386 51.5536 228.202 54.3954L236.205 56.058L236.435 69.5796L228.476 71.5252C227.769 74.392 226.684 77.1519 225.248 79.7319L229.723 86.5679L220.331 96.2957L213.345 92.0597C210.819 93.597 208.097 94.7868 205.253 95.597L203.59 103.609L190.069 103.839L188.123 95.88C185.254 95.1814 182.493 94.0955 179.917 92.6522L173.081 97.1358L163.353 87.7441L167.589 80.7577C166.051 78.2317 164.862 75.5099 164.051 72.666L156.092 71.0034L155.854 57.4818L163.813 55.5362C164.502 52.6512 165.579 49.8727 167.014 47.2765L162.53 40.4405L171.922 30.7127L178.917 34.9575ZM186.125 52.9716C184.135 55.0381 182.803 57.6481 182.297 60.4715C181.791 63.2949 182.134 66.205 183.282 68.8338C184.43 71.4625 186.331 73.6918 188.746 75.2399C191.161 76.7879 193.98 77.5852 196.848 77.5307C199.716 77.4763 202.504 76.5727 204.858 74.9342C207.212 73.2957 209.028 70.9958 210.075 68.3254C211.122 65.655 211.354 62.734 210.742 59.9318C210.129 57.1296 208.699 54.5721 206.633 52.5825C203.86 49.9166 200.143 48.4602 196.298 48.5331C192.453 48.6061 188.794 50.2025 186.125 52.9716Z" fill="#F5F5F5"/>
<path d="M122.319 6.76511C123.777 5.88981 125.344 5.21179 126.98 4.74881L127.935 0.132528L135.726 -0.00012207L136.849 4.57194C138.5 4.97556 140.088 5.60025 141.571 6.42906L145.507 3.84678L151.078 9.25012L148.637 13.2739C149.518 14.73 150.199 16.2974 150.663 17.9344L155.27 18.8895L155.403 26.6805L150.831 27.8214C150.428 29.4724 149.804 31.0611 148.973 32.5438L151.556 36.4791L146.144 42.0858L142.12 39.645C140.664 40.5252 139.096 41.2063 137.459 41.6702L136.469 46.2688L128.678 46.4103L127.625 41.8382C125.976 41.4275 124.388 40.8001 122.903 39.9722L118.968 42.5545L113.361 37.1423L115.766 33.1274C114.885 31.6752 114.203 30.1105 113.741 28.4758L109.134 27.5118L108.992 19.7208L113.573 18.6065C113.975 16.9526 114.6 15.361 115.43 13.8752L112.848 9.93991L118.26 4.34201L122.319 6.76511ZM126.467 17.1473C125.313 18.3345 124.537 19.8376 124.239 21.4662C123.94 23.0947 124.133 24.7752 124.791 26.2944C125.449 27.8136 126.543 29.1031 127.935 29.9993C129.327 30.8956 130.954 31.3581 132.61 31.3282C134.265 31.2984 135.874 30.7775 137.233 29.8317C138.592 28.8859 139.639 27.5577 140.242 26.0158C140.845 24.4738 140.977 22.7875 140.62 21.1708C140.263 19.5541 139.434 18.0798 138.237 16.9351C136.643 15.3995 134.504 14.5594 132.291 14.5992C130.077 14.639 127.97 15.5554 126.431 17.1473H126.467Z" fill="#EBEBEB"/>
<path d="M370.881 151.373C372.335 150.495 373.899 149.814 375.532 149.348L376.496 144.741L384.278 144.608L385.401 149.18C387.055 149.582 388.647 150.207 390.133 151.037L394.068 148.455L399.666 153.867L397.225 157.891C398.105 159.347 398.786 160.914 399.25 162.551L403.867 163.506L403.999 171.297L399.427 172.421C399.016 174.069 398.391 175.656 397.57 177.143L400.144 181.078L394.74 186.685L390.716 184.244C389.26 185.124 387.693 185.805 386.056 186.269L385.092 190.877L377.31 191.018L376.187 186.437C374.536 186.035 372.947 185.411 371.464 184.58L367.52 187.163L361.922 181.75L364.363 177.727C363.481 176.271 362.8 174.704 362.338 173.066L357.73 172.111L357.589 164.32L362.161 163.197C362.572 161.549 363.197 159.961 364.018 158.474L361.445 154.539L366.848 148.932L370.881 151.373ZM375.028 161.747C373.879 162.935 373.109 164.438 372.814 166.064C372.519 167.691 372.714 169.368 373.372 170.884C374.031 172.4 375.124 173.687 376.514 174.582C377.904 175.476 379.528 175.939 381.181 175.91C382.834 175.882 384.441 175.364 385.799 174.422C387.158 173.48 388.206 172.156 388.812 170.618C389.418 169.08 389.555 167.397 389.204 165.782C388.854 164.167 388.032 162.691 386.843 161.543C385.248 160.006 383.108 159.164 380.894 159.202C378.679 159.24 376.569 160.155 375.028 161.747Z" fill="#EBEBEB"/>
<path d="M391.849 381.834C391.849 381.967 307.987 382.064 204.572 382.064C101.156 382.064 17.2764 381.967 17.2764 381.834C17.2764 381.701 101.112 381.604 204.572 381.604C308.031 381.604 391.849 381.71 391.849 381.834Z" fill="#263238"/>
<path d="M351.064 381.188L225.487 381.117C218.234 381.113 211.279 378.228 206.151 373.097C201.024 367.966 198.144 361.009 198.144 353.756L198.205 38.9291C198.222 31.669 201.117 24.7118 206.257 19.584C211.396 14.4561 218.36 11.5763 225.62 11.5763L351.197 11.6559C358.451 11.6606 365.406 14.5454 370.533 19.6762C375.661 24.807 378.541 31.7638 378.541 39.0175L378.479 353.844C378.479 357.441 377.77 361.002 376.391 364.325C375.012 367.647 372.992 370.664 370.445 373.204C367.899 375.744 364.876 377.757 361.55 379.127C358.225 380.497 354.661 381.197 351.064 381.188Z" fill="#455A64"/>
<path d="M351.019 22.7554H326.673C325.068 22.7925 323.543 23.4653 322.434 24.6261C321.324 25.7869 320.721 27.3406 320.757 28.9458V33.3675C320.792 34.9727 320.189 36.5264 319.08 37.6872C317.97 38.848 316.446 39.5208 314.84 39.5579H267.378C265.774 39.5185 264.251 38.8446 263.144 37.6841C262.037 36.5236 261.435 34.9712 261.47 33.3675V28.9458C261.506 27.3406 260.903 25.7869 259.793 24.6261C258.684 23.4653 257.159 22.7925 255.554 22.7554H225.681C220.61 22.7507 215.744 24.757 212.15 28.3344C208.556 31.9119 206.527 36.7685 206.508 41.8395L206.446 349.167C206.456 354.242 208.478 359.106 212.069 362.692C215.66 366.278 220.526 368.293 225.601 368.295L350.939 368.366C353.456 368.367 355.948 367.873 358.274 366.911C360.599 365.949 362.712 364.538 364.493 362.759C366.273 360.981 367.686 358.869 368.65 356.544C369.614 354.219 370.111 351.728 370.112 349.211L370.165 41.8838C370.158 36.8097 368.138 31.9457 364.548 28.3595C360.959 24.7732 356.093 22.7577 351.019 22.7554Z" fill="white"/>
<path d="M370.157 87.3479V41.5654C370.066 36.5483 368.011 31.7669 364.432 28.2494C360.854 24.7319 356.037 22.7592 351.02 22.7554H326.674C325.878 22.7726 325.094 22.9465 324.367 23.267C323.639 23.5876 322.981 24.0486 322.432 24.6236C321.882 25.1986 321.451 25.8763 321.164 26.618C320.877 27.3596 320.738 28.1506 320.757 28.9458V33.3675C320.793 34.9727 320.19 36.5264 319.08 37.6872C317.971 38.848 316.446 39.5208 314.841 39.5579H267.378C265.775 39.5185 264.252 38.8446 263.145 37.6841C262.037 36.5236 261.435 34.9712 261.471 33.3675V28.9458C261.506 27.3406 260.903 25.7869 259.794 24.6261C258.685 23.4653 257.16 22.7925 255.555 22.7554H225.681C220.61 22.7507 215.744 24.757 212.15 28.3344C208.556 31.9119 206.528 36.7685 206.509 41.8395V87.4894H370.157V87.3479Z" fill="#EBEBEB"/>
<path d="M239.885 149.446C250.84 149.446 259.721 140.585 259.721 129.655C259.721 118.724 250.84 109.863 239.885 109.863C228.93 109.863 220.049 118.724 220.049 129.655C220.049 140.585 228.93 149.446 239.885 149.446Z" fill="#E0E0E0"/>
<path d="M230.616 134.607L235.816 134.165L248.498 136.305L249.992 145.847L249.78 146.961C246.923 148.573 243.713 149.456 240.434 149.532C237.154 149.608 233.907 148.873 230.979 147.394L230.616 134.607Z" fill="#455A64"/>
<path d="M245.783 136.155C247.041 135.971 248.325 136.145 249.488 136.656C250.652 137.167 251.648 137.996 252.363 139.046C253.222 140.246 254.01 141.495 254.724 142.787C252.655 145.033 250.974 146.74 248.109 147.74L245.783 136.155Z" fill="#455A64"/>
<path d="M230.616 134.607C230.616 134.607 227.185 135.031 225.859 137.958C224.532 140.886 224.223 141.797 224.223 141.797C225.991 143.937 228.255 146.466 231.023 147.412C231.023 147.412 231.651 140.037 231.731 137.958C231.828 135.712 231.916 134.545 230.616 134.607Z" fill="#455A64"/>
<path d="M233.747 115.859C234.612 114.752 235.714 113.853 236.972 113.229C238.23 112.604 239.612 112.27 241.017 112.251C242.224 112.251 243.422 112.467 244.554 112.888C245.746 113.17 246.798 113.866 247.525 114.851C248.427 116.01 249.018 117.38 249.241 118.831C249.449 120.316 249.52 121.816 249.453 123.314C249.381 124.823 248.894 126.282 248.047 127.533L244.236 128.187C242.134 128.355 240.02 128.242 237.948 127.851C235.853 127.449 234.003 126.234 232.801 124.473C231.271 121.988 231.908 118.123 233.747 115.859Z" fill="#263238"/>
<path d="M230.069 126.869C230.108 126.438 230.244 126.021 230.468 125.65C230.691 125.28 230.996 124.964 231.36 124.729C231.732 124.505 232.165 124.406 232.597 124.444C233.029 124.482 233.438 124.656 233.765 124.941L234.367 125.649C234.831 125.863 235.216 126.217 235.47 126.661C235.723 127.104 235.832 127.616 235.782 128.125C235.716 128.634 235.503 129.113 235.171 129.504C234.838 129.895 234.399 130.181 233.907 130.327C233.415 130.466 232.895 130.477 232.398 130.358C231.901 130.239 231.443 129.993 231.068 129.646C230.7 129.29 230.419 128.855 230.245 128.374C230.072 127.892 230.012 127.378 230.069 126.869Z" fill="#263238"/>
<path d="M230.82 129.469C230.677 129.246 230.606 128.983 230.616 128.718C230.744 128.074 231.05 127.479 231.501 127.002C231.927 126.501 232.447 126.087 233.03 125.782C233.473 125.543 233.782 125.455 233.773 125.428C233.491 125.449 233.216 125.53 232.969 125.667C232.345 125.944 231.794 126.362 231.359 126.887C231.115 127.154 230.907 127.451 230.74 127.771C230.595 128.045 230.511 128.347 230.492 128.656C230.488 128.868 230.547 129.077 230.66 129.257C230.74 129.434 230.82 129.523 230.82 129.469Z" fill="#455A64"/>
<path d="M244.199 135.474V131.936C244.199 131.936 247.303 131.591 248.17 127.612C248.577 124.98 248.737 122.315 248.647 119.653C248.647 117.239 246.569 113.949 243.58 113.94L242.253 113.781L237.168 115.797C236.815 115.817 236.482 115.967 236.233 116.219C235.985 116.47 235.839 116.806 235.824 117.159L235.674 134.147L238 137.41C238.425 137.987 239.021 138.415 239.703 138.636C240.384 138.857 241.118 138.858 241.801 138.641C242.484 138.423 243.081 137.998 243.51 137.423C243.938 136.849 244.176 136.155 244.19 135.438L244.199 135.474Z" fill="#FFBE9D"/>
<path d="M242.175 126.692C242.202 126.487 242.306 126.301 242.466 126.17C242.612 126.048 242.793 125.976 242.982 125.965C243.172 125.954 243.36 126.004 243.519 126.108C243.681 126.235 243.808 126.402 243.885 126.593C243.963 126.784 243.989 126.992 243.961 127.196C243.872 127.319 243.759 127.422 243.628 127.498C243.497 127.574 243.351 127.622 243.2 127.638H243.059C242.942 127.641 242.825 127.621 242.716 127.578C242.606 127.536 242.507 127.472 242.422 127.391C242.333 127.299 242.264 127.189 242.222 127.068C242.179 126.948 242.163 126.819 242.175 126.692Z" fill="#EB996E"/>
<path d="M246.8 122.447C246.796 122.582 246.738 122.709 246.641 122.802C246.543 122.894 246.413 122.945 246.279 122.942C246.212 122.944 246.147 122.932 246.085 122.907C246.023 122.883 245.967 122.847 245.92 122.801C245.872 122.755 245.834 122.7 245.807 122.639C245.781 122.579 245.767 122.513 245.766 122.447C245.772 122.312 245.832 122.185 245.931 122.092C246.03 122 246.161 121.949 246.296 121.952C246.362 121.951 246.427 121.963 246.488 121.987C246.55 122.011 246.605 122.048 246.652 122.094C246.699 122.14 246.736 122.195 246.762 122.256C246.787 122.316 246.8 122.381 246.8 122.447Z" fill="#263238"/>
<path d="M247.649 121.174C247.578 121.236 247.198 120.926 246.65 120.9C246.101 120.873 245.668 121.13 245.615 121.059C245.562 120.988 245.659 120.909 245.845 120.785C246.095 120.635 246.385 120.565 246.676 120.581C246.964 120.593 247.241 120.698 247.463 120.882C247.622 121.024 247.676 121.147 247.649 121.174Z" fill="#263238"/>
<path d="M244.156 125.366C244.446 125.298 244.743 125.262 245.041 125.26C245.182 125.26 245.324 125.26 245.35 125.136C245.37 124.991 245.346 124.843 245.28 124.712L244.917 123.615C244.579 122.679 244.316 121.718 244.13 120.741C244.543 121.647 244.883 122.584 245.147 123.544C245.271 123.925 245.377 124.296 245.492 124.65C245.566 124.826 245.582 125.021 245.536 125.207C245.482 125.302 245.393 125.372 245.288 125.401C245.209 125.41 245.129 125.41 245.05 125.401C244.752 125.43 244.451 125.418 244.156 125.366Z" fill="#263238"/>
<path d="M244.182 131.945C242.283 131.86 240.446 131.248 238.876 130.177C238.876 130.177 240.158 133.033 244.182 132.883V131.945Z" fill="#EB996E"/>
<path d="M242.502 125.666C242.6 125.666 242.564 126.268 243.059 126.719C243.555 127.17 244.191 127.143 244.191 127.223C244.191 127.302 244.041 127.338 243.776 127.329C243.422 127.313 243.085 127.175 242.821 126.94C242.571 126.71 242.419 126.393 242.396 126.055C242.387 125.799 242.467 125.657 242.502 125.666Z" fill="#263238"/>
<path d="M247.534 119.087C247.436 119.22 247.012 119.087 246.517 119.087C246.022 119.087 245.632 119.211 245.5 119.087C245.367 118.963 245.5 118.893 245.694 118.769C245.938 118.615 246.22 118.533 246.508 118.53C246.798 118.522 247.083 118.599 247.33 118.751C247.516 118.91 247.578 119.025 247.534 119.087Z" fill="#263238"/>
<path d="M240.716 122.447C240.713 122.583 240.764 122.714 240.856 122.813C240.949 122.912 241.076 122.971 241.211 122.978C241.277 122.984 241.343 122.977 241.406 122.957C241.469 122.937 241.527 122.905 241.578 122.862C241.628 122.819 241.669 122.766 241.699 122.707C241.729 122.648 241.746 122.584 241.751 122.518C241.751 122.384 241.699 122.255 241.607 122.158C241.515 122.061 241.389 122.003 241.255 121.996C241.19 121.989 241.124 121.995 241.061 122.014C240.998 122.033 240.94 122.064 240.889 122.107C240.839 122.149 240.797 122.201 240.768 122.259C240.738 122.318 240.72 122.382 240.716 122.447Z" fill="#263238"/>
<path d="M240.044 120.979C240.106 121.05 240.504 120.767 241.061 120.776C241.618 120.785 242.016 121.068 242.078 121.006C242.14 120.944 242.078 120.855 241.865 120.723C241.63 120.55 241.344 120.457 241.052 120.457C240.765 120.448 240.483 120.532 240.247 120.696C240.07 120.829 240.008 120.944 240.044 120.979Z" fill="#263238"/>
<path d="M239.724 119.794C239.83 119.927 240.264 119.794 240.777 119.794C241.29 119.794 241.723 119.9 241.829 119.794C241.935 119.688 241.829 119.6 241.617 119.476C241.359 119.325 241.066 119.245 240.768 119.245C240.469 119.245 240.176 119.325 239.919 119.476C239.733 119.6 239.671 119.723 239.724 119.794Z" fill="#263238"/>
<path d="M236.498 123.942C236.498 123.641 236.215 122.916 235.914 122.854C235.136 122.686 233.712 122.677 233.588 124.676C233.42 127.409 236.241 127.011 236.241 126.931C236.241 126.852 236.445 124.968 236.498 123.942Z" fill="#FFBE9D"/>
<path d="M235.516 125.888C235.516 125.888 235.471 125.888 235.383 125.95C235.327 125.973 235.267 125.986 235.206 125.986C235.145 125.986 235.085 125.973 235.029 125.95C234.858 125.827 234.723 125.66 234.637 125.467C234.552 125.275 234.519 125.063 234.543 124.853C234.553 124.619 234.614 124.39 234.72 124.181C234.751 124.098 234.802 124.023 234.869 123.963C234.935 123.903 235.014 123.86 235.1 123.836C235.156 123.824 235.215 123.832 235.265 123.86C235.315 123.888 235.354 123.933 235.374 123.986C235.38 124.03 235.38 124.075 235.374 124.119C235.374 124.119 235.436 124.119 235.418 123.969C235.407 123.9 235.373 123.838 235.321 123.792C235.287 123.759 235.247 123.734 235.203 123.719C235.158 123.704 235.111 123.698 235.065 123.703C234.952 123.718 234.844 123.761 234.753 123.83C234.661 123.898 234.589 123.988 234.543 124.093C234.412 124.322 234.339 124.58 234.331 124.844C234.301 125.087 234.343 125.334 234.454 125.553C234.564 125.772 234.736 125.953 234.95 126.073C235.022 126.098 235.099 126.107 235.176 126.099C235.252 126.091 235.325 126.068 235.392 126.029C235.516 125.985 235.516 125.897 235.516 125.888Z" fill="#EB996E"/>
<path d="M235.807 122.863L236.497 123.579C239.504 120.714 245.385 113.524 245.058 113.949C243.685 113.443 242.208 113.285 240.76 113.489C238.522 113.869 234.286 114.984 234.348 117.61C234.48 119.441 234.976 121.227 235.807 122.863Z" fill="#263238"/>
<path d="M231.828 122.262C231.828 122.262 231.828 122.2 231.828 122.103C231.88 121.954 231.942 121.809 232.014 121.669C232.298 121.162 232.69 120.725 233.163 120.387C233.864 119.887 234.645 119.511 235.472 119.273C236.356 118.981 237.417 118.751 238.434 118.318C240.174 117.583 241.745 116.499 243.05 115.134C243.443 114.719 243.812 114.282 244.156 113.825L244.43 113.445C244.46 113.399 244.496 113.358 244.536 113.321L244.457 113.463C244.395 113.551 244.315 113.693 244.2 113.861C243.87 114.332 243.51 114.781 243.121 115.205C242.54 115.83 241.9 116.399 241.211 116.903C240.368 117.523 239.453 118.039 238.487 118.442C237.512 118.815 236.517 119.134 235.507 119.397C234.692 119.624 233.921 119.986 233.225 120.467C232.756 120.79 232.362 121.209 232.067 121.696C231.973 121.878 231.894 122.068 231.828 122.262Z" fill="#455A64"/>
<path d="M232.624 122.686C232.617 122.483 232.653 122.281 232.73 122.094C232.934 121.57 233.292 121.12 233.756 120.802C234.453 120.358 235.231 120.057 236.046 119.918C237.023 119.732 237.975 119.435 238.885 119.034C239.79 118.622 240.639 118.1 241.414 117.477C242.057 116.966 242.649 116.395 243.183 115.77C243.534 115.351 243.856 114.908 244.147 114.444C244.244 114.294 244.324 114.161 244.377 114.064C244.404 114.016 244.437 113.972 244.474 113.931C244.455 113.98 244.431 114.028 244.403 114.073L244.191 114.47C243.92 114.951 243.606 115.407 243.254 115.832C242.731 116.485 242.138 117.078 241.485 117.601C240.703 118.236 239.844 118.771 238.929 119.193C238.009 119.598 237.044 119.894 236.055 120.077C235.254 120.227 234.489 120.527 233.8 120.962C233.342 121.26 232.982 121.688 232.765 122.191C232.704 122.351 232.656 122.517 232.624 122.686Z" fill="#455A64"/>
<path d="M231.023 147.395C230.893 145.652 230.893 143.902 231.023 142.159C231.141 143.902 231.141 145.652 231.023 147.395Z" fill="#263238"/>
<path d="M249.789 147.023C249.766 146.729 249.766 146.433 249.789 146.139C249.842 145.401 249.815 144.66 249.709 143.928C249.571 143.197 249.358 142.483 249.072 141.797C248.938 141.513 248.832 141.216 248.754 140.912C248.927 141.17 249.072 141.446 249.187 141.735C249.515 142.417 249.75 143.139 249.886 143.884C249.991 144.632 249.991 145.391 249.886 146.139C249.891 146.436 249.858 146.734 249.789 147.023Z" fill="#263238"/>
<path d="M345.245 154.788H277.637C276.026 154.785 274.482 154.145 273.344 153.006C272.205 151.867 271.564 150.323 271.561 148.712V120.325L264.106 113.71H345.245C346.047 113.704 346.843 113.857 347.586 114.161C348.328 114.464 349.004 114.911 349.573 115.477C350.142 116.043 350.593 116.715 350.901 117.456C351.208 118.197 351.366 118.992 351.365 119.794V148.712C351.364 149.514 351.204 150.307 350.896 151.046C350.587 151.786 350.136 152.457 349.567 153.021C348.998 153.586 348.324 154.033 347.582 154.336C346.841 154.639 346.046 154.792 345.245 154.788Z" fill="#EBEBEB"/>
<path d="M340.611 159.386C338.213 159.614 335.803 159.691 333.395 159.616C330.99 159.69 328.583 159.614 326.188 159.386C328.583 159.158 330.99 159.082 333.395 159.156C335.803 159.081 338.213 159.158 340.611 159.386Z" fill="#E0E0E0"/>
<path d="M343.592 159.953C343.562 159.952 343.533 159.946 343.505 159.934C343.478 159.922 343.453 159.904 343.433 159.882L342.036 158.423C341.995 158.382 341.973 158.326 341.973 158.268C341.973 158.21 341.995 158.155 342.036 158.113C342.056 158.092 342.08 158.075 342.106 158.064C342.133 158.052 342.162 158.046 342.191 158.046C342.22 158.046 342.248 158.052 342.275 158.064C342.302 158.075 342.326 158.092 342.345 158.113L343.583 159.405L346.298 156.645C346.318 156.624 346.342 156.607 346.369 156.596C346.395 156.584 346.424 156.578 346.453 156.578C346.482 156.578 346.511 156.584 346.537 156.596C346.564 156.607 346.588 156.624 346.608 156.645C346.648 156.687 346.671 156.742 346.671 156.8C346.671 156.858 346.648 156.914 346.608 156.955L343.734 159.882C343.695 159.92 343.646 159.945 343.592 159.953Z" fill="#FF725E"/>
<path d="M345.581 159.908H345.325C345.266 159.908 345.21 159.884 345.168 159.843C345.127 159.802 345.104 159.745 345.104 159.687C345.11 159.629 345.136 159.575 345.178 159.534C345.22 159.494 345.275 159.469 345.333 159.466H345.493L348.296 156.609C348.317 156.588 348.341 156.571 348.369 156.559C348.396 156.547 348.425 156.542 348.455 156.542C348.485 156.542 348.514 156.547 348.542 156.559C348.569 156.571 348.594 156.588 348.614 156.609C348.655 156.65 348.678 156.706 348.678 156.764C348.678 156.822 348.655 156.877 348.614 156.919L345.74 159.837C345.721 159.86 345.696 159.878 345.669 159.89C345.641 159.903 345.611 159.908 345.581 159.908Z" fill="#FF725E"/>
<path d="M340.611 270.522C338.213 270.749 335.803 270.826 333.395 270.752C330.99 270.826 328.583 270.749 326.188 270.522C328.583 270.294 330.99 270.217 333.395 270.292C335.803 270.217 338.213 270.294 340.611 270.522Z" fill="#E0E0E0"/>
<path d="M343.592 271.088C343.557 271.092 343.523 271.087 343.49 271.075C343.458 271.063 343.429 271.043 343.406 271.017L342.009 269.558C341.984 269.538 341.964 269.514 341.95 269.485C341.935 269.457 341.927 269.426 341.926 269.395C341.925 269.363 341.93 269.332 341.942 269.302C341.954 269.273 341.972 269.247 341.995 269.225C342.018 269.203 342.045 269.187 342.075 269.176C342.105 269.166 342.137 269.162 342.169 269.166C342.2 269.169 342.23 269.178 342.258 269.194C342.285 269.21 342.309 269.232 342.327 269.258L343.565 270.549L346.28 267.79C346.3 267.768 346.324 267.752 346.351 267.74C346.377 267.728 346.406 267.723 346.435 267.723C346.464 267.723 346.493 267.728 346.519 267.74C346.546 267.752 346.57 267.768 346.59 267.79C346.63 267.831 346.653 267.886 346.653 267.944C346.653 268.002 346.63 268.058 346.59 268.099L343.751 271.017C343.708 271.059 343.651 271.084 343.592 271.088Z" fill="#FF725E"/>
<path d="M345.581 271.017H345.325C345.265 271.015 345.209 270.99 345.168 270.947C345.126 270.904 345.103 270.847 345.104 270.787C345.103 270.758 345.109 270.729 345.121 270.702C345.133 270.675 345.15 270.651 345.172 270.631C345.193 270.611 345.219 270.596 345.247 270.586C345.275 270.576 345.304 270.573 345.333 270.575H345.493L348.296 267.719C348.317 267.697 348.341 267.68 348.369 267.669C348.396 267.657 348.425 267.651 348.455 267.651C348.485 267.651 348.514 267.657 348.542 267.669C348.569 267.68 348.594 267.697 348.614 267.719C348.655 267.76 348.678 267.816 348.678 267.874C348.678 267.931 348.655 267.987 348.614 268.028L345.74 270.947C345.721 270.97 345.696 270.988 345.669 271C345.641 271.012 345.611 271.018 345.581 271.017Z" fill="#FF725E"/>
<path d="M344.378 121.837C344.378 121.961 329.618 122.067 311.41 122.067C293.201 122.067 278.45 121.961 278.45 121.837C278.45 121.714 293.201 121.607 311.41 121.607C329.618 121.607 344.378 121.705 344.378 121.837Z" fill="white"/>
<path d="M344.378 126.674C344.378 126.807 329.618 126.904 311.41 126.904C293.201 126.904 278.45 126.807 278.45 126.674C278.45 126.541 293.201 126.444 311.41 126.444C329.618 126.444 344.378 126.55 344.378 126.674Z" fill="white"/>
<path d="M344.378 131.52C344.378 131.644 329.618 131.75 311.41 131.75C293.201 131.75 278.45 131.644 278.45 131.52C278.45 131.397 293.201 131.29 311.41 131.29C329.618 131.29 344.378 131.397 344.378 131.52Z" fill="white"/>
<path d="M239.885 272.874C250.84 272.874 259.721 264.013 259.721 253.083C259.721 242.152 250.84 233.291 239.885 233.291C228.93 233.291 220.049 242.152 220.049 253.083C220.049 264.013 228.93 272.874 239.885 272.874Z" fill="#E0E0E0"/>
<path d="M230.616 258.035L235.816 257.593L248.498 259.733L249.992 269.249L249.78 270.354C246.924 271.969 243.714 272.853 240.434 272.929C237.154 273.004 233.906 272.269 230.979 270.788L230.616 258.009" fill="#455A64"/>
<path d="M245.783 259.573C247.041 259.392 248.324 259.566 249.487 260.078C250.65 260.589 251.646 261.416 252.363 262.465C253.224 263.667 254.012 264.919 254.724 266.215C252.655 268.461 250.974 270.168 248.109 271.158L245.783 259.573Z" fill="#455A64"/>
<path d="M230.616 258.035C230.616 258.035 227.185 258.451 225.859 261.378C224.532 264.305 224.223 265.225 224.223 265.225C225.991 267.356 228.255 269.885 231.023 270.832C231.023 270.832 231.651 263.465 231.731 261.378C231.828 259.096 231.916 257.964 230.616 258.035Z" fill="#455A64"/>
<path d="M233.747 239.286C234.61 238.178 235.712 237.278 236.97 236.653C238.229 236.029 239.612 235.695 241.017 235.678C242.224 235.671 243.423 235.884 244.554 236.306C245.743 236.595 246.794 237.289 247.525 238.269C248.425 239.429 249.016 240.798 249.241 242.249C249.448 243.737 249.519 245.241 249.453 246.741C249.382 248.248 248.896 249.705 248.047 250.951L244.236 251.614C242.134 251.777 240.02 251.664 237.948 251.278C235.853 250.876 234.003 249.662 232.801 247.9C231.271 245.371 231.908 241.541 233.747 239.286Z" fill="#263238"/>
<path d="M230.069 250.333C230.106 249.901 230.242 249.484 230.466 249.113C230.69 248.742 230.996 248.427 231.36 248.193C231.73 247.967 232.163 247.864 232.596 247.901C233.028 247.938 233.438 248.111 233.765 248.396L234.367 249.112C234.831 249.326 235.218 249.679 235.472 250.123C235.725 250.567 235.834 251.08 235.782 251.588C235.709 252.095 235.495 252.571 235.163 252.961C234.831 253.351 234.395 253.638 233.907 253.79C233.414 253.928 232.894 253.937 232.397 253.816C231.9 253.695 231.443 253.449 231.068 253.101C230.7 252.747 230.419 252.313 230.245 251.833C230.072 251.353 230.012 250.84 230.069 250.333Z" fill="#263238"/>
<path d="M230.819 252.897C230.678 252.669 230.607 252.405 230.616 252.137C230.744 251.496 231.05 250.904 231.5 250.43C231.925 249.926 232.445 249.511 233.03 249.21C233.473 248.971 233.782 248.882 233.773 248.847C233.492 248.873 233.218 248.954 232.968 249.086C232.348 249.368 231.799 249.785 231.359 250.306C231.114 250.591 230.906 250.906 230.74 251.244C230.594 251.517 230.51 251.819 230.492 252.128C230.489 252.34 230.548 252.549 230.66 252.729C230.74 252.862 230.819 252.906 230.819 252.897Z" fill="#455A64"/>
<path d="M244.217 259.22V255.683C244.217 255.683 247.321 255.338 248.188 251.367C248.595 248.735 248.755 246.07 248.666 243.408C248.666 240.994 246.588 237.704 243.598 237.696L242.272 237.545L237.187 239.561C236.833 239.579 236.499 239.729 236.25 239.981C236.001 240.233 235.856 240.569 235.843 240.923L235.692 257.903L238.018 261.166C238.444 261.742 239.04 262.171 239.721 262.392C240.403 262.612 241.137 262.614 241.82 262.396C242.502 262.179 243.1 261.753 243.528 261.179C243.957 260.604 244.195 259.91 244.209 259.194L244.217 259.22Z" fill="#FFBE9D"/>
<path d="M242.175 250.12C242.202 249.915 242.307 249.729 242.466 249.598C242.612 249.476 242.793 249.405 242.982 249.393C243.172 249.382 243.36 249.432 243.519 249.536C243.681 249.663 243.808 249.83 243.885 250.021C243.963 250.212 243.989 250.42 243.961 250.624C243.872 250.746 243.758 250.847 243.627 250.922C243.496 250.997 243.351 251.043 243.201 251.057H243.059C242.823 251.052 242.596 250.961 242.422 250.801C242.332 250.714 242.262 250.607 242.219 250.489C242.177 250.371 242.161 250.245 242.175 250.12Z" fill="#EB996E"/>
<path d="M246.8 246.256C246.784 246.382 246.722 246.497 246.627 246.581C246.532 246.664 246.41 246.71 246.283 246.71C246.156 246.71 246.034 246.664 245.939 246.581C245.844 246.497 245.782 246.382 245.766 246.256C245.772 246.121 245.832 245.994 245.931 245.901C246.03 245.809 246.161 245.759 246.296 245.761C246.362 245.76 246.427 245.772 246.488 245.796C246.55 245.821 246.605 245.857 246.652 245.903C246.699 245.949 246.736 246.004 246.762 246.065C246.787 246.125 246.8 246.191 246.8 246.256Z" fill="#263238"/>
<path d="M247.649 244.938C247.578 245 247.198 244.69 246.65 244.664C246.101 244.637 245.668 244.885 245.615 244.814C245.562 244.743 245.659 244.664 245.845 244.549C246.092 244.391 246.384 244.32 246.676 244.345C246.964 244.357 247.241 244.462 247.463 244.646C247.622 244.787 247.676 244.911 247.649 244.938Z" fill="#263238"/>
<path d="M244.156 249.129C244.446 249.06 244.743 249.022 245.041 249.014C245.182 249.014 245.324 249.014 245.35 248.89C245.37 248.745 245.345 248.597 245.28 248.466C245.165 248.121 245.041 247.758 244.917 247.369C244.581 246.436 244.318 245.478 244.13 244.504C244.544 245.406 244.884 246.341 245.147 247.298C245.271 247.688 245.377 248.05 245.492 248.404C245.566 248.58 245.582 248.775 245.536 248.961C245.512 249.01 245.477 249.053 245.434 249.087C245.392 249.12 245.342 249.144 245.288 249.156C245.209 249.168 245.129 249.168 245.05 249.156C244.752 249.187 244.452 249.178 244.156 249.129Z" fill="#263238"/>
<path d="M244.182 255.701C242.288 255.627 240.452 255.03 238.876 253.976C238.876 253.976 240.158 256.833 244.182 256.682V255.701Z" fill="#EB996E"/>
<path d="M242.502 249.421C242.6 249.421 242.564 250.023 243.059 250.482C243.555 250.942 244.191 250.907 244.191 250.986C244.191 251.066 244.041 251.093 243.776 251.093C243.42 251.077 243.082 250.936 242.821 250.695C242.568 250.467 242.416 250.149 242.396 249.81C242.387 249.563 242.467 249.421 242.502 249.421Z" fill="#263238"/>
<path d="M247.534 242.851C247.436 242.983 247.012 242.851 246.517 242.851C246.022 242.851 245.632 242.975 245.5 242.851C245.367 242.727 245.5 242.656 245.694 242.532C245.936 242.375 246.219 242.292 246.508 242.294C246.798 242.282 247.085 242.359 247.33 242.515C247.516 242.656 247.578 242.789 247.534 242.851Z" fill="#263238"/>
<path d="M240.716 246.184C240.714 246.319 240.764 246.449 240.857 246.546C240.949 246.644 241.077 246.701 241.211 246.706C241.276 246.713 241.343 246.707 241.405 246.688C241.468 246.669 241.527 246.638 241.577 246.596C241.628 246.554 241.669 246.502 241.699 246.443C241.729 246.384 241.746 246.32 241.751 246.255C241.753 246.119 241.703 245.988 241.61 245.889C241.518 245.79 241.391 245.731 241.255 245.724C241.19 245.718 241.123 245.725 241.06 245.745C240.997 245.765 240.939 245.798 240.889 245.841C240.838 245.883 240.797 245.936 240.768 245.995C240.738 246.054 240.72 246.118 240.716 246.184Z" fill="#263238"/>
<path d="M240.044 244.735C240.106 244.805 240.504 244.522 241.061 244.54C241.618 244.558 242.016 244.832 242.078 244.761C242.14 244.69 242.078 244.611 241.865 244.478C241.628 244.309 241.344 244.216 241.052 244.213C240.765 244.211 240.484 244.297 240.247 244.46C240.07 244.584 240.008 244.708 240.044 244.735Z" fill="#263238"/>
<path d="M239.724 243.549C239.83 243.673 240.264 243.549 240.777 243.549C241.29 243.549 241.723 243.646 241.829 243.549C241.935 243.452 241.829 243.363 241.617 243.24C241.359 243.089 241.066 243.009 240.768 243.009C240.469 243.009 240.176 243.089 239.919 243.24C239.733 243.355 239.671 243.487 239.724 243.549Z" fill="#263238"/>
<path d="M236.498 247.361C236.498 247.06 236.215 246.344 235.914 246.282C235.136 246.114 233.712 246.096 233.588 248.095C233.42 250.828 236.241 250.438 236.241 250.359C236.241 250.279 236.445 248.396 236.498 247.361Z" fill="#FFBE9D"/>
<path d="M235.515 249.315C235.515 249.315 235.471 249.315 235.383 249.377C235.269 249.421 235.143 249.421 235.029 249.377C234.858 249.256 234.723 249.091 234.638 248.9C234.552 248.708 234.519 248.498 234.542 248.29C234.552 248.055 234.612 247.826 234.719 247.617C234.751 247.534 234.802 247.459 234.868 247.399C234.934 247.339 235.014 247.296 235.1 247.273C235.155 247.262 235.212 247.27 235.261 247.295C235.311 247.321 235.351 247.363 235.374 247.414C235.381 247.461 235.381 247.509 235.374 247.556C235.374 247.556 235.436 247.511 235.418 247.396C235.405 247.329 235.371 247.267 235.321 247.219C235.285 247.19 235.245 247.167 235.201 247.154C235.156 247.14 235.11 247.135 235.064 247.14C234.951 247.153 234.842 247.195 234.751 247.264C234.659 247.332 234.587 247.424 234.542 247.529C234.41 247.758 234.337 248.016 234.33 248.281C234.301 248.523 234.344 248.768 234.454 248.985C234.564 249.202 234.737 249.382 234.949 249.501C235.018 249.535 235.094 249.552 235.17 249.552C235.247 249.552 235.323 249.535 235.391 249.501C235.515 249.377 235.515 249.315 235.515 249.315Z" fill="#EB996E"/>
<path d="M235.807 246.255L236.497 246.981C239.504 244.106 245.385 236.917 245.058 237.35C243.687 236.837 242.209 236.676 240.76 236.881C238.522 237.262 234.286 238.376 234.348 241.011C234.481 242.839 234.977 244.622 235.807 246.255Z" fill="#263238"/>
<path d="M231.828 245.681C231.828 245.681 231.828 245.628 231.828 245.521C231.882 245.377 231.944 245.235 232.014 245.097C232.299 244.589 232.692 244.148 233.163 243.806C233.879 243.311 234.675 242.943 235.516 242.718C236.4 242.417 237.461 242.187 238.478 241.754C239.436 241.357 240.344 240.849 241.185 240.242C241.87 239.747 242.51 239.19 243.095 238.579C243.59 238.049 243.979 237.589 244.2 237.271C244.306 237.111 244.404 236.988 244.474 236.89C244.545 236.793 244.572 236.758 244.58 236.766L244.501 236.908L244.244 237.297C243.919 237.772 243.558 238.221 243.165 238.641C242.584 239.27 241.945 239.841 241.255 240.348C240.407 240.95 239.489 241.449 238.523 241.834C237.497 242.267 236.453 242.497 235.542 242.789C234.728 243.013 233.957 243.372 233.261 243.85C232.791 244.176 232.396 244.598 232.102 245.088C231.999 245.28 231.907 245.478 231.828 245.681Z" fill="#455A64"/>
<path d="M232.624 246.114C232.617 245.908 232.653 245.703 232.73 245.512C232.932 244.99 233.29 244.542 233.756 244.23C234.453 243.785 235.231 243.485 236.046 243.346C237.022 243.155 237.974 242.859 238.885 242.461C239.79 242.05 240.639 241.527 241.414 240.905C242.479 240.052 243.394 239.027 244.12 237.872C244.218 237.712 244.297 237.589 244.35 237.482C244.379 237.438 244.411 237.397 244.448 237.359C244.429 237.408 244.405 237.455 244.377 237.5L244.165 237.898C243.893 238.379 243.579 238.835 243.227 239.26C242.705 239.913 242.111 240.506 241.458 241.029C240.678 241.664 239.819 242.196 238.903 242.612C237.98 243.012 237.016 243.309 236.029 243.496C235.225 243.638 234.459 243.938 233.773 244.38C233.31 244.673 232.948 245.103 232.739 245.61C232.685 245.774 232.646 245.942 232.624 246.114Z" fill="#455A64"/>
<path d="M231.024 270.814C230.894 269.075 230.894 267.328 231.024 265.588C231.142 267.328 231.142 269.074 231.024 270.814Z" fill="#263238"/>
<path d="M249.789 270.451C249.763 270.142 249.763 269.831 249.789 269.523C249.842 268.782 249.815 268.038 249.709 267.303C249.57 266.575 249.357 265.864 249.072 265.18C248.94 264.896 248.834 264.6 248.754 264.296C248.927 264.554 249.072 264.83 249.187 265.118C249.516 265.8 249.751 266.523 249.886 267.267C249.991 268.015 249.991 268.774 249.886 269.523C249.893 269.835 249.861 270.147 249.789 270.451Z" fill="#263238"/>
<path d="M345.245 264.721H277.637C276.025 264.719 274.48 264.077 273.34 262.936C272.201 261.795 271.561 260.249 271.561 258.637V243.744L264.106 237.129H345.245C346.856 237.132 348.4 237.773 349.538 238.911C350.677 240.05 351.318 241.594 351.321 243.205V258.637C351.321 260.249 350.681 261.795 349.542 262.936C348.402 264.077 346.857 264.719 345.245 264.721Z" fill="#EBEBEB"/>
<path d="M344.378 245.257C344.378 245.389 329.618 245.487 311.41 245.487C293.201 245.487 278.45 245.389 278.45 245.257C278.45 245.124 293.201 245.027 311.41 245.027C329.618 245.027 344.378 245.133 344.378 245.257Z" fill="white"/>
<path d="M344.378 250.102C344.378 250.226 329.618 250.332 311.41 250.332C293.201 250.332 278.45 250.226 278.45 250.102C278.45 249.978 293.201 249.872 311.41 249.872C329.618 249.872 344.378 249.978 344.378 250.102Z" fill="white"/>
<path d="M344.378 254.948C344.378 255.072 329.618 255.178 311.41 255.178C293.201 255.178 278.45 255.072 278.45 254.948C278.45 254.825 293.201 254.719 311.41 254.719C329.618 254.719 344.378 254.816 344.378 254.948Z" fill="white"/>
<path d="M344.378 136.367C344.378 136.491 329.618 136.597 311.41 136.597C293.201 136.597 278.45 136.491 278.45 136.367C278.45 136.243 293.201 136.137 311.41 136.137C329.618 136.137 344.378 136.235 344.378 136.367Z" fill="white"/>
<path d="M344.378 141.204C344.378 141.337 329.618 141.434 311.41 141.434C293.201 141.434 278.45 141.337 278.45 141.204C278.45 141.071 293.201 140.974 311.41 140.974C329.618 140.974 344.378 141.08 344.378 141.204Z" fill="white"/>
<path d="M344.378 147.023C344.378 147.156 329.618 147.253 311.41 147.253C293.201 147.253 278.45 147.156 278.45 147.023C278.45 146.891 293.201 146.793 311.41 146.793C329.618 146.793 344.378 146.9 344.378 147.023Z" fill="white"/>
<path d="M278.85 62.8689C278.897 62.1817 279.144 61.5233 279.56 60.9744C279.976 60.4256 280.543 60.0101 281.192 59.7791C281.841 59.5481 282.543 59.5116 283.213 59.674C283.882 59.8364 284.49 60.1907 284.96 60.6934L284.014 61.5778C283.819 61.3409 283.573 61.1505 283.294 61.0205C283.016 60.8904 282.712 60.824 282.405 60.8261C281.861 60.8261 281.339 61.0423 280.954 61.427C280.569 61.8118 280.353 62.3336 280.353 62.8778C280.353 63.4219 280.569 63.9438 280.954 64.3285C281.339 64.7133 281.861 64.9295 282.405 64.9295C282.713 64.9317 283.018 64.8645 283.296 64.7328C283.575 64.6012 283.82 64.4084 284.014 64.1689L284.96 65.0533C284.49 65.5556 283.883 65.9099 283.215 66.0727C282.546 66.2355 281.845 66.1997 281.196 65.9697C280.547 65.7398 279.98 65.3256 279.563 64.778C279.146 64.2304 278.898 63.5731 278.85 62.8866V62.8689Z" fill="#263238"/>
<path d="M290.84 63.2493V66.0704H289.461V63.4704C289.461 62.6745 289.089 62.3119 288.461 62.3119C287.833 62.3119 287.285 62.7364 287.285 63.6384V66.0704H285.853V59.2875H287.285V61.6664C287.493 61.4671 287.738 61.3119 288.007 61.21C288.276 61.1082 288.563 61.0619 288.85 61.0738C289.131 61.0625 289.411 61.1125 289.67 61.2205C289.929 61.3285 290.162 61.4918 290.351 61.699C290.541 61.9062 290.683 62.1523 290.767 62.4201C290.852 62.6879 290.877 62.9709 290.84 63.2493Z" fill="#263238"/>
<path d="M296.482 63.2665V66.0699H295.146V65.4597C294.981 65.6983 294.753 65.8876 294.489 66.0075C294.224 66.1274 293.932 66.1734 293.643 66.1406C292.493 66.1406 291.812 65.5039 291.812 64.6549C291.812 63.806 292.423 63.1781 293.926 63.1781H295.058C295.058 62.5679 294.687 62.2141 293.926 62.2141C293.416 62.209 292.917 62.367 292.502 62.6652L291.989 61.6747C292.621 61.266 293.36 61.0564 294.112 61.0733C295.651 61.0733 296.482 61.772 296.482 63.2665ZM295.058 64.5134V64.0094H294.076C293.413 64.0094 293.192 64.257 293.192 64.593C293.192 64.9291 293.493 65.1855 293.997 65.1855C294.222 65.2025 294.448 65.1463 294.639 65.0252C294.83 64.9041 294.977 64.7247 295.058 64.5134Z" fill="#263238"/>
<path d="M300.957 65.8494C300.608 66.0684 300.201 66.1763 299.789 66.1589C299.547 66.1924 299.299 66.1702 299.066 66.0941C298.833 66.018 298.62 65.8899 298.444 65.7196C298.268 65.5492 298.133 65.341 298.048 65.1108C297.964 64.8805 297.934 64.6341 297.959 64.3902V62.3651H297.198V61.2685H297.959V60.0658H299.383V61.2685H300.612V62.3651H299.383V64.3726C299.372 64.4568 299.38 64.5424 299.406 64.6232C299.433 64.7039 299.477 64.7778 299.535 64.8395C299.593 64.9013 299.665 64.9493 299.744 64.9802C299.823 65.0111 299.908 65.024 299.993 65.0181C300.2 65.0256 300.404 64.9599 300.568 64.8324L300.957 65.8494Z" fill="#263238"/>
<path d="M326.187 72.7382C326.187 72.862 311.154 72.9681 292.52 72.9681C273.887 72.9681 258.862 72.862 258.862 72.7382C258.862 72.6144 273.896 72.4994 292.52 72.4994C311.145 72.4994 326.187 72.6055 326.187 72.7382Z" fill="#263238"/>
<path d="M356.016 62.8691C356.881 62.8691 357.582 62.1683 357.582 61.3038C357.582 60.4393 356.881 59.7385 356.016 59.7385C355.152 59.7385 354.451 60.4393 354.451 61.3038C354.451 62.1683 355.152 62.8691 356.016 62.8691Z" fill="#263238"/>
<path d="M357.555 65.8489C357.557 66.161 357.466 66.4665 357.294 66.7267C357.122 66.987 356.876 67.1901 356.588 67.3103C356.3 67.4306 355.983 67.4625 355.676 67.402C355.37 67.3416 355.089 67.1915 354.868 66.9708C354.648 66.7501 354.498 66.4688 354.437 66.1626C354.377 65.8565 354.408 65.5392 354.529 65.2512C354.649 64.9632 354.852 64.7175 355.112 64.5452C355.373 64.3729 355.678 64.2818 355.99 64.2836C356.405 64.2859 356.801 64.4516 357.094 64.7446C357.387 65.0377 357.553 65.4345 357.555 65.8489Z" fill="#263238"/>
<path d="M357.555 70.4393C357.557 70.7514 357.466 71.057 357.294 71.3172C357.122 71.5774 356.876 71.7805 356.588 71.9008C356.3 72.021 355.983 72.0529 355.676 71.9925C355.37 71.932 355.089 71.7819 354.868 71.5612C354.648 71.3406 354.498 71.0593 354.437 70.7531C354.377 70.4469 354.408 70.1297 354.529 69.8417C354.649 69.5537 354.852 69.3079 355.112 69.1357C355.373 68.9634 355.678 68.8723 355.99 68.874C356.405 68.874 356.803 69.039 357.097 69.3325C357.391 69.6261 357.555 70.0242 357.555 70.4393Z" fill="#263238"/>
<path d="M228.724 66.6093C228.628 66.6114 228.534 66.5801 228.458 66.5209L224.311 63.4787C224.254 63.4366 224.208 63.382 224.176 63.3191C224.143 63.2563 224.126 63.1868 224.125 63.1162C224.125 63.0466 224.142 62.9782 224.175 62.9166C224.207 62.855 224.254 62.8022 224.311 62.7624L228.458 59.7733C228.506 59.7394 228.56 59.7152 228.617 59.7022C228.673 59.6892 228.732 59.6875 228.79 59.6974C228.847 59.7073 228.903 59.7284 228.952 59.7597C229.001 59.7909 229.044 59.8316 229.077 59.8795C229.144 59.9737 229.171 60.0903 229.153 60.2044C229.135 60.3184 229.073 60.4208 228.98 60.4897L225.319 63.1427L228.98 65.7957C229.073 65.8662 229.136 65.9701 229.154 66.0856C229.172 66.2011 229.145 66.3191 229.077 66.4148C229.039 66.4735 228.986 66.5219 228.925 66.5558C228.863 66.5897 228.794 66.608 228.724 66.6093Z" fill="#263238"/>
<path d="M336.959 215.303C347.914 215.303 356.795 206.442 356.795 195.512C356.795 184.581 347.914 175.72 336.959 175.72C326.004 175.72 317.123 184.581 317.123 195.512C317.123 206.442 326.004 215.303 336.959 215.303Z" fill="#E0E0E0"/>
<path d="M342.389 207.211H331.954C331.597 207.211 331.255 207.07 331.003 206.817C330.751 206.565 330.609 206.223 330.609 205.867C330.609 205.51 330.751 205.167 331.003 204.913C331.254 204.66 331.596 204.516 331.954 204.514H342.389C342.746 204.516 343.088 204.66 343.34 204.913C343.592 205.167 343.733 205.51 343.733 205.867C343.733 206.223 343.591 206.565 343.339 206.817C343.087 207.07 342.745 207.211 342.389 207.211Z" fill="#263238"/>
<path d="M337.763 182.645H336.844V187.278H337.763V182.645Z" fill="#263238"/>
<path d="M323.782 201.171C325.267 201.171 326.471 199.968 326.471 198.483C326.471 196.998 325.267 195.795 323.782 195.795C322.297 195.795 321.094 196.998 321.094 198.483C321.094 199.968 322.297 201.171 323.782 201.171Z" fill="#FF725E"/>
<path d="M350.968 200.994C352.452 200.994 353.656 199.791 353.656 198.306C353.656 196.821 352.452 195.618 350.968 195.618C349.483 195.618 348.279 196.821 348.279 198.306C348.279 199.791 349.483 200.994 350.968 200.994Z" fill="#FF725E"/>
<path d="M337.702 186.306C337.702 186.306 348.65 186.173 350.383 195.662C352.116 205.151 342.857 205.319 340.195 205.496C338.993 205.576 336.41 205.584 334.129 205.549C329.079 205.461 325.515 204.488 324.304 199.801C324.159 199.251 324.067 198.688 324.03 198.121C323.711 192.991 327.178 186.058 337.702 186.306Z" fill="#FF725E"/>
<path d="M329.76 200.747L345.678 200.995C346.479 201.007 347.251 200.701 347.827 200.144C348.402 199.587 348.733 198.824 348.747 198.023C348.756 197.223 348.448 196.451 347.889 195.878C347.33 195.304 346.567 194.975 345.767 194.964L329.848 194.716C329.452 194.709 329.057 194.78 328.688 194.926C328.319 195.072 327.982 195.289 327.697 195.565C327.412 195.841 327.184 196.17 327.027 196.535C326.869 196.899 326.785 197.291 326.78 197.687C326.774 198.084 326.846 198.478 326.993 198.847C327.14 199.216 327.358 199.552 327.635 199.836C327.911 200.12 328.242 200.347 328.606 200.503C328.971 200.66 329.363 200.743 329.76 200.747Z" fill="#263238"/>
<path d="M342.371 197.696C342.394 197.821 342.442 197.94 342.512 198.047C342.581 198.153 342.671 198.245 342.776 198.316C342.882 198.388 343 198.438 343.125 198.463C343.249 198.489 343.378 198.49 343.503 198.465C343.637 198.452 343.768 198.41 343.885 198.343C344.003 198.277 344.105 198.186 344.186 198.077C344.267 197.969 344.324 197.844 344.354 197.712C344.384 197.58 344.386 197.444 344.36 197.311C344.334 197.178 344.28 197.052 344.203 196.941C344.126 196.83 344.026 196.737 343.91 196.666C343.795 196.596 343.666 196.551 343.532 196.533C343.397 196.515 343.261 196.526 343.131 196.564C343.007 196.588 342.889 196.637 342.783 196.707C342.678 196.777 342.587 196.867 342.516 196.972C342.446 197.077 342.397 197.195 342.372 197.32C342.347 197.444 342.346 197.572 342.371 197.696Z" fill="white"/>
<path d="M331.255 197.519C331.269 197.654 331.31 197.784 331.377 197.902C331.444 198.02 331.534 198.122 331.643 198.203C331.752 198.283 331.876 198.34 332.008 198.37C332.14 198.4 332.276 198.402 332.409 198.376C332.542 198.35 332.668 198.297 332.779 198.22C332.89 198.142 332.984 198.043 333.054 197.927C333.124 197.811 333.17 197.682 333.187 197.548C333.205 197.414 333.194 197.278 333.156 197.148C333.088 196.915 332.935 196.716 332.728 196.59C332.521 196.464 332.274 196.42 332.036 196.467C331.798 196.513 331.586 196.647 331.442 196.842C331.297 197.036 331.231 197.278 331.255 197.519Z" fill="white"/>
<path d="M338.815 182.583C338.817 182.882 338.73 183.175 338.565 183.425C338.4 183.675 338.164 183.87 337.888 183.986C337.612 184.102 337.308 184.133 337.014 184.076C336.72 184.018 336.449 183.875 336.237 183.664C336.025 183.453 335.88 183.183 335.821 182.89C335.762 182.596 335.791 182.292 335.905 182.015C336.019 181.738 336.213 181.501 336.462 181.335C336.711 181.168 337.004 181.079 337.303 181.079C337.703 181.079 338.086 181.237 338.369 181.519C338.653 181.801 338.813 182.183 338.815 182.583Z" fill="#FF725E"/>
<path d="M339.585 197.255C339.585 197.255 339.647 197.325 339.683 197.484C339.71 197.71 339.689 197.94 339.621 198.157C339.523 198.492 339.341 198.797 339.09 199.041C338.784 199.347 338.38 199.538 337.949 199.58C337.518 199.616 337.088 199.504 336.729 199.262C336.445 199.07 336.211 198.812 336.048 198.51C335.943 198.307 335.883 198.084 335.871 197.856C335.871 197.697 335.871 197.608 335.924 197.608C335.977 197.608 336.013 197.944 336.304 198.36C336.475 198.59 336.688 198.785 336.932 198.935C337.228 199.111 337.571 199.191 337.914 199.165C338.243 199.123 338.552 198.981 338.798 198.758C339.021 198.573 339.199 198.34 339.32 198.077C339.55 197.617 339.515 197.255 339.585 197.255Z" fill="white"/>
<path d="M350.366 195.353C350.399 195.427 350.425 195.504 350.445 195.583C350.48 195.675 350.509 195.77 350.534 195.866C350.534 195.972 350.596 196.096 350.622 196.246C350.69 196.576 350.737 196.91 350.764 197.245C350.794 197.657 350.794 198.071 350.764 198.483C350.727 198.895 350.659 199.303 350.56 199.704C350.477 200.029 350.37 200.348 350.242 200.659C350.198 200.782 350.148 200.903 350.091 201.021C350.053 201.11 350.008 201.195 349.959 201.278L349.835 201.499C349.854 201.418 349.887 201.34 349.932 201.269L350.047 200.995C350.091 200.889 350.145 200.774 350.189 200.641C350.308 200.33 350.405 200.011 350.481 199.686C350.575 199.287 350.643 198.882 350.684 198.475C350.71 198.065 350.71 197.655 350.684 197.245C350.662 196.913 350.621 196.582 350.56 196.255C350.542 196.118 350.515 195.982 350.481 195.848C350.481 195.733 350.436 195.645 350.419 195.565C350.391 195.497 350.374 195.426 350.366 195.353Z" fill="#263238"/>
<path d="M324.428 195.406C324.39 195.482 324.36 195.562 324.339 195.645C324.339 195.716 324.286 195.813 324.251 195.919C324.216 196.025 324.189 196.158 324.163 196.299C324.095 196.629 324.05 196.963 324.03 197.299C323.999 197.711 323.999 198.124 324.03 198.537C324.065 198.948 324.133 199.356 324.233 199.757C324.315 200.086 324.422 200.408 324.552 200.721C324.596 200.854 324.658 200.969 324.702 201.075C324.746 201.181 324.799 201.269 324.835 201.34L324.959 201.552C324.935 201.472 324.903 201.395 324.861 201.322C324.861 201.252 324.79 201.163 324.746 201.057C324.702 200.951 324.649 200.836 324.605 200.703C324.486 200.389 324.388 200.067 324.313 199.739C324.218 199.34 324.15 198.936 324.11 198.528C324.083 198.121 324.083 197.714 324.11 197.307C324.132 196.972 324.173 196.639 324.233 196.308C324.252 196.183 324.279 196.059 324.313 195.937C324.313 195.822 324.357 195.724 324.375 195.654C324.393 195.583 324.428 195.406 324.428 195.406Z" fill="#263238"/>
<path d="M326.789 212.509C326.789 212.509 330.043 209.334 336.844 209.334C343.645 209.334 347.129 212.509 347.129 212.509C344.06 214.361 340.543 215.339 336.959 215.339C333.375 215.339 329.858 214.361 326.789 212.509Z" fill="#FF725E"/>
<path d="M228.442 215.693H296.041C296.839 215.694 297.63 215.538 298.367 215.233C299.105 214.928 299.775 214.48 300.34 213.916C300.904 213.352 301.351 212.681 301.656 211.944C301.961 211.206 302.118 210.416 302.116 209.617V190.003L309.571 183.388H228.442C227.644 183.388 226.854 183.545 226.117 183.85C225.38 184.156 224.71 184.603 224.146 185.167C223.582 185.731 223.134 186.401 222.829 187.138C222.523 187.875 222.366 188.665 222.366 189.463V209.617C222.365 210.416 222.521 211.206 222.826 211.944C223.131 212.681 223.579 213.352 224.143 213.916C224.707 214.48 225.378 214.928 226.115 215.233C226.853 215.538 227.643 215.694 228.442 215.693Z" fill="#EBEBEB"/>
<path d="M292.999 192.974C292.999 193.107 279.079 193.204 261.905 193.204C244.731 193.204 230.812 193.107 230.812 192.974C230.812 192.841 244.731 192.744 261.905 192.744C279.079 192.744 292.999 192.85 292.999 192.974Z" fill="white"/>
<path d="M292.999 198.226C292.999 198.359 279.079 198.456 261.905 198.456C244.731 198.456 230.812 198.359 230.812 198.226C230.812 198.093 244.731 197.996 261.905 197.996C279.079 197.996 292.999 198.102 292.999 198.226Z" fill="white"/>
<path d="M292.999 203.48C292.999 203.604 279.079 203.71 261.905 203.71C244.731 203.71 230.812 203.604 230.812 203.48C230.812 203.356 244.731 203.25 261.905 203.25C279.079 203.25 292.999 203.356 292.999 203.48Z" fill="white"/>
<path d="M292.999 208.733C292.999 208.857 279.079 208.963 261.905 208.963C244.731 208.963 230.812 208.857 230.812 208.733C230.812 208.609 244.731 208.503 261.905 208.503C279.079 208.503 292.999 208.6 292.999 208.733Z" fill="white"/>
<path d="M336.959 325.209C347.914 325.209 356.795 316.348 356.795 305.418C356.795 294.487 347.914 285.626 336.959 285.626C326.004 285.626 317.123 294.487 317.123 305.418C317.123 316.348 326.004 325.209 336.959 325.209Z" fill="#E0E0E0"/>
<path d="M342.389 317.117H331.954C331.776 317.117 331.601 317.082 331.437 317.014C331.273 316.946 331.125 316.846 331 316.721C330.875 316.595 330.776 316.446 330.709 316.282C330.642 316.117 330.608 315.942 330.609 315.764C330.609 315.408 330.751 315.066 331.003 314.814C331.255 314.562 331.597 314.42 331.954 314.42H342.389C342.745 314.42 343.087 314.562 343.339 314.814C343.591 315.066 343.733 315.408 343.733 315.764C343.734 315.942 343.7 316.117 343.633 316.282C343.566 316.446 343.467 316.595 343.343 316.721C343.218 316.846 343.069 316.946 342.905 317.014C342.742 317.082 342.566 317.117 342.389 317.117Z" fill="#263238"/>
<path d="M337.763 292.551H336.844V297.185H337.763V292.551Z" fill="#263238"/>
<path d="M323.782 311.078C325.267 311.078 326.471 309.874 326.471 308.389C326.471 306.905 325.267 305.701 323.782 305.701C322.297 305.701 321.094 306.905 321.094 308.389C321.094 309.874 322.297 311.078 323.782 311.078Z" fill="#FF725E"/>
<path d="M350.968 310.892C352.452 310.892 353.656 309.688 353.656 308.203C353.656 306.719 352.452 305.515 350.968 305.515C349.483 305.515 348.279 306.719 348.279 308.203C348.279 309.688 349.483 310.892 350.968 310.892Z" fill="#FF725E"/>
<path d="M337.702 296.212C337.702 296.212 348.65 296.079 350.383 305.56C352.116 315.04 342.857 315.225 340.195 315.402C338.993 315.482 336.41 315.491 334.129 315.455C329.079 315.367 325.515 314.385 324.304 309.707C324.159 309.157 324.067 308.594 324.03 308.027C323.711 302.898 327.178 295.956 337.702 296.212Z" fill="#FF725E"/>
<path d="M329.76 310.653L345.678 310.901C346.479 310.913 347.251 310.606 347.827 310.049C348.402 309.492 348.733 308.73 348.747 307.929C348.756 307.129 348.448 306.357 347.889 305.783C347.33 305.21 346.567 304.881 345.767 304.87L329.848 304.613C329.048 304.601 328.275 304.907 327.7 305.464C327.124 306.022 326.794 306.784 326.78 307.585C326.774 307.982 326.846 308.376 326.993 308.745C327.139 309.115 327.357 309.451 327.634 309.736C327.911 310.021 328.241 310.249 328.606 310.406C328.971 310.563 329.363 310.647 329.76 310.653Z" fill="#263238"/>
<path d="M342.371 307.602C342.393 307.728 342.439 307.849 342.507 307.957C342.575 308.065 342.664 308.159 342.768 308.233C342.872 308.307 342.99 308.359 343.115 308.388C343.239 308.416 343.368 308.42 343.494 308.398C343.62 308.377 343.741 308.33 343.849 308.262C343.957 308.194 344.051 308.106 344.125 308.001C344.199 307.897 344.251 307.779 344.28 307.655C344.308 307.53 344.312 307.401 344.29 307.275C344.277 307.14 344.235 307.01 344.168 306.892C344.101 306.775 344.011 306.672 343.902 306.592C343.794 306.511 343.669 306.454 343.537 306.424C343.405 306.394 343.269 306.392 343.136 306.418C343.003 306.444 342.877 306.497 342.766 306.575C342.655 306.652 342.562 306.752 342.491 306.867C342.421 306.983 342.376 307.112 342.358 307.246C342.34 307.38 342.351 307.517 342.389 307.646L342.371 307.602Z" fill="white"/>
<path d="M331.254 307.426C331.291 307.615 331.383 307.788 331.518 307.925C331.654 308.062 331.827 308.155 332.015 308.193C332.204 308.232 332.399 308.213 332.578 308.14C332.756 308.067 332.908 307.943 333.016 307.784C333.123 307.624 333.181 307.437 333.182 307.244C333.183 307.052 333.126 306.864 333.02 306.703C332.914 306.543 332.763 306.417 332.585 306.343C332.408 306.269 332.212 306.248 332.024 306.285C331.898 306.309 331.779 306.358 331.672 306.429C331.566 306.499 331.474 306.59 331.403 306.696C331.331 306.802 331.281 306.921 331.256 307.046C331.23 307.171 331.23 307.3 331.254 307.426Z" fill="white"/>
<path d="M338.815 292.454C338.815 292.753 338.727 293.045 338.561 293.294C338.394 293.543 338.158 293.737 337.882 293.851C337.606 293.966 337.302 293.996 337.008 293.937C336.715 293.879 336.445 293.735 336.234 293.523C336.022 293.312 335.878 293.042 335.82 292.749C335.762 292.456 335.792 292.152 335.906 291.875C336.021 291.599 336.214 291.363 336.463 291.197C336.712 291.03 337.004 290.942 337.303 290.942C337.704 290.942 338.089 291.101 338.373 291.385C338.656 291.668 338.815 292.053 338.815 292.454Z" fill="#FF725E"/>
<path d="M339.585 307.152C339.585 307.152 339.647 307.231 339.683 307.391C339.71 307.616 339.689 307.846 339.621 308.063C339.521 308.397 339.339 308.702 339.09 308.947C338.784 309.253 338.38 309.444 337.949 309.486C337.518 309.522 337.088 309.41 336.729 309.168C336.445 308.976 336.211 308.718 336.048 308.416C335.944 308.213 335.884 307.99 335.871 307.762C335.871 307.603 335.871 307.514 335.924 307.514C335.977 307.514 336.013 307.85 336.304 308.257C336.472 308.492 336.685 308.691 336.932 308.841C337.23 309.011 337.571 309.091 337.914 309.071C338.243 309.029 338.552 308.887 338.798 308.664C339.017 308.475 339.195 308.244 339.32 307.983C339.55 307.505 339.515 307.161 339.585 307.152Z" fill="white"/>
<path d="M350.366 305.25C350.366 305.25 350.366 305.338 350.445 305.489C350.481 305.581 350.511 305.676 350.534 305.772C350.534 305.878 350.596 306.002 350.622 306.143C350.688 306.473 350.736 306.807 350.764 307.143C350.794 307.555 350.794 307.968 350.764 308.381C350.728 308.792 350.66 309.2 350.56 309.601C350.478 309.93 350.372 310.252 350.242 310.565C350.198 310.685 350.148 310.804 350.091 310.919C350.054 311.01 350.01 311.099 349.959 311.184L349.835 311.396C349.858 311.316 349.891 311.239 349.932 311.166C349.932 311.096 350.003 311.007 350.047 310.901C350.091 310.795 350.145 310.68 350.189 310.547C350.309 310.233 350.406 309.911 350.481 309.583C350.576 309.187 350.644 308.786 350.684 308.381C350.71 307.971 350.71 307.561 350.684 307.151C350.662 306.819 350.621 306.488 350.56 306.161C350.541 306.033 350.515 305.906 350.481 305.781C350.481 305.666 350.436 305.577 350.419 305.498C350.388 305.418 350.37 305.335 350.366 305.25Z" fill="#263238"/>
<path d="M324.428 305.312C324.39 305.388 324.36 305.469 324.339 305.551C324.339 305.622 324.286 305.719 324.251 305.825C324.216 305.931 324.189 306.064 324.163 306.205C324.095 306.535 324.05 306.869 324.03 307.205C323.999 307.617 323.999 308.031 324.03 308.443C324.066 308.854 324.134 309.262 324.233 309.663C324.315 309.992 324.422 310.314 324.552 310.627C324.596 310.76 324.658 310.875 324.702 310.981C324.746 311.087 324.799 311.175 324.835 311.246L324.959 311.458C324.937 311.378 324.904 311.3 324.861 311.229C324.861 311.158 324.79 311.069 324.746 310.963C324.702 310.857 324.649 310.742 324.605 310.601C324.486 310.289 324.388 309.97 324.313 309.646C324.218 309.247 324.15 308.842 324.11 308.434C324.083 308.028 324.083 307.62 324.11 307.214C324.132 306.878 324.173 306.545 324.233 306.214C324.252 306.089 324.279 305.965 324.313 305.843C324.313 305.728 324.357 305.631 324.375 305.56C324.393 305.489 324.428 305.312 324.428 305.312Z" fill="#263238"/>
<path d="M326.789 322.416C326.789 322.416 330.043 319.241 336.844 319.241C343.645 319.241 347.129 322.416 347.129 322.416C344.06 324.267 340.543 325.246 336.959 325.246C333.375 325.246 329.858 324.267 326.789 322.416Z" fill="#FF725E"/>
<path d="M228.442 325.599H296.041C296.839 325.6 297.63 325.443 298.367 325.138C299.105 324.834 299.775 324.386 300.34 323.822C300.904 323.257 301.351 322.587 301.656 321.849C301.961 321.112 302.118 320.321 302.116 319.523V299.908L309.571 293.293H228.442C227.644 293.293 226.854 293.451 226.117 293.756C225.38 294.061 224.71 294.509 224.146 295.073C223.582 295.637 223.134 296.307 222.829 297.044C222.523 297.781 222.366 298.571 222.366 299.369V319.523C222.365 320.321 222.521 321.112 222.826 321.849C223.131 322.587 223.579 323.257 224.143 323.822C224.707 324.386 225.378 324.834 226.115 325.138C226.853 325.443 227.643 325.6 228.442 325.599Z" fill="#EBEBEB"/>
<path d="M228.442 356.277H296.041C296.84 356.277 297.63 356.12 298.368 355.814C299.106 355.508 299.776 355.06 300.34 354.495C300.904 353.929 301.352 353.259 301.656 352.521C301.961 351.782 302.118 350.991 302.116 350.193V343.693L309.571 337.078H228.442C227.644 337.078 226.854 337.235 226.117 337.54C225.38 337.846 224.71 338.293 224.146 338.857C223.582 339.422 223.134 340.091 222.829 340.828C222.523 341.566 222.366 342.356 222.366 343.153V350.228C222.373 351.835 223.016 353.373 224.155 354.507C225.294 355.641 226.835 356.277 228.442 356.277Z" fill="#EBEBEB"/>
<path d="M292.999 302.854C292.999 302.987 279.079 303.084 261.905 303.084C244.731 303.084 230.812 302.987 230.812 302.854C230.812 302.721 244.731 302.624 261.905 302.624C279.079 302.624 292.999 302.757 292.999 302.854Z" fill="white"/>
<path d="M292.999 308.16C292.999 308.283 279.079 308.389 261.905 308.389C244.731 308.389 230.812 308.283 230.812 308.16C230.812 308.036 244.731 307.93 261.905 307.93C279.079 307.93 292.999 308.009 292.999 308.16Z" fill="white"/>
<path d="M292.999 313.386C292.999 313.51 279.079 313.616 261.905 313.616C244.731 313.616 230.812 313.51 230.812 313.386C230.812 313.262 244.731 313.156 261.905 313.156C279.079 313.156 292.999 313.253 292.999 313.386Z" fill="white"/>
<path d="M292.999 318.639C292.999 318.763 279.079 318.869 261.905 318.869C244.731 318.869 230.812 318.763 230.812 318.639C230.812 318.515 244.731 318.409 261.905 318.409C279.079 318.409 292.999 318.506 292.999 318.639Z" fill="white"/>
<path d="M293.21 346.955C293.21 347.079 279.432 347.185 262.444 347.185C245.456 347.185 231.669 347.079 231.669 346.955C231.669 346.831 245.447 346.725 262.444 346.725C279.441 346.725 293.21 346.823 293.21 346.955Z" fill="white"/>
<path d="M66.9945 334.15C68.1856 334.437 69.3065 334.961 70.2897 335.692C71.273 336.423 72.0983 337.346 72.7162 338.404C73.9386 340.534 74.6613 342.913 74.8298 345.363C75.2808 350.068 73.6448 355.259 71.6108 359.513C67.021 356.948 64.8898 351.244 63.9877 348.282C62.5639 343.604 62.8292 334.274 66.9945 334.132" fill="#455A64"/>
<path d="M77.7122 366.163C77.1642 364.91 76.9574 363.534 77.1127 362.175C77.268 360.816 77.7799 359.522 78.5966 358.425C79.4371 357.345 80.4849 356.444 81.6785 355.774C82.8722 355.104 84.1876 354.68 85.5475 354.525C86.1579 354.393 86.7895 354.394 87.3997 354.526C88.0099 354.659 88.5845 354.921 89.0849 355.295C89.4916 355.726 89.7751 356.259 89.9058 356.838C90.0364 357.417 90.0095 358.02 89.8278 358.584C89.4521 359.709 88.7872 360.716 87.8999 361.503C84.9904 364.315 81.6564 366.499 77.6238 366.163" fill="#455A64"/>
<path d="M75.7324 381.312C75.6802 380.991 75.6594 380.665 75.6705 380.34C75.6705 379.65 75.6705 378.757 75.5997 377.686C75.4196 374.754 75.7183 371.812 76.4841 368.976C77.3063 366.131 78.8724 363.558 81.0208 361.521C81.6786 360.915 82.4059 360.39 83.1874 359.955C83.396 359.836 83.6116 359.73 83.833 359.637C83.9061 359.592 83.9872 359.562 84.0718 359.549C83.0417 360.167 82.076 360.887 81.1888 361.698C79.113 363.741 77.5913 366.279 76.7671 369.073C76.0061 371.878 75.6693 374.782 75.7678 377.686C75.7678 378.81 75.7678 379.712 75.7678 380.34C75.7798 380.664 75.768 380.989 75.7324 381.312Z" fill="#263238"/>
<path d="M67.4181 341.277C67.4747 341.406 67.5191 341.539 67.5508 341.675C67.6392 341.976 67.7453 342.365 67.8691 342.843C68.1433 343.86 68.5236 345.337 68.9657 347.167C69.8501 350.828 71.0351 355.905 72.2024 361.529C73.3698 367.153 74.3072 372.283 74.9351 375.997C75.2446 377.854 75.4833 379.357 75.6425 380.419C75.7133 380.914 75.7663 381.303 75.8106 381.621C75.8246 381.762 75.8246 381.905 75.8106 382.046C75.7648 381.91 75.7293 381.771 75.7044 381.63C75.6425 381.321 75.5718 380.931 75.4745 380.436C75.2711 379.366 74.997 377.872 74.6609 376.059C73.9711 372.353 72.9983 367.215 71.831 361.617C70.6637 356.019 69.5317 350.917 68.7004 347.247C68.2848 345.478 67.9487 343.966 67.71 342.896C67.6038 342.409 67.5154 342.011 67.4535 341.711C67.4249 341.568 67.4131 341.423 67.4181 341.277Z" fill="#263238"/>
<path d="M71.6109 370.382C70.5473 367.702 68.8621 365.314 66.6941 363.413C64.5261 361.513 61.9375 360.155 59.1416 359.452C57.7178 359.107 55.9491 359.062 55.0825 360.248C54.2158 361.433 54.826 363.113 55.6307 364.342C57.3512 366.87 59.7795 368.833 62.6113 369.986C65.443 371.139 68.5522 371.431 71.5489 370.824" fill="#455A64"/>
<path d="M60.6977 363.634C60.9971 363.671 61.2929 363.733 61.582 363.82C61.932 363.901 62.2774 364.002 62.6167 364.12C63.0058 364.262 63.501 364.386 63.9521 364.607C64.4031 364.828 64.9779 365.04 65.5173 365.341C66.1096 365.641 66.6826 365.978 67.233 366.349C68.5009 367.19 69.6672 368.175 70.7084 369.285C71.7295 370.41 72.6196 371.647 73.3615 372.973C73.6884 373.546 73.9836 374.136 74.2458 374.741C74.4723 375.273 74.6701 375.816 74.8383 376.369C75.0152 376.864 75.086 377.341 75.1921 377.748C75.2768 378.098 75.3417 378.452 75.3866 378.809C75.4408 379.101 75.4704 379.397 75.4751 379.694C75.3955 379.694 75.254 378.403 74.5907 376.413C74.4156 375.875 74.2119 375.346 73.9805 374.83C73.7183 374.225 73.4231 373.634 73.0962 373.061C72.346 371.765 71.4564 370.555 70.4431 369.453C69.4155 368.368 68.2774 367.393 67.0473 366.544C66.4636 366.172 65.9153 365.81 65.367 365.535C64.8716 365.254 64.3608 365 63.8371 364.775C61.9534 363.997 60.6711 363.705 60.6977 363.634Z" fill="#263238"/>
<path d="M88.8025 104.493L85.5304 94.2793C90.1844 86.7271 91.8451 77.7073 90.1861 68.9928C88.5272 60.2783 83.6685 52.4995 76.5653 47.1855C69.462 41.8716 60.628 39.4068 51.7996 40.2757C42.9713 41.1446 34.7873 45.2843 28.8563 51.8811C22.9253 58.4779 19.6764 67.0547 19.7482 75.9254C19.82 84.7961 23.2073 93.3191 29.2443 99.819C35.2813 106.319 43.5313 110.326 52.3725 111.052C61.2137 111.777 70.0067 109.17 77.023 103.742L88.8025 104.493Z" fill="#FAFAFA"/>
<path d="M88.8026 104.494H88.0598L85.8135 104.379L76.9701 103.893C76.9565 103.893 76.9431 103.89 76.9307 103.885C76.9183 103.879 76.9071 103.871 76.898 103.861C76.8888 103.851 76.8819 103.84 76.8775 103.827C76.8732 103.814 76.8716 103.8 76.8728 103.787C76.869 103.769 76.869 103.751 76.8728 103.734L77.0143 103.875C70.8694 108.675 63.3129 111.314 55.5159 111.383C53.5467 111.373 51.581 111.216 49.635 110.915C40.593 109.499 32.4488 104.641 26.9073 97.3575C23.8211 93.2572 21.6471 88.5444 20.5312 83.5352C19.3186 78.2092 19.367 72.6734 20.6727 67.3694C20.8407 66.6973 21.0176 66.0164 21.1945 65.3443C21.3714 64.6722 21.6632 64.0177 21.8931 63.3545C22.1172 62.6837 22.377 62.0254 22.6713 61.3824C22.972 60.7457 23.2815 60.1089 23.5557 59.4634C23.86 58.818 24.2087 58.1945 24.5992 57.5974L25.7223 55.758L27.0135 53.9893L27.6679 53.1049C27.889 52.8219 28.1454 52.5655 28.3842 52.2913C32.2085 47.8943 37.0599 44.5102 42.5072 42.4397C47.6929 40.4638 53.2615 39.6985 58.788 40.2023C63.9809 40.7187 68.9962 42.3733 73.4769 45.0486C81.4397 49.7777 87.2476 57.4222 89.6693 66.3613C90.1809 68.2765 90.5474 70.2276 90.7659 72.1979C90.9075 74.0397 90.94 75.8883 90.8631 77.7339C90.5243 83.6158 88.7184 89.3192 85.6101 94.3242V94.2446C86.6537 97.5698 87.4496 100.134 87.9979 101.885C88.2632 102.77 88.4577 103.38 88.5992 103.831L88.7938 104.485C88.7938 104.485 88.7053 104.247 88.555 103.804L87.9094 101.85C87.3435 100.081 86.5033 97.5875 85.4244 94.3065C85.4149 94.2808 85.4149 94.2526 85.4244 94.2269C88.4741 89.2332 90.2337 83.5593 90.5448 77.7162C90.6126 75.8878 90.5713 74.0569 90.421 72.2333C90.2001 70.2801 89.8306 68.3466 89.3155 66.4497C87.4187 59.5683 83.4844 53.4217 78.0297 48.8176C72.5749 44.2136 65.8548 41.3675 58.7526 40.6534C53.2957 40.154 47.7968 40.9071 42.6752 42.8554C37.3107 44.9081 32.5335 48.2488 28.7645 52.5832C28.5345 52.8573 28.2781 53.1049 28.057 53.3879L27.4114 54.2723L26.138 55.979L25.0414 57.8008C24.6523 58.3957 24.3037 59.0162 23.9979 59.6579C23.6972 60.2858 23.3965 60.9225 23.1135 61.5504C22.825 62.1847 22.5711 62.8342 22.353 63.496C22.123 64.1504 21.8489 64.796 21.6543 65.4592C21.4598 66.1225 21.3094 66.7946 21.1414 67.4578C19.8591 72.6803 19.8046 78.1289 20.9822 83.376C22.5146 90.2665 26.0814 96.5378 31.2202 101.377C36.3591 106.216 42.8331 109.4 49.803 110.517C51.7313 110.819 53.679 110.982 55.6309 111.003C57.4528 110.995 59.2713 110.844 61.0696 110.552C66.8639 109.608 72.3334 107.241 76.9878 103.663C76.9969 103.653 77.0078 103.646 77.02 103.64C77.0322 103.635 77.0453 103.632 77.0585 103.632C77.0718 103.632 77.0849 103.635 77.0971 103.64C77.1092 103.646 77.1202 103.653 77.1293 103.663C77.1422 103.681 77.1492 103.703 77.1492 103.725C77.1492 103.747 77.1422 103.769 77.1293 103.787L77.0585 103.628L85.7958 104.229L88.0598 104.388L88.8026 104.494Z" fill="#263238"/>
<path d="M45.3285 75.6999C45.3285 76.4117 45.1174 77.1076 44.7219 77.6995C44.3264 78.2914 43.7642 78.7528 43.1066 79.0252C42.4489 79.2976 41.7252 79.3689 41.027 79.23C40.3288 79.0911 39.6875 78.7483 39.1841 78.2449C38.6807 77.7416 38.3379 77.1002 38.199 76.4021C38.0602 75.7039 38.1314 74.9802 38.4039 74.3225C38.6763 73.6648 39.1376 73.1027 39.7295 72.7072C40.3214 72.3117 41.0173 72.1006 41.7292 72.1006C42.683 72.1029 43.5972 72.4829 44.2717 73.1574C44.9462 73.8319 45.3261 74.746 45.3285 75.6999Z" fill="#263238"/>
<path d="M59.7425 75.6999C59.7425 76.4117 59.5314 77.1076 59.1359 77.6995C58.7404 78.2914 58.1783 78.7528 57.5206 79.0252C56.8629 79.2976 56.1392 79.3689 55.441 79.23C54.7429 79.0911 54.1015 78.7483 53.5982 78.2449C53.0948 77.7416 52.752 77.1002 52.6131 76.4021C52.4742 75.7039 52.5455 74.9802 52.8179 74.3225C53.0903 73.6648 53.5517 73.1027 54.1436 72.7072C54.7355 72.3117 55.4314 72.1006 56.1432 72.1006C57.0971 72.1029 58.0112 72.4829 58.6857 73.1574C59.3602 73.8319 59.7402 74.746 59.7425 75.6999Z" fill="#263238"/>
<path d="M74.1221 73.9044C74.4769 74.5209 74.6411 75.2287 74.594 75.9385C74.5468 76.6482 74.2904 77.3281 73.8571 77.8923C73.4238 78.4564 72.8331 78.8795 72.1595 79.1082C71.4859 79.3368 70.7597 79.3607 70.0725 79.1769C69.3853 78.9931 68.768 78.6098 68.2985 78.0753C67.8291 77.5409 67.5285 76.8794 67.4347 76.1743C67.341 75.4691 67.4583 74.752 67.7718 74.1135C68.0853 73.475 68.581 72.9437 69.1963 72.5867C69.606 72.3489 70.0586 72.1944 70.5282 72.132C70.9978 72.0695 71.4751 72.1004 71.9327 72.2228C72.3904 72.3453 72.8193 72.5568 73.195 72.8454C73.5707 73.1339 73.8857 73.4938 74.1221 73.9044Z" fill="#263238"/>
<path d="M75.5558 234.757L38.3072 230.902L22.5305 195.095L10.2734 198.287C10.2734 198.287 19.3291 236.128 29.4637 241.991C39.5983 247.855 74.2204 248.907 74.2204 248.907L75.5558 234.757Z" fill="#FF725E"/>
<path d="M95.3568 252.97C101.418 246.151 100.803 235.709 93.9835 229.648C87.1641 223.587 76.7226 224.202 70.6617 231.022C64.6008 237.841 65.2157 248.282 72.035 254.343C78.8544 260.404 89.2959 259.789 95.3568 252.97Z" fill="#263238"/>
<path d="M83.0099 258.529C79.1819 258.529 75.4723 257.202 72.5132 254.774C69.5541 252.345 67.5286 248.966 66.7818 245.211C66.035 241.457 66.6131 237.56 68.4177 234.184C70.2222 230.808 73.1415 228.162 76.6781 226.697C80.2147 225.232 84.1499 225.039 87.8131 226.15C91.4763 227.261 94.6408 229.608 96.7676 232.791C98.8943 235.974 99.8516 239.796 99.4764 243.605C99.1012 247.415 97.4166 250.976 94.7098 253.683C93.1769 255.224 91.3535 256.446 89.3452 257.278C87.3369 258.11 85.1837 258.535 83.0099 258.529ZM83.0099 225.49C79.1922 225.486 75.4912 226.806 72.5375 229.225C69.5839 231.644 67.5603 235.012 66.8115 238.756C66.0628 242.499 66.6352 246.387 68.4313 249.756C70.2275 253.125 73.1361 255.766 76.6616 257.231C80.1872 258.696 84.1116 258.893 87.7661 257.789C91.4207 256.684 94.5793 254.347 96.7037 251.175C98.8282 248.003 99.7871 244.193 99.4171 240.393C99.0471 236.593 97.371 233.039 94.6744 230.337C93.1471 228.798 91.3298 227.577 89.3276 226.745C87.3254 225.913 85.1781 225.487 83.0099 225.49Z" fill="#263238"/>
<path d="M34.9667 244.821C41.6203 243.223 45.7191 236.534 44.1218 229.881C42.5244 223.227 35.8357 219.128 29.1821 220.726C22.5285 222.323 18.4297 229.012 20.0271 235.666C21.6245 242.319 28.3132 246.418 34.9667 244.821Z" fill="#263238"/>
<path d="M22.6665 197.99C26.6208 194.035 26.6208 187.624 22.6665 183.67C18.7121 179.716 12.3009 179.715 8.34651 183.67C4.39216 187.624 4.39216 194.035 8.3465 197.99C12.3009 201.944 18.7121 201.944 22.6665 197.99Z" fill="#263238"/>
<path d="M31.2899 185.35L22.9523 192.391L19.9454 188.83L28.283 181.789C28.7221 181.419 29.2904 181.238 29.863 181.286C30.4356 181.334 30.9655 181.608 31.3363 182.047L31.5417 182.29C31.7266 182.507 31.8669 182.759 31.9543 183.03C32.0418 183.302 32.0748 183.588 32.0514 183.872C32.028 184.157 31.9487 184.434 31.818 184.687C31.6874 184.941 31.5079 185.166 31.2899 185.35Z" fill="#263238"/>
<path d="M20.6982 172.456V183.068C20.6982 183.15 20.6656 183.229 20.6076 183.287C20.5495 183.345 20.4708 183.377 20.3887 183.377H16.3561C16.274 183.377 16.1953 183.345 16.1372 183.287C16.0792 183.229 16.0466 183.15 16.0466 183.068V172.456C16.0466 171.881 16.2749 171.33 16.6812 170.924C17.0875 170.517 17.6386 170.289 18.2132 170.289H18.5316C19.1062 170.289 19.6573 170.517 20.0637 170.924C20.47 171.33 20.6982 171.881 20.6982 172.456Z" fill="#263238"/>
<path d="M13.1898 172.496L15.5066 182.852C15.5245 182.932 15.5099 183.016 15.4659 183.085C15.4219 183.155 15.3522 183.204 15.2721 183.222L11.3368 184.102C11.2566 184.12 11.1727 184.105 11.1034 184.061C11.0341 184.017 10.9851 183.948 10.9671 183.868L8.65036 173.511C8.52491 172.951 8.62737 172.363 8.93518 171.878C9.243 171.393 9.73096 171.049 10.2917 170.924L10.6024 170.854C11.1632 170.729 11.7508 170.831 12.236 171.139C12.7213 171.447 13.0644 171.935 13.1898 172.496Z" fill="#263238"/>
<path d="M5.11164 175.091L10.4177 184.282C10.4588 184.353 10.4699 184.437 10.4486 184.517C10.4274 184.596 10.3755 184.664 10.3044 184.705L6.81207 186.721C6.74098 186.762 6.6565 186.773 6.5772 186.752C6.49791 186.731 6.4303 186.679 6.38925 186.608L1.08319 177.417C0.795871 176.92 0.718014 176.328 0.866739 175.773C1.01546 175.218 1.3786 174.745 1.87624 174.458L2.15195 174.298C2.6496 174.011 3.24099 173.933 3.79604 174.082C4.35109 174.231 4.82433 174.594 5.11164 175.091Z" fill="#263238"/>
<path d="M237.442 327.517L248.591 322.775L216.42 247.132L205.271 251.874L237.442 327.517Z" fill="#FF725E"/>
<path d="M218.018 254.361C223.915 247.399 223.053 236.975 216.092 231.078C209.13 225.181 198.706 226.043 192.809 233.004C186.912 239.966 187.774 250.39 194.735 256.287C201.697 262.184 212.121 261.322 218.018 254.361Z" fill="#263238"/>
<path d="M205.447 260.263C202.855 260.264 200.299 259.657 197.985 258.49C195.671 257.323 193.663 255.629 192.123 253.545C190.583 251.46 189.554 249.043 189.119 246.488C188.684 243.933 188.854 241.312 189.617 238.835C190.522 235.913 192.218 233.3 194.519 231.285C196.82 229.27 199.634 227.932 202.649 227.421C205.664 226.91 208.762 227.244 211.599 228.388C214.435 229.531 216.899 231.439 218.716 233.899C220.533 236.359 221.633 239.274 221.892 242.322C222.152 245.369 221.561 248.428 220.186 251.16C218.812 253.892 216.706 256.189 214.104 257.796C211.502 259.403 208.505 260.257 205.447 260.263ZM205.447 227.206C202.394 227.209 199.401 228.059 196.803 229.661C194.204 231.264 192.101 233.556 190.727 236.282C189.353 239.009 188.763 242.063 189.021 245.105C189.28 248.147 190.377 251.058 192.191 253.514C194.006 255.969 196.466 257.873 199.297 259.014C202.129 260.155 205.222 260.488 208.232 259.976C211.242 259.463 214.051 258.126 216.346 256.113C218.641 254.1 220.333 251.489 221.232 248.572C222.517 244.391 222.09 239.871 220.046 236.005C218.002 232.138 214.507 229.241 210.328 227.949C208.73 227.454 207.067 227.203 205.394 227.206H205.447Z" fill="#263238"/>
<path d="M238.861 293.074C240.693 286.481 236.834 279.652 230.241 277.82C223.648 275.987 216.818 279.847 214.986 286.44C213.154 293.032 217.013 299.862 223.606 301.694C230.199 303.526 237.029 299.667 238.861 293.074Z" fill="#263238"/>
<path d="M245.606 338.447C251.199 338.447 255.732 333.914 255.732 328.322C255.732 322.729 251.199 318.196 245.606 318.196C240.014 318.196 235.48 322.729 235.48 328.322C235.48 333.914 240.014 338.447 245.606 338.447Z" fill="#263238"/>
<path d="M232.362 338.519L238.032 329.216L242.012 331.641L236.342 340.945C236.043 341.435 235.561 341.787 235.002 341.923C234.444 342.058 233.855 341.966 233.364 341.667L233.092 341.502C232.848 341.354 232.635 341.16 232.466 340.93C232.297 340.7 232.175 340.439 232.108 340.162C232.04 339.885 232.027 339.597 232.071 339.315C232.115 339.033 232.213 338.763 232.362 338.519Z" fill="#263238"/>
<path d="M246.48 347.392L243.119 337.326C243.093 337.248 243.099 337.163 243.136 337.09C243.173 337.016 243.237 336.961 243.315 336.935L247.14 335.658C247.218 335.632 247.303 335.638 247.376 335.674C247.45 335.711 247.506 335.775 247.532 335.853L250.892 345.919C250.979 346.19 251.011 346.476 250.988 346.759C250.964 347.043 250.885 347.319 250.755 347.572C250.625 347.825 250.446 348.05 250.229 348.234C250.011 348.418 249.76 348.557 249.489 348.644L249.187 348.745C248.649 348.917 248.064 348.872 247.558 348.62C247.052 348.367 246.665 347.926 246.48 347.392Z" fill="#263238"/>
<path d="M253.597 344.979L248.12 335.889C248.099 335.855 248.085 335.816 248.079 335.776C248.073 335.736 248.075 335.695 248.085 335.655C248.094 335.616 248.112 335.579 248.136 335.546C248.16 335.513 248.19 335.486 248.225 335.465L251.679 333.383C251.714 333.362 251.753 333.349 251.793 333.343C251.833 333.336 251.874 333.338 251.914 333.348C251.953 333.358 251.99 333.375 252.023 333.4C252.056 333.424 252.083 333.454 252.104 333.489L257.581 342.579C257.878 343.071 257.966 343.661 257.828 344.218C257.69 344.776 257.336 345.256 256.843 345.552L256.571 345.717C256.078 346.013 255.489 346.102 254.931 345.964C254.373 345.826 253.893 345.471 253.597 344.979Z" fill="#263238"/>
<path d="M260.433 339.968L252.49 332.931C252.428 332.876 252.391 332.8 252.386 332.718C252.381 332.636 252.409 332.555 252.463 332.494L255.132 329.482C255.186 329.421 255.263 329.383 255.345 329.378C255.427 329.373 255.507 329.401 255.569 329.456L263.512 336.493C263.942 336.874 264.203 337.41 264.238 337.984C264.272 338.558 264.078 339.121 263.697 339.552L263.486 339.79C263.104 340.217 262.568 340.476 261.996 340.509C261.424 340.543 260.862 340.348 260.433 339.968Z" fill="#263238"/>
<path d="M78.1016 224.8C78.1016 224.8 79.2954 340.773 144.374 343.036C209.453 345.3 212.186 225.631 212.186 224.8C212.186 224.8 204.501 207.511 145.144 208.183C85.7865 208.855 78.1016 224.8 78.1016 224.8Z" fill="#FF725E"/>
<path d="M114.643 204.39H169.649C173.239 204.39 176.149 201.479 176.149 197.89V196.943C176.149 193.354 173.239 190.443 169.649 190.443H114.643C111.053 190.443 108.143 193.354 108.143 196.943V197.89C108.143 201.479 111.053 204.39 114.643 204.39Z" fill="#263238"/>
<path d="M139.775 101.266H144.524V77.256H139.775V101.266Z" fill="#263238"/>
<path d="M214.763 172.745C222.261 170.962 226.895 163.439 225.113 155.941C223.331 148.443 215.807 143.809 208.309 145.591C200.811 147.373 196.177 154.897 197.959 162.395C199.742 169.893 207.265 174.527 214.763 172.745Z" fill="#FF725E"/>
<path d="M73.7558 171.839C81.272 170.134 85.983 162.659 84.2781 155.142C82.5732 147.626 75.0981 142.915 67.5819 144.62C60.0657 146.325 55.3547 153.8 57.0596 161.316C58.7645 168.832 66.2396 173.543 73.7558 171.839Z" fill="#FF725E"/>
<path d="M139.387 96.0572C139.387 96.0572 82.6471 95.3763 73.6799 144.555C64.7126 193.733 112.679 194.617 126.484 195.546C132.736 195.97 146.125 196.015 157.94 195.802C184.099 195.351 202.582 190.293 208.87 166.027C209.618 163.181 210.089 160.27 210.276 157.333C211.929 130.697 193.951 94.7484 139.387 96.0572Z" fill="#FF725E"/>
<path d="M180.545 170.908L98.1148 172.19C96.0581 172.227 94.0145 171.857 92.1008 171.103C90.1872 170.348 88.4411 169.224 86.9626 167.794C85.484 166.364 84.302 164.656 83.4842 162.768C82.6664 160.881 82.2289 158.851 82.1966 156.794C82.1615 154.737 82.5323 152.693 83.2877 150.779C84.0431 148.866 85.1684 147.12 86.5992 145.641C88.03 144.163 89.7382 142.981 91.6262 142.163C93.5141 141.346 95.5447 140.908 97.6019 140.876L180.032 139.594C182.089 139.556 184.133 139.925 186.047 140.679C187.961 141.433 189.708 142.557 191.186 143.988C192.665 145.418 193.847 147.126 194.665 149.014C195.482 150.902 195.919 152.933 195.95 154.99C195.986 157.047 195.616 159.092 194.861 161.006C194.106 162.92 192.981 164.667 191.55 166.145C190.119 167.624 188.41 168.806 186.522 169.623C184.633 170.44 182.602 170.877 180.545 170.908Z" fill="#263238"/>
<path d="M115.244 155.087C115.052 156.062 114.576 156.957 113.875 157.661C113.174 158.365 112.28 158.846 111.306 159.042C110.332 159.238 109.322 159.141 108.404 158.763C107.485 158.385 106.699 157.743 106.145 156.918C105.591 156.094 105.294 155.123 105.292 154.13C105.29 153.137 105.582 152.165 106.131 151.337C106.681 150.51 107.464 149.864 108.381 149.482C109.297 149.099 110.307 148.997 111.282 149.188C111.929 149.315 112.546 149.569 113.095 149.934C113.645 150.299 114.117 150.769 114.485 151.317C114.853 151.864 115.109 152.479 115.239 153.126C115.37 153.773 115.371 154.439 115.244 155.087Z" fill="white"/>
<path d="M172.806 154.168C172.616 155.143 172.141 156.04 171.44 156.746C170.74 157.451 169.847 157.933 168.873 158.13C167.899 158.327 166.888 158.231 165.969 157.854C165.049 157.477 164.262 156.835 163.708 156.01C163.153 155.186 162.855 154.215 162.853 153.221C162.85 152.228 163.142 151.255 163.692 150.427C164.241 149.6 165.024 148.954 165.942 148.571C166.859 148.188 167.869 148.086 168.844 148.278C170.15 148.535 171.301 149.299 172.043 150.403C172.786 151.507 173.061 152.861 172.806 154.168Z" fill="white"/>
<path d="M164.52 270.856C164.197 275.282 162.569 279.512 159.842 283.012C157.115 286.513 153.411 289.126 149.199 290.521C144.987 291.916 140.455 292.031 136.178 290.851C131.9 289.671 128.069 287.249 125.168 283.892C122.267 280.535 120.426 276.392 119.879 271.989C119.332 267.585 120.103 263.119 122.095 259.154C124.086 255.188 127.209 251.903 131.067 249.712C134.926 247.521 139.348 246.524 143.773 246.847C149.708 247.281 155.227 250.054 159.117 254.557C163.008 259.059 164.951 264.922 164.52 270.856Z" fill="#263238"/>
<path d="M158.444 270.414C158.208 273.64 157.02 276.723 155.032 279.273C153.044 281.824 150.344 283.728 147.274 284.744C144.203 285.76 140.901 285.843 137.783 284.983C134.666 284.122 131.874 282.356 129.76 279.908C127.646 277.46 126.306 274.441 125.908 271.231C125.511 268.022 126.074 264.766 127.526 261.877C128.979 258.987 131.256 256.593 134.069 254.998C136.882 253.402 140.105 252.677 143.33 252.913C145.472 253.069 147.562 253.645 149.481 254.609C151.4 255.573 153.111 256.906 154.514 258.531C155.918 260.157 156.987 262.043 157.662 264.082C158.336 266.121 158.602 268.273 158.444 270.414Z" fill="white"/>
<path d="M150.565 273.386C150.44 272.493 150.389 271.591 150.414 270.689C150.37 269 150.335 266.585 150.335 263.614L150.512 263.941L142.101 259.033H142.57L134.08 263.8C133.851 264.189 134.39 263.278 134.337 263.375V264.631V265.896C134.337 266.727 134.337 267.558 134.293 268.372C134.293 269.999 134.231 271.573 134.204 273.094L133.974 272.687L142.287 277.764H141.916C144.507 276.366 146.647 275.252 148.106 274.491C148.891 274.044 149.71 273.66 150.556 273.342C149.896 273.879 149.185 274.35 148.433 274.748C147.001 275.632 144.896 276.879 142.243 278.409L142.057 278.515L141.872 278.409L133.453 273.501L133.223 273.368V273.085C133.223 271.564 133.24 269.99 133.276 268.363C133.276 267.549 133.276 266.727 133.276 265.887V264.631V263.411C133.223 263.508 133.762 262.606 133.532 262.986L142.048 258.264L142.296 258.131L142.526 258.273L150.83 263.349L151.016 263.464V263.676C150.918 266.736 150.821 269.194 150.733 270.866C150.755 271.709 150.699 272.553 150.565 273.386Z" fill="#FF725E"/>
<path d="M147.69 82.3034C150.747 79.247 150.747 74.2916 147.69 71.2352C144.634 68.1787 139.678 68.1787 136.622 71.2352C133.566 74.2916 133.566 79.247 136.622 82.3034C139.678 85.3598 144.634 85.3598 147.69 82.3034Z" fill="#FF725E"/>
<path d="M129.65 152.771C130.021 152.815 129.835 154.539 130.932 156.901C131.553 158.256 132.458 159.462 133.585 160.438C134.906 161.6 136.551 162.331 138.298 162.534C140.056 162.647 141.806 162.228 143.322 161.331C144.604 160.585 145.713 159.575 146.576 158.369C148.079 156.273 148.212 154.513 148.583 154.539C148.734 154.539 148.884 154.981 148.884 155.813C148.85 156.997 148.548 158.158 148 159.209C147.176 160.796 145.958 162.145 144.462 163.126C142.614 164.429 140.362 165.031 138.11 164.826C135.857 164.62 133.752 163.619 132.17 162.003C130.879 160.768 129.928 159.221 129.411 157.511C129.042 156.37 128.945 155.158 129.128 153.973C129.278 153.151 129.508 152.744 129.65 152.771Z" fill="white"/>
<path d="M205.2 175.683C205.111 175.683 206.128 174.092 207.11 171.306C208.331 167.658 209.103 163.874 209.409 160.039C209.763 156.218 209.852 152.377 209.674 148.543C209.613 147.066 209.542 145.89 209.471 145.005C209.411 144.578 209.397 144.145 209.427 143.714C209.54 144.131 209.614 144.557 209.648 144.988C209.772 145.81 209.896 147.004 210.002 148.525C210.279 152.39 210.235 156.271 209.869 160.128C209.558 163.999 208.734 167.811 207.419 171.465C207.003 172.567 206.5 173.635 205.916 174.658C205.707 175.019 205.467 175.363 205.2 175.683Z" fill="#263238"/>
<path d="M73.7853 142.909C73.7353 143.339 73.6435 143.762 73.5112 144.174C73.3962 144.572 73.2724 145.058 73.1575 145.642C73.0425 146.226 72.8656 146.862 72.7595 147.596C72.4494 149.301 72.2427 151.023 72.1405 152.752C72.0215 154.868 72.0511 156.99 72.2289 159.102C72.4265 161.21 72.7692 163.302 73.2547 165.363C73.6608 167.049 74.1687 168.708 74.7758 170.333C75.0146 171.031 75.2887 171.642 75.5098 172.19C75.7309 172.738 75.9431 173.198 76.12 173.57C76.3216 173.951 76.4874 174.351 76.6152 174.763C76.3636 174.413 76.1445 174.04 75.9608 173.649C75.7108 173.207 75.4835 172.752 75.2799 172.287C75.0323 171.757 74.7316 171.146 74.4751 170.448C73.8185 168.828 73.2748 167.164 72.8479 165.469C72.3304 163.388 71.9698 161.272 71.769 159.137C71.5888 157.004 71.5711 154.861 71.716 152.726C71.8393 150.981 72.0816 149.246 72.4411 147.534C72.5738 146.8 72.7595 146.155 72.9098 145.58C73.0602 145.005 73.2017 144.519 73.3343 144.121C73.4516 143.705 73.6024 143.3 73.7853 142.909Z" fill="#263238"/>
<path d="M77.8008 224.703L78.1368 224.8L79.1273 225.136L82.8946 226.463L85.6184 227.436C86.6177 227.772 87.7231 228.09 88.8993 228.453C91.2605 229.151 93.9224 230.062 96.9468 230.77L101.66 231.981C103.305 232.397 105.039 232.706 106.825 233.096C110.362 233.909 114.245 234.466 118.321 235.121C127.138 236.33 136.024 236.965 144.923 237.022C153.822 236.97 162.708 236.335 171.524 235.121C175.574 234.466 179.43 233.918 183.02 233.096C184.789 232.715 186.557 232.406 188.185 231.99L192.907 230.779C195.923 230.071 198.585 229.16 200.946 228.462C202.122 228.099 203.227 227.781 204.227 227.445L206.95 226.472L210.718 225.145L211.708 224.809C211.82 224.765 211.935 224.733 212.053 224.712L211.726 224.853L210.753 225.234L207.012 226.64L204.227 227.683C203.236 228.028 202.131 228.355 200.955 228.736C198.593 229.461 195.94 230.389 192.916 231.123L188.194 232.362C186.557 232.786 184.815 233.104 183.029 233.502C179.492 234.334 175.6 234.9 171.532 235.572C162.698 236.811 153.79 237.458 144.869 237.508C135.951 237.452 127.047 236.802 118.215 235.563C114.156 234.9 110.256 234.325 106.719 233.494C104.95 233.096 103.181 232.777 101.554 232.353L96.8319 231.115C93.8074 230.381 91.1544 229.452 88.7932 228.727C87.617 228.347 86.5204 228.019 85.5211 227.675L82.8062 226.658L79.0654 225.251L78.0926 224.871C77.9902 224.825 77.8925 224.768 77.8008 224.703Z" fill="#263238"/>
<g opacity="0.3">
<path d="M78.1016 224.8C78.1016 224.8 85.7865 208.881 145.144 208.183C204.501 207.484 212.186 224.8 212.186 224.8C212.186 224.8 152.28 254.328 78.1016 224.8Z" fill="black"/>
</g>
<path d="M132.197 99.7355C132.129 99.7419 132.061 99.7419 131.994 99.7355L131.401 99.7974C130.87 99.8504 130.092 99.8681 129.093 99.9831C126.273 100.257 123.475 100.721 120.718 101.371C106.458 104.637 93.8795 112.996 85.3443 124.877C81.2207 130.587 78.0987 136.957 76.1118 143.714C75.8023 144.669 75.6342 145.43 75.4839 145.934L75.3159 146.517C75.3 146.585 75.2762 146.65 75.2451 146.712C75.2334 146.645 75.2334 146.576 75.2451 146.508C75.2451 146.349 75.3159 146.155 75.3689 145.916C75.4927 145.403 75.6254 144.634 75.9084 143.661C76.6465 140.913 77.5925 138.226 78.7383 135.622C82.5183 126.969 88.2729 119.321 95.5408 113.292C102.84 107.309 111.438 103.117 120.647 101.053C123.421 100.423 126.238 100.006 129.075 99.8062C130.083 99.7178 130.844 99.7266 131.392 99.7001H131.994C132.135 99.7178 132.197 99.7266 132.197 99.7355Z" fill="white"/>
<path d="M76.6869 167.813C76.3325 167.265 76.0585 166.67 75.8733 166.044C74.8243 163.089 74.3355 159.964 74.4318 156.829C74.4066 156.179 74.4842 155.528 74.6618 154.901C74.8033 154.901 74.6087 157.855 75.1747 161.428C75.7407 165.001 76.8196 167.76 76.6869 167.813Z" fill="white"/>
<path d="M61.8036 163.241C61.8036 163.241 61.6002 163.1 61.326 162.764C60.9352 162.287 60.6 161.768 60.3267 161.216C59.3823 159.388 59.021 157.314 59.2914 155.275C59.5618 153.235 60.4509 151.327 61.839 149.808C62.2455 149.343 62.7056 148.927 63.2097 148.57C63.3828 148.424 63.5804 148.31 63.7934 148.234C63.8464 148.305 63.0505 148.844 62.0866 150.003C60.8215 151.518 60.012 153.361 59.7521 155.317C59.4923 157.274 59.7927 159.264 60.6186 161.057C61.2376 162.463 61.8655 163.188 61.8036 163.241Z" fill="white"/>
<path d="M142.659 71.3138C141.969 71.2378 141.273 71.223 140.581 71.2696C139.756 71.3419 138.959 71.6023 138.25 72.0306C137.542 72.459 136.941 73.0439 136.493 73.7406C136.046 74.4374 135.764 75.2273 135.669 76.0498C135.574 76.8724 135.669 77.7057 135.947 78.4858C136.186 79.1329 136.481 79.7573 136.831 80.3518C136.831 80.3518 136.654 80.2457 136.407 79.9627C136.067 79.5533 135.798 79.09 135.611 78.5919C135.273 77.7661 135.14 76.8712 135.222 75.9829C135.303 75.0946 135.598 74.239 136.08 73.4886C136.562 72.7382 137.218 72.115 137.993 71.6718C138.767 71.2286 139.636 70.9784 140.528 70.9424C141.057 70.9056 141.589 70.9564 142.102 71.0927C142.5 71.1546 142.659 71.2873 142.659 71.3138Z" fill="white"/>
<path d="M219.738 152.513C219.641 152.619 218.27 151.302 216.201 150.311C214.132 149.321 212.248 149.029 212.266 148.887C213.707 148.851 215.133 149.199 216.396 149.895C217.725 150.452 218.88 151.356 219.738 152.513Z" fill="white"/>
<path d="M98.4416 307.337C98.4012 307.284 98.3657 307.228 98.3355 307.168L98.0436 306.647C97.7783 306.143 97.4246 305.471 96.9647 304.613C96.7348 304.171 96.4872 303.675 96.2042 303.145L95.3729 301.376C94.7715 300.094 94.0994 298.635 93.4362 296.954C93.1001 296.132 92.7464 295.265 92.375 294.372C92.0035 293.479 91.6852 292.506 91.3226 291.524C90.5621 289.57 89.9165 287.421 89.1648 285.193C87.7764 280.682 86.4145 275.686 85.2206 270.38C84.0268 265.074 83.1601 259.953 82.4526 255.293C81.7451 250.632 81.2853 246.449 81.0023 242.859C80.8343 241.09 80.7282 239.481 80.6397 238.066C80.5513 236.651 80.4717 235.413 80.4452 234.44C80.4186 233.467 80.3921 232.716 80.3656 232.15V231.557C80.356 231.49 80.356 231.421 80.3656 231.354C80.3757 231.421 80.3757 231.49 80.3656 231.557L80.4186 232.15C80.4186 232.707 80.5159 233.476 80.5778 234.431C80.6397 235.386 80.7281 236.642 80.852 238.048C80.9758 239.454 81.0907 241.064 81.2853 242.832C81.6036 246.37 82.1696 250.579 82.8329 255.213C83.4961 259.847 84.4601 264.941 85.6274 270.247C86.7948 275.553 88.1655 280.541 89.5185 285.042C90.2702 287.271 90.8981 289.411 91.641 291.365C91.9947 292.356 92.3308 293.302 92.6668 294.213L93.6926 296.813C94.3294 298.467 94.9838 299.935 95.5675 301.235L96.3634 303.003C96.6198 303.543 96.8674 304.038 97.0885 304.489L98.079 306.558L98.3266 307.098C98.3802 307.169 98.4193 307.25 98.4416 307.337Z" fill="white"/>
<path d="M63.8371 235.235C61.6795 235.316 59.5189 235.24 57.3725 235.005C55.2161 234.929 53.0678 234.702 50.9434 234.324C53.1009 234.242 55.2616 234.319 57.4079 234.554C59.5644 234.629 61.7128 234.856 63.8371 235.235Z" fill="white"/>
<path d="M30.5682 216.355C29.3139 214.528 28.1881 212.616 27.1988 210.633C26.0776 208.723 25.0907 206.737 24.2451 204.69C25.4955 206.521 26.6184 208.436 27.6056 210.421C28.7326 212.326 29.7226 214.309 30.5682 216.355Z" fill="white"/>
<path d="M129.836 335.219C129.488 335.213 129.141 335.172 128.801 335.096C127.866 334.929 126.941 334.705 126.033 334.424C124.685 334.013 123.367 333.508 122.089 332.911C120.533 332.161 119.037 331.292 117.614 330.311C116.208 329.306 114.883 328.192 113.653 326.977C112.656 325.979 111.734 324.909 110.893 323.776C110.318 323.02 109.795 322.225 109.328 321.397C109.137 321.106 108.98 320.795 108.859 320.469C108.93 320.424 109.673 321.707 111.15 323.582C112.018 324.671 112.954 325.705 113.953 326.677C116.401 329.055 119.21 331.031 122.275 332.531C123.527 333.136 124.815 333.665 126.131 334.114C128.395 334.875 129.854 335.131 129.836 335.219Z" fill="white"/>
<path d="M143.401 294.31C143.197 294.346 142.99 294.366 142.782 294.372C142.194 294.422 141.604 294.44 141.014 294.425C138.814 294.377 136.633 294.022 134.531 293.373C133.079 292.921 131.666 292.353 130.304 291.675C128.743 290.872 127.262 289.921 125.882 288.836C122.686 286.38 120.166 283.152 118.56 279.455C116.955 275.758 116.315 271.713 116.703 267.7C116.847 265.959 117.158 264.235 117.631 262.553C118.055 261.095 118.603 259.674 119.267 258.309C120.227 256.327 121.459 254.491 122.929 252.852C123.323 252.404 123.742 251.979 124.184 251.579C124.331 251.432 124.487 251.296 124.653 251.172C124.653 251.172 124.069 251.8 123.061 252.941C121.646 254.605 120.457 256.448 119.524 258.424C118.133 261.334 117.305 264.482 117.083 267.7C116.725 271.641 117.363 275.609 118.939 279.239C120.515 282.869 122.979 286.045 126.103 288.474C127.443 289.551 128.882 290.499 130.401 291.303C131.733 292.006 133.12 292.597 134.549 293.072C136.619 293.743 138.769 294.139 140.943 294.248C142.543 294.31 143.401 294.257 143.401 294.31Z" fill="white"/>
<path d="M36.3344 224.668C36.3344 224.738 35.6535 224.411 34.5657 224.155C33.1102 223.836 31.6014 223.851 30.1525 224.199C28.7037 224.546 27.3523 225.218 26.1998 226.162C25.3155 226.896 24.891 227.48 24.8291 227.436C25.0718 226.85 25.4472 226.33 25.9257 225.914C27.0735 224.861 28.471 224.118 29.986 223.756C31.5011 223.394 33.0835 223.425 34.5834 223.845C35.2226 223.981 35.8218 224.262 36.3344 224.668Z" fill="white"/>
<path d="M166.925 136.737C166.925 136.861 156.066 136.967 142.677 136.967C129.288 136.967 118.419 136.861 118.419 136.737C118.419 136.613 129.279 136.507 142.677 136.507C156.074 136.507 166.925 136.596 166.925 136.737Z" fill="white"/>
<path d="M125.538 192.034C125.405 192.072 125.269 192.093 125.131 192.096L123.946 192.203C123.433 192.247 122.805 192.282 122.071 192.3C121.337 192.317 120.506 192.353 119.586 192.3C117.738 192.3 115.545 192.167 113.113 191.911C110.481 191.604 107.868 191.153 105.286 190.558C102.711 189.94 100.171 189.178 97.6809 188.276C95.6518 187.533 93.6624 186.686 91.7205 185.738C90.8361 185.349 90.1552 184.942 89.5096 184.597C88.864 184.252 88.3157 183.943 87.8736 183.713L86.8566 183.094C86.736 183.027 86.6233 182.947 86.5205 182.855C86.5205 182.855 86.662 182.855 86.9008 183.014L87.962 183.554C88.413 183.801 88.9701 184.093 89.6246 184.438C90.279 184.783 91.0218 185.137 91.8619 185.508C93.5245 186.286 95.5497 187.118 97.8313 187.94C102.79 189.718 107.934 190.928 113.166 191.548C115.571 191.831 117.756 191.99 119.586 192.034C120.471 192.088 121.355 192.034 122.071 192.034C122.787 192.034 123.424 192.034 123.937 192.034H125.122C125.26 192.012 125.4 192.012 125.538 192.034Z" fill="white"/>
<path d="M196.136 231.884C196.07 231.927 195.999 231.96 195.923 231.981L195.287 232.22L192.828 233.104C191.758 233.494 190.449 233.945 188.902 234.396C187.354 234.847 185.612 235.43 183.64 235.925L180.562 236.739C179.492 237.013 178.36 237.243 177.202 237.517C174.885 238.074 172.373 238.517 169.738 239.021C158.259 241.02 146.593 241.735 134.957 241.152C132.304 240.984 129.73 240.851 127.36 240.577C126.175 240.453 125.025 240.365 123.929 240.215L120.772 239.781C118.755 239.542 116.951 239.18 115.368 238.897C113.785 238.614 112.415 238.349 111.309 238.092L108.762 237.526L108.099 237.367C108.022 237.354 107.948 237.33 107.878 237.296C107.957 237.29 108.037 237.29 108.117 237.296L108.78 237.411L111.345 237.898C112.459 238.119 113.821 238.375 115.413 238.614C117.004 238.853 118.8 239.198 120.816 239.419L123.964 239.817C125.061 239.958 126.21 240.038 127.395 240.153C129.757 240.409 132.304 240.524 134.974 240.683C140.325 240.904 146.205 240.913 152.378 240.551C158.551 240.188 164.379 239.419 169.658 238.552C172.311 238.066 174.805 237.668 177.122 237.102C178.281 236.836 179.413 236.615 180.483 236.35L183.56 235.563C185.532 235.094 187.274 234.546 188.822 234.104C190.37 233.662 191.696 233.219 192.766 232.892L195.251 232.096L195.906 231.902L196.136 231.884Z" fill="white"/>
</svg>
