<svg width="126" height="134" viewBox="0 0 126 134" fill="none" xmlns="http://www.w3.org/2000/svg">
<path d="M74.8921 76.3059C74.9151 76.3267 74.937 76.3487 74.9578 76.3717L75.1452 76.5656L75.8685 77.3317L78.5974 80.2545L88.2667 90.68H88.1549L99.1229 78.1175L99.1985 78.032L99.2609 78.1273L100.06 79.3306L108.358 91.8241L108.243 91.8044L116.219 85.4327L116.265 85.3966L116.305 85.4393L122.394 92.3436L124.037 94.2275L124.465 94.7206C124.56 94.8324 124.606 94.8916 124.606 94.8916C124.606 94.8916 124.55 94.839 124.452 94.7338L124.018 94.2275L122.341 92.3666L116.213 85.5116H116.298L108.342 91.926L108.276 91.9787L108.227 91.9063L99.9185 79.4326L99.1163 78.226H99.2511C95.2597 82.7959 91.5051 87.0865 88.27 90.7885L88.2141 90.851L88.1582 90.7885C84.1866 86.4684 80.8627 82.8584 78.5316 80.3203L75.8357 77.3613L75.1288 76.5788C75.0532 76.49 74.994 76.4243 74.948 76.375C74.9019 76.3256 74.8888 76.3092 74.8921 76.3059Z" fill="#E6E6E6"/>
<path d="M87.1329 90.7654C87.1309 90.9938 87.197 91.2177 87.3227 91.4084C87.4484 91.5991 87.628 91.7481 87.8386 91.8365C88.0493 91.9248 88.2815 91.9484 88.5056 91.9043C88.7297 91.8602 88.9357 91.7504 89.0972 91.5889C89.2587 91.4274 89.3685 91.2214 89.4126 90.9973C89.4567 90.7732 89.4331 90.541 89.3448 90.3303C89.2564 90.1197 89.1074 89.9401 88.9167 89.8144C88.726 89.6887 88.5021 89.6226 88.2737 89.6246C87.9717 89.6263 87.6825 89.747 87.4689 89.9606C87.2553 90.1742 87.1346 90.4634 87.1329 90.7654Z" fill="#E0E0E0"/>
<path d="M107.277 92.1363C107.278 92.3641 107.347 92.5863 107.474 92.7749C107.602 92.9634 107.783 93.1099 107.994 93.1957C108.205 93.2815 108.436 93.3027 108.659 93.2568C108.883 93.2108 109.087 93.0997 109.247 92.9376C109.407 92.7754 109.515 92.5694 109.558 92.3457C109.6 92.1221 109.576 91.8907 109.487 91.681C109.398 91.4713 109.249 91.2927 109.059 91.1677C108.868 91.0428 108.645 90.9771 108.417 90.979C108.113 90.9817 107.822 91.1049 107.608 91.3219C107.394 91.5388 107.275 91.8317 107.277 92.1363Z" fill="#E0E0E0"/>
<path d="M115.111 85.8009C115.113 86.0278 115.183 86.2491 115.31 86.4367C115.438 86.6243 115.618 86.7698 115.829 86.8548C116.039 86.9398 116.27 86.9606 116.492 86.9144C116.714 86.8682 116.918 86.7572 117.077 86.5953C117.236 86.4335 117.344 86.2281 117.386 86.0052C117.428 85.7822 117.404 85.5517 117.315 85.3428C117.226 85.1339 117.078 84.956 116.888 84.8315C116.698 84.707 116.476 84.6417 116.249 84.6436C115.945 84.6471 115.655 84.7707 115.441 84.9876C115.228 85.2044 115.11 85.4968 115.111 85.8009Z" fill="#E0E0E0"/>
<path d="M98.0379 78.2716C98.0392 78.4993 98.108 78.7215 98.2357 78.9101C98.3634 79.0987 98.5441 79.2451 98.7551 79.3309C98.966 79.4167 99.1977 79.438 99.4207 79.392C99.6438 79.3461 99.8482 79.235 100.008 79.0728C100.168 78.9106 100.276 78.7047 100.319 78.481C100.362 78.2573 100.337 78.026 100.248 77.8163C100.159 77.6066 100.01 77.4279 99.82 77.303C99.6296 77.178 99.4064 77.1124 99.1787 77.1143C98.8741 77.1169 98.5829 77.2402 98.3691 77.4571C98.1552 77.6741 98.0361 77.967 98.0379 78.2716Z" fill="#E0E0E0"/>
<path d="M123.698 94.9242C123.7 95.1519 123.768 95.3741 123.896 95.5627C124.024 95.7513 124.205 95.8977 124.415 95.9835C124.626 96.0693 124.858 96.0906 125.081 96.0446C125.304 95.9987 125.509 95.8876 125.668 95.7254C125.828 95.5632 125.936 95.3573 125.979 95.1336C126.022 94.9099 125.997 94.6786 125.909 94.4689C125.82 94.2592 125.671 94.0805 125.48 93.9556C125.29 93.8306 125.067 93.7649 124.839 93.7669C124.534 93.7695 124.243 93.8928 124.029 94.1097C123.816 94.3267 123.697 94.6196 123.698 94.9242Z" fill="#E0E0E0"/>
<path d="M22.9159 7.85815H15.5283V37.2408H22.9159V7.85815Z" fill="#E6E6E6"/>
<path d="M33.7821 14.2659H26.3945V37.2374H33.7821V14.2659Z" fill="#E6E6E6"/>
<path d="M44.8153 19.5129H37.4277V37.2372H44.8153V19.5129Z" fill="#E6E6E6"/>
<path d="M55.0302 26.7131H47.6426V37.2405H55.0302V26.7131Z" fill="#E6E6E6"/>
<path d="M49.1158 0.526367C49.1158 0.526367 49.0468 0.615137 48.912 0.772949L48.2972 1.47982L45.9596 4.1429L37.5298 13.6774L37.4837 13.7267L37.4311 13.6873L31.9307 9.47235H32.0425L24.3491 19.2238L24.2571 19.3422L24.2012 19.4145L24.1321 19.3521L13.7724 10.2022H13.8875C9.82053 15.5416 6.37496 20.1017 3.90914 23.327L1.03893 27.0783L0.272885 28.0646L0.0723311 28.3178C0.0499465 28.3477 0.0257928 28.3762 0 28.4033C0.018676 28.3712 0.039549 28.3404 0.0624682 28.3112L0.253156 28.0482L0.999479 27.0388L3.83024 23.2612L13.7593 10.0905L13.8119 10.0214L13.8743 10.0773L24.2472 19.2041H24.1223L24.2143 19.0858L31.9176 9.34084L31.9669 9.27838L32.0293 9.32769L37.5199 13.5393H37.4213L45.8938 4.08043C46.9163 2.94616 47.7185 2.05517 48.2676 1.45023L48.8955 0.759798C49.0402 0.59541 49.1158 0.526367 49.1158 0.526367Z" fill="#E6E6E6"/>
<path d="M47.8958 7.34156C47.8931 7.29168 47.8987 7.2417 47.9122 7.19361L47.9944 6.77278C48.0799 6.38154 48.195 5.86207 48.3232 5.22753C48.6158 3.91243 49.0301 2.11732 49.5068 0.105208L49.612 0.203841L49.2405 0.318912C47.1791 0.953449 45.3116 1.51566 43.9571 1.91676L42.3493 2.38034L41.9088 2.4987C41.8583 2.51753 41.8049 2.52754 41.751 2.52829C41.7981 2.50266 41.8477 2.48174 41.8989 2.46582L42.3296 2.31787L43.9209 1.80169C45.2656 1.37099 47.1297 0.789062 49.1813 0.157812L49.5528 0.0460284L49.6975 0L49.6613 0.147948C49.2043 2.16992 48.7868 3.95846 48.458 5.25712C48.2969 5.88509 48.1654 6.40126 48.07 6.78922C48.024 6.95032 47.9846 7.08841 47.955 7.20019C47.9423 7.24997 47.9224 7.2976 47.8958 7.34156Z" fill="#E6E6E6"/>
<path d="M106.175 50.2075C107.643 50.1837 109.085 50.5956 110.319 51.3913C111.553 52.187 112.523 53.3307 113.107 54.6778C113.691 56.0249 113.862 57.5149 113.599 58.9594C113.337 60.4038 112.651 61.7379 111.63 62.793C110.609 63.848 109.298 64.5766 107.863 64.8867C106.428 65.1967 104.933 65.0742 103.568 64.5348C102.202 63.9953 101.028 63.0631 100.192 61.8559C99.3562 60.6488 98.8972 59.2209 98.8729 57.7529C98.843 55.7847 99.595 53.885 100.964 52.4705C102.333 51.0559 104.207 50.2421 106.175 50.2075ZM106.353 61.1821C107.054 61.169 107.737 60.9481 108.313 60.5475C108.889 60.1468 109.334 59.5844 109.591 58.9311C109.848 58.2778 109.905 57.5631 109.756 56.8771C109.607 56.1912 109.258 55.5649 108.753 55.0774C108.248 54.5898 107.609 54.2629 106.919 54.1379C106.228 54.0129 105.516 54.0954 104.872 54.375C104.228 54.6547 103.681 55.1189 103.301 55.709C102.921 56.2991 102.724 56.9886 102.736 57.6905C102.744 58.1572 102.844 58.6178 103.03 59.0459C103.217 59.474 103.485 59.8612 103.821 60.1854C104.157 60.5097 104.553 60.7646 104.988 60.9356C105.422 61.1066 105.886 61.1903 106.353 61.1821Z" fill="#E0E0E0"/>
<path d="M106.161 49.2838C108.375 49.2522 110.511 50.0996 112.101 51.6403C113.692 53.1811 114.606 55.2894 114.644 57.5032L109.581 57.6347C109.548 55.4352 108.058 54.5409 106.293 54.4292C105.859 54.4032 105.425 54.4673 105.017 54.6175C104.609 54.7677 104.236 55.0007 103.923 55.3017C103.61 55.6028 103.362 55.9656 103.195 56.3671C103.029 56.7686 102.947 57.2002 102.956 57.6347L97.9453 57.7695C97.911 55.5551 98.7571 53.4177 100.298 51.8266C101.838 50.2356 103.947 49.321 106.161 49.2838Z" fill="#F0F0F0"/>
<path d="M46.0618 82.9208C48.6176 80.2389 52.1241 78.6674 55.8268 78.5444C59.5295 78.4214 63.1325 79.7568 65.8606 82.2633C67.2008 83.4984 68.2825 84.9873 69.0429 86.6436C69.8034 88.2999 70.2276 90.0906 70.2909 91.912C70.3542 93.7335 70.0554 95.5494 69.4117 97.2545C68.7681 98.9595 67.7924 100.52 66.5412 101.845C63.9853 104.527 60.4789 106.099 56.7762 106.222C53.0735 106.345 49.4705 105.009 46.7423 102.503C45.4022 101.268 44.3205 99.7787 43.56 98.1224C42.7995 96.4661 42.3753 94.6753 42.312 92.8539C42.2487 91.0325 42.5476 89.2166 43.1912 87.5115C43.8349 85.8064 44.8106 84.246 46.0618 82.9208ZM61.1854 96.9069C61.7853 96.2736 62.2531 95.5273 62.5616 94.7114C62.8702 93.8955 63.0134 93.0264 62.9828 92.1547C62.9522 91.2829 62.7484 90.426 62.3834 89.6337C62.0184 88.8415 61.4994 88.1298 60.8567 87.5401C59.5508 86.3431 57.8271 85.7068 56.0567 85.7683C54.2863 85.8298 52.6108 86.5841 51.3912 87.8689C50.7914 88.5022 50.3236 89.2485 50.015 90.0644C49.7064 90.8803 49.5633 91.7494 49.5939 92.6212C49.6245 93.4929 49.8282 94.3498 50.1932 95.1421C50.5582 95.9343 51.0772 96.646 51.72 97.2357C53.0258 98.4355 54.7511 99.0736 56.5234 99.0121C58.2956 98.9506 59.9726 98.1944 61.192 96.9069H61.1854Z" fill="#F5F5F5"/>
<path d="M46.062 82.9208C48.6178 80.2389 52.1243 78.6674 55.827 78.5444C59.5297 78.4214 63.1327 79.7568 65.8609 82.2633L60.87 87.55C59.5642 86.3529 57.8405 85.7167 56.0701 85.7781C54.2997 85.8396 52.6242 86.594 51.4046 87.8787C50.8048 88.5121 50.337 89.2584 50.0284 90.0743C49.7198 90.8902 49.5767 91.7593 49.6073 92.631C49.6379 93.5028 49.8416 94.3597 50.2066 95.1519C50.5716 95.9442 51.0906 96.6559 51.7334 97.2456L46.736 102.513C45.3948 101.277 44.3124 99.787 43.5516 98.1296C42.7908 96.4722 42.3667 94.6802 42.304 92.8576C42.2413 91.0349 42.5412 89.218 43.1863 87.5123C43.8314 85.8065 44.8089 84.2458 46.062 82.9208Z" fill="#E0E0E0"/>
<path d="M65.2884 79.9915C72.1927 86.3796 73.0311 96.759 66.5706 103.611L59.5579 97.5645C62.6451 94.2932 63.3158 89.9238 60.0116 86.8694L65.2884 79.9915Z" fill="#EBEBEB"/>
<path d="M58.8271 97.9982L62.9927 106.237C64.7152 105.606 66.2673 104.583 67.5266 103.249L60.0436 97.2058L58.8271 97.9982Z" fill="#E0E0E0"/>
<path d="M74.5426 21.946C74.4819 18.2529 75.5179 14.6248 77.5196 11.5206C79.5213 8.41648 82.3987 5.97575 85.7878 4.50722C89.1769 3.03868 92.9254 2.60834 96.5591 3.27063C100.193 3.93292 103.548 5.65808 106.202 8.22787C108.855 10.7977 110.686 14.0966 111.464 17.7074C112.242 21.3181 111.931 25.0785 110.571 28.5127C109.211 31.9469 106.864 34.9006 103.825 37.0003C100.786 39.0999 97.1929 40.2511 93.4998 40.3081C88.5534 40.3785 83.7808 38.4855 80.2275 35.0437C76.6742 31.602 74.6299 26.8921 74.5426 21.946ZM102.137 21.5022C102.108 19.7371 101.556 18.0201 100.552 16.5685C99.5472 15.1168 98.1347 13.9957 96.4929 13.3467C94.8512 12.6978 93.0539 12.5502 91.3283 12.9227C89.6027 13.2951 88.0263 14.1709 86.7984 15.4393C85.5705 16.7076 84.7462 18.3116 84.4299 20.0484C84.1135 21.7851 84.3193 23.5767 85.0211 25.1966C85.7229 26.8164 86.8892 28.1918 88.3727 29.1488C89.8561 30.1058 91.59 30.6015 93.3551 30.5731C95.7218 30.5324 97.9756 29.5545 99.622 27.8539C101.268 26.1532 102.173 23.8689 102.137 21.5022Z" fill="#FAFAFA"/>
<path d="M74.5431 21.9461C74.4684 16.9964 76.3606 12.2192 79.8044 8.66324C83.2483 5.10724 87.9623 3.06292 92.9119 2.979L93.0697 12.7206C90.7023 12.7586 88.4469 13.7354 86.7997 15.4362C85.1526 17.137 84.2485 19.4225 84.2864 21.7899C84.3244 24.1573 85.3012 26.4127 87.002 28.0598C88.7028 29.707 90.9883 30.6111 93.3557 30.5731L93.5004 40.3082C88.5535 40.3803 83.7799 38.4878 80.2262 35.0457C76.6725 31.6036 74.6288 26.8927 74.5431 21.9461Z" fill="#E0E0E0"/>
<path d="M91.2351 1.47954C103.278 1.28556 112.888 10.5899 113.079 22.633L101.68 22.8171C101.588 17.0569 97.186 13.4305 91.4291 13.5259L91.2351 1.47954Z" fill="#F0F0F0"/>
<path d="M113.227 133C113.227 133.046 88.6443 133.085 58.3213 133.085C27.9983 133.085 3.41577 133.046 3.41577 133C3.41577 132.954 27.9918 132.911 58.3213 132.911C88.6509 132.911 113.227 132.95 113.227 133Z" fill="#263238"/>
<path d="M37.1052 87.4116L98.0274 86.9744V87.8292L37.1052 88.375V87.4116Z" fill="#263238"/>
<path d="M35.7771 25.4736L37.1645 87.9213L98.0275 87.4478V24.4248L35.7771 25.4736Z" fill="white"/>
<path d="M35.7774 25.4739L98.0278 24.3528H98.1035V24.4284C98.1035 42.4683 98.1035 63.7565 98.1035 86.4684V87.5369H98.018L37.155 88.0005H37.0827V87.9281C36.2969 50.5003 35.784 26.1183 35.7676 25.4772C35.7676 26.1084 36.3528 50.5003 37.2273 87.9216L37.155 87.8492L98.018 87.3659L97.9325 87.4514V86.4651C97.9325 63.7533 97.9325 42.465 97.9325 24.4251L98.0081 24.5007L35.7774 25.4739Z" fill="#263238"/>
<path d="M35.5342 25.891L98.2942 25.5327L98.3731 22.8992L35.5342 23.2904V25.891Z" fill="#263238"/>
<path d="M65.5779 89.6243C65.4727 89.6243 65.3609 89.1345 65.3313 88.5229C65.3017 87.9114 65.3675 87.4117 65.4727 87.4051C65.5779 87.3985 65.6897 87.8917 65.7193 88.5032C65.7489 89.1147 65.6864 89.6243 65.5779 89.6243Z" fill="#263238"/>
<path d="M65.5537 89.1741C65.5537 89.1511 65.6589 89.1445 65.8233 89.2103C65.9225 89.252 66.0154 89.3074 66.0994 89.3747C66.2125 89.4656 66.3074 89.5772 66.3789 89.7034C66.4764 89.8781 66.5254 90.0758 66.5208 90.2758C66.5162 90.4758 66.4581 90.671 66.3526 90.841C66.2893 90.9435 66.2093 91.0346 66.1159 91.1106C66.0183 91.189 65.9068 91.2481 65.7871 91.2848C65.5329 91.355 65.2623 91.3353 65.0211 91.229C64.899 91.1746 64.7877 91.0989 64.6923 91.0054C64.5974 90.9118 64.5225 90.8 64.472 90.6766C64.3809 90.4524 64.3614 90.2055 64.4161 89.9697C64.4565 89.7732 64.5513 89.592 64.6896 89.4467C64.828 89.3014 65.0043 89.1978 65.1986 89.1478C65.4472 89.0798 65.712 89.1031 65.9449 89.2136C66.1027 89.2925 66.1619 89.3747 66.1488 89.3944C66.1356 89.4141 66.0468 89.3944 65.8956 89.3549C65.6897 89.3165 65.4772 89.3347 65.2808 89.4075C65.1543 89.4567 65.0415 89.5357 64.952 89.6377C64.8494 89.7579 64.7824 89.9044 64.7585 90.0607C64.7347 90.2169 64.755 90.3768 64.8172 90.5221C64.8888 90.6783 65.0168 90.8016 65.1756 90.8673C65.3336 90.938 65.5109 90.953 65.6786 90.91C65.8328 90.8701 65.9665 90.774 66.0534 90.6404C66.1391 90.5145 66.1901 90.3682 66.2014 90.2163C66.2113 90.1476 66.2113 90.0779 66.2014 90.0092C66.1906 89.9446 66.1719 89.8817 66.1455 89.8218C66.0612 89.6283 65.9287 89.4597 65.7608 89.3319C65.6392 89.2464 65.5537 89.2004 65.5537 89.1741Z" fill="#263238"/>
<path d="M74.609 59.6467C74.609 59.6467 74.609 59.6467 74.5695 59.6467H74.4577L74.0238 59.6664L72.3503 59.7387L66.1956 59.9689C60.9977 60.1595 53.8139 60.4127 45.8838 60.6856L43.155 60.7776H43.0925V60.7152C42.5402 53.4591 42.0404 46.9559 41.6952 42.2807C41.5243 39.9464 41.3895 38.0691 41.2941 36.777C41.2514 36.1195 41.2152 35.6296 41.1922 35.291C41.1922 35.12 41.1725 34.9918 41.1692 34.903C41.1659 34.8142 41.1692 34.8274 41.1692 34.8044C41.1692 34.7813 41.1692 34.7715 41.1692 34.7715C41.1707 34.7824 41.1707 34.7935 41.1692 34.8044C41.1692 34.8274 41.1692 34.8603 41.1692 34.903C41.1692 34.9457 41.1889 35.12 41.2054 35.2877C41.2317 35.6164 41.2744 36.126 41.3303 36.7737C41.4322 38.0658 41.5834 39.9431 41.7708 42.2709C42.1391 46.9329 42.6454 53.4196 43.2043 60.7053L43.1386 60.6461L45.8674 60.5508C53.7975 60.2812 60.9911 60.0412 66.1792 59.8768L72.3371 59.6861L74.0106 59.6401H74.4446H74.5958L74.609 59.6467Z" fill="#455A64"/>
<path d="M52.5715 32.7494V33.5878L61.2446 33.1736V32.47L52.5715 32.7494Z" fill="#263238"/>
<path d="M46.0051 58.9301H49.02L48.5465 50.7468H45.5908L46.0051 58.9301Z" fill="#1A377D"/>
<path d="M51.4702 58.9332H54.4818L54.0116 47.4951H51.0559L51.4702 58.9332Z" fill="#1A377D"/>
<path d="M56.5858 58.5683H59.6006L59.1272 43.5925H56.1748L56.5858 58.5683Z" fill="#1A377D"/>
<path d="M68.3225 57.9863H71.334L70.8639 37.5759H67.9082L68.3225 57.9863Z" fill="#1A377D"/>
<path d="M62.6115 58.0554H65.6231L65.1497 40.4922H62.1973L62.6115 58.0554Z" fill="#1A377D"/>
<path d="M44.1112 48.6263C44.0323 48.5046 49.4177 44.9144 56.1345 40.6074C62.8514 36.3005 68.3683 32.9075 68.4472 33.0456C68.5261 33.1837 63.1408 36.7575 56.4206 41.0644C49.7004 45.3714 44.1835 48.7479 44.1112 48.6263Z" fill="#1A377D"/>
<path d="M65.4661 33.0323C65.4398 32.8876 67.3894 32.401 69.8289 31.9408L70.447 31.8257L70.0952 32.3484L70.0755 32.378C68.6815 34.4493 67.4453 36.0636 67.3302 35.9946C67.2152 35.9255 68.2442 34.1699 69.6317 32.0953L69.6514 32.0657L69.921 32.4734C67.4848 32.9172 65.4924 33.1737 65.4661 33.0323Z" fill="#1A377D"/>
<path d="M45.5908 61.6948H48.7405L48.8391 62.2537H45.5908V61.6948Z" fill="#263238"/>
<path d="M51.168 61.4646H54.3176L54.4163 62.0235H51.168V61.4646Z" fill="#263238"/>
<path d="M56.9072 61.3005H60.0569L60.1555 61.8595H56.9072V61.3005Z" fill="#263238"/>
<path d="M62.2861 61.1655H65.4358L65.5344 61.7277H62.2861V61.1655Z" fill="#263238"/>
<path d="M68.9509 60.9683H72.1006L72.1992 61.5305H68.9509V60.9683Z" fill="#263238"/>
<path d="M83.0781 83.2529C88.6308 83.2529 93.1321 78.7516 93.1321 73.199C93.1321 67.6463 88.6308 63.145 83.0781 63.145C77.5255 63.145 73.0242 67.6463 73.0242 73.199C73.0242 78.7516 77.5255 83.2529 83.0781 83.2529Z" fill="#1A377D"/>
<path opacity="0.3" d="M83.0781 83.2529C88.6308 83.2529 93.1321 78.7516 93.1321 73.199C93.1321 67.6463 88.6308 63.145 83.0781 63.145C77.5255 63.145 73.0242 67.6463 73.0242 73.199C73.0242 78.7516 77.5255 83.2529 83.0781 83.2529Z" fill="black"/>
<path d="M83.0784 73.1856L73.271 75.3916C71.6929 68.1586 77.5253 63.1316 83.0784 63.1316" fill="#1A377D"/>
<path d="M83.0914 73.1856L83.0256 63.1316C90.4297 63.1316 94.0988 69.9011 92.9152 75.3259L83.0914 73.1856Z" fill="#1A377D"/>
<path d="M83.0914 73.1856L83.0256 63.1316C90.4297 63.1316 94.0988 69.9011 92.9152 75.3259L83.0914 73.1856Z" fill="#1A377D"/>
<path opacity="0.1" d="M83.0914 73.1856L83.0256 63.1316C90.4297 63.1316 94.0988 69.9011 92.9152 75.3259L83.0914 73.1856Z" fill="black"/>
<path d="M93.3922 49.3922C93.1969 49.2616 92.9886 49.1515 92.7708 49.0635C92.1636 48.8777 91.5122 48.8962 90.9165 49.1161C90.1472 49.3561 89.3844 49.9676 88.6447 50.7336C87.9049 51.4997 87.1126 52.4268 85.9553 52.9693C85.3969 53.2468 84.7683 53.351 84.1503 53.2685C83.5927 53.1528 83.0538 52.9603 82.5492 52.6964C82.1049 52.4651 81.63 52.2979 81.1387 52.2C80.7114 52.1329 80.2739 52.1876 79.8762 52.3578C79.291 52.6061 78.8124 53.0533 78.525 53.6203C78.4325 53.8333 78.3567 54.0531 78.2981 54.2778C78.3084 54.04 78.3653 53.8065 78.4658 53.5907C78.7411 52.992 79.2249 52.514 79.8269 52.246C80.2393 52.0624 80.6947 51.9975 81.142 52.0586C81.6496 52.1528 82.1411 52.3188 82.6018 52.5518C83.0933 52.8068 83.6177 52.9927 84.1602 53.1041C84.745 53.1769 85.3383 53.0763 85.8665 52.8148C86.9778 52.2953 87.757 51.3747 88.5164 50.6218C89.2759 49.869 90.0617 49.2344 90.8606 49.001C91.4812 48.7845 92.1568 48.7845 92.7774 49.001C92.9429 49.0648 93.0989 49.1511 93.2409 49.2574C93.2967 49.296 93.3475 49.3412 93.3922 49.3922Z" fill="#263238"/>
<path d="M94.2437 55.8889C94.2437 55.9383 90.6732 55.9744 86.2709 55.9744C81.8686 55.9744 78.2981 55.9383 78.2981 55.8889C78.2981 55.8396 81.8686 55.8035 86.2709 55.8035C90.6732 55.8035 94.2437 55.8429 94.2437 55.8889Z" fill="#263238"/>
<path d="M93.356 55.889C93.31 55.889 93.2705 53.8572 93.2705 51.3486C93.2705 48.8401 93.31 46.8115 93.356 46.8115C93.402 46.8115 93.4415 48.8434 93.4415 51.3486C93.4415 53.8539 93.4053 55.889 93.356 55.889Z" fill="#263238"/>
<path d="M79.9049 52.0651C79.9049 52.0651 79.8819 52.0323 79.9049 51.9731C79.92 51.9316 79.944 51.8939 79.9753 51.8626C80.0065 51.8314 80.0442 51.8074 80.0857 51.7923C80.1483 51.7646 80.2171 51.7546 80.285 51.7633C80.3528 51.772 80.4169 51.7991 80.4704 51.8416C80.5284 51.9066 80.5625 51.9893 80.5674 52.0762C80.5722 52.1632 80.5474 52.2492 80.497 52.3202C80.4466 52.3912 80.3736 52.443 80.2899 52.4672C80.2063 52.4913 80.1169 52.4863 80.0364 52.4531C79.9798 52.4193 79.9332 52.371 79.9015 52.3132C79.8697 52.2554 79.8539 52.1902 79.8556 52.1243C79.8549 52.0805 79.863 52.037 79.8794 51.9963C79.8957 51.9557 79.9201 51.9187 79.9509 51.8876C80.0003 51.8481 80.0364 51.8481 80.0397 51.8547C80.043 51.8613 79.9509 51.9501 79.974 52.1177C79.9786 52.1609 79.9931 52.2023 80.0165 52.2389C80.0399 52.2754 80.0715 52.306 80.1088 52.3282C80.1549 52.3398 80.2034 52.3372 80.2481 52.3209C80.2927 52.3045 80.3314 52.2751 80.3591 52.2364C80.3868 52.1977 80.4022 52.1516 80.4033 52.104C80.4044 52.0565 80.3911 52.0097 80.3652 51.9698C80.3322 51.9427 80.2931 51.9241 80.2513 51.9155C80.2095 51.9069 80.1662 51.9086 80.1252 51.9205C79.9575 51.9468 79.9279 52.0717 79.9049 52.0651Z" fill="#263238"/>
<path d="M90.6566 48.7677C90.6566 48.7677 90.6566 48.7283 90.7157 48.6954C90.7922 48.657 90.8807 48.6499 90.9623 48.6757C91.0272 48.6933 91.086 48.7284 91.1324 48.777C91.1787 48.8257 91.2109 48.8862 91.2253 48.9518C91.2304 49.0366 91.2068 49.1206 91.1582 49.1903C91.1097 49.26 91.0391 49.3114 90.9578 49.3361C90.8765 49.3607 90.7893 49.3573 90.7102 49.3264C90.6311 49.2955 90.5647 49.2388 90.5218 49.1655C90.4981 49.1022 90.492 49.0335 90.5041 48.967C90.5163 48.9004 90.5462 48.8384 90.5908 48.7874C90.6464 48.7217 90.7254 48.6804 90.8111 48.6724C90.8703 48.6724 90.8999 48.6921 90.8966 48.702C90.8933 48.7118 90.7716 48.7184 90.6895 48.8598C90.6667 48.895 90.6525 48.935 90.6479 48.9767C90.6434 49.0183 90.6486 49.0605 90.6631 49.0998C90.6921 49.1353 90.7309 49.1613 90.7747 49.1746C90.8185 49.188 90.8653 49.1879 90.909 49.1745C90.9528 49.1611 90.9916 49.1349 91.0204 49.0994C91.0492 49.0638 91.0668 49.0204 91.0708 48.9748C91.0621 48.9339 91.0439 48.8956 91.0176 48.8631C90.9913 48.8305 90.9577 48.8046 90.9196 48.7874C90.7749 48.7151 90.673 48.7907 90.6566 48.7677Z" fill="#263238"/>
<path d="M93.0728 38.0066C93.0728 38.0527 89.6141 38.0921 85.3499 38.0921C81.0857 38.0921 77.627 38.0527 77.627 38.0066C77.627 37.9606 81.0824 37.9211 85.3499 37.9211C89.6174 37.9211 93.0728 37.9672 93.0728 38.0066Z" fill="#263238"/>
<path d="M93.0728 40.1599C93.0728 40.2093 89.6141 40.2454 85.3499 40.2454C81.0857 40.2454 77.627 40.2093 77.627 40.1599C77.627 40.1106 81.0824 40.0745 85.3499 40.0745C89.6174 40.0745 93.0728 40.1139 93.0728 40.1599Z" fill="#263238"/>
<path d="M93.0728 42.3072C93.0728 42.3532 89.6141 42.3926 85.3499 42.3926C81.0857 42.3926 77.627 42.3532 77.627 42.3072C77.627 42.2611 81.0824 42.2217 85.3499 42.2217C89.6174 42.2217 93.0728 42.2578 93.0728 42.3072Z" fill="#263238"/>
<path d="M93.0728 44.4505C93.0728 44.4998 89.6141 44.536 85.3499 44.536C81.0857 44.536 77.627 44.4998 77.627 44.4505C77.627 44.4012 81.0824 44.365 85.3499 44.365C89.6174 44.365 93.0728 44.4044 93.0728 44.4505Z" fill="#263238"/>
<path d="M85.8463 34.0908H77.627V34.7845H85.8463V34.0908Z" fill="#263238"/>
<path d="M51.9169 68.5334H43.6975V69.2272H51.9169V68.5334Z" fill="#263238"/>
<path d="M66.1893 72.5545C66.1893 72.6038 61.2018 72.64 55.0504 72.64C48.899 72.64 43.9082 72.6038 43.9082 72.5545C43.9082 72.5052 48.8957 72.469 55.0504 72.469C61.2051 72.469 66.1893 72.5084 66.1893 72.5545Z" fill="#263238"/>
<path d="M66.3211 74.501C66.3211 74.547 61.2448 74.5865 54.9849 74.5865C48.725 74.5865 43.6487 74.547 43.6487 74.501C43.6487 74.455 48.7217 74.4155 54.9849 74.4155C61.2481 74.4155 66.3211 74.4616 66.3211 74.501Z" fill="#263238"/>
<path d="M66.58 76.3355C66.58 76.3815 61.4741 76.421 55.1781 76.421C48.882 76.421 43.7761 76.3815 43.7761 76.3355C43.7761 76.2894 48.882 76.25 55.1781 76.25C61.4741 76.25 66.58 76.2862 66.58 76.3355Z" fill="#263238"/>
<path d="M55.6356 78.2881C55.6356 78.3341 53.0054 78.3736 49.7703 78.3736C46.5351 78.3736 43.9082 78.3341 43.9082 78.2881C43.9082 78.2421 46.5384 78.2026 49.7703 78.2026C53.0021 78.2026 55.6356 78.2421 55.6356 78.2881Z" fill="#263238"/>
<path d="M19.8317 131.51V128.551L14.2655 128.502L14.2195 132.852L14.5483 132.875C16.0836 132.97 22.36 133.249 23.389 132.947C24.5529 132.605 19.8317 131.51 19.8317 131.51Z" fill="#1A377D"/>
<path d="M23.5364 132.674C23.5364 132.727 21.4553 132.77 18.8875 132.77C16.3198 132.77 14.2354 132.727 14.2354 132.674C14.2354 132.622 16.3198 132.579 18.8875 132.579C21.4553 132.579 23.5364 132.622 23.5364 132.674Z" fill="#263238"/>
<path d="M19.9308 132.119C19.8848 132.092 19.9308 131.931 20.0426 131.79C20.1544 131.648 20.3089 131.556 20.3418 131.593C20.3746 131.629 20.3023 131.764 20.1938 131.921C20.0853 132.079 19.9768 132.145 19.9308 132.119Z" fill="#263238"/>
<path d="M20.2856 132.312C20.2363 132.293 20.2626 132.115 20.3711 131.931C20.4796 131.747 20.6243 131.635 20.6637 131.668C20.7032 131.701 20.6374 131.855 20.5355 132.026C20.4336 132.197 20.3349 132.332 20.2856 132.312Z" fill="#263238"/>
<path d="M15.9091 132.654C15.8861 132.671 15.8006 132.592 15.679 132.46C15.5309 132.289 15.3669 132.131 15.1891 131.99C15.0118 131.86 14.8052 131.775 14.5875 131.744C14.4198 131.721 14.3113 131.744 14.3014 131.717C14.2916 131.691 14.3968 131.622 14.5907 131.609C14.8464 131.602 15.0969 131.682 15.3009 131.836C15.4954 131.985 15.6604 132.169 15.7875 132.378C15.8894 132.533 15.9354 132.638 15.9091 132.654Z" fill="#263238"/>
<path d="M19.9466 131.56C19.9729 131.603 19.8743 131.708 19.7164 131.764C19.5586 131.82 19.4173 131.8 19.4107 131.747C19.4041 131.695 19.5126 131.635 19.654 131.586C19.7954 131.537 19.917 131.514 19.9466 131.56Z" fill="#263238"/>
<path d="M19.8548 131.27C19.8548 131.323 19.7102 131.369 19.526 131.372C19.3419 131.376 19.1973 131.333 19.1973 131.28C19.1973 131.228 19.3485 131.185 19.526 131.182C19.7036 131.178 19.8548 131.218 19.8548 131.27Z" fill="#1A377D"/>
<path d="M23.5364 132.674C23.5364 132.727 21.4553 132.77 18.8875 132.77C16.3198 132.77 14.2354 132.727 14.2354 132.674C14.2354 132.622 16.3198 132.579 18.8875 132.579C21.4553 132.579 23.5364 132.622 23.5364 132.674Z" fill="#263238"/>
<path d="M19.9308 132.119C19.8848 132.092 19.9308 131.931 20.0426 131.79C20.1544 131.648 20.3089 131.556 20.3418 131.593C20.3746 131.629 20.3023 131.764 20.1938 131.921C20.0853 132.079 19.9768 132.145 19.9308 132.119Z" fill="#263238"/>
<path d="M20.2856 132.312C20.2363 132.293 20.2626 132.115 20.3711 131.931C20.4796 131.747 20.6243 131.635 20.6637 131.668C20.7032 131.701 20.6374 131.855 20.5355 132.026C20.4336 132.197 20.3349 132.332 20.2856 132.312Z" fill="#263238"/>
<path d="M15.9091 132.654C15.8861 132.671 15.8006 132.592 15.679 132.46C15.5309 132.289 15.3669 132.131 15.1891 131.99C15.0118 131.86 14.8052 131.775 14.5875 131.744C14.4198 131.721 14.3113 131.744 14.3014 131.717C14.2916 131.691 14.3968 131.622 14.5907 131.609C14.8464 131.602 15.0969 131.682 15.3009 131.836C15.4954 131.985 15.6604 132.169 15.7875 132.378C15.8894 132.533 15.9354 132.638 15.9091 132.654Z" fill="#263238"/>
<path d="M19.9466 131.56C19.9729 131.603 19.8743 131.708 19.7164 131.764C19.5586 131.82 19.4173 131.8 19.4107 131.747C19.4041 131.695 19.5126 131.635 19.654 131.586C19.7954 131.537 19.917 131.514 19.9466 131.56Z" fill="#263238"/>
<path d="M19.8548 131.27C19.8548 131.323 19.7102 131.369 19.526 131.372C19.3419 131.376 19.1973 131.333 19.1973 131.28C19.1973 131.228 19.3485 131.185 19.526 131.182C19.7036 131.178 19.8548 131.218 19.8548 131.27Z" fill="#263238"/>
<path d="M25.7037 130.458L26.5815 127.621L21.2751 125.938L19.96 130.077L20.2887 130.202C21.7255 130.747 27.6402 132.871 28.712 132.888C29.889 132.901 25.7037 130.458 25.7037 130.458Z" fill="#1A377D"/>
<path d="M28.899 132.664C28.899 132.717 26.8803 132.141 24.4277 131.379C21.975 130.616 19.999 129.962 20.0155 129.912C20.0319 129.863 22.0309 130.438 24.4868 131.198C26.9428 131.957 28.9154 132.615 28.899 132.664Z" fill="#263238"/>
<path d="M25.6186 131.067C25.5824 131.027 25.6679 130.889 25.8257 130.774C25.9835 130.659 26.1545 130.629 26.1709 130.675C26.1874 130.721 26.0822 130.827 25.9375 130.932C25.7928 131.037 25.6548 131.103 25.6186 131.067Z" fill="#263238"/>
<path d="M25.898 131.359C25.8585 131.326 25.9342 131.162 26.0953 131.03C26.2564 130.899 26.424 130.823 26.4536 130.866C26.4832 130.909 26.3714 131.037 26.2235 131.172C26.0755 131.307 25.9407 131.379 25.898 131.359Z" fill="#263238"/>
<path d="M21.6237 130.392C21.5974 130.392 21.5415 130.303 21.4659 130.139C21.3756 129.932 21.2655 129.734 21.1371 129.547C21.0066 129.371 20.8351 129.229 20.6374 129.133C20.4829 129.064 20.3711 129.051 20.3711 129.025C20.3711 128.998 20.4894 128.959 20.6801 129.005C20.9254 129.074 21.1398 129.225 21.2884 129.432C21.4292 129.631 21.5327 129.854 21.5941 130.09C21.6369 130.267 21.6467 130.392 21.6237 130.392Z" fill="#455A64"/>
<path d="M25.799 130.537C25.799 130.586 25.6873 130.659 25.5196 130.665C25.3519 130.672 25.2204 130.609 25.2303 130.557C25.2401 130.504 25.3651 130.481 25.513 130.475C25.661 130.468 25.7727 130.484 25.799 130.537Z" fill="#263238"/>
<path d="M25.7994 130.238C25.7994 130.287 25.635 130.287 25.4542 130.238C25.2734 130.189 25.1451 130.1 25.1616 130.051C25.178 130.001 25.3358 130.005 25.5068 130.051C25.6778 130.097 25.8126 130.185 25.7994 130.238Z" fill="#263238"/>
<path d="M29.4814 72.7349L22.176 72.1727L11.1094 71.2751L12.3456 130.721L21.9557 130.596C21.9557 130.596 21.9557 129.939 21.9327 128.775L27.5679 130.317C27.5679 130.317 33.0584 111.767 34.9292 104.156C36.4909 97.8139 29.4814 72.7349 29.4814 72.7349ZM21.8275 119.543C21.6828 105.82 21.5151 82.4831 21.7157 79.6293C21.7157 79.6293 27.0682 100.175 27.1175 101.795C27.1503 102.775 24.1683 112.257 21.8275 119.543Z" fill="#455A64"/>
<path d="M22.0088 128.344C22.0088 128.397 19.8586 128.439 17.2087 128.439C14.5588 128.439 12.4053 128.397 12.4053 128.344C12.4053 128.292 14.5555 128.249 17.2087 128.249C19.8619 128.249 22.0088 128.292 22.0088 128.344Z" fill="#455A64"/>
<path d="M21.9229 126.207C22.2234 126.278 22.518 126.373 22.804 126.49L25.0035 127.256L27.203 128.025C27.5141 128.114 27.8157 128.233 28.1038 128.38C27.7827 128.336 27.4666 128.26 27.1603 128.153C26.5882 127.986 25.8024 127.736 24.941 127.437C24.0796 127.137 23.2971 126.842 22.7579 126.615C22.462 126.518 22.181 126.381 21.9229 126.207Z" fill="#455A64"/>
<path d="M30.7271 101.611C30.1327 101.75 29.5257 101.827 28.9155 101.842C28.3104 101.919 27.6989 101.933 27.0908 101.884C27.6848 101.743 28.292 101.665 28.9024 101.651C29.5075 101.574 30.1192 101.56 30.7271 101.611Z" fill="#455A64"/>
<path d="M30.0998 102.69C29.6272 102.65 29.1619 102.548 28.7157 102.387C28.2513 102.286 27.8025 102.123 27.3809 101.904C27.8548 101.94 28.3216 102.041 28.7683 102.203C29.5179 102.42 30.1163 102.637 30.0998 102.69Z" fill="#455A64"/>
<path d="M22.5993 72.2485C22.6435 72.6238 22.6599 73.0018 22.6486 73.3795C22.6486 74.0798 22.6486 75.0464 22.6486 76.1149C22.6486 76.6443 22.6486 77.1506 22.6289 77.6174C22.6409 78.038 22.5624 78.4562 22.3987 78.8438C22.2821 79.1079 22.0957 79.3352 21.8595 79.5013C21.779 79.5681 21.6829 79.6134 21.5801 79.6328C21.5801 79.6328 21.6721 79.5737 21.8201 79.4487C22.0277 79.2708 22.189 79.0452 22.2902 78.7912C22.4273 78.4145 22.4888 78.0146 22.4711 77.6142C22.4711 77.144 22.4711 76.6278 22.4711 76.1084C22.4711 75.0398 22.4974 74.0732 22.5171 73.3762C22.516 72.9988 22.5435 72.6218 22.5993 72.2485Z" fill="#455A64"/>
<path d="M17.0993 71.9128C17.1028 71.961 17.1028 72.0093 17.0993 72.0575C17.0993 72.1627 17.0993 72.3041 17.0993 72.4849C17.0993 72.8663 17.0697 73.4186 17.0467 74.1288C17.0007 75.559 16.9349 77.6138 16.8527 80.1487C16.6982 85.2315 16.5404 92.2575 16.5009 100.013C16.4615 107.769 16.5502 114.808 16.6522 119.888C16.708 122.423 16.7508 124.491 16.7837 125.908C16.7837 126.615 16.81 127.164 16.8198 127.552C16.8198 127.732 16.8198 127.88 16.8198 127.979C16.8234 128.027 16.8234 128.075 16.8198 128.124C16.8163 128.075 16.8163 128.027 16.8198 127.979C16.8198 127.877 16.8198 127.736 16.7968 127.555C16.7968 127.17 16.7607 126.621 16.7311 125.911C16.6752 124.491 16.6094 122.433 16.5437 119.891C16.4089 114.805 16.3037 107.779 16.3431 100.013C16.3826 92.2476 16.5601 85.2184 16.7442 80.1454C16.8363 77.604 16.9218 75.5425 16.9941 74.1255C17.0302 73.4219 17.0598 72.8729 17.0796 72.4816C17.0796 72.3008 17.0993 72.1528 17.1059 72.0542C17.1003 72.0073 17.0981 71.9601 17.0993 71.9128Z" fill="#455A64"/>
<path d="M27.0875 73.4089C27.1075 73.4525 27.124 73.4976 27.1368 73.5437C27.1664 73.6424 27.2092 73.7739 27.2618 73.9448C27.367 74.2966 27.5347 74.8161 27.7188 75.4934C28.0969 76.8446 28.6065 78.8074 29.1753 81.2502C29.744 83.693 30.3753 86.606 31.0328 89.8543C31.6904 93.1026 32.3841 96.6797 33.0055 100.454C33.0844 100.927 33.1567 101.398 33.2192 101.868C33.2192 101.993 33.2422 102.121 33.2422 102.243L33.183 102.591C33.1403 102.825 33.1074 103.058 33.0548 103.285C32.8674 104.199 32.657 105.093 32.4301 105.968C31.983 107.717 31.5096 109.39 31.0427 110.981C30.1156 114.164 29.2213 117.011 28.4618 119.401C27.7023 121.792 27.0678 123.715 26.6207 125.043L26.1012 126.572L25.9598 126.97C25.9476 127.016 25.9299 127.06 25.9072 127.101C25.9158 127.054 25.9279 127.008 25.9434 126.963C25.9763 126.865 26.0157 126.733 26.0683 126.562L26.5582 125.023L28.3467 119.365C29.0898 116.972 29.9709 114.121 30.8915 110.939C31.3518 109.347 31.8219 107.671 32.269 105.925C32.4926 105.054 32.703 104.163 32.8904 103.252C32.943 103.025 32.9726 102.795 33.0121 102.565L33.0712 102.22C33.0712 102.108 33.0548 101.999 33.0482 101.891C32.9858 101.427 32.9167 100.957 32.8378 100.487C32.2131 96.7159 31.5227 93.1388 30.8652 89.8905C30.2076 86.6422 29.6125 83.7062 29.0602 81.2765C28.5078 78.8469 28.0114 76.8644 27.653 75.5098C27.4821 74.8325 27.3242 74.3098 27.2289 73.9547L27.1204 73.5503C27.1043 73.5045 27.0932 73.4571 27.0875 73.4089Z" fill="#455A64"/>
<path d="M21.798 118.336C21.8245 118.489 21.8344 118.645 21.8276 118.8C21.8276 119.129 21.8276 119.559 21.8441 120.069C21.8441 121.17 21.8835 122.634 21.9065 124.248C21.9295 125.862 21.992 127.325 22.0216 128.427C22.0216 128.936 22.0479 129.364 22.0578 129.696C22.0726 129.85 22.0726 130.005 22.0578 130.159C22.0215 130.008 22.0016 129.854 21.9986 129.699C21.9723 129.4 21.9427 128.969 21.9098 128.433C21.8441 127.365 21.7816 125.885 21.7454 124.251C21.7093 122.617 21.7158 121.138 21.7454 120.069C21.7454 119.533 21.7684 119.083 21.7816 118.8C21.7749 118.645 21.7804 118.49 21.798 118.336Z" fill="#455A64"/>
<path d="M29.4814 72.7349L22.176 72.1727L11.1094 71.2751L12.3456 130.721L21.9557 130.596C21.9557 130.596 21.9557 129.939 21.9327 128.775L27.5679 130.317C27.5679 130.317 33.0584 111.767 34.9292 104.156C36.4909 97.8139 29.4814 72.7349 29.4814 72.7349ZM21.8275 119.543C21.6828 105.82 21.5151 82.4831 21.7157 79.6293C21.7157 79.6293 27.0682 100.175 27.1175 101.795C27.1503 102.775 24.1683 112.257 21.8275 119.543Z" fill="#263238"/>
<path d="M22.0088 128.344C22.0088 128.397 19.8586 128.439 17.2087 128.439C14.5588 128.439 12.4053 128.397 12.4053 128.344C12.4053 128.292 14.5555 128.249 17.2087 128.249C19.8619 128.249 22.0088 128.292 22.0088 128.344Z" fill="#455A64"/>
<path d="M21.9229 126.207C22.2234 126.278 22.518 126.373 22.804 126.49L25.0035 127.256L27.203 128.025C27.5141 128.114 27.8157 128.233 28.1038 128.38C27.7827 128.336 27.4666 128.26 27.1603 128.153C26.5882 127.986 25.8024 127.736 24.941 127.437C24.0796 127.137 23.2971 126.842 22.7579 126.615C22.462 126.518 22.181 126.381 21.9229 126.207Z" fill="#455A64"/>
<path d="M30.7271 101.611C30.1327 101.75 29.5257 101.827 28.9155 101.842C28.3104 101.919 27.6989 101.933 27.0908 101.884C27.6848 101.743 28.292 101.665 28.9024 101.651C29.5075 101.574 30.1192 101.56 30.7271 101.611Z" fill="#455A64"/>
<path d="M30.0998 102.69C29.6272 102.65 29.1619 102.548 28.7157 102.387C28.2513 102.286 27.8025 102.123 27.3809 101.904C27.8548 101.94 28.3216 102.041 28.7683 102.203C29.5179 102.42 30.1163 102.637 30.0998 102.69Z" fill="#455A64"/>
<path d="M22.5993 72.2485C22.6435 72.6238 22.6599 73.0018 22.6486 73.3795C22.6486 74.0798 22.6486 75.0464 22.6486 76.1149C22.6486 76.6443 22.6486 77.1506 22.6289 77.6174C22.6409 78.038 22.5624 78.4562 22.3987 78.8438C22.2821 79.1079 22.0957 79.3352 21.8595 79.5013C21.779 79.5681 21.6829 79.6134 21.5801 79.6328C21.5801 79.6328 21.6721 79.5737 21.8201 79.4487C22.0277 79.2708 22.189 79.0452 22.2902 78.7912C22.4273 78.4145 22.4888 78.0146 22.4711 77.6142C22.4711 77.144 22.4711 76.6278 22.4711 76.1084C22.4711 75.0398 22.4974 74.0732 22.5171 73.3762C22.516 72.9988 22.5435 72.6218 22.5993 72.2485Z" fill="#455A64"/>
<path d="M17.0993 71.9128C17.1028 71.961 17.1028 72.0093 17.0993 72.0575C17.0993 72.1627 17.0993 72.3041 17.0993 72.4849C17.0993 72.8663 17.0697 73.4186 17.0467 74.1288C17.0007 75.559 16.9349 77.6138 16.8527 80.1487C16.6982 85.2315 16.5404 92.2575 16.5009 100.013C16.4615 107.769 16.5502 114.808 16.6522 119.888C16.708 122.423 16.7508 124.491 16.7837 125.908C16.7837 126.615 16.81 127.164 16.8198 127.552C16.8198 127.732 16.8198 127.88 16.8198 127.979C16.8234 128.027 16.8234 128.075 16.8198 128.124C16.8163 128.075 16.8163 128.027 16.8198 127.979C16.8198 127.877 16.8198 127.736 16.7968 127.555C16.7968 127.17 16.7607 126.621 16.7311 125.911C16.6752 124.491 16.6094 122.433 16.5437 119.891C16.4089 114.805 16.3037 107.779 16.3431 100.013C16.3826 92.2476 16.5601 85.2184 16.7442 80.1454C16.8363 77.604 16.9218 75.5425 16.9941 74.1255C17.0302 73.4219 17.0598 72.8729 17.0796 72.4816C17.0796 72.3008 17.0993 72.1528 17.1059 72.0542C17.1003 72.0073 17.0981 71.9601 17.0993 71.9128Z" fill="#455A64"/>
<path d="M27.0875 73.4089C27.1075 73.4525 27.124 73.4976 27.1368 73.5437C27.1664 73.6424 27.2092 73.7739 27.2618 73.9448C27.367 74.2966 27.5347 74.8161 27.7188 75.4934C28.0969 76.8446 28.6065 78.8074 29.1753 81.2502C29.744 83.693 30.3753 86.606 31.0328 89.8543C31.6904 93.1026 32.3841 96.6797 33.0055 100.454C33.0844 100.927 33.1567 101.398 33.2192 101.868C33.2192 101.993 33.2422 102.121 33.2422 102.243L33.183 102.591C33.1403 102.825 33.1074 103.058 33.0548 103.285C32.8674 104.199 32.657 105.093 32.4301 105.968C31.983 107.717 31.5096 109.39 31.0427 110.981C30.1156 114.164 29.2213 117.011 28.4618 119.401C27.7023 121.792 27.0678 123.715 26.6207 125.043L26.1012 126.572L25.9598 126.97C25.9476 127.016 25.9299 127.06 25.9072 127.101C25.9158 127.054 25.9279 127.008 25.9434 126.963C25.9763 126.865 26.0157 126.733 26.0683 126.562L26.5582 125.023L28.3467 119.365C29.0898 116.972 29.9709 114.121 30.8915 110.939C31.3518 109.347 31.8219 107.671 32.269 105.925C32.4926 105.054 32.703 104.163 32.8904 103.252C32.943 103.025 32.9726 102.795 33.0121 102.565L33.0712 102.22C33.0712 102.108 33.0548 101.999 33.0482 101.891C32.9858 101.427 32.9167 100.957 32.8378 100.487C32.2131 96.7159 31.5227 93.1388 30.8652 89.8905C30.2076 86.6422 29.6125 83.7062 29.0602 81.2765C28.5078 78.8469 28.0114 76.8644 27.653 75.5098C27.4821 74.8325 27.3242 74.3098 27.2289 73.9547L27.1204 73.5503C27.1043 73.5045 27.0932 73.4571 27.0875 73.4089Z" fill="#455A64"/>
<path d="M21.798 118.336C21.8245 118.489 21.8344 118.645 21.8276 118.8C21.8276 119.129 21.8276 119.559 21.8441 120.069C21.8441 121.17 21.8835 122.634 21.9065 124.248C21.9295 125.862 21.992 127.325 22.0216 128.427C22.0216 128.936 22.0479 129.364 22.0578 129.696C22.0726 129.85 22.0726 130.005 22.0578 130.159C22.0215 130.008 22.0016 129.854 21.9986 129.699C21.9723 129.4 21.9427 128.969 21.9098 128.433C21.8441 127.365 21.7816 125.885 21.7454 124.251C21.7093 122.617 21.7158 121.138 21.7454 120.069C21.7454 119.533 21.7684 119.083 21.7816 118.8C21.7749 118.645 21.7804 118.49 21.798 118.336Z" fill="#455A64"/>
<path d="M16.896 44.2037L22.4852 44.618C22.5608 43.9604 22.6693 41.4584 22.6693 41.4584C22.6693 41.4584 25.0003 41.2447 25.1712 38.9367C25.3422 36.6287 25.2699 31.2993 25.2699 31.2993C23.9921 30.6534 22.5649 30.3607 21.136 30.4515C19.7071 30.5422 18.3284 31.0131 17.1425 31.8154L16.7842 32.0587L16.896 44.2037Z" fill="#E5BAAB"/>
<path d="M24.4742 35.2349C24.4299 35.1883 24.4003 35.1297 24.3889 35.0664C24.3776 35.0031 24.3851 34.9379 24.4105 34.8788C24.4358 34.8197 24.478 34.7693 24.5317 34.7339C24.5854 34.6985 24.6483 34.6797 24.7126 34.6797C24.7769 34.6797 24.8398 34.6985 24.8935 34.7339C24.9472 34.7693 24.9893 34.8197 25.0147 34.8788C25.04 34.9379 25.0475 35.0031 25.0362 35.0664C25.0249 35.1297 24.9952 35.1883 24.9509 35.2349C24.9202 35.2672 24.8832 35.293 24.8423 35.3106C24.8013 35.3282 24.7572 35.3372 24.7126 35.3372C24.668 35.3372 24.6238 35.3282 24.5829 35.3106C24.5419 35.293 24.5049 35.2672 24.4742 35.2349Z" fill="#263238"/>
<path d="M25.0658 34.7414C25.0264 34.7809 24.8127 34.5935 24.4938 34.5705C24.1748 34.5475 23.9348 34.6987 23.902 34.656C23.8691 34.6132 23.925 34.5672 24.0335 34.4981C24.1733 34.4063 24.3402 34.3645 24.5069 34.3798C24.6748 34.3898 24.8346 34.4558 24.9606 34.5672C25.056 34.6494 25.0855 34.7184 25.0658 34.7414Z" fill="#263238"/>
<path d="M21.3833 34.794C21.4354 34.832 21.4751 34.8845 21.4976 34.945C21.52 35.0054 21.5242 35.0711 21.5096 35.1339C21.495 35.1967 21.4623 35.2538 21.4155 35.2982C21.3687 35.3425 21.3099 35.3721 21.2464 35.3833C21.1829 35.3945 21.1175 35.3867 21.0584 35.361C20.9992 35.3353 20.949 35.2928 20.9138 35.2388C20.8786 35.1848 20.8601 35.1216 20.8606 35.0571C20.8611 34.9926 20.8805 34.9297 20.9164 34.8762C20.9411 34.8394 20.973 34.8081 21.0101 34.7839C21.0472 34.7598 21.0888 34.7434 21.1324 34.7357C21.176 34.728 21.2207 34.7292 21.2638 34.7392C21.3069 34.7493 21.3475 34.7679 21.3833 34.794Z" fill="#263238"/>
<path d="M21.5939 34.8109C21.5545 34.8471 21.3408 34.6597 21.0219 34.6367C20.7029 34.6137 20.4629 34.7682 20.4301 34.7255C20.3972 34.6827 20.4531 34.6334 20.5583 34.5644C20.7008 34.4758 20.8676 34.4344 21.035 34.446C21.2024 34.4582 21.3615 34.5239 21.4887 34.6334C21.5841 34.7189 21.6136 34.7945 21.5939 34.8109Z" fill="#263238"/>
<path d="M22.7088 37.5134C22.877 37.4614 23.0523 37.4359 23.2283 37.4378C23.3138 37.4378 23.3828 37.4213 23.3927 37.3753C23.401 37.2904 23.385 37.2049 23.3466 37.1287L23.1362 36.4712C22.9338 35.909 22.7852 35.3288 22.6924 34.7385C22.9471 35.2783 23.1508 35.8408 23.3006 36.4186L23.4979 37.0761C23.5454 37.1849 23.5546 37.3066 23.5242 37.4213C23.5104 37.4521 23.4895 37.4792 23.4632 37.5003C23.4369 37.5215 23.406 37.5361 23.3729 37.543C23.326 37.5491 23.2785 37.5491 23.2316 37.543C23.0569 37.5611 22.8804 37.5511 22.7088 37.5134Z" fill="#263238"/>
<path d="M21.6532 37.7992C21.3245 37.5822 22.5344 38.3417 23.1853 38.3516C23.0671 38.5118 22.8979 38.627 22.7055 38.6784C22.5132 38.7298 22.309 38.7142 22.1267 38.6343C21.4494 38.3351 21.6532 37.7992 21.6532 37.7992Z" fill="white"/>
<path d="M22.6562 41.4256C21.5887 41.3805 20.5587 41.0189 19.6973 40.3867C19.6973 40.3867 20.3055 42.0931 22.6234 42.0306L22.6562 41.4256Z" fill="#D78776"/>
<path d="M17.2245 34.1071C17.1719 34.0873 15.5083 33.8704 15.6661 35.8364C15.8239 37.8025 17.7571 36.9904 17.7538 36.9345C17.7505 36.8787 17.2245 34.1071 17.2245 34.1071Z" fill="#E5BAAB"/>
<path d="M17.0797 36.2937C17.0797 36.2937 17.0501 36.32 16.9942 36.3529C16.9151 36.3935 16.8235 36.4029 16.7378 36.3792C16.6047 36.3082 16.4926 36.2033 16.413 36.0752C16.3333 35.947 16.2888 35.8001 16.2841 35.6493C16.2659 35.4815 16.2862 35.3117 16.3432 35.1529C16.3564 35.09 16.3845 35.0312 16.4251 34.9814C16.4657 34.9316 16.5177 34.8923 16.5767 34.8668C16.6155 34.8543 16.6574 34.8553 16.6956 34.8696C16.7338 34.884 16.7661 34.9108 16.7871 34.9457C16.8167 34.9983 16.8101 35.0378 16.82 35.0411C16.8298 35.0444 16.8594 35.0049 16.82 34.926C16.8063 34.8777 16.776 34.8358 16.7345 34.8077C16.6762 34.773 16.607 34.7612 16.5405 34.7748C16.4622 34.797 16.3909 34.8388 16.3333 34.8964C16.2758 34.9539 16.2339 35.0252 16.2117 35.1036C16.1408 35.2796 16.1148 35.4706 16.1361 35.6592C16.1398 35.8348 16.1954 36.0054 16.2961 36.1494C16.3968 36.2934 16.5379 36.4042 16.7016 36.468C16.7555 36.4793 16.8112 36.4784 16.8647 36.4653C16.9182 36.4522 16.9681 36.4273 17.0107 36.3924C17.0797 36.343 17.0896 36.297 17.0797 36.2937Z" fill="#D78776"/>
<path d="M25.418 30.4676C25.5511 30.464 25.6816 30.4299 25.7993 30.3678C25.9171 30.3058 26.019 30.2175 26.0972 30.1098C26.1754 30.002 26.2278 29.8778 26.2503 29.7466C26.2728 29.6154 26.2648 29.4808 26.227 29.3531C26.1891 29.2255 26.1224 29.1083 26.0321 29.0106C25.9417 28.9128 25.83 28.8372 25.7058 28.7895C25.5815 28.7418 25.4479 28.7234 25.3153 28.7356C25.1828 28.7478 25.0548 28.7903 24.9413 28.8598C25.2162 28.6316 25.4403 28.3482 25.5989 28.028C25.6756 27.8665 25.7009 27.6854 25.6715 27.5091C25.6421 27.3327 25.5594 27.1696 25.4345 27.0417C25.2898 26.946 25.1224 26.8901 24.9492 26.8797C24.7761 26.8693 24.6032 26.9048 24.4481 26.9825C23.9583 27.1929 23.5703 27.6072 23.0673 27.7815C22.5643 27.9557 22.002 27.8702 21.4629 27.8932C20.8578 27.904 20.2719 28.1066 19.7894 28.4719C19.3783 28.7949 19.1122 29.2679 19.0496 29.787C18.985 29.6983 18.9136 29.6147 18.8359 29.5371C18.5802 29.2319 18.2353 29.0146 17.8496 28.9157C17.8266 28.9585 18.277 29.2083 18.7077 29.6555C18.825 29.7677 18.9348 29.8874 19.0365 30.0138C18.2869 29.9218 17.4616 29.9152 16.8699 30.3821C16.6301 30.5958 16.4406 30.8599 16.315 31.1555C16.1894 31.4511 16.1307 31.7708 16.1433 32.0917C16.1433 32.7295 16.4063 33.3378 16.5937 33.9493C16.639 34.1225 16.7171 34.2855 16.8238 34.4293L17.1066 36.0732L18.1356 36.0534L18.0699 32.6046C18.0699 32.6046 17.9647 31.1514 19.214 31.2895C20.4634 31.4276 22.173 32.8249 24.5994 32.4698C24.9975 32.4476 25.3854 32.3352 25.7337 32.141C25.9022 32.0342 26.0392 31.8844 26.1306 31.707C26.2219 31.5295 26.2642 31.3309 26.2531 31.1317C26.2292 30.9334 26.1281 30.7526 25.9718 30.6283C25.8155 30.504 25.6166 30.4462 25.418 30.4676Z" fill="#263238"/>
<path d="M46.327 47.4885L46.4782 46.443C46.6328 45.8711 46.7297 45.2851 46.7675 44.6939C46.7923 44.4 46.7656 44.1041 46.6886 43.8194C46.6111 43.461 46.4827 43.1156 46.3072 42.7936C46.1166 42.5141 46.3664 42.136 46.636 42.2511C46.9056 42.3662 47.4678 43.1092 47.6486 44.181C47.8295 45.2528 48.6744 43.7668 48.9901 43.2309C49.3057 42.6949 50.3676 41.0807 50.6109 41.0478C50.966 40.9985 51.0844 41.3766 50.7523 41.8993C50.4202 42.4221 49.5457 44.0824 49.8383 44.2336C50.0574 44.1986 50.2814 44.2098 50.4958 44.2665C50.5304 44.2766 50.561 44.2973 50.5834 44.3255C50.6058 44.3538 50.6188 44.3883 50.6208 44.4243C50.6196 44.5902 50.6372 44.7556 50.6734 44.9175C50.6734 44.9175 51.1041 44.8188 51.1929 45.0062C51.2529 45.1987 51.2807 45.3998 51.275 45.6013C51.275 45.6013 51.6038 45.4895 51.7616 45.6013C52.0904 45.8676 51.6696 46.3246 51.6696 46.3246C50.7015 47.4794 49.6616 48.572 48.5561 49.5959L46.2908 47.4129" fill="#E5BAAB"/>
<path d="M50.5433 44.9896C50.4466 45.1928 50.3166 45.3784 50.1586 45.5386C50.0271 45.6964 49.8627 45.8674 49.6688 46.0745C49.5676 46.1821 49.4576 46.2811 49.34 46.3704C49.2675 46.428 49.1801 46.4636 49.088 46.4729C48.9959 46.4822 48.9031 46.4649 48.8205 46.423C48.7755 46.3966 48.7374 46.3599 48.7094 46.3159C48.6814 46.2719 48.6643 46.2218 48.6594 46.1699C48.6528 46.0772 48.6734 45.9847 48.7186 45.9036C48.7996 45.7815 48.8874 45.664 48.9816 45.5518C49.1493 45.3414 49.2874 45.1441 49.4025 44.9731C49.5128 44.7798 49.6393 44.5962 49.7805 44.4241C49.7258 44.6428 49.6322 44.8499 49.5044 45.0356C49.3849 45.247 49.2532 45.4512 49.1098 45.6471C49.0226 45.752 48.9413 45.8618 48.8666 45.9759C48.8074 46.0844 48.8107 46.2192 48.906 46.2685C48.9597 46.2911 49.0184 46.2991 49.0762 46.2916C49.1339 46.2841 49.1887 46.2614 49.2348 46.2258C49.3439 46.1432 49.4472 46.0531 49.5438 45.9562C49.7411 45.772 49.9121 45.5978 50.0534 45.4499C50.2007 45.2802 50.3648 45.126 50.5433 44.9896Z" fill="#D78776"/>
<path d="M51.1182 45.6636C51.0215 45.839 50.8972 45.9978 50.75 46.1337C50.6015 46.2928 50.4399 46.4391 50.2667 46.571C50.1628 46.6496 50.0529 46.7199 49.9379 46.7814C49.8697 46.8156 49.7964 46.8389 49.721 46.8504C49.6752 46.8579 49.6285 46.8556 49.5837 46.8437C49.5389 46.8318 49.4972 46.8105 49.4612 46.7814C49.4005 46.7186 49.3621 46.6376 49.352 46.5508C49.3419 46.4641 49.3607 46.3764 49.4053 46.3014C49.4719 46.1842 49.5501 46.0741 49.6388 45.9726C49.7834 45.8049 49.9182 45.6438 50.053 45.4827C50.293 45.2066 50.4508 45.0455 50.4706 45.0586C50.3838 45.2391 50.2732 45.4072 50.1418 45.5583L49.7736 46.0811C49.6959 46.1741 49.6255 46.2731 49.5631 46.377C49.5378 46.4189 49.5261 46.4677 49.5296 46.5166C49.5331 46.5655 49.5517 46.612 49.5829 46.6499C49.642 46.7058 49.767 46.6828 49.8755 46.6302C49.9834 46.5743 50.0877 46.5117 50.1878 46.4428C50.3586 46.3209 50.5222 46.1891 50.6777 46.0482C50.8084 45.9026 50.9563 45.7734 51.1182 45.6636Z" fill="#D78776"/>
<path d="M51.2526 46.6038C51.2691 46.6038 51.2526 46.7518 51.0981 46.9326C51.0513 46.9886 50.9937 47.0346 50.9287 47.0679C50.8638 47.1012 50.7928 47.1212 50.72 47.1266C50.6259 47.1274 50.5343 47.096 50.4603 47.0378C50.4195 47.0036 50.3869 46.9609 50.3647 46.9125C50.3425 46.8642 50.3314 46.8115 50.3321 46.7583C50.3581 46.5908 50.426 46.4325 50.5293 46.298C50.5987 46.1895 50.6744 46.0852 50.7562 45.9857C50.8976 45.8147 50.9995 45.726 51.0192 45.7424C51.0389 45.7589 50.9666 45.8706 50.8548 46.0712C50.7891 46.1863 50.7233 46.2915 50.6641 46.4C50.5849 46.5159 50.5301 46.6468 50.503 46.7846C50.5056 46.8405 50.5295 46.8932 50.57 46.9317C50.6104 46.9703 50.6641 46.9918 50.72 46.9918C50.8291 46.9883 50.9332 46.945 51.0126 46.8701C51.1606 46.7123 51.2296 46.5907 51.2526 46.6038Z" fill="#D78776"/>
<path d="M46.0816 46.1304C46.0816 46.1304 37.4578 54.6161 36.2479 54.6786C34.867 54.7443 30.6192 48.7212 30.6192 48.7212C27.9003 44.526 24.3133 43.8487 23.0048 43.7435V43.224L16.5772 42.698C16.5772 42.698 16.5772 43.2503 16.5772 43.7336H13.7399C13.7399 43.7336 8.64386 43.5002 7.8811 50.3453L11.5437 53.2418L13.0462 58.831C13.5689 60.7774 11.7015 63.8777 10.8105 68.8981C10.6731 69.7351 10.8128 70.594 11.2083 71.3442L29.7677 73.478L28.7814 59.288L28.4822 56.0003C30.011 58.088 32.7563 61.0404 36.1197 60.9746C41.8568 60.8661 49.8263 48.8099 49.8263 48.8099L46.0816 46.1304Z" fill="#E0E0E0"/>
<path d="M20.8408 43.1321C20.8727 43.4238 20.8727 43.7182 20.8408 44.0099C20.7929 44.7403 20.694 45.4665 20.5449 46.1831L20.5219 46.2916L20.4233 46.239C20.1997 46.1207 19.9663 45.9957 19.7296 45.8576C18.809 45.3152 18.0232 44.7562 17.4281 44.3683C17.1069 44.1728 16.7973 43.9587 16.501 43.7272C16.5994 43.7559 16.6934 43.7979 16.7804 43.8521C16.9514 43.9474 17.198 44.0855 17.4939 44.2664C18.0923 44.628 18.8879 45.1738 19.7953 45.7097C20.0255 45.8445 20.2556 45.9727 20.4792 46.0911L20.3575 46.147C20.5482 45.2987 20.6403 44.5392 20.7093 44C20.7355 43.7083 20.7794 43.4185 20.8408 43.1321Z" fill="#FAFAFA"/>
<path d="M23.0246 43.7798C22.9833 44.0622 22.9218 44.3413 22.8405 44.6149C22.778 44.8746 22.7123 45.1836 22.6005 45.519C22.5423 45.6963 22.4731 45.8698 22.3934 46.0385C22.3704 46.0989 22.329 46.1507 22.275 46.1864C22.2376 46.2094 22.1934 46.219 22.1498 46.2136C22.1062 46.2082 22.0657 46.1882 22.035 46.1568C21.9734 46.066 21.9237 45.9677 21.887 45.8642C21.5583 45.1179 21.2985 44.4406 21.1078 43.9442C20.9879 43.6841 20.8964 43.4118 20.835 43.1321C20.9885 43.3739 21.1174 43.6305 21.2196 43.8981C21.4399 44.3814 21.7325 45.0521 22.0449 45.7985C22.0752 45.8815 22.1126 45.9618 22.1566 46.0385C22.1731 46.0385 22.1566 46.0385 22.1862 46.0385C22.211 46.0184 22.2302 45.9924 22.2421 45.9628C22.3208 45.8011 22.391 45.6354 22.4525 45.4664C22.5676 45.1376 22.6465 44.8351 22.7221 44.582C22.7875 44.3025 22.8892 44.0328 23.0246 43.7798Z" fill="#FAFAFA"/>
<path d="M21.8275 66.7413C21.8118 66.6644 21.803 66.5863 21.8012 66.5078C21.8012 66.3369 21.7881 66.1177 21.7617 65.8503C21.7354 65.2453 21.696 64.407 21.65 63.3779C21.5711 61.2737 21.4593 58.3969 21.3409 55.221C21.2226 52.045 21.1469 49.1682 21.0812 47.064C21.0582 46.0317 21.0384 45.1933 21.022 44.5884C21.022 44.3122 21.022 44.0886 21.022 43.9308C21.0135 43.8521 21.0135 43.7728 21.022 43.6941C21.0372 43.771 21.0449 43.8492 21.045 43.9275C21.045 44.0985 21.0713 44.3221 21.0878 44.5851C21.1141 45.1867 21.1535 46.0251 21.1995 47.0542C21.2784 49.1583 21.3869 52.0351 21.5086 55.2111C21.6302 58.3871 21.6993 61.2639 21.7683 63.3713C21.7913 64.4004 21.8111 65.2388 21.8275 65.8437C21.8275 66.1232 21.8275 66.3467 21.8275 66.5177C21.8352 66.592 21.8352 66.6669 21.8275 66.7413Z" fill="#F5F5F5"/>
<path d="M20.6562 45.2095L21.1954 46.6956L21.659 45.101L20.939 43.5032L20.6562 45.2095Z" fill="#1A377D"/>
<path d="M21.2945 46.252L20.9395 62.9801L23.4644 68.2602L24.4606 62.3192L21.2945 46.252Z" fill="#1A377D"/>
<path d="M36.3399 56.7467C36.3399 56.7467 36.3399 56.796 36.3399 56.8782L36.3201 57.0031L36.2642 56.8782C36.137 56.5457 36.0637 56.1949 36.0472 55.8393C35.9929 55.4426 36.0404 55.0387 36.1853 54.6655C36.2346 54.6655 36.1853 55.1916 36.2182 55.8294C36.2445 56.2831 36.3168 56.6711 36.3399 56.8585H36.2642C36.2938 56.7697 36.3267 56.7467 36.3399 56.7467Z" fill="#FAFAFA"/>
<path d="M37.0787 56.6909C36.8335 56.4336 36.6512 56.1231 36.5461 55.7835C36.3879 55.47 36.3014 55.1252 36.293 54.7742C36.4603 55.0799 36.5969 55.4015 36.7007 55.7342C36.8574 56.0401 36.9841 56.3605 37.0787 56.6909Z" fill="#FAFAFA"/>
<path d="M49.2872 49.6089C48.5762 49.2328 47.8928 48.8065 47.2423 48.3333C46.5606 47.9078 45.9102 47.4343 45.2959 46.9163C46.0067 47.2954 46.69 47.7239 47.3409 48.1985C48.0223 48.6219 48.6727 49.0932 49.2872 49.6089Z" fill="#FAFAFA"/>
<path d="M13.4408 52.295C13.4408 52.295 12.0731 61.8295 12.7208 62.3621C16.2979 65.3704 21.269 66.9485 23.0443 67.445C23.3041 67.3825 23.6066 67.3003 23.9551 67.1885C24.2571 67.0926 24.5407 66.9458 24.7934 66.7545C25.1162 66.5281 25.4061 66.2582 25.6548 65.9523C25.6924 65.8867 25.7494 65.8344 25.818 65.8026C25.8866 65.7707 25.9634 65.761 26.0377 65.7747C26.1121 65.7885 26.1804 65.8249 26.2331 65.8791C26.2858 65.9333 26.3204 66.0025 26.3321 66.0773C26.3485 66.406 25.8225 67.251 24.8329 67.8691C24.8329 67.8691 27.1113 71.5349 27.8379 71.867C28.5645 72.1991 30.6424 73.1328 30.2906 73.3103C29.9388 73.4879 27.4105 72.7547 27.4105 72.7547L22.2816 71.3837C22.2816 71.3837 5.31675 68.7239 6.44445 60.9418C7.13817 56.1712 7.89435 51.8741 8.16724 50.7859L13.4408 52.295Z" fill="#E5BAAB"/>
<path d="M7.88054 50.3423L6.37475 60.7349C6.02296 63.9339 8.16658 66.4753 11.0499 67.9055C15.4391 70.0787 21.9554 71.6305 21.8995 71.6206C21.8436 71.6108 22.3401 66.9816 22.3401 66.9816C22.3401 66.9816 13.2034 63.0363 12.9174 61.3267C12.6314 59.617 14.078 52.5155 14.078 52.5155L7.88054 50.3423Z" fill="#E0E0E0"/>
<path d="M21.8861 71.6204C21.8826 71.5931 21.8826 71.5655 21.8861 71.5382C21.8861 71.4724 21.8861 71.3935 21.9025 71.2982C21.919 71.0713 21.942 70.7656 21.9748 70.3743C22.0439 69.5589 22.1458 68.4017 22.2675 66.9781L22.3036 67.0372L17.7008 64.8114L16.3857 64.1539C15.9418 63.9172 15.4947 63.6574 15.0508 63.3714C14.6005 63.0807 14.1679 62.7635 13.7554 62.4212C13.5483 62.247 13.3412 62.0629 13.1439 61.8689C13.0327 61.7712 12.9431 61.6514 12.8809 61.5171C12.846 61.452 12.8206 61.3822 12.8053 61.31C12.7837 61.2413 12.7683 61.1709 12.7593 61.0995C12.6113 59.962 12.9138 58.8902 13.088 57.8677C13.2623 56.8452 13.4365 55.849 13.6009 54.9087C13.9297 53.0215 14.2289 51.325 14.4788 49.8916C14.6137 49.2566 14.6907 48.6106 14.7089 47.9617C14.7152 47.4734 14.6142 46.9896 14.413 46.5446C14.2839 46.2639 14.1007 46.0114 13.8738 45.8016C13.716 45.6602 13.6207 45.6043 13.6239 45.5945C13.7217 45.6437 13.8134 45.7044 13.8968 45.7753C14.1382 45.979 14.3342 46.231 14.4722 46.5151C14.688 46.9668 14.8003 47.461 14.801 47.9617C14.7936 48.6166 14.7243 49.2694 14.5938 49.9113C14.3538 51.3481 14.0678 53.0478 13.7522 54.9383C13.5911 55.8819 13.4234 56.8748 13.2491 57.8973C13.2064 58.1537 13.1604 58.4134 13.1143 58.6765C13.0683 58.9395 13.019 59.1959 12.9828 59.459C12.8964 59.9905 12.882 60.5313 12.9401 61.0667C12.9505 61.1321 12.9648 61.1969 12.9828 61.2606C12.9958 61.3238 13.0179 61.3847 13.0486 61.4415C13.1027 61.5576 13.1812 61.6608 13.2787 61.7439C13.4727 61.9346 13.6733 62.1155 13.8771 62.2864C14.2841 62.6253 14.7112 62.9393 15.156 63.2267C15.5933 63.5128 16.0339 63.7692 16.4711 64.0059L17.7862 64.6635L22.3529 66.9386L22.3891 66.9583V66.9978C22.2412 68.4214 22.1228 69.5754 22.0406 70.3907C21.9946 70.7787 21.9617 71.0877 21.9354 71.3113C21.9222 71.4078 21.9124 71.4867 21.9058 71.548C21.9016 71.5727 21.895 71.5969 21.8861 71.6204Z" fill="#FAFAFA"/>
<path d="M21.0381 66.3469C21.0479 66.585 21.0291 66.8234 20.9822 67.0571C20.9263 67.4911 20.8343 68.0894 20.7126 68.747C20.591 69.4045 20.4529 69.9963 20.3411 70.4205C20.296 70.6543 20.2197 70.881 20.1143 71.0945C20.1257 70.8568 20.1621 70.621 20.2228 70.3909C20.3192 69.8955 20.4288 69.3366 20.5515 68.7141C20.6666 67.9161 20.8291 67.1256 21.0381 66.3469Z" fill="#FAFAFA"/>
<path d="M21.8867 71.6204C21.832 71.6201 21.7776 71.6113 21.7256 71.5941L21.2752 71.4856L19.6313 71.0516C18.2406 70.6768 16.3074 70.1837 14.2361 69.4242C13.2614 69.0677 12.3123 68.6448 11.3955 68.1584C10.6465 67.76 9.93174 67.3003 9.25846 66.7841C8.80418 66.4364 8.37565 66.0562 7.97624 65.6466C7.83486 65.5019 7.73294 65.3868 7.64746 65.3178C7.60832 65.279 7.57508 65.2347 7.54883 65.1863C7.54883 65.1863 7.71322 65.3408 8.00911 65.6137C8.42595 66.0017 8.86507 66.3651 9.32422 66.7019C10.0041 67.191 10.7183 67.6305 11.4613 68.017C12.3758 68.4922 13.3203 68.9074 14.2887 69.2598C16.3469 70.016 18.2768 70.5256 19.6576 70.9333L21.3015 71.4166L21.7454 71.5579C21.795 71.5726 21.8425 71.5936 21.8867 71.6204Z" fill="#FAFAFA"/>
<path d="M21.9989 67.4579C22.0008 67.5167 21.9852 67.5747 21.9541 67.6246C21.9229 67.6744 21.8776 67.7139 21.8239 67.7379C21.7703 67.7619 21.7107 67.7694 21.6527 67.7593C21.5948 67.7493 21.5411 67.7223 21.4986 67.6816C21.4561 67.641 21.4267 67.5887 21.4141 67.5312C21.4015 67.4738 21.4063 67.4139 21.4279 67.3592C21.4494 67.3045 21.4868 67.2575 21.5352 67.2241C21.5836 67.1908 21.6409 67.1726 21.6997 67.1719C21.777 67.171 21.8517 67.2004 21.9076 67.2539C21.9635 67.3074 21.9963 67.3806 21.9989 67.4579Z" fill="#FAFAFA"/>
</svg>
