<svg width="393" height="293" viewBox="0 0 393 293" fill="none" xmlns="http://www.w3.org/2000/svg">
<path d="M353.622 269.983H327.59V270.18H353.622V269.983Z" fill="#EBEBEB"/>
<path d="M260.339 272.121H253.509V272.318H260.339V272.121Z" fill="#EBEBEB"/>
<path d="M326.803 262.689H311.72V262.885H326.803V262.689Z" fill="#EBEBEB"/>
<path d="M75.1807 264.01H41.2334V264.206H75.1807V264.01Z" fill="#EBEBEB"/>
<path d="M87.159 264.01H82.1836V264.206H87.159V264.01Z" fill="#EBEBEB"/>
<path d="M176.967 267.326H103.335V267.523H176.967V267.326Z" fill="#EBEBEB"/>
<path d="M187.382 222.281H35.6052C34.4149 222.281 33.2734 221.808 32.4317 220.966C31.59 220.125 31.1172 218.983 31.1172 217.793V4.44876C31.1276 3.26528 31.605 2.13379 32.4455 1.3006C33.2861 0.467405 34.4217 -4.53726e-05 35.6052 3.3032e-09H187.382C187.971 3.30321e-09 188.555 0.116086 189.099 0.341632C189.644 0.567178 190.139 0.897768 190.555 1.31452C190.972 1.73128 191.303 2.22604 191.528 2.77056C191.754 3.31507 191.87 3.89868 191.87 4.48806V217.793C191.87 218.382 191.754 218.966 191.528 219.51C191.303 220.055 190.972 220.55 190.555 220.966C190.139 221.383 189.644 221.714 189.099 221.939C188.555 222.165 187.971 222.281 187.382 222.281ZM35.6052 0.157201C34.4677 0.159278 33.3773 0.61209 32.573 1.41646C31.7686 2.22084 31.3158 3.31121 31.3137 4.44876V217.793C31.3158 218.93 31.7686 220.021 32.573 220.825C33.3773 221.629 34.4677 222.082 35.6052 222.084H187.382C188.519 222.082 189.61 221.629 190.414 220.825C191.219 220.021 191.671 218.93 191.673 217.793V4.44876C191.671 3.31121 191.219 2.22084 190.414 1.41646C189.61 0.61209 188.519 0.159278 187.382 0.157201H35.6052Z" fill="#EBEBEB"/>
<path d="M357.394 222.281H205.617C204.427 222.281 203.285 221.808 202.443 220.966C201.602 220.125 201.129 218.983 201.129 217.793V4.44876C201.139 3.26528 201.617 2.13379 202.457 1.3006C203.298 0.467405 204.433 -4.53726e-05 205.617 3.3032e-09H357.394C358.584 3.30321e-09 359.725 0.472848 360.567 1.31452C361.409 2.1562 361.882 3.29775 361.882 4.48806V217.793C361.882 218.983 361.409 220.125 360.567 220.966C359.725 221.808 358.584 222.281 357.394 222.281ZM205.617 0.157201C204.479 0.159278 203.389 0.61209 202.585 1.41646C201.78 2.22084 201.327 3.31121 201.325 4.44876V217.793C201.327 218.93 201.78 220.021 202.585 220.825C203.389 221.629 204.479 222.082 205.617 222.084H357.394C358.531 222.082 359.622 221.629 360.426 220.825C361.23 220.021 361.683 218.93 361.685 217.793V4.44876C361.683 3.31121 361.23 2.22084 360.426 1.41646C359.622 0.61209 358.531 0.159278 357.394 0.157201H205.617Z" fill="#EBEBEB"/>
<path d="M393 257.336H0V257.533H393V257.336Z" fill="#EBEBEB"/>
<path d="M77.72 257.533C77.544 257.517 77.3815 257.432 77.2681 257.296C77.1546 257.161 77.0995 256.986 77.1148 256.81L90.4768 96.2377H91.813V97.566H91.703L78.4431 256.92C78.4271 257.096 78.3424 257.26 78.2071 257.374C78.0718 257.489 77.8969 257.546 77.72 257.533Z" fill="#E0E0E0"/>
<path d="M137.276 257.533C137.452 257.517 137.616 257.432 137.73 257.297C137.845 257.161 137.902 256.986 137.889 256.81L124.488 96.2377H123.151V97.566H123.261L131.829 200.249H88.7168L80.0315 96.2377H78.7031V97.566H78.8132L92.1123 256.92C92.1263 257.096 92.2095 257.259 92.3435 257.374C92.4775 257.489 92.6515 257.546 92.8275 257.533C93.0042 257.517 93.1674 257.432 93.2821 257.297C93.3968 257.161 93.4537 256.986 93.4406 256.81L88.8189 201.585H131.931L136.553 256.92C136.569 257.096 136.654 257.26 136.789 257.374C136.924 257.489 137.099 257.546 137.276 257.533Z" fill="#E0E0E0"/>
<path d="M140.356 179.043H76.6823L68.6494 82.7189H132.323L140.356 179.043Z" fill="#EBEBEB"/>
<path d="M137.464 176.378L129.871 85.3831H71.542L79.1348 176.378H137.464Z" fill="#FAFAFA"/>
<path d="M140.82 181.157H77.0987C76.5393 181.155 76.0035 180.931 75.6087 180.535C75.2139 180.139 74.9922 179.602 74.9922 179.043C74.9922 178.483 75.2139 177.947 75.6087 177.551C76.0035 177.154 76.5393 176.931 77.0987 176.928H140.82C141.379 176.931 141.915 177.154 142.31 177.551C142.704 177.947 142.926 178.483 142.926 179.043C142.926 179.602 142.704 180.139 142.31 180.535C141.915 180.931 141.379 181.155 140.82 181.157Z" fill="#E6E6E6"/>
<path d="M266.564 234.228C265.676 223.539 261.998 217.219 259.058 213.792C257.385 211.713 255.265 210.036 252.856 208.888L253.139 208.149C253.265 208.196 265.605 213.195 267.35 234.157L266.564 234.228Z" fill="#E6E6E6"/>
<path d="M269.511 232.137H268.725C269.134 197.176 244.972 186.754 244.729 186.652L245.027 185.921C245.279 186.023 269.92 196.65 269.511 232.137Z" fill="#E6E6E6"/>
<path d="M271.814 232.13C271.759 218.925 274.903 210.122 281.168 206.042C289.138 200.823 299.411 205.256 299.513 205.303L299.198 206.027C299.096 205.979 289.2 201.719 281.6 206.703C275.571 210.633 272.545 219.208 272.6 232.13H271.814Z" fill="#E6E6E6"/>
<path d="M270.659 237.946C268.301 218.233 268.726 196.075 268.734 195.855H269.52C269.52 196.075 269.103 218.178 271.445 237.836L270.659 237.946Z" fill="#E6E6E6"/>
<path d="M274.974 232.138H274.188C274.833 198.175 279.329 178.69 287.181 175.868C291.669 174.241 295.458 178.525 295.615 178.713L295.017 179.224C295.017 179.185 291.425 175.161 287.44 176.607C282.174 178.493 275.784 189.678 274.974 232.138Z" fill="#E6E6E6"/>
<path d="M301.336 203.22C301.336 203.22 311.468 186.809 319.076 201.743C325.246 213.863 315.068 224.073 315.068 224.073C315.068 224.073 271.437 217.329 282.174 202.151C288.831 192.806 301.336 203.22 301.336 203.22Z" fill="#F0F0F0"/>
<path d="M302.609 204.36C302.609 204.36 315.759 204.69 315.657 205.696C315.555 206.702 304.181 205.091 304.967 206.718C305.753 208.345 316.435 211.473 316.301 212.833C316.168 214.193 306.461 209.076 306.704 210.333C306.948 211.591 312.843 218.382 312.686 219.883C312.528 221.385 307.349 212.464 306.398 213.187C305.447 213.91 303.788 220.842 303.419 219.113C303.049 217.384 305.124 210.467 303.788 208.816C302.452 207.166 291.542 214.279 289.64 212.707C287.738 211.135 301.092 208.368 302.609 204.36Z" fill="#E0E0E0"/>
<path d="M295.779 203.818C295.779 203.818 285.106 202.034 284.264 204.832C283.423 207.63 286.308 205.044 295.779 203.818Z" fill="#E0E0E0"/>
<path d="M239.407 185.118C239.407 185.118 231.005 167.756 221.911 181.841C214.538 193.261 223.616 204.462 223.616 204.462C223.616 204.462 267.703 202.206 258.546 186.007C252.911 176.064 239.407 185.118 239.407 185.118Z" fill="#F0F0F0"/>
<path d="M238.032 186.085C238.032 186.085 224.921 185.064 224.921 186.085C224.921 187.107 236.405 186.691 235.446 188.192C234.487 189.693 223.554 191.745 223.554 193.112C223.554 194.48 233.725 190.377 233.355 191.611C232.986 192.845 226.423 198.991 226.423 200.493C226.423 201.994 232.491 193.662 233.355 194.48C234.22 195.297 235.171 202.34 235.713 200.674C236.255 199.007 234.927 191.91 236.397 190.393C237.867 188.876 248.014 197.081 250.065 195.714C252.117 194.346 239.124 190.259 238.032 186.085Z" fill="#E0E0E0"/>
<path d="M244.878 186.282C244.878 186.282 255.678 185.598 256.22 188.467C256.762 191.336 254.168 188.467 244.878 186.282Z" fill="#E0E0E0"/>
<path d="M293.516 175.789C293.516 175.789 298.554 165.367 304.009 173.816C308.434 180.67 302.987 187.39 302.987 187.39C302.987 187.39 276.538 186.038 282.032 176.316C285.412 170.334 293.516 175.789 293.516 175.789Z" fill="#F0F0F0"/>
<path d="M294.333 176.362C294.333 176.362 302.193 175.757 302.193 176.362C302.193 176.967 295.308 176.724 295.905 177.628C296.503 178.532 303.042 179.758 303.042 180.583C303.042 181.408 296.935 178.94 297.163 179.679C297.391 180.418 301.321 184.104 301.321 185.008C301.321 185.912 297.674 180.913 297.163 181.401C296.652 181.888 296.071 186.116 295.74 185.118C295.41 184.12 296.236 179.86 295.332 178.948C294.428 178.036 288.36 182.957 287.134 182.139C285.908 181.322 293.689 178.87 294.333 176.362Z" fill="#E0E0E0"/>
<path d="M290.231 176.481C290.231 176.481 283.755 176.072 283.425 177.793C283.095 179.515 284.659 177.793 290.231 176.481Z" fill="#E0E0E0"/>
<path d="M278.944 220.238C278.944 220.238 282.198 213.517 285.72 218.972C288.573 223.389 285.06 227.728 285.06 227.728C285.06 227.728 267.995 226.856 271.54 220.583C273.718 216.724 278.944 220.238 278.944 220.238Z" fill="#F0F0F0"/>
<path d="M279.478 220.615C279.478 220.615 284.555 220.222 284.555 220.615C284.555 221.008 280.106 220.843 280.476 221.401C280.845 221.959 285.082 222.776 285.082 223.303C285.082 223.829 281.152 222.242 281.285 222.721C281.419 223.201 283.973 225.574 283.973 226.156C283.973 226.738 281.615 223.515 281.285 223.798C280.955 224.081 280.586 226.848 280.374 226.195C280.161 225.543 280.688 222.808 280.106 222.218C279.525 221.629 275.61 224.804 274.817 224.277C274.023 223.751 279.03 222.226 279.478 220.615Z" fill="#E0E0E0"/>
<path d="M276.828 220.685C276.828 220.685 272.646 220.426 272.434 221.534C272.222 222.642 273.228 221.534 276.828 220.685Z" fill="#E0E0E0"/>
<path d="M249.87 209.775C249.87 209.775 239.935 203.849 240.021 213.902C240.092 222.061 248.337 224.678 248.337 224.678C248.337 224.678 269.685 209.013 259.758 203.912C253.65 200.776 249.87 209.775 249.87 209.775Z" fill="#F0F0F0"/>
<path d="M249.5 210.711C249.5 210.711 242.591 214.531 242.929 215.034C243.267 215.537 248.879 211.552 248.895 212.621C248.91 213.69 244.108 218.327 244.556 219.011C245.004 219.695 248.761 214.295 248.973 215.026C249.186 215.757 247.936 221.007 248.431 221.762C248.926 222.516 249.217 216.338 249.924 216.464C250.632 216.59 253.43 219.82 253.147 218.822C252.864 217.824 249.854 214.703 250.105 213.446C250.357 212.188 258.13 212.966 258.704 211.607C259.278 210.247 251.426 212.448 249.5 210.711Z" fill="#E0E0E0"/>
<path d="M252.997 208.557C252.997 208.557 258.185 204.627 259.403 205.916C260.621 207.205 258.373 206.592 252.997 208.557Z" fill="#E0E0E0"/>
<path d="M273.425 189.937C273.425 189.937 282.496 184.521 282.417 193.702C282.354 201.145 274.832 203.535 274.832 203.535C274.832 203.535 255.339 189.245 264.402 184.584C269.982 181.723 273.425 189.937 273.425 189.937Z" fill="#F0F0F0"/>
<path d="M273.765 190.794C273.765 190.794 280.053 194.276 279.762 194.724C279.471 195.172 274.331 191.58 274.315 192.523C274.299 193.466 278.685 197.726 278.245 198.355C277.805 198.984 274.409 194.04 274.213 194.716C274.016 195.392 275.164 200.178 274.708 200.862C274.252 201.546 273.985 195.91 273.348 196.028C272.711 196.146 270.141 199.086 270.401 198.151C270.66 197.215 273.411 194.386 273.183 193.238C272.955 192.09 265.858 192.806 265.323 191.564C264.789 190.322 272.012 192.381 273.765 190.794Z" fill="#E0E0E0"/>
<path d="M270.571 188.821C270.571 188.821 265.855 185.26 264.724 186.408C263.592 187.555 265.667 187.068 270.571 188.821Z" fill="#E0E0E0"/>
<path d="M250.003 230.691L256.786 257.431H286.733L293.508 230.691H250.003Z" fill="#E6E6E6"/>
<path d="M196.5 292.4C280.667 292.4 348.898 288.416 348.898 283.502C348.898 278.588 280.667 274.605 196.5 274.605C112.333 274.605 44.1025 278.588 44.1025 283.502C44.1025 288.416 112.333 292.4 196.5 292.4Z" fill="#F5F5F5"/>
<path d="M285.632 165.469V164.683C287.181 164.683 288.727 164.578 290.262 164.368L290.364 165.154C288.795 165.364 287.214 165.469 285.632 165.469ZM282.488 165.319C280.898 165.178 279.322 164.915 277.772 164.533L277.968 163.747C279.466 164.123 280.99 164.386 282.527 164.533L282.488 165.319ZM293.492 164.596L293.319 163.81C294.832 163.472 296.323 163.041 297.784 162.521L298.043 163.26C296.551 163.803 295.026 164.249 293.476 164.596H293.492ZM274.777 163.574C273.288 163.02 271.854 162.328 270.494 161.507L270.902 160.839C272.223 161.631 273.612 162.301 275.052 162.843L274.777 163.574ZM300.975 162.105L300.652 161.389C302.061 160.746 303.429 160.016 304.747 159.204L305.156 159.872C303.806 160.705 302.404 161.451 300.959 162.105H300.975ZM267.884 159.699C267.211 159.169 266.569 158.603 265.958 158.002C265.44 157.491 264.929 156.956 264.441 156.43L265.023 155.895C265.503 156.422 265.998 156.941 266.509 157.467C267.099 158.05 267.721 158.601 268.371 159.118L267.884 159.699ZM307.766 158.08L307.294 157.452C308.529 156.523 309.693 155.504 310.776 154.402L310.839 154.339L311.397 154.897L311.334 154.952C310.219 156.083 309.021 157.128 307.75 158.08H307.766ZM262.421 154.001C261.463 152.75 260.588 151.438 259.804 150.071L260.488 149.686C261.252 151.031 262.105 152.322 263.042 153.553L262.421 154.001ZM313.511 152.515L312.89 152.028C313.845 150.819 314.687 149.524 315.406 148.161L316.105 148.523C315.348 149.919 314.467 151.245 313.472 152.484L313.511 152.515ZM258.405 147.218C257.764 145.768 257.238 144.27 256.833 142.738L257.619 142.533C258.031 144.025 258.556 145.484 259.191 146.896L258.405 147.218ZM317.394 145.646L316.655 145.371C317.19 143.929 317.575 142.435 317.803 140.914L318.589 141.032C318.334 142.6 317.921 144.138 317.355 145.622L317.394 145.646ZM256.173 139.656C255.976 138.342 255.876 137.016 255.874 135.687C255.874 135.428 255.874 135.168 255.874 134.901H256.66C256.66 135.153 256.66 135.404 256.66 135.687C256.663 136.976 256.761 138.264 256.951 139.539L256.173 139.656ZM318.848 137.864H318.062V137.448C318.062 136.046 317.941 134.647 317.701 133.266L318.487 133.133C318.73 134.558 318.853 136.002 318.856 137.448L318.848 137.864ZM256.959 131.867L256.173 131.749C256.416 130.178 256.808 128.633 257.344 127.135L258.083 127.403C257.556 128.843 257.166 130.33 256.919 131.844L256.959 131.867ZM317.009 130.248C316.573 128.767 316.024 127.322 315.366 125.925L316.074 125.595C316.755 127.025 317.32 128.507 317.764 130.028L317.009 130.248ZM259.309 124.573L258.594 124.188C259.315 122.773 260.159 121.423 261.117 120.156L261.738 120.627C260.802 121.86 259.976 123.173 259.27 124.55L259.309 124.573ZM313.92 123.198C313.129 121.868 312.255 120.589 311.303 119.37L311.916 118.882C312.892 120.134 313.788 121.447 314.596 122.812L313.92 123.198ZM263.75 118.301L263.176 117.766C263.325 117.601 263.483 117.444 263.64 117.279C264.596 116.312 265.612 115.407 266.682 114.567L267.161 115.18C266.121 116.003 265.131 116.887 264.198 117.829L263.75 118.301ZM309.298 117.004C308.819 116.485 308.324 115.966 307.813 115.432C307.22 114.848 306.598 114.295 305.95 113.773L306.437 113.16C307.108 113.695 307.751 114.265 308.363 114.866C308.882 115.377 309.393 115.904 309.872 116.438L309.298 117.004ZM269.684 113.396L269.26 112.736C270.592 111.883 271.981 111.121 273.418 110.457L273.748 111.172C272.332 111.812 270.961 112.547 269.645 113.373L269.684 113.396ZM303.396 112.013C302.082 111.207 300.701 110.516 299.269 109.946L299.552 109.215C301.03 109.796 302.454 110.509 303.804 111.345L303.396 112.013ZM276.569 109.969L276.31 109.23C277.801 108.7 279.323 108.265 280.869 107.926L281.034 108.712C279.521 109.036 278.029 109.456 276.569 109.969ZM296.322 108.979C294.832 108.573 293.313 108.284 291.778 108.114L291.865 107.328C293.439 107.499 294.998 107.793 296.526 108.209L296.322 108.979ZM284.068 108.193L283.966 107.407C285.379 107.232 286.802 107.143 288.226 107.14H288.705V107.926H288.241C286.852 107.924 285.463 108.008 284.084 108.177L284.068 108.193Z" fill="#FF4848"/>
<path d="M259.827 122.781C258.449 121.987 257.118 121.113 255.842 120.163L256.306 119.527C257.563 120.46 258.875 121.316 260.236 122.089L259.827 122.781ZM253.343 118.214C252.125 117.208 250.938 116.139 249.814 115.031L250.364 114.473C251.472 115.557 252.643 116.619 253.838 117.617L253.343 118.214ZM247.613 112.712C246.607 111.604 245.648 110.448 244.76 109.285L245.381 108.806C246.261 109.953 247.204 111.093 248.195 112.185L247.613 112.712Z" fill="#FF4848"/>
<g opacity="0.3">
<path d="M285.632 165.469V164.683C287.181 164.683 288.727 164.578 290.262 164.368L290.364 165.154C288.795 165.364 287.214 165.469 285.632 165.469ZM282.488 165.319C280.898 165.178 279.322 164.915 277.772 164.533L277.968 163.747C279.466 164.123 280.99 164.386 282.527 164.533L282.488 165.319ZM293.492 164.596L293.319 163.81C294.832 163.472 296.323 163.041 297.784 162.521L298.043 163.26C296.551 163.803 295.026 164.249 293.476 164.596H293.492ZM274.777 163.574C273.288 163.02 271.854 162.328 270.494 161.507L270.902 160.839C272.223 161.631 273.612 162.301 275.052 162.843L274.777 163.574ZM300.975 162.105L300.652 161.389C302.061 160.746 303.429 160.016 304.747 159.204L305.156 159.872C303.806 160.705 302.404 161.451 300.959 162.105H300.975ZM267.884 159.699C267.211 159.169 266.569 158.603 265.958 158.002C265.44 157.491 264.929 156.956 264.441 156.43L265.023 155.895C265.503 156.422 265.998 156.941 266.509 157.467C267.099 158.05 267.721 158.601 268.371 159.118L267.884 159.699ZM307.766 158.08L307.294 157.452C308.529 156.523 309.693 155.504 310.776 154.402L310.839 154.339L311.397 154.897L311.334 154.952C310.219 156.083 309.021 157.128 307.75 158.08H307.766ZM262.421 154.001C261.463 152.75 260.588 151.438 259.804 150.071L260.488 149.686C261.252 151.031 262.105 152.322 263.042 153.553L262.421 154.001ZM313.511 152.515L312.89 152.028C313.845 150.819 314.687 149.524 315.406 148.161L316.105 148.523C315.348 149.919 314.467 151.245 313.472 152.484L313.511 152.515ZM258.405 147.218C257.764 145.768 257.238 144.27 256.833 142.738L257.619 142.533C258.031 144.025 258.556 145.484 259.191 146.896L258.405 147.218ZM317.394 145.646L316.655 145.371C317.19 143.929 317.575 142.435 317.803 140.914L318.589 141.032C318.334 142.6 317.921 144.138 317.355 145.622L317.394 145.646ZM256.173 139.656C255.976 138.342 255.876 137.016 255.874 135.687C255.874 135.428 255.874 135.168 255.874 134.901H256.66C256.66 135.153 256.66 135.404 256.66 135.687C256.663 136.976 256.761 138.264 256.951 139.539L256.173 139.656ZM318.848 137.864H318.062V137.448C318.062 136.046 317.941 134.647 317.701 133.266L318.487 133.133C318.73 134.558 318.853 136.002 318.856 137.448L318.848 137.864ZM256.959 131.867L256.173 131.749C256.416 130.178 256.808 128.633 257.344 127.135L258.083 127.403C257.556 128.843 257.166 130.33 256.919 131.844L256.959 131.867ZM317.009 130.248C316.573 128.767 316.024 127.322 315.366 125.925L316.074 125.595C316.755 127.025 317.32 128.507 317.764 130.028L317.009 130.248ZM259.309 124.573L258.594 124.188C259.315 122.773 260.159 121.423 261.117 120.156L261.738 120.627C260.802 121.86 259.976 123.173 259.27 124.55L259.309 124.573ZM313.92 123.198C313.129 121.868 312.255 120.589 311.303 119.37L311.916 118.882C312.892 120.134 313.788 121.447 314.596 122.812L313.92 123.198ZM263.75 118.301L263.176 117.766C263.325 117.601 263.483 117.444 263.64 117.279C264.596 116.312 265.612 115.407 266.682 114.567L267.161 115.18C266.121 116.003 265.131 116.887 264.198 117.829L263.75 118.301ZM309.298 117.004C308.819 116.485 308.324 115.966 307.813 115.432C307.22 114.848 306.598 114.295 305.95 113.773L306.437 113.16C307.108 113.695 307.751 114.265 308.363 114.866C308.882 115.377 309.393 115.904 309.872 116.438L309.298 117.004ZM269.684 113.396L269.26 112.736C270.592 111.883 271.981 111.121 273.418 110.457L273.748 111.172C272.332 111.812 270.961 112.547 269.645 113.373L269.684 113.396ZM303.396 112.013C302.082 111.207 300.701 110.516 299.269 109.946L299.552 109.215C301.03 109.796 302.454 110.509 303.804 111.345L303.396 112.013ZM276.569 109.969L276.31 109.23C277.801 108.7 279.323 108.265 280.869 107.926L281.034 108.712C279.521 109.036 278.029 109.456 276.569 109.969ZM296.322 108.979C294.832 108.573 293.313 108.284 291.778 108.114L291.865 107.328C293.439 107.499 294.998 107.793 296.526 108.209L296.322 108.979ZM284.068 108.193L283.966 107.407C285.379 107.232 286.802 107.143 288.226 107.14H288.705V107.926H288.241C286.852 107.924 285.463 108.008 284.084 108.177L284.068 108.193Z" fill="black"/>
<path d="M259.827 122.781C258.449 121.987 257.118 121.113 255.842 120.163L256.306 119.527C257.563 120.46 258.875 121.316 260.236 122.089L259.827 122.781ZM253.343 118.214C252.125 117.208 250.938 116.139 249.814 115.031L250.364 114.473C251.472 115.557 252.643 116.619 253.838 117.617L253.343 118.214ZM247.613 112.712C246.607 111.604 245.648 110.448 244.76 109.285L245.381 108.806C246.261 109.953 247.204 111.093 248.195 112.185L247.613 112.712Z" fill="black"/>
</g>
<path d="M308.63 114.973L275.011 108.285L266.441 151.371L300.059 158.058L308.63 114.973Z" fill="#FF4848"/>
<path opacity="0.7" d="M308.63 114.973L275.011 108.285L266.441 151.371L300.059 158.058L308.63 114.973Z" fill="white"/>
<path d="M303.001 119.245L277.166 113.973L274.259 128.215L300.095 133.488L303.001 119.245Z" fill="#FF4848"/>
<path d="M299.882 134.885L278.589 130.649C278.399 130.612 278.201 130.651 278.039 130.758C277.878 130.866 277.765 131.033 277.725 131.223C277.705 131.318 277.705 131.416 277.724 131.512C277.742 131.608 277.78 131.699 277.834 131.78C277.888 131.861 277.958 131.931 278.039 131.985C278.12 132.039 278.211 132.076 278.306 132.095L299.599 136.332C299.694 136.351 299.792 136.351 299.887 136.332C299.982 136.314 300.073 136.276 300.153 136.222C300.234 136.168 300.303 136.098 300.356 136.017C300.409 135.936 300.446 135.845 300.464 135.75C300.483 135.655 300.483 135.557 300.465 135.462C300.446 135.367 300.408 135.276 300.354 135.196C300.3 135.115 300.23 135.046 300.149 134.993C300.068 134.94 299.977 134.903 299.882 134.885Z" fill="black"/>
<path d="M274.463 135.09L295.984 139.373C296.08 139.393 296.178 139.393 296.274 139.374C296.369 139.356 296.46 139.318 296.541 139.264C296.622 139.21 296.692 139.14 296.746 139.059C296.8 138.978 296.838 138.887 296.856 138.792C296.876 138.697 296.876 138.599 296.857 138.504C296.838 138.408 296.801 138.318 296.747 138.237C296.693 138.157 296.623 138.088 296.542 138.035C296.461 137.982 296.37 137.945 296.275 137.927L274.754 133.62C274.659 133.6 274.561 133.6 274.466 133.619C274.371 133.638 274.28 133.675 274.2 133.729C274.12 133.784 274.051 133.853 273.997 133.934C273.944 134.015 273.907 134.106 273.89 134.201C273.868 134.297 273.865 134.397 273.882 134.494C273.899 134.591 273.936 134.684 273.989 134.766C274.043 134.849 274.112 134.92 274.194 134.976C274.275 135.031 274.367 135.07 274.463 135.09Z" fill="black"/>
<path d="M296.518 141.732L274.031 137.259C273.839 137.222 273.64 137.263 273.478 137.372C273.316 137.481 273.204 137.649 273.166 137.841C273.147 137.936 273.146 138.034 273.165 138.129C273.184 138.224 273.222 138.315 273.276 138.395C273.33 138.475 273.4 138.544 273.481 138.598C273.562 138.651 273.652 138.688 273.748 138.705L296.227 143.178C296.418 143.206 296.612 143.162 296.773 143.057C296.933 142.951 297.05 142.79 297.1 142.604C297.119 142.509 297.12 142.41 297.101 142.314C297.082 142.219 297.045 142.128 296.991 142.047C296.937 141.966 296.867 141.896 296.786 141.842C296.705 141.788 296.614 141.75 296.518 141.732Z" fill="black"/>
<path d="M296.762 145.543L276.428 141.479C276.236 141.442 276.038 141.483 275.876 141.592C275.714 141.701 275.602 141.87 275.564 142.061C275.544 142.156 275.544 142.254 275.563 142.349C275.582 142.444 275.619 142.535 275.673 142.615C275.727 142.696 275.797 142.765 275.878 142.818C275.959 142.871 276.05 142.908 276.145 142.926L296.479 146.981C296.671 147.018 296.869 146.978 297.031 146.869C297.193 146.76 297.306 146.591 297.344 146.4C297.362 146.305 297.361 146.208 297.342 146.114C297.323 146.02 297.285 145.93 297.231 145.851C297.177 145.771 297.107 145.703 297.027 145.65C296.947 145.597 296.857 145.561 296.762 145.543Z" fill="black"/>
<path d="M272.309 145.944L294.789 150.416C294.884 150.436 294.983 150.436 295.079 150.417C295.174 150.399 295.265 150.361 295.346 150.307C295.427 150.253 295.497 150.183 295.551 150.102C295.605 150.021 295.643 149.93 295.661 149.835C295.681 149.74 295.681 149.642 295.662 149.547C295.643 149.451 295.606 149.361 295.552 149.28C295.498 149.2 295.428 149.131 295.347 149.078C295.266 149.025 295.175 148.988 295.08 148.97L272.592 144.498C272.402 144.46 272.204 144.5 272.042 144.607C271.881 144.715 271.768 144.881 271.728 145.071C271.708 145.167 271.708 145.265 271.727 145.361C271.745 145.457 271.783 145.548 271.837 145.629C271.891 145.71 271.961 145.779 272.042 145.834C272.123 145.888 272.214 145.925 272.309 145.944Z" fill="black"/>
<path d="M295.904 153.647C295.932 153.456 295.888 153.261 295.78 153.1C295.673 152.939 295.51 152.823 295.323 152.775L271.876 148.114C271.69 148.087 271.5 148.133 271.346 148.242C271.192 148.351 271.086 148.515 271.049 148.7C271.012 148.884 271.046 149.076 271.146 149.236C271.246 149.396 271.403 149.512 271.586 149.56L295.032 154.221C295.222 154.249 295.416 154.206 295.577 154.1C295.738 153.994 295.854 153.833 295.904 153.647Z" fill="black"/>
<g opacity="0.5">
<path d="M299.882 134.885L278.589 130.649C278.399 130.612 278.201 130.651 278.039 130.758C277.878 130.866 277.765 131.033 277.725 131.223C277.705 131.318 277.705 131.417 277.724 131.512C277.742 131.608 277.78 131.699 277.834 131.78C277.888 131.861 277.958 131.931 278.039 131.985C278.12 132.039 278.211 132.076 278.306 132.095L299.599 136.332C299.694 136.351 299.792 136.351 299.887 136.333C299.982 136.314 300.073 136.276 300.153 136.222C300.234 136.168 300.303 136.098 300.356 136.017C300.409 135.936 300.446 135.845 300.464 135.75C300.483 135.655 300.483 135.557 300.465 135.462C300.446 135.367 300.408 135.276 300.354 135.196C300.3 135.115 300.23 135.047 300.149 134.993C300.068 134.94 299.977 134.903 299.882 134.885Z" fill="white"/>
<path d="M274.462 135.09L295.983 139.373C296.079 139.393 296.177 139.393 296.273 139.374C296.368 139.356 296.459 139.318 296.54 139.264C296.621 139.21 296.691 139.141 296.745 139.059C296.799 138.978 296.837 138.887 296.855 138.792C296.875 138.697 296.875 138.599 296.856 138.504C296.837 138.409 296.8 138.318 296.746 138.238C296.692 138.157 296.622 138.088 296.541 138.035C296.46 137.982 296.369 137.945 296.274 137.927L274.753 133.62C274.658 133.6 274.56 133.6 274.465 133.619C274.37 133.638 274.28 133.675 274.199 133.73C274.119 133.784 274.05 133.853 273.996 133.934C273.943 134.015 273.906 134.106 273.889 134.201C273.867 134.298 273.864 134.397 273.881 134.494C273.899 134.591 273.935 134.684 273.988 134.766C274.042 134.849 274.111 134.92 274.193 134.976C274.274 135.031 274.366 135.07 274.462 135.09Z" fill="white"/>
<path d="M296.517 141.732L274.03 137.259C273.838 137.222 273.639 137.263 273.477 137.372C273.315 137.481 273.203 137.649 273.165 137.841C273.146 137.936 273.145 138.034 273.164 138.129C273.183 138.224 273.221 138.315 273.275 138.395C273.329 138.476 273.399 138.544 273.48 138.598C273.561 138.651 273.651 138.688 273.747 138.706L296.226 143.178C296.417 143.206 296.611 143.163 296.772 143.057C296.932 142.951 297.049 142.79 297.099 142.604C297.118 142.509 297.119 142.41 297.1 142.315C297.081 142.219 297.044 142.128 296.99 142.047C296.936 141.966 296.866 141.896 296.785 141.842C296.704 141.788 296.613 141.75 296.517 141.732Z" fill="white"/>
<path d="M296.761 145.543L276.427 141.48C276.235 141.443 276.037 141.483 275.875 141.592C275.713 141.701 275.601 141.87 275.563 142.061C275.543 142.156 275.543 142.254 275.562 142.349C275.581 142.444 275.618 142.535 275.672 142.615C275.726 142.696 275.796 142.765 275.877 142.818C275.958 142.871 276.049 142.908 276.144 142.926L296.478 146.982C296.67 147.019 296.868 146.978 297.03 146.869C297.192 146.76 297.305 146.591 297.343 146.4C297.361 146.305 297.36 146.208 297.341 146.114C297.322 146.02 297.284 145.93 297.23 145.851C297.176 145.771 297.106 145.703 297.026 145.65C296.946 145.597 296.856 145.561 296.761 145.543Z" fill="white"/>
<path d="M272.309 145.945L294.789 150.417C294.884 150.436 294.983 150.437 295.079 150.418C295.174 150.399 295.265 150.362 295.346 150.308C295.427 150.254 295.497 150.184 295.551 150.103C295.605 150.022 295.643 149.931 295.661 149.835C295.681 149.74 295.681 149.642 295.662 149.547C295.643 149.452 295.606 149.362 295.552 149.281C295.498 149.201 295.428 149.132 295.347 149.078C295.266 149.025 295.175 148.988 295.08 148.971L272.592 144.498C272.402 144.461 272.204 144.5 272.042 144.608C271.881 144.715 271.768 144.882 271.728 145.072C271.708 145.168 271.708 145.266 271.727 145.362C271.745 145.457 271.783 145.548 271.837 145.629C271.891 145.71 271.961 145.78 272.042 145.834C272.123 145.888 272.214 145.926 272.309 145.945Z" fill="white"/>
<path d="M295.904 153.647C295.932 153.456 295.888 153.261 295.78 153.1C295.673 152.939 295.51 152.823 295.323 152.775L271.876 148.114C271.69 148.087 271.5 148.133 271.346 148.242C271.192 148.351 271.086 148.515 271.049 148.7C271.012 148.884 271.046 149.077 271.146 149.236C271.246 149.396 271.403 149.512 271.586 149.56L295.032 154.221C295.222 154.249 295.416 154.206 295.577 154.1C295.738 153.994 295.854 153.833 295.904 153.647Z" fill="white"/>
</g>
<path d="M305.856 125.084C304.766 123.991 303.381 123.24 301.871 122.923C300.36 122.606 298.79 122.736 297.353 123.298C295.915 123.86 294.673 124.83 293.779 126.087C292.884 127.345 292.376 128.836 292.316 130.379C292.257 131.921 292.649 133.447 293.444 134.77C294.239 136.093 295.403 137.155 296.793 137.826C298.182 138.497 299.738 138.748 301.268 138.548C302.799 138.348 304.238 137.706 305.408 136.701C305.245 137.036 305.191 137.414 305.253 137.782C305.315 138.15 305.49 138.489 305.754 138.752L310.973 143.971C311.316 144.288 311.769 144.459 312.235 144.449C312.702 144.44 313.147 144.25 313.477 143.92C313.807 143.59 313.996 143.145 314.006 142.679C314.015 142.212 313.844 141.76 313.528 141.417L308.309 136.198C308.043 135.937 307.704 135.765 307.336 135.704C306.969 135.644 306.592 135.698 306.257 135.86C307.558 134.342 308.239 132.39 308.164 130.393C308.09 128.396 307.266 126.5 305.856 125.084ZM304.74 135.192C303.851 136.081 302.718 136.687 301.485 136.932C300.251 137.178 298.972 137.052 297.81 136.571C296.649 136.089 295.655 135.274 294.957 134.229C294.258 133.183 293.885 131.953 293.885 130.696C293.885 129.438 294.258 128.209 294.957 127.163C295.655 126.117 296.649 125.302 297.81 124.821C298.972 124.34 300.251 124.214 301.485 124.459C302.718 124.705 303.851 125.31 304.74 126.2C305.933 127.392 306.602 129.009 306.602 130.696C306.602 132.382 305.933 133.999 304.74 135.192Z" fill="black"/>
<path d="M304.464 79.8179C303.749 79.8179 303.018 79.8179 302.295 79.7551L302.342 78.9691C303.913 79.065 305.489 79.0519 307.058 78.9298L307.121 79.7158C306.264 79.7865 305.36 79.8179 304.464 79.8179ZM299.072 79.3856C297.477 79.1413 295.901 78.7841 294.356 78.3167L294.584 77.5307C296.097 77.9918 297.642 78.3412 299.206 78.5761L299.072 79.3856ZM310.359 79.2913L310.218 78.5053C311.776 78.2277 313.31 77.8309 314.808 77.3184L315.138 78.0337H315.059C313.529 78.5827 311.957 79.0085 310.359 79.307V79.2913ZM291.283 77.232C289.782 76.613 288.334 75.8744 286.952 75.0233L287.361 74.3552C288.709 75.1808 290.12 75.8983 291.582 76.501L291.283 77.232ZM318.133 76.8076L317.787 76.108C319.204 75.421 320.55 74.5942 321.803 73.64L322.283 74.2609C320.988 75.2507 319.598 76.1091 318.133 76.8233V76.8076ZM284.287 73.1605C283.013 72.1487 281.844 71.0111 280.798 69.765L281.395 69.2619C282.411 70.4676 283.546 71.5683 284.783 72.5474L284.287 73.1605ZM324.719 72.1073L324.153 71.5571C325.249 70.431 326.217 69.1868 327.038 67.8472L327.706 68.2559C326.856 69.6511 325.854 70.948 324.719 72.123V72.1073ZM278.895 67.124C278.125 65.8618 277.493 64.5205 277.009 63.1233L276.868 62.691L277.606 62.4395L277.756 62.8718C278.22 64.2138 278.826 65.5023 279.564 66.7153L278.895 67.124ZM329.199 65.3555L328.476 65.049C329.09 63.5996 329.551 62.0902 329.852 60.5452L330.638 60.6946C330.323 62.3004 329.838 63.8681 329.192 65.3713L329.199 65.3555ZM276.011 59.5627C275.661 57.9772 275.44 56.3658 275.351 54.7445H276.137C276.224 56.3314 276.439 57.9085 276.781 59.4605L276.011 59.5627ZM331.031 57.472L330.245 57.4169C330.284 56.796 330.308 56.1672 330.308 55.5384C330.308 54.6031 330.261 53.6441 330.166 52.6931L330.952 52.6145C331.053 53.5859 331.103 54.5618 331.102 55.5384C331.109 56.1986 331.086 56.851 331.047 57.4877L331.031 57.472ZM276.129 51.5534L275.343 51.4984C275.456 49.8741 275.719 48.2639 276.129 46.688L276.915 46.8845C276.513 48.4187 276.255 49.987 276.144 51.5691L276.129 51.5534ZM329.687 49.5648C329.395 48.1255 329.006 46.7076 328.524 45.3204L328.406 45.006L329.144 44.7309L329.262 45.061C329.754 46.4825 330.153 47.9344 330.457 49.4076L329.687 49.5648ZM277.811 43.8977L277.08 43.5991C277.691 42.0921 278.455 40.6515 279.359 39.2996L280.012 39.7319C279.152 41.0481 278.43 42.4494 277.858 43.9135L277.811 43.8977ZM327.085 42.145C326.329 40.7665 325.428 39.4727 324.397 38.2857L324.987 37.7669C326.058 38.9958 326.994 40.3372 327.777 41.7677L327.085 42.145ZM281.945 37.256L281.364 36.7294C282.454 35.5216 283.666 34.4286 284.979 33.4675L285.443 34.0963C284.188 35.035 283.032 36.099 281.992 37.2718L281.945 37.256ZM322.259 36.0692C321.073 35.0271 319.795 34.0957 318.439 33.2867L318.848 32.6108C320.24 33.4487 321.556 34.4088 322.778 35.4797L322.259 36.0692ZM288.147 32.4221L287.769 31.7383C289.135 30.9867 290.563 30.3555 292.037 29.8519L292.218 29.789L292.47 30.5279L292.297 30.5908C290.865 31.0841 289.476 31.6967 288.147 32.4221ZM315.61 31.8169C314.17 31.1576 312.683 30.6084 311.161 30.1742L311.381 29.3882C312.941 29.832 314.465 30.3943 315.94 31.0702L315.61 31.8169ZM295.535 29.6869L295.37 28.9009C296.953 28.5484 298.562 28.3197 300.18 28.217L300.228 29.003C298.648 29.1067 297.079 29.3354 295.535 29.6869ZM308.111 29.4668C306.553 29.185 304.977 29.0168 303.395 28.9637V28.1777C305.014 28.2339 306.627 28.4046 308.221 28.6886L308.111 29.4668Z" fill="#FF4848"/>
<path d="M265.409 76.0135H263.837V75.2275C265.488 75.2275 267.028 75.2275 268.553 75.1725V75.9585C267.563 75.9821 266.494 76.0135 265.409 76.0135ZM271.744 75.6913L271.658 74.9053C273.207 74.7442 274.748 74.5002 276.271 74.1743L276.436 74.9603C274.886 75.2862 273.32 75.5302 271.744 75.6913ZM279.51 74.1193L279.274 73.3726C280.75 72.9526 282.162 72.3339 283.471 71.5333L283.927 72.17C282.557 73.0342 281.069 73.696 279.51 74.135V74.1193Z" fill="#FF4848"/>
<g opacity="0.3">
<path d="M304.464 79.8179C303.749 79.8179 303.018 79.8179 302.295 79.7551L302.342 78.9691C303.913 79.065 305.489 79.0519 307.058 78.9298L307.121 79.7158C306.264 79.7865 305.36 79.8179 304.464 79.8179ZM299.072 79.3856C297.477 79.1413 295.901 78.7841 294.356 78.3167L294.584 77.5307C296.097 77.9918 297.642 78.3412 299.206 78.5761L299.072 79.3856ZM310.359 79.2913L310.218 78.5053C311.776 78.2277 313.31 77.8309 314.808 77.3184L315.138 78.0337H315.059C313.529 78.5827 311.957 79.0085 310.359 79.307V79.2913ZM291.283 77.232C289.782 76.613 288.334 75.8744 286.952 75.0233L287.361 74.3552C288.709 75.1808 290.12 75.8983 291.582 76.501L291.283 77.232ZM318.133 76.8076L317.787 76.108C319.204 75.421 320.55 74.5942 321.803 73.64L322.283 74.2609C320.988 75.2507 319.598 76.1091 318.133 76.8233V76.8076ZM284.287 73.1605C283.013 72.1487 281.844 71.0111 280.798 69.765L281.395 69.2619C282.411 70.4676 283.546 71.5683 284.783 72.5474L284.287 73.1605ZM324.719 72.1073L324.153 71.5571C325.249 70.431 326.217 69.1868 327.038 67.8472L327.706 68.2559C326.856 69.6511 325.854 70.948 324.719 72.123V72.1073ZM278.895 67.124C278.125 65.8618 277.493 64.5205 277.009 63.1233L276.868 62.691L277.606 62.4395L277.756 62.8718C278.22 64.2138 278.826 65.5023 279.564 66.7153L278.895 67.124ZM329.199 65.3555L328.476 65.049C329.09 63.5996 329.551 62.0902 329.852 60.5452L330.638 60.6946C330.323 62.3004 329.838 63.8681 329.192 65.3713L329.199 65.3555ZM276.011 59.5627C275.661 57.9772 275.44 56.3658 275.351 54.7445H276.137C276.224 56.3314 276.439 57.9085 276.781 59.4605L276.011 59.5627ZM331.031 57.472L330.245 57.4169C330.284 56.796 330.308 56.1672 330.308 55.5384C330.308 54.6031 330.261 53.6441 330.166 52.6931L330.952 52.6145C331.053 53.5859 331.103 54.5618 331.102 55.5384C331.109 56.1986 331.086 56.851 331.047 57.4877L331.031 57.472ZM276.129 51.5534L275.343 51.4984C275.456 49.8741 275.719 48.2639 276.129 46.688L276.915 46.8845C276.513 48.4187 276.255 49.987 276.144 51.5691L276.129 51.5534ZM329.687 49.5648C329.395 48.1255 329.006 46.7076 328.524 45.3204L328.406 45.006L329.144 44.7309L329.262 45.061C329.754 46.4825 330.153 47.9344 330.457 49.4076L329.687 49.5648ZM277.811 43.8977L277.08 43.5991C277.691 42.0921 278.455 40.6515 279.359 39.2996L280.012 39.7319C279.152 41.0481 278.43 42.4494 277.858 43.9135L277.811 43.8977ZM327.085 42.145C326.329 40.7665 325.428 39.4727 324.397 38.2857L324.987 37.7669C326.058 38.9958 326.994 40.3372 327.777 41.7677L327.085 42.145ZM281.945 37.256L281.364 36.7294C282.454 35.5216 283.666 34.4286 284.979 33.4675L285.443 34.0963C284.188 35.035 283.032 36.099 281.992 37.2718L281.945 37.256ZM322.259 36.0692C321.073 35.0271 319.795 34.0957 318.439 33.2867L318.848 32.6108C320.24 33.4487 321.556 34.4088 322.778 35.4797L322.259 36.0692ZM288.147 32.4221L287.769 31.7383C289.135 30.9867 290.563 30.3555 292.037 29.8519L292.218 29.789L292.47 30.5279L292.297 30.5908C290.865 31.0841 289.476 31.6967 288.147 32.4221ZM315.61 31.8169C314.17 31.1576 312.683 30.6084 311.161 30.1742L311.381 29.3882C312.941 29.832 314.465 30.3943 315.94 31.0702L315.61 31.8169ZM295.535 29.6869L295.37 28.9009C296.953 28.5484 298.562 28.3197 300.18 28.217L300.228 29.003C298.648 29.1067 297.079 29.3354 295.535 29.6869ZM308.111 29.4668C306.553 29.185 304.977 29.0168 303.395 28.9637V28.1777C305.014 28.2339 306.627 28.4046 308.221 28.6886L308.111 29.4668Z" fill="black"/>
<path d="M265.409 76.0135H263.837V75.2275C265.488 75.2275 267.028 75.2275 268.553 75.1725V75.9585C267.563 75.9821 266.494 76.0135 265.409 76.0135ZM271.744 75.6913L271.658 74.9053C273.207 74.7442 274.748 74.5002 276.271 74.1743L276.436 74.9603C274.886 75.2862 273.32 75.5302 271.744 75.6913ZM279.51 74.1193L279.274 73.3726C280.75 72.9526 282.162 72.3339 283.471 71.5333L283.927 72.17C282.557 73.0342 281.069 73.696 279.51 74.135V74.1193Z" fill="black"/>
</g>
<path d="M301.113 33.582L276.431 43.8058L283.484 60.8345L308.167 50.6106L301.113 33.582Z" fill="#FF4848"/>
<path opacity="0.6" d="M301.113 33.582L276.431 43.8058L283.484 60.8345L308.167 50.6106L301.113 33.582Z" fill="white"/>
<path d="M284.501 60.3171L287.504 49.5332L297.25 55.0352L284.501 60.3171Z" fill="#FF4848"/>
<path opacity="0.3" d="M284.501 60.3171L287.504 49.5332L297.25 55.0352L284.501 60.3171Z" fill="white"/>
<path d="M289.885 58.0852L294.011 43.277L307.397 50.8304L289.885 58.0852Z" fill="#FF4848"/>
<path opacity="0.6" d="M286.89 44.9277C287.062 45.3459 287.107 45.8059 287.018 46.2494C286.929 46.693 286.711 47.1002 286.391 47.4197C286.07 47.7391 285.663 47.9564 285.219 48.0441C284.775 48.1317 284.315 48.0858 283.897 47.9122C283.48 47.7385 283.123 47.4448 282.872 47.0684C282.621 46.6919 282.488 46.2495 282.488 45.7971C282.489 45.3447 282.624 44.9027 282.875 44.5269C283.127 44.1511 283.485 43.8584 283.903 43.6859C284.181 43.5702 284.478 43.5106 284.779 43.5105C285.08 43.5104 285.377 43.5698 285.655 43.6852C285.933 43.8006 286.185 43.9698 286.397 44.1831C286.608 44.3963 286.776 44.6494 286.89 44.9277Z" fill="white"/>
<path d="M322.319 61.0159L301.127 56.8005L298.218 71.4245L319.41 75.6398L322.319 61.0159Z" fill="#FF4848"/>
<path opacity="0.6" d="M322.319 61.0159L301.127 56.8005L298.218 71.4245L319.41 75.6398L322.319 61.0159Z" fill="white"/>
<path d="M299.136 71.5336L306.005 65.6307L310.085 73.7108L299.136 71.5336Z" fill="#FF4848"/>
<path opacity="0.3" d="M299.136 71.5336L306.005 65.6307L310.085 73.7108L299.136 71.5336Z" fill="white"/>
<path d="M303.766 72.4533L313.19 64.3418L318.794 75.4401L303.766 72.4533Z" fill="#FF4848"/>
<path opacity="0.6" d="M307.68 62.2669C307.646 62.518 307.561 62.7595 307.43 62.9766C307.299 63.1936 307.126 63.3816 306.919 63.5289C306.713 63.6762 306.479 63.7796 306.231 63.8329C305.984 63.8862 305.728 63.8881 305.479 63.8386C305.23 63.7891 304.995 63.6893 304.786 63.5452C304.578 63.401 304.401 63.2158 304.267 63.0007C304.133 62.7857 304.045 62.5455 304.007 62.2949C303.969 62.0443 303.983 61.7887 304.048 61.5438C304.082 61.2926 304.167 61.0511 304.298 60.834C304.429 60.617 304.602 60.429 304.809 60.2818C305.015 60.1345 305.249 60.031 305.497 59.9777C305.744 59.9245 306 59.9225 306.249 59.972C306.498 60.0215 306.733 60.1214 306.942 60.2655C307.15 60.4096 307.327 60.5949 307.461 60.8099C307.595 61.0249 307.683 61.2651 307.721 61.5157C307.759 61.7663 307.745 62.022 307.68 62.2669Z" fill="white"/>
<path d="M115.542 159.133C114.756 159.133 114.017 159.133 113.247 159.063L113.302 158.277C114.872 158.384 116.447 158.384 118.018 158.277L118.081 159.063C117.2 159.102 116.328 159.133 115.542 159.133ZM110.04 158.701C108.445 158.454 106.869 158.097 105.324 157.632L105.552 156.846C107.054 157.3 108.585 157.652 110.134 157.899L110.04 158.701ZM121.209 158.646L121.075 157.86C122.617 157.589 124.136 157.2 125.618 156.697H125.689L125.941 157.443H125.878C124.356 157.969 122.795 158.371 121.209 158.646ZM102.345 156.563C100.857 155.96 99.4174 155.245 98.0375 154.425L98.4384 153.749C99.7874 154.548 101.193 155.246 102.644 155.84L102.345 156.563ZM128.919 156.194L128.574 155.486C129.977 154.81 131.307 153.991 132.543 153.042L133.022 153.663C131.737 154.642 130.358 155.489 128.904 156.194H128.919ZM95.373 152.633C94.0873 151.665 92.8905 150.584 91.7967 149.403L92.3783 148.868C93.4369 150.018 94.5971 151.07 95.8446 152.012L95.373 152.633ZM135.459 151.517L134.893 150.975C135.976 149.857 136.933 148.623 137.746 147.296L138.422 147.705C137.566 149.081 136.562 150.359 135.428 151.517H135.459ZM89.8003 146.903C88.8664 145.587 88.0759 144.175 87.4423 142.69L88.1654 142.384C88.7755 143.814 89.5342 145.176 90.4291 146.447L89.8003 146.903ZM139.908 144.852L139.185 144.537C139.801 143.104 140.277 141.614 140.607 140.089L141.393 140.254C141.047 141.831 140.55 143.37 139.908 144.852ZM86.3812 139.664C85.9223 138.119 85.5755 136.543 85.3436 134.948L86.1296 134.83C86.3577 136.38 86.6966 137.911 87.1436 139.413L86.3812 139.664ZM141.865 137.078L141.079 137.007C141.165 136.119 141.205 135.208 141.205 134.296C141.205 133.636 141.205 132.975 141.142 132.323L141.928 132.268C141.967 132.944 141.991 133.62 141.991 134.296C141.959 135.231 141.92 136.166 141.833 137.078H141.865ZM85.0371 131.773C85.0371 131.317 85.0371 130.861 85.0371 130.405C85.0377 129.257 85.1059 128.11 85.2415 126.97L86.0275 127.057C85.8947 128.168 85.8291 129.286 85.831 130.405C85.831 130.845 85.831 131.293 85.831 131.741L85.0371 131.773ZM140.788 129.21C140.538 127.664 140.186 126.136 139.735 124.636L140.521 124.408C140.979 125.942 141.339 127.504 141.598 129.085L140.788 129.21ZM86.5541 123.983L85.7681 123.803C86.146 122.237 86.6724 120.71 87.3401 119.244L88.0553 119.566C87.3964 120.985 86.8778 122.464 86.5069 123.983H86.5541ZM138.713 121.688C138.104 120.253 137.353 118.881 136.473 117.593L137.117 117.145C138.047 118.473 138.837 119.892 139.475 121.382L138.713 121.688ZM89.533 116.823L88.8649 116.406C89.7204 115.041 90.7133 113.766 91.8281 112.602L92.3941 113.144C91.2992 114.266 90.3245 115.499 89.4859 116.823H89.533ZM134.555 115.141C133.514 113.974 132.37 112.903 131.136 111.942L131.623 111.329C132.89 112.317 134.066 113.416 135.137 114.614L134.555 115.141ZM94.6971 111.054L94.2097 110.433C95.4762 109.437 96.8372 108.569 98.2733 107.839L98.6271 108.539C97.2228 109.246 95.8908 110.088 94.6499 111.054H94.6971ZM128.574 110.158C127.243 109.335 125.85 108.618 124.408 108.012L124.714 107.289C126.195 107.91 127.624 108.646 128.99 109.49L128.574 110.158ZM101.488 107.281L101.213 106.542L101.802 106.338C103.124 105.879 104.477 105.516 105.85 105.253L106 106.039C104.667 106.297 103.353 106.649 102.07 107.092L101.488 107.281ZM121.468 106.935C119.971 106.471 118.442 106.116 116.894 105.874L117.019 105.088C118.616 105.336 120.192 105.701 121.735 106.181L121.468 106.935ZM109.097 105.591L109.026 104.805C109.953 104.726 110.897 104.687 111.832 104.687C112.524 104.687 113.168 104.687 113.836 104.75L113.781 105.536C113.137 105.536 112.484 105.473 111.832 105.481C110.873 105.473 109.953 105.512 109.049 105.591H109.097Z" fill="#FF4848"/>
<path d="M130.617 109.914L130.264 109.215C130.264 109.215 131.836 108.429 134.296 106.857L134.72 107.517C132.213 109.105 130.68 109.883 130.617 109.914ZM137.346 105.741L136.898 105.096C138.155 104.216 139.428 103.273 140.67 102.298L141.15 102.919C139.908 103.901 138.619 104.852 137.346 105.741ZM143.634 100.93L143.13 100.325C144.325 99.3269 145.488 98.2736 146.644 97.1811L147.178 97.7549C145.999 98.8553 144.805 99.9164 143.602 100.93H143.634ZM149.45 95.5855L148.892 95.0353C150 93.9192 151.085 92.7716 152.122 91.6162L152.704 92.1428C151.635 93.3061 150.535 94.4694 149.418 95.5855H149.45Z" fill="#FF4848"/>
<g opacity="0.3">
<path d="M115.542 159.133C114.756 159.133 114.017 159.133 113.247 159.063L113.302 158.277C114.872 158.384 116.447 158.384 118.018 158.277L118.081 159.063C117.2 159.102 116.328 159.133 115.542 159.133ZM110.04 158.701C108.445 158.454 106.869 158.097 105.324 157.632L105.552 156.846C107.054 157.3 108.585 157.652 110.134 157.899L110.04 158.701ZM121.209 158.646L121.075 157.86C122.617 157.589 124.136 157.2 125.618 156.697H125.689L125.941 157.443H125.878C124.356 157.969 122.795 158.371 121.209 158.646ZM102.345 156.563C100.857 155.96 99.4174 155.245 98.0375 154.425L98.4384 153.749C99.7874 154.548 101.193 155.246 102.644 155.84L102.345 156.563ZM128.919 156.194L128.574 155.486C129.977 154.81 131.307 153.991 132.543 153.042L133.022 153.663C131.737 154.642 130.358 155.489 128.904 156.194H128.919ZM95.373 152.633C94.0873 151.665 92.8905 150.584 91.7967 149.403L92.3783 148.868C93.4369 150.018 94.5971 151.07 95.8446 152.012L95.373 152.633ZM135.459 151.517L134.893 150.975C135.976 149.857 136.933 148.623 137.746 147.296L138.422 147.705C137.566 149.081 136.562 150.359 135.428 151.517H135.459ZM89.8003 146.903C88.8664 145.587 88.0759 144.175 87.4423 142.69L88.1654 142.384C88.7755 143.814 89.5342 145.176 90.4291 146.447L89.8003 146.903ZM139.908 144.852L139.185 144.537C139.801 143.104 140.277 141.614 140.607 140.089L141.393 140.254C141.047 141.831 140.55 143.37 139.908 144.852ZM86.3812 139.664C85.9223 138.119 85.5755 136.543 85.3436 134.948L86.1296 134.83C86.3577 136.38 86.6966 137.911 87.1436 139.413L86.3812 139.664ZM141.865 137.078L141.079 137.007C141.165 136.119 141.205 135.208 141.205 134.296C141.205 133.636 141.205 132.975 141.142 132.323L141.928 132.268C141.967 132.944 141.991 133.62 141.991 134.296C141.959 135.231 141.92 136.166 141.833 137.078H141.865ZM85.0371 131.773C85.0371 131.317 85.0371 130.861 85.0371 130.405C85.0377 129.257 85.1059 128.11 85.2415 126.97L86.0275 127.057C85.8947 128.168 85.8291 129.286 85.831 130.405C85.831 130.845 85.831 131.293 85.831 131.741L85.0371 131.773ZM140.788 129.21C140.538 127.664 140.186 126.136 139.735 124.636L140.521 124.408C140.979 125.942 141.339 127.504 141.598 129.085L140.788 129.21ZM86.5541 123.983L85.7681 123.803C86.146 122.237 86.6724 120.71 87.3401 119.244L88.0553 119.566C87.3964 120.985 86.8778 122.464 86.5069 123.983H86.5541ZM138.713 121.688C138.104 120.253 137.353 118.881 136.473 117.593L137.117 117.145C138.047 118.473 138.837 119.892 139.475 121.382L138.713 121.688ZM89.533 116.823L88.8649 116.406C89.7204 115.041 90.7133 113.766 91.8281 112.602L92.3941 113.144C91.2992 114.266 90.3245 115.499 89.4859 116.823H89.533ZM134.555 115.141C133.514 113.974 132.37 112.903 131.136 111.942L131.623 111.329C132.89 112.317 134.066 113.416 135.137 114.614L134.555 115.141ZM94.6971 111.054L94.2097 110.433C95.4762 109.437 96.8372 108.569 98.2733 107.839L98.6271 108.539C97.2228 109.246 95.8908 110.088 94.6499 111.054H94.6971ZM128.574 110.158C127.243 109.335 125.85 108.618 124.408 108.012L124.714 107.289C126.195 107.91 127.624 108.646 128.99 109.49L128.574 110.158ZM101.488 107.281L101.213 106.542L101.802 106.338C103.124 105.879 104.477 105.516 105.85 105.253L106 106.039C104.667 106.297 103.353 106.649 102.07 107.092L101.488 107.281ZM121.468 106.935C119.971 106.471 118.442 106.116 116.894 105.874L117.019 105.088C118.616 105.336 120.192 105.701 121.735 106.181L121.468 106.935ZM109.097 105.591L109.026 104.805C109.953 104.726 110.897 104.687 111.832 104.687C112.524 104.687 113.168 104.687 113.836 104.75L113.781 105.536C113.137 105.536 112.484 105.473 111.832 105.481C110.873 105.473 109.953 105.512 109.049 105.591H109.097Z" fill="black"/>
<path d="M130.617 109.914L130.264 109.215C130.264 109.215 131.836 108.429 134.296 106.857L134.72 107.517C132.213 109.105 130.68 109.883 130.617 109.914ZM137.346 105.741L136.898 105.096C138.155 104.216 139.428 103.273 140.67 102.298L141.15 102.919C139.908 103.901 138.619 104.852 137.346 105.741ZM143.634 100.93L143.13 100.325C144.325 99.3269 145.489 98.2736 146.644 97.1811L147.178 97.7549C145.999 98.8553 144.805 99.9164 143.602 100.93H143.634ZM149.45 95.5855L148.892 95.0353C150 93.9192 151.085 92.7716 152.122 91.6162L152.704 92.1428C151.635 93.3061 150.535 94.4694 149.418 95.5855H149.45Z" fill="black"/>
</g>
<path d="M97.3619 132.04H92.418V136.984H97.3619V132.04Z" fill="#FF4848"/>
<path d="M107.25 127.096H102.306V136.984H107.25V127.096Z" fill="#FF4848"/>
<path d="M117.136 122.71H112.192V136.984H117.136V122.71Z" fill="#FF4848"/>
<path d="M127.025 118.214H122.081V136.984H127.025V118.214Z" fill="#FF4848"/>
<path opacity="0.5" d="M107.25 127.096H102.306V136.984H107.25V127.096Z" fill="white"/>
<path opacity="0.5" d="M127.025 118.214H122.081V136.984H127.025V118.214Z" fill="white"/>
<path d="M130.57 140.419H92.418V139.436H129.58V118.214H130.57V140.419Z" fill="#FF4848"/>
<g opacity="0.5">
<path d="M130.57 140.419H92.418V139.436H129.58V118.214H130.57V140.419Z" fill="white"/>
</g>
<path d="M94.7121 85.4303C93.8396 85.4303 92.9514 85.391 92.0868 85.3203L92.1497 84.5343C93.6921 84.6797 95.2447 84.6797 96.7871 84.5343L96.8657 85.3203C96.1504 85.3964 95.4314 85.4331 94.7121 85.4303ZM88.935 84.8958C87.366 84.6042 85.825 84.1782 84.329 83.6225L84.6041 82.8837C86.0565 83.4252 87.5528 83.8407 89.0764 84.1256L88.935 84.8958ZM100.018 84.7308L99.8132 83.9448C101.304 83.5451 102.749 82.9865 104.12 82.2785L104.482 82.978C103.061 83.7205 101.564 84.3082 100.018 84.7308ZM81.4129 82.3335C79.9959 81.5915 78.6536 80.715 77.4043 79.7161L77.8995 79.103C79.1041 80.0731 80.4021 80.9209 81.7745 81.6339L81.4129 82.3335ZM107.217 81.3667L106.769 80.7143C108.046 79.834 109.243 78.8424 110.346 77.7511L110.896 78.317C109.759 79.4367 108.528 80.457 107.217 81.3667ZM75.0699 77.531C73.9815 76.3558 73.0296 75.0611 72.2325 73.6718L72.9163 73.2788C73.6798 74.6302 74.5978 75.8883 75.6516 77.028L75.0699 77.531ZM113.049 75.959L112.436 75.4638C113.422 74.262 114.315 72.9877 115.109 71.6517L115.785 72.0526C114.972 73.4212 114.058 74.727 113.049 75.959ZM70.8491 70.7871C70.2765 69.2942 69.8628 67.7451 69.6151 66.1655L70.4011 66.0397C70.6385 67.5663 71.039 69.063 71.5958 70.5042L70.8491 70.7871ZM117.262 69.2151L116.555 68.885C117.206 67.4756 117.752 66.0202 118.19 64.5306L118.976 64.7507C118.522 66.2862 117.949 67.7841 117.262 69.2309V69.2151ZM69.3164 62.9271C69.3164 62.7385 69.3164 62.5499 69.3164 62.3534C69.3199 60.9502 69.4329 59.5495 69.6544 58.164L70.4404 58.2819C70.2218 59.6281 70.1114 60.9896 70.1103 62.3534C70.1103 62.542 70.1103 62.7228 70.1103 62.9114L69.3164 62.9271ZM119.62 61.6145L118.834 61.473C119.108 59.9476 119.247 58.4011 119.251 56.8514V56.7649H120.037V56.8514C120.056 58.4652 119.933 60.0775 119.668 61.6695L119.62 61.6145ZM71.0535 55.2558L70.2675 55.0436C70.6966 53.5094 71.2459 52.0113 71.9102 50.5634L72.6255 50.8935C72.0018 52.3235 71.492 53.8006 71.1006 55.3108L71.0535 55.2558ZM119.047 53.6838C118.841 52.1537 118.467 50.6512 117.931 49.2036L118.661 48.9285C119.22 50.4291 119.61 51.987 119.825 53.5737L119.047 53.6838ZM74.1031 48.1818L73.4272 47.7809C74.2395 46.3988 75.1621 45.0845 76.186 43.8509L76.7913 44.354C75.808 45.5641 74.9248 46.8521 74.1503 48.2054L74.1031 48.1818ZM116.626 46.4526C115.857 45.1155 114.931 43.8753 113.867 42.7584L114.441 42.216C115.544 43.3791 116.504 44.6694 117.302 46.0596L116.626 46.4526ZM78.8977 42.1217L78.3554 41.5558C79.5085 40.451 80.7579 39.4514 82.0889 38.569L82.5212 39.2214C81.2497 40.0913 80.0557 41.0696 78.9528 42.1453L78.8977 42.1217ZM111.611 40.7148C110.387 39.7717 109.07 38.9553 107.681 38.2782L108.035 37.5708C109.469 38.2765 110.83 39.1216 112.098 40.0938L111.611 40.7148ZM85.2565 37.728L84.9106 37.0206C86.347 36.3181 87.8507 35.7624 89.3987 35.3621L89.5873 36.1481C88.0931 36.5238 86.6417 37.0533 85.2565 37.728ZM104.844 37.1149C103.379 36.6073 101.875 36.2208 100.348 35.9595L100.481 35.1735C102.05 35.4501 103.595 35.8469 105.103 36.3603L104.844 37.1149ZM92.6213 35.5901L92.5427 34.8041C94.1327 34.6665 95.7316 34.6665 97.3216 34.8041L97.2666 35.5901C95.7219 35.4447 94.1674 35.4368 92.6213 35.5665V35.5901Z" fill="#FF4848"/>
<path d="M133.321 80.1719C131.749 80.1719 130.177 80.0383 128.605 79.8576L128.7 79.0715C130.247 79.2566 131.803 79.3615 133.361 79.3859L133.321 80.1719ZM136.465 80.1169L136.426 79.3309C137.978 79.2453 139.524 79.0695 141.056 78.8043L141.197 79.5903C139.64 79.8649 138.068 80.0434 136.489 80.1248L136.465 80.1169ZM125.438 79.3859C123.866 79.1187 122.341 78.7729 120.8 78.3641L121.005 77.5781C122.522 77.979 124.062 78.3248 125.579 78.5921L125.438 79.3859ZM144.302 78.8751L144.097 78.0891C145.174 77.7982 146.235 77.4524 147.241 77.0672L147.524 77.7982C146.474 78.216 145.404 78.5806 144.317 78.8908L144.302 78.8751ZM117.751 77.4681C116.229 76.997 114.738 76.4326 113.286 75.7782L113.616 75.0708C115.04 75.7035 116.5 76.2546 117.986 76.7214L117.751 77.4681Z" fill="#FF4848"/>
<g opacity="0.3">
<path d="M94.7121 85.4303C93.8396 85.4303 92.9514 85.391 92.0868 85.3203L92.1497 84.5343C93.6921 84.6797 95.2447 84.6797 96.7871 84.5343L96.8657 85.3203C96.1504 85.3964 95.4314 85.4331 94.7121 85.4303ZM88.935 84.8958C87.366 84.6042 85.825 84.1782 84.329 83.6225L84.6041 82.8837C86.0565 83.4252 87.5528 83.8407 89.0764 84.1256L88.935 84.8958ZM100.018 84.7308L99.8132 83.9448C101.304 83.5451 102.749 82.9865 104.12 82.2785L104.482 82.978C103.061 83.7205 101.564 84.3082 100.018 84.7308ZM81.4129 82.3335C79.9959 81.5915 78.6536 80.715 77.4043 79.7161L77.8995 79.103C79.1041 80.0731 80.4021 80.9209 81.7745 81.6339L81.4129 82.3335ZM107.217 81.3667L106.769 80.7143C108.046 79.834 109.243 78.8424 110.346 77.7511L110.896 78.317C109.759 79.4367 108.528 80.457 107.217 81.3667ZM75.0699 77.531C73.9815 76.3558 73.0296 75.0611 72.2325 73.6718L72.9163 73.2788C73.6798 74.6302 74.5978 75.8883 75.6516 77.028L75.0699 77.531ZM113.049 75.959L112.436 75.4638C113.422 74.262 114.315 72.9877 115.109 71.6517L115.785 72.0526C114.972 73.4212 114.058 74.727 113.049 75.959ZM70.8491 70.7871C70.2765 69.2942 69.8628 67.7451 69.6151 66.1655L70.4011 66.0397C70.6385 67.5663 71.039 69.063 71.5958 70.5042L70.8491 70.7871ZM117.262 69.2151L116.555 68.885C117.206 67.4756 117.752 66.0202 118.19 64.5306L118.976 64.7507C118.522 66.2862 117.949 67.7841 117.262 69.2309V69.2151ZM69.3164 62.9271C69.3164 62.7385 69.3164 62.5499 69.3164 62.3534C69.3199 60.9502 69.4329 59.5495 69.6544 58.164L70.4404 58.2819C70.2218 59.6281 70.1114 60.9896 70.1103 62.3534C70.1103 62.542 70.1103 62.7228 70.1103 62.9114L69.3164 62.9271ZM119.62 61.6145L118.834 61.473C119.108 59.9476 119.247 58.4011 119.251 56.8514V56.7649H120.037V56.8514C120.056 58.4652 119.933 60.0775 119.668 61.6695L119.62 61.6145ZM71.0535 55.2558L70.2675 55.0436C70.6966 53.5094 71.2459 52.0113 71.9102 50.5634L72.6255 50.8935C72.0018 52.3235 71.492 53.8006 71.1006 55.3108L71.0535 55.2558ZM119.047 53.6838C118.841 52.1537 118.467 50.6512 117.931 49.2036L118.661 48.9285C119.22 50.4291 119.61 51.987 119.825 53.5737L119.047 53.6838ZM74.1031 48.1818L73.4272 47.7809C74.2395 46.3988 75.1621 45.0845 76.186 43.8509L76.7913 44.354C75.808 45.5641 74.9248 46.8521 74.1503 48.2054L74.1031 48.1818ZM116.626 46.4526C115.857 45.1155 114.931 43.8753 113.867 42.7584L114.441 42.216C115.544 43.3791 116.504 44.6694 117.302 46.0596L116.626 46.4526ZM78.8977 42.1217L78.3554 41.5558C79.5085 40.451 80.7579 39.4514 82.0889 38.569L82.5212 39.2214C81.2497 40.0913 80.0557 41.0696 78.9528 42.1453L78.8977 42.1217ZM111.611 40.7148C110.387 39.7717 109.07 38.9553 107.681 38.2782L108.035 37.5708C109.469 38.2765 110.83 39.1216 112.098 40.0938L111.611 40.7148ZM85.2565 37.728L84.9106 37.0206C86.347 36.3181 87.8507 35.7624 89.3987 35.3621L89.5873 36.1481C88.0931 36.5238 86.6417 37.0533 85.2565 37.728ZM104.844 37.1149C103.379 36.6073 101.875 36.2208 100.348 35.9595L100.481 35.1735C102.05 35.4501 103.595 35.8469 105.103 36.3603L104.844 37.1149ZM92.6213 35.5901L92.5427 34.8041C94.1327 34.6665 95.7316 34.6665 97.3216 34.8041L97.2666 35.5901C95.7219 35.4447 94.1674 35.4368 92.6213 35.5665V35.5901Z" fill="black"/>
<path d="M133.321 80.1719C131.749 80.1719 130.177 80.0383 128.605 79.8576L128.7 79.0715C130.247 79.2566 131.803 79.3615 133.361 79.3859L133.321 80.1719ZM136.465 80.1169L136.426 79.3309C137.978 79.2453 139.524 79.0695 141.056 78.8043L141.197 79.5903C139.64 79.8649 138.068 80.0434 136.489 80.1248L136.465 80.1169ZM125.438 79.3859C123.866 79.1187 122.341 78.7729 120.8 78.3641L121.005 77.5781C122.522 77.979 124.062 78.3248 125.579 78.5921L125.438 79.3859ZM144.302 78.8751L144.097 78.0891C145.174 77.7982 146.235 77.4524 147.241 77.0672L147.524 77.7982C146.474 78.216 145.404 78.5806 144.317 78.8908L144.302 78.8751ZM117.751 77.4681C116.229 76.997 114.738 76.4326 113.286 75.7782L113.616 75.0708C115.04 75.7035 116.5 76.2546 117.986 76.7214L117.751 77.4681Z" fill="black"/>
</g>
<path d="M100.804 53.9271C100.804 48.2758 93.9025 43.7091 85.3823 43.7091C76.8621 43.7091 69.9531 48.2758 69.9531 53.9271C69.9531 59.5784 76.8542 64.1451 85.3744 64.1451C86.7987 64.1459 88.2199 64.0117 89.6188 63.7442C90.4866 64.7078 91.5474 65.478 92.7323 66.0047C93.9172 66.5315 95.1996 66.8031 96.4963 66.8018C96.6759 66.8143 96.8543 66.7648 97.0018 66.6616C97.1492 66.5584 97.2568 66.4077 97.3065 66.2347C97.3561 66.0617 97.345 65.8769 97.2748 65.7111C97.2046 65.5454 97.0796 65.4088 96.9208 65.3241C95.7482 64.5671 94.7599 63.5573 94.0283 62.3687C98.1312 60.5216 100.804 57.4405 100.804 53.9271Z" fill="#FF4848"/>
<path d="M77.9782 54.4853C77.9797 54.7844 77.8924 55.0773 77.7271 55.3267C77.5619 55.576 77.3263 55.7707 77.0502 55.8859C76.7741 56.0011 76.4701 56.0316 76.1766 55.9736C75.8831 55.9157 75.6135 55.7718 75.402 55.5602C75.1904 55.3487 75.0466 55.0791 74.9886 54.7856C74.9306 54.4921 74.9611 54.1881 75.0763 53.912C75.1915 53.6359 75.3862 53.4003 75.6356 53.2351C75.8849 53.0699 76.1778 52.9825 76.4769 52.984C76.8751 52.984 77.2569 53.1422 77.5385 53.4237C77.82 53.7053 77.9782 54.0871 77.9782 54.4853Z" fill="white"/>
<path d="M84.1012 54.4853C84.1028 54.7841 84.0156 55.0766 83.8507 55.3258C83.6859 55.575 83.4507 55.7697 83.1751 55.8851C82.8995 56.0005 82.5958 56.0315 82.3025 55.9742C82.0093 55.9169 81.7397 55.7738 81.5278 55.563C81.316 55.3523 81.1715 55.0834 81.1126 54.7904C81.0537 54.4975 81.0831 54.1937 81.1971 53.9174C81.3111 53.6412 81.5045 53.4051 81.7529 53.2389C82.0012 53.0727 82.2933 52.984 82.5921 52.984C82.991 52.984 83.3737 53.1419 83.6564 53.4232C83.9392 53.7046 84.0992 54.0864 84.1012 54.4853Z" fill="white"/>
<path d="M90.1374 54.4853C90.1389 54.7844 90.0515 55.0773 89.8863 55.3267C89.7211 55.576 89.4855 55.7707 89.2094 55.8859C88.9333 56.0011 88.6292 56.0316 88.3358 55.9736C88.0423 55.9157 87.7727 55.7718 87.5612 55.5602C87.3496 55.3487 87.2057 55.0791 87.1478 54.7856C87.0898 54.4921 87.1203 54.1881 87.2355 53.912C87.3507 53.6359 87.5454 53.4003 87.7947 53.2351C88.0441 53.0699 88.337 52.9825 88.6361 52.984C89.0336 52.9861 89.4143 53.1449 89.6954 53.426C89.9765 53.7071 90.1353 54.0878 90.1374 54.4853Z" fill="white"/>
<path d="M96.2135 54.4853C96.2135 54.7822 96.1254 55.0724 95.9604 55.3193C95.7955 55.5662 95.561 55.7586 95.2867 55.8722C95.0124 55.9859 94.7105 56.0156 94.4193 55.9577C94.1281 55.8998 93.8606 55.7568 93.6506 55.5468C93.4407 55.3369 93.2977 55.0694 93.2398 54.7781C93.1819 54.4869 93.2116 54.1851 93.3252 53.9108C93.4388 53.6364 93.6313 53.402 93.8781 53.237C94.125 53.0721 94.4153 52.984 94.7122 52.984C95.1104 52.984 95.4922 53.1422 95.7737 53.4237C96.0553 53.7053 96.2135 54.0871 96.2135 54.4853Z" fill="white"/>
<path d="M99.4443 63.5321C99.4443 59.7436 104.082 56.6625 109.804 56.6625C115.526 56.6625 120.163 59.7436 120.163 63.5321C120.163 67.3206 115.526 70.4018 109.804 70.4018C108.846 70.4026 107.891 70.3131 106.951 70.1345C106.368 70.7805 105.656 71.297 104.862 71.6504C104.067 72.0038 103.207 72.1863 102.337 72.186C102.221 72.1851 102.108 72.1465 102.016 72.0759C101.924 72.0052 101.857 71.9065 101.826 71.7946C101.795 71.6826 101.801 71.5636 101.843 71.4556C101.886 71.3475 101.963 71.2562 102.062 71.1956C102.847 70.6864 103.508 70.0067 103.995 69.207C101.244 67.973 99.4443 65.8901 99.4443 63.5321Z" fill="#FF4848"/>
<path opacity="0.6" d="M99.4443 63.5321C99.4443 59.7436 104.082 56.6625 109.804 56.6625C115.526 56.6625 120.163 59.7436 120.163 63.5321C120.163 67.3206 115.526 70.4018 109.804 70.4018C108.846 70.4026 107.891 70.3131 106.951 70.1345C106.368 70.7805 105.656 71.297 104.862 71.6504C104.067 72.0038 103.207 72.1863 102.337 72.186C102.221 72.1851 102.108 72.1465 102.016 72.0759C101.924 72.0052 101.857 71.9065 101.826 71.7946C101.795 71.6826 101.801 71.5636 101.843 71.4556C101.886 71.3475 101.963 71.2562 102.062 71.1956C102.847 70.6864 103.508 70.0067 103.995 69.207C101.244 67.973 99.4443 65.8901 99.4443 63.5321Z" fill="white"/>
<path d="M103.956 63.3357C103.956 63.5552 103.891 63.7698 103.768 63.9522C103.646 64.1346 103.473 64.2767 103.27 64.3603C103.067 64.444 102.844 64.4655 102.628 64.4221C102.413 64.3787 102.216 64.2723 102.061 64.1165C101.906 63.9608 101.801 63.7626 101.76 63.5471C101.718 63.3316 101.741 63.1085 101.826 62.9061C101.911 62.7037 102.054 62.5312 102.238 62.4104C102.421 62.2896 102.636 62.2259 102.855 62.2274C103.001 62.2274 103.144 62.2562 103.278 62.312C103.412 62.3677 103.534 62.4495 103.636 62.5525C103.739 62.6555 103.819 62.7778 103.874 62.9122C103.929 63.0466 103.957 63.1905 103.956 63.3357Z" fill="#FF4848"/>
<path d="M108.467 63.3357C108.467 63.5549 108.403 63.7691 108.281 63.9514C108.159 64.1336 107.986 64.2757 107.783 64.3596C107.581 64.4435 107.358 64.4654 107.143 64.4226C106.928 64.3799 106.731 64.2743 106.576 64.1193C106.421 63.9643 106.315 63.7669 106.272 63.5519C106.23 63.3369 106.251 63.1141 106.335 62.9116C106.419 62.7091 106.561 62.536 106.744 62.4142C106.926 62.2924 107.14 62.2274 107.359 62.2274C107.653 62.2274 107.935 62.3442 108.143 62.552C108.351 62.7599 108.467 63.0418 108.467 63.3357Z" fill="#FF4848"/>
<path d="M112.892 63.3357C112.892 63.5549 112.827 63.7691 112.706 63.9514C112.584 64.1336 112.411 64.2757 112.208 64.3596C112.006 64.4435 111.783 64.4654 111.568 64.4226C111.353 64.3799 111.155 64.2743 111 64.1193C110.845 63.9643 110.74 63.7669 110.697 63.5519C110.654 63.3369 110.676 63.1141 110.76 62.9116C110.844 62.7091 110.986 62.536 111.168 62.4142C111.351 62.2924 111.565 62.2274 111.784 62.2274C112.078 62.2274 112.36 62.3442 112.568 62.552C112.776 62.7599 112.892 63.0418 112.892 63.3357Z" fill="#FF4848"/>
<path d="M117.356 63.3357C117.356 63.5552 117.291 63.7698 117.169 63.9522C117.047 64.1346 116.873 64.2767 116.67 64.3603C116.467 64.444 116.244 64.4655 116.029 64.4221C115.814 64.3787 115.616 64.2723 115.461 64.1165C115.307 63.9608 115.202 63.7626 115.16 63.5471C115.118 63.3316 115.141 63.1085 115.226 62.9061C115.311 62.7037 115.455 62.5312 115.638 62.4104C115.821 62.2896 116.036 62.2259 116.256 62.2274C116.401 62.2274 116.545 62.2562 116.679 62.312C116.813 62.3677 116.934 62.4495 117.037 62.5525C117.139 62.6555 117.22 62.7778 117.275 62.9122C117.33 63.0466 117.357 63.1905 117.356 63.3357Z" fill="#FF4848"/>
<path d="M225.408 128.275L228.804 149.34L213.155 144.309C213.155 144.309 204.422 114.095 190.589 106.715C190.589 106.715 168.384 107.053 165.106 91.2779C165.106 91.2779 130.522 97.6523 130.522 71.4707C130.522 45.289 152.232 16.0891 204.406 16.0891C261.226 16.0891 276.113 72.1388 264.826 86.2396C264.826 86.2396 272.246 111.321 234.384 116.839C228.513 117.695 224.528 122.844 225.408 128.275Z" fill="#FF4848"/>
<path opacity="0.4" d="M225.408 128.275L228.804 149.34L213.155 144.309C213.155 144.309 204.422 114.095 190.589 106.715C190.589 106.715 168.384 107.053 165.106 91.2779C165.106 91.2779 130.522 97.6523 130.522 71.4707C130.522 45.289 152.232 16.0891 204.406 16.0891C261.226 16.0891 276.113 72.1388 264.826 86.2396C264.826 86.2396 272.246 111.321 234.384 116.839C228.513 117.695 224.528 122.844 225.408 128.275Z" fill="white"/>
<path d="M249.099 51.9465C249.187 51.2346 249.231 50.518 249.232 49.8007C249.231 49.086 249.187 48.372 249.099 47.6628L244.933 46.1773C244.631 45.0527 244.184 43.9721 243.604 42.9625L245.499 38.9697C244.616 37.8428 243.599 36.8267 242.473 35.9436L238.48 37.8378C237.469 37.2592 236.389 36.8127 235.265 36.5095L233.779 32.3437C232.357 32.1656 230.918 32.1656 229.496 32.3437L228.018 36.5095C226.891 36.8112 225.808 37.2577 224.795 37.8378L220.803 35.9436C219.676 36.8267 218.66 37.8428 217.776 38.9697L219.671 42.9625C219.094 43.9737 218.648 45.0539 218.342 46.1773L214.177 47.6628C214.088 48.372 214.044 49.086 214.043 49.8007C214.044 50.518 214.089 51.2346 214.177 51.9465L218.342 53.4242C218.649 54.5496 219.095 55.6322 219.671 56.6468L217.776 60.6318C218.66 61.7611 219.676 62.7798 220.803 63.6658L224.795 61.7636C225.809 62.343 226.892 62.7919 228.018 63.0998L229.496 67.2656C230.918 67.4438 232.357 67.4438 233.779 67.2656L235.265 63.0998C236.388 62.7905 237.468 62.3416 238.48 61.7636L242.473 63.6658C243.6 62.7798 244.616 61.7611 245.499 60.6318L243.604 56.6468C244.183 55.6338 244.63 54.5508 244.933 53.4242L249.099 51.9465ZM231.641 57.1577C230.186 57.1592 228.763 56.7291 227.552 55.9216C226.341 55.1142 225.397 53.9657 224.839 52.6216C224.281 51.2774 224.134 49.7979 224.417 48.3703C224.7 46.9427 225.4 45.631 226.429 44.6014C227.457 43.5717 228.768 42.8702 230.195 42.5857C231.623 42.3012 233.102 42.4464 234.447 43.003C235.792 43.5596 236.941 44.5026 237.75 45.7126C238.559 46.9226 238.991 48.3453 238.991 49.8007C238.991 51.7506 238.217 53.6206 236.839 55.0001C235.461 56.3796 233.591 57.1556 231.641 57.1577Z" fill="black"/>
<path d="M247.983 79.0871C248.056 78.3396 248.056 77.5867 247.983 76.8392L244.202 75.9195C244.042 75.3587 243.817 74.8181 243.534 74.3082L245.554 70.9913C245.085 70.415 244.558 69.8883 243.982 69.4193L240.665 71.4472C240.155 71.1591 239.611 70.9348 239.046 70.7791L238.158 66.9749C237.784 66.9341 237.409 66.9131 237.034 66.912C236.658 66.9129 236.283 66.9339 235.91 66.9749L234.951 70.7398C234.389 70.8969 233.848 71.1212 233.34 71.4079L230.015 69.38C229.438 69.849 228.912 70.3757 228.443 70.952L230.471 74.2689C230.184 74.7772 229.96 75.3182 229.803 75.8802L226.014 76.7999C226.014 77.1693 225.959 77.5859 225.959 77.9238C225.959 78.2618 225.959 78.7098 226.014 79.0478L229.803 79.9674C229.96 80.5295 230.184 81.0705 230.471 81.5787L228.443 84.8957C228.914 85.4701 229.44 85.9967 230.015 86.4677L233.34 84.4398C233.849 84.7232 234.39 84.9474 234.951 85.1079L235.87 88.8885C236.244 88.9295 236.619 88.9505 236.994 88.9514C237.37 88.9503 237.745 88.9293 238.118 88.8885L239.03 85.1079C239.594 84.9488 240.137 84.7246 240.649 84.4398L243.966 86.4677C244.541 85.9967 245.067 85.4701 245.538 84.8957L243.518 81.5787C243.802 81.0689 244.026 80.5283 244.186 79.9674L247.983 79.0871ZM236.979 81.0443C236.369 81.0443 235.774 80.8636 235.267 80.525C234.76 80.1864 234.365 79.7052 234.132 79.1422C233.899 78.5792 233.838 77.9597 233.957 77.362C234.076 76.7644 234.369 76.2154 234.8 75.7845C235.231 75.3536 235.78 75.0601 236.378 74.9412C236.975 74.8223 237.595 74.8834 238.158 75.1166C238.721 75.3498 239.202 75.7447 239.541 76.2514C239.879 76.758 240.06 77.3538 240.06 77.9631C240.06 78.7776 239.737 79.5589 239.163 80.1363C238.589 80.7137 237.809 81.0401 236.994 81.0443H236.979Z" fill="black"/>
<path d="M217.965 36.2893C218.028 35.6778 218.028 35.0615 217.965 34.45L214.876 33.664C214.746 33.2073 214.564 32.7669 214.334 32.3514L215.984 29.6397C215.596 29.1653 215.162 28.7308 214.688 28.3428L211.976 29.9934C211.56 29.7632 211.12 29.5813 210.663 29.4511L209.877 26.3621C209.574 26.3305 209.27 26.3148 208.965 26.3149C208.658 26.315 208.351 26.3307 208.046 26.3621L207.26 29.4511C206.801 29.5827 206.358 29.7645 205.939 29.9934L203.236 28.3428C202.781 28.7463 202.368 29.1939 202.002 29.679L203.652 32.3907C203.422 32.8062 203.24 33.2466 203.11 33.7033L200.021 34.4893C199.958 35.1008 199.958 35.7171 200.021 36.3286L203.11 37.1146C203.24 37.5714 203.422 38.0118 203.652 38.4272L202.002 41.1389C202.39 41.6133 202.824 42.0478 203.298 42.4358L206.002 40.7852C206.421 41.0141 206.864 41.196 207.323 41.3275L208.109 44.4165C208.414 44.4479 208.721 44.4636 209.028 44.4637C209.333 44.4639 209.637 44.4481 209.94 44.4165L210.726 41.3275C211.183 41.1974 211.623 41.0154 212.039 40.7852L214.75 42.4358C215.225 42.0478 215.659 41.6133 216.047 41.1389L214.397 38.4272C214.627 38.0118 214.809 37.5714 214.939 37.1146L217.965 36.2893ZM208.997 37.8613C208.499 37.8613 208.013 37.7138 207.6 37.4374C207.186 37.161 206.864 36.7682 206.673 36.3086C206.483 35.849 206.433 35.3433 206.53 34.8554C206.627 34.3675 206.867 33.9193 207.218 33.5676C207.57 33.2158 208.018 32.9763 208.506 32.8792C208.994 32.7822 209.5 32.832 209.959 33.0223C210.419 33.2127 210.812 33.5351 211.088 33.9487C211.365 34.3623 211.512 34.8486 211.512 35.3461C211.515 35.6784 211.452 36.008 211.327 36.3158C211.202 36.6237 211.018 36.9038 210.784 37.1399C210.55 37.3759 210.272 37.5633 209.965 37.6912C209.658 37.819 209.329 37.8849 208.997 37.8849V37.8613Z" fill="black"/>
<path d="M157.286 65.0969L154.63 65.5135C154.032 65.6105 153.419 65.5466 152.854 65.3283C152.289 65.1101 151.792 64.7454 151.415 64.2716L159.959 62.9197C159.743 63.485 159.383 63.9838 158.914 64.3659C158.445 64.748 157.884 65.0001 157.286 65.0969Z" fill="black"/>
<path d="M159.045 57.1462L150.506 58.4988L151.278 63.3741L159.818 62.0216L159.045 57.1462Z" fill="black"/>
<path d="M164.674 40.8721C164.399 39.1292 163.758 37.4642 162.793 35.9865C161.829 34.5089 160.563 33.2518 159.078 32.298C157.594 31.3442 155.924 30.7151 154.179 30.4521C152.435 30.1891 150.654 30.2982 148.954 30.772C143.861 32.1632 139.64 37.846 139.797 43.1358C139.853 45.2131 140.425 47.2437 141.463 49.0442C142.5 50.8447 143.97 52.3583 145.739 53.4481C147.709 54.7004 149.209 56.5683 150.007 58.7615C150.069 58.9142 150.18 59.0419 150.322 59.1245C150.464 59.2071 150.63 59.2398 150.793 59.2173L158.826 57.944C158.992 57.9156 159.143 57.8316 159.254 57.7059C159.366 57.5801 159.431 57.4202 159.439 57.2523C159.559 54.8739 160.447 52.5985 161.97 50.7678C163.096 49.4038 163.919 47.8163 164.385 46.1104C164.851 44.4045 164.95 42.619 164.674 40.8721Z" fill="#FF4848"/>
<path opacity="0.7" d="M164.674 40.8721C164.399 39.1292 163.758 37.4642 162.793 35.9865C161.829 34.5089 160.563 33.2518 159.078 32.298C157.594 31.3442 155.924 30.7151 154.179 30.4521C152.435 30.1891 150.654 30.2982 148.954 30.772C143.861 32.1632 139.64 37.846 139.797 43.1358C139.853 45.2131 140.425 47.2437 141.463 49.0442C142.5 50.8447 143.97 52.3583 145.739 53.4481C147.709 54.7004 149.209 56.5683 150.007 58.7615C150.069 58.9142 150.18 59.0419 150.322 59.1245C150.464 59.2071 150.63 59.2398 150.793 59.2173L158.826 57.944C158.992 57.9156 159.143 57.8316 159.254 57.7059C159.366 57.5801 159.431 57.4202 159.439 57.2523C159.559 54.8739 160.447 52.5985 161.97 50.7678C163.096 49.4038 163.919 47.8163 164.385 46.1104C164.851 44.4045 164.95 42.619 164.674 40.8721Z" fill="white"/>
<path d="M159.291 60.5222L151.164 61.8113C150.882 61.8542 150.595 61.7841 150.366 61.6162C150.136 61.4483 149.982 61.1963 149.937 60.9152C149.915 60.7768 149.92 60.6354 149.953 60.499C149.986 60.3627 150.045 60.2342 150.128 60.1209C150.21 60.0076 150.314 59.9118 150.434 59.839C150.554 59.7663 150.687 59.718 150.826 59.6969L158.961 58.4079C159.099 58.3855 159.241 58.3908 159.377 58.4234C159.513 58.4561 159.642 58.5154 159.755 58.598C159.868 58.6805 159.964 58.7848 160.037 58.9046C160.11 59.0244 160.158 59.1575 160.179 59.2961C160.222 59.5762 160.153 59.862 159.987 60.0916C159.821 60.3211 159.57 60.4759 159.291 60.5222Z" fill="black"/>
<path d="M159.708 63.1316L151.572 64.4521C151.291 64.495 151.004 64.4249 150.774 64.257C150.545 64.0891 150.391 63.8371 150.346 63.556C150.325 63.4172 150.331 63.2755 150.365 63.1391C150.398 63.0028 150.459 62.8743 150.542 62.7612C150.625 62.648 150.73 62.5524 150.85 62.4798C150.97 62.4071 151.103 62.3588 151.242 62.3377L159.37 61.0487C159.65 61.0055 159.936 61.0746 160.165 61.2409C160.395 61.4072 160.549 61.6572 160.596 61.9369C160.63 62.2121 160.557 62.4899 160.391 62.7124C160.226 62.935 159.981 63.0851 159.708 63.1316Z" fill="black"/>
<g opacity="0.5">
<path d="M159.291 60.5222L151.164 61.8113C150.882 61.8542 150.595 61.7841 150.366 61.6162C150.136 61.4483 149.982 61.1963 149.937 60.9152C149.915 60.7768 149.92 60.6354 149.953 60.499C149.986 60.3627 150.045 60.2342 150.128 60.1209C150.21 60.0076 150.314 59.9118 150.434 59.839C150.554 59.7663 150.687 59.718 150.826 59.6969L158.961 58.4079C159.099 58.3855 159.241 58.3908 159.377 58.4234C159.513 58.4561 159.642 58.5154 159.755 58.598C159.868 58.6805 159.964 58.7848 160.037 58.9046C160.11 59.0244 160.158 59.1575 160.179 59.2961C160.222 59.5762 160.153 59.862 159.987 60.0916C159.821 60.3211 159.57 60.4759 159.291 60.5222Z" fill="white"/>
<path d="M159.708 63.1317L151.572 64.4522C151.291 64.4951 151.004 64.425 150.774 64.2571C150.545 64.0892 150.391 63.8372 150.346 63.5561C150.325 63.4173 150.331 63.2756 150.365 63.1393C150.398 63.0029 150.459 62.8745 150.542 62.7613C150.625 62.6482 150.73 62.5525 150.85 62.4799C150.97 62.4072 151.103 62.3589 151.242 62.3378L159.37 61.0488C159.65 61.0057 159.936 61.0747 160.165 61.241C160.395 61.4073 160.549 61.6574 160.596 61.937C160.63 62.2122 160.557 62.49 160.391 62.7125C160.226 62.9351 159.981 63.0852 159.708 63.1317Z" fill="white"/>
</g>
<path opacity="0.5" d="M159.746 37.3667C159.227 39.5203 157.121 38.5693 154.409 37.9012C151.697 37.2331 149.387 37.1152 149.913 34.9615C150.44 32.8079 153.057 31.6053 155.785 32.2655C158.512 32.9258 160.273 35.213 159.746 37.3667Z" fill="white"/>
<path d="M145.221 28.7913L143.563 24.7749C143.505 24.6377 143.475 24.4905 143.475 24.3416C143.474 24.1928 143.503 24.0454 143.56 23.9079C143.617 23.7704 143.701 23.6457 143.807 23.5408C143.912 23.436 144.038 23.3532 144.176 23.2972C144.314 23.2393 144.461 23.2092 144.611 23.2087C144.76 23.2083 144.908 23.2373 145.046 23.2943C145.184 23.3513 145.31 23.4351 145.415 23.5408C145.521 23.6465 145.605 23.7721 145.661 23.9103L147.32 27.9189C147.378 28.0566 147.408 28.2044 147.408 28.3538C147.409 28.5032 147.38 28.6513 147.323 28.7894C147.266 28.9275 147.182 29.0529 147.076 29.1585C146.97 29.264 146.845 29.3476 146.707 29.4044C146.428 29.5171 146.116 29.516 145.839 29.4013C145.561 29.2867 145.339 29.0677 145.221 28.7913Z" fill="#FF4848"/>
<path d="M165.845 37.335C165.733 37.0564 165.734 36.7448 165.849 36.467C165.963 36.1892 166.182 35.9675 166.458 35.8495L170.475 34.191C170.612 34.1333 170.759 34.1033 170.908 34.1029C171.057 34.1025 171.204 34.1317 171.342 34.1887C171.479 34.2457 171.604 34.3295 171.709 34.4352C171.814 34.5408 171.897 34.6662 171.953 34.8041C172.011 34.9418 172.041 35.0896 172.041 35.239C172.042 35.3884 172.013 35.5365 171.956 35.6746C171.899 35.8127 171.815 35.9381 171.709 36.0437C171.603 36.1492 171.478 36.2328 171.34 36.2896L167.331 37.9481C167.193 38.006 167.045 38.0361 166.896 38.0366C166.747 38.0371 166.599 38.008 166.46 37.951C166.322 37.894 166.197 37.8102 166.091 37.7045C165.986 37.5988 165.902 37.4732 165.845 37.335Z" fill="#FF4848"/>
<path d="M132.669 51.0899C132.611 50.9522 132.581 50.8043 132.58 50.6549C132.58 50.5055 132.609 50.3575 132.666 50.2194C132.723 50.0813 132.806 49.9559 132.912 49.8503C133.018 49.7447 133.143 49.6611 133.282 49.6044L137.29 47.9459C137.428 47.888 137.576 47.8579 137.725 47.8574C137.875 47.8569 138.023 47.886 138.161 47.943C138.299 48 138.424 48.0838 138.53 48.1895C138.635 48.2952 138.719 48.4208 138.776 48.559C138.888 48.8375 138.887 49.1492 138.773 49.427C138.658 49.7047 138.439 49.9265 138.163 50.0445L134.146 51.703C134.009 51.7607 133.862 51.7907 133.713 51.7911C133.564 51.7915 133.417 51.7623 133.279 51.7053C133.142 51.6482 133.017 51.5645 132.912 51.4588C132.807 51.3532 132.725 51.2278 132.669 51.0899Z" fill="#FF4848"/>
<path d="M157.923 29.4044C157.785 29.3476 157.659 29.264 157.554 29.1585C157.448 29.0529 157.364 28.9275 157.307 28.7894C157.25 28.6513 157.221 28.5032 157.222 28.3538C157.222 28.2044 157.252 28.0566 157.31 27.9189L158.969 23.9103C159.025 23.7721 159.109 23.6465 159.215 23.5408C159.32 23.4351 159.446 23.3513 159.584 23.2943C159.722 23.2373 159.87 23.2083 160.019 23.2087C160.169 23.2092 160.316 23.2393 160.454 23.2972C160.592 23.3532 160.717 23.436 160.823 23.5408C160.929 23.6457 161.012 23.7704 161.07 23.9079C161.127 24.0454 161.156 24.1928 161.155 24.3416C161.155 24.4905 161.125 24.6377 161.067 24.7749L159.409 28.7913C159.291 29.0677 159.069 29.2867 158.791 29.4013C158.513 29.516 158.202 29.5171 157.923 29.4044Z" fill="#FF4848"/>
<path d="M170.483 51.6949L166.466 50.0365C166.19 49.9184 165.971 49.6967 165.856 49.4189C165.742 49.1411 165.741 48.8295 165.853 48.5509C165.91 48.4127 165.994 48.2872 166.099 48.1814C166.205 48.0757 166.33 47.992 166.468 47.935C166.606 47.878 166.754 47.8489 166.904 47.8494C167.053 47.8499 167.201 47.8799 167.339 47.9378L171.347 49.5963C171.486 49.6531 171.611 49.7367 171.717 49.8422C171.823 49.9478 171.906 50.0733 171.963 50.2114C172.02 50.3495 172.049 50.4975 172.049 50.6469C172.048 50.7963 172.018 50.9441 171.96 51.0818C171.904 51.2197 171.822 51.3451 171.717 51.4508C171.612 51.5564 171.487 51.6402 171.35 51.6972C171.212 51.7543 171.065 51.7834 170.916 51.783C170.767 51.7826 170.62 51.7527 170.483 51.6949Z" fill="#FF4848"/>
<path d="M137.29 37.9481L133.282 36.2896C133.143 36.2328 133.018 36.1492 132.912 36.0437C132.806 35.9381 132.723 35.8127 132.666 35.6746C132.609 35.5365 132.58 35.3884 132.58 35.239C132.581 35.0896 132.611 34.9418 132.669 34.8041C132.725 34.6662 132.807 34.5408 132.912 34.4352C133.017 34.3295 133.142 34.2457 133.279 34.1887C133.417 34.1317 133.564 34.1025 133.713 34.1029C133.862 34.1033 134.009 34.1333 134.146 34.191L138.163 35.8495C138.439 35.9675 138.658 36.1892 138.773 36.467C138.887 36.7448 138.888 37.0564 138.776 37.335C138.719 37.4732 138.635 37.5988 138.53 37.7045C138.424 37.8102 138.299 37.894 138.161 37.951C138.023 38.008 137.875 38.0371 137.725 38.0366C137.576 38.0361 137.428 38.006 137.29 37.9481Z" fill="#FF4848"/>
<path d="M180.191 285.294L174.492 285.207L174.186 271.979L179.876 272.066L180.191 285.294Z" fill="#FF8B7B"/>
<path d="M174.279 283.479L180.496 283.581C180.608 283.579 180.716 283.618 180.802 283.691C180.887 283.763 180.943 283.863 180.96 283.974L181.746 289.067C181.764 289.192 181.755 289.32 181.719 289.441C181.683 289.563 181.621 289.675 181.537 289.77C181.453 289.865 181.35 289.941 181.234 289.992C181.118 290.043 180.992 290.068 180.866 290.065C178.626 289.994 175.364 289.806 172.566 289.767C169.264 289.711 169.595 289.845 165.727 289.767C163.369 289.727 162.89 287.353 163.88 287.149C168.408 286.245 168.864 286.198 172.864 283.879C173.293 283.624 173.781 283.486 174.279 283.479Z" fill="black"/>
<path opacity="0.2" d="M174.186 271.979L174.343 278.802L180.041 278.888L179.884 272.073L174.186 271.979Z" fill="black"/>
<path d="M173.273 283.989C173.297 283.982 173.317 283.968 173.332 283.948C173.346 283.928 173.353 283.904 173.352 283.879C173.355 283.852 173.35 283.825 173.337 283.801C173.325 283.777 173.305 283.758 173.281 283.745C173.014 283.604 170.68 282.409 170.004 282.779C169.939 282.815 169.886 282.867 169.849 282.931C169.811 282.994 169.792 283.067 169.791 283.14C169.782 283.264 169.802 283.389 169.85 283.503C169.897 283.618 169.972 283.72 170.067 283.8C170.711 284.359 172.338 284.162 173.211 283.997L173.273 283.989ZM170.192 282.999C170.617 282.857 171.874 283.352 172.794 283.785C171.544 283.973 170.601 283.911 170.239 283.588C170.177 283.536 170.128 283.469 170.097 283.394C170.065 283.319 170.052 283.237 170.059 283.156C170.057 283.126 170.065 283.097 170.08 283.072C170.096 283.047 170.118 283.027 170.145 283.014L170.192 282.999Z" fill="#FF4848"/>
<path d="M173.274 283.989C173.293 283.975 173.308 283.956 173.316 283.933C173.324 283.911 173.326 283.887 173.321 283.864C173.234 283.047 172.9 282.276 172.362 281.655C172.255 281.563 172.13 281.494 171.994 281.453C171.859 281.411 171.717 281.397 171.576 281.411C171.207 281.411 171.105 281.631 171.081 281.781C171.003 282.425 172.41 283.683 173.109 283.997C173.135 284.011 173.164 284.018 173.193 284.017C173.222 284.015 173.25 284.006 173.274 283.989ZM171.537 281.694C171.584 281.684 171.632 281.684 171.679 281.694C171.777 281.684 171.877 281.694 171.972 281.723C172.066 281.753 172.154 281.802 172.229 281.867C172.663 282.367 172.937 282.986 173.015 283.644C172.292 283.211 171.333 282.221 171.388 281.836C171.419 281.789 171.427 281.726 171.537 281.694Z" fill="#FF4848"/>
<path d="M183.642 206.521C188.271 172.888 194.049 159.228 191.423 142.855L174.469 143.13C174.469 143.13 166.539 187.995 168.228 207.347C169.981 227.46 172.544 274.282 172.544 274.282L181.724 274.432C181.724 274.432 187.069 228.993 183.642 206.521Z" fill="#FF4848"/>
<path opacity="0.2" d="M191.706 158.166C190.786 167.237 188.318 177.58 185.764 192.695C183.421 179.923 182.777 164.832 191.706 158.166Z" fill="black"/>
<path d="M171.144 271.979L171.906 276.436L182.006 276.64L182.407 272.427L171.144 271.979Z" fill="#FF4848"/>
<path d="M212.479 285.294L206.773 285.207L204.887 271.979L210.593 272.066L212.479 285.294Z" fill="#FF8B7B"/>
<path d="M206.364 283.478L212.581 283.58C212.69 283.58 212.796 283.62 212.877 283.692C212.958 283.765 213.01 283.865 213.021 283.973L213.564 289.067C213.574 289.195 213.557 289.324 213.514 289.445C213.471 289.567 213.404 289.678 213.316 289.772C213.228 289.865 213.121 289.94 213.003 289.991C212.885 290.041 212.757 290.066 212.628 290.065C210.388 289.994 209.681 289.805 206.867 289.766C203.566 289.711 205.091 289.845 201.224 289.766C198.866 289.727 198.512 287.361 199.51 287.149C202.654 286.489 203.511 285.223 204.941 283.879C205.348 283.571 205.856 283.428 206.364 283.478Z" fill="black"/>
<path opacity="0.2" d="M204.895 271.979L205.861 278.802L211.568 278.888L210.601 272.073L204.895 271.979Z" fill="black"/>
<path d="M207.504 283.91C207.529 283.914 207.554 283.909 207.577 283.898C207.599 283.887 207.618 283.869 207.63 283.848C207.644 283.824 207.651 283.797 207.651 283.769C207.651 283.741 207.644 283.714 207.63 283.69C207.433 283.47 205.712 281.568 204.926 281.678C204.853 281.688 204.783 281.716 204.724 281.76C204.665 281.804 204.618 281.862 204.588 281.93C204.533 282.039 204.504 282.161 204.504 282.283C204.504 282.406 204.533 282.527 204.588 282.637C204.973 283.376 206.577 283.753 207.504 283.91ZM204.997 281.945C205.453 281.945 206.443 282.841 207.135 283.572C205.885 283.313 205.028 282.928 204.777 282.511C204.74 282.44 204.721 282.36 204.721 282.279C204.721 282.199 204.74 282.119 204.777 282.048C204.788 282.02 204.806 281.996 204.829 281.978C204.853 281.96 204.881 281.949 204.91 281.945H204.997Z" fill="#FF4848"/>
<path d="M207.505 283.911C207.528 283.905 207.549 283.894 207.565 283.877C207.582 283.86 207.594 283.839 207.599 283.816C207.849 283.05 207.849 282.224 207.599 281.458C207.536 281.339 207.449 281.234 207.344 281.15C207.238 281.066 207.116 281.005 206.986 280.971C206.624 280.877 206.459 281.01 206.381 281.144C206.051 281.71 206.884 283.345 207.418 283.879C207.442 283.9 207.473 283.911 207.505 283.911ZM206.774 281.199H206.915C207.012 281.225 207.102 281.271 207.18 281.333C207.259 281.395 207.324 281.472 207.371 281.56C207.585 282.176 207.61 282.841 207.442 283.47C206.939 282.826 206.42 281.584 206.656 281.246C206.609 281.254 206.64 281.199 206.758 281.199H206.774Z" fill="#FF4848"/>
<path d="M208.038 206.521C211.182 173.509 210.569 158.041 207.166 142.501L186.211 143.138C186.211 143.138 188.781 188.003 192.719 207.354C196.806 227.468 203.22 274.29 203.22 274.29L212.408 274.439C212.408 274.439 214.075 228.993 208.038 206.521Z" fill="#FF4848"/>
<path d="M201.877 271.979L202.482 276.436L212.787 276.64L213.368 272.427L201.877 271.979Z" fill="#FF4848"/>
<path d="M185.497 97.2514L185.033 97.6758L184.64 98.0295L183.854 98.674C183.327 99.0906 182.801 99.46 182.282 99.853C181.216 100.61 180.112 101.311 178.973 101.952C176.67 103.241 174.232 104.272 171.702 105.025C169.125 105.792 166.459 106.223 163.771 106.306C163.096 106.306 162.42 106.306 161.744 106.306L160.73 106.243H160.439L159.959 106.196C159.598 106.145 159.241 106.069 158.89 105.968C157.916 105.685 157.029 105.161 156.312 104.443C155.583 103.681 155.072 102.736 154.835 101.708C154.588 100.512 154.634 99.2746 154.968 98.1003C155.371 96.6756 155.946 95.3057 156.682 94.0209C157.293 92.9074 157.962 91.8265 158.686 90.7826C160.077 88.739 161.539 86.8526 163.056 85.0055C166.072 81.3676 169.29 77.9012 172.693 74.6224L176.206 77.68C173.604 81.4135 171.003 85.2334 168.566 89.0219C167.363 90.9319 166.208 92.8419 165.147 94.744C164.636 95.7029 164.157 96.6461 163.748 97.5579C163.391 98.309 163.127 99.1009 162.962 99.9159C162.899 100.167 163.025 100.309 162.962 99.7509C162.859 99.2898 162.627 98.8673 162.294 98.5326C162 98.2135 161.629 97.9754 161.217 97.8409C161.146 97.8409 160.997 97.7937 160.997 97.778H161.083H161.806C162.286 97.778 162.773 97.723 163.245 97.6522C165.182 97.4276 167.086 96.9792 168.92 96.316C170.795 95.6371 172.605 94.79 174.327 93.7851C175.2 93.2821 176.057 92.7476 176.874 92.1659C177.291 91.883 177.66 91.5843 178.077 91.2856L178.65 90.8455L179.098 90.4761L185.497 97.2514Z" fill="#CE7A63"/>
<path d="M164.683 96.52L167.418 107.956C167.418 107.956 182.265 105.496 188.64 98.0291C193.136 92.7629 187.068 88.2513 177.636 90.0984C171.827 91.2459 164.683 96.52 164.683 96.52Z" fill="#FF4848"/>
<path opacity="0.7" d="M164.683 96.52L167.418 107.956C167.418 107.956 182.265 105.496 188.64 98.0291C193.136 92.7629 187.068 88.2513 177.636 90.0984C171.827 91.2459 164.683 96.52 164.683 96.52Z" fill="white"/>
<path d="M171.828 76.2415L172.048 69.0968L178.478 71.5177C178.478 71.5177 177.189 78.183 175.066 78.2065L171.828 76.2415Z" fill="#CE7A63"/>
<path d="M176.967 65.0251L180.999 67.8705L178.468 71.5254L172.047 69.1045L176.967 65.0251Z" fill="#CE7A63"/>
<path d="M174.051 143.908L178.728 146.266L184.56 143.122L190.361 147.052L207.213 143.908C207.448 140.945 206.765 131.332 207.275 119.039C207.585 109.934 208.687 100.874 210.569 91.9612C210.718 91.2931 210.867 90.6328 211.025 89.9569C211.025 89.9569 209.35 89.6189 206.937 89.2652C204.941 88.9744 202.434 88.6757 199.973 88.5578C195.28 88.2864 190.574 88.2864 185.881 88.5578C183.711 88.7543 181.597 89.1158 179.907 89.4381C177.745 89.8783 176.472 90.2241 176.472 90.2241C176.472 90.2241 168.306 109.033 174.051 143.908Z" fill="black"/>
<path opacity="0.3" d="M207.276 119.047C207.585 109.94 208.687 100.877 210.569 91.9616C208.353 91.7729 204.564 91.9616 203.936 95.5693C203.26 99.4443 204.108 108.468 207.276 119.047Z" fill="black"/>
<path d="M212.951 93.9501C213.604 94.964 214.154 95.8601 214.696 96.8268C215.239 97.7936 215.781 98.7368 216.268 99.7036C217.316 101.637 218.273 103.613 219.137 105.63C220.984 109.745 222.375 114.049 223.287 118.465L223.366 118.89L223.413 119.102L223.468 119.456C223.542 119.924 223.578 120.397 223.578 120.871C223.571 121.663 223.484 122.453 223.319 123.229C223.037 124.508 222.629 125.756 222.1 126.954C221.162 129.058 220.044 131.078 218.76 132.991C216.33 136.622 213.565 140.017 210.499 143.13L206.828 140.261C208.841 136.716 210.884 133.077 212.558 129.477C213.392 127.762 214.102 125.989 214.681 124.172C214.925 123.418 215.091 122.641 215.176 121.853C215.2 121.592 215.2 121.328 215.176 121.067C215.172 121.014 215.155 120.963 215.129 120.918L215.081 120.745L214.979 120.407L214.586 119.055L214.115 117.695C213.808 116.783 213.454 115.872 213.093 114.968C212.362 113.152 211.521 111.344 210.68 109.552C209.839 107.76 208.888 105.976 207.937 104.2C207.465 103.319 206.978 102.439 206.475 101.566L205.013 99.0355L212.951 93.9501Z" fill="#CE7A63"/>
<path d="M202.788 101.283C204.188 105.433 209.525 114.205 209.525 114.205L222.101 107.249C222.101 107.249 216.598 91.2461 211.034 89.957C204.848 88.613 200.258 93.7613 202.788 101.283Z" fill="#FF4848"/>
<path opacity="0.7" d="M202.788 101.283C204.188 105.433 209.525 114.205 209.525 114.205L222.101 107.249C222.101 107.249 216.598 91.2461 211.034 89.957C204.848 88.613 200.258 93.7613 202.788 101.283Z" fill="white"/>
<path d="M208.51 138.894L202.332 137.817L205.476 144.962C205.476 144.962 211.112 144.962 210.852 142.022L208.51 138.894Z" fill="#CE7A63"/>
<path d="M197.726 141.409L200.626 147.178L205.507 144.962L202.339 137.817L197.726 141.409Z" fill="#CE7A63"/>
<path d="M186.754 101.166C186.754 101.166 181.692 97.9751 184.836 88.7003L185.881 88.5902C190.575 88.3189 195.281 88.3189 199.974 88.5902C200.524 88.5902 201.083 88.6531 201.633 88.6924C196.332 92.4251 191.354 96.5978 186.754 101.166Z" fill="#FF4848"/>
<path opacity="0.7" d="M186.754 101.166C186.754 101.166 181.692 97.9751 184.836 88.7003L185.881 88.5902C190.575 88.3189 195.281 88.3189 199.974 88.5902C200.524 88.5902 201.083 88.6531 201.633 88.6924C196.332 92.4251 191.354 96.5978 186.754 101.166Z" fill="white"/>
<path d="M191.588 92.4172C199.448 92.2757 200.517 88.6208 200.517 88.6208C197.444 85.5947 198.623 77.3181 199.668 72.775L195.896 75.919L190.763 80.1713C190.914 80.8558 191.024 81.5487 191.093 82.2463C191.368 85.0288 190.645 87.5675 186.55 88.5343C186.55 88.5343 181.685 91.7569 188.908 92.3386L191.588 92.4172Z" fill="#CE7A63"/>
<path opacity="0.2" d="M190.763 80.1717C190.914 80.8562 191.024 81.5491 191.093 82.2467C193.003 81.8616 195.565 79.818 195.809 77.8608C195.905 77.2131 195.926 76.5563 195.872 75.9037L190.763 80.1717Z" fill="black"/>
<path d="M182.352 60.1441C179.923 62.455 181.134 71.1481 185.417 71.6197C189.701 72.0913 186.95 55.8054 182.352 60.1441Z" fill="black"/>
<path d="M198.567 64.373C199.306 70.4959 200.053 74.0329 197.592 77.8057C196.804 79.0361 195.695 80.0278 194.384 80.674C193.074 81.3203 191.612 81.5964 190.156 81.4726C188.7 81.3489 187.305 80.8299 186.122 79.9718C184.94 79.1136 184.014 77.9489 183.444 76.6031C181.157 71.4548 180.3 62.3058 185.802 58.6116C186.957 57.7913 188.306 57.2877 189.716 57.1507C191.126 57.0137 192.547 57.2482 193.837 57.8309C195.128 58.4135 196.244 59.324 197.074 60.4718C197.904 61.6195 198.419 62.9645 198.567 64.373Z" fill="#CE7A63"/>
<path d="M203.221 56.4186C206.412 56.6937 206.161 61.0245 205.115 64.0899C203.661 68.3501 200.651 72.4451 198.23 71.5569C197.255 71.4312 195.479 73.6241 194.772 71.4626C194.402 70.3465 195.88 68.3186 195.903 66.3458C195.927 64.3729 194.489 62.4551 194.591 61.5433C191.4 60.7573 183.508 66.7545 178.21 60.6866C175.852 57.967 176.528 48.0241 181.928 50.1542C185.34 51.5061 190.095 55.4832 193.616 53.2982C199.047 49.9184 204.848 52.182 203.221 56.4186Z" fill="black"/>
<path d="M201.947 69.8596C201.411 71.2906 200.398 72.4928 199.078 73.263C197.388 74.1983 196.406 72.6735 196.759 70.7478C197.082 69.0107 198.331 66.4405 200.092 66.3069C201.853 66.1733 202.623 68.0518 201.947 69.8596Z" fill="#CE7A63"/>
<path d="M189.78 68.0594C189.866 68.5468 189.685 69.0026 189.363 69.0734C189.041 69.1441 188.711 68.8061 188.624 68.2874C188.538 67.7686 188.718 67.3363 189.041 67.2656C189.363 67.1948 189.685 67.5957 189.78 68.0594Z" fill="black"/>
<path d="M184.254 69.2697C184.348 69.757 184.16 70.2129 183.845 70.2837C183.531 70.3544 183.193 70.0164 183.059 69.4977C182.926 68.9789 183.154 68.5466 183.476 68.4759C183.798 68.4051 184.168 68.7745 184.254 69.2697Z" fill="black"/>
<path d="M186.053 69.1677C185.74 70.8022 185.211 72.388 184.481 73.8837C184.864 74.0496 185.279 74.1292 185.696 74.1169C186.113 74.1047 186.522 74.001 186.894 73.813L186.053 69.1677Z" fill="#BA4D3C"/>
<path d="M191.155 65.8821C191.202 65.8665 191.246 65.8395 191.28 65.8035C191.335 65.7477 191.365 65.673 191.365 65.5952C191.365 65.5174 191.335 65.4426 191.28 65.3869C190.942 65.0716 190.531 64.8444 190.085 64.7252C189.638 64.6059 189.169 64.5983 188.718 64.7031C188.643 64.7267 188.58 64.7782 188.542 64.847C188.504 64.9157 188.494 64.9964 188.514 65.0725C188.537 65.1471 188.589 65.2095 188.658 65.2462C188.727 65.283 188.808 65.2911 188.883 65.269C189.237 65.1916 189.605 65.202 189.955 65.2992C190.304 65.3965 190.624 65.5777 190.887 65.827C190.924 65.858 190.967 65.8793 191.014 65.8889C191.061 65.8985 191.109 65.8962 191.155 65.8821Z" fill="black"/>
<path d="M181.566 67.8785C181.611 67.8607 181.651 67.8331 181.684 67.7977C181.716 67.7623 181.741 67.7201 181.755 67.6741C181.846 67.3123 182.017 66.9759 182.257 66.69C182.496 66.4041 182.798 66.1762 183.138 66.0235C183.211 65.9975 183.271 65.9435 183.304 65.8735C183.337 65.8035 183.341 65.7231 183.315 65.6502C183.289 65.5772 183.235 65.5176 183.165 65.4844C183.095 65.4512 183.015 65.4473 182.942 65.4733C182.509 65.659 182.125 65.9422 181.819 66.3007C181.514 66.6593 181.295 67.0836 181.181 67.5405C181.162 67.6166 181.173 67.6971 181.213 67.7648C181.253 67.8324 181.317 67.8817 181.393 67.9021C181.452 67.9103 181.512 67.9021 181.566 67.8785Z" fill="black"/>
<path d="M179.782 69.3404L180.309 71.6984C180.344 71.8537 180.431 71.9925 180.555 72.0923C180.679 72.1922 180.833 72.2472 180.992 72.2485C181.044 72.2562 181.097 72.2562 181.15 72.2485L184.946 71.3997C185.126 71.3584 185.282 71.2477 185.381 71.0916C185.48 70.9355 185.513 70.7468 185.473 70.5665L185.04 68.6565C185.223 68.4709 185.453 68.3401 185.706 68.279C185.959 68.2178 186.224 68.2288 186.471 68.3107L186.903 70.2442C186.938 70.3996 187.025 70.5384 187.149 70.6382C187.273 70.7381 187.428 70.7931 187.587 70.7945C187.636 70.802 187.687 70.802 187.736 70.7945L192.672 69.694C192.853 69.651 193.009 69.5387 193.108 69.3814C193.206 69.224 193.239 69.0343 193.199 68.853L192.664 66.495C192.63 66.3391 192.544 66.1994 192.42 66.0993C192.295 65.9993 192.14 65.9447 191.981 65.9448H191.831L186.903 67.0531C186.813 67.0727 186.728 67.1097 186.653 67.1622C186.577 67.2147 186.513 67.2815 186.463 67.3589C186.414 67.4363 186.38 67.5227 186.363 67.6132C186.347 67.7036 186.349 67.7964 186.369 67.8862C186.121 67.8359 185.866 67.8379 185.62 67.8921C185.374 67.9462 185.141 68.0513 184.938 68.2007C184.903 68.0453 184.816 67.9065 184.692 67.8067C184.568 67.7068 184.414 67.6518 184.254 67.6505C184.205 67.6429 184.154 67.6429 184.105 67.6505L180.309 68.4993C180.219 68.5197 180.134 68.5577 180.058 68.6111C179.983 68.6644 179.919 68.7321 179.87 68.8103C179.821 68.8885 179.788 68.9755 179.773 69.0665C179.758 69.1575 179.761 69.2505 179.782 69.3404ZM186.99 67.4304L191.918 66.3221H191.981C192.048 66.322 192.113 66.3444 192.166 66.3857C192.218 66.4271 192.256 66.4849 192.271 66.55L192.798 68.908C192.813 68.9429 192.82 68.9803 192.82 69.0181C192.82 69.0559 192.813 69.0933 192.798 69.1281C192.778 69.1604 192.752 69.1882 192.721 69.2099C192.69 69.2315 192.654 69.2465 192.617 69.2539L187.689 70.3622H187.626C187.561 70.3606 187.497 70.3374 187.446 70.2962C187.395 70.2549 187.359 70.198 187.343 70.1342L186.809 67.7762C186.789 67.7064 186.796 67.6315 186.83 67.5671C186.864 67.5028 186.921 67.4538 186.99 67.4304ZM180.395 68.908L184.191 68.0513H184.254C184.321 68.0525 184.385 68.0754 184.438 68.1165C184.49 68.1577 184.528 68.2148 184.545 68.2792L185.072 70.6372C185.081 70.6746 185.083 70.7136 185.076 70.7516C185.069 70.7896 185.054 70.8257 185.032 70.8573C185.013 70.8896 184.986 70.9174 184.955 70.9391C184.924 70.9607 184.889 70.9757 184.852 70.9831L181.055 71.8398H180.992C180.927 71.8382 180.863 71.815 180.812 71.7738C180.761 71.7326 180.725 71.6757 180.709 71.6119L180.175 69.2539C180.159 69.1789 180.172 69.1004 180.214 69.0356C180.255 68.9708 180.32 68.925 180.395 68.908Z" fill="#FF4848"/>
<path opacity="0.5" d="M179.782 69.3404L180.309 71.6984C180.344 71.8537 180.431 71.9925 180.555 72.0923C180.679 72.1922 180.833 72.2472 180.992 72.2485C181.044 72.2562 181.097 72.2562 181.15 72.2485L184.946 71.3997C185.126 71.3584 185.282 71.2477 185.381 71.0916C185.48 70.9355 185.513 70.7468 185.473 70.5665L185.04 68.6565C185.223 68.4709 185.453 68.3401 185.706 68.279C185.959 68.2178 186.224 68.2288 186.471 68.3107L186.903 70.2442C186.938 70.3996 187.025 70.5384 187.149 70.6382C187.273 70.7381 187.428 70.7931 187.587 70.7945C187.636 70.802 187.687 70.802 187.736 70.7945L192.672 69.694C192.853 69.651 193.009 69.5387 193.108 69.3814C193.206 69.224 193.239 69.0343 193.199 68.853L192.664 66.495C192.63 66.3391 192.544 66.1994 192.42 66.0993C192.295 65.9993 192.14 65.9447 191.981 65.9448H191.831L186.903 67.0531C186.813 67.0727 186.728 67.1097 186.653 67.1622C186.577 67.2147 186.513 67.2815 186.463 67.3589C186.414 67.4363 186.38 67.5227 186.363 67.6132C186.347 67.7036 186.349 67.7964 186.369 67.8862C186.121 67.8359 185.866 67.8379 185.62 67.8921C185.374 67.9462 185.141 68.0513 184.938 68.2007C184.903 68.0453 184.816 67.9065 184.692 67.8067C184.568 67.7068 184.414 67.6518 184.254 67.6505C184.205 67.6429 184.154 67.6429 184.105 67.6505L180.309 68.4993C180.219 68.5197 180.134 68.5577 180.058 68.6111C179.983 68.6644 179.919 68.7321 179.87 68.8103C179.821 68.8885 179.788 68.9755 179.773 69.0665C179.758 69.1575 179.761 69.2505 179.782 69.3404ZM186.99 67.4304L191.918 66.3221H191.981C192.048 66.322 192.113 66.3444 192.166 66.3857C192.218 66.4271 192.256 66.4849 192.271 66.55L192.798 68.908C192.813 68.9429 192.82 68.9803 192.82 69.0181C192.82 69.0559 192.813 69.0933 192.798 69.1281C192.778 69.1604 192.752 69.1882 192.721 69.2099C192.69 69.2315 192.654 69.2465 192.617 69.2539L187.689 70.3622H187.626C187.561 70.3606 187.497 70.3374 187.446 70.2962C187.395 70.2549 187.359 70.198 187.343 70.1342L186.809 67.7762C186.789 67.7064 186.796 67.6315 186.83 67.5671C186.864 67.5028 186.921 67.4538 186.99 67.4304ZM180.395 68.908L184.191 68.0513H184.254C184.321 68.0525 184.385 68.0754 184.438 68.1165C184.49 68.1577 184.528 68.2148 184.545 68.2792L185.072 70.6372C185.081 70.6746 185.083 70.7136 185.076 70.7516C185.069 70.7896 185.054 70.8257 185.032 70.8573C185.013 70.8896 184.986 70.9174 184.955 70.9391C184.924 70.9607 184.889 70.9757 184.852 70.9831L181.055 71.8398H180.992C180.927 71.8382 180.863 71.815 180.812 71.7738C180.761 71.7326 180.725 71.6757 180.709 71.6119L180.175 69.2539C180.159 69.1789 180.172 69.1004 180.214 69.0356C180.255 68.9708 180.32 68.925 180.395 68.908Z" fill="white"/>
<path d="M187.146 74.4652C188.246 74.6381 190.628 71.0775 191.516 73.5456C192.404 76.0136 192.066 81.6807 190.73 80.1715C190.73 80.1715 190.683 82.1758 189.158 80.4231C189.158 80.4231 189.512 81.9951 187.892 80.4231C187.892 80.4231 187.963 81.7121 186.195 80.0143C184.426 78.3166 181.887 73.6556 187.146 74.4652Z" fill="black"/>
<path opacity="0.4" d="M187.146 74.4652C188.246 74.6381 190.628 71.0775 191.516 73.5456C192.404 76.0136 192.066 81.6807 190.73 80.1715C190.73 80.1715 190.683 82.1758 189.158 80.4231C189.158 80.4231 189.512 81.9951 187.892 80.4231C187.892 80.4231 187.963 81.7121 186.195 80.0143C184.426 78.3166 181.887 73.6556 187.146 74.4652Z" fill="white"/>
<path d="M186.384 75.9037C186.96 75.9258 187.536 75.8321 188.076 75.6283C188.616 75.4244 189.109 75.1145 189.528 74.7168C189.555 74.6876 189.569 74.6489 189.568 74.6091C189.566 74.5693 189.549 74.5317 189.52 74.5046C189.491 74.4775 189.452 74.4631 189.412 74.4646C189.372 74.4661 189.335 74.4833 189.308 74.5125C188.847 74.9434 188.293 75.2626 187.69 75.4452C187.086 75.6279 186.448 75.6691 185.826 75.5657C185.807 75.5623 185.788 75.5627 185.77 75.5669C185.751 75.571 185.734 75.5788 185.718 75.5898C185.703 75.6008 185.69 75.6148 185.68 75.6309C185.67 75.647 185.663 75.6649 185.661 75.6836C185.658 75.7227 185.669 75.7615 185.692 75.7932C185.715 75.8249 185.748 75.8473 185.786 75.8565L186.384 75.9037Z" fill="black"/>
</svg>
