<?xml version="1.0" encoding="utf-8"?>
<!-- Generator: Adobe Illustrator 27.5.0, SVG Export Plug-In . SVG Version: 6.00 Build 0)  -->
<svg version="1.1" xmlns="http://www.w3.org/2000/svg" xmlns:xlink="http://www.w3.org/1999/xlink" x="0px" y="0px"
	 viewBox="0 0 750 500" style="enable-background:new 0 0 750 500;" xml:space="preserve">
<g id="BACKGROUND">
	<g>
		<g>
			<rect style="fill:#FFFFFF;" width="750" height="500"/>
		</g>
		<path style="fill:#DFF1F4;" d="M262.379,138.1l-43.889-24.009c-27.061-8.236-56.46-1.679-77.457,17.275l-52.284,47.197
			c-23.803,21.487-32.601,55.042-22.402,85.444L94.287,347.3c9.628,28.701,34.529,49.584,64.468,54.066l186.42,33.146
			c8.68,1.299,17.513,1.172,26.152-0.377l223.435-40.064c32.481-5.824,58.129-30.863,64.731-63.195l26.703-130.769
			c8.864-43.407-18.976-85.828-62.325-94.97l-183.97-38.798c-33.36-7.035-67.537,7.685-85.345,36.759l0,0
			C335.387,134.395,297.49,148.785,262.379,138.1z"/>
	</g>
</g>
<g id="OBJECTS">
	<g>
		<rect x="59.639" y="441.11" style="fill:#579BAA;" width="630.722" height="3.161"/>
		<g>
			<g>
				<path style="fill:#98D3E5;" d="M138.044,195.343H89.469c-0.736-5.413-5.377-9.603-10.99-9.603
					c-6.122,0-11.103,4.981-11.103,11.103c0,6.122,4.981,11.104,11.103,11.104c5.613,0,10.254-4.19,10.99-9.604h47.333l26.85,26.85
					h248.129v-3H164.894L138.044,195.343z M78.479,204.947c-4.468,0-8.103-3.635-8.103-8.104c0-4.468,3.635-8.103,8.103-8.103
					s8.104,3.635,8.104,8.103C86.582,201.312,82.947,204.947,78.479,204.947z"/>
				<path style="fill:#98D3E5;" d="M179.617,147.321H79.865c-0.736-5.413-5.377-9.603-10.989-9.603
					c-6.123,0-11.104,4.981-11.104,11.103c0,6.123,4.981,11.104,11.104,11.104c5.612,0,10.253-4.19,10.989-9.604h98.509
					l50.407,50.407h182.999v-3H230.023L179.617,147.321z M68.876,156.924c-4.468,0-8.104-3.635-8.104-8.104
					c0-4.468,3.635-8.103,8.104-8.103c4.468,0,8.103,3.635,8.103,8.103C76.979,153.289,73.344,156.924,68.876,156.924z"/>
				<path style="fill:#98D3E5;" d="M260.715,163.061l-58.988-58.988c3.276-4.347,2.948-10.566-1.009-14.522
					c-4.329-4.329-11.373-4.328-15.703,0c-4.329,4.329-4.329,11.373,0,15.702c2.165,2.164,5.008,3.247,7.851,3.247
					c2.385,0,4.765-0.772,6.75-2.295l59.857,59.856h152.307v-3H260.715z M187.137,103.132c-3.159-3.16-3.159-8.3,0-11.46
					c1.58-1.58,3.655-2.37,5.73-2.37c2.075,0,4.15,0.79,5.73,2.37c3.159,3.16,3.159,8.3,0,11.46
					C195.438,106.291,190.296,106.292,187.137,103.132z"/>
				<path style="fill:#98D3E5;" d="M88.082,235.916c-6.122,0-11.104,4.981-11.104,11.104c0,6.122,4.981,11.104,11.104,11.104
					c5.612,0,10.253-4.19,10.99-9.604h312.709v-3H99.072C98.336,240.106,93.694,235.916,88.082,235.916z M88.082,255.123
					c-4.468,0-8.104-3.635-8.104-8.104c0-4.468,3.635-8.104,8.104-8.104c4.468,0,8.103,3.635,8.103,8.104
					C96.185,251.488,92.55,255.123,88.082,255.123z"/>
				<path style="fill:#98D3E5;" d="M136.801,296.07H89.469c-0.736-5.414-5.377-9.604-10.99-9.604
					c-6.122,0-11.103,4.982-11.103,11.104c0,6.122,4.981,11.103,11.103,11.103c5.613,0,10.254-4.189,10.99-9.603h48.575
					l26.85-26.851h246.887v-3H163.652L136.801,296.07z M78.479,305.673c-4.468,0-8.103-3.635-8.103-8.103
					c0-4.469,3.635-8.104,8.103-8.104s8.104,3.635,8.104,8.104C86.582,302.038,82.947,305.673,78.479,305.673z"/>
				<path style="fill:#98D3E5;" d="M178.374,344.092H79.865c-0.736-5.413-5.377-9.602-10.989-9.602
					c-6.123,0-11.104,4.98-11.104,11.102s4.981,11.104,11.104,11.104c5.612,0,10.253-4.19,10.989-9.604h99.751l50.407-50.406
					h181.757v-3H228.781L178.374,344.092z M68.876,353.696c-4.468,0-8.104-3.635-8.104-8.104c0-4.468,3.635-8.102,8.104-8.102
					c4.468,0,8.103,3.635,8.103,8.102C76.979,350.061,73.344,353.696,68.876,353.696z"/>
				<path style="fill:#98D3E5;" d="M199.617,388.209c-1.929-1.486-4.275-2.3-6.75-2.3c-2.966,0-5.754,1.155-7.851,3.253
					c-4.329,4.328-4.329,11.372,0,15.702c2.165,2.164,5.008,3.247,7.852,3.247c2.843,0,5.687-1.083,7.851-3.247h0
					c3.956-3.958,4.284-10.176,1.008-14.522l58.989-58.988h151.065v-3H259.473L199.617,388.209z M198.597,402.742
					c-3.16,3.16-8.301,3.158-11.46,0c-3.159-3.16-3.16-8.301-0.001-11.46c1.531-1.53,3.566-2.374,5.73-2.374
					c2.164,0,4.2,0.844,5.73,2.374C201.756,394.442,201.756,399.582,198.597,402.742z"/>
			</g>
			<g>
				<path style="fill:none;stroke:#709632;stroke-width:2;stroke-miterlimit:10;" d="M391.185,363.227
					c-4.745,17.333,0,43.333,20.596,50.155"/>
				
					<ellipse transform="matrix(0.0121 -0.9999 0.9999 0.0121 26.1013 747.1474)" style="fill:#EDCB3A;" cx="391.185" cy="360.364" rx="7.95" ry="7.95"/>
				<path style="fill:#9DC11E;" d="M660.371,441.11H390.042c0,0,18.197-77.114,109.893-30.832c0,0,13.251-80.313,86.198-80.425
					C654.281,329.747,660.371,441.11,660.371,441.11z"/>
				<g>
					<path style="fill:#709632;" d="M701.434,331.318c-6.657,49.505-52.186,84.24-101.692,77.583l0,0v0
						C606.4,359.396,651.929,324.661,701.434,331.318L701.434,331.318L701.434,331.318z"/>
					<g>
						<path style="fill:none;stroke:#9DC11E;stroke-width:2;stroke-miterlimit:10;" d="M632.108,353.696
							c55.146-41.135,25.516-117.779,25.516-117.779"/>
						
							<ellipse transform="matrix(0.7071 -0.7071 0.7071 0.7071 25.7958 534.1089)" style="fill:#EDCB3A;" cx="657.624" cy="235.916" rx="7.95" ry="7.95"/>
					</g>
					<path style="fill:#5F7A2A;" d="M644.807,271.029c21.19,45.234,1.699,99.081-43.535,120.271l0,0v0
						C580.082,346.066,599.573,292.219,644.807,271.029L644.807,271.029L644.807,271.029z"/>
				</g>
			</g>
			<g>
				<g>
					<path style="fill:#19283B;" d="M567.714,418.278h12.841c13.787,0,24.964-11.177,24.964-24.964V98.339
						c0-13.788-11.177-24.964-24.964-24.964h-12.841c13.788,0,24.964,11.177,24.964,24.964v294.975
						C592.679,407.101,581.502,418.278,567.714,418.278z M596.501,196.735c0-1.46,1.184-2.644,2.644-2.644
						c1.46,0,2.643,1.184,2.643,2.644v27.904c0,1.46-1.184,2.644-2.643,2.644c-1.46,0-2.644-1.184-2.644-2.644V196.735z
						 M596.501,153.772c0-1.46,1.184-2.644,2.644-2.644c1.46,0,2.643,1.184,2.643,2.644v27.904c0,1.46-1.184,2.644-2.643,2.644
						c-1.46,0-2.644-1.184-2.644-2.644V153.772z"/>
					<path style="fill:#294459;" d="M407.461,98.339v294.975c0,13.788,11.177,24.964,24.964,24.964h12.841h122.448
						c13.788,0,24.964-11.177,24.964-24.964V98.339c0-13.788-11.177-24.964-24.964-24.964H445.266h-12.841
						C418.638,73.374,407.461,84.551,407.461,98.339z M415.461,98.339c0-9.355,7.61-16.965,16.964-16.965h21.753v6.096
						c0,4.123,3.342,7.464,7.464,7.464h76.856c4.122,0,7.464-3.342,7.464-7.464v-6.097h21.753c9.354,0,16.964,7.61,16.964,16.965
						v294.974c0,9.354-7.61,16.965-16.964,16.965H432.425c-9.354,0-16.964-7.61-16.964-16.965V98.339z"/>
					<path style="fill:#294459;" d="M599.145,151.129c1.46,0,2.643,1.184,2.643,2.644v27.904c0,1.46-1.184,2.644-2.643,2.644
						c-1.46,0-2.644-1.184-2.644-2.644v-27.904C596.501,152.313,597.685,151.129,599.145,151.129z"/>
					<path style="fill:#294459;" d="M599.145,194.092c1.46,0,2.643,1.184,2.643,2.644v27.904c0,1.46-1.184,2.644-2.643,2.644
						c-1.46,0-2.644-1.184-2.644-2.644v-27.904C596.501,195.275,597.685,194.092,599.145,194.092z"/>
					<path style="fill:#F3F7FF;" d="M415.461,98.339v294.975c0,9.354,7.61,16.965,16.964,16.965h135.289
						c9.354,0,16.964-7.61,16.964-16.965V98.339c0-9.354-7.61-16.965-16.964-16.965h-21.753v6.097c0,4.122-3.342,7.464-7.464,7.464
						h-76.856c-4.122,0-7.464-3.342-7.464-7.464v-6.096h-21.753C423.071,81.374,415.461,88.984,415.461,98.339z"/>
				</g>
				<g>
					<g>
						<rect x="442.292" y="112.985" style="fill:#C0E6ED;" width="18.246" height="117.465"/>
						<rect x="466.62" y="112.985" style="fill:#C0E6ED;" width="18.246" height="117.465"/>
						<rect x="490.947" y="112.985" style="fill:#C0E6ED;" width="18.246" height="117.465"/>
						<rect x="515.274" y="112.985" style="fill:#C0E6ED;" width="18.246" height="117.465"/>
						<rect x="539.602" y="112.985" style="fill:#C0E6ED;" width="18.246" height="117.465"/>
					</g>
					<g>
						<g>
							<rect x="442.292" y="162.223" style="fill:#98D3E5;" width="18.246" height="68.227"/>
							<rect x="466.62" y="179.231" style="fill:#98D3E5;" width="18.246" height="51.219"/>
							<rect x="490.947" y="157.123" style="fill:#98D3E5;" width="18.246" height="73.327"/>
							<rect x="515.274" y="138.2" style="fill:#98D3E5;" width="18.246" height="92.25"/>
							<rect x="539.602" y="112.985" style="fill:#98D3E5;" width="18.246" height="117.465"/>
						</g>
					</g>
					<polyline style="fill:none;stroke:#E71C2E;stroke-miterlimit:10;" points="450.996,162.223 475.742,179.231 500.07,157.31 
						524.397,138.2 548.725,112.985 					"/>
					<path style="fill:#FFFFFF;" d="M452.557,162.223c0,0.862-0.699,1.56-1.56,1.56c-0.862,0-1.561-0.699-1.561-1.56
						c0-0.862,0.699-1.561,1.561-1.561C451.858,160.662,452.557,161.361,452.557,162.223z"/>
					<path style="fill:#FFFFFF;" d="M477.303,179.231c0,0.862-0.699,1.561-1.561,1.561c-0.862,0-1.56-0.699-1.56-1.561
						c0-0.862,0.699-1.56,1.56-1.56C476.604,177.67,477.303,178.369,477.303,179.231z"/>
					<path style="fill:#FFFFFF;" d="M501.849,157.123c0,0.862-0.699,1.56-1.56,1.56c-0.862,0-1.56-0.699-1.56-1.56
						c0-0.862,0.699-1.561,1.56-1.561C501.151,155.562,501.849,156.261,501.849,157.123z"/>
					<circle style="fill:#FFFFFF;" cx="524.397" cy="138.2" r="1.56"/>
					<path style="fill:#FFFFFF;" d="M550.285,112.985c0,0.862-0.699,1.561-1.56,1.561c-0.862,0-1.56-0.699-1.56-1.561
						c0-0.862,0.699-1.56,1.56-1.56C549.586,111.424,550.285,112.123,550.285,112.985z"/>
				</g>
				<g>
					<path style="fill:#0E5EA0;" d="M549.353,338.243H444.491c-4.426,0-8.013-3.588-8.013-8.013v-65.544
						c0-4.426,3.588-8.013,8.013-8.013h104.862c4.426,0,8.013,3.588,8.013,8.013v65.544
						C557.366,334.655,553.779,338.243,549.353,338.243z"/>
					<g>
						<path style="fill:#FF8B0D;" d="M540.458,233.677c-3.206-19.37-24.977-32.492-43.659-34.189l-0.222-1.342l-4.664,0.772
							c-23.004,3.807-38.566,25.542-34.759,48.545c3.807,23.004,25.541,38.566,48.545,34.759l4.664-0.772l-0.222-1.342
							C527.28,272.483,543.663,253.047,540.458,233.677z"/>
						
							<ellipse transform="matrix(0.2652 -0.9642 0.9642 0.2652 139.4143 662.2833)" style="fill:#ECB220;" cx="504.223" cy="239.674" rx="42.219" ry="42.219"/>
						
							<ellipse transform="matrix(0.5864 -0.81 0.81 0.5864 14.4167 507.5807)" style="fill:#EDCB3A;" cx="504.223" cy="239.674" rx="36.728" ry="36.728"/>
						<path style="fill:#FF8B0D;" d="M498.226,203.439c-0.473,0.078-0.938,0.173-1.404,0.269
							c19.48-2.462,37.582,10.897,40.816,30.436c3.234,19.539-9.6,38.017-28.834,41.962c0.471-0.06,0.943-0.119,1.415-0.198
							c20.012-3.312,33.55-22.219,30.238-42.231C537.146,213.665,518.238,200.127,498.226,203.439z"/>
						<g>
							<path style="fill:#FF8B0D;" d="M516.294,247.649c-0.63-1.695-2.002-3.276-4.115-4.744c1.219,0.024,2.312-0.084,3.28-0.325
								c0.968-0.241,1.818-0.587,2.551-1.039c0.733-0.452,1.355-1.003,1.866-1.652c0.511-0.65,0.92-1.371,1.227-2.165
								c0.563-1.458,0.825-2.873,0.788-4.246c-0.038-1.373-0.44-2.682-1.205-3.927c-0.766-1.245-1.921-2.426-3.462-3.542
								c-1.237-0.896-2.77-1.735-4.589-2.52l2.239-5.799l-4.021-1.553l-2.228,5.77l-4.483-1.731l2.228-5.77l-4.021-1.553
								l-2.228,5.77l-1.901-0.734l-6.164-2.38l-1.553,4.021l6.164,2.38l-10.564,27.357l-6.164-2.38l-1.553,4.021l6.164,2.38
								l1.901,0.734l-2.094,5.422l4.021,1.553l2.094-5.422l4.484,1.731l-2.094,5.422l4.021,1.553l2.097-5.432
								c2.012,0.75,3.91,1.18,5.686,1.271c1.861,0.095,3.541-0.122,5.039-0.651c1.497-0.529,2.788-1.329,3.872-2.4
								c1.084-1.071,1.916-2.359,2.498-3.865C516.85,251.196,516.923,249.344,516.294,247.649z M504.058,227.206l4.811,1.857
								c0.924,0.357,1.693,0.738,2.309,1.143c0.616,0.405,1.077,0.863,1.383,1.372c0.306,0.509,0.456,1.084,0.451,1.724
								c-0.005,0.64-0.171,1.382-0.496,2.224c-0.332,0.859-0.74,1.52-1.226,1.983c-0.486,0.464-1.047,0.759-1.682,0.886
								c-0.635,0.127-1.342,0.115-2.121-0.037c-0.779-0.151-1.622-0.403-2.529-0.753l-4.276-1.651L504.058,227.206z
								 M507.159,251.493c-0.358,0.495-0.816,0.885-1.374,1.172c-0.558,0.287-1.234,0.436-2.029,0.445
								c-0.795,0.01-1.735-0.195-2.82-0.614l-5.783-2.233l3.405-8.82l5.734,2.214c1.036,0.4,1.857,0.829,2.463,1.286
								c0.605,0.457,1.046,0.944,1.321,1.46c0.275,0.516,0.398,1.066,0.368,1.65c-0.03,0.584-0.171,1.2-0.421,1.848
								C507.807,250.468,507.518,250.999,507.159,251.493z"/>
							<path style="fill:#FFEEA4;" d="M520.144,249.136c-0.63-1.695-2.002-3.276-4.115-4.744c1.219,0.024,2.312-0.084,3.28-0.325
								c0.968-0.241,1.818-0.587,2.551-1.039c0.733-0.452,1.355-1.003,1.867-1.653c0.511-0.649,0.92-1.371,1.227-2.165
								c0.563-1.458,0.825-2.873,0.788-4.246c-0.038-1.373-0.44-2.682-1.206-3.927c-0.767-1.245-1.921-2.426-3.462-3.543
								c-1.237-0.895-2.77-1.735-4.589-2.52l2.239-5.799l-4.021-1.553l-2.228,5.77l-4.483-1.731l2.228-5.77l-4.021-1.553
								l-2.228,5.77l-1.901-0.734l-6.164-2.38l-1.553,4.021l6.164,2.38l-10.564,27.358l-6.164-2.38l-1.553,4.021l6.164,2.38
								l1.901,0.734l-2.094,5.422l4.021,1.553l2.094-5.422l4.483,1.731l-2.094,5.422l4.021,1.553l2.097-5.432
								c2.012,0.75,3.91,1.18,5.686,1.271c1.861,0.095,3.541-0.122,5.039-0.651c1.497-0.529,2.788-1.329,3.872-2.4
								c1.083-1.071,1.916-2.359,2.498-3.865C520.701,252.683,520.774,250.831,520.144,249.136z M507.908,228.693l4.811,1.858
								c0.923,0.357,1.693,0.738,2.309,1.143c0.616,0.405,1.077,0.863,1.383,1.372c0.306,0.509,0.456,1.083,0.451,1.724
								c-0.005,0.64-0.171,1.381-0.496,2.223c-0.332,0.859-0.74,1.52-1.226,1.983c-0.486,0.464-1.047,0.759-1.682,0.886
								c-0.635,0.127-1.342,0.115-2.121-0.037c-0.779-0.151-1.622-0.403-2.529-0.753l-4.276-1.651L507.908,228.693z M511.01,252.98
								c-0.358,0.495-0.816,0.885-1.374,1.172c-0.558,0.287-1.234,0.436-2.028,0.445c-0.795,0.01-1.735-0.195-2.82-0.614
								l-5.783-2.233l3.406-8.82l5.734,2.214c1.036,0.4,1.857,0.829,2.462,1.286c0.605,0.457,1.046,0.944,1.321,1.46
								c0.275,0.516,0.398,1.066,0.368,1.65c-0.03,0.584-0.17,1.2-0.421,1.848C511.657,251.954,511.368,252.485,511.01,252.98z"/>
						</g>
					</g>
					<path style="fill:#1C77B5;" d="M554.573,345.786H449.711c-4.426,0-8.013-3.588-8.013-8.013v-65.544
						c0-4.426,3.588-8.013,8.013-8.013h104.862c4.426,0,8.013,3.588,8.013,8.013v65.544
						C562.586,342.198,558.999,345.786,554.573,345.786z"/>
					<path style="fill:none;stroke:#0E5EA0;stroke-miterlimit:10;" d="M446.697,337.772v-65.543c0-1.664,1.349-3.014,3.014-3.014
						h104.862c1.664,0,3.013,1.349,3.013,3.013v65.544c0,1.664-1.349,3.014-3.014,3.014H449.711
						C448.047,340.786,446.697,339.437,446.697,337.772z"/>
					<rect x="515.588" y="294.698" style="fill:#0E5EA0;" width="50.074" height="20.605"/>
					<g>
						<circle style="fill:#ECB220;" cx="525.255" cy="305.001" r="5.815"/>
						<circle style="fill:#EDCB3A;" cx="527.329" cy="305.001" r="5.815"/>
					</g>
				</g>
				<g>
					<path style="fill:#AD1E58;" d="M521.414,392.505h-45.091c-8.876,0-16.071-7.195-16.071-16.071l0,0
						c0-8.876,7.195-16.071,16.071-16.071h45.091c8.876,0,16.071,7.195,16.071,16.071l0,0
						C537.485,385.31,530.29,392.505,521.414,392.505z"/>
					<path style="fill:#E71C2E;" d="M525.954,387.964h-45.091c-8.875,0-16.071-7.195-16.071-16.07v0
						c0-8.876,7.195-16.071,16.071-16.071h45.091c8.876,0,16.071,7.195,16.071,16.071v0
						C542.025,380.769,534.83,387.964,525.954,387.964z"/>
					<text transform="matrix(1 0 0 1 485.3754 378.5017)" style="fill:#FFFFFF; font-family:'Lato-Black'; font-size:16.8145px;">SELL</text>
				</g>
			</g>
			<g>
				<g>
					<g>
						<g>
							<path style="fill:#AD1E58;" d="M189.94,104.184h-61.257c-8.982,0-16.264,7.282-16.264,16.264v43.896
								c0,8.982,7.282,16.264,16.264,16.264h61.257c8.982,0,16.264-7.282,16.264-16.264v-43.896
								C206.204,111.466,198.922,104.184,189.94,104.184z"/>
						</g>
						<g>
							<path style="fill:#E71C2E;" d="M195.41,104.184h-61.257c-8.982,0-16.264,7.282-16.264,16.264v43.896
								c0,8.982,7.282,16.264,16.264,16.264h61.257c8.982,0,16.264-7.282,16.264-16.264v-43.896
								C211.674,111.466,204.393,104.184,195.41,104.184z"/>
						</g>
					</g>
					<g>
						<g>
							<path style="fill:#FFFFFF;" d="M176.548,163.517h-23.531c-2.277,0-4.123-1.846-4.123-4.124v-19.531
								c0-2.277,1.846-4.124,4.123-4.124h23.531c2.277,0,4.124,1.846,4.124,4.124v19.531
								C180.671,161.671,178.825,163.517,176.548,163.517z"/>
						</g>
						<g>
							<path style="fill:#FFFFFF;" d="M174.726,143.617h-19.889v-13.962c0-4.37,3.556-7.926,7.926-7.926h4.037
								c4.37,0,7.926,3.556,7.926,7.926V143.617z M157.838,140.617h13.889v-10.962c0-2.716-2.209-4.926-4.926-4.926h-4.037
								c-2.716,0-4.926,2.209-4.926,4.926V140.617z"/>
						</g>
						<g>
							<path style="fill:#E71C2E;" d="M166.784,145.159c-1.916-1.106-4.365-0.45-5.471,1.466c-1.106,1.916-0.45,4.365,1.466,5.471
								c0.291,0.168,0.595,0.282,0.904,0.37l-0.568,4.02h3.333l-0.567-4.014c0.964-0.276,1.828-0.906,2.369-1.843
								C169.356,148.714,168.7,146.265,166.784,145.159z"/>
						</g>
					</g>
				</g>
				<g>
					<g>
						<path style="fill:#709632;" d="M189.94,208.077h-61.257c-8.982,0-16.264,7.281-16.264,16.264v43.895
							c0,8.982,7.282,16.264,16.264,16.264h61.257c8.982,0,16.264-7.281,16.264-16.264V224.34
							C206.204,215.358,198.922,208.077,189.94,208.077z"/>
						<path style="fill:#9DC11E;" d="M195.41,208.077h-61.257c-8.982,0-16.264,7.281-16.264,16.264v43.895
							c0,8.982,7.282,16.264,16.264,16.264h61.257c8.982,0,16.264-7.281,16.264-16.264V224.34
							C211.674,215.358,204.393,208.077,195.41,208.077z"/>
					</g>
					<g>
						<g>
							<path style="fill:#FFFFFF;" d="M164.782,223.368l-22.836,11.185c0.301,32.162,22.836,38.429,22.836,38.429
								s22.535-6.268,22.836-38.429L164.782,223.368z"/>
						</g>
						<g>
							<path style="fill:#9DC11E;" d="M164.784,268.748l-0.396-0.17c-3.962-1.703-16.994-8.966-18.332-30.898l-0.04-0.665
								l18.767-9.192l18.767,9.192l-0.041,0.666c-1.341,21.9-14.368,29.186-18.328,30.897L164.784,268.748z M148.096,238.222
								c1.434,19.59,12.633,26.482,16.686,28.342c4.05-1.868,15.248-8.778,16.685-28.343l-16.685-8.172L148.096,238.222z"/>
						</g>
					</g>
				</g>
				<g>
					<g>
						<path style="fill:#0E5EA0;" d="M189.94,311.969h-61.257c-8.982,0-16.264,7.282-16.264,16.264v43.895
							c0,8.982,7.282,16.264,16.264,16.264h61.257c8.982,0,16.264-7.281,16.264-16.264v-43.895
							C206.204,319.251,198.922,311.969,189.94,311.969z"/>
						<path style="fill:#1C77B5;" d="M195.41,311.969h-61.257c-8.982,0-16.264,7.282-16.264,16.264v43.895
							c0,8.982,7.282,16.264,16.264,16.264h61.257c8.982,0,16.264-7.281,16.264-16.264v-43.895
							C211.674,319.251,204.393,311.969,195.41,311.969z"/>
					</g>
					<g>
						<g>
							<circle style="fill:#FFFFFF;" cx="157.046" cy="342.93" r="17.926"/>
						</g>
						<g>
							
								<rect x="168.059" y="348.963" transform="matrix(0.7071 -0.7071 0.7071 0.7071 -202.0159 224.8287)" style="fill:#FFFFFF;" width="4.659" height="14.62"/>
						</g>
						<g>
							
								<rect x="176.316" y="356.252" transform="matrix(0.7071 -0.7071 0.7071 0.7071 -206.1935 234.9152)" style="fill:#FFFFFF;" width="8.309" height="20.205"/>
						</g>
						<g>
							<path style="fill:#1C77B5;" d="M157.046,356.856c-3.72,0-7.217-1.448-9.847-4.079c-2.626-2.626-4.073-6.123-4.073-9.847
								c0-3.724,1.446-7.222,4.073-9.848c2.63-2.63,6.128-4.078,9.847-4.078c3.72,0,7.217,1.448,9.847,4.079
								c2.626,2.626,4.073,6.123,4.073,9.847c0,3.724-1.446,7.222-4.073,9.848C164.263,355.408,160.766,356.856,157.046,356.856z
								 M157.046,331.005c-3.186,0-6.181,1.24-8.433,3.492c-2.249,2.249-3.487,5.244-3.487,8.434c0,3.189,1.238,6.185,3.487,8.433
								c2.252,2.253,5.247,3.493,8.433,3.493c3.186,0,6.18-1.24,8.433-3.492c2.249-2.249,3.487-5.244,3.487-8.434
								c0-3.189-1.238-6.185-3.487-8.433C163.227,332.245,160.232,331.005,157.046,331.005z"/>
						</g>
					</g>
				</g>
			</g>
			<g>
				<g>
					<g>
						<path style="fill:none;stroke:#FFB692;stroke-width:10;stroke-miterlimit:10;" d="M380.649,165.793
							c-24.424,43.28-67.655,33.505-82.26,13.2"/>
						<g>
							<path style="fill:#FFB692;" d="M375.288,169.959c-8.411-3.091-1.786-14.313-1.786-14.313l-1.215-9.02
								c0,0,8.08-0.733,7.391,7.37c0,0,7.525-8.67,12.5-8.832c2.336-0.076,9.152,5.916,10.919,10.457
								c0.375,0.963-0.114,2.036-1.086,2.385c-2.335,0.84-6.814,2.97-9.246,7.524C389.375,171.874,381.446,178.392,375.288,169.959z
								"/>
							<path style="fill:#D88D87;" d="M379.678,153.995c0,0,5.307,4.038,2.302,11.196c0,0,1.542-6.759-2.639-10.8L379.678,153.995z"
								/>
							<path style="fill:#D88D87;" d="M389.1,163.373c0,0-2.031-5.009-6.308-8.321C382.792,155.052,388.613,155.451,389.1,163.373z"
								/>
							<g>
								<path style="fill:#D88D87;" d="M388.275,161.497l-0.123-0.423c0,0,6.897-6.037,14.496-6.436
									c0.07,0.136,0.137,0.272,0.199,0.406C399.998,155.496,393.299,156.989,388.275,161.497z"/>
								<path style="fill:#D88D87;" d="M385.035,156.334l-0.611-0.363c0,0,4.789-7.819,11.642-8.827
									c1.36,1.052,2.817,2.428,4.08,3.901c-2.194,0.406-8.613,2.036-13.049,7.69l-0.392-0.38c0,0,4.791-7.883,12.633-7.972
									l-2.711-2.776C396.625,147.607,389.332,148.936,385.035,156.334z"/>
							</g>
						</g>
					</g>
					<path style="fill:#AD1E58;" d="M315.921,181.925l-14.888-14.266c-4.373-3.798-10.997-3.333-14.796,1.04h0
						c-3.798,4.373-3.333,10.997,1.04,14.796l14.888,14.266L315.921,181.925z"/>
				</g>
				<g>
					<g>
						<g>
							
								<line style="fill:none;stroke:#284159;stroke-width:15;stroke-miterlimit:10;" x1="286.717" y1="263.826" x2="286.717" y2="441.079"/>
							<g>
								<path style="fill:#FF8B0D;" d="M297.581,413.566l-0.101,11.467c0,0,14.319,0.203,17.865,16.263l-39.358-0.035l0.629-27.879
									L297.581,413.566z"/>
								<path style="fill:#19283B;" d="M287.145,425.659c0.048,2.488-1.476,4.535-3.404,4.572c-1.927,0.037-3.529-1.95-3.576-4.438
									c-0.047-2.488,1.476-4.535,3.404-4.572C285.496,421.184,287.097,423.171,287.145,425.659z"/>
							</g>
						</g>
						<path style="fill:#284159;" d="M281.485,233.907H266.62c-10.965,0-19.936,8.971-19.936,19.936v0
							c0,10.965,8.971,19.936,19.936,19.936h14.865c10.965,0,19.936-8.971,19.936-19.936v0
							C301.421,242.878,292.45,233.907,281.485,233.907z"/>
						<g>
							<path style="fill:#E71C2E;" d="M299.337,242.669c0.012,2.185-1.219,4.201-3.19,5.143c-4.364,2.085-10.701,4.369-18.568,4.921
								c-11.073,0.777-19.967-2.242-25.278-4.684c-2.001-0.92-3.272-2.931-3.284-5.133c-0.106-19.857-0.213-38.055-0.319-57.794
								c-0.061-11.401,9.132-20.695,20.532-20.756l10.402-0.055c10.646-0.056,19.323,8.528,19.379,19.174L299.337,242.669z"/>
						</g>
						<g>
							<path style="fill:#FFB692;" d="M260.943,165.944c-0.742,4.352,4.553,8.886,11.827,10.127
								c7.274,1.241,13.773-1.281,14.515-5.633c0.742-4.352-4.553-8.886-11.827-10.127
								C268.184,159.07,261.685,161.592,260.943,165.944z"/>
						</g>
						<path style="fill:#FFB692;" d="M273.698,100.85l-0.972,0.005c-6.232,0.033-11.241,7.95-11.19,17.684l0.256,48.255
							l23.538-0.125l-0.256-48.255C285.023,108.68,279.93,100.817,273.698,100.85z"/>
						<path style="fill:#D88D87;" d="M273.698,100.85l-0.972,0.005c-6.232,0.033-11.244,7.375-11.197,16.399l0.175,32.969
							c0.034,6.5,5.331,11.741,11.831,11.706l0,0c6.5-0.034,11.741-5.331,11.707-11.831l-0.175-32.969
							C285.02,108.105,279.93,100.817,273.698,100.85z"/>
						<path style="fill:#D88D87;" d="M278.787,144.582c-0.185,1.103-2.47,1.64-5.106,1.199c-2.635-0.441-4.622-1.693-4.437-2.796
							c0.185-1.103,2.471-1.64,5.106-1.199C276.984,142.227,278.971,143.479,278.787,144.582z"/>
						<g>
							
								<line style="fill:none;stroke:#284159;stroke-width:15;stroke-miterlimit:10;" x1="262.376" y1="263.826" x2="262.376" y2="441.079"/>
							<g>
								<path style="fill:#ECB220;" d="M273.24,413.566l-0.101,11.467c0,0,14.319,0.203,17.865,16.263l-39.358-0.035l0.629-27.879
									L273.24,413.566z"/>
								<path style="fill:#19283B;" d="M262.805,425.659c0.047,2.488-1.477,4.535-3.404,4.572c-1.927,0.037-3.528-1.95-3.576-4.438
									c-0.047-2.488,1.476-4.535,3.404-4.572C261.156,421.184,262.757,423.171,262.805,425.659z"/>
							</g>
						</g>
						<g>
							
								<ellipse transform="matrix(0.9869 -0.1615 0.1615 0.9869 -15.109 45.973)" style="fill:#54321A;" cx="275.316" cy="115.952" rx="25.366" ry="25.366"/>
							<path style="fill:#D88D87;" d="M251.646,131.492h47.34c1.983,0,3.591-1.608,3.591-3.591v-0.276c0-1.983-1.607-3.59-3.59-3.59
								h-47.34c-1.983,0-3.591,1.608-3.591,3.591v0.275C248.055,129.885,249.663,131.492,251.646,131.492z"/>
							<path style="fill:#AA635F;" d="M300.625,127.83v-0.132c0-0.945-0.766-1.711-1.711-1.711h-47.196
								c-0.945,0-1.711,0.766-1.711,1.711v0.131c0,0.945,0.766,1.711,1.711,1.711h47.195
								C299.859,129.541,300.625,128.775,300.625,127.83z"/>
							<path style="fill:#54321A;" d="M275.316,162.883L275.316,162.883c11.494,0,20.811-9.317,20.811-20.811v-23.107
								c0-11.019-8.933-19.952-19.952-19.952h-1.719c-11.019,0-19.952,8.933-19.952,19.952v23.107
								C254.505,153.566,263.822,162.883,275.316,162.883z"/>
							<g>
								<path style="fill:#252538;" d="M279.875,137.092c-2.114-0.537-5.053-1.433-7.779-2.783
									c-1.792-0.888-3.632,1.324-2.838,3.446c0.845,2.258,2.497,4.455,5.709,5.042c2.632,0.481,4.392-0.061,5.565-0.943
									C282.193,140.605,281.759,137.57,279.875,137.092z"/>
								<path style="fill:#FF9292;" d="M274.967,142.797c-3.212-0.587-4.865-2.783-5.709-5.042
									c-0.119-0.318-0.172-0.637-0.182-0.949c1.199-0.411,2.752-0.478,4.765,0.162c3.11,0.988,4.454,3.372,4.989,5.715
									c0.001,0.005,0.001,0.009,0.002,0.014C277.817,143.001,276.553,143.087,274.967,142.797z"/>
								<path style="fill:#FFABAB;" d="M276.762,140.297c-0.369,0.517-1.586,0.314-2.717-0.453
									c-1.131-0.767-1.748-1.808-1.379-2.325c0.37-0.517,1.586-0.314,2.717,0.453C276.514,138.739,277.131,139.78,276.762,140.297
									z"/>
								<path style="fill:#FFFFFF;" d="M279.875,137.092c-2.114-0.537-5.053-1.433-7.779-2.783c-1.101-0.546-2.217,0.08-2.732,1.135
									c1.522,1.635,3.944,3.07,6.853,3.881c1.865,0.52,3.692,0.717,5.329,0.631C281.672,138.711,281.063,137.394,279.875,137.092z
									"/>
							</g>
							<g>
								<circle style="fill:#252538;" cx="284.543" cy="125.214" r="2.436"/>
								<path style="fill:#252538;" d="M266.089,122.779c1.345,0,2.436,1.09,2.436,2.436c0,1.345-1.09,2.436-2.436,2.436
									c-1.345,0-2.435-1.09-2.435-2.436C263.653,123.869,264.743,122.779,266.089,122.779z"/>
							</g>
							<path style="fill:#D88D87;" d="M275.188,135.332h0.256c1.844,0,3.338-1.495,3.338-3.338v-5.877
								c0-1.844-1.495-3.338-3.338-3.338h-0.256c-1.844,0-3.338,1.494-3.338,3.338v5.877
								C271.85,133.837,273.344,135.332,275.188,135.332z"/>
							<g>
								<path style="fill:#A1BDC6;" d="M262.018,118.302l4.222-1.33c0.925-0.292,1.912,0.222,2.203,1.148
									c0.291,0.925-0.222,1.911-1.148,2.203l-4.222,1.33c-0.925,0.291-1.911-0.222-2.203-1.148
									C260.579,119.58,261.093,118.594,262.018,118.302z"/>
								<path style="fill:#A1BDC6;" d="M284.392,116.972l4.222,1.33c0.925,0.291,1.439,1.278,1.148,2.203
									c-0.292,0.925-1.278,1.439-2.203,1.148l-4.222-1.33c-0.925-0.292-1.439-1.278-1.147-2.203
									C282.481,117.195,283.467,116.681,284.392,116.972z"/>
							</g>
							<path style="fill:#D88D87;" d="M270.541,148.4c0,1.104,2.138,1.999,4.775,1.999c2.637,0,4.775-0.895,4.775-1.999
								c0-1.104-2.138-1.999-4.775-1.999C272.679,146.401,270.541,147.296,270.541,148.4z"/>
							<path style="fill:#FFB692;" d="M275.316,157.015L275.316,157.015c11.494,0,20.811-9.318,20.811-20.811v-23.107
								c0-11.019-8.933-19.952-19.952-19.952h-1.719c-11.019,0-19.952,8.933-19.952,19.952v23.107
								C254.505,147.697,263.822,157.015,275.316,157.015z"/>
							<g>
								<g>
									<path style="fill:#252538;" d="M279.875,137.092c-2.114-0.537-5.053-1.433-7.779-2.783
										c-1.792-0.888-3.632,1.324-2.838,3.446c0.845,2.258,2.497,4.455,5.709,5.042c2.632,0.481,4.392-0.061,5.565-0.943
										C282.193,140.605,281.759,137.57,279.875,137.092z"/>
									<path style="fill:#FF9292;" d="M274.967,142.797c-3.212-0.587-4.865-2.783-5.709-5.042
										c-0.119-0.318-0.172-0.637-0.182-0.949c1.199-0.411,2.752-0.478,4.765,0.162c3.11,0.988,4.454,3.372,4.989,5.715
										c0.001,0.005,0.001,0.009,0.002,0.014C277.817,143.001,276.553,143.087,274.967,142.797z"/>
									<path style="fill:#FFABAB;" d="M276.762,140.297c-0.369,0.517-1.586,0.314-2.717-0.453
										c-1.131-0.767-1.748-1.808-1.379-2.325c0.37-0.517,1.586-0.314,2.717,0.453
										C276.514,138.739,277.131,139.78,276.762,140.297z"/>
									<path style="fill:#FFFFFF;" d="M279.875,137.092c-2.114-0.537-5.053-1.433-7.779-2.783
										c-1.101-0.546-2.217,0.08-2.732,1.135c1.522,1.635,3.944,3.07,6.853,3.881c1.865,0.52,3.692,0.717,5.329,0.631
										C281.672,138.711,281.063,137.394,279.875,137.092z"/>
								</g>
								<g>
									<circle style="fill:#252538;" cx="286.81" cy="125.214" r="2.436"/>
									<path style="fill:#252538;" d="M268.355,122.779c1.345,0,2.436,1.09,2.436,2.436c0,1.345-1.09,2.436-2.436,2.436
										c-1.345,0-2.436-1.09-2.436-2.436C265.919,123.869,267.01,122.779,268.355,122.779z"/>
								</g>
								<path style="fill:#D88D87;" d="M277.454,135.332h0.256c1.844,0,3.338-1.495,3.338-3.338v-5.877
									c0-1.844-1.495-3.338-3.338-3.338h-0.256c-1.844,0-3.338,1.494-3.338,3.338v5.877
									C274.116,133.837,275.611,135.332,277.454,135.332z"/>
								<g>
									<path style="fill:#54321A;" d="M264.284,118.302l4.222-1.33c0.925-0.292,1.911,0.222,2.203,1.148
										c0.291,0.925-0.222,1.911-1.147,2.203l-4.222,1.33c-0.925,0.291-1.911-0.222-2.203-1.148
										C262.845,119.58,263.359,118.594,264.284,118.302z"/>
									<path style="fill:#54321A;" d="M286.659,116.972l4.222,1.33c0.925,0.291,1.439,1.278,1.148,2.203
										c-0.292,0.925-1.278,1.439-2.203,1.148l-4.222-1.33c-0.925-0.292-1.439-1.278-1.148-2.203
										C284.747,117.195,285.733,116.681,286.659,116.972z"/>
								</g>
								<path style="fill:#D88D87;" d="M270.541,148.4c0,1.104,2.138,1.999,4.775,1.999c2.637,0,4.775-0.895,4.775-1.999
									c0-1.104-2.138-1.999-4.775-1.999C272.679,146.401,270.541,147.296,270.541,148.4z"/>
							</g>
							<path style="fill:#F79C97;" d="M275.741,133.363L275.741,133.363c0.506,0,0.916-0.41,0.916-0.916v-6.506
								c0-0.506-0.41-0.916-0.916-0.916l0,0c-0.506,0-0.916,0.41-0.916,0.916v6.506
								C274.825,132.954,275.235,133.363,275.741,133.363z"/>
							<path style="fill:#54321A;" d="M259.499,96.128c3.753,2.086,6.296,6.087,6.296,10.685c0,6.749-5.471,12.22-12.22,12.22
								c-1.216,0-2.388-0.183-3.496-0.514c-0.085-0.844-0.129-1.701-0.129-2.567C249.95,107.926,253.681,100.776,259.499,96.128z"/>
							<path style="fill:#54321A;" d="M291.028,96.128c-3.753,2.086-6.296,6.087-6.296,10.685c0,6.749,5.471,12.22,12.22,12.22
								c1.216,0,2.388-0.183,3.496-0.514c0.085-0.844,0.129-1.701,0.129-2.567C300.577,107.926,296.846,100.776,291.028,96.128z"/>
							<g>
								<path style="fill:#54321A;" d="M275.962,113.291h-13.876l0,0c0-11.233,9.106-20.34,20.34-20.34h13.875l0,0
									C296.301,104.184,287.195,113.291,275.962,113.291z"/>
								<path style="fill:#54321A;" d="M273.739,108.08l-10.751,3.122l0,0c-2.527-8.704,2.48-17.808,11.183-20.336l10.751-3.122l0,0
									C287.449,96.448,282.442,105.553,273.739,108.08z"/>
								<path style="fill:#54321A;" d="M271.548,107.31l-9.464,5.981l0,0c-4.842-7.661-2.556-17.797,5.106-22.639l9.464-5.981l0,0
									C281.495,92.332,279.21,102.468,271.548,107.31z"/>
							</g>
							<path style="fill:#875330;" d="M262.166,95.629c6.76,5.425,18.405,11.672,32.157,6.079c-1.617,3.384-4.143,6.248-7.261,8.283
								c-8.986,1.446-19.775-1.64-27.358-7.719C260.032,99.92,260.865,97.649,262.166,95.629z"/>
						</g>
					</g>
				</g>
				<g>
					<path style="fill:#FF8B0D;" d="M409.064,216.025c-5.436-32.848-42.356-55.1-74.037-57.977l-0.377-2.276l-7.91,1.309
						c-39.01,6.456-65.4,43.313-58.944,82.323c6.456,39.01,43.313,65.4,82.323,58.944l7.91-1.309l-0.377-2.276
						C386.717,281.832,414.5,248.872,409.064,216.025z"/>
					
						<ellipse transform="matrix(0.2492 -0.9685 0.9685 0.2492 41.9309 506.4745)" style="fill:#ECB220;" cx="347.617" cy="226.194" rx="71.594" ry="71.594"/>
					
						<ellipse transform="matrix(0.2881 -0.9576 0.9576 0.2881 30.8625 493.9023)" style="fill:#EDCB3A;" cx="347.617" cy="226.194" rx="62.283" ry="62.283"/>
					<path style="fill:#FF8B0D;" d="M337.448,164.747c-0.802,0.133-1.591,0.294-2.38,0.456
						c33.035-4.175,63.732,18.479,69.216,51.613c5.483,33.134-16.279,64.47-48.897,71.16c0.799-0.101,1.598-0.202,2.4-0.335
						c33.936-5.616,56.894-37.68,51.278-71.616C403.448,182.089,371.384,159.131,337.448,164.747z"/>
					<g>
						<path style="fill:#FF8B0D;" d="M371.562,227.397c-2.379-1.934-5.745-3.063-10.096-3.388c1.802-1.015,3.306-2.114,4.513-3.298
							c1.206-1.185,2.151-2.422,2.832-3.715c0.682-1.292,1.116-2.631,1.304-4.021c0.188-1.389,0.164-2.795-0.072-4.219
							c-0.433-2.615-1.268-4.908-2.504-6.882c-1.237-1.974-2.951-3.541-5.142-4.7c-2.192-1.159-4.895-1.89-8.108-2.195
							c-2.578-0.243-5.541-0.15-8.874,0.269l-1.721-10.4l-7.212,1.193l1.712,10.348l-8.041,1.331l-1.712-10.348l-7.212,1.193
							l1.713,10.348l-3.409,0.564l-11.055,1.83l1.193,7.212l11.056-1.83l8.12,49.064l-11.055,1.83l1.193,7.212l11.055-1.83
							l3.409-0.564l1.609,9.725l7.212-1.194l-1.609-9.725l8.041-1.331l1.609,9.725l7.212-1.194l-1.612-9.742
							c3.585-0.637,6.729-1.642,9.401-3.038c2.802-1.463,5.069-3.226,6.802-5.289c1.732-2.062,2.93-4.342,3.591-6.839
							c0.661-2.497,0.768-5.096,0.321-7.798C375.429,232.1,373.941,229.332,371.562,227.397z M336.085,208.064l8.628-1.428
							c1.656-0.274,3.108-0.38,4.357-0.318c1.248,0.062,2.316,0.333,3.201,0.814c0.885,0.48,1.599,1.19,2.143,2.13
							c0.543,0.939,0.94,2.165,1.19,3.675c0.255,1.54,0.227,2.857-0.084,3.954c-0.311,1.096-0.876,2.01-1.695,2.743
							c-0.819,0.733-1.862,1.323-3.131,1.772c-1.268,0.449-2.716,0.808-4.343,1.077l-7.669,1.269L336.085,208.064z M361.526,240.877
							c-0.098,1.031-0.431,1.996-0.998,2.896c-0.568,0.9-1.428,1.699-2.58,2.397c-1.153,0.699-2.703,1.208-4.649,1.531
							l-10.371,1.716l-2.618-15.817l10.284-1.702c1.858-0.308,3.427-0.388,4.705-0.241c1.278,0.147,2.34,0.479,3.187,0.995
							c0.847,0.517,1.499,1.214,1.958,2.093c0.458,0.88,0.784,1.9,0.976,3.062C361.589,238.822,361.624,239.846,361.526,240.877z"/>
						<path style="fill:#FFEEA4;" d="M378.467,226.255c-2.379-1.934-5.745-3.063-10.096-3.388c1.802-1.015,3.306-2.114,4.513-3.298
							c1.206-1.185,2.151-2.422,2.832-3.714c0.682-1.292,1.116-2.631,1.304-4.021c0.188-1.389,0.164-2.795-0.072-4.219
							c-0.433-2.615-1.268-4.908-2.504-6.882c-1.237-1.974-2.951-3.541-5.142-4.7c-2.192-1.16-4.895-1.891-8.108-2.195
							c-2.578-0.243-5.541-0.15-8.874,0.269l-1.721-10.4l-7.212,1.193l1.712,10.348l-8.041,1.331l-1.712-10.348l-7.212,1.193
							l1.712,10.348l-3.409,0.564l-11.055,1.83l1.193,7.212l11.055-1.83l8.12,49.064l-11.056,1.83l1.194,7.212l11.055-1.83
							l3.409-0.564l1.609,9.725l7.212-1.194l-1.609-9.725l8.041-1.331l1.609,9.725l7.212-1.193l-1.612-9.742
							c3.585-0.637,6.729-1.642,9.401-3.038c2.802-1.463,5.069-3.226,6.802-5.289c1.732-2.062,2.93-4.342,3.591-6.839
							c0.661-2.497,0.768-5.096,0.321-7.798C382.335,230.957,380.846,228.189,378.467,226.255z M342.991,206.921l8.628-1.428
							c1.656-0.274,3.108-0.38,4.357-0.318c1.248,0.062,2.316,0.333,3.201,0.814c0.885,0.48,1.599,1.19,2.143,2.13
							c0.543,0.939,0.94,2.165,1.19,3.675c0.255,1.54,0.227,2.857-0.084,3.954c-0.311,1.096-0.876,2.01-1.695,2.743
							c-0.819,0.733-1.862,1.323-3.131,1.772c-1.268,0.449-2.716,0.808-4.343,1.077l-7.669,1.269L342.991,206.921z M368.432,239.734
							c-0.098,1.031-0.431,1.996-0.998,2.896c-0.568,0.9-1.428,1.699-2.58,2.397c-1.153,0.699-2.703,1.208-4.649,1.531
							l-10.371,1.716l-2.618-15.817l10.284-1.702c1.858-0.307,3.427-0.388,4.705-0.241c1.278,0.147,2.34,0.479,3.187,0.995
							c0.847,0.517,1.499,1.214,1.958,2.093c0.458,0.88,0.784,1.9,0.976,3.062C368.495,237.679,368.53,238.703,368.432,239.734z"/>
					</g>
				</g>
				<g>
					<path style="fill:none;stroke:#FFB692;stroke-width:10;stroke-miterlimit:10;" d="M246.687,191.4
						c-23.271,43.475-3.014,70.873,21.069,71.893"/>
					<path style="fill:#AD1E58;" d="M251.481,207.91l11.181-21.033c2.849-6.055,0.25-13.273-5.804-16.122h0
						c-6.055-2.849-13.273-0.25-16.121,5.804l-11.182,21.033L251.481,207.91z"/>
					<g>
						<g>
							<path style="fill:#FFB692;" d="M264.037,262.081c-1.713-7.841,9.951-8.238,9.951-8.238l6.228-5.259
								c0,0,4.443,5.75-2.009,9.13c0,0,6.969,2.016,12.06,0.14c6.214-2.291,2.471,12.874-2.865,16.967
								c-2.898,2.223-7.071-1.259-11.681-0.905C269.297,274.409,260.63,270.791,264.037,262.081z"/>
						</g>
						<g>
							<path style="fill:#D88D87;" d="M278.062,266.103l-0.162,0.57c0,0,7.216,3.044,13.701,2.118
								c0.144-0.329,0.283-0.66,0.412-0.994C289.447,268.41,284.666,268.801,278.062,266.103z"/>
							<path style="fill:#D88D87;" d="M277.173,270.399c0,0,6.478,2.814,11.743,2.922c0.23-0.278,0.453-0.576,0.671-0.887
								c-2.245,0-6.785-0.346-12.255-2.649L277.173,270.399z"/>
							<path style="fill:#D88D87;" d="M278.855,262.133c0,0,7.262,3.329,14.494,0.743c0.072-0.498,0.118-0.975,0.136-1.427
								c-2.796,1.094-7.893,2.283-14.495,0.3L278.855,262.133z"/>
						</g>
					</g>
				</g>
			</g>
		</g>
	</g>
</g>
</svg>
