<svg width="126" height="134" viewBox="0 0 126 134" fill="none" xmlns="http://www.w3.org/2000/svg">
<path d="M74.8921 76.3059C74.9151 76.3267 74.937 76.3487 74.9578 76.3717L75.1452 76.5656L75.8685 77.3317L78.5974 80.2545L88.2667 90.68H88.1549L99.1229 78.1175L99.1985 78.032L99.2609 78.1273L100.06 79.3306L108.358 91.8241L108.243 91.8044L116.219 85.4327L116.265 85.3966L116.305 85.4393L122.394 92.3436L124.037 94.2275L124.465 94.7206C124.56 94.8324 124.606 94.8916 124.606 94.8916C124.606 94.8916 124.55 94.839 124.452 94.7338L124.018 94.2275L122.341 92.3666L116.213 85.5116H116.298L108.342 91.926L108.276 91.9787L108.227 91.9063L99.9185 79.4326L99.1163 78.226H99.2511C95.2597 82.7959 91.5051 87.0865 88.27 90.7885L88.2141 90.851L88.1582 90.7885C84.1866 86.4684 80.8627 82.8584 78.5316 80.3203L75.8357 77.3613L75.1288 76.5788C75.0532 76.49 74.994 76.4243 74.948 76.375C74.9019 76.3256 74.8888 76.3092 74.8921 76.3059Z" fill="#E6E6E6"/>
<path d="M87.1329 90.7654C87.1309 90.9938 87.197 91.2177 87.3227 91.4084C87.4484 91.5991 87.628 91.7481 87.8386 91.8365C88.0493 91.9248 88.2815 91.9484 88.5056 91.9043C88.7297 91.8602 88.9357 91.7504 89.0972 91.5889C89.2587 91.4274 89.3685 91.2214 89.4126 90.9973C89.4567 90.7732 89.4331 90.541 89.3448 90.3303C89.2564 90.1197 89.1074 89.9401 88.9167 89.8144C88.726 89.6887 88.5021 89.6226 88.2737 89.6246C87.9717 89.6263 87.6825 89.747 87.4689 89.9606C87.2553 90.1742 87.1346 90.4634 87.1329 90.7654Z" fill="#E0E0E0"/>
<path d="M107.277 92.1363C107.278 92.3641 107.347 92.5863 107.474 92.7749C107.602 92.9634 107.783 93.1099 107.994 93.1957C108.205 93.2815 108.436 93.3027 108.659 93.2568C108.882 93.2108 109.087 93.0997 109.247 92.9376C109.407 92.7754 109.515 92.5694 109.557 92.3457C109.6 92.1221 109.576 91.8907 109.487 91.681C109.398 91.4713 109.249 91.2927 109.059 91.1677C108.868 91.0428 108.645 90.9771 108.417 90.979C108.113 90.9817 107.822 91.1049 107.608 91.3219C107.394 91.5388 107.275 91.8317 107.277 92.1363Z" fill="#E0E0E0"/>
<path d="M115.111 85.801C115.113 86.0279 115.183 86.2492 115.31 86.4368C115.438 86.6244 115.618 86.7699 115.829 86.8549C116.039 86.94 116.27 86.9607 116.492 86.9145C116.714 86.8683 116.918 86.7573 117.077 86.5955C117.236 86.4336 117.344 86.2282 117.386 86.0053C117.428 85.7823 117.404 85.5518 117.315 85.3429C117.226 85.134 117.078 84.9561 116.888 84.8316C116.698 84.7072 116.476 84.6418 116.249 84.6437C115.945 84.6472 115.655 84.7709 115.441 84.9877C115.228 85.2046 115.11 85.4969 115.111 85.801Z" fill="#E0E0E0"/>
<path d="M98.0379 78.2717C98.0392 78.4994 98.108 78.7216 98.2357 78.9102C98.3634 79.0988 98.5441 79.2452 98.7551 79.331C98.966 79.4168 99.1977 79.4381 99.4207 79.3921C99.6438 79.3462 99.8482 79.2351 100.008 79.0729C100.168 78.9108 100.276 78.7048 100.319 78.4811C100.362 78.2574 100.337 78.0261 100.248 77.8164C100.159 77.6067 100.01 77.4281 99.82 77.3031C99.6296 77.1781 99.4064 77.1125 99.1787 77.1144C98.8741 77.117 98.5829 77.2403 98.3691 77.4573C98.1552 77.6742 98.0361 77.9671 98.0379 78.2717Z" fill="#E0E0E0"/>
<path d="M123.698 94.9242C123.7 95.1519 123.768 95.3741 123.896 95.5627C124.024 95.7513 124.205 95.8977 124.415 95.9835C124.626 96.0693 124.858 96.0906 125.081 96.0446C125.304 95.9987 125.509 95.8876 125.668 95.7254C125.828 95.5632 125.936 95.3573 125.979 95.1336C126.022 94.9099 125.997 94.6786 125.909 94.4689C125.82 94.2592 125.671 94.0805 125.48 93.9556C125.29 93.8306 125.067 93.7649 124.839 93.7669C124.534 93.7695 124.243 93.8928 124.029 94.1097C123.816 94.3267 123.697 94.6196 123.698 94.9242Z" fill="#E0E0E0"/>
<path d="M22.9159 7.85803H15.5283V37.2407H22.9159V7.85803Z" fill="#E6E6E6"/>
<path d="M33.7821 14.2659H26.3945V37.2374H33.7821V14.2659Z" fill="#E6E6E6"/>
<path d="M44.8153 19.5129H37.4277V37.2372H44.8153V19.5129Z" fill="#E6E6E6"/>
<path d="M55.0302 26.7131H47.6426V37.2405H55.0302V26.7131Z" fill="#E6E6E6"/>
<path d="M49.1158 0.526367C49.1158 0.526367 49.0468 0.615137 48.912 0.772949L48.2972 1.47982L45.9596 4.1429L37.5298 13.6774L37.4837 13.7267L37.4311 13.6873L31.9307 9.47235H32.0425L24.3491 19.2238L24.2571 19.3422L24.2012 19.4145L24.1321 19.3521L13.7724 10.2022H13.8875C9.82053 15.5416 6.37496 20.1017 3.90914 23.327L1.03893 27.0783L0.272885 28.0646L0.0723311 28.3178C0.0499465 28.3477 0.0257928 28.3762 0 28.4033C0.018676 28.3712 0.039549 28.3404 0.0624682 28.3112L0.253156 28.0482L0.999479 27.0388L3.83024 23.2612L13.7593 10.0905L13.8119 10.0214L13.8743 10.0773L24.2472 19.2041H24.1223L24.2143 19.0858L31.9176 9.34084L31.9669 9.27838L32.0293 9.32769L37.5199 13.5393H37.4213L45.8938 4.08043C46.9163 2.94616 47.7185 2.05517 48.2676 1.45023L48.8955 0.759798C49.0402 0.59541 49.1158 0.526367 49.1158 0.526367Z" fill="#E6E6E6"/>
<path d="M47.8958 7.34168C47.8931 7.2918 47.8987 7.24182 47.9122 7.19373L47.9944 6.7729C48.0799 6.38166 48.195 5.86219 48.3232 5.22766C48.6158 3.91255 49.0301 2.11744 49.5068 0.10533L49.612 0.203963L49.2405 0.319034C47.1791 0.953571 45.3116 1.51578 43.9571 1.91688L42.3493 2.38046L41.9088 2.49882C41.8583 2.51766 41.8049 2.52767 41.751 2.52841C41.7981 2.50279 41.8477 2.48186 41.8989 2.46594L42.3296 2.31799L43.9209 1.80181C45.2656 1.37112 47.1297 0.789184 49.1813 0.157934L49.5528 0.0461505L49.6975 0.00012207L49.6613 0.14807C49.2043 2.17004 48.7868 3.95858 48.458 5.25725C48.2969 5.88521 48.1654 6.40139 48.07 6.78934C48.024 6.95044 47.9846 7.08853 47.955 7.20031C47.9423 7.25009 47.9224 7.29772 47.8958 7.34168Z" fill="#E6E6E6"/>
<path d="M106.175 50.2075C107.643 50.1837 109.085 50.5956 110.319 51.3913C111.553 52.187 112.523 53.3307 113.107 54.6778C113.691 56.0249 113.862 57.5149 113.599 58.9594C113.337 60.4038 112.651 61.7379 111.63 62.793C110.609 63.848 109.298 64.5766 107.863 64.8867C106.428 65.1967 104.933 65.0742 103.568 64.5348C102.202 63.9953 101.028 63.0631 100.192 61.8559C99.3562 60.6488 98.8972 59.2209 98.8729 57.7529C98.843 55.7847 99.595 53.885 100.964 52.4705C102.333 51.0559 104.207 50.2421 106.175 50.2075ZM106.353 61.1821C107.054 61.169 107.737 60.9481 108.313 60.5475C108.889 60.1468 109.334 59.5844 109.591 58.9311C109.848 58.2778 109.905 57.5631 109.756 56.8771C109.607 56.1912 109.258 55.5649 108.753 55.0774C108.248 54.5898 107.609 54.2629 106.919 54.1379C106.228 54.0129 105.516 54.0954 104.872 54.375C104.228 54.6547 103.681 55.1189 103.301 55.709C102.921 56.2991 102.724 56.9886 102.736 57.6905C102.744 58.1572 102.844 58.6178 103.03 59.0459C103.217 59.474 103.485 59.8612 103.821 60.1854C104.157 60.5097 104.553 60.7646 104.988 60.9356C105.422 61.1066 105.886 61.1903 106.353 61.1821Z" fill="#E0E0E0"/>
<path d="M106.161 49.2838C108.375 49.2522 110.511 50.0996 112.101 51.6403C113.692 53.1811 114.606 55.2894 114.644 57.5032L109.581 57.6347C109.548 55.4352 108.058 54.5409 106.293 54.4292C105.859 54.4032 105.425 54.4673 105.017 54.6175C104.609 54.7677 104.236 55.0007 103.923 55.3017C103.61 55.6028 103.362 55.9656 103.195 56.3671C103.029 56.7686 102.947 57.2002 102.956 57.6347L97.9453 57.7695C97.911 55.5551 98.7571 53.4177 100.298 51.8266C101.838 50.2356 103.947 49.321 106.161 49.2838Z" fill="#F0F0F0"/>
<path d="M46.0618 82.9207C48.6176 80.2388 52.1241 78.6673 55.8268 78.5443C59.5295 78.4213 63.1325 79.7567 65.8606 82.2631C67.2008 83.4983 68.2825 84.9872 69.0429 86.6435C69.8034 88.2997 70.2276 90.0905 70.2909 91.9119C70.3542 93.7334 70.0554 95.5492 69.4117 97.2543C68.7681 98.9594 67.7924 100.52 66.5412 101.845C63.9853 104.527 60.4789 106.098 56.7762 106.221C53.0735 106.344 49.4705 105.009 46.7423 102.503C45.4022 101.267 44.3205 99.7785 43.56 98.1222C42.7995 96.466 42.3753 94.6752 42.312 92.8538C42.2487 91.0323 42.5476 89.2165 43.1912 87.5114C43.8349 85.8063 44.8106 84.2459 46.0618 82.9207ZM61.1854 96.9068C61.7853 96.2735 62.2531 95.5272 62.5616 94.7113C62.8702 93.8954 63.0134 93.0263 62.9828 92.1545C62.9522 91.2828 62.7484 90.4258 62.3834 89.6336C62.0184 88.8414 61.4994 88.1297 60.8567 87.54C59.5508 86.343 57.8271 85.7067 56.0567 85.7682C54.2863 85.8297 52.6108 86.584 51.3912 87.8688C50.7914 88.5021 50.3236 89.2484 50.015 90.0643C49.7064 90.8802 49.5633 91.7493 49.5939 92.621C49.6245 93.4928 49.8282 94.3497 50.1932 95.142C50.5582 95.9342 51.0772 96.6459 51.72 97.2356C53.0258 98.4354 54.7511 99.0735 56.5234 99.012C58.2956 98.9504 59.9726 98.1943 61.192 96.9068H61.1854Z" fill="#F5F5F5"/>
<path d="M46.062 82.9207C48.6178 80.2388 52.1243 78.6673 55.827 78.5443C59.5297 78.4213 63.1327 79.7567 65.8609 82.2631L60.87 87.5499C59.5642 86.3528 57.8405 85.7165 56.0701 85.778C54.2997 85.8395 52.6242 86.5939 51.4046 87.8786C50.8048 88.5119 50.337 89.2583 50.0284 90.0742C49.7198 90.89 49.5767 91.7592 49.6073 92.6309C49.6379 93.5026 49.8416 94.3596 50.2066 95.1518C50.5716 95.944 51.0906 96.6557 51.7334 97.2454L46.736 102.512C45.3948 101.277 44.3124 99.7869 43.5516 98.1295C42.7908 96.472 42.3667 94.68 42.304 92.8574C42.2413 91.0348 42.5412 89.2179 43.1863 87.5121C43.8314 85.8064 44.8089 84.2457 46.062 82.9207Z" fill="#E0E0E0"/>
<path d="M65.2883 79.9915C72.1926 86.3796 73.031 96.759 66.5705 103.611L59.5577 97.5645C62.6449 94.2932 63.3156 89.9238 60.0115 86.8694L65.2883 79.9915Z" fill="#EBEBEB"/>
<path d="M58.8271 97.9982L62.9927 106.237C64.7152 105.606 66.2673 104.583 67.5266 103.249L60.0436 97.2058L58.8271 97.9982Z" fill="#E0E0E0"/>
<path d="M74.5426 21.946C74.4819 18.2529 75.5179 14.6248 77.5196 11.5206C79.5213 8.41648 82.3987 5.97575 85.7878 4.50722C89.1769 3.03868 92.9254 2.60834 96.5591 3.27063C100.193 3.93292 103.548 5.65808 106.202 8.22787C108.855 10.7977 110.686 14.0966 111.464 17.7074C112.242 21.3181 111.931 25.0785 110.571 28.5127C109.211 31.9469 106.864 34.9006 103.825 37.0003C100.786 39.0999 97.1929 40.2511 93.4998 40.3081C88.5534 40.3785 83.7808 38.4855 80.2275 35.0437C76.6742 31.602 74.6299 26.8921 74.5426 21.946ZM102.137 21.5022C102.108 19.7371 101.556 18.0201 100.552 16.5685C99.5472 15.1168 98.1347 13.9957 96.4929 13.3467C94.8512 12.6978 93.0539 12.5502 91.3283 12.9227C89.6027 13.2951 88.0263 14.1709 86.7984 15.4393C85.5705 16.7076 84.7462 18.3116 84.4299 20.0484C84.1135 21.7851 84.3193 23.5767 85.0211 25.1966C85.7229 26.8164 86.8892 28.1918 88.3727 29.1488C89.8561 30.1058 91.59 30.6015 93.3551 30.5731C95.7218 30.5324 97.9756 29.5545 99.622 27.8539C101.268 26.1532 102.173 23.8689 102.137 21.5022Z" fill="#FAFAFA"/>
<path d="M74.5431 21.946C74.4684 16.9963 76.3606 12.2191 79.8044 8.66312C83.2483 5.10711 87.9623 3.0628 92.9119 2.97888L93.0697 12.7205C90.7023 12.7584 88.4469 13.7353 86.7997 15.4361C85.1526 17.1369 84.2485 19.4224 84.2864 21.7898C84.3244 24.1572 85.3012 26.4125 87.002 28.0597C88.7028 29.7069 90.9883 30.611 93.3557 30.573L93.5004 40.3081C88.5535 40.3802 83.7799 38.4877 80.2262 35.0456C76.6725 31.6035 74.6288 26.8926 74.5431 21.946Z" fill="#E0E0E0"/>
<path d="M91.2352 1.47966C103.278 1.28569 112.888 10.59 113.079 22.6331L101.68 22.8172C101.588 17.0571 97.1861 13.4307 91.4292 13.526L91.2352 1.47966Z" fill="#F0F0F0"/>
<path d="M113.227 133C113.227 133.046 88.6443 133.085 58.3213 133.085C27.9983 133.085 3.41577 133.046 3.41577 133C3.41577 132.954 27.9918 132.911 58.3213 132.911C88.6509 132.911 113.227 132.95 113.227 133Z" fill="#263238"/>
<path d="M37.1051 87.4116L98.0273 86.9744V87.8292L37.1051 88.375V87.4116Z" fill="#263238"/>
<path d="M35.777 25.4737L37.1644 87.9214L98.0274 87.4479V24.4249L35.777 25.4737Z" fill="white"/>
<path d="M35.7772 25.4738L98.0276 24.3527H98.1032V24.4283C98.1032 42.4682 98.1032 63.7564 98.1032 86.4683V87.5368H98.0177L37.1548 88.0003H37.0824V87.928C36.2967 50.5002 35.7838 26.1182 35.7673 25.4771C35.7673 26.1083 36.3526 50.5002 37.2271 87.9214L37.1548 87.8491L98.0177 87.3658L97.9323 87.4513V86.465C97.9323 63.7531 97.9323 42.4649 97.9323 24.425L98.0079 24.5006L35.7772 25.4738Z" fill="#263238"/>
<path d="M35.5341 25.891L98.2941 25.5327L98.373 22.8992L35.5341 23.2904V25.891Z" fill="#263238"/>
<path d="M65.5778 89.6243C65.4726 89.6243 65.3608 89.1345 65.3312 88.5229C65.3016 87.9114 65.3674 87.4117 65.4726 87.4051C65.5778 87.3985 65.6896 87.8917 65.7192 88.5032C65.7488 89.1147 65.6863 89.6243 65.5778 89.6243Z" fill="#263238"/>
<path d="M65.5535 89.1741C65.5535 89.1511 65.6588 89.1445 65.8231 89.2103C65.9224 89.252 66.0153 89.3074 66.0993 89.3747C66.2124 89.4656 66.3073 89.5772 66.3788 89.7034C66.4763 89.8781 66.5253 90.0758 66.5207 90.2758C66.516 90.4758 66.458 90.671 66.3525 90.841C66.2892 90.9435 66.2092 91.0346 66.1157 91.1106C66.0182 91.189 65.9066 91.2481 65.787 91.2848C65.5328 91.355 65.2622 91.3353 65.0209 91.229C64.8989 91.1746 64.7876 91.0989 64.6922 91.0054C64.5973 90.9118 64.5223 90.8 64.4719 90.6766C64.3808 90.4524 64.3613 90.2055 64.416 89.9697C64.4564 89.7732 64.5512 89.592 64.6895 89.4467C64.8278 89.3014 65.0042 89.1978 65.1985 89.1478C65.4471 89.0798 65.7119 89.1031 65.9448 89.2136C66.1026 89.2925 66.1618 89.3747 66.1486 89.3944C66.1355 89.4141 66.0467 89.3944 65.8955 89.3549C65.6896 89.3165 65.4771 89.3347 65.2807 89.4075C65.1542 89.4567 65.0414 89.5357 64.9519 89.6377C64.8492 89.7579 64.7822 89.9044 64.7584 90.0607C64.7346 90.2169 64.7549 90.3768 64.8171 90.5221C64.8887 90.6783 65.0167 90.8016 65.1755 90.8673C65.3335 90.938 65.5108 90.953 65.6785 90.91C65.8327 90.8701 65.9664 90.774 66.0533 90.6404C66.139 90.5145 66.19 90.3682 66.2012 90.2163C66.2112 90.1476 66.2112 90.0779 66.2012 90.0092C66.1905 89.9446 66.1717 89.8817 66.1453 89.8218C66.061 89.6283 65.9286 89.4597 65.7607 89.3319C65.639 89.2464 65.5535 89.2004 65.5535 89.1741Z" fill="#263238"/>
<path d="M74.609 59.6467C74.609 59.6467 74.609 59.6467 74.5695 59.6467H74.4577L74.0238 59.6664L72.3503 59.7387L66.1956 59.9689C60.9977 60.1595 53.8139 60.4127 45.8838 60.6856L43.155 60.7776H43.0925V60.7152C42.5402 53.4591 42.0404 46.9559 41.6952 42.2807C41.5243 39.9464 41.3895 38.0691 41.2941 36.777C41.2514 36.1195 41.2152 35.6296 41.1922 35.291C41.1922 35.12 41.1725 34.9918 41.1692 34.903C41.1659 34.8142 41.1692 34.8274 41.1692 34.8044C41.1692 34.7813 41.1692 34.7715 41.1692 34.7715C41.1707 34.7824 41.1707 34.7935 41.1692 34.8044C41.1692 34.8274 41.1692 34.8603 41.1692 34.903C41.1692 34.9457 41.1889 35.12 41.2054 35.2877C41.2317 35.6164 41.2744 36.126 41.3303 36.7737C41.4322 38.0658 41.5834 39.9431 41.7708 42.2709C42.1391 46.9329 42.6454 53.4196 43.2043 60.7053L43.1386 60.6461L45.8674 60.5508C53.7975 60.2812 60.9911 60.0412 66.1792 59.8768L72.3371 59.6861L74.0106 59.6401H74.4446H74.5958L74.609 59.6467Z" fill="#455A64"/>
<path d="M52.5714 32.7494V33.5878L61.2445 33.1736V32.47L52.5714 32.7494Z" fill="#263238"/>
<path d="M46.0051 58.9299H49.02L48.5465 50.7467H45.5908L46.0051 58.9299Z" fill="#1A377D"/>
<path d="M51.4699 58.9332H54.4815L54.0114 47.4951H51.0557L51.4699 58.9332Z" fill="#1A377D"/>
<path d="M56.5857 58.5683H59.6005L59.1271 43.5925H56.1747L56.5857 58.5683Z" fill="#1A377D"/>
<path d="M68.3223 57.9863H71.3339L70.8638 37.5759H67.9081L68.3223 57.9863Z" fill="#1A377D"/>
<path d="M62.6114 58.0554H65.623L65.1495 40.4922H62.1971L62.6114 58.0554Z" fill="#1A377D"/>
<path d="M44.1111 48.6263C44.0322 48.5046 49.4175 44.9144 56.1344 40.6074C62.8513 36.3005 68.3682 32.9075 68.4471 33.0456C68.526 33.1837 63.1406 36.7575 56.4205 41.0644C49.7003 45.3714 44.1834 48.7479 44.1111 48.6263Z" fill="#1A377D"/>
<path d="M65.466 33.0323C65.4397 32.8876 67.3893 32.401 69.8288 31.9408L70.4469 31.8257L70.0951 32.3484L70.0754 32.378C68.6814 34.4493 67.4452 36.0636 67.3301 35.9946C67.215 35.9255 68.2441 34.1699 69.6315 32.0953L69.6513 32.0657L69.9209 32.4734C67.4846 32.9172 65.4923 33.1737 65.466 33.0323Z" fill="#1A377D"/>
<path d="M45.5908 61.6948H48.7405L48.8391 62.2537H45.5908V61.6948Z" fill="#263238"/>
<path d="M51.1678 61.4646H54.3175L54.4161 62.0235H51.1678V61.4646Z" fill="#263238"/>
<path d="M56.9071 61.3005H60.0568L60.1554 61.8595H56.9071V61.3005Z" fill="#263238"/>
<path d="M62.286 61.1655H65.4357L65.5343 61.7277H62.286V61.1655Z" fill="#263238"/>
<path d="M68.9509 60.9683H72.1006L72.1992 61.5305H68.9509V60.9683Z" fill="#263238"/>
<path d="M83.0781 83.2529C88.6308 83.2529 93.1321 78.7516 93.1321 73.199C93.1321 67.6463 88.6308 63.145 83.0781 63.145C77.5255 63.145 73.0242 67.6463 73.0242 73.199C73.0242 78.7516 77.5255 83.2529 83.0781 83.2529Z" fill="#1A377D"/>
<path opacity="0.3" d="M83.0781 83.2529C88.6308 83.2529 93.1321 78.7516 93.1321 73.199C93.1321 67.6463 88.6308 63.145 83.0781 63.145C77.5255 63.145 73.0242 67.6463 73.0242 73.199C73.0242 78.7516 77.5255 83.2529 83.0781 83.2529Z" fill="black"/>
<path d="M83.0782 73.1856L73.2709 75.3916C71.6927 68.1586 77.5252 63.1316 83.0782 63.1316" fill="#1A377D"/>
<path d="M83.0913 73.1854L83.0255 63.1315C90.4295 63.1315 94.0987 69.901 92.9151 75.3258L83.0913 73.1854Z" fill="#1A377D"/>
<path d="M83.0913 73.1854L83.0255 63.1315C90.4295 63.1315 94.0987 69.901 92.9151 75.3258L83.0913 73.1854Z" fill="#1A377D"/>
<path opacity="0.1" d="M83.0913 73.1854L83.0255 63.1315C90.4295 63.1315 94.0987 69.901 92.9151 75.3258L83.0913 73.1854Z" fill="black"/>
<path d="M93.3919 49.3921C93.1966 49.2615 92.9884 49.1513 92.7706 49.0633C92.1633 48.8776 91.512 48.8961 90.9163 49.1159C90.1469 49.3559 89.3842 49.9675 88.6444 50.7335C87.9047 51.4996 87.1123 52.4267 85.955 52.9692C85.3967 53.2467 84.7681 53.3508 84.1501 53.2684C83.5924 53.1527 83.0536 52.9601 82.5489 52.6963C82.1046 52.465 81.6297 52.2978 81.1385 52.1999C80.7112 52.1328 80.2736 52.1875 79.876 52.3577C79.2908 52.606 78.8122 53.0532 78.5247 53.6202C78.4323 53.8332 78.3564 54.053 78.2979 54.2777C78.3081 54.0399 78.3651 53.8064 78.4655 53.5906C78.7408 52.9919 79.2247 52.5139 79.8267 52.2459C80.2391 52.0623 80.6945 51.9974 81.1418 52.0585C81.6493 52.1527 82.1408 52.3187 82.6015 52.5516C83.0931 52.8067 83.6175 52.9925 84.1599 53.104C84.7448 53.1768 85.3381 53.0762 85.8663 52.8147C86.9775 52.2952 87.7567 51.3746 88.5162 50.6217C89.2757 49.8688 90.0614 49.2343 90.8604 49.0009C91.481 48.7844 92.1565 48.7844 92.7771 49.0009C92.9427 49.0647 93.0987 49.151 93.2407 49.2573C93.2965 49.2958 93.3473 49.3411 93.3919 49.3921Z" fill="#263238"/>
<path d="M94.2435 55.8888C94.2435 55.9381 90.673 55.9743 86.2707 55.9743C81.8684 55.9743 78.2979 55.9381 78.2979 55.8888C78.2979 55.8395 81.8684 55.8033 86.2707 55.8033C90.673 55.8033 94.2435 55.8428 94.2435 55.8888Z" fill="#263238"/>
<path d="M93.3559 55.889C93.3098 55.889 93.2704 53.8572 93.2704 51.3486C93.2704 48.8401 93.3098 46.8115 93.3559 46.8115C93.4019 46.8115 93.4414 48.8434 93.4414 51.3486C93.4414 53.8539 93.4052 55.889 93.3559 55.889Z" fill="#263238"/>
<path d="M79.9048 52.0653C79.9048 52.0653 79.8818 52.0324 79.9048 51.9732C79.9199 51.9317 79.9439 51.894 79.9752 51.8627C80.0064 51.8315 80.0441 51.8075 80.0856 51.7924C80.1481 51.7647 80.217 51.7547 80.2848 51.7634C80.3526 51.7721 80.4168 51.7992 80.4703 51.8417C80.5282 51.9067 80.5624 51.9894 80.5672 52.0764C80.5721 52.1633 80.5473 52.2493 80.4969 52.3203C80.4465 52.3913 80.3735 52.4431 80.2898 52.4673C80.2062 52.4914 80.1168 52.4865 80.0363 52.4532C79.9797 52.4194 79.9331 52.3711 79.9013 52.3133C79.8696 52.2556 79.8537 52.1904 79.8555 52.1244C79.8548 52.0806 79.8629 52.0371 79.8792 51.9965C79.8956 51.9558 79.92 51.9188 79.9508 51.8877C80.0001 51.8483 80.0363 51.8483 80.0396 51.8548C80.0429 51.8614 79.9508 51.9502 79.9738 52.1179C79.9784 52.161 79.993 52.2025 80.0164 52.239C80.0398 52.2755 80.0714 52.3061 80.1086 52.3283C80.1548 52.3399 80.2033 52.3374 80.248 52.321C80.2926 52.3046 80.3313 52.2752 80.359 52.2365C80.3867 52.1978 80.4021 52.1517 80.4031 52.1041C80.4042 52.0566 80.391 52.0098 80.3651 51.9699C80.3321 51.9428 80.293 51.9242 80.2512 51.9156C80.2094 51.907 80.1661 51.9087 80.1251 51.9206C79.9574 51.9469 79.9278 52.0718 79.9048 52.0653Z" fill="#263238"/>
<path d="M90.6563 48.7676C90.6563 48.7676 90.6563 48.7281 90.7155 48.6953C90.792 48.6568 90.8805 48.6498 90.9621 48.6755C91.027 48.6932 91.0858 48.7282 91.1321 48.7769C91.1785 48.8256 91.2107 48.8861 91.2251 48.9517C91.2301 49.0365 91.2065 49.1205 91.158 49.1902C91.1094 49.2599 91.0388 49.3113 90.9576 49.3359C90.8763 49.3606 90.7891 49.3572 90.71 49.3263C90.6309 49.2954 90.5645 49.2387 90.5215 49.1654C90.4978 49.102 90.4917 49.0334 90.5039 48.9668C90.5161 48.9003 90.546 48.8382 90.5906 48.7873C90.6461 48.7216 90.7252 48.6803 90.8109 48.6723C90.87 48.6723 90.8996 48.692 90.8963 48.7018C90.893 48.7117 90.7714 48.7183 90.6892 48.8597C90.6665 48.8949 90.6522 48.9349 90.6477 48.9765C90.6431 49.0182 90.6483 49.0604 90.6629 49.0997C90.6918 49.1352 90.7306 49.1612 90.7744 49.1745C90.8182 49.1878 90.865 49.1878 90.9088 49.1744C90.9525 49.161 90.9913 49.1348 91.0201 49.0992C91.049 49.0637 91.0665 49.0203 91.0706 48.9747C91.0619 48.9338 91.0436 48.8955 91.0174 48.863C90.9911 48.8304 90.9575 48.8045 90.9193 48.7873C90.7747 48.715 90.6728 48.7906 90.6563 48.7676Z" fill="#263238"/>
<path d="M93.0727 38.0066C93.0727 38.0527 89.614 38.0921 85.3498 38.0921C81.0855 38.0921 77.6268 38.0527 77.6268 38.0066C77.6268 37.9606 81.0823 37.9211 85.3498 37.9211C89.6173 37.9211 93.0727 37.9672 93.0727 38.0066Z" fill="#263238"/>
<path d="M93.0727 40.1599C93.0727 40.2093 89.614 40.2454 85.3498 40.2454C81.0855 40.2454 77.6268 40.2093 77.6268 40.1599C77.6268 40.1106 81.0823 40.0745 85.3498 40.0745C89.6173 40.0745 93.0727 40.1139 93.0727 40.1599Z" fill="#263238"/>
<path d="M93.0727 42.3072C93.0727 42.3532 89.614 42.3926 85.3498 42.3926C81.0855 42.3926 77.6268 42.3532 77.6268 42.3072C77.6268 42.2611 81.0823 42.2217 85.3498 42.2217C89.6173 42.2217 93.0727 42.2578 93.0727 42.3072Z" fill="#263238"/>
<path d="M93.0727 44.4506C93.0727 44.4999 89.614 44.5361 85.3498 44.5361C81.0855 44.5361 77.6268 44.4999 77.6268 44.4506C77.6268 44.4013 81.0823 44.3651 85.3498 44.3651C89.6173 44.3651 93.0727 44.4046 93.0727 44.4506Z" fill="#263238"/>
<path d="M85.8462 34.0909H77.6268V34.7847H85.8462V34.0909Z" fill="#263238"/>
<path d="M51.9167 68.5333H43.6973V69.227H51.9167V68.5333Z" fill="#263238"/>
<path d="M66.1892 72.5546C66.1892 72.6039 61.2017 72.6401 55.0503 72.6401C48.8989 72.6401 43.9081 72.6039 43.9081 72.5546C43.9081 72.5053 48.8956 72.4691 55.0503 72.4691C61.205 72.4691 66.1892 72.5086 66.1892 72.5546Z" fill="#263238"/>
<path d="M66.3208 74.501C66.3208 74.547 61.2445 74.5865 54.9846 74.5865C48.7247 74.5865 43.6484 74.547 43.6484 74.501C43.6484 74.455 48.7215 74.4155 54.9846 74.4155C61.2478 74.4155 66.3208 74.4616 66.3208 74.501Z" fill="#263238"/>
<path d="M66.58 76.3355C66.58 76.3815 61.4741 76.421 55.1781 76.421C48.882 76.421 43.7761 76.3815 43.7761 76.3355C43.7761 76.2894 48.882 76.25 55.1781 76.25C61.4741 76.25 66.58 76.2862 66.58 76.3355Z" fill="#263238"/>
<path d="M55.6355 78.2882C55.6355 78.3343 53.0053 78.3737 49.7702 78.3737C46.535 78.3737 43.9081 78.3343 43.9081 78.2882C43.9081 78.2422 46.5383 78.2028 49.7702 78.2028C53.002 78.2028 55.6355 78.2422 55.6355 78.2882Z" fill="#263238"/>
<path d="M19.8317 131.51V128.551L14.2655 128.502L14.2195 132.852L14.5483 132.875C16.0836 132.97 22.36 133.249 23.389 132.947C24.5529 132.605 19.8317 131.51 19.8317 131.51Z" fill="#1A377D"/>
<path d="M23.5364 132.674C23.5364 132.727 21.4553 132.769 18.8875 132.769C16.3198 132.769 14.2354 132.727 14.2354 132.674C14.2354 132.621 16.3198 132.579 18.8875 132.579C21.4553 132.579 23.5364 132.621 23.5364 132.674Z" fill="#263238"/>
<path d="M19.9308 132.119C19.8848 132.092 19.9308 131.931 20.0426 131.79C20.1544 131.648 20.3089 131.556 20.3418 131.592C20.3746 131.629 20.3023 131.763 20.1938 131.921C20.0853 132.079 19.9768 132.145 19.9308 132.119Z" fill="#263238"/>
<path d="M20.2856 132.312C20.2363 132.292 20.2626 132.115 20.3711 131.931C20.4796 131.747 20.6243 131.635 20.6637 131.668C20.7032 131.701 20.6374 131.855 20.5355 132.026C20.4336 132.197 20.3349 132.332 20.2856 132.312Z" fill="#263238"/>
<path d="M15.9093 132.654C15.8862 132.671 15.8008 132.592 15.6791 132.46C15.531 132.288 15.367 132.131 15.1892 131.99C15.0119 131.86 14.8053 131.775 14.5876 131.744C14.4199 131.721 14.3114 131.744 14.3015 131.717C14.2917 131.691 14.3969 131.622 14.5909 131.609C14.8465 131.601 15.097 131.681 15.301 131.836C15.4955 131.985 15.6605 132.169 15.7876 132.378C15.8895 132.533 15.9356 132.638 15.9093 132.654Z" fill="#263238"/>
<path d="M19.9466 131.56C19.9729 131.602 19.8743 131.708 19.7164 131.764C19.5586 131.819 19.4173 131.8 19.4107 131.747C19.4041 131.694 19.5126 131.635 19.654 131.586C19.7954 131.537 19.917 131.514 19.9466 131.56Z" fill="#263238"/>
<path d="M19.8549 131.27C19.8549 131.323 19.7103 131.369 19.5262 131.372C19.342 131.375 19.1974 131.333 19.1974 131.28C19.1974 131.227 19.3486 131.185 19.5262 131.181C19.7037 131.178 19.8549 131.218 19.8549 131.27Z" fill="#1A377D"/>
<path d="M23.5364 132.674C23.5364 132.727 21.4553 132.769 18.8875 132.769C16.3198 132.769 14.2354 132.727 14.2354 132.674C14.2354 132.621 16.3198 132.579 18.8875 132.579C21.4553 132.579 23.5364 132.621 23.5364 132.674Z" fill="#263238"/>
<path d="M19.9308 132.119C19.8848 132.092 19.9308 131.931 20.0426 131.79C20.1544 131.648 20.3089 131.556 20.3418 131.592C20.3746 131.629 20.3023 131.763 20.1938 131.921C20.0853 132.079 19.9768 132.145 19.9308 132.119Z" fill="#263238"/>
<path d="M20.2856 132.312C20.2363 132.292 20.2626 132.115 20.3711 131.931C20.4796 131.747 20.6243 131.635 20.6637 131.668C20.7032 131.701 20.6374 131.855 20.5355 132.026C20.4336 132.197 20.3349 132.332 20.2856 132.312Z" fill="#263238"/>
<path d="M15.9093 132.654C15.8862 132.671 15.8008 132.592 15.6791 132.46C15.531 132.288 15.367 132.131 15.1892 131.99C15.0119 131.86 14.8053 131.775 14.5876 131.744C14.4199 131.721 14.3114 131.744 14.3015 131.717C14.2917 131.691 14.3969 131.622 14.5909 131.609C14.8465 131.601 15.097 131.681 15.301 131.836C15.4955 131.985 15.6605 132.169 15.7876 132.378C15.8895 132.533 15.9356 132.638 15.9093 132.654Z" fill="#263238"/>
<path d="M19.9466 131.56C19.9729 131.602 19.8743 131.708 19.7164 131.764C19.5586 131.819 19.4173 131.8 19.4107 131.747C19.4041 131.694 19.5126 131.635 19.654 131.586C19.7954 131.537 19.917 131.514 19.9466 131.56Z" fill="#263238"/>
<path d="M19.8549 131.27C19.8549 131.323 19.7103 131.369 19.5262 131.372C19.342 131.375 19.1974 131.333 19.1974 131.28C19.1974 131.227 19.3486 131.185 19.5262 131.181C19.7037 131.178 19.8549 131.218 19.8549 131.27Z" fill="#263238"/>
<path d="M25.7038 130.458L26.5816 127.621L21.2752 125.937L19.9601 130.077L20.2889 130.202C21.7256 130.747 27.6403 132.871 28.7121 132.888C29.8891 132.901 25.7038 130.458 25.7038 130.458Z" fill="#1A377D"/>
<path d="M28.8991 132.664C28.8991 132.717 26.8804 132.141 24.4278 131.379C21.9751 130.616 19.9992 129.962 20.0156 129.912C20.032 129.863 22.031 130.438 24.487 131.198C26.9429 131.957 28.9156 132.615 28.8991 132.664Z" fill="#263238"/>
<path d="M25.6186 131.066C25.5824 131.027 25.6679 130.889 25.8257 130.774C25.9835 130.659 26.1545 130.629 26.1709 130.675C26.1874 130.721 26.0822 130.826 25.9375 130.932C25.7928 131.037 25.6548 131.103 25.6186 131.066Z" fill="#263238"/>
<path d="M25.898 131.359C25.8585 131.326 25.9342 131.162 26.0953 131.03C26.2564 130.899 26.424 130.823 26.4536 130.866C26.4832 130.909 26.3714 131.037 26.2235 131.172C26.0755 131.307 25.9407 131.379 25.898 131.359Z" fill="#263238"/>
<path d="M21.6237 130.392C21.5974 130.392 21.5415 130.303 21.4659 130.139C21.3756 129.932 21.2655 129.734 21.1371 129.547C21.0066 129.371 20.8351 129.229 20.6374 129.133C20.4829 129.064 20.3711 129.051 20.3711 129.025C20.3711 128.998 20.4894 128.959 20.6801 129.005C20.9254 129.074 21.1398 129.225 21.2884 129.432C21.4292 129.631 21.5327 129.854 21.5941 130.09C21.6369 130.267 21.6467 130.392 21.6237 130.392Z" fill="#455A64"/>
<path d="M25.799 130.537C25.799 130.586 25.6873 130.659 25.5196 130.665C25.3519 130.672 25.2204 130.609 25.2303 130.557C25.2401 130.504 25.3651 130.481 25.513 130.475C25.661 130.468 25.7727 130.484 25.799 130.537Z" fill="#263238"/>
<path d="M25.7993 130.238C25.7993 130.287 25.6349 130.287 25.4541 130.238C25.2732 130.189 25.145 130.1 25.1615 130.051C25.1779 130.001 25.3357 130.005 25.5067 130.051C25.6776 130.097 25.8124 130.185 25.7993 130.238Z" fill="#263238"/>
<path d="M29.4812 72.7349L22.1758 72.1727L11.1093 71.2751L12.3455 130.721L21.9556 130.596C21.9556 130.596 21.9556 129.939 21.9326 128.775L27.5678 130.317C27.5678 130.317 33.0583 111.767 34.9291 104.156C36.4907 97.8139 29.4812 72.7349 29.4812 72.7349ZM21.8273 119.543C21.6827 105.82 21.515 82.4831 21.7156 79.6293C21.7156 79.6293 27.068 100.175 27.1173 101.795C27.1502 102.775 24.1682 112.257 21.8273 119.543Z" fill="#455A64"/>
<path d="M22.0088 128.344C22.0088 128.397 19.8586 128.439 17.2087 128.439C14.5588 128.439 12.4053 128.397 12.4053 128.344C12.4053 128.291 14.5555 128.249 17.2087 128.249C19.8619 128.249 22.0088 128.291 22.0088 128.344Z" fill="#455A64"/>
<path d="M21.9229 126.207C22.2234 126.278 22.518 126.373 22.804 126.49L25.0035 127.256L27.203 128.025C27.5141 128.114 27.8157 128.233 28.1038 128.38C27.7827 128.335 27.4666 128.259 27.1603 128.153C26.5882 127.986 25.8024 127.736 24.941 127.437C24.0796 127.137 23.2971 126.841 22.7579 126.615C22.462 126.518 22.181 126.381 21.9229 126.207Z" fill="#455A64"/>
<path d="M30.7271 101.611C30.1327 101.75 29.5257 101.827 28.9155 101.842C28.3104 101.919 27.6989 101.933 27.0908 101.884C27.6848 101.743 28.292 101.665 28.9024 101.651C29.5075 101.574 30.1192 101.56 30.7271 101.611Z" fill="#455A64"/>
<path d="M30.0998 102.69C29.6272 102.65 29.1619 102.548 28.7157 102.387C28.2513 102.286 27.8025 102.123 27.3809 101.904C27.8548 101.94 28.3216 102.041 28.7683 102.203C29.5179 102.42 30.1163 102.637 30.0998 102.69Z" fill="#455A64"/>
<path d="M22.5993 72.2483C22.6435 72.6236 22.6599 73.0016 22.6486 73.3793C22.6486 74.0796 22.6486 75.0462 22.6486 76.1147C22.6486 76.644 22.6486 77.1503 22.6289 77.6172C22.6409 78.0378 22.5624 78.456 22.3987 78.8435C22.2821 79.1077 22.0957 79.335 21.8595 79.5011C21.779 79.5679 21.6829 79.6131 21.5801 79.6326C21.5801 79.6326 21.6721 79.5734 21.8201 79.4485C22.0277 79.2706 22.189 79.0449 22.2902 78.7909C22.4273 78.4143 22.4888 78.0143 22.4711 77.6139C22.4711 77.1438 22.4711 76.6276 22.4711 76.1081C22.4711 75.0396 22.4974 74.073 22.5171 73.376C22.516 72.9986 22.5435 72.6216 22.5993 72.2483Z" fill="#455A64"/>
<path d="M17.0993 71.9127C17.1028 71.9609 17.1028 72.0092 17.0993 72.0574C17.0993 72.1626 17.0993 72.304 17.0993 72.4848C17.0993 72.8662 17.0697 73.4185 17.0467 74.1287C17.0007 75.5588 16.9349 77.6137 16.8527 80.1485C16.6982 85.2314 16.5404 92.2574 16.5009 100.013C16.4615 107.769 16.5502 114.808 16.6522 119.888C16.708 122.423 16.7508 124.491 16.7837 125.908C16.7837 126.614 16.81 127.163 16.8198 127.551C16.8198 127.732 16.8198 127.88 16.8198 127.979C16.8234 128.027 16.8234 128.075 16.8198 128.124C16.8163 128.075 16.8163 128.027 16.8198 127.979C16.8198 127.877 16.8198 127.736 16.7968 127.555C16.7968 127.17 16.7607 126.621 16.7311 125.911C16.6752 124.491 16.6094 122.432 16.5437 119.891C16.4089 114.805 16.3037 107.779 16.3431 100.013C16.3826 92.2475 16.5601 85.2183 16.7442 80.1453C16.8363 77.6038 16.9218 75.5424 16.9941 74.1254C17.0302 73.4218 17.0598 72.8727 17.0796 72.4815C17.0796 72.3007 17.0993 72.1527 17.1059 72.0541C17.1003 72.0072 17.0981 71.9599 17.0993 71.9127Z" fill="#455A64"/>
<path d="M27.0875 73.4089C27.1075 73.4525 27.124 73.4976 27.1368 73.5437C27.1664 73.6424 27.2092 73.7739 27.2618 73.9448C27.367 74.2966 27.5347 74.8161 27.7188 75.4934C28.0969 76.8446 28.6065 78.8074 29.1753 81.2502C29.744 83.693 30.3753 86.606 31.0328 89.8543C31.6904 93.1026 32.3841 96.6797 33.0055 100.454C33.0844 100.927 33.1567 101.398 33.2192 101.868C33.2192 101.993 33.2422 102.121 33.2422 102.243L33.183 102.591C33.1403 102.825 33.1074 103.058 33.0548 103.285C32.8674 104.199 32.657 105.093 32.4301 105.968C31.983 107.717 31.5096 109.39 31.0427 110.981C30.1156 114.164 29.2213 117.011 28.4618 119.401C27.7023 121.792 27.0678 123.715 26.6207 125.043L26.1012 126.572L25.9598 126.97C25.9476 127.016 25.9299 127.06 25.9072 127.101C25.9158 127.054 25.9279 127.008 25.9434 126.963C25.9763 126.865 26.0157 126.733 26.0683 126.562L26.5582 125.023L28.3467 119.365C29.0898 116.972 29.9709 114.121 30.8915 110.939C31.3518 109.347 31.8219 107.671 32.269 105.925C32.4926 105.054 32.703 104.163 32.8904 103.252C32.943 103.025 32.9726 102.795 33.0121 102.565L33.0712 102.22C33.0712 102.108 33.0548 101.999 33.0482 101.891C32.9858 101.427 32.9167 100.957 32.8378 100.487C32.2131 96.7159 31.5227 93.1388 30.8652 89.8905C30.2076 86.6422 29.6125 83.7062 29.0602 81.2765C28.5078 78.8469 28.0114 76.8644 27.653 75.5098C27.4821 74.8325 27.3242 74.3098 27.2289 73.9547L27.1204 73.5503C27.1043 73.5045 27.0932 73.4571 27.0875 73.4089Z" fill="#455A64"/>
<path d="M21.798 118.336C21.8245 118.489 21.8344 118.645 21.8276 118.8C21.8276 119.129 21.8276 119.559 21.8441 120.069C21.8441 121.17 21.8835 122.633 21.9065 124.248C21.9295 125.862 21.992 127.325 22.0216 128.426C22.0216 128.936 22.0479 129.363 22.0578 129.695C22.0726 129.85 22.0726 130.005 22.0578 130.159C22.0215 130.008 22.0016 129.854 21.9986 129.699C21.9723 129.399 21.9427 128.969 21.9098 128.433C21.8441 127.364 21.7816 125.885 21.7454 124.251C21.7093 122.617 21.7158 121.137 21.7454 120.069C21.7454 119.533 21.7684 119.083 21.7816 118.8C21.7749 118.645 21.7804 118.49 21.798 118.336Z" fill="#455A64"/>
<path d="M29.4812 72.7349L22.1758 72.1727L11.1093 71.2751L12.3455 130.721L21.9556 130.596C21.9556 130.596 21.9556 129.939 21.9326 128.775L27.5678 130.317C27.5678 130.317 33.0583 111.767 34.9291 104.156C36.4907 97.8139 29.4812 72.7349 29.4812 72.7349ZM21.8273 119.543C21.6827 105.82 21.515 82.4831 21.7156 79.6293C21.7156 79.6293 27.068 100.175 27.1173 101.795C27.1502 102.775 24.1682 112.257 21.8273 119.543Z" fill="#263238"/>
<path d="M22.0088 128.344C22.0088 128.397 19.8586 128.439 17.2087 128.439C14.5588 128.439 12.4053 128.397 12.4053 128.344C12.4053 128.291 14.5555 128.249 17.2087 128.249C19.8619 128.249 22.0088 128.291 22.0088 128.344Z" fill="#455A64"/>
<path d="M21.9229 126.207C22.2234 126.278 22.518 126.373 22.804 126.49L25.0035 127.256L27.203 128.025C27.5141 128.114 27.8157 128.233 28.1038 128.38C27.7827 128.335 27.4666 128.259 27.1603 128.153C26.5882 127.986 25.8024 127.736 24.941 127.437C24.0796 127.137 23.2971 126.841 22.7579 126.615C22.462 126.518 22.181 126.381 21.9229 126.207Z" fill="#455A64"/>
<path d="M30.7271 101.611C30.1327 101.75 29.5257 101.827 28.9155 101.842C28.3104 101.919 27.6989 101.933 27.0908 101.884C27.6848 101.743 28.292 101.665 28.9024 101.651C29.5075 101.574 30.1192 101.56 30.7271 101.611Z" fill="#455A64"/>
<path d="M30.0998 102.69C29.6272 102.65 29.1619 102.548 28.7157 102.387C28.2513 102.286 27.8025 102.123 27.3809 101.904C27.8548 101.94 28.3216 102.041 28.7683 102.203C29.5179 102.42 30.1163 102.637 30.0998 102.69Z" fill="#455A64"/>
<path d="M22.5993 72.2483C22.6435 72.6236 22.6599 73.0016 22.6486 73.3793C22.6486 74.0796 22.6486 75.0462 22.6486 76.1147C22.6486 76.644 22.6486 77.1503 22.6289 77.6172C22.6409 78.0378 22.5624 78.456 22.3987 78.8435C22.2821 79.1077 22.0957 79.335 21.8595 79.5011C21.779 79.5679 21.6829 79.6131 21.5801 79.6326C21.5801 79.6326 21.6721 79.5734 21.8201 79.4485C22.0277 79.2706 22.189 79.0449 22.2902 78.7909C22.4273 78.4143 22.4888 78.0143 22.4711 77.6139C22.4711 77.1438 22.4711 76.6276 22.4711 76.1081C22.4711 75.0396 22.4974 74.073 22.5171 73.376C22.516 72.9986 22.5435 72.6216 22.5993 72.2483Z" fill="#455A64"/>
<path d="M17.0993 71.9127C17.1028 71.9609 17.1028 72.0092 17.0993 72.0574C17.0993 72.1626 17.0993 72.304 17.0993 72.4848C17.0993 72.8662 17.0697 73.4185 17.0467 74.1287C17.0007 75.5588 16.9349 77.6137 16.8527 80.1485C16.6982 85.2314 16.5404 92.2574 16.5009 100.013C16.4615 107.769 16.5502 114.808 16.6522 119.888C16.708 122.423 16.7508 124.491 16.7837 125.908C16.7837 126.614 16.81 127.163 16.8198 127.551C16.8198 127.732 16.8198 127.88 16.8198 127.979C16.8234 128.027 16.8234 128.075 16.8198 128.124C16.8163 128.075 16.8163 128.027 16.8198 127.979C16.8198 127.877 16.8198 127.736 16.7968 127.555C16.7968 127.17 16.7607 126.621 16.7311 125.911C16.6752 124.491 16.6094 122.432 16.5437 119.891C16.4089 114.805 16.3037 107.779 16.3431 100.013C16.3826 92.2475 16.5601 85.2183 16.7442 80.1453C16.8363 77.6038 16.9218 75.5424 16.9941 74.1254C17.0302 73.4218 17.0598 72.8727 17.0796 72.4815C17.0796 72.3007 17.0993 72.1527 17.1059 72.0541C17.1003 72.0072 17.0981 71.9599 17.0993 71.9127Z" fill="#455A64"/>
<path d="M27.0875 73.4089C27.1075 73.4525 27.124 73.4976 27.1368 73.5437C27.1664 73.6424 27.2092 73.7739 27.2618 73.9448C27.367 74.2966 27.5347 74.8161 27.7188 75.4934C28.0969 76.8446 28.6065 78.8074 29.1753 81.2502C29.744 83.693 30.3753 86.606 31.0328 89.8543C31.6904 93.1026 32.3841 96.6797 33.0055 100.454C33.0844 100.927 33.1567 101.398 33.2192 101.868C33.2192 101.993 33.2422 102.121 33.2422 102.243L33.183 102.591C33.1403 102.825 33.1074 103.058 33.0548 103.285C32.8674 104.199 32.657 105.093 32.4301 105.968C31.983 107.717 31.5096 109.39 31.0427 110.981C30.1156 114.164 29.2213 117.011 28.4618 119.401C27.7023 121.792 27.0678 123.715 26.6207 125.043L26.1012 126.572L25.9598 126.97C25.9476 127.016 25.9299 127.06 25.9072 127.101C25.9158 127.054 25.9279 127.008 25.9434 126.963C25.9763 126.865 26.0157 126.733 26.0683 126.562L26.5582 125.023L28.3467 119.365C29.0898 116.972 29.9709 114.121 30.8915 110.939C31.3518 109.347 31.8219 107.671 32.269 105.925C32.4926 105.054 32.703 104.163 32.8904 103.252C32.943 103.025 32.9726 102.795 33.0121 102.565L33.0712 102.22C33.0712 102.108 33.0548 101.999 33.0482 101.891C32.9858 101.427 32.9167 100.957 32.8378 100.487C32.2131 96.7159 31.5227 93.1388 30.8652 89.8905C30.2076 86.6422 29.6125 83.7062 29.0602 81.2765C28.5078 78.8469 28.0114 76.8644 27.653 75.5098C27.4821 74.8325 27.3242 74.3098 27.2289 73.9547L27.1204 73.5503C27.1043 73.5045 27.0932 73.4571 27.0875 73.4089Z" fill="#455A64"/>
<path d="M21.798 118.336C21.8245 118.489 21.8344 118.645 21.8276 118.8C21.8276 119.129 21.8276 119.559 21.8441 120.069C21.8441 121.17 21.8835 122.633 21.9065 124.248C21.9295 125.862 21.992 127.325 22.0216 128.426C22.0216 128.936 22.0479 129.363 22.0578 129.695C22.0726 129.85 22.0726 130.005 22.0578 130.159C22.0215 130.008 22.0016 129.854 21.9986 129.699C21.9723 129.399 21.9427 128.969 21.9098 128.433C21.8441 127.364 21.7816 125.885 21.7454 124.251C21.7093 122.617 21.7158 121.137 21.7454 120.069C21.7454 119.533 21.7684 119.083 21.7816 118.8C21.7749 118.645 21.7804 118.49 21.798 118.336Z" fill="#455A64"/>
<path d="M16.896 44.2037L22.4852 44.618C22.5608 43.9604 22.6693 41.4584 22.6693 41.4584C22.6693 41.4584 25.0003 41.2447 25.1712 38.9367C25.3422 36.6287 25.2699 31.2993 25.2699 31.2993C23.9921 30.6534 22.5649 30.3607 21.136 30.4515C19.7071 30.5422 18.3284 31.0131 17.1425 31.8154L16.7842 32.0587L16.896 44.2037Z" fill="#E5BAAB"/>
<path d="M24.4742 35.2348C24.4299 35.1882 24.4003 35.1296 24.3889 35.0663C24.3776 35.003 24.3851 34.9377 24.4105 34.8786C24.4358 34.8195 24.478 34.7692 24.5317 34.7338C24.5854 34.6984 24.6483 34.6796 24.7126 34.6796C24.7769 34.6796 24.8398 34.6984 24.8935 34.7338C24.9472 34.7692 24.9893 34.8195 25.0147 34.8786C25.04 34.9377 25.0475 35.003 25.0362 35.0663C25.0249 35.1296 24.9952 35.1882 24.9509 35.2348C24.9202 35.2671 24.8832 35.2929 24.8423 35.3105C24.8013 35.328 24.7572 35.3371 24.7126 35.3371C24.668 35.3371 24.6238 35.328 24.5829 35.3105C24.5419 35.2929 24.5049 35.2671 24.4742 35.2348Z" fill="#263238"/>
<path d="M25.0658 34.7413C25.0264 34.7808 24.8127 34.5934 24.4938 34.5704C24.1748 34.5473 23.9348 34.6986 23.902 34.6558C23.8691 34.6131 23.925 34.5671 24.0335 34.498C24.1733 34.4061 24.3402 34.3644 24.5069 34.3797C24.6748 34.3897 24.8346 34.4557 24.9606 34.5671C25.056 34.6493 25.0855 34.7183 25.0658 34.7413Z" fill="#263238"/>
<path d="M21.3832 34.794C21.4352 34.832 21.475 34.8845 21.4974 34.945C21.5199 35.0054 21.5241 35.0711 21.5095 35.1339C21.4949 35.1967 21.4622 35.2538 21.4154 35.2982C21.3686 35.3425 21.3097 35.3721 21.2463 35.3833C21.1828 35.3945 21.1174 35.3867 21.0582 35.361C20.9991 35.3353 20.9488 35.2928 20.9137 35.2388C20.8785 35.1848 20.86 35.1216 20.8605 35.0571C20.861 34.9926 20.8804 34.9297 20.9163 34.8762C20.941 34.8394 20.9728 34.8081 21.0099 34.7839C21.047 34.7598 21.0886 34.7434 21.1322 34.7357C21.1758 34.728 21.2205 34.7292 21.2637 34.7392C21.3068 34.7493 21.3474 34.7679 21.3832 34.794Z" fill="#263238"/>
<path d="M21.5939 34.8108C21.5545 34.847 21.3408 34.6596 21.0219 34.6366C20.7029 34.6136 20.4629 34.7681 20.4301 34.7253C20.3972 34.6826 20.4531 34.6333 20.5583 34.5642C20.7008 34.4757 20.8676 34.4343 21.035 34.4459C21.2024 34.4581 21.3615 34.5238 21.4887 34.6333C21.5841 34.7188 21.6136 34.7944 21.5939 34.8108Z" fill="#263238"/>
<path d="M22.7088 37.5131C22.877 37.4611 23.0523 37.4356 23.2283 37.4375C23.3138 37.4375 23.3828 37.4211 23.3927 37.3751C23.401 37.2902 23.385 37.2047 23.3466 37.1285L23.1362 36.4709C22.9338 35.9087 22.7852 35.3286 22.6924 34.7383C22.9471 35.2781 23.1508 35.8405 23.3006 36.4183L23.4979 37.0759C23.5454 37.1847 23.5546 37.3063 23.5242 37.4211C23.5104 37.4519 23.4895 37.4789 23.4632 37.5001C23.4369 37.5212 23.406 37.5358 23.3729 37.5427C23.326 37.5488 23.2785 37.5488 23.2316 37.5427C23.0569 37.5609 22.8804 37.5509 22.7088 37.5131Z" fill="#263238"/>
<path d="M21.6532 37.7991C21.3245 37.5821 22.5344 38.3416 23.1853 38.3514C23.0671 38.5117 22.8979 38.6269 22.7055 38.6783C22.5132 38.7297 22.309 38.7141 22.1267 38.6342C21.4494 38.335 21.6532 37.7991 21.6532 37.7991Z" fill="white"/>
<path d="M22.6561 41.4255C21.5886 41.3804 20.5586 41.0188 19.6971 40.3866C19.6971 40.3866 20.3054 42.0929 22.6232 42.0305L22.6561 41.4255Z" fill="#D78776"/>
<path d="M17.2243 34.1071C17.1717 34.0873 15.5081 33.8704 15.6659 35.8364C15.8238 37.8025 17.757 36.9904 17.7537 36.9345C17.7504 36.8787 17.2243 34.1071 17.2243 34.1071Z" fill="#E5BAAB"/>
<path d="M17.0797 36.2935C17.0797 36.2935 17.0501 36.3198 16.9942 36.3527C16.9151 36.3932 16.8235 36.4026 16.7378 36.379C16.6047 36.3079 16.4926 36.2031 16.413 36.0749C16.3333 35.9468 16.2888 35.7999 16.2841 35.6491C16.2659 35.4812 16.2862 35.3115 16.3432 35.1526C16.3564 35.0897 16.3845 35.0309 16.4251 34.9812C16.4657 34.9314 16.5177 34.8921 16.5767 34.8666C16.6155 34.8541 16.6574 34.8551 16.6956 34.8694C16.7338 34.8837 16.7661 34.9105 16.7871 34.9455C16.8167 34.9981 16.8101 35.0376 16.82 35.0408C16.8298 35.0441 16.8594 35.0047 16.82 34.9258C16.8063 34.8775 16.776 34.8356 16.7345 34.8074C16.6762 34.7727 16.607 34.761 16.5405 34.7745C16.4622 34.7967 16.3909 34.8386 16.3333 34.8961C16.2758 34.9537 16.2339 35.025 16.2117 35.1033C16.1408 35.2794 16.1148 35.4703 16.1361 35.6589C16.1398 35.8346 16.1954 36.0052 16.2961 36.1492C16.3968 36.2931 16.5379 36.404 16.7016 36.4677C16.7555 36.479 16.8112 36.4781 16.8647 36.465C16.9182 36.4519 16.9681 36.427 17.0107 36.3921C17.0797 36.3428 17.0896 36.2968 17.0797 36.2935Z" fill="#D78776"/>
<path d="M25.4179 30.4674C25.551 30.4639 25.6814 30.4298 25.7992 30.3677C25.917 30.3057 26.0189 30.2174 26.0971 30.1097C26.1753 30.0019 26.2277 29.8777 26.2502 29.7465C26.2727 29.6153 26.2647 29.4806 26.2269 29.353C26.189 29.2254 26.1223 29.1082 26.0319 29.0105C25.9416 28.9127 25.8299 28.8371 25.7056 28.7894C25.5813 28.7417 25.4478 28.7233 25.3152 28.7354C25.1827 28.7476 25.0547 28.7902 24.9412 28.8597C25.2161 28.6315 25.4401 28.3481 25.5987 28.0279C25.6754 27.8664 25.7008 27.6853 25.6714 27.5089C25.642 27.3326 25.5593 27.1695 25.4343 27.0416C25.2897 26.9458 25.1223 26.89 24.9491 26.8796C24.776 26.8692 24.6031 26.9047 24.448 26.9824C23.9581 27.1928 23.5702 27.6071 23.0672 27.7813C22.5641 27.9556 22.0019 27.8701 21.4627 27.8931C20.8577 27.9039 20.2717 28.1065 19.7893 28.4718C19.3781 28.7948 19.1121 29.2678 19.0495 29.7869C18.9849 29.6981 18.9134 29.6146 18.8358 29.537C18.5801 29.2318 18.2352 29.0145 17.8495 28.9156C17.8265 28.9583 18.2769 29.2082 18.7076 29.6554C18.8248 29.7675 18.9347 29.8873 19.0364 30.0137C18.2868 29.9217 17.4615 29.9151 16.8697 30.3819C16.63 30.5957 16.4405 30.8598 16.3149 31.1554C16.1893 31.4509 16.1306 31.7707 16.1431 32.0916C16.1431 32.7294 16.4062 33.3376 16.5936 33.9492C16.6389 34.1224 16.717 34.2854 16.8237 34.4292L17.1064 36.0731L18.1355 36.0533L18.0698 32.6045C18.0698 32.6045 17.9646 31.1513 19.2139 31.2894C20.4633 31.4275 22.1729 32.8248 24.5992 32.4697C24.9974 32.4475 25.3852 32.3351 25.7335 32.1409C25.9021 32.0341 26.0391 31.8843 26.1304 31.7068C26.2218 31.5294 26.2641 31.3308 26.253 31.1316C26.2291 30.9333 26.128 30.7524 25.9717 30.6281C25.8154 30.5038 25.6165 30.4461 25.4179 30.4674Z" fill="#263238"/>
<path d="M46.327 47.4883L46.4782 46.4427C46.6328 45.8708 46.7297 45.2849 46.7675 44.6937C46.7923 44.3998 46.7656 44.1038 46.6886 43.8191C46.6111 43.4607 46.4827 43.1153 46.3072 42.7933C46.1166 42.5139 46.3664 42.1358 46.636 42.2509C46.9056 42.3659 47.4678 43.109 47.6486 44.1808C47.8295 45.2526 48.6744 43.7665 48.9901 43.2306C49.3057 42.6947 50.3676 41.0804 50.6109 41.0475C50.966 40.9982 51.0844 41.3763 50.7523 41.8991C50.4202 42.4218 49.5457 44.0821 49.8383 44.2334C50.0574 44.1984 50.2814 44.2096 50.4958 44.2662C50.5304 44.2764 50.561 44.297 50.5834 44.3253C50.6058 44.3536 50.6188 44.3881 50.6208 44.4241C50.6196 44.5899 50.6372 44.7554 50.6734 44.9172C50.6734 44.9172 51.1041 44.8186 51.1929 45.006C51.2529 45.1985 51.2807 45.3995 51.275 45.6011C51.275 45.6011 51.6038 45.4893 51.7616 45.6011C52.0904 45.8674 51.6696 46.3244 51.6696 46.3244C50.7015 47.4791 49.6616 48.5718 48.5561 49.5957L46.2908 47.4126" fill="#E5BAAB"/>
<path d="M50.5433 44.9894C50.4466 45.1927 50.3166 45.3782 50.1586 45.5385C50.0271 45.6963 49.8627 45.8673 49.6688 46.0744C49.5676 46.182 49.4576 46.281 49.34 46.3703C49.2675 46.4279 49.1801 46.4635 49.088 46.4728C48.9959 46.4821 48.9031 46.4648 48.8205 46.4229C48.7755 46.3965 48.7374 46.3598 48.7094 46.3158C48.6814 46.2718 48.6643 46.2217 48.6594 46.1697C48.6528 46.0771 48.6734 45.9846 48.7186 45.9034C48.7996 45.7813 48.8874 45.6639 48.9816 45.5516C49.1493 45.3412 49.2874 45.144 49.4025 44.973C49.5128 44.7797 49.6393 44.596 49.7805 44.424C49.7258 44.6427 49.6322 44.8498 49.5044 45.0355C49.3849 45.2469 49.2532 45.451 49.1098 45.647C49.0226 45.7519 48.9413 45.8616 48.8666 45.9758C48.8074 46.0843 48.8107 46.2191 48.906 46.2684C48.9597 46.291 49.0184 46.299 49.0762 46.2915C49.1339 46.284 49.1887 46.2613 49.2348 46.2256C49.3439 46.143 49.4472 46.0529 49.5438 45.956C49.7411 45.7719 49.9121 45.5977 50.0534 45.4497C50.2007 45.2801 50.3648 45.1259 50.5433 44.9894Z" fill="#D78776"/>
<path d="M51.1182 45.6634C51.0215 45.8389 50.8972 45.9976 50.75 46.1336C50.6015 46.2927 50.4399 46.439 50.2667 46.5709C50.1628 46.6495 50.0529 46.7198 49.9379 46.7813C49.8697 46.8155 49.7964 46.8388 49.721 46.8503C49.6752 46.8577 49.6285 46.8554 49.5837 46.8435C49.5389 46.8316 49.4972 46.8104 49.4612 46.7813C49.4005 46.7185 49.3621 46.6375 49.352 46.5507C49.3419 46.464 49.3607 46.3763 49.4053 46.3013C49.4719 46.1841 49.5501 46.074 49.6388 45.9725C49.7834 45.8048 49.9182 45.6437 50.053 45.4826C50.293 45.2064 50.4508 45.0453 50.4706 45.0585C50.3838 45.239 50.2732 45.4071 50.1418 45.5582L49.7736 46.081C49.6959 46.174 49.6255 46.273 49.5631 46.3769C49.5378 46.4188 49.5261 46.4676 49.5296 46.5165C49.5331 46.5653 49.5517 46.6119 49.5829 46.6498C49.642 46.7057 49.767 46.6826 49.8755 46.63C49.9834 46.5742 50.0877 46.5116 50.1878 46.4426C50.3586 46.3208 50.5222 46.189 50.6777 46.0481C50.8084 45.9024 50.9563 45.7733 51.1182 45.6634Z" fill="#D78776"/>
<path d="M51.2526 46.6037C51.2691 46.6037 51.2526 46.7516 51.0981 46.9325C51.0513 46.9884 50.9937 47.0344 50.9287 47.0678C50.8638 47.1011 50.7928 47.121 50.72 47.1264C50.6259 47.1272 50.5343 47.0959 50.4603 47.0377C50.4195 47.0035 50.3869 46.9607 50.3647 46.9124C50.3425 46.8641 50.3314 46.8114 50.3321 46.7582C50.3581 46.5906 50.426 46.4323 50.5293 46.2979C50.5987 46.1894 50.6744 46.0851 50.7562 45.9856C50.8976 45.8146 50.9995 45.7259 51.0192 45.7423C51.0389 45.7587 50.9666 45.8705 50.8548 46.0711C50.7891 46.1861 50.7233 46.2913 50.6641 46.3998C50.5849 46.5158 50.5301 46.6467 50.503 46.7845C50.5056 46.8403 50.5295 46.893 50.57 46.9316C50.6104 46.9702 50.6641 46.9917 50.72 46.9916C50.8291 46.9882 50.9332 46.9449 51.0126 46.87C51.1606 46.7122 51.2296 46.5905 51.2526 46.6037Z" fill="#D78776"/>
<path d="M46.0816 46.1304C46.0816 46.1304 37.4578 54.6161 36.2479 54.6786C34.867 54.7443 30.6192 48.7212 30.6192 48.7212C27.9003 44.526 24.3133 43.8487 23.0048 43.7435V43.224L16.5772 42.698C16.5772 42.698 16.5772 43.2503 16.5772 43.7336H13.7399C13.7399 43.7336 8.64386 43.5002 7.8811 50.3453L11.5437 53.2418L13.0462 58.831C13.5689 60.7774 11.7015 63.8777 10.8105 68.8981C10.6731 69.7351 10.8128 70.594 11.2083 71.3442L29.7677 73.478L28.7814 59.288L28.4822 56.0003C30.011 58.088 32.7563 61.0404 36.1197 60.9746C41.8568 60.8661 49.8263 48.8099 49.8263 48.8099L46.0816 46.1304Z" fill="#E0E0E0"/>
<path d="M20.8408 43.132C20.8727 43.4237 20.8727 43.718 20.8408 44.0098C20.7929 44.7402 20.694 45.4664 20.5449 46.183L20.5219 46.2915L20.4233 46.2389C20.1997 46.1205 19.9663 45.9956 19.7296 45.8575C18.809 45.315 18.0232 44.7561 17.4281 44.3682C17.1069 44.1727 16.7973 43.9586 16.501 43.727C16.5994 43.7558 16.6934 43.7978 16.7804 43.852C16.9514 43.9473 17.198 44.0854 17.4939 44.2662C18.0923 44.6279 18.8879 45.1737 19.7953 45.7096C20.0255 45.8444 20.2556 45.9726 20.4792 46.0909L20.3575 46.1468C20.5482 45.2986 20.6403 44.5391 20.7093 43.9999C20.7355 43.7082 20.7794 43.4184 20.8408 43.132Z" fill="#FAFAFA"/>
<path d="M23.0246 43.7796C22.9833 44.0621 22.9218 44.3411 22.8405 44.6147C22.778 44.8745 22.7123 45.1835 22.6005 45.5189C22.5423 45.6962 22.4731 45.8696 22.3934 46.0383C22.3704 46.0988 22.329 46.1506 22.275 46.1863C22.2376 46.2093 22.1934 46.2188 22.1498 46.2135C22.1062 46.2081 22.0657 46.1881 22.035 46.1567C21.9734 46.0659 21.9237 45.9675 21.887 45.8641C21.5583 45.1178 21.2985 44.4405 21.1078 43.944C20.9879 43.684 20.8964 43.4117 20.835 43.132C20.9885 43.3738 21.1174 43.6304 21.2196 43.898C21.4399 44.3813 21.7325 45.052 22.0449 45.7983C22.0752 45.8814 22.1126 45.9617 22.1566 46.0383C22.1731 46.0383 22.1566 46.0383 22.1862 46.0383C22.211 46.0183 22.2302 45.9923 22.2421 45.9627C22.3208 45.801 22.391 45.6353 22.4525 45.4663C22.5676 45.1375 22.6465 44.835 22.7221 44.5819C22.7875 44.3024 22.8892 44.0327 23.0246 43.7796Z" fill="#FAFAFA"/>
<path d="M21.8275 66.7413C21.8118 66.6644 21.803 66.5863 21.8012 66.5078C21.8012 66.3369 21.7881 66.1177 21.7617 65.8503C21.7354 65.2453 21.696 64.407 21.65 63.3779C21.5711 61.2737 21.4593 58.3969 21.3409 55.221C21.2226 52.045 21.1469 49.1682 21.0812 47.064C21.0582 46.0317 21.0384 45.1933 21.022 44.5884C21.022 44.3122 21.022 44.0886 21.022 43.9308C21.0135 43.8521 21.0135 43.7728 21.022 43.6941C21.0372 43.771 21.0449 43.8492 21.045 43.9275C21.045 44.0985 21.0713 44.3221 21.0878 44.5851C21.1141 45.1867 21.1535 46.0251 21.1995 47.0542C21.2784 49.1583 21.3869 52.0351 21.5086 55.2111C21.6302 58.3871 21.6993 61.2639 21.7683 63.3713C21.7913 64.4004 21.8111 65.2388 21.8275 65.8437C21.8275 66.1232 21.8275 66.3467 21.8275 66.5177C21.8352 66.592 21.8352 66.6669 21.8275 66.7413Z" fill="#F5F5F5"/>
<path d="M20.6562 45.2095L21.1954 46.6956L21.659 45.101L20.939 43.5032L20.6562 45.2095Z" fill="#1A377D"/>
<path d="M21.2945 46.2518L20.9395 62.9799L23.4644 68.2601L24.4606 62.3191L21.2945 46.2518Z" fill="#1A377D"/>
<path d="M36.3397 56.7464C36.3397 56.7464 36.3397 56.7957 36.3397 56.8779L36.32 57.0029L36.2641 56.8779C36.1369 56.5454 36.0636 56.1947 36.0471 55.839C35.9927 55.4424 36.0403 55.0385 36.1852 54.6653C36.2345 54.6653 36.1852 55.1913 36.2181 55.8292C36.2444 56.2829 36.3167 56.6708 36.3397 56.8582H36.2641C36.2937 56.7694 36.3266 56.7464 36.3397 56.7464Z" fill="#FAFAFA"/>
<path d="M37.0787 56.6909C36.8335 56.4336 36.6512 56.1231 36.5461 55.7835C36.3879 55.47 36.3014 55.1252 36.293 54.7742C36.4603 55.0799 36.5969 55.4015 36.7007 55.7342C36.8574 56.0401 36.9841 56.3605 37.0787 56.6909Z" fill="#FAFAFA"/>
<path d="M49.2872 49.6088C48.5762 49.2326 47.8928 48.8064 47.2423 48.3332C46.5606 47.9077 45.9102 47.4341 45.2959 46.9161C46.0067 47.2953 46.69 47.7237 47.3409 48.1984C48.0223 48.6217 48.6727 49.0931 49.2872 49.6088Z" fill="#FAFAFA"/>
<path d="M13.4408 52.2949C13.4408 52.2949 12.0731 61.8293 12.7208 62.362C16.2979 65.3703 21.269 66.9484 23.0443 67.4448C23.3041 67.3824 23.6066 67.3002 23.9551 67.1884C24.2571 67.0924 24.5407 66.9457 24.7934 66.7544C25.1162 66.528 25.4061 66.258 25.6548 65.9522C25.6924 65.8866 25.7494 65.8342 25.818 65.8024C25.8866 65.7706 25.9634 65.7609 26.0377 65.7746C26.1121 65.7883 26.1804 65.8248 26.2331 65.879C26.2858 65.9332 26.3204 66.0024 26.3321 66.0771C26.3485 66.4059 25.8225 67.2509 24.8329 67.869C24.8329 67.869 27.1113 71.5348 27.8379 71.8669C28.5645 72.1989 30.6424 73.1327 30.2906 73.3102C29.9388 73.4877 27.4105 72.7546 27.4105 72.7546L22.2816 71.3836C22.2816 71.3836 5.31675 68.7238 6.44445 60.9416C7.13817 56.1711 7.89435 51.874 8.16724 50.7858L13.4408 52.2949Z" fill="#E5BAAB"/>
<path d="M7.88054 50.3422L6.37475 60.7348C6.02296 63.9338 8.16658 66.4752 11.0499 67.9054C15.4391 70.0786 21.9554 71.6304 21.8995 71.6205C21.8436 71.6107 22.3401 66.9815 22.3401 66.9815C22.3401 66.9815 13.2034 63.0362 12.9174 61.3266C12.6314 59.6169 14.078 52.5154 14.078 52.5154L7.88054 50.3422Z" fill="#E0E0E0"/>
<path d="M21.8861 71.6204C21.8826 71.5931 21.8826 71.5655 21.8861 71.5382C21.8861 71.4724 21.8861 71.3935 21.9025 71.2982C21.919 71.0713 21.942 70.7656 21.9748 70.3743C22.0439 69.5589 22.1458 68.4017 22.2675 66.9781L22.3036 67.0372L17.7008 64.8114L16.3857 64.1539C15.9418 63.9172 15.4947 63.6574 15.0508 63.3714C14.6005 63.0807 14.1679 62.7635 13.7554 62.4212C13.5483 62.247 13.3412 62.0629 13.1439 61.8689C13.0327 61.7712 12.9431 61.6514 12.8809 61.5171C12.846 61.452 12.8206 61.3822 12.8053 61.31C12.7837 61.2413 12.7683 61.1709 12.7593 61.0995C12.6113 59.962 12.9138 58.8902 13.088 57.8677C13.2623 56.8452 13.4365 55.849 13.6009 54.9087C13.9297 53.0215 14.2289 51.325 14.4788 49.8916C14.6137 49.2566 14.6907 48.6106 14.7089 47.9617C14.7152 47.4734 14.6142 46.9896 14.413 46.5446C14.2839 46.2639 14.1007 46.0114 13.8738 45.8016C13.716 45.6602 13.6207 45.6043 13.6239 45.5945C13.7217 45.6437 13.8134 45.7044 13.8968 45.7753C14.1382 45.979 14.3342 46.231 14.4722 46.5151C14.688 46.9668 14.8003 47.461 14.801 47.9617C14.7936 48.6166 14.7243 49.2694 14.5938 49.9113C14.3538 51.3481 14.0678 53.0478 13.7522 54.9383C13.5911 55.8819 13.4234 56.8748 13.2491 57.8973C13.2064 58.1537 13.1604 58.4134 13.1143 58.6765C13.0683 58.9395 13.019 59.1959 12.9828 59.459C12.8964 59.9905 12.882 60.5313 12.9401 61.0667C12.9505 61.1321 12.9648 61.1969 12.9828 61.2606C12.9958 61.3238 13.0179 61.3847 13.0486 61.4415C13.1027 61.5576 13.1812 61.6608 13.2787 61.7439C13.4727 61.9346 13.6733 62.1155 13.8771 62.2864C14.2841 62.6253 14.7112 62.9393 15.156 63.2267C15.5933 63.5128 16.0339 63.7692 16.4711 64.0059L17.7862 64.6635L22.3529 66.9386L22.3891 66.9583V66.9978C22.2412 68.4214 22.1228 69.5754 22.0406 70.3907C21.9946 70.7787 21.9617 71.0877 21.9354 71.3113C21.9222 71.4078 21.9124 71.4867 21.9058 71.548C21.9016 71.5727 21.895 71.5969 21.8861 71.6204Z" fill="#FAFAFA"/>
<path d="M21.0381 66.3469C21.0479 66.585 21.0291 66.8234 20.9822 67.0571C20.9263 67.4911 20.8343 68.0894 20.7126 68.747C20.591 69.4045 20.4529 69.9963 20.3411 70.4205C20.296 70.6543 20.2197 70.881 20.1143 71.0945C20.1257 70.8568 20.1621 70.621 20.2228 70.3909C20.3192 69.8955 20.4288 69.3366 20.5515 68.7141C20.6666 67.9161 20.8291 67.1256 21.0381 66.3469Z" fill="#FAFAFA"/>
<path d="M21.8867 71.6202C21.832 71.6199 21.7776 71.611 21.7256 71.5939L21.2752 71.4854L19.6313 71.0514C18.2406 70.6766 16.3074 70.1834 14.2361 69.424C13.2614 69.0675 12.3123 68.6446 11.3955 68.1582C10.6465 67.7597 9.93174 67.3001 9.25846 66.7839C8.80418 66.4361 8.37565 66.0559 7.97624 65.6463C7.83486 65.5017 7.73294 65.3866 7.64746 65.3175C7.60832 65.2788 7.57508 65.2345 7.54883 65.186C7.54883 65.186 7.71322 65.3406 8.00911 65.6134C8.42595 66.0015 8.86507 66.3648 9.32422 66.7017C10.0041 67.1907 10.7183 67.6302 11.4613 68.0168C12.3758 68.492 13.3203 68.9071 14.2887 69.2596C16.3469 70.0158 18.2768 70.5254 19.6576 70.933L21.3015 71.4163L21.7454 71.5577C21.795 71.5724 21.8425 71.5934 21.8867 71.6202Z" fill="#FAFAFA"/>
<path d="M21.9987 67.4579C22.0007 67.5167 21.9851 67.5747 21.9539 67.6246C21.9228 67.6744 21.8775 67.7139 21.8238 67.7379C21.7701 67.7619 21.7105 67.7694 21.6526 67.7593C21.5947 67.7493 21.541 67.7223 21.4985 67.6816C21.456 67.641 21.4266 67.5887 21.414 67.5312C21.4014 67.4738 21.4062 67.4139 21.4277 67.3592C21.4493 67.3045 21.4867 67.2575 21.5351 67.2241C21.5835 67.1908 21.6408 67.1726 21.6996 67.1719C21.7769 67.171 21.8516 67.2004 21.9075 67.2539C21.9634 67.3074 21.9962 67.3806 21.9987 67.4579Z" fill="#FAFAFA"/>
</svg>
