<svg width="18" height="18" viewBox="0 0 18 18" fill="none" xmlns="http://www.w3.org/2000/svg">
<path opacity="0.34" d="M5.53845 13.68C6.30316 13.68 6.92307 13.0353 6.92307 12.24C6.92307 11.4448 6.30316 10.8 5.53845 10.8C4.77375 10.8 4.15384 11.4448 4.15384 12.24C4.15384 13.0353 4.77375 13.68 5.53845 13.68Z" stroke="black" stroke-width="1.5" stroke-miterlimit="10" stroke-linecap="round" stroke-linejoin="round"/>
<path d="M0.923065 12.6623V11.8175C0.923065 11.3183 1.31537 10.9055 1.79999 10.9055C2.63537 10.9055 2.97691 10.2911 2.55691 9.5375C2.31691 9.1055 2.45999 8.5439 2.87999 8.2943L3.67845 7.8191C4.04307 7.5935 4.51383 7.7279 4.73076 8.1071L4.78153 8.1983C5.19691 8.9519 5.87999 8.9519 6.29999 8.1983L6.35076 8.1071C6.56768 7.7279 7.03845 7.5935 7.40307 7.8191L8.20153 8.2943C8.62153 8.5439 8.7646 9.1055 8.5246 9.5375C8.1046 10.2911 8.44614 10.9055 9.28153 10.9055C9.76153 10.9055 10.1584 11.3135 10.1584 11.8175V12.6623C10.1584 13.1615 9.76614 13.5743 9.28153 13.5743C8.44614 13.5743 8.1046 14.1887 8.5246 14.9423C8.7646 15.3791 8.62153 15.9359 8.20153 16.1855L7.40307 16.6607C7.03845 16.8863 6.56768 16.7519 6.35076 16.3727L6.29999 16.2815C5.8846 15.5279 5.20153 15.5279 4.78153 16.2815L4.73076 16.3727C4.51383 16.7519 4.04307 16.8863 3.67845 16.6607L2.87999 16.1855C2.45999 15.9359 2.31691 15.3743 2.55691 14.9423C2.97691 14.1887 2.63537 13.5743 1.79999 13.5743C1.31537 13.5743 0.923065 13.1615 0.923065 12.6623Z" stroke="black" stroke-width="1.5" stroke-miterlimit="10" stroke-linecap="round" stroke-linejoin="round"/>
<path opacity="0.34" d="M12.8077 7.20007C13.5246 7.20007 14.1058 6.55536 14.1058 5.76007C14.1058 4.96478 13.5246 4.32007 12.8077 4.32007C12.0908 4.32007 11.5096 4.96478 11.5096 5.76007C11.5096 6.55536 12.0908 7.20007 12.8077 7.20007Z" stroke="black" stroke-width="1.5" stroke-miterlimit="10" stroke-linecap="round" stroke-linejoin="round"/>
<path d="M8.48077 6.18232V5.33752C8.48077 4.83832 8.84856 4.42552 9.30289 4.42552C10.0861 4.42552 10.4063 3.81112 10.0125 3.05752C9.7875 2.62552 9.92164 2.06392 10.3154 1.81432L11.0639 1.33912C11.4058 1.11352 11.8471 1.24792 12.0505 1.62712L12.0981 1.71832C12.4875 2.47192 13.1279 2.47192 13.5216 1.71832L13.5692 1.62712C13.7726 1.24792 14.2139 1.11352 14.5558 1.33912L15.3043 1.81432C15.6981 2.06392 15.8322 2.62552 15.6072 3.05752C15.2135 3.81112 15.5337 4.42552 16.3168 4.42552C16.7668 4.42552 17.1389 4.83352 17.1389 5.33752V6.18232C17.1389 6.68152 16.7712 7.09432 16.3168 7.09432C15.5337 7.09432 15.2135 7.70872 15.6072 8.46232C15.8322 8.89912 15.6981 9.45592 15.3043 9.70552L14.5558 10.1807C14.2139 10.4063 13.7726 10.2719 13.5692 9.89272L13.5216 9.80152C13.1322 9.04792 12.4918 9.04792 12.0981 9.80152L12.0505 9.89272C11.8471 10.2719 11.4058 10.4063 11.0639 10.1807L10.3154 9.70552C9.92164 9.45592 9.7875 8.89432 10.0125 8.46232C10.4063 7.70872 10.0861 7.09432 9.30289 7.09432C8.84856 7.09432 8.48077 6.68152 8.48077 6.18232Z" stroke="black" stroke-width="1.5" stroke-miterlimit="10" stroke-linecap="round" stroke-linejoin="round"/>
</svg>
