<svg width="48" height="48" viewBox="0 0 48 48" fill="none" xmlns="http://www.w3.org/2000/svg">
<circle cx="24" cy="24" r="24" fill="#212121"/>
<path opacity="0.34" d="M19.3846 30.24C20.4042 30.24 21.2308 29.3804 21.2308 28.32C21.2308 27.2596 20.4042 26.4 19.3846 26.4C18.365 26.4 17.5385 27.2596 17.5385 28.32C17.5385 29.3804 18.365 30.24 19.3846 30.24Z" stroke="white" stroke-width="1.5" stroke-miterlimit="10" stroke-linecap="round" stroke-linejoin="round"/>
<path d="M13.2308 28.8832V27.7568C13.2308 27.0912 13.7538 26.5408 14.4 26.5408C15.5138 26.5408 15.9692 25.7216 15.4092 24.7168C15.0892 24.1408 15.28 23.392 15.84 23.0592L16.9046 22.4256C17.3908 22.1248 18.0185 22.304 18.3077 22.8096L18.3754 22.9312C18.9292 23.936 19.84 23.936 20.4 22.9312L20.4677 22.8096C20.7569 22.304 21.3846 22.1248 21.8708 22.4256L22.9354 23.0592C23.4954 23.392 23.6862 24.1408 23.3662 24.7168C22.8062 25.7216 23.2615 26.5408 24.3754 26.5408C25.0154 26.5408 25.5446 27.0848 25.5446 27.7568V28.8832C25.5446 29.5488 25.0215 30.0992 24.3754 30.0992C23.2615 30.0992 22.8062 30.9184 23.3662 31.9232C23.6862 32.5056 23.4954 33.248 22.9354 33.5808L21.8708 34.2144C21.3846 34.5152 20.7569 34.336 20.4677 33.8304L20.4 33.7088C19.8462 32.704 18.9354 32.704 18.3754 33.7088L18.3077 33.8304C18.0185 34.336 17.3908 34.5152 16.9046 34.2144L15.84 33.5808C15.28 33.248 15.0892 32.4992 15.4092 31.9232C15.9692 30.9184 15.5138 30.0992 14.4 30.0992C13.7538 30.0992 13.2308 29.5488 13.2308 28.8832Z" stroke="white" stroke-width="1.5" stroke-miterlimit="10" stroke-linecap="round" stroke-linejoin="round"/>
<path opacity="0.34" d="M29.0774 21.6C30.0333 21.6 30.8081 20.7404 30.8081 19.68C30.8081 18.6196 30.0333 17.76 29.0774 17.76C28.1215 17.76 27.3466 18.6196 27.3466 19.68C27.3466 20.7404 28.1215 21.6 29.0774 21.6Z" stroke="white" stroke-width="2" stroke-miterlimit="10" stroke-linecap="round" stroke-linejoin="round"/>
<path d="M23.3081 20.2432V19.1168C23.3081 18.4512 23.7985 17.9008 24.4043 17.9008C25.4485 17.9008 25.8754 17.0816 25.3504 16.0768C25.0504 15.5008 25.2293 14.752 25.7543 14.4192L26.7524 13.7856C27.2081 13.4848 27.7966 13.664 28.0678 14.1696L28.1312 14.2912C28.6504 15.296 29.5043 15.296 30.0293 14.2912L30.0928 14.1696C30.3639 13.664 30.9524 13.4848 31.4081 13.7856L32.4062 14.4192C32.9312 14.752 33.1101 15.5008 32.8101 16.0768C32.2851 17.0816 32.712 17.9008 33.7562 17.9008C34.3562 17.9008 34.8524 18.4448 34.8524 19.1168V20.2432C34.8524 20.9088 34.362 21.4592 33.7562 21.4592C32.712 21.4592 32.2851 22.2784 32.8101 23.2832C33.1101 23.8656 32.9312 24.608 32.4062 24.9408L31.4081 25.5744C30.9524 25.8752 30.3639 25.696 30.0928 25.1904L30.0293 25.0688C29.5101 24.064 28.6562 24.064 28.1312 25.0688L28.0678 25.1904C27.7966 25.696 27.2081 25.8752 26.7524 25.5744L25.7543 24.9408C25.2293 24.608 25.0504 23.8592 25.3504 23.2832C25.8754 22.2784 25.4485 21.4592 24.4043 21.4592C23.7985 21.4592 23.3081 20.9088 23.3081 20.2432Z" stroke="white" stroke-width="2" stroke-miterlimit="10" stroke-linecap="round" stroke-linejoin="round"/>
</svg>
