<svg width="71" height="53" viewBox="0 0 71 53" fill="none" xmlns="http://www.w3.org/2000/svg">
<path d="M66.4648 32.8293C66.4234 31.3081 66.5415 28.7139 65.2079 27.6458C64.0363 26.708 63.1253 27.9808 62.7964 29.0075C61.9999 31.4981 62.3738 34.2445 62.3762 36.8155C62.3762 36.8545 62.3762 36.8935 62.3762 36.9373C62.3141 38.83 62.0864 40.8773 62.2934 42.7663C62.2934 42.7663 62.09 40.8737 60.6042 41.6848C59.1183 42.4959 61.3471 46.7526 61.3471 46.7526C61.3471 46.7526 59.5909 45.4689 58.7797 46.5504C57.9686 47.6319 59.793 48.8474 59.793 48.8474C59.793 48.8474 58.1038 48.3748 58.1038 48.8474C58.1038 49.3199 58.6445 49.7255 60.1986 49.9289H68.5755C68.5755 49.9289 69.9274 49.1847 69.657 48.3748C69.3866 47.5649 67.9665 48.0314 67.9665 48.0314C67.9665 48.0314 70.1295 45.3958 69.9943 44.2473C69.8591 43.0988 67.0884 44.4507 67.0884 44.4507C67.0884 44.4507 69.2502 38.9774 68.8446 36.5452C68.5255 34.6294 67.0384 35.9362 66.2285 36.6767C66.4192 35.4036 66.4982 34.1162 66.4648 32.8293Z" fill="#FF7A00" stroke="white" stroke-linecap="round" stroke-linejoin="round"/>
<path opacity="0.5" d="M66.4648 32.8293C66.4234 31.3081 66.5415 28.7139 65.2079 27.6458C64.0363 26.708 63.1253 27.9808 62.7964 29.0075C61.9999 31.4981 62.3738 34.2445 62.3762 36.8155C62.3762 36.8545 62.3762 36.8935 62.3762 36.9373C62.3141 38.83 62.0864 40.8773 62.2934 42.7663C62.2934 42.7663 62.09 40.8737 60.6042 41.6848C59.1183 42.4959 61.3471 46.7526 61.3471 46.7526C61.3471 46.7526 59.5909 45.4689 58.7797 46.5504C57.9686 47.6319 59.793 48.8474 59.793 48.8474C59.793 48.8474 58.1038 48.3748 58.1038 48.8474C58.1038 49.3199 58.6445 49.7255 60.1986 49.9289H68.5755C68.5755 49.9289 69.9274 49.1847 69.657 48.3748C69.3866 47.5649 67.9665 48.0314 67.9665 48.0314C67.9665 48.0314 70.1295 45.3958 69.9943 44.2473C69.8591 43.0988 67.0884 44.4507 67.0884 44.4507C67.0884 44.4507 69.2502 38.9774 68.8446 36.5452C68.5255 34.6294 67.0384 35.9362 66.2285 36.6767C66.4192 35.4036 66.4982 34.1162 66.4648 32.8293Z" fill="white"/>
<path d="M63.7768 49.8558L64.3858 31.274" stroke="white" stroke-linecap="round" stroke-linejoin="round"/>
<path d="M64.1149 42.0855L67.29 39.1125" stroke="white" stroke-linecap="round" stroke-linejoin="round"/>
<path d="M65.6006 40.7336L66.2765 38.8422" stroke="white" stroke-linecap="round" stroke-linejoin="round"/>
<path d="M61.4799 44.3824L63.9121 47.018" stroke="white" stroke-linecap="round" stroke-linejoin="round"/>
<path d="M67.966 45.8696L63.9116 47.9645" stroke="white" stroke-linecap="round" stroke-linejoin="round"/>
<path d="M65.8042 47.0851L67.29 47.0181" stroke="white" stroke-linecap="round" stroke-linejoin="round"/>
<path d="M63.7768 49.8558L64.3858 31.274" stroke="#FF7A00" stroke-linecap="round" stroke-linejoin="round"/>
<path d="M64.1149 42.0855L67.29 39.1125" stroke="#FF7A00" stroke-linecap="round" stroke-linejoin="round"/>
<path d="M65.6006 40.7336L66.2765 38.8422" stroke="#FF7A00" stroke-linecap="round" stroke-linejoin="round"/>
<path d="M61.4799 44.3824L63.9121 47.018" stroke="#FF7A00" stroke-linecap="round" stroke-linejoin="round"/>
<path d="M67.966 45.8696L63.9116 47.9645" stroke="#FF7A00" stroke-linecap="round" stroke-linejoin="round"/>
<path d="M65.8042 47.0851L67.29 47.0181" stroke="#FF7A00" stroke-linecap="round" stroke-linejoin="round"/>
<g opacity="0.8">
<path d="M63.7773 49.8558L64.3862 31.274" stroke="white" stroke-linecap="round" stroke-linejoin="round"/>
<path d="M64.1165 42.0855L67.2917 39.1125" stroke="white" stroke-linecap="round" stroke-linejoin="round"/>
<path d="M65.6013 40.7336L66.2772 38.8422" stroke="white" stroke-linecap="round" stroke-linejoin="round"/>
<path d="M61.4804 44.3826L63.9126 47.0181" stroke="white" stroke-linecap="round" stroke-linejoin="round"/>
<path d="M67.9665 45.8696L63.912 47.9645" stroke="white" stroke-linecap="round" stroke-linejoin="round"/>
<path d="M65.8058 47.0851L67.2917 47.0181" stroke="white" stroke-linecap="round" stroke-linejoin="round"/>
</g>
<path d="M52.1695 46.1009C52.1695 47.9899 53.6663 49.5221 53.6663 49.5221C53.6663 49.5221 55.1632 47.9899 55.1632 46.1009C55.1632 44.212 53.6663 42.6798 53.6663 42.6798C53.6663 42.6798 52.1695 44.2107 52.1695 46.1009Z" fill="#FF7A00"/>
<path d="M51.1324 49.0154C51.8631 49.8351 53.0981 49.924 53.0981 49.924C53.0981 49.924 53.1578 48.6829 52.4319 47.8633C51.706 47.0436 50.4662 46.9547 50.4662 46.9547C50.4662 46.9547 50.4053 48.1958 51.1324 49.0154Z" fill="#FF7A00"/>
<path d="M54.9462 47.8353C54.1825 48.6208 54.1874 49.8631 54.1874 49.8631C54.1874 49.8631 55.4285 49.8302 56.1909 49.0435C56.9533 48.2567 56.9509 47.0156 56.9509 47.0156C56.9509 47.0156 55.7086 47.0485 54.9462 47.8353Z" fill="#FF7A00"/>
<g opacity="0.5">
<path d="M52.1696 46.1009C52.1696 47.9899 53.6664 49.5221 53.6664 49.5221C53.6664 49.5221 55.1632 47.9899 55.1632 46.1009C55.1632 44.212 53.6664 42.6798 53.6664 42.6798C53.6664 42.6798 52.1696 44.2107 52.1696 46.1009Z" fill="white"/>
<path d="M53.6673 49.5221V42.6798" stroke="white" stroke-linecap="round" stroke-linejoin="round"/>
<path d="M53.6671 45.112L52.8292 44.38" stroke="white" stroke-linecap="round" stroke-linejoin="round"/>
<path d="M53.6803 46.2422L54.718 44.7393" stroke="white" stroke-linecap="round" stroke-linejoin="round"/>
<path d="M53.6671 46.8938L52.4297 45.7904" stroke="white" stroke-linecap="round" stroke-linejoin="round"/>
<path d="M53.6803 47.7719L54.9043 46.6819" stroke="white" stroke-linecap="round" stroke-linejoin="round"/>
<path d="M53.6801 48.5307L52.7216 47.772" stroke="white" stroke-linecap="round" stroke-linejoin="round"/>
<path d="M51.1324 49.0154C51.8631 49.8351 53.0981 49.924 53.0981 49.924C53.0981 49.924 53.1578 48.6829 52.4319 47.8633C51.706 47.0436 50.4662 46.9547 50.4662 46.9547C50.4662 46.9547 50.4053 48.1958 51.1324 49.0154Z" fill="white"/>
<path d="M53.0981 49.924L50.4661 46.9547" stroke="white" stroke-linecap="round" stroke-linejoin="round"/>
<path d="M51.4013 48.0106L50.7558 48.0155" stroke="white" stroke-linecap="round" stroke-linejoin="round"/>
<path d="M51.8423 48.4954L51.7144 47.4443" stroke="white" stroke-linecap="round" stroke-linejoin="round"/>
<path d="M52.0867 48.784L51.1258 48.7804" stroke="white" stroke-linecap="round" stroke-linejoin="round"/>
<path d="M52.4308 49.1591L52.5416 48.2152" stroke="white" stroke-linecap="round" stroke-linejoin="round"/>
<path d="M52.7235 49.4879L52.0159 49.5281" stroke="white" stroke-linecap="round" stroke-linejoin="round"/>
<path d="M54.9474 47.8353C54.1838 48.6208 54.1887 49.8631 54.1887 49.8631C54.1887 49.8631 55.4297 49.8302 56.1921 49.0435C56.9546 48.2567 56.9521 47.0156 56.9521 47.0156C56.9521 47.0156 55.7098 47.0485 54.9474 47.8353Z" fill="white"/>
<path d="M54.1887 49.8631L56.9521 47.0156" stroke="white" stroke-linecap="round" stroke-linejoin="round"/>
<path d="M55.9693 48.0277L55.9169 47.3846" stroke="white" stroke-linecap="round" stroke-linejoin="round"/>
<path d="M55.5186 48.5039L56.5574 48.2969" stroke="white" stroke-linecap="round" stroke-linejoin="round"/>
<path d="M55.2487 48.7694L55.1805 47.8109" stroke="white" stroke-linecap="round" stroke-linejoin="round"/>
<path d="M54.8991 49.1396L55.8491 49.1811" stroke="white" stroke-linecap="round" stroke-linejoin="round"/>
<path d="M54.5933 49.4551L54.5007 48.7535" stroke="white" stroke-linecap="round" stroke-linejoin="round"/>
</g>
<path d="M53.6661 49.5221V42.6798" stroke="#FF7A00" stroke-linecap="round" stroke-linejoin="round"/>
<path d="M53.6671 45.112L52.8291 44.38" stroke="#FF7A00" stroke-linecap="round" stroke-linejoin="round"/>
<path d="M53.6803 46.2423L54.7179 44.7394" stroke="#FF7A00" stroke-linecap="round" stroke-linejoin="round"/>
<path d="M53.667 46.8938L52.4296 45.7904" stroke="#FF7A00" stroke-linecap="round" stroke-linejoin="round"/>
<path d="M53.6803 47.7719L54.9043 46.6819" stroke="#FF7A00" stroke-linecap="round" stroke-linejoin="round"/>
<path d="M53.6801 48.5307L52.7216 47.772" stroke="#FF7A00" stroke-linecap="round" stroke-linejoin="round"/>
<g opacity="0.7">
<path d="M53.6672 49.5221V42.6798" stroke="white" stroke-linecap="round" stroke-linejoin="round"/>
<path d="M53.667 45.112L52.829 44.38" stroke="white" stroke-linecap="round" stroke-linejoin="round"/>
<path d="M53.6802 46.2422L54.7178 44.7393" stroke="white" stroke-linecap="round" stroke-linejoin="round"/>
<path d="M53.6669 46.8938L52.4295 45.7904" stroke="white" stroke-linecap="round" stroke-linejoin="round"/>
<path d="M53.6802 47.7719L54.9042 46.6819" stroke="white" stroke-linecap="round" stroke-linejoin="round"/>
<path d="M53.68 48.5307L52.7215 47.772" stroke="white" stroke-linecap="round" stroke-linejoin="round"/>
</g>
<path d="M53.098 49.924L50.4661 46.9547" stroke="#FF7A00" stroke-linecap="round" stroke-linejoin="round"/>
<path d="M51.4012 48.0106L50.7557 48.0155" stroke="#FF7A00" stroke-linecap="round" stroke-linejoin="round"/>
<path d="M51.8423 48.4954L51.7144 47.4443" stroke="#FF7A00" stroke-linecap="round" stroke-linejoin="round"/>
<path d="M52.0866 48.784L51.1257 48.7804" stroke="#FF7A00" stroke-linecap="round" stroke-linejoin="round"/>
<path d="M52.4308 49.1592L52.5416 48.2153" stroke="#FF7A00" stroke-linecap="round" stroke-linejoin="round"/>
<path d="M52.7223 49.488L52.0146 49.5282" stroke="#FF7A00" stroke-linecap="round" stroke-linejoin="round"/>
<g opacity="0.7">
<path d="M53.0982 49.924L50.4663 46.9547" stroke="white" stroke-linecap="round" stroke-linejoin="round"/>
<path d="M51.4014 48.0106L50.7559 48.0155" stroke="white" stroke-linecap="round" stroke-linejoin="round"/>
<path d="M51.8425 48.4954L51.7146 47.4443" stroke="white" stroke-linecap="round" stroke-linejoin="round"/>
<path d="M52.0869 48.784L51.1259 48.7804" stroke="white" stroke-linecap="round" stroke-linejoin="round"/>
<path d="M52.431 49.1591L52.5418 48.2152" stroke="white" stroke-linecap="round" stroke-linejoin="round"/>
<path d="M52.7237 49.488L52.0161 49.5282" stroke="white" stroke-linecap="round" stroke-linejoin="round"/>
</g>
<path d="M54.1874 49.8631L56.9509 47.0156" stroke="#FF7A00" stroke-linecap="round" stroke-linejoin="round"/>
<path d="M55.968 48.0277L55.9157 47.3846" stroke="#FF7A00" stroke-linecap="round" stroke-linejoin="round"/>
<path d="M55.5173 48.5039L56.5562 48.2969" stroke="#FF7A00" stroke-linecap="round" stroke-linejoin="round"/>
<path d="M55.2486 48.7694L55.1804 47.8109" stroke="#FF7A00" stroke-linecap="round" stroke-linejoin="round"/>
<path d="M54.899 49.1396L55.849 49.1811" stroke="#FF7A00" stroke-linecap="round" stroke-linejoin="round"/>
<path d="M54.5932 49.4551L54.5007 48.7535" stroke="#FF7A00" stroke-linecap="round" stroke-linejoin="round"/>
<g opacity="0.7">
<path d="M54.1874 49.8631L56.9509 47.0156" stroke="white" stroke-linecap="round" stroke-linejoin="round"/>
<path d="M55.968 48.0277L55.9156 47.3846" stroke="white" stroke-linecap="round" stroke-linejoin="round"/>
<path d="M55.5172 48.5039L56.5561 48.2969" stroke="white" stroke-linecap="round" stroke-linejoin="round"/>
<path d="M55.2485 48.7694L55.1803 47.8109" stroke="white" stroke-linecap="round" stroke-linejoin="round"/>
<path d="M54.899 49.1396L55.8489 49.1811" stroke="white" stroke-linecap="round" stroke-linejoin="round"/>
<path d="M54.5931 49.4551L54.5006 48.7535" stroke="white" stroke-linecap="round" stroke-linejoin="round"/>
</g>
<path d="M4.53562 32.8293C4.57581 31.3081 4.45889 28.7139 5.79251 27.6458C6.96415 26.708 7.87515 27.9808 8.20277 29.0075C9.00051 31.4981 8.62539 34.2445 8.62417 36.8155C8.62417 36.8545 8.62417 36.8935 8.62417 36.9373C8.6875 38.83 8.91404 40.8773 8.70821 42.7663C8.70821 42.7663 8.91039 40.8737 10.3975 41.6848C11.8845 42.4959 9.65332 46.7526 9.65332 46.7526C9.65332 46.7526 11.4108 45.4689 12.2219 46.5504C13.033 47.6319 11.211 48.8425 11.211 48.8425C11.211 48.8425 12.9003 48.3699 12.9003 48.8425C12.9003 49.3151 12.3595 49.7206 10.8055 49.924H2.42496C2.42496 49.924 1.07307 49.1799 1.34345 48.3699C1.61383 47.56 3.0327 48.0314 3.0327 48.0314C3.0327 48.0314 0.870897 45.3958 1.00609 44.2473C1.14128 43.0988 3.91204 44.4507 3.91204 44.4507C3.91204 44.4507 1.74902 38.9774 2.15458 36.5488C2.47368 34.633 3.96198 35.9399 4.77068 36.6804C4.58022 35.406 4.50157 34.1174 4.53562 32.8293Z" fill="#FF7A00" stroke="white" stroke-linecap="round" stroke-linejoin="round"/>
<path opacity="0.5" d="M4.53562 32.8293C4.57581 31.3081 4.45889 28.7139 5.79251 27.6458C6.96415 26.708 7.87515 27.9808 8.20277 29.0075C9.00051 31.4981 8.62539 34.2445 8.62417 36.8155C8.62417 36.8545 8.62417 36.8935 8.62417 36.9373C8.6875 38.83 8.91404 40.8773 8.70821 42.7663C8.70821 42.7663 8.91039 40.8737 10.3975 41.6848C11.8845 42.4959 9.65332 46.7526 9.65332 46.7526C9.65332 46.7526 11.4108 45.4689 12.2219 46.5504C13.033 47.6319 11.211 48.8425 11.211 48.8425C11.211 48.8425 12.9003 48.3699 12.9003 48.8425C12.9003 49.3151 12.3595 49.7206 10.8055 49.924H2.42496C2.42496 49.924 1.07307 49.1799 1.34345 48.3699C1.61383 47.56 3.0327 48.0314 3.0327 48.0314C3.0327 48.0314 0.870897 45.3958 1.00609 44.2473C1.14128 43.0988 3.91204 44.4507 3.91204 44.4507C3.91204 44.4507 1.74902 38.9774 2.15458 36.5488C2.47368 34.633 3.96198 35.9399 4.77068 36.6804C4.58022 35.406 4.50157 34.1174 4.53562 32.8293Z" fill="white"/>
<path d="M7.22285 49.8558L6.61511 31.274" stroke="white" stroke-linecap="round" stroke-linejoin="round"/>
<path d="M6.88459 42.0855L3.70825 39.1125" stroke="white" stroke-linecap="round" stroke-linejoin="round"/>
<path d="M5.39845 40.7336L4.7225 38.8422" stroke="white" stroke-linecap="round" stroke-linejoin="round"/>
<path d="M9.51895 44.3824L7.08676 47.018" stroke="white" stroke-linecap="round" stroke-linejoin="round"/>
<path d="M3.03326 45.8696L7.08772 47.9645" stroke="white" stroke-linecap="round" stroke-linejoin="round"/>
<path d="M5.19533 47.0851L3.70825 47.0181" stroke="white" stroke-linecap="round" stroke-linejoin="round"/>
<path d="M7.22285 49.8558L6.61511 31.274" stroke="#FF7A00" stroke-linecap="round" stroke-linejoin="round"/>
<path d="M6.88459 42.0855L3.70825 39.1125" stroke="#FF7A00" stroke-linecap="round" stroke-linejoin="round"/>
<path d="M5.39845 40.7336L4.7225 38.8422" stroke="#FF7A00" stroke-linecap="round" stroke-linejoin="round"/>
<path d="M9.51895 44.3824L7.08676 47.018" stroke="#FF7A00" stroke-linecap="round" stroke-linejoin="round"/>
<path d="M3.03326 45.8696L7.08772 47.9645" stroke="#FF7A00" stroke-linecap="round" stroke-linejoin="round"/>
<path d="M5.19533 47.0851L3.70825 47.0181" stroke="#FF7A00" stroke-linecap="round" stroke-linejoin="round"/>
<g opacity="0.8">
<path d="M7.22291 49.8558L6.61517 31.274" stroke="white" stroke-linecap="round" stroke-linejoin="round"/>
<path d="M6.88584 42.0855L3.7095 39.1125" stroke="white" stroke-linecap="round" stroke-linejoin="round"/>
<path d="M5.39851 40.7336L4.72256 38.8422" stroke="white" stroke-linecap="round" stroke-linejoin="round"/>
<path d="M9.5202 44.3826L7.08801 47.0181" stroke="white" stroke-linecap="round" stroke-linejoin="round"/>
<path d="M3.03333 45.8696L7.08778 47.9645" stroke="white" stroke-linecap="round" stroke-linejoin="round"/>
<path d="M5.19658 47.0851L3.7095 47.0181" stroke="white" stroke-linecap="round" stroke-linejoin="round"/>
</g>
<path d="M19.074 46.1009C19.074 47.9899 17.5772 49.5221 17.5772 49.5221C17.5772 49.5221 16.0828 47.9899 16.0828 46.1009C16.0828 44.212 17.5796 42.6798 17.5796 42.6798C17.5796 42.6798 19.074 44.2107 19.074 46.1009Z" fill="#FF7A00"/>
<path d="M20.1101 49.0154C19.3793 49.8351 18.1444 49.924 18.1444 49.924C18.1444 49.924 18.0847 48.6829 18.8118 47.8633C19.5389 47.0436 20.7775 46.9547 20.7775 46.9547C20.7775 46.9547 20.8323 48.1958 20.1101 49.0154Z" fill="#FF7A00"/>
<path d="M16.2965 47.8353C17.059 48.6208 17.0553 49.8631 17.0553 49.8631C17.0553 49.8631 15.8142 49.8302 15.0506 49.0435C14.287 48.2567 14.2918 47.0156 14.2918 47.0156C14.2918 47.0156 15.5329 47.0485 16.2965 47.8353Z" fill="#FF7A00"/>
<g opacity="0.5">
<path d="M19.0738 46.1009C19.0738 47.9899 17.577 49.5221 17.577 49.5221C17.577 49.5221 16.0826 47.9899 16.0826 46.1009C16.0826 44.212 17.5794 42.6798 17.5794 42.6798C17.5794 42.6798 19.0738 44.2107 19.0738 46.1009Z" fill="white"/>
<path d="M17.5768 49.5221V42.6798" stroke="white" stroke-linecap="round" stroke-linejoin="round"/>
<path d="M17.5768 45.112L18.4147 44.38" stroke="white" stroke-linecap="round" stroke-linejoin="round"/>
<path d="M17.5635 46.2422L16.5259 44.7393" stroke="white" stroke-linecap="round" stroke-linejoin="round"/>
<path d="M17.5768 46.8938L18.8142 45.7904" stroke="white" stroke-linecap="round" stroke-linejoin="round"/>
<path d="M17.5631 47.7719L16.3391 46.6819" stroke="white" stroke-linecap="round" stroke-linejoin="round"/>
<path d="M17.5626 48.5307L18.5199 47.772" stroke="white" stroke-linecap="round" stroke-linejoin="round"/>
<path d="M20.1099 49.0154C19.3792 49.8351 18.1442 49.924 18.1442 49.924C18.1442 49.924 18.0845 48.6829 18.8116 47.8633C19.5387 47.0436 20.7774 46.9547 20.7774 46.9547C20.7774 46.9547 20.8322 48.1958 20.1099 49.0154Z" fill="white"/>
<path d="M18.1442 49.924L20.7774 46.9547" stroke="white" stroke-linecap="round" stroke-linejoin="round"/>
<path d="M19.8418 48.0106L20.486 48.0155" stroke="white" stroke-linecap="round" stroke-linejoin="round"/>
<path d="M19.4008 48.4954L19.5287 47.4443" stroke="white" stroke-linecap="round" stroke-linejoin="round"/>
<path d="M19.1549 48.784L20.1171 48.7804" stroke="white" stroke-linecap="round" stroke-linejoin="round"/>
<path d="M18.8119 49.1591L18.701 48.2152" stroke="white" stroke-linecap="round" stroke-linejoin="round"/>
<path d="M18.5201 49.4879L19.2278 49.5281" stroke="white" stroke-linecap="round" stroke-linejoin="round"/>
<path d="M16.2964 47.8353C17.0588 48.6208 17.0551 49.8631 17.0551 49.8631C17.0551 49.8631 15.8141 49.8302 15.0505 49.0435C14.2868 48.2567 14.2917 47.0156 14.2917 47.0156C14.2917 47.0156 15.5327 47.0485 16.2964 47.8353Z" fill="white"/>
<path d="M17.0551 49.8631L14.2917 47.0156" stroke="white" stroke-linecap="round" stroke-linejoin="round"/>
<path d="M15.2728 48.0277L15.3264 47.3846" stroke="white" stroke-linecap="round" stroke-linejoin="round"/>
<path d="M15.7254 48.5039L14.6865 48.2969" stroke="white" stroke-linecap="round" stroke-linejoin="round"/>
<path d="M15.9928 48.7694L16.0622 47.8109" stroke="white" stroke-linecap="round" stroke-linejoin="round"/>
<path d="M16.3422 49.1396L15.3922 49.1811" stroke="white" stroke-linecap="round" stroke-linejoin="round"/>
<path d="M16.65 49.4551L16.7414 48.7535" stroke="white" stroke-linecap="round" stroke-linejoin="round"/>
</g>
<path d="M17.577 49.5221V42.6798" stroke="#FF7A00" stroke-linecap="round" stroke-linejoin="round"/>
<path d="M17.577 45.112L18.4149 44.38" stroke="#FF7A00" stroke-linecap="round" stroke-linejoin="round"/>
<path d="M17.5637 46.2423L16.526 44.7394" stroke="#FF7A00" stroke-linecap="round" stroke-linejoin="round"/>
<path d="M17.577 46.8938L18.8144 45.7904" stroke="#FF7A00" stroke-linecap="round" stroke-linejoin="round"/>
<path d="M17.5633 47.7719L16.3393 46.6819" stroke="#FF7A00" stroke-linecap="round" stroke-linejoin="round"/>
<path d="M17.564 48.5307L18.5212 47.772" stroke="#FF7A00" stroke-linecap="round" stroke-linejoin="round"/>
<g opacity="0.7">
<path d="M17.5773 49.5221V42.6798" stroke="white" stroke-linecap="round" stroke-linejoin="round"/>
<path d="M17.5773 45.112L18.4153 44.38" stroke="white" stroke-linecap="round" stroke-linejoin="round"/>
<path d="M17.5641 46.2422L16.5264 44.7393" stroke="white" stroke-linecap="round" stroke-linejoin="round"/>
<path d="M17.5773 46.8938L18.8147 45.7904" stroke="white" stroke-linecap="round" stroke-linejoin="round"/>
<path d="M17.5637 47.7719L16.3397 46.6819" stroke="white" stroke-linecap="round" stroke-linejoin="round"/>
<path d="M17.5632 48.5307L18.5205 47.772" stroke="white" stroke-linecap="round" stroke-linejoin="round"/>
</g>
<path d="M18.1444 49.924L20.7775 46.9547" stroke="#FF7A00" stroke-linecap="round" stroke-linejoin="round"/>
<path d="M19.8419 48.0106L20.4862 48.0155" stroke="#FF7A00" stroke-linecap="round" stroke-linejoin="round"/>
<path d="M19.401 48.4954L19.5289 47.4443" stroke="#FF7A00" stroke-linecap="round" stroke-linejoin="round"/>
<path d="M19.1551 48.784L20.1172 48.7804" stroke="#FF7A00" stroke-linecap="round" stroke-linejoin="round"/>
<path d="M18.812 49.1592L18.7012 48.2153" stroke="#FF7A00" stroke-linecap="round" stroke-linejoin="round"/>
<path d="M18.5215 49.488L19.2291 49.5282" stroke="#FF7A00" stroke-linecap="round" stroke-linejoin="round"/>
<g opacity="0.7">
<path d="M18.1444 49.924L20.7775 46.9547" stroke="white" stroke-linecap="round" stroke-linejoin="round"/>
<path d="M19.8418 48.0106L20.486 48.0155" stroke="white" stroke-linecap="round" stroke-linejoin="round"/>
<path d="M19.4008 48.4954L19.5287 47.4443" stroke="white" stroke-linecap="round" stroke-linejoin="round"/>
<path d="M19.1549 48.784L20.1171 48.7804" stroke="white" stroke-linecap="round" stroke-linejoin="round"/>
<path d="M18.8119 49.1591L18.701 48.2152" stroke="white" stroke-linecap="round" stroke-linejoin="round"/>
<path d="M18.5201 49.488L19.2278 49.5282" stroke="white" stroke-linecap="round" stroke-linejoin="round"/>
</g>
<path d="M17.0553 49.8631L14.2918 47.0156" stroke="#FF7A00" stroke-linecap="round" stroke-linejoin="round"/>
<path d="M15.2742 48.0277L15.3278 47.3846" stroke="#FF7A00" stroke-linecap="round" stroke-linejoin="round"/>
<path d="M15.7255 48.5039L14.6866 48.2969" stroke="#FF7A00" stroke-linecap="round" stroke-linejoin="round"/>
<path d="M15.9941 48.7694L16.0635 47.8109" stroke="#FF7A00" stroke-linecap="round" stroke-linejoin="round"/>
<path d="M16.3435 49.1396L15.3936 49.1811" stroke="#FF7A00" stroke-linecap="round" stroke-linejoin="round"/>
<path d="M16.6502 49.4551L16.7415 48.7535" stroke="#FF7A00" stroke-linecap="round" stroke-linejoin="round"/>
<g opacity="0.7">
<path d="M17.0553 49.8631L14.2918 47.0156" stroke="white" stroke-linecap="round" stroke-linejoin="round"/>
<path d="M15.2728 48.0277L15.3264 47.3846" stroke="white" stroke-linecap="round" stroke-linejoin="round"/>
<path d="M15.7254 48.5039L14.6865 48.2969" stroke="white" stroke-linecap="round" stroke-linejoin="round"/>
<path d="M15.9928 48.7694L16.0622 47.8109" stroke="white" stroke-linecap="round" stroke-linejoin="round"/>
<path d="M16.3422 49.1396L15.3922 49.1811" stroke="white" stroke-linecap="round" stroke-linejoin="round"/>
<path d="M16.65 49.4551L16.7414 48.7535" stroke="white" stroke-linecap="round" stroke-linejoin="round"/>
</g>
<path d="M52.7881 13.7274H19.8641C19.8542 13.7276 19.8444 13.7258 19.8353 13.7221C19.8261 13.7185 19.8178 13.713 19.8108 13.7061C19.8037 13.6992 19.7982 13.691 19.7943 13.6819C19.7905 13.6728 19.7886 13.663 19.7886 13.6531C19.7886 13.6331 19.7965 13.6139 19.8107 13.5998C19.8249 13.5856 19.8441 13.5776 19.8641 13.5776H52.7881C52.798 13.5776 52.8077 13.5796 52.8168 13.5834C52.8259 13.5872 52.8342 13.5928 52.8411 13.5998C52.848 13.6069 52.8534 13.6152 52.8571 13.6243C52.8608 13.6335 52.8626 13.6433 52.8624 13.6531C52.8624 13.6729 52.8546 13.6917 52.8406 13.7057C52.8267 13.7196 52.8078 13.7274 52.7881 13.7274Z" fill="#FF7A00"/>
<g opacity="0.3">
<path d="M52.7877 13.7274H19.8637C19.8539 13.7276 19.8441 13.7258 19.8349 13.7221C19.8258 13.7185 19.8174 13.713 19.8104 13.7061C19.8034 13.6992 19.7978 13.691 19.794 13.6819C19.7902 13.6728 19.7882 13.663 19.7882 13.6531C19.7882 13.6331 19.7962 13.6139 19.8103 13.5998C19.8245 13.5856 19.8437 13.5776 19.8637 13.5776H52.7877C52.7976 13.5776 52.8074 13.5796 52.8165 13.5834C52.8256 13.5872 52.8338 13.5928 52.8407 13.5998C52.8476 13.6069 52.8531 13.6152 52.8567 13.6243C52.8604 13.6335 52.8622 13.6433 52.862 13.6531C52.862 13.6729 52.8542 13.6917 52.8403 13.7057C52.8263 13.7196 52.8074 13.7274 52.7877 13.7274Z" fill="white"/>
</g>
<path d="M52.7219 26.786H19.7979C19.788 26.7862 19.7782 26.7844 19.7691 26.7807C19.7599 26.7771 19.7516 26.7716 19.7445 26.7647C19.7375 26.7578 19.7319 26.7496 19.7281 26.7405C19.7243 26.7314 19.7223 26.7216 19.7224 26.7117C19.7224 26.6917 19.7303 26.6725 19.7445 26.6583C19.7586 26.6442 19.7778 26.6362 19.7979 26.6362H52.7219C52.7317 26.6362 52.7415 26.6382 52.7506 26.642C52.7597 26.6458 52.7679 26.6514 52.7748 26.6584C52.7818 26.6654 52.7872 26.6738 52.7909 26.6829C52.7945 26.6921 52.7963 26.7019 52.7962 26.7117C52.7962 26.7215 52.7943 26.7312 52.7905 26.7402C52.7868 26.7492 52.7813 26.7574 52.7744 26.7643C52.7675 26.7712 52.7593 26.7766 52.7503 26.7804C52.7413 26.7841 52.7316 26.786 52.7219 26.786Z" fill="#FF7A00"/>
<g opacity="0.3">
<path d="M52.7219 26.786H19.7979C19.788 26.7862 19.7782 26.7844 19.7691 26.7807C19.7599 26.7771 19.7516 26.7716 19.7445 26.7647C19.7375 26.7578 19.7319 26.7496 19.7281 26.7405C19.7243 26.7314 19.7223 26.7216 19.7224 26.7117C19.7224 26.6917 19.7303 26.6725 19.7445 26.6583C19.7586 26.6442 19.7778 26.6362 19.7979 26.6362H52.7219C52.7317 26.6362 52.7415 26.6382 52.7506 26.642C52.7597 26.6458 52.7679 26.6514 52.7748 26.6584C52.7818 26.6654 52.7872 26.6738 52.7909 26.6829C52.7945 26.6921 52.7963 26.7019 52.7962 26.7117C52.7962 26.7215 52.7943 26.7312 52.7905 26.7402C52.7868 26.7492 52.7813 26.7574 52.7744 26.7643C52.7675 26.7712 52.7593 26.7766 52.7503 26.7804C52.7413 26.7841 52.7316 26.786 52.7219 26.786Z" fill="white"/>
</g>
<path d="M52.7219 37.461H19.7979C19.7778 37.461 19.7586 37.453 19.7445 37.4389C19.7303 37.4247 19.7224 37.4055 19.7224 37.3855C19.7223 37.3756 19.7243 37.3658 19.7281 37.3567C19.7319 37.3476 19.7375 37.3394 19.7445 37.3325C19.7516 37.3256 19.7599 37.3201 19.7691 37.3165C19.7782 37.3128 19.788 37.311 19.7979 37.3112H52.7219C52.7316 37.3112 52.7413 37.3131 52.7503 37.3168C52.7593 37.3206 52.7675 37.326 52.7744 37.3329C52.7813 37.3398 52.7868 37.348 52.7905 37.357C52.7943 37.366 52.7962 37.3757 52.7962 37.3855C52.7963 37.3953 52.7945 37.4051 52.7909 37.4143C52.7872 37.4234 52.7818 37.4318 52.7748 37.4388C52.7679 37.4458 52.7597 37.4514 52.7506 37.4552C52.7415 37.459 52.7317 37.461 52.7219 37.461Z" fill="#FF7A00"/>
<g opacity="0.3">
<path d="M52.7219 37.461H19.7979C19.7778 37.461 19.7586 37.453 19.7445 37.4389C19.7303 37.4247 19.7224 37.4055 19.7224 37.3855C19.7223 37.3756 19.7243 37.3658 19.7281 37.3567C19.7319 37.3476 19.7375 37.3394 19.7445 37.3325C19.7516 37.3256 19.7599 37.3201 19.7691 37.3165C19.7782 37.3128 19.788 37.311 19.7979 37.3112H52.7219C52.7316 37.3112 52.7413 37.3131 52.7503 37.3168C52.7593 37.3206 52.7675 37.326 52.7744 37.3329C52.7813 37.3398 52.7868 37.348 52.7905 37.357C52.7943 37.366 52.7962 37.3757 52.7962 37.3855C52.7963 37.3953 52.7945 37.4051 52.7909 37.4143C52.7872 37.4234 52.7818 37.4318 52.7748 37.4388C52.7679 37.4458 52.7597 37.4514 52.7506 37.4552C52.7415 37.459 52.7317 37.461 52.7219 37.461Z" fill="white"/>
</g>
<path d="M26.7972 39.2672V50.3771" stroke="black" stroke-width="0.265171" stroke-miterlimit="10"/>
<path d="M28.3837 39.2672V50.3771" stroke="black" stroke-width="0.265171" stroke-miterlimit="10"/>
<path d="M29.9713 39.2672V50.3771" stroke="black" stroke-width="0.265171" stroke-miterlimit="10"/>
<path d="M31.5577 39.2672V50.3771" stroke="black" stroke-width="0.265171" stroke-miterlimit="10"/>
<path d="M33.1453 39.2672V50.3771" stroke="black" stroke-width="0.265171" stroke-miterlimit="10"/>
<path d="M34.7317 39.2672V50.3771" stroke="black" stroke-width="0.265171" stroke-miterlimit="10"/>
<path d="M36.3193 39.2672V50.3771" stroke="black" stroke-width="0.265171" stroke-miterlimit="10"/>
<path d="M37.9057 39.2672V50.3771" stroke="black" stroke-width="0.265171" stroke-miterlimit="10"/>
<path d="M39.4933 39.2672V50.3771" stroke="black" stroke-width="0.265171" stroke-miterlimit="10"/>
<path d="M41.0797 39.2672V50.3771" stroke="black" stroke-width="0.265171" stroke-miterlimit="10"/>
<path d="M42.6673 39.2672V50.3771" stroke="black" stroke-width="0.265171" stroke-miterlimit="10"/>
<path d="M44.2537 39.2672V50.3771" stroke="black" stroke-width="0.265171" stroke-miterlimit="10"/>
<path d="M26.8764 40.2988H44.1745" stroke="black" stroke-width="0.265171" stroke-miterlimit="10"/>
<path d="M26.8764 41.8065H44.1745" stroke="black" stroke-width="0.265171" stroke-miterlimit="10"/>
<path d="M26.8764 43.3143H44.1745" stroke="black" stroke-width="0.265171" stroke-miterlimit="10"/>
<path d="M26.8764 44.8221H44.1745" stroke="black" stroke-width="0.265171" stroke-miterlimit="10"/>
<path d="M26.8764 46.33H44.1745" stroke="black" stroke-width="0.265171" stroke-miterlimit="10"/>
<path d="M26.8764 47.8378H44.1745" stroke="black" stroke-width="0.265171" stroke-miterlimit="10"/>
<path d="M26.8764 49.3455H44.1745" stroke="black" stroke-width="0.265171" stroke-miterlimit="10"/>
<path d="M30.5111 43.1646L28.1898 50.3211H33.0517L30.7292 43.1646C30.7217 43.1415 30.7072 43.1213 30.6876 43.1071C30.668 43.0928 30.6444 43.0851 30.6201 43.0851C30.5959 43.0851 30.5723 43.0928 30.5527 43.1071C30.5331 43.1213 30.5186 43.1415 30.5111 43.1646Z" fill="#FF7A00" stroke="black" stroke-width="1.06068" stroke-miterlimit="10"/>
<path d="M34.9372 40.7944L31.8473 50.321H38.2487L35.1552 40.7944C35.1477 40.7714 35.1332 40.7512 35.1136 40.7369C35.094 40.7227 35.0704 40.715 35.0462 40.715C35.0219 40.715 34.9983 40.7227 34.9787 40.7369C34.9591 40.7512 34.9446 40.7714 34.9372 40.7944Z" fill="black" stroke="black" stroke-width="1.06068" stroke-miterlimit="10"/>
<path d="M39.0092 44.8014L37.2177 50.321H41.0176L39.2224 44.8014C39.214 44.78 39.1993 44.7616 39.1803 44.7486C39.1613 44.7357 39.1388 44.7288 39.1158 44.7288C39.0928 44.7288 39.0703 44.7357 39.0513 44.7486C39.0323 44.7616 39.0176 44.78 39.0092 44.8014Z" fill="#FF7A00" stroke="black" stroke-width="1.06068" stroke-miterlimit="10"/>
<path d="M41.463 46.6966L40.2877 50.3211H42.8563L41.681 46.6966C41.6735 46.6735 41.659 46.6533 41.6394 46.639C41.6198 46.6248 41.5962 46.6171 41.572 46.6171C41.5477 46.6171 41.5241 46.6248 41.5045 46.639C41.4849 46.6533 41.4704 46.6735 41.463 46.6966Z" fill="black" stroke="black" stroke-width="1.06068" stroke-miterlimit="10"/>
<path d="M26.5885 35.756C25.8921 35.756 25.2114 35.5495 24.6323 35.1626C24.0533 34.7757 23.602 34.2258 23.3355 33.5824C23.069 32.939 22.9993 32.2311 23.1352 31.5481C23.271 30.8651 23.6064 30.2377 24.0988 29.7453C24.5912 29.2528 25.2186 28.9175 25.9016 28.7816C26.5846 28.6458 27.2926 28.7155 27.9359 28.982C28.5793 29.2485 29.1292 29.6998 29.5161 30.2788C29.903 30.8579 30.1095 31.5386 30.1095 32.235C30.1086 33.1685 29.7373 34.0635 29.0772 34.7237C28.4171 35.3838 27.522 35.755 26.5885 35.756ZM26.5885 29.748C26.0967 29.7482 25.616 29.8943 25.2071 30.1677C24.7983 30.4412 24.4797 30.8296 24.2917 31.2841C24.1037 31.7386 24.0546 32.2386 24.1507 32.7209C24.2468 33.2033 24.4837 33.6463 24.8316 33.994C25.1795 34.3417 25.6226 34.5784 26.105 34.6743C26.5874 34.7702 27.0874 34.7208 27.5417 34.5326C27.9961 34.3443 28.3845 34.0255 28.6577 33.6166C28.9309 33.2076 29.0767 32.7268 29.0767 32.235C29.0761 31.5754 28.8137 30.943 28.3472 30.4767C27.8806 30.0104 27.2481 29.7483 26.5885 29.748Z" fill="black" stroke="black" stroke-width="1.06068" stroke-miterlimit="10"/>
<path d="M26.5881 35.756C26.1129 35.7575 25.6424 35.662 25.2053 35.4754C24.7683 35.2888 24.3739 35.015 24.0463 34.6708L24.7929 33.9559C25.0242 34.1991 25.3027 34.3925 25.6114 34.5242C25.9201 34.6559 26.2525 34.7232 26.5881 34.722C26.9147 34.722 27.2381 34.6577 27.5398 34.5327C27.8416 34.4077 28.1157 34.2245 28.3467 33.9936C28.5776 33.7626 28.7608 33.4885 28.8858 33.1867C29.0108 32.885 29.0751 32.5616 29.0751 32.235C29.0751 31.9084 29.0108 31.585 28.8858 31.2833C28.7608 30.9815 28.5776 30.7074 28.3467 30.4764C28.1157 30.2455 27.8416 30.0623 27.5398 29.9373C27.2381 29.8123 26.9147 29.748 26.5881 29.748V28.714C27.0505 28.714 27.5083 28.8051 27.9355 28.982C28.3627 29.159 28.7509 29.4183 29.0778 29.7453C29.4048 30.0722 29.6641 30.4604 29.8411 30.8876C30.018 31.3148 30.1091 31.7726 30.1091 32.235C30.1091 32.6974 30.018 33.1552 29.8411 33.5824C29.6641 34.0096 29.4048 34.3978 29.0778 34.7247C28.7509 35.0517 28.3627 35.311 27.9355 35.488C27.5083 35.6649 27.0505 35.756 26.5881 35.756Z" fill="#FF7A00" stroke="black" stroke-width="1.06068" stroke-miterlimit="10"/>
<path d="M35.2724 35.756C34.576 35.7562 33.8951 35.5499 33.3159 35.1632C32.7368 34.7765 32.2853 34.2266 32.0186 33.5833C31.7519 32.9399 31.682 32.2319 31.8177 31.5488C31.9534 30.8657 32.2887 30.2382 32.7811 29.7457C33.2734 29.2532 33.9008 28.9177 34.5839 28.7817C35.2669 28.6458 35.9749 28.7154 36.6184 28.9819C37.2618 29.2484 37.8118 29.6997 38.1987 30.2787C38.5857 30.8578 38.7922 31.5386 38.7922 32.235C38.7913 33.1683 38.4202 34.0632 37.7603 34.7232C37.1005 35.3833 36.2058 35.7547 35.2724 35.756ZM35.2724 29.748C34.7807 29.7485 34.3001 29.8948 33.8914 30.1683C33.4827 30.4419 33.1644 30.8305 32.9765 31.285C32.7886 31.7394 32.7397 32.2394 32.836 32.7217C32.9322 33.2039 33.1693 33.6469 33.5172 33.9944C33.8651 34.342 34.3082 34.5786 34.7906 34.6744C35.2729 34.7701 35.7729 34.7207 36.2272 34.5324C36.6815 34.3441 37.0697 34.0254 37.3429 33.6164C37.6161 33.2075 37.7619 32.7268 37.7619 32.235C37.7609 31.5753 37.4982 30.9429 37.0315 30.4766C36.5648 30.0104 35.9322 29.7483 35.2724 29.748Z" fill="black" stroke="black" stroke-width="1.06068" stroke-miterlimit="10"/>
<path d="M36.6419 35.4783L36.24 34.5271C36.7682 34.3032 37.2028 33.9037 37.4703 33.3962C37.7377 32.8887 37.8216 32.3044 37.7077 31.7421C37.5937 31.1799 37.2891 30.6743 36.8452 30.3109C36.4013 29.9475 35.8455 29.7486 35.2718 29.748V28.714C36.0842 28.7141 36.8716 28.9951 37.5005 29.5094C38.1294 30.0238 38.5611 30.7397 38.7223 31.536C38.8836 32.3322 38.7646 33.1598 38.3854 33.8783C38.0063 34.5968 37.3903 35.1621 36.6419 35.4783Z" fill="#FF7A00" stroke="black" stroke-width="1.06068" stroke-miterlimit="10"/>
<path d="M43.9551 35.756C43.2587 35.756 42.578 35.5495 41.999 35.1626C41.4199 34.7757 40.9686 34.2258 40.7021 33.5824C40.4356 32.939 40.3659 32.2311 40.5018 31.5481C40.6376 30.8651 40.973 30.2377 41.4654 29.7453C41.9578 29.2528 42.5852 28.9175 43.2682 28.7816C43.9512 28.6458 44.6592 28.7155 45.3026 28.982C45.9459 29.2485 46.4958 29.6998 46.8827 30.2788C47.2696 30.8579 47.4761 31.5386 47.4761 32.235C47.4752 33.1685 47.1039 34.0635 46.4438 34.7237C45.7837 35.3838 44.8887 35.755 43.9551 35.756ZM43.9551 29.748C43.4632 29.748 42.9824 29.8939 42.5734 30.1671C42.1644 30.4404 41.8457 30.8288 41.6574 31.2833C41.4692 31.7377 41.42 32.2378 41.5159 32.7202C41.6119 33.2026 41.8487 33.6458 42.1966 33.9936C42.5444 34.3414 42.9875 34.5782 43.4699 34.6742C43.9524 34.7702 44.4524 34.7209 44.9069 34.5327C45.3613 34.3444 45.7497 34.0257 46.023 33.6167C46.2963 33.2077 46.4421 32.7269 46.4421 32.235C46.4415 31.5756 46.1792 30.9434 45.713 30.4771C45.2467 30.0109 44.6145 29.7487 43.9551 29.748Z" fill="black" stroke="black" stroke-width="1.06068" stroke-miterlimit="10"/>
<path d="M46.3927 31.7393C46.2771 31.1781 45.9719 30.6738 45.5283 30.3112C45.0847 29.9485 44.5298 29.7497 43.9568 29.748V28.714C44.7683 28.7161 45.5544 28.9975 46.1827 29.511C46.8111 30.0245 47.2435 30.7387 47.4072 31.5335L46.3927 31.7393Z" fill="#FF7A00" stroke="black" stroke-width="1.06068" stroke-miterlimit="10"/>
<path d="M27.9932 24.8154H44.5289" stroke="black" stroke-width="1.06068" stroke-miterlimit="10"/>
<path d="M27.9932 24.8155V24.4635" stroke="black" stroke-width="1.06068" stroke-miterlimit="10"/>
<path d="M31.2996 24.8155V24.4635" stroke="black" stroke-width="1.06068" stroke-miterlimit="10"/>
<path d="M34.6071 24.8155V24.4635" stroke="black" stroke-width="1.06068" stroke-miterlimit="10"/>
<path d="M37.9147 24.8155V24.4635" stroke="black" stroke-width="1.06068" stroke-miterlimit="10"/>
<path d="M41.2212 24.8155V24.4635" stroke="black" stroke-width="1.06068" stroke-miterlimit="10"/>
<path d="M44.5287 24.8155V24.4635" stroke="black" stroke-width="1.06068" stroke-miterlimit="10"/>
<path d="M30.8364 20.1155H28.4554V22.935H30.8364V20.1155Z" fill="#FF7A00" stroke="black" stroke-width="1.06068" stroke-miterlimit="10"/>
<path d="M34.144 16.8259H31.763V23.4051H34.144V16.8259Z" fill="#FF7A00" stroke="black" stroke-width="1.06068" stroke-miterlimit="10"/>
<path d="M37.4516 12.2209H35.0706V19.5528H37.4516V12.2209Z" fill="#FF7A00" stroke="black" stroke-width="1.06068" stroke-miterlimit="10"/>
<path d="M40.758 19.0828H38.377V20.4931H40.758V19.0828Z" fill="#FF7A00" stroke="black" stroke-width="1.06068" stroke-miterlimit="10"/>
<path d="M44.0644 18.2362H41.6834V21.9021H44.0644V18.2362Z" fill="#FF7A00" stroke="black" stroke-width="1.06068" stroke-miterlimit="10"/>
<path d="M30.8364 22.9362H28.4554V24.8166H30.8364V22.9362Z" fill="black" stroke="black" stroke-width="1.06068" stroke-miterlimit="10"/>
<path d="M34.144 23.4064H31.763V24.8167H34.144V23.4064Z" fill="black" stroke="black" stroke-width="1.06068" stroke-miterlimit="10"/>
<path d="M37.4516 19.5516H35.0706V24.8155H37.4516V19.5516Z" fill="black" stroke="black" stroke-width="1.06068" stroke-miterlimit="10"/>
<path d="M40.758 20.4918H38.377V24.8154H40.758V20.4918Z" fill="black" stroke="black" stroke-width="1.06068" stroke-miterlimit="10"/>
<path d="M44.0644 21.9022H41.6834V24.8155H44.0644V21.9022Z" fill="black" stroke="black" stroke-width="1.06068" stroke-miterlimit="10"/>
<path d="M48.9347 10.8897C48.906 10.8899 48.8778 10.883 48.8525 10.8696C48.8272 10.8562 48.8056 10.8367 48.7897 10.8129L43.6672 3.34223L38.4703 8.88376L33.1638 5.42487L28.0303 6.616L22.8164 10.8507C22.7802 10.8801 22.7338 10.8939 22.6875 10.8891C22.6411 10.8843 22.5985 10.8613 22.5691 10.8251C22.5397 10.7889 22.5259 10.7426 22.5307 10.6962C22.5355 10.6498 22.5585 10.6073 22.5947 10.5779L27.872 6.29203L33.2308 5.04853L38.4167 8.42948L43.711 2.7832L49.0796 10.6144C49.0978 10.6407 49.1085 10.6715 49.1105 10.7034C49.1124 10.7353 49.1057 10.7671 49.0909 10.7955C49.0761 10.8238 49.0538 10.8476 49.0265 10.8642C48.9992 10.8808 48.9678 10.8896 48.9359 10.8897H48.9347Z" fill="black"/>
<path d="M23.1464 10.7143C23.1464 10.8003 23.1209 10.8844 23.0731 10.9559C23.0254 11.0274 22.9575 11.0831 22.878 11.116C22.7986 11.1489 22.7111 11.1576 22.6268 11.1408C22.5425 11.124 22.465 11.0826 22.4042 11.0218C22.3434 10.961 22.302 10.8835 22.2852 10.7992C22.2684 10.7148 22.277 10.6274 22.3099 10.5479C22.3428 10.4685 22.3986 10.4006 22.4701 10.3528C22.5416 10.305 22.6256 10.2795 22.7116 10.2795C22.8269 10.2795 22.9375 10.3253 23.0191 10.4069C23.1006 10.4884 23.1464 10.599 23.1464 10.7143Z" fill="#FF7A00"/>
<path d="M27.9508 6.88888C28.191 6.88888 28.3856 6.69422 28.3856 6.45408C28.3856 6.21395 28.191 6.01929 27.9508 6.01929C27.7107 6.01929 27.516 6.21395 27.516 6.45408C27.516 6.69422 27.7107 6.88888 27.9508 6.88888Z" fill="#FF7A00"/>
<path d="M33.1971 5.67086C33.4372 5.67086 33.6319 5.4762 33.6319 5.23607C33.6319 4.99593 33.4372 4.80127 33.1971 4.80127C32.957 4.80127 32.7623 4.99593 32.7623 5.23607C32.7623 5.4762 32.957 5.67086 33.1971 5.67086Z" fill="#FF7A00"/>
<path d="M38.4422 9.09079C38.6823 9.09079 38.877 8.89612 38.877 8.65599C38.877 8.41586 38.6823 8.22119 38.4422 8.22119C38.2021 8.22119 38.0074 8.41586 38.0074 8.65599C38.0074 8.89612 38.2021 9.09079 38.4422 9.09079Z" fill="#FF7A00"/>
<path d="M44.1221 3.06334C44.1221 3.14933 44.0966 3.2334 44.0488 3.3049C44.001 3.3764 43.9331 3.43213 43.8537 3.46504C43.7742 3.49795 43.6868 3.50656 43.6024 3.48978C43.5181 3.473 43.4406 3.43159 43.3798 3.37079C43.319 3.30998 43.2776 3.2325 43.2608 3.14816C43.244 3.06382 43.2527 2.9764 43.2856 2.89695C43.3185 2.8175 43.3742 2.74959 43.4457 2.70182C43.5172 2.65404 43.6013 2.62854 43.6873 2.62854C43.8026 2.62854 43.9132 2.67435 43.9947 2.75589C44.0763 2.83743 44.1221 2.94802 44.1221 3.06334Z" fill="#FF7A00"/>
<path d="M49.3686 10.7143C49.3686 10.8003 49.3431 10.8844 49.2953 10.9559C49.2475 11.0274 49.1796 11.0831 49.1002 11.116C49.0207 11.1489 48.9333 11.1576 48.849 11.1408C48.7646 11.124 48.6871 11.0826 48.6263 11.0218C48.5655 10.961 48.5241 10.8835 48.5073 10.7992C48.4906 10.7148 48.4992 10.6274 48.5321 10.5479C48.565 10.4685 48.6207 10.4006 48.6922 10.3528C48.7637 10.305 48.8478 10.2795 48.9338 10.2795C49.0491 10.2795 49.1597 10.3253 49.2412 10.4069C49.3228 10.4884 49.3686 10.599 49.3686 10.7143Z" fill="#FF7A00"/>
<path d="M58.3107 52.1552C62.9533 52.1552 66.7168 51.6498 66.7168 51.0262C66.7168 50.4027 62.9533 49.8972 58.3107 49.8972C53.6682 49.8972 49.9046 50.4027 49.9046 51.0262C49.9046 51.6498 53.6682 52.1552 58.3107 52.1552Z" fill="#FF7A00"/>
<path opacity="0.7" d="M58.3107 52.1552C62.9533 52.1552 66.7168 51.6498 66.7168 51.0262C66.7168 50.4027 62.9533 49.8972 58.3107 49.8972C53.6682 49.8972 49.9046 50.4027 49.9046 51.0262C49.9046 51.6498 53.6682 52.1552 58.3107 52.1552Z" fill="white"/>
<path d="M12.256 52.1552C16.54 52.1552 20.0129 51.6498 20.0129 51.0262C20.0129 50.4027 16.54 49.8972 12.256 49.8972C7.97198 49.8972 4.49908 50.4027 4.49908 51.0262C4.49908 51.6498 7.97198 52.1552 12.256 52.1552Z" fill="#FF7A00"/>
<path opacity="0.7" d="M12.256 52.1552C16.54 52.1552 20.0129 51.6498 20.0129 51.0262C20.0129 50.4027 16.54 49.8972 12.256 49.8972C7.97198 49.8972 4.49908 50.4027 4.49908 51.0262C4.49908 51.6498 7.97198 52.1552 12.256 52.1552Z" fill="white"/>
<path d="M55.9377 11.2526C55.9377 11.2526 59.1311 10.9433 59.3138 11.4755C59.4965 12.0077 59.4356 13.2232 59.4356 13.2232C59.5965 13.265 59.7534 13.3208 59.9045 13.3901C59.9471 13.4315 60.4197 13.7408 59.9788 14.2487C59.8636 14.3775 59.7242 14.4822 59.5684 14.5568C59.3739 14.6429 59.189 14.749 59.0166 14.8735L58.376 15.6006L58.4978 16.5372C58.4978 16.5372 58.784 16.7442 59.1336 17.4664C59.1336 17.4664 59.9593 17.9536 60.444 18.2301C60.8427 18.4395 61.2572 18.6171 61.6839 18.7611C61.6839 18.7611 61.9055 18.8329 61.8897 18.9925C61.8739 19.152 60.7863 22.768 60.7863 22.768L60.2139 24.5949C60.203 24.8194 60.1737 25.0426 60.1262 25.2623C60.0446 25.6557 59.7376 25.9139 59.4198 25.8335L59.4514 27.1732C59.4514 27.1732 57.9583 27.9198 55.4956 27.7932C55.4956 27.7932 54.3362 27.6811 53.4788 27.0466L53.4629 23.9165L49.512 23.1517C49.512 23.1517 49.0114 23.0457 49.2684 22.5951C49.5254 22.1445 50.3889 21.0264 50.3889 21.0264L53.1645 17.6308C53.1645 17.6308 53.3557 17.4055 53.4264 17.3337C53.497 17.2618 53.67 17.2119 54.3557 17.1546C55.0414 17.0974 55.8099 16.9646 55.8099 16.9646C55.8099 16.9646 56.2264 16.6066 56.2861 16.6066C56.3457 16.6066 56.3579 16.0707 56.3579 16.0707C56.1473 15.9187 55.9721 15.7228 55.8445 15.4966C55.7168 15.2703 55.6398 15.0191 55.6186 14.7602C55.559 13.8906 55.9402 11.853 55.9402 11.853L55.9377 11.2526Z" fill="white"/>
<path d="M53.5268 27.0344C53.5268 27.0344 53.1906 32.0279 53.1906 34.4175C53.1906 36.807 53.3404 38.7423 53.4147 40.4206C53.489 42.0989 53.1906 43.2547 53.4512 44.4848C53.7119 45.7149 54.3099 49.2956 54.3099 49.2956L55.0126 49.7194C55.0126 49.7194 55.1344 46.8707 55.3902 45.8647C55.6459 44.8587 55.7263 40.6069 55.8773 39.3013C56.0284 37.9957 56.5119 33.3725 56.5119 33.3725C56.5119 33.3725 58.3765 38.2198 58.8259 40.1222C59.2753 42.0246 60.8026 46.3117 61.14 47.3554C61.4773 48.3992 61.9974 49.9459 61.9974 49.9459C62.1554 49.9921 62.3214 50.0046 62.4846 49.9825C62.555 49.9768 62.6229 49.9533 62.6817 49.914C62.7405 49.8748 62.7884 49.8212 62.8207 49.7584C62.8207 49.7584 62.325 46.6356 62.107 45.1181C61.8378 43.2413 61.3994 40.4206 61.1327 39.3768C60.8659 38.3331 60.4616 36.6913 60.4616 35.9082C60.4616 35.1251 59.4556 27.261 59.4556 27.261C59.4556 27.261 55.9504 28.787 53.5268 27.0344Z" fill="black"/>
<path d="M56.51 33.3725L55.0144 31.6284" stroke="white" stroke-width="0.530341" stroke-miterlimit="10" stroke-linecap="round"/>
<path d="M54.6317 31.7562L55.863 32.9023" stroke="white" stroke-width="0.530341" stroke-miterlimit="10" stroke-linecap="round"/>
<path d="M57.2642 31.8842C57.5795 31.0864 58.1654 30.425 58.9194 30.0159" stroke="white" stroke-width="0.530341" stroke-miterlimit="10" stroke-linecap="round"/>
<path d="M59.0033 27.6824C59.0033 27.6824 58.8341 28.3181 59.046 28.7006C59.2579 29.083 59.471 29.083 59.471 29.083C59.471 29.083 59.8522 31.162 59.8522 32.3507C59.8522 33.5393 59.5977 33.666 59.8522 34.9814C60.1068 36.2967 60.2773 36.7218 60.2773 37.4854C60.2773 38.249 60.6159 38.7594 60.913 39.2258C61.2102 39.6923 61.2955 41.0527 61.2955 41.602C61.2955 42.1513 61.4648 42.748 61.6353 43.2998C61.6353 43.2998 61.6755 44.5372 61.8898 44.827C62.1042 45.1169 62.1444 46.101 62.1444 46.101" stroke="white" stroke-width="0.530341" stroke-miterlimit="10" stroke-linecap="round"/>
<path d="M56.2024 33.1995C56.2024 33.1995 56.2864 34.1738 55.9892 35.8728C55.6921 37.5718 55.4802 38.037 55.4375 39.9894C55.3949 41.9417 55.5654 42.2815 55.4801 43.2997C55.3949 44.3178 54.8858 45.9267 54.8858 46.6575C54.8858 47.3882 54.9638 49.7242 54.9638 49.7242" stroke="white" stroke-width="0.530341" stroke-miterlimit="10" stroke-linecap="round"/>
<path d="M55.2688 27.9369L55.3541 28.2767L55.9058 28.4034L55.8205 27.9795" stroke="white" stroke-width="0.530341" stroke-miterlimit="10" stroke-linecap="round"/>
<path d="M55.9083 28.4034C55.9083 28.4034 56.9265 28.3608 57.4356 28.1915L57.3138 27.8517" stroke="white" stroke-width="0.530341" stroke-miterlimit="10" stroke-linecap="round"/>
<path d="M57.7726 27.7664L57.8943 28.1914C57.8943 28.1914 58.7091 28.1451 58.8309 28.0233" stroke="white" stroke-width="0.530341" stroke-miterlimit="10" stroke-linecap="round"/>
<path d="M55.3546 28.2767C55.0731 28.2678 54.7974 28.1949 54.5483 28.0635L54.1659 27.8516L54.2877 27.5544" stroke="white" stroke-width="0.530341" stroke-miterlimit="10" stroke-linecap="round"/>
<path d="M54.3098 49.2955C54.3098 49.2955 52.4829 50.4879 52.221 51.0469C51.9592 51.6059 53.0042 51.383 53.7495 51.0847C54.4949 50.7863 54.9674 49.7194 54.9674 49.7194L54.3098 49.2955Z" fill="white" stroke="black" stroke-width="1.06068" stroke-miterlimit="10" stroke-linecap="round"/>
<path d="M62.0566 49.9617C62.1487 50.4725 62.3301 50.9631 62.5925 51.411C62.9944 52.0358 63.7531 52.5717 63.7531 51.5888C63.7531 50.606 62.8166 49.762 62.8166 49.762C62.8166 49.762 62.3513 50.0141 62.0566 49.9617Z" fill="white" stroke="black" stroke-width="1.06068" stroke-miterlimit="10" stroke-linecap="round"/>
<path d="M55.926 11.9274C55.926 11.9274 55.5302 14.3827 55.6641 14.9917C55.9698 16.3545 57.0428 16.296 57.7139 16.0354C58.3411 15.7918 58.9671 14.9308 59.0475 14.8175C59.0532 14.8095 59.0613 14.8035 59.0706 14.8004C59.1705 14.7724 59.7904 14.5751 60.0633 14.0965C60.3616 13.574 59.8026 13.3511 59.8026 13.3511" fill="white"/>
<mask id="mask0_0_12994" style="mask-type:luminance" maskUnits="userSpaceOnUse" x="55" y="11" width="6" height="6">
<path d="M55.926 11.9274C55.926 11.9274 55.5302 14.3827 55.6641 14.9917C55.9698 16.3545 57.0428 16.296 57.7139 16.0354C58.3411 15.7918 58.9671 14.9308 59.0475 14.8175C59.0532 14.8095 59.0613 14.8035 59.0706 14.8004C59.1705 14.7724 59.7904 14.5751 60.0633 14.0965C60.3616 13.574 59.8026 13.3511 59.8026 13.3511" fill="white"/>
</mask>
<g mask="url(#mask0_0_12994)">
<g style="mix-blend-mode:multiply" opacity="0.5">
<path d="M58.4654 15.4496L59.0573 14.7992C59.0573 14.7992 59.7576 14.5836 60.0633 14.0904C60.2423 13.8017 60.1437 13.5496 60.0353 13.4814C59.8867 13.401 59.7334 13.3298 59.5761 13.2683L59.3776 13.7055L59.2083 13.7348C59.2083 13.7348 59.2789 13.2841 59.0743 13.0174C58.8697 12.7507 58.8234 11.9785 58.8234 11.9785C58.8234 11.9785 58.5372 13.518 58.5019 14.1622C58.4928 14.5208 58.3808 14.8692 58.1792 15.1658C58.1792 15.1658 58.2157 15.5592 58.2863 15.9526C58.2949 15.9989 58.3034 16.0683 58.3119 16.1548L58.4093 15.9989L58.4629 16.1475C58.402 15.8917 58.374 15.6201 58.4654 15.4496Z" fill="#FF7A00"/>
</g>
</g>
<path d="M55.926 11.9274C55.926 11.9274 55.5302 14.3827 55.6641 14.9917C55.9698 16.3545 57.0428 16.296 57.7139 16.0354C58.3411 15.7918 58.9671 14.9308 59.0475 14.8175C59.0532 14.8095 59.0613 14.8035 59.0706 14.8004C59.1705 14.7724 59.7904 14.5751 60.0633 14.0965C60.3616 13.574 59.8026 13.3511 59.8026 13.3511" stroke="black" stroke-width="1.06068" stroke-miterlimit="10" stroke-linecap="round"/>
<path d="M57.4412 13.1757C57.4181 13.2732 57.4412 13.3608 57.4863 13.3718C57.5313 13.3828 57.5922 13.3146 57.6154 13.2183C57.6385 13.1221 57.6154 13.0344 57.5703 13.0223C57.5252 13.0101 57.4643 13.0795 57.4412 13.1757Z" fill="black"/>
<path d="M56.395 12.9211C56.3719 13.0185 56.395 13.1062 56.4401 13.1172C56.4852 13.1282 56.546 13.06 56.5692 12.9637C56.5923 12.8675 56.5692 12.7786 56.5241 12.7677C56.4791 12.7567 56.4169 12.8237 56.395 12.9211Z" fill="black"/>
<path d="M58.0906 12.7494C58.0331 12.6482 57.9511 12.5629 57.8522 12.5014C57.7533 12.44 57.6406 12.4042 57.5243 12.3975" stroke="black" stroke-width="1.06068" stroke-miterlimit="10" stroke-linecap="round"/>
<path d="M56.7232 12.4157C56.6273 12.3738 56.521 12.3621 56.4183 12.3821C56.3156 12.4021 56.2214 12.4529 56.1483 12.5277" stroke="black" stroke-width="1.06068" stroke-miterlimit="10" stroke-linecap="round"/>
<path d="M56.7941 12.859C56.7964 13.0222 56.7842 13.1852 56.7576 13.3462C56.7174 13.5496 56.5591 13.5898 56.5993 13.7469C56.6394 13.904 56.8428 13.9198 56.8428 13.9198" stroke="black" stroke-width="1.06068" stroke-miterlimit="10" stroke-linecap="round"/>
<path d="M57.0538 14.5544C57.14 14.5819 57.2311 14.5903 57.3209 14.5792C57.4107 14.568 57.497 14.5376 57.5739 14.4899" stroke="black" stroke-width="1.06068" stroke-miterlimit="10" stroke-linecap="round"/>
<path d="M58.9839 10.2125C58.9839 10.2125 58.1643 9.50366 57.3812 9.50366C56.598 9.50366 55.9635 9.95186 55.4788 9.99083C54.994 10.0298 54.6591 9.58039 54.3607 10.1772C54.0623 10.774 55.1816 11.7812 55.927 11.9298C56.6723 12.0783 57.7161 11.8555 58.0145 11.8177C58.3003 11.7981 58.5872 11.7981 58.8731 11.8177C58.8731 11.8177 58.649 12.5265 58.8731 12.7506C59.0972 12.9747 59.1337 13.1233 59.1337 13.2719C59.1465 13.4359 59.1714 13.5987 59.208 13.7591L59.4321 13.8346L59.5442 13.4241C59.8465 13.1017 60.0532 12.7015 60.141 12.2683C60.2518 11.5973 59.6928 10.9286 59.6928 10.9286L58.9839 10.2125Z" fill="black"/>
<path d="M55.8433 11.6241C55.8433 11.6241 57.1185 11.8677 58.1172 11.4524C59.1159 11.0371 58.2548 10.2125 58.2548 10.2125" stroke="white" stroke-width="0.530341" stroke-miterlimit="10" stroke-linecap="round"/>
<path d="M58.4653 10.1431C58.5688 10.1431 59.4299 10.7971 59.2569 11.2794C59.084 11.7617 58.7405 11.797 58.7405 11.797" stroke="white" stroke-width="0.530341" stroke-miterlimit="10" stroke-linecap="round"/>
<path d="M58.324 24.9372L57.2473 24.3696C56.9706 24.3543 56.6954 24.3185 56.424 24.2625C56.1731 24.1906 53.5984 23.9446 53.5984 23.9446L53.5594 24.5535C53.5594 24.5535 56.4959 24.9481 57.1036 25.02C57.7113 25.0919 58.2497 25.3781 58.3568 25.5571C58.464 25.7361 58.6796 25.9152 58.5724 26.4096C58.4652 26.9041 57.7491 27.6276 57.7491 27.6276C57.715 27.5764 59.4712 27.4498 59.4542 27.2622C59.4164 26.8895 59.2179 25.8007 59.2179 25.8007L58.324 24.9372Z" fill="#FF7A00"/>
<path opacity="0.5" d="M58.324 24.9372L57.2473 24.3696C56.9706 24.3543 56.6954 24.3185 56.424 24.2625C56.1731 24.1906 53.5984 23.9446 53.5984 23.9446L53.5594 24.5535C53.5594 24.5535 56.4959 24.9481 57.1036 25.02C57.7113 25.0919 58.2497 25.3781 58.3568 25.5571C58.464 25.7361 58.6796 25.9152 58.5724 26.4096C58.4652 26.9041 57.7491 27.6276 57.7491 27.6276C57.7211 27.5728 59.4749 27.4485 59.4542 27.2622C59.3969 26.7872 59.2179 25.8007 59.2179 25.8007L58.324 24.9372Z" fill="white"/>
<path d="M61.8764 18.979C61.7814 18.5333 61.0726 18.5929 60.6451 18.3457C60.2176 18.0985 59.1836 17.526 59.1836 17.526L58.683 16.7734C58.5927 16.5704 58.5197 16.3602 58.465 16.1449L58.4114 15.9963L58.314 16.1522C58.3761 16.8197 58.4358 18.5284 58.4358 18.5284L58.6501 19.6026C58.6501 19.6026 59.4746 23.1467 59.689 23.9347C59.9033 24.7227 59.9034 25.2586 59.7609 25.5095C59.6184 25.7604 59.6659 25.8749 59.6659 25.8749C59.6659 25.8749 60.2249 25.4425 60.1908 25.0138C60.1457 24.5096 61.9434 19.2811 61.8764 18.979Z" fill="#FF7A00"/>
<path opacity="0.5" d="M61.8764 18.979C61.8277 18.526 61.0726 18.5929 60.6451 18.3457C60.2176 18.0985 59.1836 17.526 59.1836 17.526L58.683 16.7734C58.5927 16.5704 58.5197 16.3602 58.465 16.1449L58.4114 15.9963L58.314 16.1522C58.3761 16.8197 58.4358 18.5284 58.4358 18.5284L58.6501 19.6026C58.6501 19.6026 59.4746 23.1467 59.689 23.9347C59.9033 24.7227 59.9034 25.2586 59.7609 25.5095C59.6184 25.7604 59.6659 25.8749 59.6659 25.8749C59.6659 25.8749 60.2407 25.4413 60.1908 25.0138C60.1335 24.5547 61.9202 19.3554 61.8764 18.979Z" fill="white"/>
<path d="M58.7469 18.5321C58.7469 18.5321 58.5228 16.5189 58.4107 15.9964C58.2987 15.4739 58.3742 15.1767 57.8895 15.1767C57.4047 15.1767 56.8079 15.1012 56.9151 15.3631C57.0223 15.6249 57.7677 15.3996 57.8895 15.5117C58.0112 15.6237 57.926 15.8843 57.926 15.8843C57.926 15.8843 56.9517 15.9599 56.9517 16.2205C56.9517 16.4811 56.9894 17.1948 57.1757 17.2642C57.3621 17.3337 57.4364 16.9293 57.4364 16.9293C57.4364 16.9293 57.4741 17.7819 57.6605 18.0851C57.7792 18.2724 57.9167 18.4471 58.0709 18.6064L58.7469 18.5321Z" fill="white" stroke="black" stroke-width="1.06068" stroke-miterlimit="10" stroke-linecap="round"/>
<path d="M58.0755 19.0912C58.0755 19.0912 57.9634 23.7192 58.1498 24.461C58.3361 25.2027 59.3433 26.2135 59.8646 25.7288C60.3859 25.2441 60.1265 24.2003 60.1265 23.7156C60.1265 23.2309 58.9329 19.6514 58.9329 19.3895C58.9152 19.1721 58.8647 18.9586 58.7831 18.7562" stroke="black" stroke-width="1.06068" stroke-miterlimit="10" stroke-linecap="round"/>
<path d="M58.1508 19.6513L58.8962 19.5758" stroke="black" stroke-width="1.06068" stroke-miterlimit="10" stroke-linecap="round"/>
<path d="M53.3835 21.9653L53.5272 17.8476C53.5272 17.8476 53.3482 17.7404 53.2763 18.1338C53.2045 18.5272 53.1692 19.3164 53.1692 19.3164C53.1692 19.3164 52.3093 18.7793 52.5249 19.1008C52.7405 19.4223 53.0973 20.1397 53.0973 20.1397L51.7673 21.4636L52.3763 21.7145L53.3835 21.9653Z" fill="#FF7A00"/>
<path opacity="0.5" d="M53.3835 21.9653L53.5272 17.8476C53.5272 17.8476 53.3482 17.7404 53.2763 18.1338C53.2045 18.5272 53.1692 19.3164 53.1692 19.3164C53.1692 19.3164 52.3093 18.7793 52.5249 19.1008C52.7405 19.4223 53.0973 20.1397 53.0973 20.1397L51.7673 21.4636L52.3763 21.7145L53.3835 21.9653Z" fill="white"/>
<path d="M55.166 18.7671C55.166 18.7671 55.0978 19.0107 55.384 19.0107C55.6702 19.0107 56.1732 18.8073 56.1732 18.8073L56.1367 18.403C56.1367 18.403 55.4485 18.7379 55.166 18.7671Z" fill="#FF7A00"/>
<path opacity="0.5" d="M55.166 18.7671C55.166 18.7671 55.0978 19.0107 55.384 19.0107C55.6702 19.0107 56.1732 18.8073 56.1732 18.8073L56.1367 18.403C56.1367 18.403 55.4485 18.7379 55.166 18.7671Z" fill="white"/>
<path d="M56.3958 16.0439C56.3958 16.0439 56.0231 18.2362 56.2472 18.7234C56.4713 19.2105 56.8062 19.0961 57.0669 18.8732C57.3275 18.6503 57.6637 18.0901 57.6637 18.0901" stroke="black" stroke-width="1.06068" stroke-miterlimit="10" stroke-linecap="round"/>
<path d="M53.4519 23.9762L53.5274 27.0344C53.5274 27.0344 54.3799 27.854 56.0253 27.854C57.6708 27.854 59.4562 27.2573 59.4562 27.2573V26.1758" stroke="black" stroke-width="1.06068" stroke-miterlimit="10" stroke-linecap="round"/>
<path d="M58.4865 16.4811C58.4865 16.4811 59.1576 17.1522 59.1576 17.7867C59.1576 18.4212 59.0456 18.5698 59.0456 18.5698" stroke="black" stroke-width="1.06068" stroke-miterlimit="10" stroke-linecap="round"/>
<path d="M59.0823 17.4141C59.0823 17.4141 60.0896 18.0096 60.6486 18.3458C61.2076 18.6819 61.8799 18.6807 61.8799 18.9791C61.8799 19.2775 60.3137 24.3489 60.3137 24.3489" stroke="black" stroke-width="1.06068" stroke-miterlimit="10" stroke-linecap="round"/>
<path d="M59.7163 19.0912L59.3436 20.5831" stroke="black" stroke-width="1.06068" stroke-miterlimit="10" stroke-linecap="round"/>
<path d="M53.4613 19.9668L52.8585 18.7026" stroke="black" stroke-width="0.530341" stroke-miterlimit="10" stroke-linecap="round"/>
<path d="M53.4619 20.3285L52.5582 19.7865" stroke="black" stroke-width="0.530341" stroke-miterlimit="10" stroke-linecap="round"/>
<path d="M56.4101 23.1565L56.2299 24.0602" stroke="black" stroke-width="0.530341" stroke-miterlimit="10" stroke-linecap="round"/>
<path d="M61.2851 18.9437C61.2851 18.9437 60.3826 19.124 59.5398 20.147" stroke="black" stroke-width="0.530341" stroke-miterlimit="10" stroke-linecap="round"/>
<path d="M60.684 18.889C60.684 18.889 60.4404 18.8281 59.6013 19.5503" stroke="black" stroke-width="0.530341" stroke-miterlimit="10" stroke-linecap="round"/>
<path d="M56.4095 19.1849L56.049 22.0129L56.3498 22.0738L56.591 21.1714" stroke="black" stroke-width="0.530341" stroke-miterlimit="10" stroke-linecap="round"/>
<path d="M56.6511 26.5874C55.5672 27.4911 54.063 27.4302 54.063 27.4302" stroke="black" stroke-width="0.530341" stroke-miterlimit="10" stroke-linecap="round"/>
<path d="M52.0703 21.6756C52.0703 21.6756 51.3335 21.0009 50.2897 21.8595" stroke="black" stroke-width="0.530341" stroke-miterlimit="10" stroke-linecap="round"/>
<path d="M56.3236 16.5931C56.3236 16.5931 56.0253 16.6674 55.6891 17.1899C55.353 17.7124 54.9438 18.6064 55.2421 18.6807C55.5405 18.7549 56.0947 18.42 56.0947 18.42" stroke="black" stroke-width="1.06068" stroke-miterlimit="10" stroke-linecap="round"/>
<path d="M57.4794 18.5698L57.8521 18.9048" stroke="black" stroke-width="1.06068" stroke-miterlimit="10" stroke-linecap="round"/>
<path d="M55.801 16.9658C55.801 16.9658 54.4211 17.1522 53.862 17.1899C53.303 17.2277 53.4114 17.4335 53.2287 17.5626C52.934 17.7684 49.553 22.0543 49.3314 22.4647C49.1097 22.8752 49.145 23.0615 49.5177 23.1736C49.8904 23.2856 53.6026 23.9384 53.6026 23.9384L56.8825 24.2746L57.1431 23.4537C57.1431 23.4537 57.9055 23.5548 58.0395 23.5548" stroke="black" stroke-width="1.06068" stroke-miterlimit="10" stroke-linecap="round"/>
<path d="M56.77 23.1516C56.0461 22.9416 55.3464 22.6559 54.6825 22.2991" stroke="black" stroke-width="1.06068" stroke-miterlimit="10" stroke-linecap="round"/>
<path d="M54.385 22.2237C54.385 22.2237 53.2889 21.8169 52.6957 21.7426C52.1026 21.6683 51.194 21.6439 51.194 21.6439" stroke="black" stroke-width="1.06068" stroke-miterlimit="10" stroke-linecap="round"/>
<path d="M53.3774 21.7389L53.4895 18.7927" stroke="black" stroke-width="1.06068" stroke-miterlimit="10" stroke-linecap="round"/>
<path d="M56.8824 24.2745C57.1383 24.4032 57.4063 24.506 57.6826 24.5815" stroke="black" stroke-width="1.06068" stroke-miterlimit="10" stroke-linecap="round"/>
<path d="M8.08444 21.9009L8.52411 19.4979L11.3071 18.4018C11.3071 18.4018 11.4422 17.6552 11.5787 17.6223C11.7151 17.5895 11.849 17.2825 11.849 17.2825L11.782 16.6675C11.782 16.6675 12.0366 15.6932 13.3166 16.4519C13.3166 16.4519 12.9293 16.7101 12.9963 16.8173C13.0633 16.9245 12.922 17.2655 13.0913 17.2655C13.2606 17.2655 13.6028 17.4811 13.7758 17.6552C13.8968 17.7853 14.0038 17.9277 14.0949 18.0803L15.5357 18.1631C15.6834 18.1643 15.8303 18.1844 15.9729 18.2228C15.9973 17.5188 15.9108 16.9817 15.7403 16.564C15.1204 15.0562 13.9901 14.5179 13.8281 13.7627C13.6662 13.0076 13.7478 12.9285 13.7478 12.9285C13.9125 12.761 14.0331 12.5553 14.0987 12.3298C14.1644 12.1043 14.1731 11.866 14.1241 11.6363C13.9633 10.8288 13.3434 10.2624 11.1085 10.1553C8.87365 10.0481 9.19762 11.5815 9.19762 11.5815L9.22441 11.6886C9.22441 11.6886 7.79701 12.1758 8.06739 13.9771C8.33777 15.7784 9.11724 16.5615 9.09044 17.1266C9.06365 17.6918 8.22816 17.9073 7.04312 19.1971C5.85808 20.4869 5.61694 22.427 6.10167 23.6924C6.34525 24.3148 6.82146 24.8336 7.41946 25.2209L8.08444 21.9009Z" fill="black"/>
<path d="M9.95028 22.1384V22.6816L8.9187 25.8689C9.56331 26.0395 10.2393 26.0537 10.8905 25.9103C11.2581 25.8145 11.6094 25.6647 11.9331 25.4658L9.95028 22.1384Z" fill="black"/>
<path d="M12.9163 16.7978L13.0381 17.3459C13.0381 17.3459 13.4035 16.9805 14.1172 18.09C14.1172 18.09 15.6006 18.0547 16.0049 18.2569C16.0049 18.2569 16.089 18.2812 16.363 18.5723C16.637 18.8634 17.6674 19.7902 17.6674 19.7902C17.6674 19.7902 18.9901 21.0179 19.1216 21.1129C19.2531 21.2079 19.7464 21.6792 20.1154 21.8436L21.1044 19.5917L21.5452 18.4773L21.7888 17.5602H21.8668L21.8838 16.8209L21.8241 15.9392C21.8339 15.8943 21.8543 15.8525 21.8838 15.8174C21.9859 15.6758 22.0645 15.5187 22.1164 15.3521C22.1164 15.2693 22.0324 14.7797 22.0324 14.7797C22.0324 14.7797 21.991 14.6579 22.0811 14.6433C22.1713 14.6287 22.5037 14.7444 22.5452 14.977L22.6669 14.9356C22.7678 14.6946 22.8935 14.4648 23.0421 14.2499C23.2394 13.9941 23.4415 13.8334 23.567 13.9162C23.6014 13.9399 23.6262 13.9752 23.6369 14.0156C23.6477 14.056 23.6436 14.099 23.6255 14.1366L23.2333 14.8577C23.2333 14.8577 23.0603 15.0903 23.2747 15.1731C23.2747 15.1731 23.7387 15.4715 23.7692 15.7333C23.7996 15.9952 23.6315 16.2205 23.483 16.4129C23.3344 16.6054 23.0725 17.0219 23.0725 17.0219L22.768 17.2911L22.6462 17.7551L22.79 17.9341L22.5756 18.8634L22.4209 19.56L22.343 19.9827L21.8558 21.6512L21.3686 23.1054C21.3686 23.1054 21.1178 23.9385 20.51 23.9153C19.9023 23.8922 19.2361 23.5633 19.0205 23.4562C18.8049 23.349 17.028 22.4209 17.028 22.4209L16.6626 22.248C16.7114 22.4143 16.7324 22.5876 16.7247 22.7607C16.7186 23.0823 16.3727 23.7911 16.2717 23.9519L16.212 25.2087C16.1884 25.4268 16.1925 25.647 16.2242 25.864C16.2777 26.1916 16.5518 28.0453 16.6115 28.2767C16.6115 28.2767 16.0195 28.8126 14.256 29.0671C12.4925 29.3217 11.6667 28.9088 11.6667 28.9088L10.8811 28.4472L11.8494 26.5338C11.8494 26.5338 12.093 25.9651 12.0686 25.8153C12.0443 25.6655 11.6277 25.02 11.6277 25.02L10.0992 22.2991L10.0274 22.3235L9.78989 23.1176L8.93125 25.8104L7.80102 29.1719C7.80102 29.1719 7.49167 30.0244 7.36379 30.2765L7.00694 31.3641C7.02676 31.5584 7.07476 31.7488 7.14944 31.9292L6.25183 31.3483L6.41138 30.4957L6.6099 29.2242L6.85348 27.8419L7.06784 26.6983L7.41007 25.1734L7.53186 24.752L7.77545 23.5609L8.20416 21.4003L8.56953 19.5503L11.1272 18.5333L11.2867 18.4115C11.3222 18.1761 11.4086 17.9512 11.54 17.7526C11.6312 17.622 11.7398 17.5044 11.8628 17.4031C11.8628 17.4031 11.8506 17.2436 11.8421 17.0925C11.8336 16.9415 11.7946 16.6638 11.7946 16.6638C11.7946 16.6638 12.585 17.0036 12.9163 16.7978Z" fill="white"/>
<path d="M9.48969 11.903C9.48969 11.903 9.96346 10.8544 10.911 10.8544C11.8585 10.8544 13.8206 12.7154 13.8206 12.7154" stroke="white" stroke-width="0.530341" stroke-miterlimit="10" stroke-linecap="round"/>
<path d="M9.89514 12.0686C9.89514 12.0686 10.47 11.4597 11.1813 11.6959C11.8925 11.9322 11.9936 12.7787 11.9936 12.7787" stroke="white" stroke-width="0.530341" stroke-miterlimit="10" stroke-linecap="round"/>
<path d="M9.42187 12.1733C9.42187 12.1733 8.57663 12.6471 8.50843 13.5277C8.44022 14.4082 9.69224 15.4556 9.86154 16.6407C10.0308 17.8257 9.15149 18.0949 7.73018 19.0765C6.30886 20.0581 6.54636 22.2565 6.85084 22.7303" stroke="white" stroke-width="0.530341" stroke-miterlimit="10" stroke-linecap="round"/>
<path d="M7.0202 23.0018C7.0202 23.0018 7.22238 23.4415 7.52686 23.5767" stroke="white" stroke-width="0.530341" stroke-miterlimit="10" stroke-linecap="round"/>
<path d="M9.52405 14.474C9.48402 14.5599 9.46607 14.6545 9.47181 14.7492C9.47755 14.8438 9.50681 14.9355 9.55693 15.016C9.72623 15.3205 11.0184 16.8429 10.9113 17.5541C10.8041 18.2654 10.133 18.7038 10.133 18.7038" stroke="white" stroke-width="0.530341" stroke-miterlimit="10" stroke-linecap="round"/>
<path d="M10.1663 12.1733C10.1663 12.1733 9.3881 12.5119 9.4222 13.2902C9.4563 14.0684 9.62559 14.2718 9.62559 14.2718" stroke="white" stroke-width="0.530341" stroke-miterlimit="10" stroke-linecap="round"/>
<path d="M13.821 14.748C14.0628 15.2955 14.3946 15.7985 14.8026 16.2363C15.4116 16.8453 15.4786 17.7259 15.4786 17.7259" stroke="white" stroke-width="0.530341" stroke-miterlimit="10" stroke-linecap="round"/>
<path d="M14.5314 16.6736C14.5314 16.6736 14.8359 17.3848 14.8359 17.8245" stroke="white" stroke-width="0.530341" stroke-miterlimit="10" stroke-linecap="round"/>
<path d="M12.846 16.8623L11.89 17.7234C11.89 17.7234 11.7877 17.9841 11.5952 18.4018C11.4028 18.8195 11.4345 19.6197 11.4345 19.6197L12.0239 20.7926C12.0239 20.7926 10.8901 19.4918 10.8255 19.3311C10.761 19.1703 9.57471 19.4602 9.35062 19.5564C9.12652 19.6526 8.83665 19.845 8.9012 20.1337C8.96575 20.4223 9.2544 20.806 9.1253 20.8705C8.9962 20.9351 8.64422 20.7743 8.64422 20.9667C8.64422 21.1592 9.06197 21.8972 8.86954 22.153C8.67711 22.4088 7.45797 26.5472 7.45797 26.5472C7.45797 26.5472 8.22769 25.9054 8.03526 26.1624C7.84283 26.4194 6.91356 28.5032 6.91356 28.5032L6.56036 29.7211L7.39464 25.3927L8.09981 21.7389L8.52365 19.4979C8.93287 19.3615 11.3066 18.4018 11.3066 18.4018C11.3066 18.4018 11.4942 17.6126 11.8486 17.2825L11.7816 16.6675C11.7816 16.6675 12.4283 16.894 12.846 16.8623Z" fill="#FF7A00"/>
<path opacity="0.5" d="M12.846 16.8623L11.89 17.7234C11.89 17.7234 11.7877 17.9841 11.5952 18.4018C11.4028 18.8195 11.4345 19.6197 11.4345 19.6197L12.0239 20.7926C12.0239 20.7926 10.8901 19.4918 10.8255 19.3311C10.761 19.1703 9.57471 19.4602 9.35062 19.5564C9.12652 19.6526 8.83665 19.845 8.9012 20.1337C8.96575 20.4223 9.2544 20.806 9.1253 20.8705C8.9962 20.9351 8.64422 20.7743 8.64422 20.9667C8.64422 21.1592 9.06197 21.8972 8.86954 22.153C8.67711 22.4088 7.45797 26.5472 7.45797 26.5472C7.45797 26.5472 8.22769 25.9054 8.03526 26.1624C7.84283 26.4194 6.91356 28.5032 6.91356 28.5032L6.56036 29.7211L7.39464 25.3927L8.09981 21.7389L8.52365 19.4979C8.93287 19.3615 11.3066 18.4018 11.3066 18.4018C11.3066 18.4018 11.3577 17.671 11.8498 17.4153L11.7816 16.6675C11.7816 16.6675 12.4283 16.894 12.846 16.8623Z" fill="white"/>
<path d="M16.4051 21.1909C16.4051 21.1909 16.9824 20.2299 17.047 20.454C17.1115 20.6781 16.8862 21.4467 16.8862 21.4467C16.8862 21.4467 17.4952 21.2226 17.4318 21.415C17.3685 21.6074 17.2394 21.7036 17.2711 21.7998C17.3027 21.8961 19.3878 22.9861 19.6448 23.114C19.9018 23.2419 20.5107 22.505 20.7994 22.7291C21.088 22.9532 20.7994 23.7217 20.2221 23.7229C19.6448 23.7242 17.9775 22.9922 17.9775 22.9922L16.6645 22.2286" fill="#FF7A00"/>
<path opacity="0.5" d="M16.4051 21.1909C16.4051 21.1909 16.9824 20.2299 17.047 20.454C17.1115 20.6781 16.8862 21.4467 16.8862 21.4467C16.8862 21.4467 17.4952 21.2226 17.4318 21.415C17.3685 21.6074 17.2394 21.7036 17.2711 21.7998C17.3027 21.8961 19.3878 22.9861 19.6448 23.114C19.9018 23.2419 20.5107 22.505 20.7994 22.7291C21.088 22.9532 20.7994 23.7217 20.2221 23.7229C19.6448 23.7242 17.9775 22.9922 17.9775 22.9922L16.6694 22.231" fill="white"/>
<path d="M12.9427 25.0711C12.9427 25.0711 16.6914 23.0835 16.0825 23.8203C15.4735 24.5572 13.4554 25.3926 12.9427 25.0711Z" fill="#FF7A00"/>
<path opacity="0.5" d="M12.9427 25.0711C12.9427 25.0711 16.6914 23.0835 16.0825 23.8203C15.4735 24.5572 13.4554 25.3926 12.9427 25.0711Z" fill="white"/>
<path d="M11.7818 16.6736C11.7818 16.6736 11.8086 17.1851 11.8902 17.7234C11.9718 18.2618 11.9438 18.2618 12.4553 18.9072C12.9668 19.5527 13.5052 20.0923 13.5855 19.9851" stroke="black" stroke-width="1.06068" stroke-miterlimit="10" stroke-linecap="round"/>
<path d="M13.613 19.7963C13.613 19.7963 13.6666 18.8537 13.479 18.2349C13.2915 17.6162 13.0211 17.3995 13.0211 17.2606C13.012 17.1159 12.9941 16.972 12.9675 16.8295" stroke="black" stroke-width="1.06068" stroke-miterlimit="10" stroke-linecap="round"/>
<path d="M11.7815 17.4542C11.5664 17.6479 11.4159 17.903 11.3503 18.185C11.27 18.6149 11.1896 19.1264 11.1896 19.1264L12.0238 20.7962C12.0965 20.5054 12.2049 20.2248 12.3466 19.9607C12.4168 19.8304 12.5077 19.7123 12.6158 19.6112" stroke="black" stroke-width="1.06068" stroke-miterlimit="10" stroke-linecap="round"/>
<path d="M13.8018 19.3384C13.8607 19.3236 13.9219 19.3208 13.9819 19.33C14.042 19.3392 14.0995 19.3603 14.1513 19.392C14.3669 19.5004 14.798 20.0655 14.798 20.0655C14.798 20.0655 14.5021 18.6649 13.9906 17.939C13.479 17.2131 13.1283 17.2655 13.1283 17.2655" stroke="black" stroke-width="1.06068" stroke-miterlimit="10" stroke-linecap="round"/>
<path d="M11.1089 18.5042L8.5245 19.498C8.5245 19.498 7.58305 24.64 7.23228 26.0126C6.88152 27.3852 6.29083 31.2631 6.29083 31.2631L6.98992 31.397L7.2335 30.698" stroke="black" stroke-linecap="round" stroke-linejoin="round"/>
<path d="M7.36658 30.2961C7.36658 30.2961 7.52734 30.0525 7.95849 28.7128C8.38963 27.3731 9.54178 24.0847 9.73543 23.4355C9.92908 22.7864 10.085 22.3589 10.085 22.3589" stroke="black" stroke-width="1.06068" stroke-miterlimit="10" stroke-linecap="round"/>
<path d="M9.62799 21.5684C9.62799 21.5684 11.8081 25.4657 11.9968 25.6338C12.1856 25.8018 11.9165 26.2525 11.8617 26.4948" stroke="black" stroke-width="1.06068" stroke-miterlimit="10" stroke-linecap="round"/>
<path d="M11.6203 26.9845L10.9212 28.4387C10.9212 28.4387 11.3792 29.139 13.3169 29.139C14.47 29.1425 15.6067 28.8649 16.6284 28.3303C16.6284 28.3303 16.1705 25.9078 16.1973 25.4767C16.2241 25.0456 16.2789 23.9153 16.2789 23.9153C16.2789 23.9153 16.766 23.1846 16.7088 22.6231C16.6515 22.0617 16.4128 21.4113 16.4128 21.3041C16.4128 21.1969 16.3592 20.0387 16.3592 20.0387" stroke="black" stroke-width="1.06068" stroke-miterlimit="10" stroke-linecap="round"/>
<path d="M13.3127 24.5913L15.2419 23.4075" stroke="black" stroke-width="0.530341" stroke-miterlimit="10" stroke-linecap="round"/>
<path d="M14.3293 24.2198L15.3779 23.6108" stroke="black" stroke-width="0.530341" stroke-miterlimit="10" stroke-linecap="round"/>
<path d="M20.1014 21.8693L19.708 22.8326" stroke="black" stroke-width="0.530341" stroke-miterlimit="10" stroke-linecap="round"/>
<path d="M19.9447 22.2906L19.5732 22.6633" stroke="black" stroke-width="0.530341" stroke-miterlimit="10" stroke-linecap="round"/>
<path d="M8.94815 25.7094C8.94815 25.7094 8.30509 26.4535 7.86542 26.758" stroke="black" stroke-width="0.530341" stroke-miterlimit="10" stroke-linecap="round"/>
<path d="M8.57645 25.9115C8.57645 25.9115 7.45962 26.7908 7.18924 26.9942" stroke="black" stroke-width="0.530341" stroke-miterlimit="10" stroke-linecap="round"/>
<path d="M8.77448 19.6514C9.11114 20.1274 9.41628 20.625 9.68791 21.1409" stroke="black" stroke-width="0.530341" stroke-miterlimit="10" stroke-linecap="round"/>
<path d="M9.79465 21.3772L10.0309 21.7828" stroke="black" stroke-width="0.530341" stroke-miterlimit="10" stroke-linecap="round"/>
<path d="M16.4122 21.304L16.7082 19.7963" stroke="black" stroke-width="0.530341" stroke-miterlimit="10" stroke-linecap="round"/>
<path d="M16.521 21.4112L16.9777 20.7657" stroke="black" stroke-width="0.530341" stroke-miterlimit="10" stroke-linecap="round"/>
<path d="M10.0856 22.354L8.7934 21.6537" stroke="black" stroke-width="0.530341" stroke-miterlimit="10" stroke-linecap="round"/>
<path d="M13.5586 20.119C13.5586 20.119 14.0457 21.0934 14.2053 21.7888" stroke="black" stroke-width="0.530341" stroke-miterlimit="10" stroke-linecap="round"/>
<path d="M21.5544 18.4225C21.6833 18.413 21.8128 18.4297 21.935 18.4716C22.0572 18.5134 22.1697 18.5796 22.2657 18.6661" stroke="black" stroke-width="0.530341" stroke-miterlimit="10" stroke-linecap="round"/>
<path d="M6.75778 30.5944L7.09149 30.7186" stroke="black" stroke-width="0.530341" stroke-miterlimit="10" stroke-linecap="round"/>
<path d="M6.2818 31.3118C6.28599 31.7748 6.26158 32.2377 6.20873 32.6978C6.12834 33.2641 6.15514 34.5563 6.26231 34.9594C6.36949 35.3626 6.4243 35.4466 6.53147 35.203C6.63865 34.9594 6.96262 33.5345 6.96262 33.5345C6.96262 33.5345 7.01621 34.4759 7.25857 34.3955C7.50094 34.3152 7.36697 33.8572 7.36697 33.4529C7.36697 33.0485 7.39376 32.9146 7.36697 32.5918C7.34017 32.2691 6.98089 31.4713 6.98089 31.4713" fill="white"/>
<path d="M6.2818 31.3118C6.28599 31.7748 6.26158 32.2377 6.20873 32.6978C6.12834 33.2641 6.15514 34.5563 6.26231 34.9594C6.36949 35.3626 6.4243 35.4466 6.53147 35.203C6.63865 34.9594 6.96262 33.5345 6.96262 33.5345C6.96262 33.5345 7.01621 34.4759 7.25857 34.3955C7.50094 34.3152 7.36697 33.8572 7.36697 33.4529C7.36697 33.0485 7.39376 32.9146 7.36697 32.5918C7.34017 32.2691 6.98089 31.4713 6.98089 31.4713" stroke="black" stroke-miterlimit="10" stroke-linecap="round"/>
<path d="M21.869 17.5396C21.8568 17.3014 21.8568 17.0628 21.869 16.8247C21.8909 16.6006 21.802 16.2656 21.8239 15.9721C21.8459 15.6786 22.1369 15.5702 22.0919 15.1902C22.0468 14.8102 21.9579 14.7652 22.0249 14.6763C22.0919 14.5873 22.5121 14.7201 22.5389 14.9661C22.5627 15.2193 22.5627 15.4741 22.5389 15.7273C22.5169 15.7943 22.6728 16.2145 22.5839 16.3972C22.533 16.4961 22.4953 16.6014 22.4719 16.7102" stroke="black" stroke-width="0.880843" stroke-miterlimit="10" stroke-linecap="round"/>
<path d="M22.629 14.9465C22.629 14.9465 23.143 13.9186 23.434 13.8955C23.7251 13.8723 23.635 14.139 23.5449 14.2754C23.4547 14.4119 23.1649 14.9015 23.143 15.1036C23.121 15.3058 22.8519 15.9744 22.8519 15.9744" stroke="black" stroke-width="0.880843" stroke-miterlimit="10" stroke-linecap="round"/>
<path d="M23.1464 15.1036C23.1464 15.1036 23.9295 15.5725 23.7554 15.9562C23.5812 16.3398 23.4862 16.4933 23.3522 16.4433C23.2334 16.3827 23.1272 16.3 23.0392 16.1998" stroke="black" stroke-width="0.880843" stroke-miterlimit="10" stroke-linecap="round"/>
<path d="M23.4342 16.4446C23.4342 16.4446 23.232 16.7795 23.0761 16.9817C22.9864 17.0984 22.8802 17.2014 22.7606 17.2874L22.6656 17.6174" stroke="black" stroke-width="0.880843" stroke-miterlimit="10" stroke-linecap="round"/>
<path d="M14.0432 18.073C14.0432 18.073 15.9005 18.0462 16.1429 18.3421C16.3853 18.6381 19.3205 21.3309 19.6749 21.5733C20.0293 21.8157 20.106 21.8692 20.106 21.8692C20.106 21.8692 21.559 18.5809 21.559 18.4225C21.559 18.2642 21.8026 17.5347 21.8026 17.5347C21.8026 17.5347 22.2605 17.5883 22.3689 17.5883C22.4773 17.5883 22.772 17.939 22.772 17.939C22.772 17.939 22.3689 19.5808 22.3689 19.7659C22.3689 19.951 21.615 22.5123 21.2643 23.2979C20.9135 24.0834 20.43 23.9702 19.6493 23.7278C18.8686 23.4854 16.7421 22.2748 16.7421 22.2748" stroke="black" stroke-width="1.06068" stroke-miterlimit="10" stroke-linecap="round"/>
<path d="M10.9211 28.4387C10.9211 28.4387 9.84326 31.1352 9.55218 32.9706C9.2611 34.806 9.38532 39.098 9.30129 39.5571C9.21725 40.0163 8.05048 42.1829 8.05048 43.2255C8.05048 44.268 7.42569 49.6451 7.42569 49.6451L7.84222 49.8948C7.84222 49.8948 9.30372 45.3885 9.84326 44.2254C10.3828 43.0623 11.1355 40.3073 11.3437 39.7654C11.552 39.2234 13.0123 34.8876 13.0951 34.3456C13.1779 33.8037 13.6785 32.47 13.6785 32.47C13.6785 32.47 14.7624 39.098 14.9707 40.4742C15.179 41.8505 16.638 49.3114 16.638 49.3114C16.7339 49.3349 16.8318 49.3487 16.9303 49.3528C17.0521 49.3528 17.0972 49.1446 17.0972 49.1446C17.0972 49.1446 17.6806 43.8503 17.5137 42.4326C17.3469 41.015 16.8475 39.266 16.8475 38.7642C16.8475 38.2625 17.5978 33.9291 17.5978 32.4311C17.5978 30.933 16.6234 28.3328 16.6234 28.3328C16.6234 28.3328 13.1657 30.0768 10.9211 28.4387Z" fill="black"/>
<path d="M16.8317 39.0394C16.8317 39.0394 16.4602 40.63 15.9524 41.4753" stroke="white" stroke-width="0.530341" stroke-miterlimit="10" stroke-linecap="round"/>
<path d="M16.731 40.6642C16.731 40.6642 16.4266 41.8139 15.8176 42.3559" stroke="white" stroke-width="0.530341" stroke-miterlimit="10" stroke-linecap="round"/>
<path d="M9.52396 40.1562C9.52396 40.1562 9.76023 41.5435 10.0306 42.1183" stroke="white" stroke-width="0.530341" stroke-miterlimit="10" stroke-linecap="round"/>
<path d="M9.45538 40.9686C9.45538 40.9686 9.65878 41.9503 10.0302 42.5251" stroke="white" stroke-width="0.530341" stroke-miterlimit="10" stroke-linecap="round"/>
<path d="M13.7867 32.4761L15.1398 31.3593" stroke="white" stroke-width="0.530341" stroke-miterlimit="10" stroke-linecap="round"/>
<path d="M14.4298 32.0023L16.0204 31.291" stroke="white" stroke-width="0.530341" stroke-miterlimit="10" stroke-linecap="round"/>
<path d="M10.9437 30.1072C10.9437 30.1072 11.9935 30.7831 12.6025 31.3592" stroke="white" stroke-width="0.530341" stroke-miterlimit="10" stroke-linecap="round"/>
<path d="M7.46986 49.6415C7.46986 49.6415 5.88657 50.9812 5.88657 51.6462C5.88657 52.3112 6.51136 52.271 7.17878 51.6462C7.8462 51.0214 7.8803 49.734 7.8803 49.734L7.46986 49.6415Z" fill="white" stroke="black" stroke-width="1.06068" stroke-miterlimit="10" stroke-linecap="round"/>
<path d="M16.638 49.3114C16.638 49.3114 17.18 50.645 17.7646 51.2296C18.3492 51.8142 18.6817 52.0213 18.6817 51.3952C18.6817 50.7692 18.3066 50.0616 17.0984 49.1445C17.0972 49.1445 17.4309 49.3942 16.638 49.3114Z" fill="white" stroke="black" stroke-width="1.06068" stroke-miterlimit="10" stroke-linecap="round"/>
<path d="M11.0451 12.3974C10.9367 12.3573 10.8344 12.3085 10.7284 12.2635C10.6225 12.2184 10.4288 12.1941 10.3557 12.5265C10.2473 13.0137 11.0012 13.4156 10.7589 13.8188C10.6081 14.064 10.3815 14.2534 10.1134 14.3583C10.0697 14.3733 10.0243 14.3823 9.97819 14.3851C9.76262 14.4119 9.41307 14.3851 9.52025 14.7614C9.62743 15.1378 9.97819 15.4617 10.1938 15.4617H10.4093C10.4093 15.4617 10.6529 16.1925 11.5664 16.592C12.4798 16.9914 13.1009 16.9695 13.3165 16.458C13.5321 15.9465 13.6941 15.5153 13.6941 14.8418C13.6941 14.1683 13.4505 13.0381 13.4505 13.0381C13.4505 13.0381 13.2349 13.3352 12.4006 12.9577C11.8489 12.708 11.3325 12.5058 11.0451 12.3974Z" fill="white"/>
<mask id="mask1_0_12994" style="mask-type:luminance" maskUnits="userSpaceOnUse" x="9" y="12" width="5" height="5">
<path d="M11.0445 12.3974C10.9361 12.3573 10.8338 12.3085 10.7278 12.2635C10.6219 12.2184 10.4282 12.1941 10.3551 12.5265C10.2467 13.0137 11.0006 13.4156 10.7583 13.8188C10.6075 14.064 10.3809 14.2534 10.1128 14.3583C10.0691 14.3733 10.0236 14.3823 9.97758 14.3851C9.76201 14.4119 9.41246 14.3851 9.51964 14.7614C9.62682 15.1378 9.97758 15.4617 10.1932 15.4617H10.4087C10.4087 15.4617 10.6523 16.1925 11.5657 16.592C12.4792 16.9914 13.1003 16.9695 13.3159 16.458C13.5315 15.9465 13.6935 15.5153 13.6935 14.8418C13.6935 14.1683 13.4499 13.0381 13.4499 13.0381C13.4499 13.0381 13.2343 13.3352 12.4 12.9577C11.8483 12.708 11.3319 12.5058 11.0445 12.3974Z" fill="white"/>
</mask>
<g mask="url(#mask1_0_12994)">
<g style="mix-blend-mode:multiply" opacity="0.5">
<path d="M12.4014 12.9577C12.4014 12.9577 11.1141 12.8858 10.9217 12.9175C10.7292 12.9491 10.9533 13.5264 10.89 14.1037C10.8267 14.681 10.8571 15.6115 11.1141 15.9002C11.4173 16.1978 11.7387 16.4764 12.0762 16.7344C12.0762 16.7344 11.0885 16.5749 10.7292 16.1571C10.3699 15.7394 10.3127 15.5153 10.3127 15.5153C10.3127 15.5153 9.47842 15.0281 9.41387 14.6493C9.34932 14.2706 9.90104 14.4715 10.1653 14.284C10.3139 14.1817 10.929 13.9892 10.7743 13.4765C10.6196 12.9637 10.3699 12.8675 10.3602 12.5241C10.3529 12.2805 10.5672 12.2099 10.6988 12.1879C10.7581 12.1779 10.819 12.1869 10.8729 12.2135L12.4014 12.9577Z" fill="#FF7A00"/>
</g>
</g>
<path d="M11.0451 12.3974C10.9367 12.3573 10.8344 12.3085 10.7284 12.2635C10.6225 12.2184 10.4288 12.1941 10.3557 12.5265C10.2473 13.0137 11.0012 13.4156 10.7589 13.8188C10.6081 14.064 10.3815 14.2534 10.1134 14.3583C10.0697 14.3733 10.0243 14.3823 9.97819 14.3851C9.76262 14.4119 9.41307 14.3851 9.52025 14.7614C9.62743 15.1378 9.97819 15.4617 10.1938 15.4617H10.4093C10.4093 15.4617 10.6529 16.1925 11.5664 16.592C12.4798 16.9914 13.1009 16.9695 13.3165 16.458C13.5321 15.9465 13.6941 15.5153 13.6941 14.8418C13.6941 14.1683 13.4505 13.0381 13.4505 13.0381C13.4505 13.0381 13.2349 13.3352 12.4006 12.9577C11.8489 12.708 11.3325 12.5058 11.0451 12.3974Z" stroke="black" stroke-width="1.06068" stroke-miterlimit="10" stroke-linecap="round"/>
<path d="M11.9962 13.9929C12.0132 14.0952 11.9852 14.1853 11.9329 14.1938C11.8805 14.2024 11.8269 14.1256 11.8111 14.0233C11.7952 13.921 11.8232 13.8297 11.8744 13.8212C11.9255 13.8126 11.9791 13.8955 11.9962 13.9929Z" fill="black"/>
<path d="M13.111 13.8067C13.1269 13.909 13.0989 13.9991 13.0477 14.0076C12.9966 14.0161 12.9418 13.9394 12.9259 13.8371C12.9101 13.7348 12.9369 13.6447 12.988 13.6361C13.0392 13.6276 13.094 13.7043 13.111 13.8067Z" fill="black"/>
<path d="M11.3503 13.496C11.4185 13.3947 11.5109 13.3121 11.6192 13.2557C11.7275 13.1993 11.8482 13.171 11.9703 13.1732" stroke="black" stroke-width="1.06068" stroke-miterlimit="10" stroke-linecap="round"/>
<path d="M12.8055 13.2537C12.909 13.2175 13.021 13.2136 13.1267 13.2426C13.2324 13.2715 13.3268 13.3319 13.3975 13.4157" stroke="black" stroke-width="1.06068" stroke-miterlimit="10" stroke-linecap="round"/>
<path d="M12.6984 13.7115C12.6835 13.8817 12.6835 14.0529 12.6984 14.2231C12.7252 14.4386 12.8859 14.4922 12.8324 14.6542C12.7788 14.8162 12.5632 14.815 12.5632 14.815" stroke="black" stroke-width="1.06068" stroke-miterlimit="10" stroke-linecap="round"/>
<path d="M12.2941 15.4618C12.2019 15.4836 12.106 15.4852 12.0131 15.4665C11.9202 15.4478 11.8324 15.4092 11.7558 15.3534" stroke="black" stroke-width="1.06068" stroke-miterlimit="10" stroke-linecap="round"/>
</svg>
