<svg width="16" height="16" viewBox="0 0 16 16" fill="none" xmlns="http://www.w3.org/2000/svg">
<path d="M3.99999 14.6667C3.63332 14.6667 3.31932 14.536 3.05799 14.2747C2.79666 14.0134 2.66621 13.6996 2.66666 13.3334V2.66671C2.66666 2.30004 2.79732 1.98604 3.05866 1.72471C3.31999 1.46338 3.63377 1.33293 3.99999 1.33338H12C12.3667 1.33338 12.6807 1.46404 12.942 1.72538C13.2033 1.98671 13.3338 2.30049 13.3333 2.66671V13.3334C13.3333 13.7 13.2027 14.014 12.9413 14.2754C12.68 14.5367 12.3662 14.6672 12 14.6667H3.99999ZM3.99999 13.3334H12V2.66671H10.6667V7.33338L8.99999 6.33338L7.33332 7.33338V2.66671H3.99999V13.3334Z" fill="black"/>
</svg>
