<svg width="147" height="110" viewBox="0 0 147 110" fill="none" xmlns="http://www.w3.org/2000/svg">
<path d="M138.187 68.7969C138.101 65.6092 138.348 60.1729 135.553 57.9345C133.098 55.9693 131.189 58.6364 130.5 60.7879C128.831 66.0073 129.614 71.7627 129.619 77.1505C129.619 77.2321 129.619 77.3138 129.619 77.4057C129.489 81.3719 129.012 85.6623 129.446 89.6208C129.446 89.6208 129.02 85.6546 125.906 87.3544C122.792 89.0542 127.463 97.9743 127.463 97.9743C127.463 97.9743 123.782 95.2843 122.083 97.5507C120.383 99.8171 124.206 102.364 124.206 102.364C124.206 102.364 120.666 101.374 120.666 102.364C120.666 103.355 121.799 104.204 125.056 104.631H142.61C142.61 104.631 145.443 103.071 144.877 101.374C144.31 99.6767 141.334 100.654 141.334 100.654C141.334 100.654 145.867 95.1311 145.584 92.7243C145.301 90.3176 139.494 93.1506 139.494 93.1506C139.494 93.1506 144.024 81.6807 143.174 76.5839C142.506 72.5692 139.389 75.3077 137.692 76.8595C138.092 74.1915 138.257 71.4938 138.187 68.7969Z" fill="#1A377D" stroke="white" stroke-linecap="round" stroke-linejoin="round"/>
<path opacity="0.5" d="M138.187 68.7969C138.101 65.6092 138.348 60.1729 135.553 57.9345C133.098 55.9693 131.189 58.6364 130.5 60.7879C128.831 66.0073 129.614 71.7627 129.619 77.1505C129.619 77.2321 129.619 77.3138 129.619 77.4057C129.489 81.3719 129.012 85.6623 129.446 89.6208C129.446 89.6208 129.02 85.6546 125.906 87.3544C122.792 89.0542 127.463 97.9743 127.463 97.9743C127.463 97.9743 123.782 95.2843 122.083 97.5507C120.383 99.8171 124.206 102.364 124.206 102.364C124.206 102.364 120.666 101.374 120.666 102.364C120.666 103.355 121.799 104.204 125.056 104.631H142.61C142.61 104.631 145.443 103.071 144.877 101.374C144.31 99.6767 141.334 100.654 141.334 100.654C141.334 100.654 145.867 95.1311 145.584 92.7243C145.301 90.3176 139.494 93.1506 139.494 93.1506C139.494 93.1506 144.024 81.6807 143.174 76.5839C142.506 72.5692 139.389 75.3077 137.692 76.8595C138.092 74.1915 138.257 71.4938 138.187 68.7969Z" fill="white"/>
<path d="M132.555 104.478L133.831 65.5378" stroke="white" stroke-linecap="round" stroke-linejoin="round"/>
<path d="M133.263 88.1939L139.916 81.9639" stroke="white" stroke-linecap="round" stroke-linejoin="round"/>
<path d="M136.376 85.3611L137.792 81.3975" stroke="white" stroke-linecap="round" stroke-linejoin="round"/>
<path d="M127.741 93.0078L132.838 98.5309" stroke="white" stroke-linecap="round" stroke-linejoin="round"/>
<path d="M141.333 96.1238L132.837 100.514" stroke="white" stroke-linecap="round" stroke-linejoin="round"/>
<path d="M136.803 98.6711L139.916 98.5308" stroke="white" stroke-linecap="round" stroke-linejoin="round"/>
<path d="M132.555 104.478L133.831 65.5378" stroke="#1A377D" stroke-linecap="round" stroke-linejoin="round"/>
<path d="M133.263 88.1939L139.916 81.9639" stroke="#1A377D" stroke-linecap="round" stroke-linejoin="round"/>
<path d="M136.376 85.3611L137.792 81.3975" stroke="#1A377D" stroke-linecap="round" stroke-linejoin="round"/>
<path d="M127.741 93.0078L132.838 98.5309" stroke="#1A377D" stroke-linecap="round" stroke-linejoin="round"/>
<path d="M141.333 96.1238L132.837 100.514" stroke="#1A377D" stroke-linecap="round" stroke-linejoin="round"/>
<path d="M136.803 98.6711L139.916 98.5308" stroke="#1A377D" stroke-linecap="round" stroke-linejoin="round"/>
<g opacity="0.8">
<path d="M132.555 104.478L133.831 65.5378" stroke="white" stroke-linecap="round" stroke-linejoin="round"/>
<path d="M133.266 88.1947L139.92 81.9646" stroke="white" stroke-linecap="round" stroke-linejoin="round"/>
<path d="M136.378 85.3614L137.794 81.3977" stroke="white" stroke-linecap="round" stroke-linejoin="round"/>
<path d="M127.742 93.0078L132.839 98.5309" stroke="white" stroke-linecap="round" stroke-linejoin="round"/>
<path d="M141.334 96.1238L132.838 100.514" stroke="white" stroke-linecap="round" stroke-linejoin="round"/>
<path d="M136.806 98.6716L139.919 98.5312" stroke="white" stroke-linecap="round" stroke-linejoin="round"/>
</g>
<path d="M108.229 96.6087C108.229 100.567 111.366 103.778 111.366 103.778C111.366 103.778 114.503 100.567 114.503 96.6087C114.503 92.6502 111.366 89.4395 111.366 89.4395C111.366 89.4395 108.229 92.6476 108.229 96.6087Z" fill="#1A377D"/>
<path d="M106.056 102.717C107.587 104.434 110.175 104.621 110.175 104.621C110.175 104.621 110.3 102.02 108.779 100.302C107.258 98.5845 104.66 98.3982 104.66 98.3982C104.66 98.3982 104.532 100.999 106.056 102.717Z" fill="#1A377D"/>
<path d="M114.049 100.243C112.449 101.889 112.459 104.493 112.459 104.493C112.459 104.493 115.06 104.424 116.657 102.775C118.255 101.126 118.25 98.5254 118.25 98.5254C118.25 98.5254 115.647 98.5943 114.049 100.243Z" fill="#1A377D"/>
<g opacity="0.5">
<path d="M108.229 96.6087C108.229 100.567 111.366 103.778 111.366 103.778C111.366 103.778 114.503 100.567 114.503 96.6087C114.503 92.6502 111.366 89.4395 111.366 89.4395C111.366 89.4395 108.229 92.6476 108.229 96.6087Z" fill="white"/>
<path d="M111.368 103.778V89.4395" stroke="white" stroke-linecap="round" stroke-linejoin="round"/>
<path d="M111.368 94.5364L109.612 93.0024" stroke="white" stroke-linecap="round" stroke-linejoin="round"/>
<path d="M111.396 96.9051L113.57 93.7556" stroke="white" stroke-linecap="round" stroke-linejoin="round"/>
<path d="M111.368 98.2704L108.775 95.958" stroke="white" stroke-linecap="round" stroke-linejoin="round"/>
<path d="M111.396 100.111L113.961 97.8267" stroke="white" stroke-linecap="round" stroke-linejoin="round"/>
<path d="M111.395 101.7L109.387 100.11" stroke="white" stroke-linecap="round" stroke-linejoin="round"/>
<path d="M106.056 102.717C107.587 104.434 110.175 104.621 110.175 104.621C110.175 104.621 110.3 102.02 108.779 100.302C107.258 98.5845 104.66 98.3982 104.66 98.3982C104.66 98.3982 104.532 100.999 106.056 102.717Z" fill="white"/>
<path d="M110.176 104.621L104.66 98.3982" stroke="white" stroke-linecap="round" stroke-linejoin="round"/>
<path d="M106.619 100.611L105.267 100.621" stroke="white" stroke-linecap="round" stroke-linejoin="round"/>
<path d="M107.543 101.626L107.275 99.4238" stroke="white" stroke-linecap="round" stroke-linejoin="round"/>
<path d="M108.056 102.232L106.042 102.224" stroke="white" stroke-linecap="round" stroke-linejoin="round"/>
<path d="M108.777 103.018L109.009 101.04" stroke="white" stroke-linecap="round" stroke-linejoin="round"/>
<path d="M109.39 103.707L107.907 103.791" stroke="white" stroke-linecap="round" stroke-linejoin="round"/>
<path d="M114.051 100.243C112.45 101.889 112.461 104.493 112.461 104.493C112.461 104.493 115.061 104.424 116.659 102.775C118.257 101.126 118.252 98.5254 118.252 98.5254C118.252 98.5254 115.648 98.5943 114.051 100.243Z" fill="white"/>
<path d="M112.461 104.493L118.252 98.5254" stroke="white" stroke-linecap="round" stroke-linejoin="round"/>
<path d="M116.193 100.647L116.083 99.2991" stroke="white" stroke-linecap="round" stroke-linejoin="round"/>
<path d="M115.248 101.644L117.425 101.21" stroke="white" stroke-linecap="round" stroke-linejoin="round"/>
<path d="M114.682 102.201L114.539 100.192" stroke="white" stroke-linecap="round" stroke-linejoin="round"/>
<path d="M113.949 102.977L115.94 103.063" stroke="white" stroke-linecap="round" stroke-linejoin="round"/>
<path d="M113.308 103.638L113.114 102.168" stroke="white" stroke-linecap="round" stroke-linejoin="round"/>
</g>
<path d="M111.366 103.778V89.4395" stroke="#1A377D" stroke-linecap="round" stroke-linejoin="round"/>
<path d="M111.368 94.5364L109.612 93.0024" stroke="#1A377D" stroke-linecap="round" stroke-linejoin="round"/>
<path d="M111.396 96.9051L113.57 93.7556" stroke="#1A377D" stroke-linecap="round" stroke-linejoin="round"/>
<path d="M111.368 98.2704L108.775 95.958" stroke="#1A377D" stroke-linecap="round" stroke-linejoin="round"/>
<path d="M111.396 100.111L113.961 97.8264" stroke="#1A377D" stroke-linecap="round" stroke-linejoin="round"/>
<path d="M111.396 101.701L109.387 100.111" stroke="#1A377D" stroke-linecap="round" stroke-linejoin="round"/>
<g opacity="0.7">
<path d="M111.369 103.778V89.4395" stroke="white" stroke-linecap="round" stroke-linejoin="round"/>
<path d="M111.368 94.5364L109.612 93.0024" stroke="white" stroke-linecap="round" stroke-linejoin="round"/>
<path d="M111.396 96.9051L113.57 93.7556" stroke="white" stroke-linecap="round" stroke-linejoin="round"/>
<path d="M111.368 98.2704L108.775 95.958" stroke="white" stroke-linecap="round" stroke-linejoin="round"/>
<path d="M111.396 100.111L113.961 97.8264" stroke="white" stroke-linecap="round" stroke-linejoin="round"/>
<path d="M111.396 101.701L109.387 100.111" stroke="white" stroke-linecap="round" stroke-linejoin="round"/>
</g>
<path d="M110.176 104.621L104.661 98.3982" stroke="#1A377D" stroke-linecap="round" stroke-linejoin="round"/>
<path d="M106.62 100.611L105.268 100.621" stroke="#1A377D" stroke-linecap="round" stroke-linejoin="round"/>
<path d="M107.544 101.626L107.276 99.4238" stroke="#1A377D" stroke-linecap="round" stroke-linejoin="round"/>
<path d="M108.056 102.232L106.042 102.224" stroke="#1A377D" stroke-linecap="round" stroke-linejoin="round"/>
<path d="M108.777 103.018L109.01 101.04" stroke="#1A377D" stroke-linecap="round" stroke-linejoin="round"/>
<path d="M109.388 103.707L107.906 103.791" stroke="#1A377D" stroke-linecap="round" stroke-linejoin="round"/>
<g opacity="0.7">
<path d="M110.176 104.621L104.661 98.3982" stroke="white" stroke-linecap="round" stroke-linejoin="round"/>
<path d="M106.62 100.611L105.267 100.621" stroke="white" stroke-linecap="round" stroke-linejoin="round"/>
<path d="M107.545 101.626L107.277 99.4238" stroke="white" stroke-linecap="round" stroke-linejoin="round"/>
<path d="M108.057 102.232L106.043 102.224" stroke="white" stroke-linecap="round" stroke-linejoin="round"/>
<path d="M108.778 103.018L109.01 101.04" stroke="white" stroke-linecap="round" stroke-linejoin="round"/>
<path d="M109.392 103.707L107.909 103.791" stroke="white" stroke-linecap="round" stroke-linejoin="round"/>
</g>
<path d="M112.459 104.493L118.25 98.5254" stroke="#1A377D" stroke-linecap="round" stroke-linejoin="round"/>
<path d="M116.19 100.647L116.08 99.2991" stroke="#1A377D" stroke-linecap="round" stroke-linejoin="round"/>
<path d="M115.245 101.645L117.422 101.211" stroke="#1A377D" stroke-linecap="round" stroke-linejoin="round"/>
<path d="M114.682 102.201L114.539 100.192" stroke="#1A377D" stroke-linecap="round" stroke-linejoin="round"/>
<path d="M113.95 102.977L115.941 103.064" stroke="#1A377D" stroke-linecap="round" stroke-linejoin="round"/>
<path d="M113.309 103.638L113.115 102.168" stroke="#1A377D" stroke-linecap="round" stroke-linejoin="round"/>
<g opacity="0.7">
<path d="M112.459 104.493L118.25 98.5254" stroke="white" stroke-linecap="round" stroke-linejoin="round"/>
<path d="M116.19 100.647L116.08 99.2991" stroke="white" stroke-linecap="round" stroke-linejoin="round"/>
<path d="M115.245 101.644L117.422 101.21" stroke="white" stroke-linecap="round" stroke-linejoin="round"/>
<path d="M114.682 102.201L114.539 100.192" stroke="white" stroke-linecap="round" stroke-linejoin="round"/>
<path d="M113.95 102.977L115.941 103.063" stroke="white" stroke-linecap="round" stroke-linejoin="round"/>
<path d="M113.309 103.638L113.115 102.168" stroke="white" stroke-linecap="round" stroke-linejoin="round"/>
</g>
<path d="M8.4092 68.7969C8.49342 65.6092 8.24841 60.1729 11.0431 57.9345C13.4984 55.9693 15.4075 58.6364 16.094 60.7879C17.7658 66.0073 16.9797 71.7627 16.9771 77.1505C16.9771 77.2321 16.9771 77.3138 16.9771 77.4057C17.1098 81.3719 17.5846 85.6623 17.1532 89.6208C17.1532 89.6208 17.5769 85.6546 20.6932 87.3544C23.8095 89.0542 19.1338 97.9743 19.1338 97.9743C19.1338 97.9743 22.8167 95.2843 24.5165 97.5507C26.2163 99.8171 22.3981 102.354 22.3981 102.354C22.3981 102.354 25.9381 101.364 25.9381 102.354C25.9381 103.344 24.8049 104.194 21.5482 104.62H3.98614C3.98614 104.62 1.15313 103.061 1.71973 101.364C2.28633 99.6665 5.25971 100.654 5.25971 100.654C5.25971 100.654 0.729453 95.1311 1.01275 92.7243C1.29605 90.3176 7.10244 93.1506 7.10244 93.1506C7.10244 93.1506 2.56963 81.6807 3.41953 76.5915C4.08823 72.5768 7.20709 75.3154 8.90178 76.8672C8.50267 74.1966 8.33784 71.4962 8.4092 68.7969Z" fill="#1A377D" stroke="white" stroke-linecap="round" stroke-linejoin="round"/>
<path opacity="0.5" d="M8.4092 68.7969C8.49342 65.6092 8.24841 60.1729 11.0431 57.9345C13.4984 55.9693 15.4075 58.6364 16.094 60.7879C17.7658 66.0073 16.9797 71.7627 16.9771 77.1505C16.9771 77.2321 16.9771 77.3138 16.9771 77.4057C17.1098 81.3719 17.5846 85.6623 17.1532 89.6208C17.1532 89.6208 17.5769 85.6546 20.6932 87.3544C23.8095 89.0542 19.1338 97.9743 19.1338 97.9743C19.1338 97.9743 22.8167 95.2843 24.5165 97.5507C26.2163 99.8171 22.3981 102.354 22.3981 102.354C22.3981 102.354 25.9381 101.364 25.9381 102.354C25.9381 103.344 24.8049 104.194 21.5482 104.62H3.98614C3.98614 104.62 1.15313 103.061 1.71973 101.364C2.28633 99.6665 5.25971 100.654 5.25971 100.654C5.25971 100.654 0.729453 95.1311 1.01275 92.7243C1.29605 90.3176 7.10244 93.1506 7.10244 93.1506C7.10244 93.1506 2.56963 81.6807 3.41953 76.5915C4.08823 72.5768 7.20709 75.3154 8.90178 76.8672C8.50267 74.1966 8.33784 71.4962 8.4092 68.7969Z" fill="white"/>
<path d="M14.0402 104.478L12.7666 65.5378" stroke="white" stroke-linecap="round" stroke-linejoin="round"/>
<path d="M13.3311 88.1939L6.6748 81.9639" stroke="white" stroke-linecap="round" stroke-linejoin="round"/>
<path d="M10.2183 85.3611L8.80176 81.3975" stroke="white" stroke-linecap="round" stroke-linejoin="round"/>
<path d="M18.8525 93.0078L13.7556 98.5309" stroke="white" stroke-linecap="round" stroke-linejoin="round"/>
<path d="M5.26074 96.1238L13.7572 100.514" stroke="white" stroke-linecap="round" stroke-linejoin="round"/>
<path d="M9.79111 98.6711L6.6748 98.5308" stroke="white" stroke-linecap="round" stroke-linejoin="round"/>
<path d="M14.0402 104.478L12.7666 65.5378" stroke="#1A377D" stroke-linecap="round" stroke-linejoin="round"/>
<path d="M13.3311 88.1939L6.6748 81.9639" stroke="#1A377D" stroke-linecap="round" stroke-linejoin="round"/>
<path d="M10.2183 85.3611L8.80176 81.3975" stroke="#1A377D" stroke-linecap="round" stroke-linejoin="round"/>
<path d="M18.8525 93.0078L13.7556 98.5309" stroke="#1A377D" stroke-linecap="round" stroke-linejoin="round"/>
<path d="M5.26074 96.1238L13.7572 100.514" stroke="#1A377D" stroke-linecap="round" stroke-linejoin="round"/>
<path d="M9.79111 98.6711L6.6748 98.5308" stroke="#1A377D" stroke-linecap="round" stroke-linejoin="round"/>
<g opacity="0.8">
<path d="M14.0402 104.478L12.7666 65.5378" stroke="white" stroke-linecap="round" stroke-linejoin="round"/>
<path d="M13.3341 88.1947L6.67786 81.9646" stroke="white" stroke-linecap="round" stroke-linejoin="round"/>
<path d="M10.2183 85.3611L8.80176 81.3975" stroke="white" stroke-linecap="round" stroke-linejoin="round"/>
<path d="M18.8547 93.0078L13.7578 98.5309" stroke="white" stroke-linecap="round" stroke-linejoin="round"/>
<path d="M5.26074 96.1238L13.7572 100.514" stroke="white" stroke-linecap="round" stroke-linejoin="round"/>
<path d="M9.79416 98.6716L6.67786 98.5312" stroke="white" stroke-linecap="round" stroke-linejoin="round"/>
</g>
<path d="M38.8749 96.6087C38.8749 100.567 35.7382 103.778 35.7382 103.778C35.7382 103.778 32.6066 100.567 32.6066 96.6087C32.6066 92.6502 35.7433 89.4395 35.7433 89.4395C35.7433 89.4395 38.8749 92.6476 38.8749 96.6087Z" fill="#1A377D"/>
<path d="M41.0468 102.717C39.5154 104.434 36.9274 104.621 36.9274 104.621C36.9274 104.621 36.8024 102.02 38.3261 100.302C39.8498 98.5845 42.4454 98.3982 42.4454 98.3982C42.4454 98.3982 42.5602 100.999 41.0468 102.717Z" fill="#1A377D"/>
<path d="M33.0555 100.243C34.6532 101.889 34.6456 104.493 34.6456 104.493C34.6456 104.493 32.0448 104.424 30.4445 102.775C28.8443 101.126 28.8545 98.5254 28.8545 98.5254C28.8545 98.5254 31.4552 98.5943 33.0555 100.243Z" fill="#1A377D"/>
<g opacity="0.5">
<path d="M38.8758 96.6087C38.8758 100.567 35.739 103.778 35.739 103.778C35.739 103.778 32.6074 100.567 32.6074 96.6087C32.6074 92.6502 35.7441 89.4395 35.7441 89.4395C35.7441 89.4395 38.8758 92.6476 38.8758 96.6087Z" fill="white"/>
<path d="M35.7393 103.778V89.4395" stroke="white" stroke-linecap="round" stroke-linejoin="round"/>
<path d="M35.7393 94.5364L37.4952 93.0024" stroke="white" stroke-linecap="round" stroke-linejoin="round"/>
<path d="M35.7108 96.9051L33.5363 93.7556" stroke="white" stroke-linecap="round" stroke-linejoin="round"/>
<path d="M35.7393 98.2704L38.3323 95.958" stroke="white" stroke-linecap="round" stroke-linejoin="round"/>
<path d="M35.7104 100.111L33.1454 97.8264" stroke="white" stroke-linecap="round" stroke-linejoin="round"/>
<path d="M35.71 101.7L37.716 100.11" stroke="white" stroke-linecap="round" stroke-linejoin="round"/>
<path d="M41.0476 102.717C39.5163 104.434 36.9283 104.621 36.9283 104.621C36.9283 104.621 36.8032 102.02 38.3269 100.302C39.8506 98.5845 42.4463 98.3982 42.4463 98.3982C42.4463 98.3982 42.5611 100.999 41.0476 102.717Z" fill="white"/>
<path d="M36.9277 104.621L42.4457 98.3982" stroke="white" stroke-linecap="round" stroke-linejoin="round"/>
<path d="M40.4844 100.611L41.8345 100.621" stroke="white" stroke-linecap="round" stroke-linejoin="round"/>
<path d="M39.5615 101.626L39.8295 99.4238" stroke="white" stroke-linecap="round" stroke-linejoin="round"/>
<path d="M39.0461 102.232L41.0624 102.224" stroke="white" stroke-linecap="round" stroke-linejoin="round"/>
<path d="M38.327 103.018L38.0947 101.04" stroke="white" stroke-linecap="round" stroke-linejoin="round"/>
<path d="M37.7161 103.707L39.1989 103.791" stroke="white" stroke-linecap="round" stroke-linejoin="round"/>
<path d="M33.0558 100.243C34.6535 101.889 34.6458 104.493 34.6458 104.493C34.6458 104.493 32.0451 104.424 30.4448 102.775C28.8445 101.126 28.8547 98.5254 28.8547 98.5254C28.8547 98.5254 31.4555 98.5943 33.0558 100.243Z" fill="white"/>
<path d="M34.6458 104.493L28.8547 98.5254" stroke="white" stroke-linecap="round" stroke-linejoin="round"/>
<path d="M30.9102 100.647L31.0225 99.2991" stroke="white" stroke-linecap="round" stroke-linejoin="round"/>
<path d="M31.8587 101.644L29.6816 101.21" stroke="white" stroke-linecap="round" stroke-linejoin="round"/>
<path d="M32.4191 102.201L32.5645 100.192" stroke="white" stroke-linecap="round" stroke-linejoin="round"/>
<path d="M33.1519 102.977L31.1611 103.063" stroke="white" stroke-linecap="round" stroke-linejoin="round"/>
<path d="M33.7979 103.638L33.9893 102.168" stroke="white" stroke-linecap="round" stroke-linejoin="round"/>
</g>
<path d="M35.7385 103.778V89.4395" stroke="#1A377D" stroke-linecap="round" stroke-linejoin="round"/>
<path d="M35.7385 94.5364L37.4945 93.0024" stroke="#1A377D" stroke-linecap="round" stroke-linejoin="round"/>
<path d="M35.7107 96.9051L33.5361 93.7556" stroke="#1A377D" stroke-linecap="round" stroke-linejoin="round"/>
<path d="M35.7385 98.2704L38.3316 95.958" stroke="#1A377D" stroke-linecap="round" stroke-linejoin="round"/>
<path d="M35.7096 100.111L33.1445 97.8267" stroke="#1A377D" stroke-linecap="round" stroke-linejoin="round"/>
<path d="M35.7109 101.7L37.717 100.11" stroke="#1A377D" stroke-linecap="round" stroke-linejoin="round"/>
<g opacity="0.7">
<path d="M35.7401 103.778V89.4395" stroke="white" stroke-linecap="round" stroke-linejoin="round"/>
<path d="M35.7401 94.5364L37.4961 93.0024" stroke="white" stroke-linecap="round" stroke-linejoin="round"/>
<path d="M35.7126 96.9051L33.5381 93.7556" stroke="white" stroke-linecap="round" stroke-linejoin="round"/>
<path d="M35.7401 98.2704L38.3332 95.958" stroke="white" stroke-linecap="round" stroke-linejoin="round"/>
<path d="M35.7115 100.111L33.1465 97.8264" stroke="white" stroke-linecap="round" stroke-linejoin="round"/>
<path d="M35.7107 101.701L37.7168 100.111" stroke="white" stroke-linecap="round" stroke-linejoin="round"/>
</g>
<path d="M36.9277 104.621L42.4457 98.3982" stroke="#1A377D" stroke-linecap="round" stroke-linejoin="round"/>
<path d="M40.4844 100.611L41.8345 100.621" stroke="#1A377D" stroke-linecap="round" stroke-linejoin="round"/>
<path d="M39.5607 101.626L39.8287 99.4238" stroke="#1A377D" stroke-linecap="round" stroke-linejoin="round"/>
<path d="M39.0459 102.232L41.0622 102.224" stroke="#1A377D" stroke-linecap="round" stroke-linejoin="round"/>
<path d="M38.326 103.018L38.0938 101.04" stroke="#1A377D" stroke-linecap="round" stroke-linejoin="round"/>
<path d="M37.7178 103.707L39.2006 103.791" stroke="#1A377D" stroke-linecap="round" stroke-linejoin="round"/>
<g opacity="0.7">
<path d="M36.9277 104.621L42.4457 98.3982" stroke="white" stroke-linecap="round" stroke-linejoin="round"/>
<path d="M40.4844 100.611L41.8345 100.621" stroke="white" stroke-linecap="round" stroke-linejoin="round"/>
<path d="M39.5607 101.626L39.8287 99.4238" stroke="white" stroke-linecap="round" stroke-linejoin="round"/>
<path d="M39.0459 102.232L41.0622 102.224" stroke="white" stroke-linecap="round" stroke-linejoin="round"/>
<path d="M38.326 103.018L38.0938 101.04" stroke="white" stroke-linecap="round" stroke-linejoin="round"/>
<path d="M37.7158 103.707L39.1987 103.791" stroke="white" stroke-linecap="round" stroke-linejoin="round"/>
</g>
<path d="M34.6456 104.493L28.8545 98.5254" stroke="#1A377D" stroke-linecap="round" stroke-linejoin="round"/>
<path d="M30.9131 100.647L31.0254 99.2991" stroke="#1A377D" stroke-linecap="round" stroke-linejoin="round"/>
<path d="M31.8585 101.645L29.6814 101.211" stroke="#1A377D" stroke-linecap="round" stroke-linejoin="round"/>
<path d="M32.4209 102.201L32.5664 100.192" stroke="#1A377D" stroke-linecap="round" stroke-linejoin="round"/>
<path d="M33.1538 102.977L31.1631 103.064" stroke="#1A377D" stroke-linecap="round" stroke-linejoin="round"/>
<path d="M33.7969 103.638L33.9883 102.168" stroke="#1A377D" stroke-linecap="round" stroke-linejoin="round"/>
<g opacity="0.7">
<path d="M34.6456 104.493L28.8545 98.5254" stroke="white" stroke-linecap="round" stroke-linejoin="round"/>
<path d="M30.9102 100.647L31.0225 99.2991" stroke="white" stroke-linecap="round" stroke-linejoin="round"/>
<path d="M31.8587 101.644L29.6816 101.21" stroke="white" stroke-linecap="round" stroke-linejoin="round"/>
<path d="M32.4191 102.201L32.5645 100.192" stroke="white" stroke-linecap="round" stroke-linejoin="round"/>
<path d="M33.1519 102.977L31.1611 103.063" stroke="white" stroke-linecap="round" stroke-linejoin="round"/>
<path d="M33.7979 103.638L33.9893 102.168" stroke="white" stroke-linecap="round" stroke-linejoin="round"/>
</g>
<path d="M109.525 28.7671H40.5303C40.5097 28.7674 40.4891 28.7636 40.4699 28.7559C40.4508 28.7483 40.4333 28.7369 40.4186 28.7224C40.4038 28.7079 40.3921 28.6906 40.3842 28.6715C40.3762 28.6525 40.3721 28.632 40.3721 28.6114C40.3721 28.5694 40.3887 28.5291 40.4184 28.4995C40.4481 28.4698 40.4883 28.4531 40.5303 28.4531H109.525C109.546 28.4531 109.567 28.4572 109.586 28.4652C109.605 28.4732 109.622 28.4849 109.636 28.4996C109.651 28.5144 109.662 28.5318 109.67 28.551C109.678 28.5702 109.682 28.5907 109.681 28.6114C109.681 28.6527 109.665 28.6923 109.636 28.7215C109.606 28.7506 109.567 28.7671 109.525 28.7671Z" fill="#1A377D"/>
<g opacity="0.3">
<path d="M109.525 28.7671H40.5303C40.5097 28.7674 40.4891 28.7636 40.4699 28.7559C40.4508 28.7483 40.4333 28.7369 40.4186 28.7224C40.4038 28.7079 40.3921 28.6906 40.3842 28.6715C40.3762 28.6525 40.3721 28.632 40.3721 28.6114C40.3721 28.5694 40.3887 28.5291 40.4184 28.4995C40.4481 28.4698 40.4883 28.4531 40.5303 28.4531H109.525C109.546 28.4531 109.567 28.4572 109.586 28.4652C109.605 28.4732 109.622 28.4849 109.636 28.4996C109.651 28.5144 109.662 28.5318 109.67 28.551C109.678 28.5702 109.682 28.5907 109.681 28.6114C109.681 28.6527 109.665 28.6923 109.636 28.7215C109.606 28.7506 109.567 28.7671 109.525 28.7671Z" fill="white"/>
</g>
<path d="M109.388 56.1325H40.3926C40.372 56.1329 40.3514 56.1291 40.3323 56.1214C40.3131 56.1138 40.2956 56.1023 40.2809 56.0878C40.2661 56.0734 40.2545 56.0561 40.2465 56.037C40.2385 56.018 40.2344 55.9975 40.2344 55.9769C40.2344 55.9349 40.251 55.8946 40.2807 55.865C40.3104 55.8353 40.3506 55.8186 40.3926 55.8186H109.388C109.408 55.8186 109.429 55.8227 109.448 55.8307C109.467 55.8387 109.484 55.8504 109.499 55.8651C109.513 55.8798 109.525 55.8973 109.532 55.9165C109.54 55.9357 109.544 55.9562 109.543 55.9769C109.543 55.9973 109.539 56.0175 109.532 56.0364C109.524 56.0553 109.512 56.0725 109.498 56.0869C109.483 56.1014 109.466 56.1129 109.447 56.1207C109.428 56.1285 109.408 56.1325 109.388 56.1325Z" fill="#1A377D"/>
<g opacity="0.3">
<path d="M109.388 56.1325H40.3926C40.372 56.1329 40.3514 56.1291 40.3323 56.1214C40.3131 56.1138 40.2956 56.1023 40.2809 56.0878C40.2661 56.0734 40.2545 56.0561 40.2465 56.037C40.2385 56.018 40.2344 55.9975 40.2344 55.9769C40.2344 55.9349 40.251 55.8946 40.2807 55.865C40.3104 55.8353 40.3506 55.8186 40.3926 55.8186H109.388C109.408 55.8186 109.429 55.8227 109.448 55.8307C109.467 55.8387 109.484 55.8504 109.499 55.8651C109.513 55.8798 109.525 55.8973 109.532 55.9165C109.54 55.9357 109.544 55.9562 109.543 55.9769C109.543 55.9973 109.539 56.0175 109.532 56.0364C109.524 56.0553 109.512 56.0725 109.498 56.0869C109.483 56.1014 109.466 56.1129 109.447 56.1207C109.428 56.1285 109.408 56.1325 109.388 56.1325Z" fill="white"/>
</g>
<path d="M109.388 78.5029H40.3926C40.3506 78.5029 40.3104 78.4862 40.2807 78.4566C40.251 78.4269 40.2344 78.3866 40.2344 78.3447C40.2344 78.324 40.2385 78.3036 40.2465 78.2845C40.2545 78.2654 40.2661 78.2482 40.2809 78.2337C40.2956 78.2192 40.3131 78.2078 40.3323 78.2001C40.3514 78.1924 40.372 78.1886 40.3926 78.189H109.388C109.408 78.189 109.428 78.193 109.447 78.2008C109.466 78.2087 109.483 78.2201 109.498 78.2346C109.512 78.249 109.524 78.2662 109.532 78.2851C109.539 78.304 109.543 78.3242 109.543 78.3447C109.544 78.3653 109.54 78.3858 109.532 78.405C109.525 78.4242 109.513 78.4417 109.499 78.4564C109.484 78.4711 109.467 78.4828 109.448 78.4908C109.429 78.4988 109.408 78.5029 109.388 78.5029Z" fill="#1A377D"/>
<g opacity="0.3">
<path d="M109.388 78.5029H40.3926C40.3506 78.5029 40.3104 78.4862 40.2807 78.4566C40.251 78.4269 40.2344 78.3866 40.2344 78.3447C40.2344 78.324 40.2385 78.3036 40.2465 78.2845C40.2545 78.2654 40.2661 78.2482 40.2809 78.2337C40.2956 78.2192 40.3131 78.2078 40.3323 78.2001C40.3514 78.1924 40.372 78.1886 40.3926 78.189H109.388C109.408 78.189 109.428 78.193 109.447 78.2008C109.466 78.2087 109.483 78.2201 109.498 78.2346C109.512 78.249 109.524 78.2662 109.532 78.2851C109.539 78.304 109.543 78.3242 109.543 78.3447C109.544 78.3653 109.54 78.3858 109.532 78.405C109.525 78.4242 109.513 78.4417 109.499 78.4564C109.484 78.4711 109.467 78.4828 109.448 78.4908C109.429 78.4988 109.408 78.5029 109.388 78.5029Z" fill="white"/>
</g>
<path d="M55.0607 82.2883V105.57" stroke="#4E4D4D" stroke-width="0.265171" stroke-miterlimit="10"/>
<path d="M58.3851 82.2883V105.57" stroke="#4E4D4D" stroke-width="0.265171" stroke-miterlimit="10"/>
<path d="M61.712 82.2883V105.57" stroke="#4E4D4D" stroke-width="0.265171" stroke-miterlimit="10"/>
<path d="M65.0363 82.2883V105.57" stroke="#4E4D4D" stroke-width="0.265171" stroke-miterlimit="10"/>
<path d="M68.3636 82.2883V105.57" stroke="#4E4D4D" stroke-width="0.265171" stroke-miterlimit="10"/>
<path d="M71.6885 82.2883V105.57" stroke="#4E4D4D" stroke-width="0.265171" stroke-miterlimit="10"/>
<path d="M75.0148 82.2883V105.57" stroke="#4E4D4D" stroke-width="0.265171" stroke-miterlimit="10"/>
<path d="M78.339 82.2883V105.57" stroke="#4E4D4D" stroke-width="0.265171" stroke-miterlimit="10"/>
<path d="M81.6659 82.2883V105.57" stroke="#4E4D4D" stroke-width="0.265171" stroke-miterlimit="10"/>
<path d="M84.9902 82.2883V105.57" stroke="#4E4D4D" stroke-width="0.265171" stroke-miterlimit="10"/>
<path d="M88.3175 82.2883V105.57" stroke="#4E4D4D" stroke-width="0.265171" stroke-miterlimit="10"/>
<path d="M91.6417 82.2883V105.57" stroke="#4E4D4D" stroke-width="0.265171" stroke-miterlimit="10"/>
<path d="M55.2266 84.4497H91.4763" stroke="#4E4D4D" stroke-width="0.265171" stroke-miterlimit="10"/>
<path d="M55.2266 87.6096H91.4763" stroke="#4E4D4D" stroke-width="0.265171" stroke-miterlimit="10"/>
<path d="M55.2266 90.7693H91.4763" stroke="#4E4D4D" stroke-width="0.265171" stroke-miterlimit="10"/>
<path d="M55.2266 93.9292H91.4763" stroke="#4E4D4D" stroke-width="0.265171" stroke-miterlimit="10"/>
<path d="M55.2266 97.0889H91.4763" stroke="#4E4D4D" stroke-width="0.265171" stroke-miterlimit="10"/>
<path d="M55.2266 100.249H91.4763" stroke="#4E4D4D" stroke-width="0.265171" stroke-miterlimit="10"/>
<path d="M55.2266 103.408H91.4763" stroke="#4E4D4D" stroke-width="0.265171" stroke-miterlimit="10"/>
<path d="M62.8434 90.4554L57.9788 105.452H68.1674L63.3002 90.4554C63.2847 90.407 63.2542 90.3648 63.2131 90.3349C63.1721 90.3049 63.1226 90.2888 63.0718 90.2888C63.021 90.2888 62.9715 90.3049 62.9304 90.3349C62.8894 90.3648 62.8589 90.407 62.8434 90.4554Z" fill="#1A377D" stroke="#4E4D4D" stroke-width="1.06068" stroke-miterlimit="10"/>
<path d="M72.1178 85.4886L65.6427 105.452H79.0574L72.5746 85.4886C72.5591 85.4402 72.5286 85.398 72.4876 85.3681C72.4465 85.3381 72.397 85.322 72.3462 85.322C72.2954 85.322 72.2459 85.3381 72.2048 85.3681C72.1638 85.398 72.1333 85.4402 72.1178 85.4886Z" fill="#4E4D4D" stroke="#4E4D4D" stroke-width="1.06068" stroke-miterlimit="10"/>
<path d="M80.652 93.8861L76.8976 105.453H84.8606L81.0986 93.8861C81.081 93.8413 81.0503 93.8027 81.0104 93.7756C80.9706 93.7484 80.9235 93.7339 80.8753 93.7339C80.8271 93.7339 80.78 93.7484 80.7401 93.7756C80.7003 93.8027 80.6696 93.8413 80.652 93.8861Z" fill="#1A377D" stroke="#4E4D4D" stroke-width="1.06068" stroke-miterlimit="10"/>
<path d="M85.7941 97.857L83.3312 105.453H88.7139L86.251 97.857C86.2354 97.8086 86.2049 97.7664 86.1639 97.7365C86.1228 97.7066 86.0733 97.6904 86.0225 97.6904C85.9717 97.6904 85.9222 97.7066 85.8812 97.7365C85.8401 97.7664 85.8096 97.8086 85.7941 97.857Z" fill="#4E4D4D" stroke="#4E4D4D" stroke-width="1.06068" stroke-miterlimit="10"/>
<path d="M54.6227 74.9295C53.1634 74.9295 51.7368 74.4968 50.5234 73.686C49.31 72.8752 48.3643 71.7229 47.8058 70.3746C47.2473 69.0263 47.1012 67.5428 47.3859 66.1115C47.6706 64.6802 48.3734 63.3654 49.4053 62.3335C50.4372 61.3016 51.7519 60.5988 53.1832 60.3141C54.6145 60.0294 56.0981 60.1756 57.4464 60.734C58.7946 61.2925 59.947 62.2382 60.7578 63.4516C61.5686 64.665 62.0013 66.0916 62.0013 67.5509C61.9993 69.5072 61.2212 71.3828 59.8379 72.7661C58.4546 74.1495 56.579 74.9275 54.6227 74.9295ZM54.6227 62.3392C53.5921 62.3397 52.5847 62.6458 51.7279 63.2188C50.8712 63.7918 50.2036 64.6059 49.8096 65.5583C49.4155 66.5106 49.3126 67.5585 49.514 68.5693C49.7154 69.5801 50.212 70.5085 50.9409 71.2371C51.6699 71.9657 52.5986 72.4618 53.6095 72.6627C54.6204 72.8636 55.6681 72.7602 56.6203 72.3657C57.5725 71.9712 58.3863 71.3032 58.9588 70.4462C59.5314 69.5891 59.837 68.5816 59.837 67.5509C59.8356 66.1687 59.2858 64.8435 58.3081 63.8663C57.3305 62.8891 56.005 62.3399 54.6227 62.3392Z" fill="#4E4D4D" stroke="#4E4D4D" stroke-width="1.06068" stroke-miterlimit="10"/>
<path d="M54.6225 74.9295C53.6266 74.9326 52.6406 74.7325 51.7248 74.3415C50.8089 73.9505 49.9825 73.3768 49.2959 72.6554L50.8604 71.1573C51.3452 71.6669 51.9289 72.0721 52.5758 72.3482C53.2227 72.6242 53.9191 72.7653 54.6225 72.7626C55.3069 72.7626 55.9846 72.6278 56.6169 72.3659C57.2492 72.104 57.8237 71.7201 58.3077 71.2362C58.7916 70.7522 59.1755 70.1777 59.4374 69.5454C59.6994 68.9131 59.8342 68.2353 59.8342 67.5509C59.8342 66.8665 59.6994 66.1888 59.4374 65.5565C59.1755 64.9242 58.7916 64.3497 58.3077 63.8657C57.8237 63.3817 57.2492 62.9979 56.6169 62.7359C55.9846 62.474 55.3069 62.3392 54.6225 62.3392V60.1724C55.5914 60.1724 56.5509 60.3632 57.4461 60.734C58.3413 61.1048 59.1547 61.6483 59.8399 62.3335C60.5251 63.0187 61.0686 63.8321 61.4394 64.7273C61.8102 65.6225 62.001 66.582 62.001 67.5509C62.001 68.5199 61.8102 69.4794 61.4394 70.3746C61.0686 71.2698 60.5251 72.0832 59.8399 72.7684C59.1547 73.4535 58.3413 73.997 57.4461 74.3679C56.5509 74.7387 55.5914 74.9295 54.6225 74.9295Z" fill="#1A377D" stroke="#4E4D4D" stroke-width="1.06068" stroke-miterlimit="10"/>
<path d="M72.8207 74.9295C71.3613 74.93 69.9344 74.4977 68.7207 73.6872C67.507 72.8768 66.5608 71.7246 66.002 70.3764C65.4431 69.0282 65.2966 67.5445 65.581 66.113C65.8655 64.6815 66.568 63.3666 67.5998 62.3344C68.6316 61.3022 69.9464 60.5992 71.3777 60.3143C72.8091 60.0294 74.2928 60.1754 75.6412 60.7338C76.9896 61.2922 78.1422 62.2379 78.953 63.4514C79.7639 64.6648 80.1967 66.0915 80.1967 67.5509C80.1947 69.5068 79.417 71.382 78.0343 72.7652C76.6515 74.1485 74.7766 74.9268 72.8207 74.9295ZM72.8207 62.3392C71.7901 62.3402 70.783 62.6468 69.9266 63.22C69.0702 63.7933 68.403 64.6076 68.0094 65.56C67.6157 66.5124 67.5132 67.5602 67.7149 68.5708C67.9165 69.5815 68.4133 70.5096 69.1424 71.238C69.8715 71.9663 70.8001 72.4622 71.8109 72.6629C72.8218 72.8636 73.8694 72.7601 74.8214 72.3654C75.7734 71.9708 76.5871 71.3028 77.1595 70.4459C77.732 69.5889 78.0375 68.5815 78.0375 67.5509C78.0355 66.1684 77.4851 64.8432 76.507 63.8661C75.529 62.889 74.2032 62.3399 72.8207 62.3392Z" fill="#4E4D4D" stroke="#4E4D4D" stroke-width="1.06068" stroke-miterlimit="10"/>
<path d="M75.6906 74.3476L74.8484 72.3543C75.9552 71.8851 76.866 71.0479 77.4264 69.9844C77.9869 68.9209 78.1626 67.6963 77.9239 66.5181C77.6852 65.3399 77.0467 64.2803 76.1165 63.5188C75.1863 62.7573 74.0215 62.3406 72.8193 62.3392V60.1724C74.5218 60.1725 76.1719 60.7615 77.4898 61.8393C78.8077 62.9171 79.7123 64.4175 80.0503 66.0861C80.3883 67.7547 80.1388 69.4889 79.3443 70.9946C78.5497 72.5003 77.2589 73.6849 75.6906 74.3476Z" fill="#1A377D" stroke="#4E4D4D" stroke-width="1.06068" stroke-miterlimit="10"/>
<path d="M91.0163 74.9295C89.5569 74.9295 88.1304 74.4968 86.917 73.686C85.7036 72.8752 84.7578 71.7229 84.1994 70.3746C83.6409 69.0263 83.4948 67.5428 83.7795 66.1115C84.0642 64.6802 84.7669 63.3654 85.7988 62.3335C86.8307 61.3016 88.1455 60.5988 89.5768 60.3141C91.0081 60.0294 92.4917 60.1756 93.8399 60.734C95.1882 61.2925 96.3406 62.2382 97.1513 63.4516C97.9621 64.665 98.3949 66.0916 98.3949 67.5509C98.3928 69.5072 97.6148 71.3828 96.2315 72.7661C94.8482 74.1495 92.9726 74.9275 91.0163 74.9295ZM91.0163 62.3392C89.9855 62.3392 88.9779 62.6449 88.1208 63.2176C87.2637 63.7902 86.5957 64.6042 86.2013 65.5565C85.8068 66.5088 85.7036 67.5567 85.9047 68.5677C86.1058 69.5787 86.6022 70.5073 87.331 71.2362C88.0599 71.9651 88.9885 72.4614 89.9995 72.6625C91.0105 72.8636 92.0584 72.7604 93.0107 72.3659C93.963 71.9715 94.777 71.3035 95.3497 70.4464C95.9223 69.5894 96.228 68.5817 96.228 67.5509C96.2266 66.1691 95.6771 64.8443 94.7 63.8672C93.7229 62.8901 92.3981 62.3406 91.0163 62.3392Z" fill="#4E4D4D" stroke="#4E4D4D" stroke-width="1.06068" stroke-miterlimit="10"/>
<path d="M96.1231 66.5122C95.8809 65.3361 95.2413 64.2793 94.3117 63.5194C93.3821 62.7594 92.2192 62.3427 91.0186 62.3392V60.1724C92.7191 60.1767 94.3663 60.7665 95.6831 61.8425C96.9999 62.9186 97.9061 64.4152 98.2491 66.0808L96.1231 66.5122Z" fill="#1A377D" stroke="#4E4D4D" stroke-width="1.06068" stroke-miterlimit="10"/>
<path d="M57.5662 52.0029H92.2182" stroke="#4E4D4D" stroke-width="1.06068" stroke-miterlimit="10"/>
<path d="M57.5662 52.003V51.2654" stroke="#4E4D4D" stroke-width="1.06068" stroke-miterlimit="10"/>
<path d="M64.4951 52.0027V51.2651" stroke="#4E4D4D" stroke-width="1.06068" stroke-miterlimit="10"/>
<path d="M71.4257 52.003V51.2654" stroke="#4E4D4D" stroke-width="1.06068" stroke-miterlimit="10"/>
<path d="M78.3574 52.0027V51.2651" stroke="#4E4D4D" stroke-width="1.06068" stroke-miterlimit="10"/>
<path d="M85.2863 52.003V51.2654" stroke="#4E4D4D" stroke-width="1.06068" stroke-miterlimit="10"/>
<path d="M92.2177 52.003V51.2654" stroke="#4E4D4D" stroke-width="1.06068" stroke-miterlimit="10"/>
<path d="M63.5248 42.1538H58.5352V48.0623H63.5248V42.1538Z" fill="#1A377D" stroke="#4E4D4D" stroke-width="1.06068" stroke-miterlimit="10"/>
<path d="M70.4555 35.2603H65.4658V49.0476H70.4555V35.2603Z" fill="#1A377D" stroke="#4E4D4D" stroke-width="1.06068" stroke-miterlimit="10"/>
<path d="M77.3871 25.6101H72.3975V40.9747H77.3871V25.6101Z" fill="#1A377D" stroke="#4E4D4D" stroke-width="1.06068" stroke-miterlimit="10"/>
<path d="M84.3158 39.9897H79.3262V42.9453H84.3158V39.9897Z" fill="#1A377D" stroke="#4E4D4D" stroke-width="1.06068" stroke-miterlimit="10"/>
<path d="M91.2445 38.2158H86.2549V45.8981H91.2445V38.2158Z" fill="#1A377D" stroke="#4E4D4D" stroke-width="1.06068" stroke-miterlimit="10"/>
<path d="M63.5248 48.0652H58.5352V52.0059H63.5248V48.0652Z" fill="#4E4D4D" stroke="#4E4D4D" stroke-width="1.06068" stroke-miterlimit="10"/>
<path d="M70.4555 49.05H65.4658V52.0056H70.4555V49.05Z" fill="#4E4D4D" stroke="#4E4D4D" stroke-width="1.06068" stroke-miterlimit="10"/>
<path d="M77.3871 40.9722H72.3975V52.003H77.3871V40.9722Z" fill="#4E4D4D" stroke="#4E4D4D" stroke-width="1.06068" stroke-miterlimit="10"/>
<path d="M84.3158 42.9429H79.3262V52.0034H84.3158V42.9429Z" fill="#4E4D4D" stroke="#4E4D4D" stroke-width="1.06068" stroke-miterlimit="10"/>
<path d="M91.2445 45.8979H86.2549V52.0029H91.2445V45.8979Z" fill="#4E4D4D" stroke="#4E4D4D" stroke-width="1.06068" stroke-miterlimit="10"/>
<path d="M101.452 22.8206C101.392 22.821 101.333 22.8065 101.28 22.7785C101.227 22.7504 101.181 22.7096 101.148 22.6598L90.4133 7.00425L79.5228 18.617L68.4026 11.3686L57.6448 13.8647L46.7186 22.7389C46.6428 22.8005 46.5456 22.8295 46.4485 22.8194C46.3513 22.8094 46.2621 22.7611 46.2005 22.6853C46.1389 22.6095 46.1099 22.5123 46.12 22.4152C46.13 22.318 46.1783 22.2288 46.2541 22.1672L57.313 13.1858L68.543 10.58L79.4105 17.665L90.5051 5.83276L101.755 22.2438C101.794 22.2989 101.816 22.3633 101.82 22.4302C101.824 22.497 101.81 22.5638 101.779 22.6232C101.748 22.6826 101.702 22.7323 101.644 22.7671C101.587 22.8019 101.521 22.8204 101.454 22.8206H101.452Z" fill="#4E4D4D"/>
<path d="M47.41 22.4527C47.41 22.6329 47.3565 22.809 47.2564 22.9589C47.1563 23.1087 47.014 23.2255 46.8475 23.2945C46.681 23.3634 46.4978 23.3815 46.321 23.3463C46.1443 23.3112 45.9819 23.2244 45.8545 23.0969C45.7271 22.9695 45.6403 22.8072 45.6052 22.6304C45.57 22.4537 45.588 22.2705 45.657 22.104C45.726 21.9375 45.8428 21.7952 45.9926 21.6951C46.1424 21.5949 46.3186 21.5415 46.4988 21.5415C46.7405 21.5415 46.9722 21.6375 47.1431 21.8084C47.314 21.9792 47.41 22.211 47.41 22.4527Z" fill="#1A377D"/>
<path d="M57.4784 14.4361C57.9816 14.4361 58.3896 14.0281 58.3896 13.5249C58.3896 13.0217 57.9816 12.6138 57.4784 12.6138C56.9752 12.6138 56.5673 13.0217 56.5673 13.5249C56.5673 14.0281 56.9752 14.4361 57.4784 14.4361Z" fill="#1A377D"/>
<path d="M68.4717 11.8841C68.9749 11.8841 69.3829 11.4761 69.3829 10.9729C69.3829 10.4697 68.9749 10.0618 68.4717 10.0618C67.9685 10.0618 67.5605 10.4697 67.5605 10.9729C67.5605 11.4761 67.9685 11.8841 68.4717 11.8841Z" fill="#1A377D"/>
<path d="M79.4638 19.0508C79.967 19.0508 80.3749 18.6429 80.3749 18.1397C80.3749 17.6365 79.967 17.2285 79.4638 17.2285C78.9606 17.2285 78.5526 17.6365 78.5526 18.1397C78.5526 18.6429 78.9606 19.0508 79.4638 19.0508Z" fill="#1A377D"/>
<path d="M91.3663 6.4197C91.3663 6.59991 91.3128 6.77607 91.2127 6.92591C91.1126 7.07575 90.9703 7.19254 90.8038 7.2615C90.6373 7.33046 90.4541 7.34851 90.2773 7.31335C90.1006 7.27819 89.9382 7.19141 89.8108 7.06399C89.6834 6.93656 89.5966 6.77421 89.5615 6.59746C89.5263 6.42071 89.5443 6.23751 89.6133 6.07102C89.6823 5.90452 89.799 5.76222 89.9489 5.6621C90.0987 5.56198 90.2749 5.50854 90.4551 5.50854C90.6968 5.50854 90.9285 5.60454 91.0994 5.77542C91.2703 5.94629 91.3663 6.17805 91.3663 6.4197Z" fill="#1A377D"/>
<path d="M102.361 22.4527C102.361 22.6329 102.308 22.809 102.208 22.9589C102.107 23.1087 101.965 23.2255 101.799 23.2945C101.632 23.3634 101.449 23.3815 101.272 23.3463C101.095 23.3112 100.933 23.2244 100.806 23.0969C100.678 22.9695 100.591 22.8072 100.556 22.6304C100.521 22.4537 100.539 22.2705 100.608 22.104C100.677 21.9375 100.794 21.7952 100.944 21.6951C101.094 21.5949 101.27 21.5415 101.45 21.5415C101.692 21.5415 101.923 21.6375 102.094 21.8084C102.265 21.9792 102.361 22.211 102.361 22.4527Z" fill="#1A377D"/>
<path d="M121.1 109.296C130.829 109.296 138.716 108.237 138.716 106.93C138.716 105.623 130.829 104.564 121.1 104.564C111.371 104.564 103.485 105.623 103.485 106.93C103.485 108.237 111.371 109.296 121.1 109.296Z" fill="#1A377D"/>
<path opacity="0.7" d="M121.1 109.296C130.829 109.296 138.716 108.237 138.716 106.93C138.716 105.623 130.829 104.564 121.1 104.564C111.371 104.564 103.485 105.623 103.485 106.93C103.485 108.237 111.371 109.296 121.1 109.296Z" fill="white"/>
<path d="M24.5876 109.296C33.5652 109.296 40.8429 108.237 40.8429 106.93C40.8429 105.623 33.5652 104.564 24.5876 104.564C15.61 104.564 8.33228 105.623 8.33228 106.93C8.33228 108.237 15.61 109.296 24.5876 109.296Z" fill="#1A377D"/>
<path opacity="0.7" d="M24.5876 109.296C33.5652 109.296 40.8429 108.237 40.8429 106.93C40.8429 105.623 33.5652 104.564 24.5876 104.564C15.61 104.564 8.33228 105.623 8.33228 106.93C8.33228 108.237 15.61 109.296 24.5876 109.296Z" fill="white"/>
<path d="M116.133 23.5789C116.133 23.5789 122.825 22.9307 123.208 24.046C123.591 25.1613 123.463 27.7085 123.463 27.7085C123.8 27.7961 124.129 27.9131 124.446 28.0582C124.535 28.1449 125.525 28.7932 124.601 29.8575C124.36 30.1274 124.068 30.3468 123.741 30.5032C123.334 30.6836 122.946 30.906 122.585 31.1668L121.243 32.6905L121.498 34.6532C121.498 34.6532 122.098 35.0871 122.83 36.6006C122.83 36.6006 124.561 37.6215 125.576 38.2008C126.412 38.6397 127.281 39.0118 128.175 39.3136C128.175 39.3136 128.639 39.4642 128.606 39.7985C128.573 40.1329 126.294 47.7105 126.294 47.7105L125.094 51.5389C125.071 52.0094 125.01 52.4772 124.91 52.9376C124.739 53.7619 124.096 54.303 123.43 54.1346L123.496 56.9421C123.496 56.9421 120.367 58.5066 115.207 58.2411C115.207 58.2411 112.777 58.0063 110.98 56.6766L110.947 50.1173L102.667 48.5145C102.667 48.5145 101.618 48.2924 102.157 47.3481C102.695 46.4038 104.505 44.0608 104.505 44.0608L110.322 36.9451C110.322 36.9451 110.722 36.4729 110.87 36.3224C111.018 36.1718 111.381 36.0671 112.818 35.9472C114.255 35.8272 115.865 35.549 115.865 35.549C115.865 35.549 116.738 34.7987 116.863 34.7987C116.988 34.7987 117.014 33.6757 117.014 33.6757C116.572 33.3571 116.205 32.9467 115.938 32.4726C115.67 31.9985 115.509 31.472 115.464 30.9294C115.339 29.1071 116.138 24.8372 116.138 24.8372L116.133 23.5789Z" fill="white"/>
<path d="M111.08 56.6514C111.08 56.6514 110.375 67.1156 110.375 72.1232C110.375 77.1307 110.689 81.1862 110.845 84.7032C111.001 88.2202 110.375 90.6423 110.921 93.2201C111.468 95.7979 112.721 103.302 112.721 103.302L114.193 104.19C114.193 104.19 114.449 98.22 114.985 96.1118C115.521 94.0037 115.689 85.0937 116.006 82.3577C116.322 79.6217 117.335 69.9333 117.335 69.9333C117.335 69.9333 121.243 80.0913 122.185 84.0779C123.126 88.0646 126.327 97.0485 127.034 99.2358C127.741 101.423 128.831 104.664 128.831 104.664C129.162 104.761 129.51 104.787 129.852 104.741C129.999 104.729 130.141 104.68 130.265 104.598C130.388 104.515 130.488 104.403 130.556 104.271C130.556 104.271 129.517 97.7274 129.06 94.5473C128.496 90.6143 127.577 84.7032 127.019 82.5159C126.46 80.3287 125.612 76.8882 125.612 75.2471C125.612 73.606 123.504 57.1261 123.504 57.1261C123.504 57.1261 116.159 60.3241 111.08 56.6514Z" fill="#4E4D4D"/>
<path d="M117.332 69.9332L114.198 66.2783" stroke="white" stroke-width="0.530341" stroke-miterlimit="10" stroke-linecap="round"/>
<path d="M113.395 66.5464L115.975 68.9481" stroke="white" stroke-width="0.530341" stroke-miterlimit="10" stroke-linecap="round"/>
<path d="M118.912 66.8143C119.573 65.1426 120.801 63.7566 122.381 62.8992" stroke="white" stroke-width="0.530341" stroke-miterlimit="10" stroke-linecap="round"/>
<path d="M122.556 58.0093C122.556 58.0093 122.202 59.3416 122.646 60.143C123.09 60.9444 123.536 60.9444 123.536 60.9444C123.536 60.9444 124.335 65.3011 124.335 67.7921C124.335 70.2831 123.802 70.5485 124.335 73.305C124.869 76.0614 125.226 76.9521 125.226 78.5524C125.226 80.1527 125.936 81.2221 126.558 82.1996C127.181 83.1771 127.36 86.028 127.36 87.179C127.36 88.3301 127.714 89.5807 128.072 90.7369C128.072 90.7369 128.156 93.33 128.605 93.9374C129.054 94.5448 129.139 96.6071 129.139 96.6071" stroke="white" stroke-width="0.530341" stroke-miterlimit="10" stroke-linecap="round"/>
<path d="M116.687 69.5708C116.687 69.5708 116.863 71.6126 116.24 75.173C115.618 78.7334 115.173 79.7084 115.084 83.7996C114.995 87.8909 115.352 88.603 115.173 90.7367C114.995 92.8704 113.928 96.2419 113.928 97.7732C113.928 99.3046 114.091 104.2 114.091 104.2" stroke="white" stroke-width="0.530341" stroke-miterlimit="10" stroke-linecap="round"/>
<path d="M114.731 58.5422L114.909 59.2543L116.065 59.5197L115.887 58.6316" stroke="white" stroke-width="0.530341" stroke-miterlimit="10" stroke-linecap="round"/>
<path d="M116.072 59.5199C116.072 59.5199 118.205 59.4306 119.272 59.0759L119.017 58.3638" stroke="white" stroke-width="0.530341" stroke-miterlimit="10" stroke-linecap="round"/>
<path d="M119.978 58.1853L120.233 59.076C120.233 59.076 121.94 58.9791 122.196 58.7238" stroke="white" stroke-width="0.530341" stroke-miterlimit="10" stroke-linecap="round"/>
<path d="M114.91 59.2547C114.32 59.2362 113.743 59.0834 113.221 58.8081L112.419 58.364L112.674 57.7412" stroke="white" stroke-width="0.530341" stroke-miterlimit="10" stroke-linecap="round"/>
<path d="M112.721 103.301C112.721 103.301 108.893 105.8 108.344 106.971C107.796 108.143 109.985 107.676 111.547 107.05C113.109 106.425 114.1 104.189 114.1 104.189L112.721 103.301Z" fill="white" stroke="#4E4D4D" stroke-width="1.06068" stroke-miterlimit="10" stroke-linecap="round"/>
<path d="M128.955 104.697C129.148 105.768 129.529 106.796 130.078 107.735C130.921 109.044 132.511 110.167 132.511 108.107C132.511 106.048 130.548 104.279 130.548 104.279C130.548 104.279 129.573 104.807 128.955 104.697Z" fill="white" stroke="#4E4D4D" stroke-width="1.06068" stroke-miterlimit="10" stroke-linecap="round"/>
<path d="M116.108 24.9929C116.108 24.9929 115.278 30.1383 115.559 31.4144C116.2 34.2704 118.448 34.1479 119.855 33.6017C121.169 33.0912 122.481 31.2868 122.649 31.0494C122.661 31.0327 122.678 31.0202 122.698 31.0137C122.907 30.955 124.206 30.5415 124.778 29.5385C125.403 28.4436 124.232 27.9765 124.232 27.9765" fill="white"/>
<mask id="mask0_0_16433" style="mask-type:luminance" maskUnits="userSpaceOnUse" x="115" y="24" width="10" height="10">
<path d="M116.108 24.9929C116.108 24.9929 115.278 30.1383 115.559 31.4144C116.2 34.2704 118.448 34.1479 119.855 33.6017C121.169 33.0912 122.481 31.2868 122.649 31.0494C122.661 31.0327 122.678 31.0202 122.698 31.0137C122.907 30.955 124.206 30.5415 124.778 29.5385C125.403 28.4436 124.232 27.9765 124.232 27.9765" fill="white"/>
</mask>
<g mask="url(#mask0_0_16433)">
<g style="mix-blend-mode:multiply" opacity="0.5">
<path d="M121.43 32.3738L122.67 31.0109C122.67 31.0109 124.138 30.5591 124.779 29.5255C125.154 28.9206 124.947 28.3923 124.72 28.2493C124.409 28.0808 124.087 27.9317 123.758 27.8027L123.342 28.719L122.987 28.7802C122.987 28.7802 123.135 27.8359 122.706 27.2769C122.277 26.718 122.18 25.0999 122.18 25.0999C122.18 25.0999 121.581 28.3259 121.507 29.6761C121.488 30.4274 121.253 31.1575 120.83 31.7791C120.83 31.7791 120.907 32.6035 121.055 33.4279C121.073 33.5249 121.091 33.6703 121.109 33.8515L121.313 33.5249L121.425 33.8362C121.297 33.3003 121.239 32.7311 121.43 32.3738Z" fill="#1A377D"/>
</g>
</g>
<path d="M116.108 24.9929C116.108 24.9929 115.278 30.1383 115.559 31.4144C116.2 34.2704 118.448 34.1479 119.855 33.6017C121.169 33.0912 122.481 31.2868 122.649 31.0494C122.661 31.0327 122.678 31.0202 122.698 31.0137C122.907 30.955 124.206 30.5415 124.778 29.5385C125.403 28.4436 124.232 27.9765 124.232 27.9765" stroke="#4E4D4D" stroke-width="1.06068" stroke-miterlimit="10" stroke-linecap="round"/>
<path d="M119.283 27.6089C119.234 27.8131 119.283 27.9969 119.377 28.0198C119.472 28.0428 119.599 27.8999 119.648 27.6982C119.696 27.4966 119.648 27.3129 119.554 27.2873C119.459 27.2618 119.331 27.4073 119.283 27.6089Z" fill="#4E4D4D"/>
<path d="M117.091 27.076C117.042 27.2802 117.091 27.4639 117.185 27.4869C117.279 27.5099 117.407 27.367 117.456 27.1653C117.504 26.9637 117.456 26.7774 117.361 26.7544C117.267 26.7314 117.137 26.8718 117.091 27.076Z" fill="#4E4D4D"/>
<path d="M120.644 26.7159C120.523 26.5037 120.352 26.325 120.144 26.1962C119.937 26.0673 119.701 25.9924 119.457 25.9783" stroke="#4E4D4D" stroke-width="1.06068" stroke-miterlimit="10" stroke-linecap="round"/>
<path d="M117.778 26.0164C117.577 25.9286 117.354 25.904 117.139 25.946C116.924 25.9879 116.727 26.0944 116.573 26.2512" stroke="#4E4D4D" stroke-width="1.06068" stroke-miterlimit="10" stroke-linecap="round"/>
<path d="M117.927 26.9458C117.932 27.2877 117.906 27.6293 117.85 27.9667C117.766 28.3929 117.434 28.4772 117.519 28.8064C117.603 29.1356 118.029 29.1688 118.029 29.1688" stroke="#4E4D4D" stroke-width="1.06068" stroke-miterlimit="10" stroke-linecap="round"/>
<path d="M118.471 30.4981C118.652 30.5556 118.843 30.5733 119.031 30.55C119.219 30.5266 119.4 30.4627 119.561 30.3628" stroke="#4E4D4D" stroke-width="1.06068" stroke-miterlimit="10" stroke-linecap="round"/>
<path d="M122.516 21.3997C122.516 21.3997 120.798 19.9143 119.157 19.9143C117.516 19.9143 116.186 20.8535 115.17 20.9352C114.155 21.0169 113.453 20.0751 112.827 21.3257C112.202 22.5763 114.548 24.687 116.11 24.9984C117.672 25.3098 119.859 24.8427 120.484 24.7636C121.083 24.7225 121.685 24.7225 122.284 24.7636C122.284 24.7636 121.814 26.249 122.284 26.7186C122.753 27.1882 122.83 27.4996 122.83 27.811C122.857 28.1546 122.909 28.4959 122.985 28.8319L123.455 28.9901L123.69 28.13C124.323 27.4544 124.757 26.6157 124.94 25.7079C125.173 24.3016 124.001 22.9004 124.001 22.9004L122.516 21.3997Z" fill="#4E4D4D"/>
<path d="M115.935 24.3572C115.935 24.3572 118.607 24.8677 120.7 23.9974C122.793 23.1271 120.988 21.3992 120.988 21.3992" stroke="white" stroke-width="0.530341" stroke-miterlimit="10" stroke-linecap="round"/>
<path d="M121.429 21.2539C121.646 21.2539 123.45 22.6245 123.088 23.6352C122.726 24.6459 122.006 24.7199 122.006 24.7199" stroke="white" stroke-width="0.530341" stroke-miterlimit="10" stroke-linecap="round"/>
<path d="M121.133 52.2564L118.877 51.067C118.297 51.0349 117.72 50.9598 117.151 50.8424C116.626 50.6918 111.23 50.1763 111.23 50.1763L111.148 51.4524C111.148 51.4524 117.302 52.2793 118.576 52.4299C119.849 52.5805 120.977 53.1803 121.202 53.5555C121.426 53.9306 121.878 54.3058 121.654 55.342C121.429 56.3783 119.928 57.8943 119.928 57.8943C119.857 57.7871 123.537 57.5217 123.501 57.1286C123.422 56.3476 123.006 54.0659 123.006 54.0659L121.133 52.2564Z" fill="#1A377D"/>
<path opacity="0.5" d="M121.133 52.2564L118.877 51.067C118.297 51.0349 117.72 50.9598 117.151 50.8424C116.626 50.6918 111.23 50.1763 111.23 50.1763L111.148 51.4524C111.148 51.4524 117.302 52.2793 118.576 52.4299C119.849 52.5805 120.977 53.1803 121.202 53.5555C121.426 53.9306 121.878 54.3058 121.654 55.342C121.429 56.3783 119.928 57.8943 119.928 57.8943C119.87 57.7794 123.545 57.5191 123.501 57.1286C123.381 56.1332 123.006 54.0659 123.006 54.0659L121.133 52.2564Z" fill="white"/>
<path d="M128.577 39.7705C128.378 38.8364 126.892 38.9614 125.996 38.4433C125.101 37.9252 122.934 36.7257 122.934 36.7257L121.885 35.1484C121.695 34.7231 121.543 34.2825 121.428 33.8314L121.316 33.52L121.111 33.8467C121.242 35.2453 121.367 38.8262 121.367 38.8262L121.816 41.0773C121.816 41.0773 123.544 48.5043 123.993 50.1556C124.442 51.8069 124.442 52.9299 124.144 53.4557C123.845 53.9815 123.944 54.2214 123.944 54.2214C123.944 54.2214 125.116 53.3153 125.044 52.4169C124.95 51.3603 128.717 40.4035 128.577 39.7705Z" fill="#1A377D"/>
<path opacity="0.5" d="M128.577 39.7705C128.475 38.8211 126.892 38.9614 125.996 38.4433C125.101 37.9252 122.934 36.7257 122.934 36.7257L121.885 35.1484C121.695 34.7231 121.543 34.2825 121.428 33.8314L121.316 33.52L121.111 33.8467C121.242 35.2453 121.367 38.8262 121.367 38.8262L121.816 41.0773C121.816 41.0773 123.544 48.5043 123.993 50.1556C124.442 51.8069 124.442 52.9299 124.144 53.4557C123.845 53.9815 123.944 54.2214 123.944 54.2214C123.944 54.2214 125.149 53.3128 125.044 52.4169C124.925 51.4547 128.669 40.5591 128.577 39.7705Z" fill="white"/>
<path d="M122.02 38.8344C122.02 38.8344 121.55 34.6155 121.315 33.5206C121.08 32.4257 121.239 31.8029 120.223 31.8029C119.207 31.8029 117.956 31.6447 118.181 32.1934C118.406 32.7421 119.968 32.27 120.223 32.5048C120.478 32.7396 120.299 33.2858 120.299 33.2858C120.299 33.2858 118.258 33.444 118.258 33.9902C118.258 34.5364 118.337 36.032 118.727 36.1775C119.118 36.323 119.273 35.4756 119.273 35.4756C119.273 35.4756 119.352 37.2622 119.743 37.8977C119.992 38.2902 120.28 38.6562 120.603 38.9901L122.02 38.8344Z" fill="white" stroke="#4E4D4D" stroke-width="1.06068" stroke-miterlimit="10" stroke-linecap="round"/>
<path d="M120.612 40.0053C120.612 40.0053 120.377 49.7039 120.768 51.2582C121.158 52.8126 123.269 54.9309 124.362 53.9151C125.454 52.8993 124.91 50.7121 124.91 49.6963C124.91 48.6805 122.409 41.1794 122.409 40.6306C122.372 40.175 122.266 39.7275 122.095 39.3035" stroke="#4E4D4D" stroke-width="1.06068" stroke-miterlimit="10" stroke-linecap="round"/>
<path d="M120.77 41.1797L122.332 41.0215" stroke="#4E4D4D" stroke-width="1.06068" stroke-miterlimit="10" stroke-linecap="round"/>
<path d="M110.78 46.0287L111.081 37.3995C111.081 37.3995 110.706 37.1749 110.555 37.9993C110.404 38.8237 110.33 40.4775 110.33 40.4775C110.33 40.4775 108.529 39.352 108.98 40.0258C109.432 40.6996 110.18 42.2029 110.18 42.2029L107.393 44.9772L108.669 45.5029L110.78 46.0287Z" fill="#1A377D"/>
<path opacity="0.5" d="M110.78 46.0287L111.081 37.3995C111.081 37.3995 110.706 37.1749 110.555 37.9993C110.404 38.8237 110.33 40.4775 110.33 40.4775C110.33 40.4775 108.529 39.352 108.98 40.0258C109.432 40.6996 110.18 42.2029 110.18 42.2029L107.393 44.9772L108.669 45.5029L110.78 46.0287Z" fill="white"/>
<path d="M114.515 39.3268C114.515 39.3268 114.372 39.8373 114.972 39.8373C115.572 39.8373 116.626 39.4111 116.626 39.4111L116.549 38.5637C116.549 38.5637 115.107 39.2656 114.515 39.3268Z" fill="#1A377D"/>
<path opacity="0.5" d="M114.515 39.3268C114.515 39.3268 114.372 39.8373 114.972 39.8373C115.572 39.8373 116.626 39.4111 116.626 39.4111L116.549 38.5637C116.549 38.5637 115.107 39.2656 114.515 39.3268Z" fill="white"/>
<path d="M117.092 33.6199C117.092 33.6199 116.311 38.2139 116.78 39.2348C117.25 40.2557 117.952 40.0158 118.498 39.5488C119.044 39.0817 119.749 37.9077 119.749 37.9077" stroke="#4E4D4D" stroke-width="1.06068" stroke-miterlimit="10" stroke-linecap="round"/>
<path d="M110.923 50.2422L111.081 56.6509C111.081 56.6509 112.868 58.3686 116.316 58.3686C119.764 58.3686 123.506 57.118 123.506 57.118V54.8516" stroke="#4E4D4D" stroke-width="1.06068" stroke-miterlimit="10" stroke-linecap="round"/>
<path d="M121.474 34.5361C121.474 34.5361 122.88 35.9424 122.88 37.2722C122.88 38.6019 122.645 38.9133 122.645 38.9133" stroke="#4E4D4D" stroke-width="1.06068" stroke-miterlimit="10" stroke-linecap="round"/>
<path d="M122.722 36.491C122.722 36.491 124.833 37.739 126.004 38.4434C127.176 39.1479 128.585 39.1453 128.585 39.7706C128.585 40.3959 125.302 51.0235 125.302 51.0235" stroke="#4E4D4D" stroke-width="1.06068" stroke-miterlimit="10" stroke-linecap="round"/>
<path d="M124.05 40.0054L123.269 43.1319" stroke="#4E4D4D" stroke-width="1.06068" stroke-miterlimit="10" stroke-linecap="round"/>
<path d="M110.943 41.8404L109.68 39.1912" stroke="#4E4D4D" stroke-width="0.530341" stroke-miterlimit="10" stroke-linecap="round"/>
<path d="M110.944 42.5986L109.05 41.4629" stroke="#4E4D4D" stroke-width="0.530341" stroke-miterlimit="10" stroke-linecap="round"/>
<path d="M117.122 48.5247L116.744 50.4184" stroke="#4E4D4D" stroke-width="0.530341" stroke-miterlimit="10" stroke-linecap="round"/>
<path d="M127.338 39.6968C127.338 39.6968 125.447 40.0745 123.681 42.2184" stroke="#4E4D4D" stroke-width="0.530341" stroke-miterlimit="10" stroke-linecap="round"/>
<path d="M126.079 39.5818C126.079 39.5818 125.568 39.4541 123.81 40.9676" stroke="#4E4D4D" stroke-width="0.530341" stroke-miterlimit="10" stroke-linecap="round"/>
<path d="M117.121 40.2017L116.366 46.128L116.996 46.2556L117.501 44.3644" stroke="#4E4D4D" stroke-width="0.530341" stroke-miterlimit="10" stroke-linecap="round"/>
<path d="M117.628 55.7148C115.356 57.6086 112.204 57.481 112.204 57.481" stroke="#4E4D4D" stroke-width="0.530341" stroke-miterlimit="10" stroke-linecap="round"/>
<path d="M108.028 45.4217C108.028 45.4217 106.484 44.0077 104.297 45.807" stroke="#4E4D4D" stroke-width="0.530341" stroke-miterlimit="10" stroke-linecap="round"/>
<path d="M116.941 34.771C116.941 34.771 116.316 34.9267 115.612 36.0216C114.907 37.1165 114.05 38.9899 114.675 39.1456C115.3 39.3013 116.462 38.5994 116.462 38.5994" stroke="#4E4D4D" stroke-width="1.06068" stroke-miterlimit="10" stroke-linecap="round"/>
<path d="M119.363 38.9128L120.144 39.6147" stroke="#4E4D4D" stroke-width="1.06068" stroke-miterlimit="10" stroke-linecap="round"/>
<path d="M115.846 35.5518C115.846 35.5518 112.955 35.9423 111.783 36.0214C110.612 36.1005 110.839 36.5318 110.456 36.8024C109.838 37.2337 102.753 46.2151 102.289 47.0752C101.824 47.9353 101.898 48.3258 102.679 48.5606C103.46 48.7954 111.239 50.1634 111.239 50.1634L118.113 50.8679L118.659 49.1476C118.659 49.1476 120.257 49.3595 120.537 49.3595" stroke="#4E4D4D" stroke-width="1.06068" stroke-miterlimit="10" stroke-linecap="round"/>
<path d="M117.876 48.5146C116.359 48.0746 114.893 47.4757 113.501 46.728" stroke="#4E4D4D" stroke-width="1.06068" stroke-miterlimit="10" stroke-linecap="round"/>
<path d="M112.879 46.5696C112.879 46.5696 110.582 45.7172 109.339 45.5615C108.096 45.4058 106.192 45.3547 106.192 45.3547" stroke="#4E4D4D" stroke-width="1.06068" stroke-miterlimit="10" stroke-linecap="round"/>
<path d="M110.767 45.5538L111.002 39.3799" stroke="#4E4D4D" stroke-width="1.06068" stroke-miterlimit="10" stroke-linecap="round"/>
<path d="M118.113 50.8679C118.649 51.1375 119.21 51.353 119.789 51.5111" stroke="#4E4D4D" stroke-width="1.06068" stroke-miterlimit="10" stroke-linecap="round"/>
<path d="M15.8455 45.895L16.7669 40.8594L22.5988 38.5624C22.5988 38.5624 22.8821 36.9978 23.1679 36.9289C23.4538 36.86 23.7345 36.2168 23.7345 36.2168L23.5941 34.9279C23.5941 34.9279 24.1276 32.8861 26.81 34.4762C26.81 34.4762 25.9984 35.0173 26.1388 35.2419C26.2791 35.4665 25.9831 36.1811 26.3378 36.1811C26.6926 36.1811 27.4098 36.6329 27.7722 36.9978C28.0259 37.2704 28.25 37.5689 28.4409 37.8886L31.4602 38.0621C31.7697 38.0647 32.0776 38.1067 32.3765 38.1872C32.4275 36.712 32.2463 35.5864 31.889 34.711C30.5899 31.5513 28.2214 30.4232 27.8819 28.8408C27.5425 27.2584 27.7135 27.0925 27.7135 27.0925C28.0586 26.7416 28.3114 26.3105 28.449 25.8379C28.5866 25.3653 28.6049 24.866 28.5021 24.3846C28.1652 22.6924 26.8661 21.5056 22.1828 21.281C17.4994 21.0564 18.1783 24.2697 18.1783 24.2697L18.2344 24.4943C18.2344 24.4943 15.2432 25.5152 15.8098 29.29C16.3764 33.0648 18.0098 34.7059 17.9537 35.8902C17.8975 37.0744 16.1467 37.5261 13.6633 40.229C11.18 42.9318 10.6746 46.9976 11.6904 49.6494C12.2009 50.9536 13.1988 52.0408 14.452 52.8525L15.8455 45.895Z" fill="#4E4D4D"/>
<path d="M19.7558 46.3926V47.5309L17.594 54.2101C18.9448 54.5676 20.3615 54.5973 21.7261 54.2969C22.4964 54.0962 23.2327 53.7822 23.9108 53.3653L19.7558 46.3926Z" fill="#4E4D4D"/>
<path d="M25.9701 35.2013L26.2253 36.3498C26.2253 36.3498 26.991 35.5841 28.4866 37.9092C28.4866 37.9092 31.5953 37.8352 32.4426 38.2589C32.4426 38.2589 32.6187 38.3099 33.193 38.9199C33.7673 39.5299 35.9265 41.4722 35.9265 41.4722C35.9265 41.4722 38.6982 44.0448 38.9739 44.2439C39.2495 44.443 40.2832 45.4307 41.0565 45.7753L43.1289 41.0561L44.0528 38.7208L44.5633 36.799H44.7266L44.7624 35.2498L44.6373 33.4019C44.6577 33.308 44.7006 33.2204 44.7624 33.1467C44.9764 32.8501 45.141 32.5209 45.2499 32.1717C45.2499 31.9982 45.0738 30.9722 45.0738 30.9722C45.0738 30.9722 44.987 30.7169 45.1758 30.6863C45.3647 30.6557 46.0615 30.8982 46.1483 31.3856L46.4035 31.2989C46.6148 30.7939 46.8783 30.3123 47.1896 29.8619C47.603 29.326 48.0267 28.9891 48.2896 29.1626C48.3617 29.2124 48.4137 29.2863 48.4362 29.371C48.4587 29.4557 48.4501 29.5456 48.4121 29.6246L47.5903 31.1355C47.5903 31.1355 47.2279 31.623 47.6771 31.7965C47.6771 31.7965 48.6495 32.4219 48.7133 32.9706C48.7771 33.5193 48.4249 33.9915 48.1135 34.3947C47.8021 34.798 47.2534 35.6709 47.2534 35.6709L46.6153 36.2349L46.3601 37.2073L46.6613 37.5825L46.2121 39.5299L45.8879 40.9898L45.7246 41.8754L44.7037 45.372L43.6828 48.4194C43.6828 48.4194 43.157 50.1651 41.8834 50.1167C40.6099 50.0682 39.2138 49.3791 38.762 49.1545C38.3103 48.9299 34.5865 46.985 34.5865 46.985L33.8208 46.6226C33.923 46.9712 33.967 47.3342 33.951 47.6971C33.9383 48.3709 33.2134 49.8563 33.0016 50.1932L32.8765 52.8272C32.8271 53.2841 32.8357 53.7455 32.902 54.2003C33.0143 54.8868 33.5886 58.7714 33.7137 59.2563C33.7137 59.2563 32.4733 60.3793 28.7776 60.9127C25.0819 61.4461 23.3515 60.5809 23.3515 60.5809L21.7053 59.6136L23.7343 55.604C23.7343 55.604 24.2448 54.4121 24.1937 54.0982C24.1427 53.7842 23.2698 52.4315 23.2698 52.4315L20.0667 46.7298L19.9161 46.7809L19.4185 48.4449L17.6191 54.088L15.2506 61.1322C15.2506 61.1322 14.6023 62.9188 14.3344 63.4471L13.5866 65.7263C13.6281 66.1334 13.7287 66.5323 13.8852 66.9105L12.0042 65.6931L12.3385 63.9065L12.7545 61.2419L13.265 58.3451L13.7142 55.9486L14.4313 52.7531L14.6866 51.8701L15.197 49.3739L16.0954 44.8462L16.8611 40.9694L22.2208 38.8382L22.5552 38.583C22.6295 38.0896 22.8107 37.6184 23.0861 37.2022C23.2772 36.9285 23.5047 36.682 23.7624 36.4697C23.7624 36.4697 23.7369 36.1354 23.719 35.8189C23.7011 35.5024 23.6195 34.9205 23.6195 34.9205C23.6195 34.9205 25.2759 35.6326 25.9701 35.2013Z" fill="white"/>
<path d="M18.7896 24.9433C18.7896 24.9433 19.7824 22.7458 21.768 22.7458C23.7537 22.7458 27.8654 26.6457 27.8654 26.6457" stroke="white" stroke-width="0.530341" stroke-miterlimit="10" stroke-linecap="round"/>
<path d="M19.64 25.2904C19.64 25.2904 20.8447 24.0143 22.3352 24.5094C23.8257 25.0045 24.0376 26.7784 24.0376 26.7784" stroke="white" stroke-width="0.530341" stroke-miterlimit="10" stroke-linecap="round"/>
<path d="M18.6483 25.51C18.6483 25.51 16.877 26.5028 16.7341 28.3481C16.5912 30.1934 19.2149 32.3883 19.5697 34.8717C19.9244 37.355 18.0817 37.9191 15.1032 39.9762C12.1247 42.0333 12.6224 46.6401 13.2605 47.633" stroke="white" stroke-width="0.530341" stroke-miterlimit="10" stroke-linecap="round"/>
<path d="M13.6155 48.2024C13.6155 48.2024 14.0392 49.1238 14.6772 49.4071" stroke="white" stroke-width="0.530341" stroke-miterlimit="10" stroke-linecap="round"/>
<path d="M18.8619 30.3315C18.778 30.5117 18.7404 30.7098 18.7524 30.9082C18.7645 31.1065 18.8258 31.2987 18.9308 31.4673C19.2856 32.1054 21.9935 35.2957 21.7689 36.7862C21.5443 38.2767 20.138 39.1955 20.138 39.1955" stroke="white" stroke-width="0.530341" stroke-miterlimit="10" stroke-linecap="round"/>
<path d="M20.2082 25.51C20.2082 25.51 18.5773 26.2195 18.6488 27.8504C18.7202 29.4813 19.075 29.9075 19.075 29.9075" stroke="white" stroke-width="0.530341" stroke-miterlimit="10" stroke-linecap="round"/>
<path d="M27.8666 30.9058C28.3733 32.053 29.0687 33.1072 29.9237 34.0246C31.1998 35.3007 31.3402 37.146 31.3402 37.146" stroke="white" stroke-width="0.530341" stroke-miterlimit="10" stroke-linecap="round"/>
<path d="M29.3557 34.9409C29.3557 34.9409 29.9938 36.4314 29.9938 37.3528" stroke="white" stroke-width="0.530341" stroke-miterlimit="10" stroke-linecap="round"/>
<path d="M25.8228 35.3366L23.8193 37.141C23.8193 37.141 23.6049 37.6872 23.2017 38.5626C22.7984 39.4381 22.8648 41.1149 22.8648 41.1149L24.1001 43.5727C24.1001 43.5727 21.7239 40.8469 21.5886 40.51C21.4534 40.1731 18.9675 40.7806 18.4979 40.9822C18.0282 41.1838 17.4208 41.5871 17.5561 42.192C17.6913 42.7968 18.2962 43.6008 18.0257 43.7361C17.7552 43.8713 17.0175 43.5344 17.0175 43.9377C17.0175 44.341 17.893 45.8876 17.4897 46.4236C17.0865 46.9596 14.5316 55.6321 14.5316 55.6321C14.5316 55.6321 16.1447 54.2871 15.7414 54.8256C15.3382 55.3642 13.3908 59.7311 13.3908 59.7311L12.6506 62.2833L14.3989 53.2126L15.8767 45.5558L16.7649 40.8597C17.6224 40.5738 22.5968 38.5626 22.5968 38.5626C22.5968 38.5626 22.9898 36.9088 23.7325 36.2171L23.5922 34.9282C23.5922 34.9282 24.9474 35.4029 25.8228 35.3366Z" fill="#1A377D"/>
<path opacity="0.5" d="M25.8228 35.3366L23.8193 37.141C23.8193 37.141 23.6049 37.6872 23.2017 38.5626C22.7984 39.4381 22.8648 41.1149 22.8648 41.1149L24.1001 43.5727C24.1001 43.5727 21.7239 40.8469 21.5886 40.51C21.4534 40.1731 18.9675 40.7806 18.4979 40.9822C18.0282 41.1838 17.4208 41.5871 17.5561 42.192C17.6913 42.7968 18.2962 43.6008 18.0257 43.7361C17.7552 43.8713 17.0175 43.5344 17.0175 43.9377C17.0175 44.341 17.893 45.8876 17.4897 46.4236C17.0865 46.9596 14.5316 55.6321 14.5316 55.6321C14.5316 55.6321 16.1447 54.2871 15.7414 54.8256C15.3382 55.3642 13.3908 59.7311 13.3908 59.7311L12.6506 62.2833L14.3989 53.2126L15.8767 45.5558L16.7649 40.8597C17.6224 40.5738 22.5968 38.5626 22.5968 38.5626C22.5968 38.5626 22.704 37.0313 23.7351 36.4953L23.5922 34.9282C23.5922 34.9282 24.9474 35.4029 25.8228 35.3366Z" fill="white"/>
<path d="M33.2816 44.4071C33.2816 44.4071 34.4914 42.3934 34.6267 42.863C34.7619 43.3326 34.2898 44.9431 34.2898 44.9431C34.2898 44.9431 35.5659 44.4735 35.4332 44.8767C35.3005 45.28 35.0299 45.4816 35.0963 45.6832C35.1626 45.8849 39.5321 48.1691 40.0706 48.4371C40.6091 48.7051 41.8853 47.161 42.4902 47.6306C43.095 48.1002 42.4902 49.7107 41.2804 49.7133C40.0706 49.7158 36.5766 48.1819 36.5766 48.1819L33.8252 46.5816" fill="#1A377D"/>
<path opacity="0.5" d="M33.2816 44.4071C33.2816 44.4071 34.4914 42.3934 34.6267 42.863C34.7619 43.3326 34.2898 44.9431 34.2898 44.9431C34.2898 44.9431 35.5659 44.4735 35.4332 44.8767C35.3005 45.28 35.0299 45.4816 35.0963 45.6832C35.1626 45.8849 39.5321 48.1691 40.0706 48.4371C40.6091 48.7051 41.8853 47.161 42.4902 47.6306C43.095 48.1002 42.4902 49.7107 41.2804 49.7133C40.0706 49.7158 36.5766 48.1819 36.5766 48.1819L33.8355 46.5867" fill="white"/>
<path d="M26.0259 52.5384C26.0259 52.5384 33.8817 48.3732 32.6056 49.9173C31.3295 51.4614 27.1004 53.2122 26.0259 52.5384Z" fill="#1A377D"/>
<path opacity="0.5" d="M26.0259 52.5384C26.0259 52.5384 33.8817 48.3732 32.6056 49.9173C31.3295 51.4614 27.1004 53.2122 26.0259 52.5384Z" fill="white"/>
<path d="M23.594 34.9409C23.594 34.9409 23.6501 36.0129 23.8211 37.141C23.9921 38.2691 23.9334 38.2691 25.0054 39.6218C26.0773 40.9745 27.2054 42.1051 27.3739 41.8805" stroke="#4E4D4D" stroke-width="1.06068" stroke-miterlimit="10" stroke-linecap="round"/>
<path d="M27.4311 41.4849C27.4311 41.4849 27.5434 39.5094 27.1503 38.2129C26.7573 36.9163 26.1907 36.462 26.1907 36.1711C26.1716 35.8679 26.1341 35.5662 26.0784 35.2676" stroke="#4E4D4D" stroke-width="1.06068" stroke-miterlimit="10" stroke-linecap="round"/>
<path d="M23.5932 36.5769C23.1424 36.9828 22.827 37.5174 22.6897 38.1083C22.5212 39.0092 22.3528 40.0812 22.3528 40.0812L24.1011 43.5803C24.2533 42.971 24.4805 42.3829 24.7774 41.8295C24.9245 41.5563 25.115 41.3089 25.3415 41.097" stroke="#4E4D4D" stroke-width="1.06068" stroke-miterlimit="10" stroke-linecap="round"/>
<path d="M27.8259 40.5251C27.9494 40.4942 28.0777 40.4882 28.2035 40.5075C28.3293 40.5268 28.4499 40.571 28.5584 40.6374C29.0102 40.8646 29.9137 42.0488 29.9137 42.0488C29.9137 42.0488 29.2935 39.1137 28.2215 37.5926C27.1496 36.0714 26.4146 36.1812 26.4146 36.1812" stroke="#4E4D4D" stroke-width="1.06068" stroke-miterlimit="10" stroke-linecap="round"/>
<path d="M22.1829 38.7769L16.767 40.8595C16.767 40.8595 14.7941 51.6351 14.0591 54.5115C13.324 57.3879 12.0862 65.5143 12.0862 65.5143L13.5512 65.7951L14.0616 64.3301" stroke="#4E4D4D" stroke-linecap="round" stroke-linejoin="round"/>
<path d="M14.3408 63.4878C14.3408 63.4878 14.6777 62.9773 15.5812 60.1699C16.4847 57.3624 18.8992 50.4713 19.305 49.1109C19.7108 47.7506 20.0375 46.8547 20.0375 46.8547" stroke="#4E4D4D" stroke-width="1.06068" stroke-miterlimit="10" stroke-linecap="round"/>
<path d="M19.0803 45.1982C19.0803 45.1982 23.6489 53.3655 24.0445 53.7177C24.4401 54.0699 23.876 55.0142 23.7612 55.5221" stroke="#4E4D4D" stroke-width="1.06068" stroke-miterlimit="10" stroke-linecap="round"/>
<path d="M23.2545 56.5477L21.7896 59.5951C21.7896 59.5951 22.7492 61.0627 26.8098 61.0627C29.2264 61.0701 31.6083 60.4884 33.7494 59.368C33.7494 59.368 32.7898 54.2915 32.8459 53.388C32.9021 52.4845 33.0169 50.116 33.0169 50.116C33.0169 50.116 34.0378 48.5847 33.9179 47.4081C33.7979 46.2315 33.2977 44.8686 33.2977 44.644C33.2977 44.4194 33.1854 41.9922 33.1854 41.9922" stroke="#4E4D4D" stroke-width="1.06068" stroke-miterlimit="10" stroke-linecap="round"/>
<path d="M26.801 51.533L30.8438 49.0522" stroke="#4E4D4D" stroke-width="0.530341" stroke-miterlimit="10" stroke-linecap="round"/>
<path d="M28.9319 50.7544L31.1294 49.4783" stroke="#4E4D4D" stroke-width="0.530341" stroke-miterlimit="10" stroke-linecap="round"/>
<path d="M41.0277 45.8286L40.2034 47.8475" stroke="#4E4D4D" stroke-width="0.530341" stroke-miterlimit="10" stroke-linecap="round"/>
<path d="M40.6987 46.7114L39.9203 47.4924" stroke="#4E4D4D" stroke-width="0.530341" stroke-miterlimit="10" stroke-linecap="round"/>
<path d="M17.6559 53.8757C17.6559 53.8757 16.3083 55.4352 15.387 56.0732" stroke="#4E4D4D" stroke-width="0.530341" stroke-miterlimit="10" stroke-linecap="round"/>
<path d="M16.876 54.2993C16.876 54.2993 14.5356 56.142 13.969 56.5683" stroke="#4E4D4D" stroke-width="0.530341" stroke-miterlimit="10" stroke-linecap="round"/>
<path d="M17.2915 41.1809C17.997 42.1785 18.6365 43.2212 19.2057 44.3023" stroke="#4E4D4D" stroke-width="0.530341" stroke-miterlimit="10" stroke-linecap="round"/>
<path d="M19.429 44.7976L19.9241 45.6475" stroke="#4E4D4D" stroke-width="0.530341" stroke-miterlimit="10" stroke-linecap="round"/>
<path d="M33.2971 44.6446L33.9173 41.4849" stroke="#4E4D4D" stroke-width="0.530341" stroke-miterlimit="10" stroke-linecap="round"/>
<path d="M33.5244 44.8691L34.4815 43.5164" stroke="#4E4D4D" stroke-width="0.530341" stroke-miterlimit="10" stroke-linecap="round"/>
<path d="M20.0383 46.8443L17.3303 45.3767" stroke="#4E4D4D" stroke-width="0.530341" stroke-miterlimit="10" stroke-linecap="round"/>
<path d="M27.3157 42.1614C27.3157 42.1614 28.3366 44.2032 28.6709 45.6605" stroke="#4E4D4D" stroke-width="0.530341" stroke-miterlimit="10" stroke-linecap="round"/>
<path d="M44.0725 38.6058C44.3425 38.5859 44.6138 38.6208 44.87 38.7086C45.1261 38.7963 45.3619 38.935 45.563 39.1162" stroke="#4E4D4D" stroke-width="0.530341" stroke-miterlimit="10" stroke-linecap="round"/>
<path d="M13.0646 64.1133L13.7639 64.3736" stroke="#4E4D4D" stroke-width="0.530341" stroke-miterlimit="10" stroke-linecap="round"/>
<path d="M12.0668 65.6165C12.0755 66.5868 12.0244 67.5568 11.9136 68.5209C11.7452 69.7077 11.8013 72.4157 12.0259 73.2605C12.2505 74.1053 12.3654 74.2814 12.59 73.7709C12.8146 73.2605 13.4935 70.2743 13.4935 70.2743C13.4935 70.2743 13.6058 72.2472 14.1137 72.0788C14.6216 71.9103 14.3408 70.9507 14.3408 70.1033C14.3408 69.256 14.397 68.9752 14.3408 68.2989C14.2847 67.6225 13.5317 65.9508 13.5317 65.9508" fill="white"/>
<path d="M12.0668 65.6165C12.0755 66.5868 12.0244 67.5568 11.9136 68.5209C11.7452 69.7077 11.8013 72.4157 12.0259 73.2605C12.2505 74.1053 12.3654 74.2814 12.59 73.7709C12.8146 73.2605 13.4935 70.2743 13.4935 70.2743C13.4935 70.2743 13.6058 72.2472 14.1137 72.0788C14.6216 71.9103 14.3408 70.9507 14.3408 70.1033C14.3408 69.256 14.397 68.9752 14.3408 68.2989C14.2847 67.6225 13.5317 65.9508 13.5317 65.9508" stroke="#4E4D4D" stroke-miterlimit="10" stroke-linecap="round"/>
<path d="M44.7329 36.7554C44.7072 36.2563 44.7072 35.7563 44.7329 35.2572C44.7788 34.7876 44.5925 34.0857 44.6385 33.4707C44.6844 32.8556 45.2944 32.6284 45.1999 31.8321C45.1055 31.0358 44.9192 30.9414 45.0596 30.7551C45.1999 30.5687 46.0805 30.8469 46.1366 31.3625C46.1867 31.893 46.1867 32.4271 46.1366 32.9576C46.0907 33.098 46.4174 33.9786 46.2311 34.3614C46.1243 34.5688 46.0454 34.7893 45.9963 35.0173" stroke="#4E4D4D" stroke-width="0.880843" stroke-miterlimit="10" stroke-linecap="round"/>
<path d="M46.3254 31.3218C46.3254 31.3218 47.4025 29.1677 48.0125 29.1192C48.6225 29.0707 48.4336 29.6296 48.2447 29.9155C48.0559 30.2013 47.4484 31.2273 47.4025 31.651C47.3566 32.0747 46.7925 33.4759 46.7925 33.4759" stroke="#4E4D4D" stroke-width="0.880843" stroke-miterlimit="10" stroke-linecap="round"/>
<path d="M47.4084 31.6511C47.4084 31.6511 49.0495 32.6337 48.6846 33.4377C48.3196 34.2417 48.1205 34.5632 47.8398 34.4586C47.5908 34.3314 47.3683 34.1582 47.1838 33.9482" stroke="#4E4D4D" stroke-width="0.880843" stroke-miterlimit="10" stroke-linecap="round"/>
<path d="M48.012 34.4609C48.012 34.4609 47.5883 35.1628 47.2616 35.5865C47.0737 35.8312 46.851 36.047 46.6006 36.2271L46.4015 36.9188" stroke="#4E4D4D" stroke-width="0.880843" stroke-miterlimit="10" stroke-linecap="round"/>
<path d="M28.3323 37.8732C28.3323 37.8732 32.2245 37.8171 32.7324 38.4373C33.2403 39.0575 39.3912 44.7005 40.1339 45.2084C40.8766 45.7163 41.0374 45.8286 41.0374 45.8286C41.0374 45.8286 44.0823 38.9375 44.0823 38.6057C44.0823 38.2739 44.5927 36.7451 44.5927 36.7451C44.5927 36.7451 45.5524 36.8574 45.7795 36.8574C46.0067 36.8574 46.6243 37.5925 46.6243 37.5925C46.6243 37.5925 45.7795 41.0329 45.7795 41.4209C45.7795 41.8088 44.1997 47.1762 43.4646 48.8224C42.7296 50.4686 41.7163 50.2312 40.0803 49.7233C38.4443 49.2154 33.9881 46.6785 33.9881 46.6785" stroke="#4E4D4D" stroke-width="1.06068" stroke-miterlimit="10" stroke-linecap="round"/>
<path d="M21.7891 59.5958C21.7891 59.5958 19.5303 65.2465 18.9204 69.0928C18.3104 72.939 18.5707 81.9332 18.3946 82.8954C18.2185 83.8576 15.7734 88.3981 15.7734 90.5828C15.7734 92.7675 14.4641 104.036 14.4641 104.036L15.337 104.559C15.337 104.559 18.3997 95.1156 19.5303 92.6782C20.661 90.2408 22.2383 84.4676 22.6747 83.3318C23.1112 82.1961 26.1713 73.11 26.3449 71.9743C26.5184 70.8385 27.5674 68.0438 27.5674 68.0438C27.5674 68.0438 29.8389 81.9332 30.2753 84.8172C30.7118 87.7013 33.7694 103.336 33.7694 103.336C33.9702 103.386 34.1754 103.415 34.3819 103.423C34.6372 103.423 34.7316 102.987 34.7316 102.987C34.7316 102.987 35.9541 91.8921 35.6045 88.9213C35.2548 85.9504 34.2084 82.2854 34.2084 81.2339C34.2084 80.1823 35.7806 71.1014 35.7806 67.9621C35.7806 64.8228 33.7388 59.3738 33.7388 59.3738C33.7388 59.3738 26.4929 63.0286 21.7891 59.5958Z" fill="#4E4D4D"/>
<path d="M34.176 81.8105C34.176 81.8105 33.3975 85.1438 32.3333 86.9151" stroke="white" stroke-width="0.530341" stroke-miterlimit="10" stroke-linecap="round"/>
<path d="M33.965 85.2148C33.965 85.2148 33.3269 87.6242 32.0508 88.7599" stroke="white" stroke-width="0.530341" stroke-miterlimit="10" stroke-linecap="round"/>
<path d="M18.8625 84.1509C18.8625 84.1509 19.3577 87.0579 19.9243 88.2626" stroke="white" stroke-width="0.530341" stroke-miterlimit="10" stroke-linecap="round"/>
<path d="M18.718 85.8535C18.718 85.8535 19.1442 87.9106 19.9227 89.1153" stroke="white" stroke-width="0.530341" stroke-miterlimit="10" stroke-linecap="round"/>
<path d="M27.795 68.0565L30.6306 65.7161" stroke="white" stroke-width="0.530341" stroke-miterlimit="10" stroke-linecap="round"/>
<path d="M29.1428 67.0635L32.4761 65.573" stroke="white" stroke-width="0.530341" stroke-miterlimit="10" stroke-linecap="round"/>
<path d="M21.8362 63.0918C21.8362 63.0918 24.0362 64.5083 25.3124 65.7155" stroke="white" stroke-width="0.530341" stroke-miterlimit="10" stroke-linecap="round"/>
<path d="M14.5573 104.028C14.5573 104.028 11.2394 106.835 11.2394 108.229C11.2394 109.622 12.5487 109.538 13.9473 108.229C15.346 106.92 15.4174 104.222 15.4174 104.222L14.5573 104.028Z" fill="white" stroke="#4E4D4D" stroke-width="1.06068" stroke-miterlimit="10" stroke-linecap="round"/>
<path d="M33.7698 103.336C33.7698 103.336 34.9055 106.131 36.1306 107.356C37.3557 108.581 38.0525 109.015 38.0525 107.703C38.0525 106.391 37.2664 104.908 34.7345 102.987C34.732 102.987 35.4313 103.51 33.7698 103.336Z" fill="white" stroke="#4E4D4D" stroke-width="1.06068" stroke-miterlimit="10" stroke-linecap="round"/>
<path d="M22.05 25.9796C21.8228 25.8954 21.6084 25.7933 21.3864 25.6989C21.1643 25.6044 20.7585 25.5534 20.6054 26.2501C20.3782 27.271 21.9581 28.1133 21.4502 28.9581C21.1342 29.472 20.6593 29.869 20.0975 30.0887C20.006 30.1202 19.9107 30.1391 19.8142 30.1449C19.3624 30.201 18.6299 30.1449 18.8545 30.9335C19.0791 31.7222 19.8142 32.4011 20.2659 32.4011H20.7177C20.7177 32.4011 21.2281 33.9324 23.1423 34.7696C25.0565 35.6067 26.3582 35.5608 26.8099 34.4888C27.2617 33.4169 27.6011 32.5134 27.6011 31.102C27.6011 29.6906 27.0907 27.3221 27.0907 27.3221C27.0907 27.3221 26.6389 27.9448 24.8906 27.1536C23.7345 26.6304 22.6523 26.2068 22.05 25.9796Z" fill="white"/>
<mask id="mask1_0_16433" style="mask-type:luminance" maskUnits="userSpaceOnUse" x="18" y="25" width="10" height="11">
<path d="M22.048 25.9796C21.8209 25.8954 21.6065 25.7933 21.3844 25.6989C21.1624 25.6044 20.7566 25.5534 20.6034 26.2501C20.3763 27.271 21.9561 28.1133 21.4482 28.9581C21.1323 29.472 20.6574 29.869 20.0955 30.0887C20.0041 30.1202 19.9088 30.1391 19.8122 30.1449C19.3605 30.201 18.628 30.1449 18.8526 30.9335C19.0772 31.7222 19.8122 32.4011 20.264 32.4011H20.7157C20.7157 32.4011 21.2262 33.9324 23.1404 34.7696C25.0546 35.6067 26.3562 35.5608 26.808 34.4888C27.2597 33.4169 27.5992 32.5134 27.5992 31.102C27.5992 29.6906 27.0887 27.3221 27.0887 27.3221C27.0887 27.3221 26.637 27.9448 24.8887 27.1536C23.7325 26.6304 22.6504 26.2068 22.048 25.9796Z" fill="white"/>
</mask>
<g mask="url(#mask1_0_16433)">
<g style="mix-blend-mode:multiply" opacity="0.5">
<path d="M24.8921 27.1538C24.8921 27.1538 22.1944 27.0032 21.7911 27.0696C21.3878 27.136 21.8575 28.3457 21.7247 29.5555C21.592 30.7653 21.6558 32.7152 22.1944 33.3201C22.8298 33.9438 23.5032 34.5276 24.2106 35.0684C24.2106 35.0684 22.1408 34.734 21.3878 33.8586C20.6349 32.9832 20.515 32.5136 20.515 32.5136C20.515 32.5136 18.7667 31.4927 18.6314 30.6989C18.4961 29.9052 19.6523 30.3263 20.2061 29.9332C20.5175 29.7188 21.8064 29.3156 21.4823 28.2411C21.1581 27.1666 20.6349 26.965 20.6145 26.2452C20.5992 25.7348 21.0484 25.5867 21.324 25.5408C21.4483 25.5199 21.576 25.5386 21.689 25.5944L24.8921 27.1538Z" fill="#1A377D"/>
</g>
</g>
<path d="M22.05 25.9796C21.8228 25.8954 21.6084 25.7933 21.3864 25.6989C21.1643 25.6044 20.7585 25.5534 20.6054 26.2501C20.3782 27.271 21.9581 28.1133 21.4502 28.9581C21.1342 29.472 20.6593 29.869 20.0975 30.0887C20.006 30.1202 19.9107 30.1391 19.8142 30.1449C19.3624 30.201 18.6299 30.1449 18.8545 30.9335C19.0791 31.7222 19.8142 32.4011 20.2659 32.4011H20.7177C20.7177 32.4011 21.2281 33.9324 23.1423 34.7696C25.0565 35.6067 26.3582 35.5608 26.8099 34.4888C27.2617 33.4169 27.6011 32.5134 27.6011 31.102C27.6011 29.6906 27.0907 27.3221 27.0907 27.3221C27.0907 27.3221 26.6389 27.9448 24.8906 27.1536C23.7345 26.6304 22.6523 26.2068 22.05 25.9796Z" stroke="#4E4D4D" stroke-width="1.06068" stroke-miterlimit="10" stroke-linecap="round"/>
<path d="M24.0419 29.3231C24.0776 29.5374 24.0189 29.7263 23.9091 29.7442C23.7994 29.762 23.6871 29.6012 23.6539 29.3869C23.6207 29.1725 23.6794 28.981 23.7866 28.9632C23.8938 28.9453 24.0061 29.1189 24.0419 29.3231Z" fill="#4E4D4D"/>
<path d="M26.3782 28.9329C26.4113 29.1473 26.3526 29.3361 26.2454 29.354C26.1382 29.3719 26.0234 29.2111 25.9902 28.9967C25.957 28.7823 26.0132 28.5934 26.1204 28.5756C26.2276 28.5577 26.3424 28.7185 26.3782 28.9329Z" fill="#4E4D4D"/>
<path d="M22.6897 28.2818C22.8325 28.0696 23.0262 27.8964 23.2531 27.7783C23.4801 27.6601 23.733 27.6007 23.9888 27.6055" stroke="#4E4D4D" stroke-width="1.06068" stroke-miterlimit="10" stroke-linecap="round"/>
<path d="M25.7386 27.7742C25.9554 27.6984 26.1902 27.6903 26.4117 27.7509C26.6332 27.8115 26.831 27.938 26.979 28.1136" stroke="#4E4D4D" stroke-width="1.06068" stroke-miterlimit="10" stroke-linecap="round"/>
<path d="M25.5141 28.7339C25.483 29.0905 25.483 29.4492 25.5141 29.8058C25.5703 30.2576 25.9072 30.3699 25.7949 30.7093C25.6826 31.0488 25.2308 31.0462 25.2308 31.0462" stroke="#4E4D4D" stroke-width="1.06068" stroke-miterlimit="10" stroke-linecap="round"/>
<path d="M24.6664 32.4012C24.4731 32.4469 24.2722 32.4502 24.0775 32.411C23.8828 32.3718 23.6989 32.291 23.5383 32.1741" stroke="#4E4D4D" stroke-width="1.06068" stroke-miterlimit="10" stroke-linecap="round"/>
</svg>
