<svg width="48" height="48" viewBox="0 0 48 48" fill="none" xmlns="http://www.w3.org/2000/svg">
<circle cx="24" cy="24" r="24" fill="#212121"/>
<path d="M30 25V23H34V25H30ZM31.2 32L28 29.6L29.2 28L32.4 30.4L31.2 32ZM29.2 20L28 18.4L31.2 16L32.4 17.6L29.2 20ZM17 31V27H16C15.45 27 14.979 26.804 14.587 26.412C14.195 26.02 13.9993 25.5493 14 25V23C14 22.45 14.196 21.979 14.588 21.587C14.98 21.195 15.4507 20.9993 16 21H20L25 18V30L20 27H19V31H17ZM26 27.35V20.65C26.45 21.05 26.8127 21.5377 27.088 22.113C27.3633 22.6883 27.5007 23.3173 27.5 24C27.5 24.6833 27.3623 25.3127 27.087 25.888C26.8117 26.4633 26.4493 26.9507 26 27.35Z" fill="white"/>
</svg>
