<svg width="48" height="48" viewBox="0 0 48 48" fill="none" xmlns="http://www.w3.org/2000/svg">
<circle cx="24" cy="24" r="24" fill="#212121"/>
<path d="M23.4286 17.1429H18.2857C17.6795 17.1429 17.0981 17.3837 16.6695 17.8123C16.2408 18.241 16 18.8224 16 19.4286V29.7143C16 30.3205 16.2408 30.9019 16.6695 31.3305C17.0981 31.7592 17.6795 32 18.2857 32H29.7143C30.3205 32 30.9019 31.7592 31.3305 31.3305C31.7592 30.9019 32 30.3205 32 29.7143V24.5714" stroke="white" stroke-linecap="round" stroke-linejoin="round"/>
<path d="M29.7143 18.2857L30.8034 19.4286M32 15.9623C32.3047 16.2773 32.4734 16.6994 32.4697 17.1377C32.4661 17.5759 32.2904 17.9952 31.9806 18.3051L24 26.2857L20.5714 27.4286L21.7143 24L29.6994 15.9474C29.9802 15.6645 30.3558 15.4958 30.7537 15.4739C31.1516 15.4519 31.5436 15.5783 31.8537 15.8286L32 15.9623Z" stroke="white" stroke-linecap="round" stroke-linejoin="round"/>
</svg>
