<svg width="48" height="48" viewBox="0 0 48 48" fill="none" xmlns="http://www.w3.org/2000/svg">
<circle cx="24" cy="24" r="24" fill="#212121"/>
<path d="M14 34H34" stroke="white" stroke-width="1.5" stroke-miterlimit="10" stroke-linecap="round" stroke-linejoin="round"/>
<path d="M21.75 16V34H26.25V16C26.25 14.9 25.8 14 24.45 14H23.55C22.2 14 21.75 14.9 21.75 16Z" stroke="white" stroke-width="1.5" stroke-linecap="round" stroke-linejoin="round"/>
<path d="M15 22V34H19V22C19 20.9 18.6 20 17.4 20H16.6C15.4 20 15 20.9 15 22Z" stroke="white" stroke-width="1.5" stroke-linecap="round" stroke-linejoin="round"/>
<path d="M29 27V34H33V27C33 25.9 32.6 25 31.4 25H30.6C29.4 25 29 25.9 29 27Z" stroke="white" stroke-width="1.5" stroke-linecap="round" stroke-linejoin="round"/>
</svg>
