<svg width="18" height="18" viewBox="0 0 18 18" fill="none" xmlns="http://www.w3.org/2000/svg">
<path d="M16.3418 1.10996L16.7843 1.55246C17.394 2.16296 17.3018 3.24521 16.5765 3.96971L7.45126 13.095L4.49476 14.1765C4.12351 14.313 3.76201 14.136 3.68851 13.7827C3.66367 13.6546 3.67536 13.522 3.72226 13.4002L4.82476 10.4182L13.9245 1.31771C14.6498 0.593208 15.732 0.499458 16.3418 1.10996ZM7.05301 2.01746C7.1515 2.01746 7.24903 2.03686 7.34002 2.07455C7.43102 2.11224 7.5137 2.16748 7.58334 2.23713C7.65298 2.30677 7.70823 2.38945 7.74592 2.48045C7.78361 2.57144 7.80301 2.66897 7.80301 2.76746C7.80301 2.86595 7.78361 2.96348 7.74592 3.05447C7.70823 3.14546 7.65298 3.22814 7.58334 3.29779C7.5137 3.36743 7.43102 3.42268 7.34002 3.46037C7.24903 3.49806 7.1515 3.51746 7.05301 3.51746H4.05301C3.65518 3.51746 3.27365 3.67549 2.99235 3.9568C2.71104 4.2381 2.55301 4.61963 2.55301 5.01746V14.0175C2.55301 14.4153 2.71104 14.7968 2.99235 15.0781C3.27365 15.3594 3.65518 15.5175 4.05301 15.5175H13.053C13.4508 15.5175 13.8324 15.3594 14.1137 15.0781C14.395 14.7968 14.553 14.4153 14.553 14.0175V11.0175C14.553 10.8185 14.632 10.6278 14.7727 10.4871C14.9133 10.3465 15.1041 10.2675 15.303 10.2675C15.5019 10.2675 15.6927 10.3465 15.8333 10.4871C15.974 10.6278 16.053 10.8185 16.053 11.0175V14.0175C16.053 14.8131 15.7369 15.5762 15.1743 16.1388C14.6117 16.7014 13.8487 17.0175 13.053 17.0175H4.05301C3.25736 17.0175 2.4943 16.7014 1.93169 16.1388C1.36908 15.5762 1.05301 14.8131 1.05301 14.0175V5.01746C1.05301 4.22181 1.36908 3.45875 1.93169 2.89614C2.4943 2.33353 3.25736 2.01746 4.05301 2.01746H7.05301Z" fill="black"/>
</svg>
