<svg width="48" height="48" viewBox="0 0 48 48" fill="none" xmlns="http://www.w3.org/2000/svg">
<circle cx="24" cy="24" r="24" fill="#212121"/>
<g clip-path="url(#clip0_1_6550)">
<path d="M20 20H15C13.9 20 13 19.1 13 18V15C13 13.9 13.9 13 15 13H20C21.1 13 22 13.9 22 15V18C22 19.1 21.1 20 20 20Z" stroke="white" stroke-width="2" stroke-miterlimit="10" stroke-linecap="round" stroke-linejoin="round"/>
<path d="M33 24H28C26.9 24 26 23.1 26 22V15C26 13.9 26.9 13 28 13H33C34.1 13 35 13.9 35 15V22C35 23.1 34.1 24 33 24Z" stroke="white" stroke-width="2" stroke-miterlimit="10" stroke-linecap="round" stroke-linejoin="round"/>
<path d="M20 35H15C13.9 35 13 34.1 13 33V26C13 24.9 13.9 24 15 24H20C21.1 24 22 24.9 22 26V33C22 34.1 21.1 35 20 35Z" stroke="white" stroke-width="2" stroke-miterlimit="10" stroke-linecap="round" stroke-linejoin="round"/>
<path d="M33 35H28C26.9 35 26 34.1 26 33V30C26 28.9 26.9 28 28 28H33C34.1 28 35 28.9 35 30V33C35 34.1 34.1 35 33 35Z" stroke="white" stroke-width="2" stroke-miterlimit="10" stroke-linecap="round" stroke-linejoin="round"/>
</g>
<defs>
<clipPath id="clip0_1_6550">
<rect width="24" height="24" fill="white" transform="translate(12 12)"/>
</clipPath>
</defs>
</svg>
