<svg width="24" height="24" viewBox="0 0 24 24" fill="none" xmlns="http://www.w3.org/2000/svg">
<g clip-path="url(#clip0_55_6262)">
<path d="M8 8H3C1.9 8 1 7.1 1 6V3C1 1.9 1.9 1 3 1H8C9.1 1 10 1.9 10 3V6C10 7.1 9.1 8 8 8Z" stroke="white" stroke-width="2" stroke-miterlimit="10" stroke-linecap="round" stroke-linejoin="round"/>
<path d="M21 12H16C14.9 12 14 11.1 14 10V3C14 1.9 14.9 1 16 1H21C22.1 1 23 1.9 23 3V10C23 11.1 22.1 12 21 12Z" stroke="white" stroke-width="2" stroke-miterlimit="10" stroke-linecap="round" stroke-linejoin="round"/>
<path d="M8 23H3C1.9 23 1 22.1 1 21V14C1 12.9 1.9 12 3 12H8C9.1 12 10 12.9 10 14V21C10 22.1 9.1 23 8 23Z" stroke="white" stroke-width="2" stroke-miterlimit="10" stroke-linecap="round" stroke-linejoin="round"/>
<path d="M21 23H16C14.9 23 14 22.1 14 21V18C14 16.9 14.9 16 16 16H21C22.1 16 23 16.9 23 18V21C23 22.1 22.1 23 21 23Z" stroke="white" stroke-width="2" stroke-miterlimit="10" stroke-linecap="round" stroke-linejoin="round"/>
</g>
<defs>
<clipPath id="clip0_55_6262">
<rect width="24" height="24" fill="white"/>
</clipPath>
</defs>
</svg>
