<svg width="48" height="48" viewBox="0 0 48 48" fill="none" xmlns="http://www.w3.org/2000/svg">
<circle cx="24" cy="24" r="24" fill="#212121"/>
<g clip-path="url(#clip0_1_31)">
<mask id="mask0_1_31" style="mask-type:luminance" maskUnits="userSpaceOnUse" x="12" y="12" width="24" height="24">
<path fill-rule="evenodd" clip-rule="evenodd" d="M16 18C16.5304 18 17.0391 17.7893 17.4142 17.4142C17.7893 17.0391 18 16.5304 18 16C18 15.4696 17.7893 14.9609 17.4142 14.5858C17.0391 14.2107 16.5304 14 16 14C15.4696 14 14.9609 14.2107 14.5858 14.5858C14.2107 14.9609 14 15.4696 14 16C14 16.5304 14.2107 17.0391 14.5858 17.4142C14.9609 17.7893 15.4696 18 16 18ZM17 33C17.7956 33 18.5587 32.6839 19.1213 32.1213C19.6839 31.5587 20 30.7956 20 30C20 29.2044 19.6839 28.4413 19.1213 27.8787C18.5587 27.3161 17.7956 27 17 27C16.2044 27 15.4413 27.3161 14.8787 27.8787C14.3161 28.4413 14 29.2044 14 30C14 30.7956 14.3161 31.5587 14.8787 32.1213C15.4413 32.6839 16.2044 33 17 33ZM31 34C31.7956 34 32.5587 33.6839 33.1213 33.1213C33.6839 32.5587 34 31.7956 34 31C34 30.2044 33.6839 29.4413 33.1213 28.8787C32.5587 28.3161 31.7956 28 31 28C30.2044 28 29.4413 28.3161 28.8787 28.8787C28.3161 29.4413 28 30.2044 28 31C28 31.7956 28.3161 32.5587 28.8787 33.1213C29.4413 33.6839 30.2044 34 31 34ZM23 26C24.0609 26 25.0783 25.5786 25.8284 24.8284C26.5786 24.0783 27 23.0609 27 22C27 20.9391 26.5786 19.9217 25.8284 19.1716C25.0783 18.4214 24.0609 18 23 18C21.9391 18 20.9217 18.4214 20.1716 19.1716C19.4214 19.9217 19 20.9391 19 22C19 23.0609 19.4214 24.0783 20.1716 24.8284C20.9217 25.5786 21.9391 26 23 26ZM29 18C29.5304 18 30.0391 17.7893 30.4142 17.4142C30.7893 17.0391 31 16.5304 31 16C31 15.4696 30.7893 14.9609 30.4142 14.5858C30.0391 14.2107 29.5304 14 29 14C28.4696 14 27.9609 14.2107 27.5858 14.5858C27.2107 14.9609 27 15.4696 27 16C27 16.5304 27.2107 17.0391 27.5858 17.4142C27.9609 17.7893 28.4696 18 29 18Z" fill="white" stroke="white" stroke-width="4" stroke-linecap="round" stroke-linejoin="round"/>
<path d="M17.5 17.5L19.5 19.5M27 18L26 19M29 28.75L26 25M19 27.5L21 25.5" stroke="white" stroke-width="4" stroke-linecap="round" stroke-linejoin="round"/>
</mask>
<g mask="url(#mask0_1_31)">
<path d="M12 12H36V36H12V12Z" fill="white"/>
</g>
</g>
<defs>
<clipPath id="clip0_1_31">
<rect width="24" height="24" fill="white" transform="translate(12 12)"/>
</clipPath>
</defs>
</svg>
