<svg width="385" height="248" viewBox="0 0 385 248" fill="none" xmlns="http://www.w3.org/2000/svg">
<g filter="url(#filter0_dd_12_43)">
<path d="M20 28C20 21.3726 25.3726 16 32 16H353C359.627 16 365 21.3726 365 28V212C365 218.627 359.627 224 353 224H32C25.3726 224 20 218.627 20 212V28Z" fill="white"/>
</g>
<line opacity="0.23" x1="63.5" y1="54" x2="63.5" y2="216" stroke="black"/>
<line opacity="0.23" x1="47" y1="199.5" x2="357" y2="199.5" stroke="black"/>
<path opacity="0.6" d="M44.3383 168.392V168.048L45.6823 166.12H46.2343V167.996H46.6063V168.392H46.2343V169H45.7863V168.392H44.3383ZM45.8063 166.584L44.8623 167.996H45.8063V166.584ZM47.5521 168.208C47.5788 168.341 47.6361 168.443 47.7241 168.512C47.8121 168.581 47.9308 168.616 48.0801 168.616C48.2695 168.616 48.4081 168.541 48.4961 168.392C48.5841 168.243 48.6281 167.988 48.6281 167.628C48.5641 167.719 48.4735 167.789 48.3561 167.84C48.2415 167.888 48.1161 167.912 47.9801 167.912C47.8068 167.912 47.6495 167.877 47.5081 167.808C47.3668 167.736 47.2548 167.631 47.1721 167.492C47.0921 167.351 47.0521 167.18 47.0521 166.98C47.0521 166.687 47.1375 166.453 47.3081 166.28C47.4815 166.104 47.7188 166.016 48.0201 166.016C48.3828 166.016 48.6401 166.137 48.7921 166.38C48.9468 166.62 49.0241 166.989 49.0241 167.488C49.0241 167.832 48.9948 168.113 48.9361 168.332C48.8801 168.551 48.7815 168.716 48.6401 168.828C48.4988 168.94 48.3028 168.996 48.0521 168.996C47.7668 168.996 47.5468 168.921 47.3921 168.772C47.2375 168.623 47.1508 168.435 47.1321 168.208H47.5521ZM48.0601 167.528C48.2201 167.528 48.3455 167.479 48.4361 167.38C48.5295 167.279 48.5761 167.145 48.5761 166.98C48.5761 166.796 48.5268 166.653 48.4281 166.552C48.3321 166.448 48.2001 166.396 48.0321 166.396C47.8641 166.396 47.7308 166.449 47.6321 166.556C47.5361 166.66 47.4881 166.797 47.4881 166.968C47.4881 167.131 47.5348 167.265 47.6281 167.372C47.7241 167.476 47.8681 167.528 48.0601 167.528ZM49.5232 167.504C49.5232 167.043 49.6005 166.683 49.7552 166.424C49.9125 166.163 50.1819 166.032 50.5632 166.032C50.9445 166.032 51.2125 166.163 51.3672 166.424C51.5245 166.683 51.6032 167.043 51.6032 167.504C51.6032 167.971 51.5245 168.336 51.3672 168.6C51.2125 168.861 50.9445 168.992 50.5632 168.992C50.1819 168.992 49.9125 168.861 49.7552 168.6C49.6005 168.336 49.5232 167.971 49.5232 167.504ZM51.1552 167.504C51.1552 167.288 51.1405 167.105 51.1112 166.956C51.0845 166.807 51.0285 166.685 50.9432 166.592C50.8579 166.496 50.7312 166.448 50.5632 166.448C50.3952 166.448 50.2685 166.496 50.1832 166.592C50.0979 166.685 50.0405 166.807 50.0112 166.956C49.9845 167.105 49.9712 167.288 49.9712 167.504C49.9712 167.728 49.9845 167.916 50.0112 168.068C50.0379 168.22 50.0939 168.343 50.1792 168.436C50.2672 168.529 50.3952 168.576 50.5632 168.576C50.7312 168.576 50.8579 168.529 50.9432 168.436C51.0312 168.343 51.0885 168.22 51.1152 168.068C51.1419 167.916 51.1552 167.728 51.1552 167.504Z" fill="black"/>
<path opacity="0.6" d="M46.2782 137.476H44.9382V138.272C44.9942 138.197 45.0769 138.135 45.1862 138.084C45.2982 138.033 45.4169 138.008 45.5422 138.008C45.7662 138.008 45.9475 138.056 46.0862 138.152C46.2275 138.248 46.3275 138.369 46.3862 138.516C46.4475 138.663 46.4782 138.817 46.4782 138.98C46.4782 139.177 46.4395 139.353 46.3622 139.508C46.2875 139.66 46.1742 139.78 46.0222 139.868C45.8729 139.956 45.6889 140 45.4702 140C45.1795 140 44.9462 139.928 44.7702 139.784C44.5942 139.64 44.4889 139.449 44.4542 139.212H44.8982C44.9275 139.337 44.9929 139.437 45.0942 139.512C45.1955 139.584 45.3222 139.62 45.4742 139.62C45.6635 139.62 45.8049 139.563 45.8982 139.448C45.9942 139.333 46.0422 139.181 46.0422 138.992C46.0422 138.8 45.9942 138.653 45.8982 138.552C45.8022 138.448 45.6609 138.396 45.4742 138.396C45.3435 138.396 45.2329 138.429 45.1422 138.496C45.0542 138.56 44.9902 138.648 44.9502 138.76H44.5182V137.076H46.2782V137.476ZM48.5209 137.76C48.4916 137.637 48.4382 137.545 48.3609 137.484C48.2836 137.423 48.1756 137.392 48.0369 137.392C47.8262 137.392 47.6689 137.473 47.5649 137.636C47.4609 137.796 47.4062 138.063 47.4009 138.436C47.4702 138.319 47.5716 138.228 47.7049 138.164C47.8382 138.1 47.9822 138.068 48.1369 138.068C48.3129 138.068 48.4676 138.107 48.6009 138.184C48.7369 138.259 48.8422 138.368 48.9169 138.512C48.9942 138.656 49.0329 138.828 49.0329 139.028C49.0329 139.215 48.9956 139.381 48.9209 139.528C48.8489 139.675 48.7409 139.791 48.5969 139.876C48.4529 139.959 48.2796 140 48.0769 140C47.8022 140 47.5862 139.94 47.4289 139.82C47.2742 139.697 47.1649 139.525 47.1009 139.304C47.0396 139.083 47.0089 138.807 47.0089 138.476C47.0089 137.5 47.3529 137.012 48.0409 137.012C48.3076 137.012 48.5169 137.084 48.6689 137.228C48.8236 137.372 48.9142 137.549 48.9409 137.76H48.5209ZM48.0369 138.452C47.8742 138.452 47.7356 138.501 47.6209 138.6C47.5089 138.696 47.4529 138.836 47.4529 139.02C47.4529 139.204 47.5049 139.351 47.6089 139.46C47.7156 139.567 47.8636 139.62 48.0529 139.62C48.2209 139.62 48.3529 139.568 48.4489 139.464C48.5476 139.36 48.5969 139.221 48.5969 139.048C48.5969 138.867 48.5489 138.723 48.4529 138.616C48.3596 138.507 48.2209 138.452 48.0369 138.452ZM49.5193 138.504C49.5193 138.043 49.5966 137.683 49.7513 137.424C49.9086 137.163 50.178 137.032 50.5593 137.032C50.9406 137.032 51.2086 137.163 51.3633 137.424C51.5206 137.683 51.5993 138.043 51.5993 138.504C51.5993 138.971 51.5206 139.336 51.3633 139.6C51.2086 139.861 50.9406 139.992 50.5593 139.992C50.178 139.992 49.9086 139.861 49.7513 139.6C49.5966 139.336 49.5193 138.971 49.5193 138.504ZM51.1513 138.504C51.1513 138.288 51.1366 138.105 51.1073 137.956C51.0806 137.807 51.0246 137.685 50.9393 137.592C50.854 137.496 50.7273 137.448 50.5593 137.448C50.3913 137.448 50.2646 137.496 50.1793 137.592C50.094 137.685 50.0366 137.807 50.0073 137.956C49.9806 138.105 49.9673 138.288 49.9673 138.504C49.9673 138.728 49.9806 138.916 50.0073 139.068C50.034 139.22 50.09 139.343 50.1753 139.436C50.2633 139.529 50.3913 139.576 50.5593 139.576C50.7273 139.576 50.854 139.529 50.9393 139.436C51.0273 139.343 51.0846 139.22 51.1113 139.068C51.138 138.916 51.1513 138.728 51.1513 138.504Z" fill="black"/>
<path opacity="0.6" d="M47.056 108.76C47.0267 108.637 46.9734 108.545 46.896 108.484C46.8187 108.423 46.7107 108.392 46.572 108.392C46.3614 108.392 46.204 108.473 46.1 108.636C45.996 108.796 45.9414 109.063 45.936 109.436C46.0054 109.319 46.1067 109.228 46.24 109.164C46.3734 109.1 46.5174 109.068 46.672 109.068C46.848 109.068 47.0027 109.107 47.136 109.184C47.272 109.259 47.3774 109.368 47.452 109.512C47.5294 109.656 47.568 109.828 47.568 110.028C47.568 110.215 47.5307 110.381 47.456 110.528C47.384 110.675 47.276 110.791 47.132 110.876C46.988 110.959 46.8147 111 46.612 111C46.3374 111 46.1214 110.94 45.964 110.82C45.8094 110.697 45.7 110.525 45.636 110.304C45.5747 110.083 45.544 109.807 45.544 109.476C45.544 108.5 45.888 108.012 46.576 108.012C46.8427 108.012 47.052 108.084 47.204 108.228C47.3587 108.372 47.4494 108.549 47.476 108.76H47.056ZM46.572 109.452C46.4094 109.452 46.2707 109.501 46.156 109.6C46.044 109.696 45.988 109.836 45.988 110.02C45.988 110.204 46.04 110.351 46.144 110.46C46.2507 110.567 46.3987 110.62 46.588 110.62C46.756 110.62 46.888 110.568 46.984 110.464C47.0827 110.36 47.132 110.221 47.132 110.048C47.132 109.867 47.084 109.723 46.988 109.616C46.8947 109.507 46.756 109.452 46.572 109.452ZM48.0465 108.804C48.0625 108.556 48.1571 108.363 48.3305 108.224C48.5065 108.085 48.7305 108.016 49.0025 108.016C49.1891 108.016 49.3505 108.049 49.4865 108.116C49.6225 108.183 49.7251 108.273 49.7945 108.388C49.8638 108.503 49.8985 108.632 49.8985 108.776C49.8985 108.941 49.8545 109.083 49.7665 109.2C49.6785 109.317 49.5731 109.396 49.4505 109.436V109.452C49.6078 109.5 49.7305 109.588 49.8185 109.716C49.9065 109.841 49.9505 110.003 49.9505 110.2C49.9505 110.357 49.9145 110.497 49.8425 110.62C49.7705 110.743 49.6638 110.84 49.5225 110.912C49.3811 110.981 49.2118 111.016 49.0145 111.016C48.7265 111.016 48.4891 110.943 48.3025 110.796C48.1185 110.647 48.0198 110.433 48.0065 110.156H48.4465C48.4571 110.297 48.5118 110.413 48.6105 110.504C48.7091 110.592 48.8425 110.636 49.0105 110.636C49.1731 110.636 49.2985 110.592 49.3865 110.504C49.4745 110.413 49.5185 110.297 49.5185 110.156C49.5185 109.969 49.4585 109.837 49.3385 109.76C49.2211 109.68 49.0398 109.64 48.7945 109.64H48.6905V109.264H48.7985C49.0145 109.261 49.1785 109.225 49.2905 109.156C49.4051 109.087 49.4625 108.977 49.4625 108.828C49.4625 108.7 49.4211 108.599 49.3385 108.524C49.2558 108.447 49.1385 108.408 48.9865 108.408C48.8371 108.408 48.7211 108.447 48.6385 108.524C48.5558 108.599 48.5065 108.692 48.4905 108.804H48.0465ZM50.4295 109.504C50.4295 109.043 50.5068 108.683 50.6615 108.424C50.8188 108.163 51.0881 108.032 51.4695 108.032C51.8508 108.032 52.1188 108.163 52.2735 108.424C52.4308 108.683 52.5095 109.043 52.5095 109.504C52.5095 109.971 52.4308 110.336 52.2735 110.6C52.1188 110.861 51.8508 110.992 51.4695 110.992C51.0881 110.992 50.8188 110.861 50.6615 110.6C50.5068 110.336 50.4295 109.971 50.4295 109.504ZM52.0615 109.504C52.0615 109.288 52.0468 109.105 52.0175 108.956C51.9908 108.807 51.9348 108.685 51.8495 108.592C51.7641 108.496 51.6375 108.448 51.4695 108.448C51.3015 108.448 51.1748 108.496 51.0895 108.592C51.0041 108.685 50.9468 108.807 50.9175 108.956C50.8908 109.105 50.8775 109.288 50.8775 109.504C50.8775 109.728 50.8908 109.916 50.9175 110.068C50.9441 110.22 51.0001 110.343 51.0855 110.436C51.1735 110.529 51.3015 110.576 51.4695 110.576C51.6375 110.576 51.7641 110.529 51.8495 110.436C51.9375 110.343 51.9948 110.22 52.0215 110.068C52.0481 109.916 52.0615 109.728 52.0615 109.504Z" fill="black"/>
<path opacity="0.6" d="M47.4064 79.436L46.2944 82H45.8344L46.9584 79.484H45.4784V79.096H47.4064V79.436ZM47.7966 80.504C47.7966 80.0427 47.874 79.6827 48.0286 79.424C48.186 79.1627 48.4553 79.032 48.8366 79.032C49.218 79.032 49.486 79.1627 49.6406 79.424C49.798 79.6827 49.8766 80.0427 49.8766 80.504C49.8766 80.9707 49.798 81.336 49.6406 81.6C49.486 81.8613 49.218 81.992 48.8366 81.992C48.4553 81.992 48.186 81.8613 48.0286 81.6C47.874 81.336 47.7966 80.9707 47.7966 80.504ZM49.4286 80.504C49.4286 80.288 49.414 80.1053 49.3846 79.956C49.358 79.8067 49.302 79.6853 49.2166 79.592C49.1313 79.496 49.0046 79.448 48.8366 79.448C48.6686 79.448 48.542 79.496 48.4566 79.592C48.3713 79.6853 48.314 79.8067 48.2846 79.956C48.258 80.1053 48.2446 80.288 48.2446 80.504C48.2446 80.728 48.258 80.916 48.2846 81.068C48.3113 81.22 48.3673 81.3427 48.4526 81.436C48.5406 81.5293 48.6686 81.576 48.8366 81.576C49.0046 81.576 49.1313 81.5293 49.2166 81.436C49.3046 81.3427 49.362 81.22 49.3886 81.068C49.4153 80.916 49.4286 80.728 49.4286 80.504ZM50.3591 80.504C50.3591 80.0427 50.4365 79.6827 50.5911 79.424C50.7485 79.1627 51.0178 79.032 51.3991 79.032C51.7805 79.032 52.0485 79.1627 52.2031 79.424C52.3605 79.6827 52.4391 80.0427 52.4391 80.504C52.4391 80.9707 52.3605 81.336 52.2031 81.6C52.0485 81.8613 51.7805 81.992 51.3991 81.992C51.0178 81.992 50.7485 81.8613 50.5911 81.6C50.4365 81.336 50.3591 80.9707 50.3591 80.504ZM51.9911 80.504C51.9911 80.288 51.9765 80.1053 51.9471 79.956C51.9205 79.8067 51.8645 79.6853 51.7791 79.592C51.6938 79.496 51.5671 79.448 51.3991 79.448C51.2311 79.448 51.1045 79.496 51.0191 79.592C50.9338 79.6853 50.8765 79.8067 50.8471 79.956C50.8205 80.1053 50.8071 80.288 50.8071 80.504C50.8071 80.728 50.8205 80.916 50.8471 81.068C50.8738 81.22 50.9298 81.3427 51.0151 81.436C51.1031 81.5293 51.2311 81.576 51.3991 81.576C51.5671 81.576 51.6938 81.5293 51.7791 81.436C51.8671 81.3427 51.9245 81.22 51.9511 81.068C51.9778 80.916 51.9911 80.728 51.9911 80.504Z" fill="black"/>
<path opacity="0.6" d="M86.9781 204.22V206.224C86.9781 206.472 86.9021 206.668 86.7501 206.812C86.6008 206.956 86.4034 207.028 86.1581 207.028C85.9128 207.028 85.7141 206.956 85.5621 206.812C85.4128 206.668 85.3381 206.472 85.3381 206.224H85.7981C85.8008 206.347 85.8314 206.444 85.8901 206.516C85.9514 206.588 86.0408 206.624 86.1581 206.624C86.2754 206.624 86.3648 206.588 86.4261 206.516C86.4874 206.441 86.5181 206.344 86.5181 206.224V204.22H86.9781ZM89.7159 204.796V207H89.2599V206.74C89.1879 206.831 89.0933 206.903 88.9759 206.956C88.8613 207.007 88.7386 207.032 88.6079 207.032C88.4346 207.032 88.2786 206.996 88.1399 206.924C88.0039 206.852 87.8959 206.745 87.8159 206.604C87.7386 206.463 87.6999 206.292 87.6999 206.092V204.796H88.1519V206.024C88.1519 206.221 88.2013 206.373 88.2999 206.48C88.3986 206.584 88.5333 206.636 88.7039 206.636C88.8746 206.636 89.0093 206.584 89.1079 206.48C89.2093 206.373 89.2599 206.221 89.2599 206.024V204.796H89.7159ZM90.7736 204.04V207H90.3176V204.04H90.7736ZM93.3563 204.796L92.0043 208.036H91.5323L91.9803 206.964L91.1123 204.796H91.6203L92.2403 206.476L92.8843 204.796H93.3563ZM94.6195 204.5V204.084H95.4515V207H94.9915V204.5H94.6195Z" fill="black"/>
<path opacity="0.6" d="M125.023 204.22V206.224C125.023 206.472 124.947 206.668 124.795 206.812C124.646 206.956 124.448 207.028 124.203 207.028C123.958 207.028 123.759 206.956 123.607 206.812C123.458 206.668 123.383 206.472 123.383 206.224H123.843C123.846 206.347 123.876 206.444 123.935 206.516C123.996 206.588 124.086 206.624 124.203 206.624C124.32 206.624 124.41 206.588 124.471 206.516C124.532 206.441 124.563 206.344 124.563 206.224V204.22H125.023ZM127.761 204.796V207H127.305V206.74C127.233 206.831 127.138 206.903 127.021 206.956C126.906 207.007 126.784 207.032 126.653 207.032C126.48 207.032 126.324 206.996 126.185 206.924C126.049 206.852 125.941 206.745 125.861 206.604C125.784 206.463 125.745 206.292 125.745 206.092V204.796H126.197V206.024C126.197 206.221 126.246 206.373 126.345 206.48C126.444 206.584 126.578 206.636 126.749 206.636C126.92 206.636 127.054 206.584 127.153 206.48C127.254 206.373 127.305 206.221 127.305 206.024V204.796H127.761ZM128.819 204.04V207H128.363V204.04H128.819ZM131.401 204.796L130.049 208.036H129.577L130.025 206.964L129.157 204.796H129.665L130.285 206.476L130.929 204.796H131.401ZM132.976 206.38C133.232 206.159 133.434 205.977 133.58 205.836C133.73 205.692 133.854 205.543 133.952 205.388C134.051 205.233 134.1 205.079 134.1 204.924C134.1 204.764 134.062 204.639 133.984 204.548C133.91 204.457 133.791 204.412 133.628 204.412C133.471 204.412 133.348 204.463 133.26 204.564C133.175 204.663 133.13 204.796 133.124 204.964H132.684C132.692 204.66 132.783 204.428 132.956 204.268C133.132 204.105 133.355 204.024 133.624 204.024C133.915 204.024 134.142 204.104 134.304 204.264C134.47 204.424 134.552 204.637 134.552 204.904C134.552 205.096 134.503 205.281 134.404 205.46C134.308 205.636 134.192 205.795 134.056 205.936C133.923 206.075 133.752 206.236 133.544 206.42L133.364 206.58H134.632V206.96H132.688V206.628L132.976 206.38Z" fill="black"/>
<path opacity="0.6" d="M164.99 204.22V206.224C164.99 206.472 164.914 206.668 164.762 206.812C164.612 206.956 164.415 207.028 164.17 207.028C163.924 207.028 163.726 206.956 163.574 206.812C163.424 206.668 163.35 206.472 163.35 206.224H163.81C163.812 206.347 163.843 206.444 163.902 206.516C163.963 206.588 164.052 206.624 164.17 206.624C164.287 206.624 164.376 206.588 164.438 206.516C164.499 206.441 164.53 206.344 164.53 206.224V204.22H164.99ZM167.728 204.796V207H167.272V206.74C167.2 206.831 167.105 206.903 166.988 206.956C166.873 207.007 166.75 207.032 166.62 207.032C166.446 207.032 166.29 206.996 166.152 206.924C166.016 206.852 165.908 206.745 165.828 206.604C165.75 206.463 165.712 206.292 165.712 206.092V204.796H166.164V206.024C166.164 206.221 166.213 206.373 166.312 206.48C166.41 206.584 166.545 206.636 166.716 206.636C166.886 206.636 167.021 206.584 167.12 206.48C167.221 206.373 167.272 206.221 167.272 206.024V204.796H167.728ZM168.785 204.04V207H168.329V204.04H168.785ZM171.368 204.796L170.016 208.036H169.544L169.992 206.964L169.124 204.796H169.632L170.252 206.476L170.896 204.796H171.368ZM172.683 204.804C172.699 204.556 172.794 204.363 172.967 204.224C173.143 204.085 173.367 204.016 173.639 204.016C173.826 204.016 173.987 204.049 174.123 204.116C174.259 204.183 174.362 204.273 174.431 204.388C174.501 204.503 174.535 204.632 174.535 204.776C174.535 204.941 174.491 205.083 174.403 205.2C174.315 205.317 174.21 205.396 174.087 205.436V205.452C174.245 205.5 174.367 205.588 174.455 205.716C174.543 205.841 174.587 206.003 174.587 206.2C174.587 206.357 174.551 206.497 174.479 206.62C174.407 206.743 174.301 206.84 174.159 206.912C174.018 206.981 173.849 207.016 173.651 207.016C173.363 207.016 173.126 206.943 172.939 206.796C172.755 206.647 172.657 206.433 172.643 206.156H173.083C173.094 206.297 173.149 206.413 173.247 206.504C173.346 206.592 173.479 206.636 173.647 206.636C173.81 206.636 173.935 206.592 174.023 206.504C174.111 206.413 174.155 206.297 174.155 206.156C174.155 205.969 174.095 205.837 173.975 205.76C173.858 205.68 173.677 205.64 173.431 205.64H173.327V205.264H173.435C173.651 205.261 173.815 205.225 173.927 205.156C174.042 205.087 174.099 204.977 174.099 204.828C174.099 204.7 174.058 204.599 173.975 204.524C173.893 204.447 173.775 204.408 173.623 204.408C173.474 204.408 173.358 204.447 173.275 204.524C173.193 204.599 173.143 204.692 173.127 204.804H172.683Z" fill="black"/>
<path opacity="0.6" d="M204.882 204.22V206.224C204.882 206.472 204.806 206.668 204.654 206.812C204.505 206.956 204.308 207.028 204.062 207.028C203.817 207.028 203.618 206.956 203.466 206.812C203.317 206.668 203.242 206.472 203.242 206.224H203.702C203.705 206.347 203.736 206.444 203.794 206.516C203.856 206.588 203.945 206.624 204.062 206.624C204.18 206.624 204.269 206.588 204.33 206.516C204.392 206.441 204.422 206.344 204.422 206.224V204.22H204.882ZM207.62 204.796V207H207.164V206.74C207.092 206.831 206.998 206.903 206.88 206.956C206.766 207.007 206.643 207.032 206.512 207.032C206.339 207.032 206.183 206.996 206.044 206.924C205.908 206.852 205.8 206.745 205.72 206.604C205.643 206.463 205.604 206.292 205.604 206.092V204.796H206.056V206.024C206.056 206.221 206.106 206.373 206.204 206.48C206.303 206.584 206.438 206.636 206.608 206.636C206.779 206.636 206.914 206.584 207.012 206.48C207.114 206.373 207.164 206.221 207.164 206.024V204.796H207.62ZM208.678 204.04V207H208.222V204.04H208.678ZM211.261 204.796L209.909 208.036H209.437L209.885 206.964L209.017 204.796H209.525L210.145 206.476L210.789 204.796H211.261ZM212.528 206.392V206.048L213.872 204.12H214.424V205.996H214.796V206.392H214.424V207H213.976V206.392H212.528ZM213.996 204.584L213.052 205.996H213.996V204.584Z" fill="black"/>
<path opacity="0.6" d="M244.9 204.22V206.224C244.9 206.472 244.824 206.668 244.672 206.812C244.523 206.956 244.325 207.028 244.08 207.028C243.835 207.028 243.636 206.956 243.484 206.812C243.335 206.668 243.26 206.472 243.26 206.224H243.72C243.723 206.347 243.753 206.444 243.812 206.516C243.873 206.588 243.963 206.624 244.08 206.624C244.197 206.624 244.287 206.588 244.348 206.516C244.409 206.441 244.44 206.344 244.44 206.224V204.22H244.9ZM247.638 204.796V207H247.182V206.74C247.11 206.831 247.015 206.903 246.898 206.956C246.783 207.007 246.66 207.032 246.53 207.032C246.356 207.032 246.2 206.996 246.062 206.924C245.926 206.852 245.818 206.745 245.738 206.604C245.66 206.463 245.622 206.292 245.622 206.092V204.796H246.074V206.024C246.074 206.221 246.123 206.373 246.222 206.48C246.32 206.584 246.455 206.636 246.626 206.636C246.796 206.636 246.931 206.584 247.03 206.48C247.131 206.373 247.182 206.221 247.182 206.024V204.796H247.638ZM248.695 204.04V207H248.239V204.04H248.695ZM251.278 204.796L249.926 208.036H249.454L249.902 206.964L249.034 204.796H249.542L250.162 206.476L250.806 204.796H251.278ZM254.481 204.476H253.141V205.272C253.197 205.197 253.28 205.135 253.389 205.084C253.501 205.033 253.62 205.008 253.745 205.008C253.969 205.008 254.151 205.056 254.289 205.152C254.431 205.248 254.531 205.369 254.589 205.516C254.651 205.663 254.681 205.817 254.681 205.98C254.681 206.177 254.643 206.353 254.565 206.508C254.491 206.66 254.377 206.78 254.225 206.868C254.076 206.956 253.892 207 253.673 207C253.383 207 253.149 206.928 252.973 206.784C252.797 206.64 252.692 206.449 252.657 206.212H253.101C253.131 206.337 253.196 206.437 253.297 206.512C253.399 206.584 253.525 206.62 253.677 206.62C253.867 206.62 254.008 206.563 254.101 206.448C254.197 206.333 254.245 206.181 254.245 205.992C254.245 205.8 254.197 205.653 254.101 205.552C254.005 205.448 253.864 205.396 253.677 205.396C253.547 205.396 253.436 205.429 253.345 205.496C253.257 205.56 253.193 205.648 253.153 205.76H252.721V204.076H254.481V204.476Z" fill="black"/>
<path opacity="0.6" d="M284.894 204.22V206.224C284.894 206.472 284.818 206.668 284.666 206.812C284.517 206.956 284.319 207.028 284.074 207.028C283.829 207.028 283.63 206.956 283.478 206.812C283.329 206.668 283.254 206.472 283.254 206.224H283.714C283.717 206.347 283.747 206.444 283.806 206.516C283.867 206.588 283.957 206.624 284.074 206.624C284.191 206.624 284.281 206.588 284.342 206.516C284.403 206.441 284.434 206.344 284.434 206.224V204.22H284.894ZM287.632 204.796V207H287.176V206.74C287.104 206.831 287.009 206.903 286.892 206.956C286.777 207.007 286.655 207.032 286.524 207.032C286.351 207.032 286.195 206.996 286.056 206.924C285.92 206.852 285.812 206.745 285.732 206.604C285.655 206.463 285.616 206.292 285.616 206.092V204.796H286.068V206.024C286.068 206.221 286.117 206.373 286.216 206.48C286.315 206.584 286.449 206.636 286.62 206.636C286.791 206.636 286.925 206.584 287.024 206.48C287.125 206.373 287.176 206.221 287.176 206.024V204.796H287.632ZM288.69 204.04V207H288.234V204.04H288.69ZM291.272 204.796L289.92 208.036H289.448L289.896 206.964L289.028 204.796H289.536L290.156 206.476L290.8 204.796H291.272ZM294.163 204.76C294.134 204.637 294.081 204.545 294.003 204.484C293.926 204.423 293.818 204.392 293.679 204.392C293.469 204.392 293.311 204.473 293.207 204.636C293.103 204.796 293.049 205.063 293.043 205.436C293.113 205.319 293.214 205.228 293.347 205.164C293.481 205.1 293.625 205.068 293.779 205.068C293.955 205.068 294.11 205.107 294.243 205.184C294.379 205.259 294.485 205.368 294.559 205.512C294.637 205.656 294.675 205.828 294.675 206.028C294.675 206.215 294.638 206.381 294.563 206.528C294.491 206.675 294.383 206.791 294.239 206.876C294.095 206.959 293.922 207 293.719 207C293.445 207 293.229 206.94 293.071 206.82C292.917 206.697 292.807 206.525 292.743 206.304C292.682 206.083 292.651 205.807 292.651 205.476C292.651 204.5 292.995 204.012 293.683 204.012C293.95 204.012 294.159 204.084 294.311 204.228C294.466 204.372 294.557 204.549 294.583 204.76H294.163ZM293.679 205.452C293.517 205.452 293.378 205.501 293.263 205.6C293.151 205.696 293.095 205.836 293.095 206.02C293.095 206.204 293.147 206.351 293.251 206.46C293.358 206.567 293.506 206.62 293.695 206.62C293.863 206.62 293.995 206.568 294.091 206.464C294.19 206.36 294.239 206.221 294.239 206.048C294.239 205.867 294.191 205.723 294.095 205.616C294.002 205.507 293.863 205.452 293.679 205.452Z" fill="black"/>
<path opacity="0.6" d="M325.058 204.22V206.224C325.058 206.472 324.982 206.668 324.83 206.812C324.681 206.956 324.484 207.028 324.238 207.028C323.993 207.028 323.794 206.956 323.642 206.812C323.493 206.668 323.418 206.472 323.418 206.224H323.878C323.881 206.347 323.912 206.444 323.97 206.516C324.032 206.588 324.121 206.624 324.238 206.624C324.356 206.624 324.445 206.588 324.506 206.516C324.568 206.441 324.598 206.344 324.598 206.224V204.22H325.058ZM327.796 204.796V207H327.34V206.74C327.268 206.831 327.173 206.903 327.056 206.956C326.941 207.007 326.819 207.032 326.688 207.032C326.515 207.032 326.359 206.996 326.22 206.924C326.084 206.852 325.976 206.745 325.896 206.604C325.819 206.463 325.78 206.292 325.78 206.092V204.796H326.232V206.024C326.232 206.221 326.281 206.373 326.38 206.48C326.479 206.584 326.613 206.636 326.784 206.636C326.955 206.636 327.089 206.584 327.188 206.48C327.289 206.373 327.34 206.221 327.34 206.024V204.796H327.796ZM328.854 204.04V207H328.398V204.04H328.854ZM331.436 204.796L330.084 208.036H329.612L330.06 206.964L329.192 204.796H329.7L330.32 206.476L330.964 204.796H331.436ZM334.608 204.436L333.496 207H333.036L334.16 204.484H332.68V204.096H334.608V204.436Z" fill="black"/>
<circle cx="89.5" cy="168.5" r="2" fill="#1A377D" stroke="#1A377D"/>
<circle cx="130" cy="130" r="2" fill="#1A377D" stroke="#1A377D" stroke-width="2"/>
<circle cx="170" cy="109" r="2" fill="#1A377D" stroke="#1A377D" stroke-width="2"/>
<circle cx="210" cy="127" r="2" fill="#1A377D" stroke="#FF4848" stroke-width="2"/>
<circle cx="250" cy="90" r="2" fill="#1A377D" stroke="#FF4848" stroke-width="2"/>
<circle cx="290" cy="119" r="2" fill="#1A377D" stroke="#1A377D" stroke-width="2"/>
<circle cx="331" cy="128" r="2" fill="#1A377D" stroke="#1A377D" stroke-width="2"/>
<line x1="90.6511" y1="167.642" x2="129.651" y2="129.642" stroke="#1A377D"/>
<line x1="129.768" y1="129.557" x2="169.768" y2="108.557" stroke="#1A377D"/>
<line x1="170.215" y1="108.548" x2="210.215" y2="127.548" stroke="#FF4848"/>
<path d="M208.059 128.829C209.069 129.901 210.757 129.951 211.829 128.941C212.901 127.931 212.951 126.243 211.941 125.171C210.931 124.099 209.243 124.049 208.171 125.059C207.099 126.069 207.049 127.757 208.059 128.829ZM210.343 127.364L249.999 90.0014L249.313 89.2736L209.657 126.636L210.343 127.364Z" fill="#FF4848"/>
<path d="M248.157 88.013C247.28 89.1965 247.529 90.8665 248.713 91.743C249.896 92.6195 251.566 92.3705 252.443 91.187C253.319 90.0034 253.07 88.3334 251.887 87.457C250.703 86.5805 249.033 86.8294 248.157 88.013ZM289.702 119.402L290.104 119.699L290.699 118.896L290.298 118.598L289.702 119.402ZM250.002 90.0018L289.702 119.402L290.298 118.598L250.597 89.1982L250.002 90.0018Z" fill="#FF4848"/>
<line x1="290.098" y1="119.51" x2="330.098" y2="127.51" stroke="#1A377D"/>
<path d="M156 16H230V39C230 43.9706 225.971 48 221 48H165C160.029 48 156 43.9706 156 39V16Z" fill="#E8EBF2"/>
<path d="M177.669 35.44L175.581 41H174.525L172.429 35.44H173.405L175.053 40.064L176.709 35.44H177.669ZM178.896 36.008C178.731 36.008 178.592 35.952 178.48 35.84C178.368 35.728 178.312 35.5893 178.312 35.424C178.312 35.2587 178.368 35.12 178.48 35.008C178.592 34.896 178.731 34.84 178.896 34.84C179.056 34.84 179.192 34.896 179.304 35.008C179.416 35.12 179.472 35.2587 179.472 35.424C179.472 35.5893 179.416 35.728 179.304 35.84C179.192 35.952 179.056 36.008 178.896 36.008ZM179.344 36.592V41H178.432V36.592H179.344ZM184.581 38.688C184.581 38.8533 184.571 39.0027 184.549 39.136H181.181C181.208 39.488 181.339 39.7707 181.573 39.984C181.808 40.1973 182.096 40.304 182.437 40.304C182.928 40.304 183.275 40.0987 183.477 39.688H184.461C184.328 40.0933 184.085 40.4267 183.733 40.688C183.387 40.944 182.955 41.072 182.437 41.072C182.016 41.072 181.637 40.9787 181.301 40.792C180.971 40.6 180.709 40.3333 180.517 39.992C180.331 39.6453 180.237 39.2453 180.237 38.792C180.237 38.3387 180.328 37.9413 180.509 37.6C180.696 37.2533 180.955 36.9867 181.285 36.8C181.621 36.6133 182.005 36.52 182.437 36.52C182.853 36.52 183.224 36.6107 183.549 36.792C183.875 36.9733 184.128 37.2293 184.309 37.56C184.491 37.8853 184.581 38.2613 184.581 38.688ZM183.629 38.4C183.624 38.064 183.504 37.7947 183.269 37.592C183.035 37.3893 182.744 37.288 182.397 37.288C182.083 37.288 181.813 37.3893 181.589 37.592C181.365 37.7893 181.232 38.0587 181.189 38.4H183.629ZM191.399 36.592L190.031 41H189.071L188.183 37.744L187.295 41H186.335L184.959 36.592H185.887L186.807 40.136L187.743 36.592H188.695L189.591 40.12L190.503 36.592H191.399ZM200.015 35.44V41H199.103V37.192L197.407 41H196.775L195.071 37.192V41H194.159V35.44H195.143L197.095 39.8L199.039 35.44H200.015ZM203.125 41.072C202.709 41.072 202.333 40.9787 201.997 40.792C201.661 40.6 201.397 40.3333 201.205 39.992C201.013 39.6453 200.917 39.2453 200.917 38.792C200.917 38.344 201.016 37.9467 201.213 37.6C201.411 37.2533 201.68 36.9867 202.021 36.8C202.363 36.6133 202.744 36.52 203.165 36.52C203.587 36.52 203.968 36.6133 204.309 36.8C204.651 36.9867 204.92 37.2533 205.117 37.6C205.315 37.9467 205.413 38.344 205.413 38.792C205.413 39.24 205.312 39.6373 205.109 39.984C204.907 40.3307 204.629 40.6 204.277 40.792C203.931 40.9787 203.547 41.072 203.125 41.072ZM203.125 40.28C203.36 40.28 203.579 40.224 203.781 40.112C203.989 40 204.157 39.832 204.285 39.608C204.413 39.384 204.477 39.112 204.477 38.792C204.477 38.472 204.416 38.2027 204.293 37.984C204.171 37.76 204.008 37.592 203.805 37.48C203.603 37.368 203.384 37.312 203.149 37.312C202.915 37.312 202.696 37.368 202.493 37.48C202.296 37.592 202.139 37.76 202.021 37.984C201.904 38.2027 201.845 38.472 201.845 38.792C201.845 39.2667 201.965 39.6347 202.205 39.896C202.451 40.152 202.757 40.28 203.125 40.28ZM207.227 37.232C207.36 37.008 207.536 36.8347 207.755 36.712C207.979 36.584 208.243 36.52 208.547 36.52V37.464H208.315C207.958 37.464 207.686 37.5547 207.499 37.736C207.318 37.9173 207.227 38.232 207.227 38.68V41H206.315V36.592H207.227V37.232ZM213.425 38.688C213.425 38.8533 213.414 39.0027 213.393 39.136H210.025C210.052 39.488 210.182 39.7707 210.417 39.984C210.652 40.1973 210.94 40.304 211.281 40.304C211.772 40.304 212.118 40.0987 212.321 39.688H213.305C213.172 40.0933 212.929 40.4267 212.577 40.688C212.23 40.944 211.798 41.072 211.281 41.072C210.86 41.072 210.481 40.9787 210.145 40.792C209.814 40.6 209.553 40.3333 209.361 39.992C209.174 39.6453 209.081 39.2453 209.081 38.792C209.081 38.3387 209.172 37.9413 209.353 37.6C209.54 37.2533 209.798 36.9867 210.129 36.8C210.465 36.6133 210.849 36.52 211.281 36.52C211.697 36.52 212.068 36.6107 212.393 36.792C212.718 36.9733 212.972 37.2293 213.153 37.56C213.334 37.8853 213.425 38.2613 213.425 38.688ZM212.473 38.4C212.468 38.064 212.348 37.7947 212.113 37.592C211.878 37.3893 211.588 37.288 211.241 37.288C210.926 37.288 210.657 37.3893 210.433 37.592C210.209 37.7893 210.076 38.0587 210.033 38.4H212.473Z" fill="black"/>
<g clip-path="url(#clip0_12_43)">
<path d="M196.003 25.54C196.042 25.5013 196.073 25.4553 196.094 25.4047C196.115 25.3541 196.126 25.2998 196.126 25.245C196.126 25.1902 196.115 25.1359 196.094 25.0853C196.073 25.0347 196.042 24.9887 196.003 24.95L193.233 22.18C193.202 22.1491 193.166 22.1246 193.126 22.1079C193.085 22.0911 193.042 22.0825 192.998 22.0825C192.955 22.0825 192.911 22.0911 192.871 22.1079C192.831 22.1246 192.794 22.1491 192.763 22.18L189.993 24.95C189.83 25.1133 189.83 25.3767 189.993 25.54C190.157 25.7033 190.42 25.7033 190.583 25.54L193 23.1267L195.417 25.5433C195.577 25.7033 195.843 25.7033 196.003 25.54Z" fill="black"/>
</g>
<defs>
<filter id="filter0_dd_12_43" x="0" y="0" width="385" height="248" filterUnits="userSpaceOnUse" color-interpolation-filters="sRGB">
<feFlood flood-opacity="0" result="BackgroundImageFix"/>
<feColorMatrix in="SourceAlpha" type="matrix" values="0 0 0 0 0 0 0 0 0 0 0 0 0 0 0 0 0 0 127 0" result="hardAlpha"/>
<feOffset dy="4"/>
<feGaussianBlur stdDeviation="10"/>
<feComposite in2="hardAlpha" operator="out"/>
<feColorMatrix type="matrix" values="0 0 0 0 0 0 0 0 0 0 0 0 0 0 0 0 0 0 0.25 0"/>
<feBlend mode="normal" in2="BackgroundImageFix" result="effect1_dropShadow_12_43"/>
<feColorMatrix in="SourceAlpha" type="matrix" values="0 0 0 0 0 0 0 0 0 0 0 0 0 0 0 0 0 0 127 0" result="hardAlpha"/>
<feOffset dy="4"/>
<feGaussianBlur stdDeviation="2"/>
<feComposite in2="hardAlpha" operator="out"/>
<feColorMatrix type="matrix" values="0 0 0 0 0 0 0 0 0 0 0 0 0 0 0 0 0 0 0.25 0"/>
<feBlend mode="normal" in2="effect1_dropShadow_12_43" result="effect2_dropShadow_12_43"/>
<feBlend mode="normal" in="SourceGraphic" in2="effect2_dropShadow_12_43" result="shape"/>
</filter>
<clipPath id="clip0_12_43">
<rect width="8" height="8" fill="white" transform="translate(197 20) rotate(90)"/>
</clipPath>
</defs>
</svg>
