<svg width="385" height="248" viewBox="0 0 385 248" fill="none" xmlns="http://www.w3.org/2000/svg">
<g filter="url(#filter0_dd_4_1231)">
<path d="M20 16H353C359.627 16 365 21.3726 365 28V212C365 218.627 359.627 224 353 224H32C25.3726 224 20 218.627 20 212V16Z" fill="white"/>
</g>
<line opacity="0.23" x1="53.5" y1="54" x2="53.5" y2="216" stroke="black"/>
<line opacity="0.23" x1="37" y1="199.5" x2="347" y2="199.5" stroke="black"/>
<path opacity="0.6" d="M34.3383 168.392V168.048L35.6823 166.12H36.2343V167.996H36.6063V168.392H36.2343V169H35.7863V168.392H34.3383ZM35.8063 166.584L34.8623 167.996H35.8063V166.584ZM37.5521 168.208C37.5788 168.341 37.6361 168.443 37.7241 168.512C37.8121 168.581 37.9308 168.616 38.0801 168.616C38.2695 168.616 38.4081 168.541 38.4961 168.392C38.5841 168.243 38.6281 167.988 38.6281 167.628C38.5641 167.719 38.4735 167.789 38.3561 167.84C38.2415 167.888 38.1161 167.912 37.9801 167.912C37.8068 167.912 37.6495 167.877 37.5081 167.808C37.3668 167.736 37.2548 167.631 37.1721 167.492C37.0921 167.351 37.0521 167.18 37.0521 166.98C37.0521 166.687 37.1375 166.453 37.3081 166.28C37.4815 166.104 37.7188 166.016 38.0201 166.016C38.3828 166.016 38.6401 166.137 38.7921 166.38C38.9468 166.62 39.0241 166.989 39.0241 167.488C39.0241 167.832 38.9948 168.113 38.9361 168.332C38.8801 168.551 38.7815 168.716 38.6401 168.828C38.4988 168.94 38.3028 168.996 38.0521 168.996C37.7668 168.996 37.5468 168.921 37.3921 168.772C37.2375 168.623 37.1508 168.435 37.1321 168.208H37.5521ZM38.0601 167.528C38.2201 167.528 38.3455 167.479 38.4361 167.38C38.5295 167.279 38.5761 167.145 38.5761 166.98C38.5761 166.796 38.5268 166.653 38.4281 166.552C38.3321 166.448 38.2001 166.396 38.0321 166.396C37.8641 166.396 37.7308 166.449 37.6321 166.556C37.5361 166.66 37.4881 166.797 37.4881 166.968C37.4881 167.131 37.5348 167.265 37.6281 167.372C37.7241 167.476 37.8681 167.528 38.0601 167.528ZM39.5232 167.504C39.5232 167.043 39.6005 166.683 39.7552 166.424C39.9125 166.163 40.1819 166.032 40.5632 166.032C40.9445 166.032 41.2125 166.163 41.3672 166.424C41.5245 166.683 41.6032 167.043 41.6032 167.504C41.6032 167.971 41.5245 168.336 41.3672 168.6C41.2125 168.861 40.9445 168.992 40.5632 168.992C40.1819 168.992 39.9125 168.861 39.7552 168.6C39.6005 168.336 39.5232 167.971 39.5232 167.504ZM41.1552 167.504C41.1552 167.288 41.1405 167.105 41.1112 166.956C41.0845 166.807 41.0285 166.685 40.9432 166.592C40.8579 166.496 40.7312 166.448 40.5632 166.448C40.3952 166.448 40.2685 166.496 40.1832 166.592C40.0979 166.685 40.0405 166.807 40.0112 166.956C39.9845 167.105 39.9712 167.288 39.9712 167.504C39.9712 167.728 39.9845 167.916 40.0112 168.068C40.0379 168.22 40.0939 168.343 40.1792 168.436C40.2672 168.529 40.3952 168.576 40.5632 168.576C40.7312 168.576 40.8579 168.529 40.9432 168.436C41.0312 168.343 41.0885 168.22 41.1152 168.068C41.1419 167.916 41.1552 167.728 41.1552 167.504Z" fill="black"/>
<path opacity="0.6" d="M36.2782 137.476H34.9382V138.272C34.9942 138.197 35.0769 138.135 35.1862 138.084C35.2982 138.033 35.4169 138.008 35.5422 138.008C35.7662 138.008 35.9475 138.056 36.0862 138.152C36.2275 138.248 36.3275 138.369 36.3862 138.516C36.4475 138.663 36.4782 138.817 36.4782 138.98C36.4782 139.177 36.4395 139.353 36.3622 139.508C36.2875 139.66 36.1742 139.78 36.0222 139.868C35.8729 139.956 35.6889 140 35.4702 140C35.1795 140 34.9462 139.928 34.7702 139.784C34.5942 139.64 34.4889 139.449 34.4542 139.212H34.8982C34.9275 139.337 34.9929 139.437 35.0942 139.512C35.1955 139.584 35.3222 139.62 35.4742 139.62C35.6635 139.62 35.8049 139.563 35.8982 139.448C35.9942 139.333 36.0422 139.181 36.0422 138.992C36.0422 138.8 35.9942 138.653 35.8982 138.552C35.8022 138.448 35.6609 138.396 35.4742 138.396C35.3435 138.396 35.2329 138.429 35.1422 138.496C35.0542 138.56 34.9902 138.648 34.9502 138.76H34.5182V137.076H36.2782V137.476ZM38.5209 137.76C38.4916 137.637 38.4382 137.545 38.3609 137.484C38.2836 137.423 38.1756 137.392 38.0369 137.392C37.8262 137.392 37.6689 137.473 37.5649 137.636C37.4609 137.796 37.4062 138.063 37.4009 138.436C37.4702 138.319 37.5716 138.228 37.7049 138.164C37.8382 138.1 37.9822 138.068 38.1369 138.068C38.3129 138.068 38.4676 138.107 38.6009 138.184C38.7369 138.259 38.8422 138.368 38.9169 138.512C38.9942 138.656 39.0329 138.828 39.0329 139.028C39.0329 139.215 38.9956 139.381 38.9209 139.528C38.8489 139.675 38.7409 139.791 38.5969 139.876C38.4529 139.959 38.2796 140 38.0769 140C37.8022 140 37.5862 139.94 37.4289 139.82C37.2742 139.697 37.1649 139.525 37.1009 139.304C37.0396 139.083 37.0089 138.807 37.0089 138.476C37.0089 137.5 37.3529 137.012 38.0409 137.012C38.3076 137.012 38.5169 137.084 38.6689 137.228C38.8236 137.372 38.9142 137.549 38.9409 137.76H38.5209ZM38.0369 138.452C37.8742 138.452 37.7356 138.501 37.6209 138.6C37.5089 138.696 37.4529 138.836 37.4529 139.02C37.4529 139.204 37.5049 139.351 37.6089 139.46C37.7156 139.567 37.8636 139.62 38.0529 139.62C38.2209 139.62 38.3529 139.568 38.4489 139.464C38.5476 139.36 38.5969 139.221 38.5969 139.048C38.5969 138.867 38.5489 138.723 38.4529 138.616C38.3596 138.507 38.2209 138.452 38.0369 138.452ZM39.5193 138.504C39.5193 138.043 39.5966 137.683 39.7513 137.424C39.9086 137.163 40.178 137.032 40.5593 137.032C40.9406 137.032 41.2086 137.163 41.3633 137.424C41.5206 137.683 41.5993 138.043 41.5993 138.504C41.5993 138.971 41.5206 139.336 41.3633 139.6C41.2086 139.861 40.9406 139.992 40.5593 139.992C40.178 139.992 39.9086 139.861 39.7513 139.6C39.5966 139.336 39.5193 138.971 39.5193 138.504ZM41.1513 138.504C41.1513 138.288 41.1366 138.105 41.1073 137.956C41.0806 137.807 41.0246 137.685 40.9393 137.592C40.854 137.496 40.7273 137.448 40.5593 137.448C40.3913 137.448 40.2646 137.496 40.1793 137.592C40.094 137.685 40.0366 137.807 40.0073 137.956C39.9806 138.105 39.9673 138.288 39.9673 138.504C39.9673 138.728 39.9806 138.916 40.0073 139.068C40.034 139.22 40.09 139.343 40.1753 139.436C40.2633 139.529 40.3913 139.576 40.5593 139.576C40.7273 139.576 40.854 139.529 40.9393 139.436C41.0273 139.343 41.0846 139.22 41.1113 139.068C41.138 138.916 41.1513 138.728 41.1513 138.504Z" fill="black"/>
<path opacity="0.6" d="M37.056 108.76C37.0267 108.637 36.9734 108.545 36.896 108.484C36.8187 108.423 36.7107 108.392 36.572 108.392C36.3614 108.392 36.204 108.473 36.1 108.636C35.996 108.796 35.9414 109.063 35.936 109.436C36.0054 109.319 36.1067 109.228 36.24 109.164C36.3734 109.1 36.5174 109.068 36.672 109.068C36.848 109.068 37.0027 109.107 37.136 109.184C37.272 109.259 37.3774 109.368 37.452 109.512C37.5294 109.656 37.568 109.828 37.568 110.028C37.568 110.215 37.5307 110.381 37.456 110.528C37.384 110.675 37.276 110.791 37.132 110.876C36.988 110.959 36.8147 111 36.612 111C36.3374 111 36.1214 110.94 35.964 110.82C35.8094 110.697 35.7 110.525 35.636 110.304C35.5747 110.083 35.544 109.807 35.544 109.476C35.544 108.5 35.888 108.012 36.576 108.012C36.8427 108.012 37.052 108.084 37.204 108.228C37.3587 108.372 37.4494 108.549 37.476 108.76H37.056ZM36.572 109.452C36.4094 109.452 36.2707 109.501 36.156 109.6C36.044 109.696 35.988 109.836 35.988 110.02C35.988 110.204 36.04 110.351 36.144 110.46C36.2507 110.567 36.3987 110.62 36.588 110.62C36.756 110.62 36.888 110.568 36.984 110.464C37.0827 110.36 37.132 110.221 37.132 110.048C37.132 109.867 37.084 109.723 36.988 109.616C36.8947 109.507 36.756 109.452 36.572 109.452ZM38.0465 108.804C38.0625 108.556 38.1571 108.363 38.3305 108.224C38.5065 108.085 38.7305 108.016 39.0025 108.016C39.1891 108.016 39.3505 108.049 39.4865 108.116C39.6225 108.183 39.7251 108.273 39.7945 108.388C39.8638 108.503 39.8985 108.632 39.8985 108.776C39.8985 108.941 39.8545 109.083 39.7665 109.2C39.6785 109.317 39.5731 109.396 39.4505 109.436V109.452C39.6078 109.5 39.7305 109.588 39.8185 109.716C39.9065 109.841 39.9505 110.003 39.9505 110.2C39.9505 110.357 39.9145 110.497 39.8425 110.62C39.7705 110.743 39.6638 110.84 39.5225 110.912C39.3811 110.981 39.2118 111.016 39.0145 111.016C38.7265 111.016 38.4891 110.943 38.3025 110.796C38.1185 110.647 38.0198 110.433 38.0065 110.156H38.4465C38.4571 110.297 38.5118 110.413 38.6105 110.504C38.7091 110.592 38.8425 110.636 39.0105 110.636C39.1731 110.636 39.2985 110.592 39.3865 110.504C39.4745 110.413 39.5185 110.297 39.5185 110.156C39.5185 109.969 39.4585 109.837 39.3385 109.76C39.2211 109.68 39.0398 109.64 38.7945 109.64H38.6905V109.264H38.7985C39.0145 109.261 39.1785 109.225 39.2905 109.156C39.4051 109.087 39.4625 108.977 39.4625 108.828C39.4625 108.7 39.4211 108.599 39.3385 108.524C39.2558 108.447 39.1385 108.408 38.9865 108.408C38.8371 108.408 38.7211 108.447 38.6385 108.524C38.5558 108.599 38.5065 108.692 38.4905 108.804H38.0465ZM40.4295 109.504C40.4295 109.043 40.5068 108.683 40.6615 108.424C40.8188 108.163 41.0881 108.032 41.4695 108.032C41.8508 108.032 42.1188 108.163 42.2735 108.424C42.4308 108.683 42.5095 109.043 42.5095 109.504C42.5095 109.971 42.4308 110.336 42.2735 110.6C42.1188 110.861 41.8508 110.992 41.4695 110.992C41.0881 110.992 40.8188 110.861 40.6615 110.6C40.5068 110.336 40.4295 109.971 40.4295 109.504ZM42.0615 109.504C42.0615 109.288 42.0468 109.105 42.0175 108.956C41.9908 108.807 41.9348 108.685 41.8495 108.592C41.7641 108.496 41.6375 108.448 41.4695 108.448C41.3015 108.448 41.1748 108.496 41.0895 108.592C41.0041 108.685 40.9468 108.807 40.9175 108.956C40.8908 109.105 40.8775 109.288 40.8775 109.504C40.8775 109.728 40.8908 109.916 40.9175 110.068C40.9441 110.22 41.0001 110.343 41.0855 110.436C41.1735 110.529 41.3015 110.576 41.4695 110.576C41.6375 110.576 41.7641 110.529 41.8495 110.436C41.9375 110.343 41.9948 110.22 42.0215 110.068C42.0481 109.916 42.0615 109.728 42.0615 109.504Z" fill="black"/>
<path opacity="0.6" d="M37.4064 79.436L36.2944 82H35.8344L36.9584 79.484H35.4784V79.096H37.4064V79.436ZM37.7966 80.504C37.7966 80.0427 37.874 79.6827 38.0286 79.424C38.186 79.1627 38.4553 79.032 38.8366 79.032C39.218 79.032 39.486 79.1627 39.6406 79.424C39.798 79.6827 39.8766 80.0427 39.8766 80.504C39.8766 80.9707 39.798 81.336 39.6406 81.6C39.486 81.8613 39.218 81.992 38.8366 81.992C38.4553 81.992 38.186 81.8613 38.0286 81.6C37.874 81.336 37.7966 80.9707 37.7966 80.504ZM39.4286 80.504C39.4286 80.288 39.414 80.1053 39.3846 79.956C39.358 79.8067 39.302 79.6853 39.2166 79.592C39.1313 79.496 39.0046 79.448 38.8366 79.448C38.6686 79.448 38.542 79.496 38.4566 79.592C38.3713 79.6853 38.314 79.8067 38.2846 79.956C38.258 80.1053 38.2446 80.288 38.2446 80.504C38.2446 80.728 38.258 80.916 38.2846 81.068C38.3113 81.22 38.3673 81.3427 38.4526 81.436C38.5406 81.5293 38.6686 81.576 38.8366 81.576C39.0046 81.576 39.1313 81.5293 39.2166 81.436C39.3046 81.3427 39.362 81.22 39.3886 81.068C39.4153 80.916 39.4286 80.728 39.4286 80.504ZM40.3591 80.504C40.3591 80.0427 40.4365 79.6827 40.5911 79.424C40.7485 79.1627 41.0178 79.032 41.3991 79.032C41.7805 79.032 42.0485 79.1627 42.2031 79.424C42.3605 79.6827 42.4391 80.0427 42.4391 80.504C42.4391 80.9707 42.3605 81.336 42.2031 81.6C42.0485 81.8613 41.7805 81.992 41.3991 81.992C41.0178 81.992 40.7485 81.8613 40.5911 81.6C40.4365 81.336 40.3591 80.9707 40.3591 80.504ZM41.9911 80.504C41.9911 80.288 41.9765 80.1053 41.9471 79.956C41.9205 79.8067 41.8645 79.6853 41.7791 79.592C41.6938 79.496 41.5671 79.448 41.3991 79.448C41.2311 79.448 41.1045 79.496 41.0191 79.592C40.9338 79.6853 40.8765 79.8067 40.8471 79.956C40.8205 80.1053 40.8071 80.288 40.8071 80.504C40.8071 80.728 40.8205 80.916 40.8471 81.068C40.8738 81.22 40.9298 81.3427 41.0151 81.436C41.1031 81.5293 41.2311 81.576 41.3991 81.576C41.5671 81.576 41.6938 81.5293 41.7791 81.436C41.8671 81.3427 41.9245 81.22 41.9511 81.068C41.9778 80.916 41.9911 80.728 41.9911 80.504Z" fill="black"/>
<path opacity="0.6" d="M76.9781 204.22V206.224C76.9781 206.472 76.9021 206.668 76.7501 206.812C76.6008 206.956 76.4034 207.028 76.1581 207.028C75.9128 207.028 75.7141 206.956 75.5621 206.812C75.4128 206.668 75.3381 206.472 75.3381 206.224H75.7981C75.8008 206.347 75.8314 206.444 75.8901 206.516C75.9514 206.588 76.0408 206.624 76.1581 206.624C76.2754 206.624 76.3648 206.588 76.4261 206.516C76.4874 206.441 76.5181 206.344 76.5181 206.224V204.22H76.9781ZM79.7159 204.796V207H79.2599V206.74C79.1879 206.831 79.0933 206.903 78.9759 206.956C78.8613 207.007 78.7386 207.032 78.6079 207.032C78.4346 207.032 78.2786 206.996 78.1399 206.924C78.0039 206.852 77.8959 206.745 77.8159 206.604C77.7386 206.463 77.6999 206.292 77.6999 206.092V204.796H78.1519V206.024C78.1519 206.221 78.2013 206.373 78.2999 206.48C78.3986 206.584 78.5333 206.636 78.7039 206.636C78.8746 206.636 79.0093 206.584 79.1079 206.48C79.2093 206.373 79.2599 206.221 79.2599 206.024V204.796H79.7159ZM80.7736 204.04V207H80.3176V204.04H80.7736ZM83.3563 204.796L82.0043 208.036H81.5323L81.9803 206.964L81.1123 204.796H81.6203L82.2403 206.476L82.8843 204.796H83.3563ZM84.6195 204.5V204.084H85.4515V207H84.9915V204.5H84.6195Z" fill="black"/>
<path opacity="0.6" d="M115.023 204.22V206.224C115.023 206.472 114.947 206.668 114.795 206.812C114.646 206.956 114.448 207.028 114.203 207.028C113.958 207.028 113.759 206.956 113.607 206.812C113.458 206.668 113.383 206.472 113.383 206.224H113.843C113.846 206.347 113.876 206.444 113.935 206.516C113.996 206.588 114.086 206.624 114.203 206.624C114.32 206.624 114.41 206.588 114.471 206.516C114.532 206.441 114.563 206.344 114.563 206.224V204.22H115.023ZM117.761 204.796V207H117.305V206.74C117.233 206.831 117.138 206.903 117.021 206.956C116.906 207.007 116.784 207.032 116.653 207.032C116.48 207.032 116.324 206.996 116.185 206.924C116.049 206.852 115.941 206.745 115.861 206.604C115.784 206.463 115.745 206.292 115.745 206.092V204.796H116.197V206.024C116.197 206.221 116.246 206.373 116.345 206.48C116.444 206.584 116.578 206.636 116.749 206.636C116.92 206.636 117.054 206.584 117.153 206.48C117.254 206.373 117.305 206.221 117.305 206.024V204.796H117.761ZM118.819 204.04V207H118.363V204.04H118.819ZM121.401 204.796L120.049 208.036H119.577L120.025 206.964L119.157 204.796H119.665L120.285 206.476L120.929 204.796H121.401ZM122.976 206.38C123.232 206.159 123.434 205.977 123.58 205.836C123.73 205.692 123.854 205.543 123.952 205.388C124.051 205.233 124.1 205.079 124.1 204.924C124.1 204.764 124.062 204.639 123.984 204.548C123.91 204.457 123.791 204.412 123.628 204.412C123.471 204.412 123.348 204.463 123.26 204.564C123.175 204.663 123.13 204.796 123.124 204.964H122.684C122.692 204.66 122.783 204.428 122.956 204.268C123.132 204.105 123.355 204.024 123.624 204.024C123.915 204.024 124.142 204.104 124.304 204.264C124.47 204.424 124.552 204.637 124.552 204.904C124.552 205.096 124.503 205.281 124.404 205.46C124.308 205.636 124.192 205.795 124.056 205.936C123.923 206.075 123.752 206.236 123.544 206.42L123.364 206.58H124.632V206.96H122.688V206.628L122.976 206.38Z" fill="black"/>
<path opacity="0.6" d="M154.99 204.22V206.224C154.99 206.472 154.914 206.668 154.762 206.812C154.612 206.956 154.415 207.028 154.17 207.028C153.924 207.028 153.726 206.956 153.574 206.812C153.424 206.668 153.35 206.472 153.35 206.224H153.81C153.812 206.347 153.843 206.444 153.902 206.516C153.963 206.588 154.052 206.624 154.17 206.624C154.287 206.624 154.376 206.588 154.438 206.516C154.499 206.441 154.53 206.344 154.53 206.224V204.22H154.99ZM157.728 204.796V207H157.272V206.74C157.2 206.831 157.105 206.903 156.988 206.956C156.873 207.007 156.75 207.032 156.62 207.032C156.446 207.032 156.29 206.996 156.152 206.924C156.016 206.852 155.908 206.745 155.828 206.604C155.75 206.463 155.712 206.292 155.712 206.092V204.796H156.164V206.024C156.164 206.221 156.213 206.373 156.312 206.48C156.41 206.584 156.545 206.636 156.716 206.636C156.886 206.636 157.021 206.584 157.12 206.48C157.221 206.373 157.272 206.221 157.272 206.024V204.796H157.728ZM158.785 204.04V207H158.329V204.04H158.785ZM161.368 204.796L160.016 208.036H159.544L159.992 206.964L159.124 204.796H159.632L160.252 206.476L160.896 204.796H161.368ZM162.683 204.804C162.699 204.556 162.794 204.363 162.967 204.224C163.143 204.085 163.367 204.016 163.639 204.016C163.826 204.016 163.987 204.049 164.123 204.116C164.259 204.183 164.362 204.273 164.431 204.388C164.501 204.503 164.535 204.632 164.535 204.776C164.535 204.941 164.491 205.083 164.403 205.2C164.315 205.317 164.21 205.396 164.087 205.436V205.452C164.245 205.5 164.367 205.588 164.455 205.716C164.543 205.841 164.587 206.003 164.587 206.2C164.587 206.357 164.551 206.497 164.479 206.62C164.407 206.743 164.301 206.84 164.159 206.912C164.018 206.981 163.849 207.016 163.651 207.016C163.363 207.016 163.126 206.943 162.939 206.796C162.755 206.647 162.657 206.433 162.643 206.156H163.083C163.094 206.297 163.149 206.413 163.247 206.504C163.346 206.592 163.479 206.636 163.647 206.636C163.81 206.636 163.935 206.592 164.023 206.504C164.111 206.413 164.155 206.297 164.155 206.156C164.155 205.969 164.095 205.837 163.975 205.76C163.858 205.68 163.677 205.64 163.431 205.64H163.327V205.264H163.435C163.651 205.261 163.815 205.225 163.927 205.156C164.042 205.087 164.099 204.977 164.099 204.828C164.099 204.7 164.058 204.599 163.975 204.524C163.893 204.447 163.775 204.408 163.623 204.408C163.474 204.408 163.358 204.447 163.275 204.524C163.193 204.599 163.143 204.692 163.127 204.804H162.683Z" fill="black"/>
<path opacity="0.6" d="M194.882 204.22V206.224C194.882 206.472 194.806 206.668 194.654 206.812C194.505 206.956 194.308 207.028 194.062 207.028C193.817 207.028 193.618 206.956 193.466 206.812C193.317 206.668 193.242 206.472 193.242 206.224H193.702C193.705 206.347 193.736 206.444 193.794 206.516C193.856 206.588 193.945 206.624 194.062 206.624C194.18 206.624 194.269 206.588 194.33 206.516C194.392 206.441 194.422 206.344 194.422 206.224V204.22H194.882ZM197.62 204.796V207H197.164V206.74C197.092 206.831 196.998 206.903 196.88 206.956C196.766 207.007 196.643 207.032 196.512 207.032C196.339 207.032 196.183 206.996 196.044 206.924C195.908 206.852 195.8 206.745 195.72 206.604C195.643 206.463 195.604 206.292 195.604 206.092V204.796H196.056V206.024C196.056 206.221 196.106 206.373 196.204 206.48C196.303 206.584 196.438 206.636 196.608 206.636C196.779 206.636 196.914 206.584 197.012 206.48C197.114 206.373 197.164 206.221 197.164 206.024V204.796H197.62ZM198.678 204.04V207H198.222V204.04H198.678ZM201.261 204.796L199.909 208.036H199.437L199.885 206.964L199.017 204.796H199.525L200.145 206.476L200.789 204.796H201.261ZM202.528 206.392V206.048L203.872 204.12H204.424V205.996H204.796V206.392H204.424V207H203.976V206.392H202.528ZM203.996 204.584L203.052 205.996H203.996V204.584Z" fill="black"/>
<path opacity="0.6" d="M234.9 204.22V206.224C234.9 206.472 234.824 206.668 234.672 206.812C234.523 206.956 234.325 207.028 234.08 207.028C233.835 207.028 233.636 206.956 233.484 206.812C233.335 206.668 233.26 206.472 233.26 206.224H233.72C233.723 206.347 233.753 206.444 233.812 206.516C233.873 206.588 233.963 206.624 234.08 206.624C234.197 206.624 234.287 206.588 234.348 206.516C234.409 206.441 234.44 206.344 234.44 206.224V204.22H234.9ZM237.638 204.796V207H237.182V206.74C237.11 206.831 237.015 206.903 236.898 206.956C236.783 207.007 236.66 207.032 236.53 207.032C236.356 207.032 236.2 206.996 236.062 206.924C235.926 206.852 235.818 206.745 235.738 206.604C235.66 206.463 235.622 206.292 235.622 206.092V204.796H236.074V206.024C236.074 206.221 236.123 206.373 236.222 206.48C236.32 206.584 236.455 206.636 236.626 206.636C236.796 206.636 236.931 206.584 237.03 206.48C237.131 206.373 237.182 206.221 237.182 206.024V204.796H237.638ZM238.695 204.04V207H238.239V204.04H238.695ZM241.278 204.796L239.926 208.036H239.454L239.902 206.964L239.034 204.796H239.542L240.162 206.476L240.806 204.796H241.278ZM244.481 204.476H243.141V205.272C243.197 205.197 243.28 205.135 243.389 205.084C243.501 205.033 243.62 205.008 243.745 205.008C243.969 205.008 244.151 205.056 244.289 205.152C244.431 205.248 244.531 205.369 244.589 205.516C244.651 205.663 244.681 205.817 244.681 205.98C244.681 206.177 244.643 206.353 244.565 206.508C244.491 206.66 244.377 206.78 244.225 206.868C244.076 206.956 243.892 207 243.673 207C243.383 207 243.149 206.928 242.973 206.784C242.797 206.64 242.692 206.449 242.657 206.212H243.101C243.131 206.337 243.196 206.437 243.297 206.512C243.399 206.584 243.525 206.62 243.677 206.62C243.867 206.62 244.008 206.563 244.101 206.448C244.197 206.333 244.245 206.181 244.245 205.992C244.245 205.8 244.197 205.653 244.101 205.552C244.005 205.448 243.864 205.396 243.677 205.396C243.547 205.396 243.436 205.429 243.345 205.496C243.257 205.56 243.193 205.648 243.153 205.76H242.721V204.076H244.481V204.476Z" fill="black"/>
<path opacity="0.6" d="M274.894 204.22V206.224C274.894 206.472 274.818 206.668 274.666 206.812C274.517 206.956 274.319 207.028 274.074 207.028C273.829 207.028 273.63 206.956 273.478 206.812C273.329 206.668 273.254 206.472 273.254 206.224H273.714C273.717 206.347 273.747 206.444 273.806 206.516C273.867 206.588 273.957 206.624 274.074 206.624C274.191 206.624 274.281 206.588 274.342 206.516C274.403 206.441 274.434 206.344 274.434 206.224V204.22H274.894ZM277.632 204.796V207H277.176V206.74C277.104 206.831 277.009 206.903 276.892 206.956C276.777 207.007 276.655 207.032 276.524 207.032C276.351 207.032 276.195 206.996 276.056 206.924C275.92 206.852 275.812 206.745 275.732 206.604C275.655 206.463 275.616 206.292 275.616 206.092V204.796H276.068V206.024C276.068 206.221 276.117 206.373 276.216 206.48C276.315 206.584 276.449 206.636 276.62 206.636C276.791 206.636 276.925 206.584 277.024 206.48C277.125 206.373 277.176 206.221 277.176 206.024V204.796H277.632ZM278.69 204.04V207H278.234V204.04H278.69ZM281.272 204.796L279.92 208.036H279.448L279.896 206.964L279.028 204.796H279.536L280.156 206.476L280.8 204.796H281.272ZM284.163 204.76C284.134 204.637 284.081 204.545 284.003 204.484C283.926 204.423 283.818 204.392 283.679 204.392C283.469 204.392 283.311 204.473 283.207 204.636C283.103 204.796 283.049 205.063 283.043 205.436C283.113 205.319 283.214 205.228 283.347 205.164C283.481 205.1 283.625 205.068 283.779 205.068C283.955 205.068 284.11 205.107 284.243 205.184C284.379 205.259 284.485 205.368 284.559 205.512C284.637 205.656 284.675 205.828 284.675 206.028C284.675 206.215 284.638 206.381 284.563 206.528C284.491 206.675 284.383 206.791 284.239 206.876C284.095 206.959 283.922 207 283.719 207C283.445 207 283.229 206.94 283.071 206.82C282.917 206.697 282.807 206.525 282.743 206.304C282.682 206.083 282.651 205.807 282.651 205.476C282.651 204.5 282.995 204.012 283.683 204.012C283.95 204.012 284.159 204.084 284.311 204.228C284.466 204.372 284.557 204.549 284.583 204.76H284.163ZM283.679 205.452C283.517 205.452 283.378 205.501 283.263 205.6C283.151 205.696 283.095 205.836 283.095 206.02C283.095 206.204 283.147 206.351 283.251 206.46C283.358 206.567 283.506 206.62 283.695 206.62C283.863 206.62 283.995 206.568 284.091 206.464C284.19 206.36 284.239 206.221 284.239 206.048C284.239 205.867 284.191 205.723 284.095 205.616C284.002 205.507 283.863 205.452 283.679 205.452Z" fill="black"/>
<path opacity="0.6" d="M315.058 204.22V206.224C315.058 206.472 314.982 206.668 314.83 206.812C314.681 206.956 314.484 207.028 314.238 207.028C313.993 207.028 313.794 206.956 313.642 206.812C313.493 206.668 313.418 206.472 313.418 206.224H313.878C313.881 206.347 313.912 206.444 313.97 206.516C314.032 206.588 314.121 206.624 314.238 206.624C314.356 206.624 314.445 206.588 314.506 206.516C314.568 206.441 314.598 206.344 314.598 206.224V204.22H315.058ZM317.796 204.796V207H317.34V206.74C317.268 206.831 317.173 206.903 317.056 206.956C316.941 207.007 316.819 207.032 316.688 207.032C316.515 207.032 316.359 206.996 316.22 206.924C316.084 206.852 315.976 206.745 315.896 206.604C315.819 206.463 315.78 206.292 315.78 206.092V204.796H316.232V206.024C316.232 206.221 316.281 206.373 316.38 206.48C316.479 206.584 316.613 206.636 316.784 206.636C316.955 206.636 317.089 206.584 317.188 206.48C317.289 206.373 317.34 206.221 317.34 206.024V204.796H317.796ZM318.854 204.04V207H318.398V204.04H318.854ZM321.436 204.796L320.084 208.036H319.612L320.06 206.964L319.192 204.796H319.7L320.32 206.476L320.964 204.796H321.436ZM324.608 204.436L323.496 207H323.036L324.16 204.484H322.68V204.096H324.608V204.436Z" fill="black"/>
<circle cx="79.5" cy="168.5" r="2" fill="#1A377D" stroke="#1A377D"/>
<circle cx="120" cy="130" r="2" fill="#1A377D" stroke="#1A377D" stroke-width="2"/>
<circle cx="160" cy="109" r="2" fill="#1A377D" stroke="#1A377D" stroke-width="2"/>
<circle cx="200" cy="127" r="2" fill="#1A377D" stroke="#1A377D" stroke-width="2"/>
<circle cx="240" cy="90" r="2" fill="#1A377D" stroke="#1A377D" stroke-width="2"/>
<circle cx="280" cy="119" r="2" fill="#1A377D" stroke="#1A377D" stroke-width="2"/>
<circle cx="321" cy="128" r="2" fill="#1A377D" stroke="#1A377D" stroke-width="2"/>
<line x1="80.6511" y1="167.642" x2="119.651" y2="129.642" stroke="#1A377D"/>
<line x1="119.768" y1="129.557" x2="159.768" y2="108.557" stroke="#1A377D"/>
<line x1="160.215" y1="108.548" x2="200.215" y2="127.548" stroke="#1A377D"/>
<line x1="199.656" y1="127.638" x2="239.656" y2="89.6375" stroke="#1A377D"/>
<line x1="240.3" y1="89.6" x2="280.3" y2="119.6" stroke="#1A377D"/>
<line x1="280.098" y1="119.51" x2="320.098" y2="127.51" stroke="#1A377D"/>
<path d="M156 16H230V39C230 43.9706 225.971 48 221 48H165C160.029 48 156 43.9706 156 39V16Z" fill="#E8EBF2"/>
<path d="M177.669 35.44L175.581 41H174.525L172.429 35.44H173.405L175.053 40.064L176.709 35.44H177.669ZM178.896 36.008C178.731 36.008 178.592 35.952 178.48 35.84C178.368 35.728 178.312 35.5893 178.312 35.424C178.312 35.2587 178.368 35.12 178.48 35.008C178.592 34.896 178.731 34.84 178.896 34.84C179.056 34.84 179.192 34.896 179.304 35.008C179.416 35.12 179.472 35.2587 179.472 35.424C179.472 35.5893 179.416 35.728 179.304 35.84C179.192 35.952 179.056 36.008 178.896 36.008ZM179.344 36.592V41H178.432V36.592H179.344ZM184.581 38.688C184.581 38.8533 184.571 39.0027 184.549 39.136H181.181C181.208 39.488 181.339 39.7707 181.573 39.984C181.808 40.1973 182.096 40.304 182.437 40.304C182.928 40.304 183.275 40.0987 183.477 39.688H184.461C184.328 40.0933 184.085 40.4267 183.733 40.688C183.387 40.944 182.955 41.072 182.437 41.072C182.016 41.072 181.637 40.9787 181.301 40.792C180.971 40.6 180.709 40.3333 180.517 39.992C180.331 39.6453 180.237 39.2453 180.237 38.792C180.237 38.3387 180.328 37.9413 180.509 37.6C180.696 37.2533 180.955 36.9867 181.285 36.8C181.621 36.6133 182.005 36.52 182.437 36.52C182.853 36.52 183.224 36.6107 183.549 36.792C183.875 36.9733 184.128 37.2293 184.309 37.56C184.491 37.8853 184.581 38.2613 184.581 38.688ZM183.629 38.4C183.624 38.064 183.504 37.7947 183.269 37.592C183.035 37.3893 182.744 37.288 182.397 37.288C182.083 37.288 181.813 37.3893 181.589 37.592C181.365 37.7893 181.232 38.0587 181.189 38.4H183.629ZM191.399 36.592L190.031 41H189.071L188.183 37.744L187.295 41H186.335L184.959 36.592H185.887L186.807 40.136L187.743 36.592H188.695L189.591 40.12L190.503 36.592H191.399ZM200.015 35.44V41H199.103V37.192L197.407 41H196.775L195.071 37.192V41H194.159V35.44H195.143L197.095 39.8L199.039 35.44H200.015ZM203.125 41.072C202.709 41.072 202.333 40.9787 201.997 40.792C201.661 40.6 201.397 40.3333 201.205 39.992C201.013 39.6453 200.917 39.2453 200.917 38.792C200.917 38.344 201.016 37.9467 201.213 37.6C201.411 37.2533 201.68 36.9867 202.021 36.8C202.363 36.6133 202.744 36.52 203.165 36.52C203.587 36.52 203.968 36.6133 204.309 36.8C204.651 36.9867 204.92 37.2533 205.117 37.6C205.315 37.9467 205.413 38.344 205.413 38.792C205.413 39.24 205.312 39.6373 205.109 39.984C204.907 40.3307 204.629 40.6 204.277 40.792C203.931 40.9787 203.547 41.072 203.125 41.072ZM203.125 40.28C203.36 40.28 203.579 40.224 203.781 40.112C203.989 40 204.157 39.832 204.285 39.608C204.413 39.384 204.477 39.112 204.477 38.792C204.477 38.472 204.416 38.2027 204.293 37.984C204.171 37.76 204.008 37.592 203.805 37.48C203.603 37.368 203.384 37.312 203.149 37.312C202.915 37.312 202.696 37.368 202.493 37.48C202.296 37.592 202.139 37.76 202.021 37.984C201.904 38.2027 201.845 38.472 201.845 38.792C201.845 39.2667 201.965 39.6347 202.205 39.896C202.451 40.152 202.757 40.28 203.125 40.28ZM207.227 37.232C207.36 37.008 207.536 36.8347 207.755 36.712C207.979 36.584 208.243 36.52 208.547 36.52V37.464H208.315C207.958 37.464 207.686 37.5547 207.499 37.736C207.318 37.9173 207.227 38.232 207.227 38.68V41H206.315V36.592H207.227V37.232ZM213.425 38.688C213.425 38.8533 213.414 39.0027 213.393 39.136H210.025C210.052 39.488 210.182 39.7707 210.417 39.984C210.652 40.1973 210.94 40.304 211.281 40.304C211.772 40.304 212.118 40.0987 212.321 39.688H213.305C213.172 40.0933 212.929 40.4267 212.577 40.688C212.23 40.944 211.798 41.072 211.281 41.072C210.86 41.072 210.481 40.9787 210.145 40.792C209.814 40.6 209.553 40.3333 209.361 39.992C209.174 39.6453 209.081 39.2453 209.081 38.792C209.081 38.3387 209.172 37.9413 209.353 37.6C209.54 37.2533 209.798 36.9867 210.129 36.8C210.465 36.6133 210.849 36.52 211.281 36.52C211.697 36.52 212.068 36.6107 212.393 36.792C212.718 36.9733 212.972 37.2293 213.153 37.56C213.334 37.8853 213.425 38.2613 213.425 38.688ZM212.473 38.4C212.468 38.064 212.348 37.7947 212.113 37.592C211.878 37.3893 211.588 37.288 211.241 37.288C210.926 37.288 210.657 37.3893 210.433 37.592C210.209 37.7893 210.076 38.0587 210.033 38.4H212.473Z" fill="black"/>
<g clip-path="url(#clip0_4_1231)">
<path d="M196.003 25.54C196.042 25.5013 196.073 25.4553 196.094 25.4047C196.115 25.3541 196.126 25.2998 196.126 25.245C196.126 25.1902 196.115 25.1359 196.094 25.0853C196.073 25.0347 196.042 24.9887 196.003 24.95L193.233 22.18C193.202 22.1491 193.166 22.1246 193.126 22.1079C193.085 22.0911 193.042 22.0825 192.998 22.0825C192.955 22.0825 192.911 22.0911 192.871 22.1079C192.831 22.1246 192.794 22.1491 192.763 22.18L189.993 24.95C189.83 25.1133 189.83 25.3767 189.993 25.54C190.157 25.7033 190.42 25.7033 190.583 25.54L193 23.1267L195.417 25.5433C195.577 25.7033 195.843 25.7033 196.003 25.54Z" fill="black"/>
</g>
<defs>
<filter id="filter0_dd_4_1231" x="0" y="0" width="385" height="248" filterUnits="userSpaceOnUse" color-interpolation-filters="sRGB">
<feFlood flood-opacity="0" result="BackgroundImageFix"/>
<feColorMatrix in="SourceAlpha" type="matrix" values="0 0 0 0 0 0 0 0 0 0 0 0 0 0 0 0 0 0 127 0" result="hardAlpha"/>
<feOffset dy="4"/>
<feGaussianBlur stdDeviation="10"/>
<feComposite in2="hardAlpha" operator="out"/>
<feColorMatrix type="matrix" values="0 0 0 0 0 0 0 0 0 0 0 0 0 0 0 0 0 0 0.25 0"/>
<feBlend mode="normal" in2="BackgroundImageFix" result="effect1_dropShadow_4_1231"/>
<feColorMatrix in="SourceAlpha" type="matrix" values="0 0 0 0 0 0 0 0 0 0 0 0 0 0 0 0 0 0 127 0" result="hardAlpha"/>
<feOffset dy="4"/>
<feGaussianBlur stdDeviation="2"/>
<feComposite in2="hardAlpha" operator="out"/>
<feColorMatrix type="matrix" values="0 0 0 0 0 0 0 0 0 0 0 0 0 0 0 0 0 0 0.25 0"/>
<feBlend mode="normal" in2="effect1_dropShadow_4_1231" result="effect2_dropShadow_4_1231"/>
<feBlend mode="normal" in="SourceGraphic" in2="effect2_dropShadow_4_1231" result="shape"/>
</filter>
<clipPath id="clip0_4_1231">
<rect width="8" height="8" fill="white" transform="translate(197 20) rotate(90)"/>
</clipPath>
</defs>
</svg>
