<svg width="48" height="48" viewBox="0 0 48 48" fill="none" xmlns="http://www.w3.org/2000/svg">
<circle cx="24" cy="24" r="24" fill="#212121"/>
<path d="M29 22H31C33 22 34 21 34 19V17C34 15 33 14 31 14H29C27 14 26 15 26 17V19C26 21 27 22 29 22Z" stroke="white" stroke-width="1.5" stroke-miterlimit="10" stroke-linecap="round" stroke-linejoin="round"/>
<path d="M17 34H19C21 34 22 33 22 31V29C22 27 21 26 19 26H17C15 26 14 27 14 29V31C14 33 15 34 17 34Z" stroke="white" stroke-width="1.5" stroke-miterlimit="10" stroke-linecap="round" stroke-linejoin="round"/>
<path d="M18 22C20.2091 22 22 20.2091 22 18C22 15.7909 20.2091 14 18 14C15.7909 14 14 15.7909 14 18C14 20.2091 15.7909 22 18 22Z" stroke="white" stroke-width="1.5" stroke-miterlimit="10" stroke-linecap="round" stroke-linejoin="round"/>
<path d="M30 34C32.2091 34 34 32.2091 34 30C34 27.7909 32.2091 26 30 26C27.7909 26 26 27.7909 26 30C26 32.2091 27.7909 34 30 34Z" stroke="white" stroke-width="1.5" stroke-miterlimit="10" stroke-linecap="round" stroke-linejoin="round"/>
</svg>
