<svg width="20" height="20" viewBox="0 0 20 20" fill="none" xmlns="http://www.w3.org/2000/svg">
<g clip-path="url(#clip0_0_12893)">
<path d="M18.125 0.4687H1.875C1.5063 0.464948 1.15117 0.607613 0.887529 0.865392C0.623892 1.12317 0.473283 1.47501 0.46875 1.8437V18.1593C0.474103 18.5275 0.625072 18.8785 0.88862 19.1356C1.15217 19.3927 1.50683 19.535 1.875 19.5312H18.125C18.4937 19.5341 18.8486 19.391 19.1121 19.133C19.3756 18.8751 19.5263 18.5233 19.5312 18.1546V1.83901C19.5247 1.4714 19.3733 1.12124 19.1099 0.864647C18.8466 0.608051 18.4927 0.465759 18.125 0.4687Z" fill="#0076B2"/>
<path d="M3.29067 7.61401H6.12036V16.7187H3.29067V7.61401ZM4.7063 3.08276C5.03085 3.08276 5.34811 3.17902 5.61794 3.35937C5.88778 3.53971 6.09806 3.79603 6.22219 4.09591C6.34632 4.39579 6.37872 4.72574 6.31528 5.04403C6.25185 5.36233 6.09544 5.65466 5.86584 5.88404C5.63624 6.11342 5.34376 6.26955 5.02541 6.33268C4.70706 6.39581 4.37713 6.36309 4.07738 6.23868C3.77762 6.11426 3.5215 5.90374 3.34141 5.63373C3.16132 5.36373 3.06537 5.04638 3.06567 4.72183C3.06609 4.28698 3.23912 3.87008 3.54675 3.56274C3.85439 3.2554 4.27145 3.08276 4.7063 3.08276ZM7.89536 7.61401H10.6079V8.86401H10.6454C11.0235 8.14839 11.9454 7.3937 13.3219 7.3937C16.1875 7.38745 16.7188 9.27339 16.7188 11.7187V16.7187H13.8891V12.289C13.8891 11.2343 13.8704 9.87651 12.4188 9.87651C10.9672 9.87651 10.7204 11.0265 10.7204 12.2203V16.7187H7.89536V7.61401Z" fill="white"/>
</g>
<defs>
<clipPath id="clip0_0_12893">
<rect width="20" height="20" fill="white"/>
</clipPath>
</defs>
</svg>
