<?xml version="1.0" encoding="UTF-8"?>
<svg xmlns="http://www.w3.org/2000/svg" xmlns:xlink="http://www.w3.org/1999/xlink" width="24px" height="24px" viewBox="0 0 24 24" version="1.1">
<g id="surface1">
<path style=" stroke:none;fill-rule:nonzero;fill:rgb(11.372549%,60.784314%,94.117647%);fill-opacity:1;" d="M 22.460938 6 C 21.691406 6.351562 20.859375 6.578125 20 6.691406 C 20.878906 6.160156 21.558594 5.320312 21.878906 4.308594 C 21.050781 4.808594 20.128906 5.160156 19.160156 5.359375 C 18.371094 4.5 17.261719 4 16 4 C 13.648438 4 11.730469 5.921875 11.730469 8.289062 C 11.730469 8.628906 11.769531 8.960938 11.839844 9.269531 C 8.28125 9.089844 5.109375 7.378906 3 4.789062 C 2.628906 5.421875 2.421875 6.160156 2.421875 6.941406 C 2.421875 8.429688 3.171875 9.75 4.328125 10.5 C 3.621094 10.5 2.960938 10.300781 2.378906 10 L 2.378906 10.03125 C 2.378906 12.109375 3.859375 13.851562 5.820312 14.238281 C 5.191406 14.414062 4.53125 14.4375 3.890625 14.308594 C 4.160156 15.164062 4.695312 15.910156 5.410156 16.441406 C 6.128906 16.976562 6.996094 17.273438 7.890625 17.289062 C 6.375 18.492188 4.492188 19.140625 2.558594 19.128906 C 2.21875 19.128906 1.878906 19.109375 1.539062 19.070312 C 3.441406 20.289062 5.699219 21 8.121094 21 C 16 21 20.328125 14.460938 20.328125 8.789062 C 20.328125 8.601562 20.328125 8.421875 20.320312 8.230469 C 21.160156 7.628906 21.878906 6.871094 22.460938 6 Z M 22.460938 6 "/>
</g>
</svg>
