<svg width="13" height="13" viewBox="0 0 13 13" fill="none" xmlns="http://www.w3.org/2000/svg">
<path d="M4.87435 2.70844C4.73069 2.70844 4.59291 2.76551 4.49133 2.86709C4.38975 2.96867 4.33268 3.10645 4.33268 3.25011C4.33268 3.39377 4.38975 3.53154 4.49133 3.63312C4.59291 3.7347 4.73069 3.79177 4.87435 3.79177C5.01801 3.79177 5.15578 3.7347 5.25736 3.63312C5.35895 3.53154 5.41602 3.39377 5.41602 3.25011C5.41602 3.10645 5.35895 2.96867 5.25736 2.86709C5.15578 2.76551 5.01801 2.70844 4.87435 2.70844ZM3.34143 2.70844C3.45334 2.39128 3.66087 2.11663 3.93542 1.92237C4.20997 1.7281 4.53802 1.62378 4.87435 1.62378C5.21068 1.62378 5.53872 1.7281 5.81327 1.92237C6.08782 2.11663 6.29536 2.39128 6.40727 2.70844H10.291C10.4347 2.70844 10.5724 2.76551 10.674 2.86709C10.7756 2.96867 10.8327 3.10645 10.8327 3.25011C10.8327 3.39377 10.7756 3.53154 10.674 3.63312C10.5724 3.7347 10.4347 3.79177 10.291 3.79177H6.40727C6.29536 4.10894 6.08782 4.38358 5.81327 4.57785C5.53872 4.77211 5.21068 4.87643 4.87435 4.87643C4.53802 4.87643 4.20997 4.77211 3.93542 4.57785C3.66087 4.38358 3.45334 4.10894 3.34143 3.79177H2.70768C2.56402 3.79177 2.42625 3.7347 2.32467 3.63312C2.22308 3.53154 2.16602 3.39377 2.16602 3.25011C2.16602 3.10645 2.22308 2.96867 2.32467 2.86709C2.42625 2.76551 2.56402 2.70844 2.70768 2.70844H3.34143ZM8.12435 5.95844C7.98069 5.95844 7.84291 6.01551 7.74133 6.11709C7.63975 6.21867 7.58268 6.35645 7.58268 6.50011C7.58268 6.64377 7.63975 6.78154 7.74133 6.88312C7.84291 6.9847 7.98069 7.04177 8.12435 7.04177C8.26801 7.04177 8.40578 6.9847 8.50736 6.88312C8.60895 6.78154 8.66602 6.64377 8.66602 6.50011C8.66602 6.35645 8.60895 6.21867 8.50736 6.11709C8.40578 6.01551 8.26801 5.95844 8.12435 5.95844ZM6.59143 5.95844C6.70334 5.64128 6.91087 5.36663 7.18542 5.17237C7.45997 4.9781 7.78802 4.87378 8.12435 4.87378C8.46068 4.87378 8.78872 4.9781 9.06327 5.17237C9.33782 5.36663 9.54536 5.64128 9.65727 5.95844H10.291C10.4347 5.95844 10.5724 6.01551 10.674 6.11709C10.7756 6.21867 10.8327 6.35645 10.8327 6.50011C10.8327 6.64377 10.7756 6.78154 10.674 6.88312C10.5724 6.9847 10.4347 7.04177 10.291 7.04177H9.65727C9.54536 7.35894 9.33782 7.63358 9.06327 7.82785C8.78872 8.02211 8.46068 8.12643 8.12435 8.12643C7.78802 8.12643 7.45997 8.02211 7.18542 7.82785C6.91087 7.63358 6.70334 7.35894 6.59143 7.04177H2.70768C2.56402 7.04177 2.42625 6.9847 2.32467 6.88312C2.22308 6.78154 2.16602 6.64377 2.16602 6.50011C2.16602 6.35645 2.22308 6.21867 2.32467 6.11709C2.42625 6.01551 2.56402 5.95844 2.70768 5.95844H6.59143ZM4.87435 9.20844C4.73069 9.20844 4.59291 9.26551 4.49133 9.36709C4.38975 9.46867 4.33268 9.60645 4.33268 9.75011C4.33268 9.89377 4.38975 10.0315 4.49133 10.1331C4.59291 10.2347 4.73069 10.2918 4.87435 10.2918C5.01801 10.2918 5.15578 10.2347 5.25736 10.1331C5.35895 10.0315 5.41602 9.89377 5.41602 9.75011C5.41602 9.60645 5.35895 9.46867 5.25736 9.36709C5.15578 9.26551 5.01801 9.20844 4.87435 9.20844ZM3.34143 9.20844C3.45334 8.89128 3.66087 8.61663 3.93542 8.42237C4.20997 8.2281 4.53802 8.12378 4.87435 8.12378C5.21068 8.12378 5.53872 8.2281 5.81327 8.42237C6.08782 8.61663 6.29536 8.89128 6.40727 9.20844H10.291C10.4347 9.20844 10.5724 9.26551 10.674 9.36709C10.7756 9.46867 10.8327 9.60645 10.8327 9.75011C10.8327 9.89377 10.7756 10.0315 10.674 10.1331C10.5724 10.2347 10.4347 10.2918 10.291 10.2918H6.40727C6.29536 10.6089 6.08782 10.8836 5.81327 11.0778C5.53872 11.2721 5.21068 11.3764 4.87435 11.3764C4.53802 11.3764 4.20997 11.2721 3.93542 11.0778C3.66087 10.8836 3.45334 10.6089 3.34143 10.2918H2.70768C2.56402 10.2918 2.42625 10.2347 2.32467 10.1331C2.22308 10.0315 2.16602 9.89377 2.16602 9.75011C2.16602 9.60645 2.22308 9.46867 2.32467 9.36709C2.42625 9.26551 2.56402 9.20844 2.70768 9.20844H3.34143Z" fill="black"/>
</svg>
