<svg width="24" height="24" viewBox="0 0 24 24" fill="none" xmlns="http://www.w3.org/2000/svg">
<g clip-path="url(#clip0_39_5449)">
<path d="M23.3175 9.83633C23.4574 10.6418 23.5272 11.4578 23.526 12.2753C23.526 15.9263 22.221 19.0133 19.95 21.1028H19.953C17.967 22.9373 15.237 23.9993 12 23.9993C8.8174 23.9993 5.76516 22.735 3.51472 20.4846C1.26428 18.2342 0 15.1819 0 11.9993C0 8.81673 1.26428 5.76448 3.51472 3.51405C5.76516 1.26361 8.8174 -0.000673014 12 -0.000673014C14.9789 -0.0355605 17.8558 1.08358 20.028 3.12233L16.602 6.54833C15.3636 5.36779 13.7107 4.72131 12 4.74833C8.8695 4.74833 6.21 6.86033 5.262 9.70433C4.75936 11.1946 4.75936 12.8086 5.262 14.2988H5.2665C6.219 17.1383 8.874 19.2503 12.0045 19.2503C13.6215 19.2503 15.0105 18.8363 16.0875 18.1043H16.083C16.7084 17.69 17.2433 17.1533 17.6555 16.5266C18.0678 15.8999 18.3487 15.1961 18.4815 14.4578H12V9.83783L23.3175 9.83633Z" fill="#1A377D"/>
</g>
<defs>
<clipPath id="clip0_39_5449">
<rect width="24" height="24" fill="white"/>
</clipPath>
</defs>
</svg>
