<svg width="24" height="24" viewBox="0 0 24 24" fill="none" xmlns="http://www.w3.org/2000/svg">
<path d="M23.3175 9.83657C23.4574 10.642 23.5272 11.4581 23.526 12.2756C23.526 15.9266 22.221 19.0136 19.95 21.1031H19.953C17.967 22.9376 15.237 23.9996 12 23.9996C8.8174 23.9996 5.76516 22.7353 3.51472 20.4849C1.26428 18.2344 0 15.1822 0 11.9996C0 8.81697 1.26428 5.76473 3.51472 3.51429C5.76516 1.26385 8.8174 -0.000428873 12 -0.000428873C14.9789 -0.0353164 17.8558 1.08382 20.028 3.12257L16.602 6.54857C15.3636 5.36803 13.7107 4.72156 12 4.74857C8.8695 4.74857 6.21 6.86057 5.262 9.70457C4.75936 11.1948 4.75936 12.8088 5.262 14.2991H5.2665C6.219 17.1386 8.874 19.2506 12.0045 19.2506C13.6215 19.2506 15.0105 18.8366 16.0875 18.1046H16.083C16.7084 17.6903 17.2433 17.1536 17.6555 16.5268C18.0678 15.9001 18.3487 15.1964 18.4815 14.4581H12V9.83807L23.3175 9.83657Z" fill="white"/>
</svg>
