<svg width="385" height="248" viewBox="0 0 385 248" fill="none" xmlns="http://www.w3.org/2000/svg">
<g filter="url(#filter0_dd_819_2905)">
<path d="M20 16H353C359.627 16 365 21.3726 365 28V212C365 218.627 359.627 224 353 224H32C25.3726 224 20 218.627 20 212V16Z" fill="white"/>
</g>
<line opacity="0.23" x1="53.5" y1="52" x2="53.5" y2="214" stroke="black"/>
<line opacity="0.23" x1="37" y1="197.5" x2="347" y2="197.5" stroke="black"/>
<path opacity="0.6" d="M32.7127 166.38C32.9687 166.159 33.17 165.977 33.3167 165.836C33.466 165.692 33.59 165.543 33.6887 165.388C33.7874 165.233 33.8367 165.079 33.8367 164.924C33.8367 164.764 33.798 164.639 33.7207 164.548C33.646 164.457 33.5274 164.412 33.3647 164.412C33.2074 164.412 33.0847 164.463 32.9967 164.564C32.9114 164.663 32.866 164.796 32.8607 164.964H32.4207C32.4287 164.66 32.5194 164.428 32.6927 164.268C32.8687 164.105 33.0914 164.024 33.3607 164.024C33.6514 164.024 33.878 164.104 34.0407 164.264C34.206 164.424 34.2887 164.637 34.2887 164.904C34.2887 165.096 34.2394 165.281 34.1407 165.46C34.0447 165.636 33.9287 165.795 33.7927 165.936C33.6594 166.075 33.4887 166.236 33.2807 166.42L33.1007 166.58H34.3687V166.96H32.4247V166.628L32.7127 166.38ZM34.7693 165.504C34.7693 165.043 34.8466 164.683 35.0013 164.424C35.1586 164.163 35.428 164.032 35.8093 164.032C36.1906 164.032 36.4586 164.163 36.6133 164.424C36.7706 164.683 36.8493 165.043 36.8493 165.504C36.8493 165.971 36.7706 166.336 36.6133 166.6C36.4586 166.861 36.1906 166.992 35.8093 166.992C35.428 166.992 35.1586 166.861 35.0013 166.6C34.8466 166.336 34.7693 165.971 34.7693 165.504ZM36.4013 165.504C36.4013 165.288 36.3866 165.105 36.3573 164.956C36.3306 164.807 36.2746 164.685 36.1893 164.592C36.104 164.496 35.9773 164.448 35.8093 164.448C35.6413 164.448 35.5146 164.496 35.4293 164.592C35.344 164.685 35.2866 164.807 35.2573 164.956C35.2306 165.105 35.2173 165.288 35.2173 165.504C35.2173 165.728 35.2306 165.916 35.2573 166.068C35.284 166.22 35.34 166.343 35.4253 166.436C35.5133 166.529 35.6413 166.576 35.8093 166.576C35.9773 166.576 36.104 166.529 36.1893 166.436C36.2773 166.343 36.3346 166.22 36.3613 166.068C36.388 165.916 36.4013 165.728 36.4013 165.504ZM37.3318 165.504C37.3318 165.043 37.4091 164.683 37.5638 164.424C37.7211 164.163 37.9905 164.032 38.3718 164.032C38.7531 164.032 39.0211 164.163 39.1758 164.424C39.3331 164.683 39.4118 165.043 39.4118 165.504C39.4118 165.971 39.3331 166.336 39.1758 166.6C39.0211 166.861 38.7531 166.992 38.3718 166.992C37.9905 166.992 37.7211 166.861 37.5638 166.6C37.4091 166.336 37.3318 165.971 37.3318 165.504ZM38.9638 165.504C38.9638 165.288 38.9491 165.105 38.9198 164.956C38.8931 164.807 38.8371 164.685 38.7518 164.592C38.6665 164.496 38.5398 164.448 38.3718 164.448C38.2038 164.448 38.0771 164.496 37.9918 164.592C37.9065 164.685 37.8491 164.807 37.8198 164.956C37.7931 165.105 37.7798 165.288 37.7798 165.504C37.7798 165.728 37.7931 165.916 37.8198 166.068C37.8465 166.22 37.9025 166.343 37.9878 166.436C38.0758 166.529 38.2038 166.576 38.3718 166.576C38.5398 166.576 38.6665 166.529 38.7518 166.436C38.8398 166.343 38.8971 166.22 38.9238 166.068C38.9505 165.916 38.9638 165.728 38.9638 165.504ZM39.8943 165.504C39.8943 165.043 39.9716 164.683 40.1263 164.424C40.2836 164.163 40.553 164.032 40.9343 164.032C41.3156 164.032 41.5836 164.163 41.7383 164.424C41.8956 164.683 41.9743 165.043 41.9743 165.504C41.9743 165.971 41.8956 166.336 41.7383 166.6C41.5836 166.861 41.3156 166.992 40.9343 166.992C40.553 166.992 40.2836 166.861 40.1263 166.6C39.9716 166.336 39.8943 165.971 39.8943 165.504ZM41.5263 165.504C41.5263 165.288 41.5116 165.105 41.4823 164.956C41.4556 164.807 41.3996 164.685 41.3143 164.592C41.229 164.496 41.1023 164.448 40.9343 164.448C40.7663 164.448 40.6396 164.496 40.5543 164.592C40.469 164.685 40.4116 164.807 40.3823 164.956C40.3556 165.105 40.3423 165.288 40.3423 165.504C40.3423 165.728 40.3556 165.916 40.3823 166.068C40.409 166.22 40.465 166.343 40.5503 166.436C40.6383 166.529 40.7663 166.576 40.9343 166.576C41.1023 166.576 41.229 166.529 41.3143 166.436C41.4023 166.343 41.4596 166.22 41.4863 166.068C41.513 165.916 41.5263 165.728 41.5263 165.504ZM42.4568 165.504C42.4568 165.043 42.5341 164.683 42.6888 164.424C42.8461 164.163 43.1155 164.032 43.4968 164.032C43.8781 164.032 44.1461 164.163 44.3008 164.424C44.4581 164.683 44.5368 165.043 44.5368 165.504C44.5368 165.971 44.4581 166.336 44.3008 166.6C44.1461 166.861 43.8781 166.992 43.4968 166.992C43.1155 166.992 42.8461 166.861 42.6888 166.6C42.5341 166.336 42.4568 165.971 42.4568 165.504ZM44.0888 165.504C44.0888 165.288 44.0741 165.105 44.0448 164.956C44.0181 164.807 43.9621 164.685 43.8768 164.592C43.7915 164.496 43.6648 164.448 43.4968 164.448C43.3288 164.448 43.2021 164.496 43.1168 164.592C43.0315 164.685 42.9741 164.807 42.9448 164.956C42.9181 165.105 42.9048 165.288 42.9048 165.504C42.9048 165.728 42.9181 165.916 42.9448 166.068C42.9715 166.22 43.0275 166.343 43.1128 166.436C43.2008 166.529 43.3288 166.576 43.4968 166.576C43.6648 166.576 43.7915 166.529 43.8768 166.436C43.9648 166.343 44.0221 166.22 44.0488 166.068C44.0755 165.916 44.0888 165.728 44.0888 165.504Z" fill="black"/>
<path opacity="0.6" d="M32.8316 136.476C32.5543 136.337 32.4156 136.119 32.4156 135.82C32.4156 135.676 32.4516 135.544 32.5236 135.424C32.5956 135.304 32.7036 135.209 32.8476 135.14C32.9916 135.068 33.1676 135.032 33.3756 135.032C33.5809 135.032 33.7556 135.068 33.8996 135.14C34.0463 135.209 34.1556 135.304 34.2276 135.424C34.2996 135.544 34.3356 135.676 34.3356 135.82C34.3356 135.969 34.2969 136.101 34.2196 136.216C34.1449 136.328 34.0449 136.415 33.9196 136.476C34.0716 136.532 34.1916 136.624 34.2796 136.752C34.3676 136.877 34.4116 137.025 34.4116 137.196C34.4116 137.369 34.3676 137.523 34.2796 137.656C34.1916 137.789 34.0689 137.892 33.9116 137.964C33.7543 138.036 33.5756 138.072 33.3756 138.072C33.1756 138.072 32.9969 138.036 32.8396 137.964C32.6849 137.892 32.5636 137.789 32.4756 137.656C32.3876 137.523 32.3436 137.369 32.3436 137.196C32.3436 137.023 32.3876 136.873 32.4756 136.748C32.5636 136.623 32.6823 136.532 32.8316 136.476ZM33.8996 135.876C33.8996 135.727 33.8529 135.612 33.7596 135.532C33.6663 135.452 33.5383 135.412 33.3756 135.412C33.2156 135.412 33.0889 135.452 32.9956 135.532C32.9023 135.612 32.8556 135.728 32.8556 135.88C32.8556 136.013 32.9036 136.123 32.9996 136.208C33.0983 136.291 33.2236 136.332 33.3756 136.332C33.5276 136.332 33.6529 136.289 33.7516 136.204C33.8503 136.119 33.8996 136.009 33.8996 135.876ZM33.3756 136.676C33.1996 136.676 33.0556 136.72 32.9436 136.808C32.8343 136.893 32.7796 137.017 32.7796 137.18C32.7796 137.332 32.8329 137.456 32.9396 137.552C33.0463 137.645 33.1916 137.692 33.3756 137.692C33.5569 137.692 33.6996 137.644 33.8036 137.548C33.9103 137.452 33.9636 137.329 33.9636 137.18C33.9636 137.02 33.9089 136.896 33.7996 136.808C33.6929 136.72 33.5516 136.676 33.3756 136.676ZM34.8904 136.504C34.8904 136.043 34.9677 135.683 35.1224 135.424C35.2797 135.163 35.5491 135.032 35.9304 135.032C36.3117 135.032 36.5797 135.163 36.7344 135.424C36.8917 135.683 36.9704 136.043 36.9704 136.504C36.9704 136.971 36.8917 137.336 36.7344 137.6C36.5797 137.861 36.3117 137.992 35.9304 137.992C35.5491 137.992 35.2797 137.861 35.1224 137.6C34.9677 137.336 34.8904 136.971 34.8904 136.504ZM36.5224 136.504C36.5224 136.288 36.5077 136.105 36.4784 135.956C36.4517 135.807 36.3957 135.685 36.3104 135.592C36.2251 135.496 36.0984 135.448 35.9304 135.448C35.7624 135.448 35.6357 135.496 35.5504 135.592C35.4651 135.685 35.4077 135.807 35.3784 135.956C35.3517 136.105 35.3384 136.288 35.3384 136.504C35.3384 136.728 35.3517 136.916 35.3784 137.068C35.4051 137.22 35.4611 137.343 35.5464 137.436C35.6344 137.529 35.7624 137.576 35.9304 137.576C36.0984 137.576 36.2251 137.529 36.3104 137.436C36.3984 137.343 36.4557 137.22 36.4824 137.068C36.5091 136.916 36.5224 136.728 36.5224 136.504ZM37.4529 136.504C37.4529 136.043 37.5302 135.683 37.6849 135.424C37.8422 135.163 38.1116 135.032 38.4929 135.032C38.8742 135.032 39.1422 135.163 39.2969 135.424C39.4542 135.683 39.5329 136.043 39.5329 136.504C39.5329 136.971 39.4542 137.336 39.2969 137.6C39.1422 137.861 38.8742 137.992 38.4929 137.992C38.1116 137.992 37.8422 137.861 37.6849 137.6C37.5302 137.336 37.4529 136.971 37.4529 136.504ZM39.0849 136.504C39.0849 136.288 39.0702 136.105 39.0409 135.956C39.0142 135.807 38.9582 135.685 38.8729 135.592C38.7876 135.496 38.6609 135.448 38.4929 135.448C38.3249 135.448 38.1982 135.496 38.1129 135.592C38.0276 135.685 37.9702 135.807 37.9409 135.956C37.9142 136.105 37.9009 136.288 37.9009 136.504C37.9009 136.728 37.9142 136.916 37.9409 137.068C37.9676 137.22 38.0236 137.343 38.1089 137.436C38.1969 137.529 38.3249 137.576 38.4929 137.576C38.6609 137.576 38.7876 137.529 38.8729 137.436C38.9609 137.343 39.0182 137.22 39.0449 137.068C39.0716 136.916 39.0849 136.728 39.0849 136.504ZM40.0154 136.504C40.0154 136.043 40.0927 135.683 40.2474 135.424C40.4047 135.163 40.6741 135.032 41.0554 135.032C41.4367 135.032 41.7047 135.163 41.8594 135.424C42.0167 135.683 42.0954 136.043 42.0954 136.504C42.0954 136.971 42.0167 137.336 41.8594 137.6C41.7047 137.861 41.4367 137.992 41.0554 137.992C40.6741 137.992 40.4047 137.861 40.2474 137.6C40.0927 137.336 40.0154 136.971 40.0154 136.504ZM41.6474 136.504C41.6474 136.288 41.6327 136.105 41.6034 135.956C41.5767 135.807 41.5207 135.685 41.4354 135.592C41.3501 135.496 41.2234 135.448 41.0554 135.448C40.8874 135.448 40.7607 135.496 40.6754 135.592C40.5901 135.685 40.5327 135.807 40.5034 135.956C40.4767 136.105 40.4634 136.288 40.4634 136.504C40.4634 136.728 40.4767 136.916 40.5034 137.068C40.5301 137.22 40.5861 137.343 40.6714 137.436C40.7594 137.529 40.8874 137.576 41.0554 137.576C41.2234 137.576 41.3501 137.529 41.4354 137.436C41.5234 137.343 41.5807 137.22 41.6074 137.068C41.6341 136.916 41.6474 136.728 41.6474 136.504ZM42.5779 136.504C42.5779 136.043 42.6552 135.683 42.8099 135.424C42.9672 135.163 43.2366 135.032 43.6179 135.032C43.9992 135.032 44.2672 135.163 44.4219 135.424C44.5792 135.683 44.6579 136.043 44.6579 136.504C44.6579 136.971 44.5792 137.336 44.4219 137.6C44.2672 137.861 43.9992 137.992 43.6179 137.992C43.2366 137.992 42.9672 137.861 42.8099 137.6C42.6552 137.336 42.5779 136.971 42.5779 136.504ZM44.2099 136.504C44.2099 136.288 44.1952 136.105 44.1659 135.956C44.1392 135.807 44.0832 135.685 43.9979 135.592C43.9126 135.496 43.7859 135.448 43.6179 135.448C43.4499 135.448 43.3232 135.496 43.2379 135.592C43.1526 135.685 43.0952 135.807 43.0659 135.956C43.0392 136.105 43.0259 136.288 43.0259 136.504C43.0259 136.728 43.0392 136.916 43.0659 137.068C43.0926 137.22 43.1486 137.343 43.2339 137.436C43.3219 137.529 43.4499 137.576 43.6179 137.576C43.7859 137.576 43.9126 137.529 43.9979 137.436C44.0859 137.343 44.1432 137.22 44.1699 137.068C44.1966 136.916 44.2099 136.728 44.2099 136.504Z" fill="black"/>
<path opacity="0.6" d="M31.6624 106.5V106.084H32.4944V109H32.0344V106.5H31.6624ZM33.6809 108.452L33.1969 109.556H32.9009L33.1849 108.452H33.6809ZM33.9633 108.392V108.048L35.3073 106.12H35.8593V107.996H36.2313V108.392H35.8593V109H35.4113V108.392H33.9633ZM35.4313 106.584L34.4873 107.996H35.4313V106.584ZM36.6091 107.504C36.6091 107.043 36.6865 106.683 36.8411 106.424C36.9985 106.163 37.2678 106.032 37.6491 106.032C38.0305 106.032 38.2985 106.163 38.4531 106.424C38.6105 106.683 38.6891 107.043 38.6891 107.504C38.6891 107.971 38.6105 108.336 38.4531 108.6C38.2985 108.861 38.0305 108.992 37.6491 108.992C37.2678 108.992 36.9985 108.861 36.8411 108.6C36.6865 108.336 36.6091 107.971 36.6091 107.504ZM38.2411 107.504C38.2411 107.288 38.2265 107.105 38.1971 106.956C38.1705 106.807 38.1145 106.685 38.0291 106.592C37.9438 106.496 37.8171 106.448 37.6491 106.448C37.4811 106.448 37.3545 106.496 37.2691 106.592C37.1838 106.685 37.1265 106.807 37.0971 106.956C37.0705 107.105 37.0571 107.288 37.0571 107.504C37.0571 107.728 37.0705 107.916 37.0971 108.068C37.1238 108.22 37.1798 108.343 37.2651 108.436C37.3531 108.529 37.4811 108.576 37.6491 108.576C37.8171 108.576 37.9438 108.529 38.0291 108.436C38.1171 108.343 38.1745 108.22 38.2011 108.068C38.2278 107.916 38.2411 107.728 38.2411 107.504ZM39.7316 108.452L39.2476 109.556H38.9516L39.2356 108.452H39.7316ZM40.0701 107.504C40.0701 107.043 40.1474 106.683 40.3021 106.424C40.4594 106.163 40.7287 106.032 41.1101 106.032C41.4914 106.032 41.7594 106.163 41.9141 106.424C42.0714 106.683 42.1501 107.043 42.1501 107.504C42.1501 107.971 42.0714 108.336 41.9141 108.6C41.7594 108.861 41.4914 108.992 41.1101 108.992C40.7287 108.992 40.4594 108.861 40.3021 108.6C40.1474 108.336 40.0701 107.971 40.0701 107.504ZM41.7021 107.504C41.7021 107.288 41.6874 107.105 41.6581 106.956C41.6314 106.807 41.5754 106.685 41.4901 106.592C41.4047 106.496 41.2781 106.448 41.1101 106.448C40.9421 106.448 40.8154 106.496 40.7301 106.592C40.6447 106.685 40.5874 106.807 40.5581 106.956C40.5314 107.105 40.5181 107.288 40.5181 107.504C40.5181 107.728 40.5314 107.916 40.5581 108.068C40.5847 108.22 40.6407 108.343 40.7261 108.436C40.8141 108.529 40.9421 108.576 41.1101 108.576C41.2781 108.576 41.4047 108.529 41.4901 108.436C41.5781 108.343 41.6354 108.22 41.6621 108.068C41.6887 107.916 41.7021 107.728 41.7021 107.504ZM42.6326 107.504C42.6326 107.043 42.7099 106.683 42.8646 106.424C43.0219 106.163 43.2912 106.032 43.6726 106.032C44.0539 106.032 44.3219 106.163 44.4766 106.424C44.6339 106.683 44.7126 107.043 44.7126 107.504C44.7126 107.971 44.6339 108.336 44.4766 108.6C44.3219 108.861 44.0539 108.992 43.6726 108.992C43.2912 108.992 43.0219 108.861 42.8646 108.6C42.7099 108.336 42.6326 107.971 42.6326 107.504ZM44.2646 107.504C44.2646 107.288 44.2499 107.105 44.2206 106.956C44.1939 106.807 44.1379 106.685 44.0526 106.592C43.9672 106.496 43.8406 106.448 43.6726 106.448C43.5046 106.448 43.3779 106.496 43.2926 106.592C43.2072 106.685 43.1499 106.807 43.1206 106.956C43.0939 107.105 43.0806 107.288 43.0806 107.504C43.0806 107.728 43.0939 107.916 43.1206 108.068C43.1472 108.22 43.2032 108.343 43.2886 108.436C43.3766 108.529 43.5046 108.576 43.6726 108.576C43.8406 108.576 43.9672 108.529 44.0526 108.436C44.1406 108.343 44.1979 108.22 44.2246 108.068C44.2512 107.916 44.2646 107.728 44.2646 107.504ZM45.1951 107.504C45.1951 107.043 45.2724 106.683 45.4271 106.424C45.5844 106.163 45.8537 106.032 46.2351 106.032C46.6164 106.032 46.8844 106.163 47.0391 106.424C47.1964 106.683 47.2751 107.043 47.2751 107.504C47.2751 107.971 47.1964 108.336 47.0391 108.6C46.8844 108.861 46.6164 108.992 46.2351 108.992C45.8537 108.992 45.5844 108.861 45.4271 108.6C45.2724 108.336 45.1951 107.971 45.1951 107.504ZM46.8271 107.504C46.8271 107.288 46.8124 107.105 46.7831 106.956C46.7564 106.807 46.7004 106.685 46.6151 106.592C46.5297 106.496 46.4031 106.448 46.2351 106.448C46.0671 106.448 45.9404 106.496 45.8551 106.592C45.7697 106.685 45.7124 106.807 45.6831 106.956C45.6564 107.105 45.6431 107.288 45.6431 107.504C45.6431 107.728 45.6564 107.916 45.6831 108.068C45.7097 108.22 45.7657 108.343 45.8511 108.436C45.9391 108.529 46.0671 108.576 46.2351 108.576C46.4031 108.576 46.5297 108.529 46.6151 108.436C46.7031 108.343 46.7604 108.22 46.7871 108.068C46.8137 107.916 46.8271 107.728 46.8271 107.504Z" fill="black"/>
<path opacity="0.6" d="M31.533 79.38C31.789 79.1587 31.9903 78.9773 32.137 78.836C32.2863 78.692 32.4103 78.5427 32.509 78.388C32.6077 78.2333 32.657 78.0787 32.657 77.924C32.657 77.764 32.6183 77.6387 32.541 77.548C32.4663 77.4573 32.3477 77.412 32.185 77.412C32.0277 77.412 31.905 77.4627 31.817 77.564C31.7317 77.6627 31.6863 77.796 31.681 77.964H31.241C31.249 77.66 31.3397 77.428 31.513 77.268C31.689 77.1053 31.9117 77.024 32.181 77.024C32.4717 77.024 32.6983 77.104 32.861 77.264C33.0263 77.424 33.109 77.6373 33.109 77.904C33.109 78.096 33.0597 78.2813 32.961 78.46C32.865 78.636 32.749 78.7947 32.613 78.936C32.4797 79.0747 32.309 79.236 32.101 79.42L31.921 79.58H33.189V79.96H31.245V79.628L31.533 79.38ZM34.1496 79.452L33.6656 80.556H33.3696L33.6536 79.452H34.1496ZM34.488 78.504C34.488 78.0427 34.5654 77.6827 34.72 77.424C34.8774 77.1627 35.1467 77.032 35.528 77.032C35.9094 77.032 36.1774 77.1627 36.332 77.424C36.4894 77.6827 36.568 78.0427 36.568 78.504C36.568 78.9707 36.4894 79.336 36.332 79.6C36.1774 79.8613 35.9094 79.992 35.528 79.992C35.1467 79.992 34.8774 79.8613 34.72 79.6C34.5654 79.336 34.488 78.9707 34.488 78.504ZM36.12 78.504C36.12 78.288 36.1054 78.1053 36.076 77.956C36.0494 77.8067 35.9934 77.6853 35.908 77.592C35.8227 77.496 35.696 77.448 35.528 77.448C35.36 77.448 35.2334 77.496 35.148 77.592C35.0627 77.6853 35.0054 77.8067 34.976 77.956C34.9494 78.1053 34.936 78.288 34.936 78.504C34.936 78.728 34.9494 78.916 34.976 79.068C35.0027 79.22 35.0587 79.3427 35.144 79.436C35.232 79.5293 35.36 79.576 35.528 79.576C35.696 79.576 35.8227 79.5293 35.908 79.436C35.996 79.3427 36.0534 79.22 36.08 79.068C36.1067 78.916 36.12 78.728 36.12 78.504ZM37.0505 78.504C37.0505 78.0427 37.1279 77.6827 37.2825 77.424C37.4399 77.1627 37.7092 77.032 38.0905 77.032C38.4719 77.032 38.7399 77.1627 38.8945 77.424C39.0519 77.6827 39.1305 78.0427 39.1305 78.504C39.1305 78.9707 39.0519 79.336 38.8945 79.6C38.7399 79.8613 38.4719 79.992 38.0905 79.992C37.7092 79.992 37.4399 79.8613 37.2825 79.6C37.1279 79.336 37.0505 78.9707 37.0505 78.504ZM38.6825 78.504C38.6825 78.288 38.6679 78.1053 38.6385 77.956C38.6119 77.8067 38.5559 77.6853 38.4705 77.592C38.3852 77.496 38.2585 77.448 38.0905 77.448C37.9225 77.448 37.7959 77.496 37.7105 77.592C37.6252 77.6853 37.5679 77.8067 37.5385 77.956C37.5119 78.1053 37.4985 78.288 37.4985 78.504C37.4985 78.728 37.5119 78.916 37.5385 79.068C37.5652 79.22 37.6212 79.3427 37.7065 79.436C37.7945 79.5293 37.9225 79.576 38.0905 79.576C38.2585 79.576 38.3852 79.5293 38.4705 79.436C38.5585 79.3427 38.6159 79.22 38.6425 79.068C38.6692 78.916 38.6825 78.728 38.6825 78.504ZM40.173 79.452L39.689 80.556H39.393L39.677 79.452H40.173ZM40.5115 78.504C40.5115 78.0427 40.5888 77.6827 40.7435 77.424C40.9008 77.1627 41.1702 77.032 41.5515 77.032C41.9328 77.032 42.2008 77.1627 42.3555 77.424C42.5128 77.6827 42.5915 78.0427 42.5915 78.504C42.5915 78.9707 42.5128 79.336 42.3555 79.6C42.2008 79.8613 41.9328 79.992 41.5515 79.992C41.1702 79.992 40.9008 79.8613 40.7435 79.6C40.5888 79.336 40.5115 78.9707 40.5115 78.504ZM42.1435 78.504C42.1435 78.288 42.1288 78.1053 42.0995 77.956C42.0728 77.8067 42.0168 77.6853 41.9315 77.592C41.8462 77.496 41.7195 77.448 41.5515 77.448C41.3835 77.448 41.2568 77.496 41.1715 77.592C41.0862 77.6853 41.0288 77.8067 40.9995 77.956C40.9728 78.1053 40.9595 78.288 40.9595 78.504C40.9595 78.728 40.9728 78.916 40.9995 79.068C41.0262 79.22 41.0822 79.3427 41.1675 79.436C41.2555 79.5293 41.3835 79.576 41.5515 79.576C41.7195 79.576 41.8462 79.5293 41.9315 79.436C42.0195 79.3427 42.0768 79.22 42.1035 79.068C42.1302 78.916 42.1435 78.728 42.1435 78.504ZM43.074 78.504C43.074 78.0427 43.1513 77.6827 43.306 77.424C43.4633 77.1627 43.7327 77.032 44.114 77.032C44.4953 77.032 44.7633 77.1627 44.918 77.424C45.0753 77.6827 45.154 78.0427 45.154 78.504C45.154 78.9707 45.0753 79.336 44.918 79.6C44.7633 79.8613 44.4953 79.992 44.114 79.992C43.7327 79.992 43.4633 79.8613 43.306 79.6C43.1513 79.336 43.074 78.9707 43.074 78.504ZM44.706 78.504C44.706 78.288 44.6913 78.1053 44.662 77.956C44.6353 77.8067 44.5793 77.6853 44.494 77.592C44.4087 77.496 44.282 77.448 44.114 77.448C43.946 77.448 43.8193 77.496 43.734 77.592C43.6487 77.6853 43.5913 77.8067 43.562 77.956C43.5353 78.1053 43.522 78.288 43.522 78.504C43.522 78.728 43.5353 78.916 43.562 79.068C43.5887 79.22 43.6447 79.3427 43.73 79.436C43.818 79.5293 43.946 79.576 44.114 79.576C44.282 79.576 44.4087 79.5293 44.494 79.436C44.582 79.3427 44.6393 79.22 44.666 79.068C44.6927 78.916 44.706 78.728 44.706 78.504ZM45.6365 78.504C45.6365 78.0427 45.7138 77.6827 45.8685 77.424C46.0258 77.1627 46.2952 77.032 46.6765 77.032C47.0578 77.032 47.3258 77.1627 47.4805 77.424C47.6378 77.6827 47.7165 78.0427 47.7165 78.504C47.7165 78.9707 47.6378 79.336 47.4805 79.6C47.3258 79.8613 47.0578 79.992 46.6765 79.992C46.2952 79.992 46.0258 79.8613 45.8685 79.6C45.7138 79.336 45.6365 78.9707 45.6365 78.504ZM47.2685 78.504C47.2685 78.288 47.2538 78.1053 47.2245 77.956C47.1978 77.8067 47.1418 77.6853 47.0565 77.592C46.9712 77.496 46.8445 77.448 46.6765 77.448C46.5085 77.448 46.3818 77.496 46.2965 77.592C46.2112 77.6853 46.1538 77.8067 46.1245 77.956C46.0978 78.1053 46.0845 78.288 46.0845 78.504C46.0845 78.728 46.0978 78.916 46.1245 79.068C46.1512 79.22 46.2072 79.3427 46.2925 79.436C46.3805 79.5293 46.5085 79.576 46.6765 79.576C46.8445 79.576 46.9712 79.5293 47.0565 79.436C47.1445 79.3427 47.2018 79.22 47.2285 79.068C47.2552 78.916 47.2685 78.728 47.2685 78.504Z" fill="black"/>
<path opacity="0.6" d="M76.9781 202.22V204.224C76.9781 204.472 76.9021 204.668 76.7501 204.812C76.6008 204.956 76.4034 205.028 76.1581 205.028C75.9128 205.028 75.7141 204.956 75.5621 204.812C75.4128 204.668 75.3381 204.472 75.3381 204.224H75.7981C75.8008 204.347 75.8314 204.444 75.8901 204.516C75.9514 204.588 76.0408 204.624 76.1581 204.624C76.2754 204.624 76.3648 204.588 76.4261 204.516C76.4874 204.441 76.5181 204.344 76.5181 204.224V202.22H76.9781ZM79.7159 202.796V205H79.2599V204.74C79.1879 204.831 79.0933 204.903 78.9759 204.956C78.8613 205.007 78.7386 205.032 78.6079 205.032C78.4346 205.032 78.2786 204.996 78.1399 204.924C78.0039 204.852 77.8959 204.745 77.8159 204.604C77.7386 204.463 77.6999 204.292 77.6999 204.092V202.796H78.1519V204.024C78.1519 204.221 78.2013 204.373 78.2999 204.48C78.3986 204.584 78.5333 204.636 78.7039 204.636C78.8746 204.636 79.0093 204.584 79.1079 204.48C79.2093 204.373 79.2599 204.221 79.2599 204.024V202.796H79.7159ZM80.7736 202.04V205H80.3176V202.04H80.7736ZM83.3563 202.796L82.0043 206.036H81.5323L81.9803 204.964L81.1123 202.796H81.6203L82.2403 204.476L82.8843 202.796H83.3563ZM84.6195 202.5V202.084H85.4515V205H84.9915V202.5H84.6195Z" fill="black"/>
<path opacity="0.6" d="M115.023 202.22V204.224C115.023 204.472 114.947 204.668 114.795 204.812C114.646 204.956 114.448 205.028 114.203 205.028C113.958 205.028 113.759 204.956 113.607 204.812C113.458 204.668 113.383 204.472 113.383 204.224H113.843C113.846 204.347 113.876 204.444 113.935 204.516C113.996 204.588 114.086 204.624 114.203 204.624C114.32 204.624 114.41 204.588 114.471 204.516C114.532 204.441 114.563 204.344 114.563 204.224V202.22H115.023ZM117.761 202.796V205H117.305V204.74C117.233 204.831 117.138 204.903 117.021 204.956C116.906 205.007 116.784 205.032 116.653 205.032C116.48 205.032 116.324 204.996 116.185 204.924C116.049 204.852 115.941 204.745 115.861 204.604C115.784 204.463 115.745 204.292 115.745 204.092V202.796H116.197V204.024C116.197 204.221 116.246 204.373 116.345 204.48C116.444 204.584 116.578 204.636 116.749 204.636C116.92 204.636 117.054 204.584 117.153 204.48C117.254 204.373 117.305 204.221 117.305 204.024V202.796H117.761ZM118.819 202.04V205H118.363V202.04H118.819ZM121.401 202.796L120.049 206.036H119.577L120.025 204.964L119.157 202.796H119.665L120.285 204.476L120.929 202.796H121.401ZM122.976 204.38C123.232 204.159 123.434 203.977 123.58 203.836C123.73 203.692 123.854 203.543 123.952 203.388C124.051 203.233 124.1 203.079 124.1 202.924C124.1 202.764 124.062 202.639 123.984 202.548C123.91 202.457 123.791 202.412 123.628 202.412C123.471 202.412 123.348 202.463 123.26 202.564C123.175 202.663 123.13 202.796 123.124 202.964H122.684C122.692 202.66 122.783 202.428 122.956 202.268C123.132 202.105 123.355 202.024 123.624 202.024C123.915 202.024 124.142 202.104 124.304 202.264C124.47 202.424 124.552 202.637 124.552 202.904C124.552 203.096 124.503 203.281 124.404 203.46C124.308 203.636 124.192 203.795 124.056 203.936C123.923 204.075 123.752 204.236 123.544 204.42L123.364 204.58H124.632V204.96H122.688V204.628L122.976 204.38Z" fill="black"/>
<path opacity="0.6" d="M154.99 202.22V204.224C154.99 204.472 154.914 204.668 154.762 204.812C154.612 204.956 154.415 205.028 154.17 205.028C153.924 205.028 153.726 204.956 153.574 204.812C153.424 204.668 153.35 204.472 153.35 204.224H153.81C153.812 204.347 153.843 204.444 153.902 204.516C153.963 204.588 154.052 204.624 154.17 204.624C154.287 204.624 154.376 204.588 154.438 204.516C154.499 204.441 154.53 204.344 154.53 204.224V202.22H154.99ZM157.728 202.796V205H157.272V204.74C157.2 204.831 157.105 204.903 156.988 204.956C156.873 205.007 156.75 205.032 156.62 205.032C156.446 205.032 156.29 204.996 156.152 204.924C156.016 204.852 155.908 204.745 155.828 204.604C155.75 204.463 155.712 204.292 155.712 204.092V202.796H156.164V204.024C156.164 204.221 156.213 204.373 156.312 204.48C156.41 204.584 156.545 204.636 156.716 204.636C156.886 204.636 157.021 204.584 157.12 204.48C157.221 204.373 157.272 204.221 157.272 204.024V202.796H157.728ZM158.785 202.04V205H158.329V202.04H158.785ZM161.368 202.796L160.016 206.036H159.544L159.992 204.964L159.124 202.796H159.632L160.252 204.476L160.896 202.796H161.368ZM162.683 202.804C162.699 202.556 162.794 202.363 162.967 202.224C163.143 202.085 163.367 202.016 163.639 202.016C163.826 202.016 163.987 202.049 164.123 202.116C164.259 202.183 164.362 202.273 164.431 202.388C164.501 202.503 164.535 202.632 164.535 202.776C164.535 202.941 164.491 203.083 164.403 203.2C164.315 203.317 164.21 203.396 164.087 203.436V203.452C164.245 203.5 164.367 203.588 164.455 203.716C164.543 203.841 164.587 204.003 164.587 204.2C164.587 204.357 164.551 204.497 164.479 204.62C164.407 204.743 164.301 204.84 164.159 204.912C164.018 204.981 163.849 205.016 163.651 205.016C163.363 205.016 163.126 204.943 162.939 204.796C162.755 204.647 162.657 204.433 162.643 204.156H163.083C163.094 204.297 163.149 204.413 163.247 204.504C163.346 204.592 163.479 204.636 163.647 204.636C163.81 204.636 163.935 204.592 164.023 204.504C164.111 204.413 164.155 204.297 164.155 204.156C164.155 203.969 164.095 203.837 163.975 203.76C163.858 203.68 163.677 203.64 163.431 203.64H163.327V203.264H163.435C163.651 203.261 163.815 203.225 163.927 203.156C164.042 203.087 164.099 202.977 164.099 202.828C164.099 202.7 164.058 202.599 163.975 202.524C163.893 202.447 163.775 202.408 163.623 202.408C163.474 202.408 163.358 202.447 163.275 202.524C163.193 202.599 163.143 202.692 163.127 202.804H162.683Z" fill="black"/>
<path opacity="0.6" d="M194.882 202.22V204.224C194.882 204.472 194.806 204.668 194.654 204.812C194.505 204.956 194.308 205.028 194.062 205.028C193.817 205.028 193.618 204.956 193.466 204.812C193.317 204.668 193.242 204.472 193.242 204.224H193.702C193.705 204.347 193.736 204.444 193.794 204.516C193.856 204.588 193.945 204.624 194.062 204.624C194.18 204.624 194.269 204.588 194.33 204.516C194.392 204.441 194.422 204.344 194.422 204.224V202.22H194.882ZM197.62 202.796V205H197.164V204.74C197.092 204.831 196.998 204.903 196.88 204.956C196.766 205.007 196.643 205.032 196.512 205.032C196.339 205.032 196.183 204.996 196.044 204.924C195.908 204.852 195.8 204.745 195.72 204.604C195.643 204.463 195.604 204.292 195.604 204.092V202.796H196.056V204.024C196.056 204.221 196.106 204.373 196.204 204.48C196.303 204.584 196.438 204.636 196.608 204.636C196.779 204.636 196.914 204.584 197.012 204.48C197.114 204.373 197.164 204.221 197.164 204.024V202.796H197.62ZM198.678 202.04V205H198.222V202.04H198.678ZM201.261 202.796L199.909 206.036H199.437L199.885 204.964L199.017 202.796H199.525L200.145 204.476L200.789 202.796H201.261ZM202.528 204.392V204.048L203.872 202.12H204.424V203.996H204.796V204.392H204.424V205H203.976V204.392H202.528ZM203.996 202.584L203.052 203.996H203.996V202.584Z" fill="black"/>
<path opacity="0.6" d="M234.9 202.22V204.224C234.9 204.472 234.824 204.668 234.672 204.812C234.523 204.956 234.325 205.028 234.08 205.028C233.835 205.028 233.636 204.956 233.484 204.812C233.335 204.668 233.26 204.472 233.26 204.224H233.72C233.723 204.347 233.753 204.444 233.812 204.516C233.873 204.588 233.963 204.624 234.08 204.624C234.197 204.624 234.287 204.588 234.348 204.516C234.409 204.441 234.44 204.344 234.44 204.224V202.22H234.9ZM237.638 202.796V205H237.182V204.74C237.11 204.831 237.015 204.903 236.898 204.956C236.783 205.007 236.66 205.032 236.53 205.032C236.356 205.032 236.2 204.996 236.062 204.924C235.926 204.852 235.818 204.745 235.738 204.604C235.66 204.463 235.622 204.292 235.622 204.092V202.796H236.074V204.024C236.074 204.221 236.123 204.373 236.222 204.48C236.32 204.584 236.455 204.636 236.626 204.636C236.796 204.636 236.931 204.584 237.03 204.48C237.131 204.373 237.182 204.221 237.182 204.024V202.796H237.638ZM238.695 202.04V205H238.239V202.04H238.695ZM241.278 202.796L239.926 206.036H239.454L239.902 204.964L239.034 202.796H239.542L240.162 204.476L240.806 202.796H241.278ZM244.481 202.476H243.141V203.272C243.197 203.197 243.28 203.135 243.389 203.084C243.501 203.033 243.62 203.008 243.745 203.008C243.969 203.008 244.151 203.056 244.289 203.152C244.431 203.248 244.531 203.369 244.589 203.516C244.651 203.663 244.681 203.817 244.681 203.98C244.681 204.177 244.643 204.353 244.565 204.508C244.491 204.66 244.377 204.78 244.225 204.868C244.076 204.956 243.892 205 243.673 205C243.383 205 243.149 204.928 242.973 204.784C242.797 204.64 242.692 204.449 242.657 204.212H243.101C243.131 204.337 243.196 204.437 243.297 204.512C243.399 204.584 243.525 204.62 243.677 204.62C243.867 204.62 244.008 204.563 244.101 204.448C244.197 204.333 244.245 204.181 244.245 203.992C244.245 203.8 244.197 203.653 244.101 203.552C244.005 203.448 243.864 203.396 243.677 203.396C243.547 203.396 243.436 203.429 243.345 203.496C243.257 203.56 243.193 203.648 243.153 203.76H242.721V202.076H244.481V202.476Z" fill="black"/>
<path opacity="0.6" d="M274.894 202.22V204.224C274.894 204.472 274.818 204.668 274.666 204.812C274.517 204.956 274.319 205.028 274.074 205.028C273.829 205.028 273.63 204.956 273.478 204.812C273.329 204.668 273.254 204.472 273.254 204.224H273.714C273.717 204.347 273.747 204.444 273.806 204.516C273.867 204.588 273.957 204.624 274.074 204.624C274.191 204.624 274.281 204.588 274.342 204.516C274.403 204.441 274.434 204.344 274.434 204.224V202.22H274.894ZM277.632 202.796V205H277.176V204.74C277.104 204.831 277.009 204.903 276.892 204.956C276.777 205.007 276.655 205.032 276.524 205.032C276.351 205.032 276.195 204.996 276.056 204.924C275.92 204.852 275.812 204.745 275.732 204.604C275.655 204.463 275.616 204.292 275.616 204.092V202.796H276.068V204.024C276.068 204.221 276.117 204.373 276.216 204.48C276.315 204.584 276.449 204.636 276.62 204.636C276.791 204.636 276.925 204.584 277.024 204.48C277.125 204.373 277.176 204.221 277.176 204.024V202.796H277.632ZM278.69 202.04V205H278.234V202.04H278.69ZM281.272 202.796L279.92 206.036H279.448L279.896 204.964L279.028 202.796H279.536L280.156 204.476L280.8 202.796H281.272ZM284.163 202.76C284.134 202.637 284.081 202.545 284.003 202.484C283.926 202.423 283.818 202.392 283.679 202.392C283.469 202.392 283.311 202.473 283.207 202.636C283.103 202.796 283.049 203.063 283.043 203.436C283.113 203.319 283.214 203.228 283.347 203.164C283.481 203.1 283.625 203.068 283.779 203.068C283.955 203.068 284.11 203.107 284.243 203.184C284.379 203.259 284.485 203.368 284.559 203.512C284.637 203.656 284.675 203.828 284.675 204.028C284.675 204.215 284.638 204.381 284.563 204.528C284.491 204.675 284.383 204.791 284.239 204.876C284.095 204.959 283.922 205 283.719 205C283.445 205 283.229 204.94 283.071 204.82C282.917 204.697 282.807 204.525 282.743 204.304C282.682 204.083 282.651 203.807 282.651 203.476C282.651 202.5 282.995 202.012 283.683 202.012C283.95 202.012 284.159 202.084 284.311 202.228C284.466 202.372 284.557 202.549 284.583 202.76H284.163ZM283.679 203.452C283.517 203.452 283.378 203.501 283.263 203.6C283.151 203.696 283.095 203.836 283.095 204.02C283.095 204.204 283.147 204.351 283.251 204.46C283.358 204.567 283.506 204.62 283.695 204.62C283.863 204.62 283.995 204.568 284.091 204.464C284.19 204.36 284.239 204.221 284.239 204.048C284.239 203.867 284.191 203.723 284.095 203.616C284.002 203.507 283.863 203.452 283.679 203.452Z" fill="black"/>
<path opacity="0.6" d="M315.058 202.22V204.224C315.058 204.472 314.982 204.668 314.83 204.812C314.681 204.956 314.484 205.028 314.238 205.028C313.993 205.028 313.794 204.956 313.642 204.812C313.493 204.668 313.418 204.472 313.418 204.224H313.878C313.881 204.347 313.912 204.444 313.97 204.516C314.032 204.588 314.121 204.624 314.238 204.624C314.356 204.624 314.445 204.588 314.506 204.516C314.568 204.441 314.598 204.344 314.598 204.224V202.22H315.058ZM317.796 202.796V205H317.34V204.74C317.268 204.831 317.173 204.903 317.056 204.956C316.941 205.007 316.819 205.032 316.688 205.032C316.515 205.032 316.359 204.996 316.22 204.924C316.084 204.852 315.976 204.745 315.896 204.604C315.819 204.463 315.78 204.292 315.78 204.092V202.796H316.232V204.024C316.232 204.221 316.281 204.373 316.38 204.48C316.479 204.584 316.613 204.636 316.784 204.636C316.955 204.636 317.089 204.584 317.188 204.48C317.289 204.373 317.34 204.221 317.34 204.024V202.796H317.796ZM318.854 202.04V205H318.398V202.04H318.854ZM321.436 202.796L320.084 206.036H319.612L320.06 204.964L319.192 202.796H319.7L320.32 204.476L320.964 202.796H321.436ZM324.608 202.436L323.496 205H323.036L324.16 202.484H322.68V202.096H324.608V202.436Z" fill="black"/>
<path d="M73 108C73 105.791 74.7909 104 77 104H86C88.2091 104 90 105.791 90 108V197H73V108Z" fill="#1A377D"/>
<path d="M112 131C112 128.791 113.791 127 116 127H126C128.209 127 130 128.791 130 131V197H112V131Z" fill="#1A377D"/>
<path d="M152 79C152 76.7909 153.791 75 156 75H166C168.209 75 170 76.7909 170 79V197H152V79Z" fill="#1A377D"/>
<path d="M192 180C192 177.791 193.791 176 196 176H206C208.209 176 210 177.791 210 180V197H192V180Z" fill="#1A377D"/>
<path d="M232 158C232 155.791 233.791 154 236 154H246C248.209 154 250 155.791 250 158V197H232V158Z" fill="#1A377D"/>
<path d="M274 149C274 146.791 275.791 145 278 145H286C288.209 145 290 146.791 290 149V197H274V149Z" fill="#1A377D"/>
<path d="M312 126C312 123.791 313.791 122 316 122H326C328.209 122 330 123.791 330 126V197H312V126Z" fill="#1A377D"/>
<line opacity="0.2" x1="50" y1="166.8" x2="347" y2="166.8" stroke="black" stroke-width="0.4" stroke-dasharray="0.8 0.8"/>
<line opacity="0.2" x1="50" y1="137.8" x2="347" y2="137.8" stroke="black" stroke-width="0.4" stroke-dasharray="0.8 0.8"/>
<line opacity="0.2" x1="50" y1="108.8" x2="347" y2="108.8" stroke="black" stroke-width="0.4" stroke-dasharray="0.8 0.8"/>
<line opacity="0.2" x1="50" y1="79.8" x2="347" y2="79.8" stroke="black" stroke-width="0.4" stroke-dasharray="0.8 0.8"/>
<path d="M156 16H230V39C230 43.9706 225.971 48 221 48H165C160.029 48 156 43.9706 156 39V16Z" fill="#E8EBF2"/>
<path d="M177.669 35.44L175.581 41H174.525L172.429 35.44H173.405L175.053 40.064L176.709 35.44H177.669ZM178.896 36.008C178.731 36.008 178.592 35.952 178.48 35.84C178.368 35.728 178.312 35.5893 178.312 35.424C178.312 35.2587 178.368 35.12 178.48 35.008C178.592 34.896 178.731 34.84 178.896 34.84C179.056 34.84 179.192 34.896 179.304 35.008C179.416 35.12 179.472 35.2587 179.472 35.424C179.472 35.5893 179.416 35.728 179.304 35.84C179.192 35.952 179.056 36.008 178.896 36.008ZM179.344 36.592V41H178.432V36.592H179.344ZM184.581 38.688C184.581 38.8533 184.571 39.0027 184.549 39.136H181.181C181.208 39.488 181.339 39.7707 181.573 39.984C181.808 40.1973 182.096 40.304 182.437 40.304C182.928 40.304 183.275 40.0987 183.477 39.688H184.461C184.328 40.0933 184.085 40.4267 183.733 40.688C183.387 40.944 182.955 41.072 182.437 41.072C182.016 41.072 181.637 40.9787 181.301 40.792C180.971 40.6 180.709 40.3333 180.517 39.992C180.331 39.6453 180.237 39.2453 180.237 38.792C180.237 38.3387 180.328 37.9413 180.509 37.6C180.696 37.2533 180.955 36.9867 181.285 36.8C181.621 36.6133 182.005 36.52 182.437 36.52C182.853 36.52 183.224 36.6107 183.549 36.792C183.875 36.9733 184.128 37.2293 184.309 37.56C184.491 37.8853 184.581 38.2613 184.581 38.688ZM183.629 38.4C183.624 38.064 183.504 37.7947 183.269 37.592C183.035 37.3893 182.744 37.288 182.397 37.288C182.083 37.288 181.813 37.3893 181.589 37.592C181.365 37.7893 181.232 38.0587 181.189 38.4H183.629ZM191.399 36.592L190.031 41H189.071L188.183 37.744L187.295 41H186.335L184.959 36.592H185.887L186.807 40.136L187.743 36.592H188.695L189.591 40.12L190.503 36.592H191.399ZM200.015 35.44V41H199.103V37.192L197.407 41H196.775L195.071 37.192V41H194.159V35.44H195.143L197.095 39.8L199.039 35.44H200.015ZM203.125 41.072C202.709 41.072 202.333 40.9787 201.997 40.792C201.661 40.6 201.397 40.3333 201.205 39.992C201.013 39.6453 200.917 39.2453 200.917 38.792C200.917 38.344 201.016 37.9467 201.213 37.6C201.411 37.2533 201.68 36.9867 202.021 36.8C202.363 36.6133 202.744 36.52 203.165 36.52C203.587 36.52 203.968 36.6133 204.309 36.8C204.651 36.9867 204.92 37.2533 205.117 37.6C205.315 37.9467 205.413 38.344 205.413 38.792C205.413 39.24 205.312 39.6373 205.109 39.984C204.907 40.3307 204.629 40.6 204.277 40.792C203.931 40.9787 203.547 41.072 203.125 41.072ZM203.125 40.28C203.36 40.28 203.579 40.224 203.781 40.112C203.989 40 204.157 39.832 204.285 39.608C204.413 39.384 204.477 39.112 204.477 38.792C204.477 38.472 204.416 38.2027 204.293 37.984C204.171 37.76 204.008 37.592 203.805 37.48C203.603 37.368 203.384 37.312 203.149 37.312C202.915 37.312 202.696 37.368 202.493 37.48C202.296 37.592 202.139 37.76 202.021 37.984C201.904 38.2027 201.845 38.472 201.845 38.792C201.845 39.2667 201.965 39.6347 202.205 39.896C202.451 40.152 202.757 40.28 203.125 40.28ZM207.227 37.232C207.36 37.008 207.536 36.8347 207.755 36.712C207.979 36.584 208.243 36.52 208.547 36.52V37.464H208.315C207.958 37.464 207.686 37.5547 207.499 37.736C207.318 37.9173 207.227 38.232 207.227 38.68V41H206.315V36.592H207.227V37.232ZM213.425 38.688C213.425 38.8533 213.414 39.0027 213.393 39.136H210.025C210.052 39.488 210.182 39.7707 210.417 39.984C210.652 40.1973 210.94 40.304 211.281 40.304C211.772 40.304 212.118 40.0987 212.321 39.688H213.305C213.172 40.0933 212.929 40.4267 212.577 40.688C212.23 40.944 211.798 41.072 211.281 41.072C210.86 41.072 210.481 40.9787 210.145 40.792C209.814 40.6 209.553 40.3333 209.361 39.992C209.174 39.6453 209.081 39.2453 209.081 38.792C209.081 38.3387 209.172 37.9413 209.353 37.6C209.54 37.2533 209.798 36.9867 210.129 36.8C210.465 36.6133 210.849 36.52 211.281 36.52C211.697 36.52 212.068 36.6107 212.393 36.792C212.718 36.9733 212.972 37.2293 213.153 37.56C213.334 37.8853 213.425 38.2613 213.425 38.688ZM212.473 38.4C212.468 38.064 212.348 37.7947 212.113 37.592C211.878 37.3893 211.588 37.288 211.241 37.288C210.926 37.288 210.657 37.3893 210.433 37.592C210.209 37.7893 210.076 38.0587 210.033 38.4H212.473Z" fill="black"/>
<g clip-path="url(#clip0_819_2905)">
<path d="M196.004 25.54C196.042 25.5013 196.073 25.4553 196.094 25.4047C196.115 25.3541 196.126 25.2998 196.126 25.245C196.126 25.1902 196.115 25.1359 196.094 25.0853C196.073 25.0347 196.042 24.9887 196.004 24.95L193.234 22.18C193.203 22.1491 193.166 22.1246 193.126 22.1079C193.085 22.0911 193.042 22.0825 192.999 22.0825C192.955 22.0825 192.912 22.0911 192.871 22.1079C192.831 22.1246 192.794 22.1491 192.764 22.18L189.994 24.95C189.83 25.1133 189.83 25.3767 189.994 25.54C190.157 25.7033 190.42 25.7033 190.584 25.54L193 23.1267L195.417 25.5433C195.577 25.7033 195.844 25.7033 196.004 25.54Z" fill="black"/>
</g>
<defs>
<filter id="filter0_dd_819_2905" x="0" y="0" width="385" height="248" filterUnits="userSpaceOnUse" color-interpolation-filters="sRGB">
<feFlood flood-opacity="0" result="BackgroundImageFix"/>
<feColorMatrix in="SourceAlpha" type="matrix" values="0 0 0 0 0 0 0 0 0 0 0 0 0 0 0 0 0 0 127 0" result="hardAlpha"/>
<feOffset dy="4"/>
<feGaussianBlur stdDeviation="10"/>
<feComposite in2="hardAlpha" operator="out"/>
<feColorMatrix type="matrix" values="0 0 0 0 0 0 0 0 0 0 0 0 0 0 0 0 0 0 0.25 0"/>
<feBlend mode="normal" in2="BackgroundImageFix" result="effect1_dropShadow_819_2905"/>
<feColorMatrix in="SourceAlpha" type="matrix" values="0 0 0 0 0 0 0 0 0 0 0 0 0 0 0 0 0 0 127 0" result="hardAlpha"/>
<feOffset dy="4"/>
<feGaussianBlur stdDeviation="2"/>
<feComposite in2="hardAlpha" operator="out"/>
<feColorMatrix type="matrix" values="0 0 0 0 0 0 0 0 0 0 0 0 0 0 0 0 0 0 0.25 0"/>
<feBlend mode="normal" in2="effect1_dropShadow_819_2905" result="effect2_dropShadow_819_2905"/>
<feBlend mode="normal" in="SourceGraphic" in2="effect2_dropShadow_819_2905" result="shape"/>
</filter>
<clipPath id="clip0_819_2905">
<rect width="8" height="8" fill="white" transform="translate(197 20) rotate(90)"/>
</clipPath>
</defs>
</svg>
