<svg width="96" height="96" viewBox="0 0 96 96" fill="none" xmlns="http://www.w3.org/2000/svg">
<circle opacity="0.1" cx="48" cy="48" r="48" fill="#1A377D"/>
<path d="M40.7375 47.6064C34.4424 47.6064 34.4424 50.4235 34.4424 53.9015V55.4753C34.4424 59.8189 34.4424 63.3442 42.3112 63.3442H54.9014C61.1965 63.3442 62.7703 59.8189 62.7703 55.4753V53.9015C62.7703 50.4235 62.7703 47.6064 56.4752 47.6064C54.9014 47.6064 54.4607 47.9369 53.6424 48.5507L52.0371 50.2504C50.1801 52.2333 47.0325 52.2333 45.1598 50.2504L43.5703 48.5507C42.7519 47.9369 42.3112 47.6064 40.7375 47.6064Z" stroke="#292D32" stroke-width="1.5" stroke-miterlimit="10" stroke-linecap="round" stroke-linejoin="round"/>
<path d="M59.6226 47.6064V38.1637C59.6226 34.6857 59.6226 31.8687 53.3275 31.8687H43.8849C37.5898 31.8687 37.5898 34.6857 37.5898 38.1637V47.6064" stroke="#292D32" stroke-width="1.5" stroke-miterlimit="10" stroke-linecap="round" stroke-linejoin="round"/>
<path d="M46.3247 43.2471H51.5654" stroke="#292D32" stroke-width="1.5" stroke-linecap="round" stroke-linejoin="round"/>
<path d="M45.0181 38.5259H52.8869" stroke="#292D32" stroke-width="1.5" stroke-linecap="round" stroke-linejoin="round"/>
</svg>
