<svg width="385" height="310" viewBox="0 0 385 310" fill="none" xmlns="http://www.w3.org/2000/svg">
<rect x="20" width="173" height="54" rx="24" fill="#1A377D"/>
<path d="M54.56 24.1C54.2 23.4067 53.7 22.8867 53.06 22.54C52.42 22.18 51.68 22 50.84 22C49.92 22 49.1 22.2067 48.38 22.62C47.66 23.0333 47.0933 23.62 46.68 24.38C46.28 25.14 46.08 26.02 46.08 27.02C46.08 28.02 46.28 28.9067 46.68 29.68C47.0933 30.44 47.66 31.0267 48.38 31.44C49.1 31.8533 49.92 32.06 50.84 32.06C52.08 32.06 53.0867 31.7133 53.86 31.02C54.6333 30.3267 55.1067 29.3867 55.28 28.2H50.06V26.38H57.72V28.16C57.5733 29.24 57.1867 30.2333 56.56 31.14C55.9467 32.0467 55.14 32.7733 54.14 33.32C53.1533 33.8533 52.0533 34.12 50.84 34.12C49.5333 34.12 48.34 33.82 47.26 33.22C46.18 32.6067 45.32 31.76 44.68 30.68C44.0533 29.6 43.74 28.38 43.74 27.02C43.74 25.66 44.0533 24.44 44.68 23.36C45.32 22.28 46.18 21.44 47.26 20.84C48.3533 20.2267 49.5467 19.92 50.84 19.92C52.32 19.92 53.6333 20.2867 54.78 21.02C55.94 21.74 56.78 22.7667 57.3 24.1H54.56ZM62.2488 24.58C62.5821 24.02 63.0221 23.5867 63.5688 23.28C64.1288 22.96 64.7888 22.8 65.5488 22.8V25.16H64.9688C64.0754 25.16 63.3954 25.3867 62.9288 25.84C62.4754 26.2933 62.2488 27.08 62.2488 28.2V34H59.9688V22.98H62.2488V24.58ZM66.8845 28.44C66.8845 27.3333 67.1112 26.3533 67.5645 25.5C68.0312 24.6467 68.6579 23.9867 69.4445 23.52C70.2445 23.04 71.1245 22.8 72.0845 22.8C72.9512 22.8 73.7045 22.9733 74.3445 23.32C74.9979 23.6533 75.5179 24.0733 75.9045 24.58V22.98H78.2045V34H75.9045V32.36C75.5179 32.88 74.9912 33.3133 74.3245 33.66C73.6579 34.0067 72.8979 34.18 72.0445 34.18C71.0979 34.18 70.2312 33.94 69.4445 33.46C68.6579 32.9667 68.0312 32.2867 67.5645 31.42C67.1112 30.54 66.8845 29.5467 66.8845 28.44ZM75.9045 28.48C75.9045 27.72 75.7445 27.06 75.4245 26.5C75.1179 25.94 74.7112 25.5133 74.2045 25.22C73.6979 24.9267 73.1512 24.78 72.5645 24.78C71.9779 24.78 71.4312 24.9267 70.9245 25.22C70.4179 25.5 70.0045 25.92 69.6845 26.48C69.3779 27.0267 69.2245 27.68 69.2245 28.44C69.2245 29.2 69.3779 29.8667 69.6845 30.44C70.0045 31.0133 70.4179 31.4533 70.9245 31.76C71.4445 32.0533 71.9912 32.2 72.5645 32.2C73.1512 32.2 73.6979 32.0533 74.2045 31.76C74.7112 31.4667 75.1179 31.04 75.4245 30.48C75.7445 29.9067 75.9045 29.24 75.9045 28.48ZM83.4792 24.6C83.8659 24.0933 84.3926 23.6667 85.0592 23.32C85.7259 22.9733 86.4792 22.8 87.3192 22.8C88.2792 22.8 89.1526 23.04 89.9392 23.52C90.7392 23.9867 91.3659 24.6467 91.8192 25.5C92.2726 26.3533 92.4992 27.3333 92.4992 28.44C92.4992 29.5467 92.2726 30.54 91.8192 31.42C91.3659 32.2867 90.7392 32.9667 89.9392 33.46C89.1526 33.94 88.2792 34.18 87.3192 34.18C86.4792 34.18 85.7326 34.0133 85.0792 33.68C84.4259 33.3333 83.8926 32.9067 83.4792 32.4V39.24H81.1992V22.98H83.4792V24.6ZM90.1792 28.44C90.1792 27.68 90.0192 27.0267 89.6992 26.48C89.3926 25.92 88.9792 25.5 88.4592 25.22C87.9526 24.9267 87.4059 24.78 86.8192 24.78C86.2459 24.78 85.6992 24.9267 85.1792 25.22C84.6726 25.5133 84.2592 25.94 83.9392 26.5C83.6326 27.06 83.4792 27.72 83.4792 28.48C83.4792 29.24 83.6326 29.9067 83.9392 30.48C84.2592 31.04 84.6726 31.4667 85.1792 31.76C85.6992 32.0533 86.2459 32.2 86.8192 32.2C87.4059 32.2 87.9526 32.0533 88.4592 31.76C88.9792 31.4533 89.3926 31.0133 89.6992 30.44C90.0192 29.8667 90.1792 29.2 90.1792 28.44ZM100.454 22.8C101.294 22.8 102.041 22.98 102.694 23.34C103.361 23.7 103.881 24.2333 104.254 24.94C104.641 25.6467 104.834 26.5 104.834 27.5V34H102.574V27.84C102.574 26.8533 102.327 26.1 101.834 25.58C101.341 25.0467 100.667 24.78 99.8139 24.78C98.9606 24.78 98.2806 25.0467 97.7739 25.58C97.2806 26.1 97.0339 26.8533 97.0339 27.84V34H94.7539V19.2H97.0339V24.26C97.4206 23.7933 97.9072 23.4333 98.4939 23.18C99.0939 22.9267 99.7472 22.8 100.454 22.8ZM112.178 27.02C112.178 25.66 112.491 24.44 113.118 23.36C113.758 22.28 114.618 21.44 115.698 20.84C116.791 20.2267 117.984 19.92 119.278 19.92C120.758 19.92 122.071 20.2867 123.218 21.02C124.378 21.74 125.218 22.7667 125.738 24.1H122.998C122.638 23.3667 122.138 22.82 121.498 22.46C120.858 22.1 120.118 21.92 119.278 21.92C118.358 21.92 117.538 22.1267 116.818 22.54C116.098 22.9533 115.531 23.5467 115.118 24.32C114.718 25.0933 114.518 25.9933 114.518 27.02C114.518 28.0467 114.718 28.9467 115.118 29.72C115.531 30.4933 116.098 31.0933 116.818 31.52C117.538 31.9333 118.358 32.14 119.278 32.14C120.118 32.14 120.858 31.96 121.498 31.6C122.138 31.24 122.638 30.6933 122.998 29.96H125.738C125.218 31.2933 124.378 32.32 123.218 33.04C122.071 33.76 120.758 34.12 119.278 34.12C117.971 34.12 116.778 33.82 115.698 33.22C114.618 32.6067 113.758 31.76 113.118 30.68C112.491 29.6 112.178 28.38 112.178 27.02ZM133.186 34.18C132.146 34.18 131.206 33.9467 130.366 33.48C129.526 33 128.866 32.3333 128.386 31.48C127.906 30.6133 127.666 29.6133 127.666 28.48C127.666 27.36 127.913 26.3667 128.406 25.5C128.9 24.6333 129.573 23.9667 130.426 23.5C131.28 23.0333 132.233 22.8 133.286 22.8C134.34 22.8 135.293 23.0333 136.146 23.5C137 23.9667 137.673 24.6333 138.166 25.5C138.66 26.3667 138.906 27.36 138.906 28.48C138.906 29.6 138.653 30.5933 138.146 31.46C137.64 32.3267 136.946 33 136.066 33.48C135.2 33.9467 134.24 34.18 133.186 34.18ZM133.186 32.2C133.773 32.2 134.32 32.06 134.826 31.78C135.346 31.5 135.766 31.08 136.086 30.52C136.406 29.96 136.566 29.28 136.566 28.48C136.566 27.68 136.413 27.0067 136.106 26.46C135.8 25.9 135.393 25.48 134.886 25.2C134.38 24.92 133.833 24.78 133.246 24.78C132.66 24.78 132.113 24.92 131.606 25.2C131.113 25.48 130.72 25.9 130.426 26.46C130.133 27.0067 129.986 27.68 129.986 28.48C129.986 29.6667 130.286 30.5867 130.886 31.24C131.5 31.88 132.266 32.2 133.186 32.2ZM154.5 22.8C155.367 22.8 156.14 22.98 156.82 23.34C157.513 23.7 158.053 24.2333 158.44 24.94C158.84 25.6467 159.04 26.5 159.04 27.5V34H156.78V27.84C156.78 26.8533 156.533 26.1 156.04 25.58C155.547 25.0467 154.873 24.78 154.02 24.78C153.167 24.78 152.487 25.0467 151.98 25.58C151.487 26.1 151.24 26.8533 151.24 27.84V34H148.98V27.84C148.98 26.8533 148.733 26.1 148.24 25.58C147.747 25.0467 147.073 24.78 146.22 24.78C145.367 24.78 144.687 25.0467 144.18 25.58C143.687 26.1 143.44 26.8533 143.44 27.84V34H141.16V22.98H143.44V24.24C143.813 23.7867 144.287 23.4333 144.86 23.18C145.433 22.9267 146.047 22.8 146.7 22.8C147.58 22.8 148.367 22.9867 149.06 23.36C149.753 23.7333 150.287 24.2733 150.66 24.98C150.993 24.3133 151.513 23.7867 152.22 23.4C152.927 23 153.687 22.8 154.5 22.8ZM164.221 24.6C164.608 24.0933 165.135 23.6667 165.801 23.32C166.468 22.9733 167.221 22.8 168.061 22.8C169.021 22.8 169.895 23.04 170.681 23.52C171.481 23.9867 172.108 24.6467 172.561 25.5C173.015 26.3533 173.241 27.3333 173.241 28.44C173.241 29.5467 173.015 30.54 172.561 31.42C172.108 32.2867 171.481 32.9667 170.681 33.46C169.895 33.94 169.021 34.18 168.061 34.18C167.221 34.18 166.475 34.0133 165.821 33.68C165.168 33.3333 164.635 32.9067 164.221 32.4V39.24H161.941V22.98H164.221V24.6ZM170.921 28.44C170.921 27.68 170.761 27.0267 170.441 26.48C170.135 25.92 169.721 25.5 169.201 25.22C168.695 24.9267 168.148 24.78 167.561 24.78C166.988 24.78 166.441 24.9267 165.921 25.22C165.415 25.5133 165.001 25.94 164.681 26.5C164.375 27.06 164.221 27.72 164.221 28.48C164.221 29.24 164.375 29.9067 164.681 30.48C165.001 31.04 165.415 31.4667 165.921 31.76C166.441 32.0533 166.988 32.2 167.561 32.2C168.148 32.2 168.695 32.0533 169.201 31.76C169.721 31.4533 170.135 31.0133 170.441 30.44C170.761 29.8667 170.921 29.2 170.921 28.44Z" fill="white"/>
<g filter="url(#filter0_dd_819_2920)">
<path d="M20 78H353C359.627 78 365 83.3726 365 90V274C365 280.627 359.627 286 353 286H32C25.3726 286 20 280.627 20 274V78Z" fill="white"/>
</g>
<line opacity="0.23" x1="53.5" y1="116" x2="53.5" y2="278" stroke="black"/>
<line opacity="0.23" x1="37" y1="261.5" x2="347" y2="261.5" stroke="black"/>
<path opacity="0.6" d="M34.3383 230.392V230.048L35.6823 228.12H36.2343V229.996H36.6063V230.392H36.2343V231H35.7863V230.392H34.3383ZM35.8063 228.584L34.8623 229.996H35.8063V228.584ZM37.5521 230.208C37.5788 230.341 37.6361 230.443 37.7241 230.512C37.8121 230.581 37.9308 230.616 38.0801 230.616C38.2695 230.616 38.4081 230.541 38.4961 230.392C38.5841 230.243 38.6281 229.988 38.6281 229.628C38.5641 229.719 38.4735 229.789 38.3561 229.84C38.2415 229.888 38.1161 229.912 37.9801 229.912C37.8068 229.912 37.6495 229.877 37.5081 229.808C37.3668 229.736 37.2548 229.631 37.1721 229.492C37.0921 229.351 37.0521 229.18 37.0521 228.98C37.0521 228.687 37.1375 228.453 37.3081 228.28C37.4815 228.104 37.7188 228.016 38.0201 228.016C38.3828 228.016 38.6401 228.137 38.7921 228.38C38.9468 228.62 39.0241 228.989 39.0241 229.488C39.0241 229.832 38.9948 230.113 38.9361 230.332C38.8801 230.551 38.7815 230.716 38.6401 230.828C38.4988 230.94 38.3028 230.996 38.0521 230.996C37.7668 230.996 37.5468 230.921 37.3921 230.772C37.2375 230.623 37.1508 230.435 37.1321 230.208H37.5521ZM38.0601 229.528C38.2201 229.528 38.3455 229.479 38.4361 229.38C38.5295 229.279 38.5761 229.145 38.5761 228.98C38.5761 228.796 38.5268 228.653 38.4281 228.552C38.3321 228.448 38.2001 228.396 38.0321 228.396C37.8641 228.396 37.7308 228.449 37.6321 228.556C37.5361 228.66 37.4881 228.797 37.4881 228.968C37.4881 229.131 37.5348 229.265 37.6281 229.372C37.7241 229.476 37.8681 229.528 38.0601 229.528ZM39.5232 229.504C39.5232 229.043 39.6005 228.683 39.7552 228.424C39.9125 228.163 40.1819 228.032 40.5632 228.032C40.9445 228.032 41.2125 228.163 41.3672 228.424C41.5245 228.683 41.6032 229.043 41.6032 229.504C41.6032 229.971 41.5245 230.336 41.3672 230.6C41.2125 230.861 40.9445 230.992 40.5632 230.992C40.1819 230.992 39.9125 230.861 39.7552 230.6C39.6005 230.336 39.5232 229.971 39.5232 229.504ZM41.1552 229.504C41.1552 229.288 41.1405 229.105 41.1112 228.956C41.0845 228.807 41.0285 228.685 40.9432 228.592C40.8579 228.496 40.7312 228.448 40.5632 228.448C40.3952 228.448 40.2685 228.496 40.1832 228.592C40.0979 228.685 40.0405 228.807 40.0112 228.956C39.9845 229.105 39.9712 229.288 39.9712 229.504C39.9712 229.728 39.9845 229.916 40.0112 230.068C40.0379 230.22 40.0939 230.343 40.1792 230.436C40.2672 230.529 40.3952 230.576 40.5632 230.576C40.7312 230.576 40.8579 230.529 40.9432 230.436C41.0312 230.343 41.0885 230.22 41.1152 230.068C41.1419 229.916 41.1552 229.728 41.1552 229.504Z" fill="black"/>
<path opacity="0.6" d="M36.2782 199.476H34.9382V200.272C34.9942 200.197 35.0769 200.135 35.1862 200.084C35.2982 200.033 35.4169 200.008 35.5422 200.008C35.7662 200.008 35.9475 200.056 36.0862 200.152C36.2275 200.248 36.3275 200.369 36.3862 200.516C36.4475 200.663 36.4782 200.817 36.4782 200.98C36.4782 201.177 36.4395 201.353 36.3622 201.508C36.2875 201.66 36.1742 201.78 36.0222 201.868C35.8729 201.956 35.6889 202 35.4702 202C35.1795 202 34.9462 201.928 34.7702 201.784C34.5942 201.64 34.4889 201.449 34.4542 201.212H34.8982C34.9275 201.337 34.9929 201.437 35.0942 201.512C35.1955 201.584 35.3222 201.62 35.4742 201.62C35.6635 201.62 35.8049 201.563 35.8982 201.448C35.9942 201.333 36.0422 201.181 36.0422 200.992C36.0422 200.8 35.9942 200.653 35.8982 200.552C35.8022 200.448 35.6609 200.396 35.4742 200.396C35.3435 200.396 35.2329 200.429 35.1422 200.496C35.0542 200.56 34.9902 200.648 34.9502 200.76H34.5182V199.076H36.2782V199.476ZM38.5209 199.76C38.4916 199.637 38.4382 199.545 38.3609 199.484C38.2836 199.423 38.1756 199.392 38.0369 199.392C37.8262 199.392 37.6689 199.473 37.5649 199.636C37.4609 199.796 37.4062 200.063 37.4009 200.436C37.4702 200.319 37.5716 200.228 37.7049 200.164C37.8382 200.1 37.9822 200.068 38.1369 200.068C38.3129 200.068 38.4676 200.107 38.6009 200.184C38.7369 200.259 38.8422 200.368 38.9169 200.512C38.9942 200.656 39.0329 200.828 39.0329 201.028C39.0329 201.215 38.9956 201.381 38.9209 201.528C38.8489 201.675 38.7409 201.791 38.5969 201.876C38.4529 201.959 38.2796 202 38.0769 202C37.8022 202 37.5862 201.94 37.4289 201.82C37.2742 201.697 37.1649 201.525 37.1009 201.304C37.0396 201.083 37.0089 200.807 37.0089 200.476C37.0089 199.5 37.3529 199.012 38.0409 199.012C38.3076 199.012 38.5169 199.084 38.6689 199.228C38.8236 199.372 38.9142 199.549 38.9409 199.76H38.5209ZM38.0369 200.452C37.8742 200.452 37.7356 200.501 37.6209 200.6C37.5089 200.696 37.4529 200.836 37.4529 201.02C37.4529 201.204 37.5049 201.351 37.6089 201.46C37.7156 201.567 37.8636 201.62 38.0529 201.62C38.2209 201.62 38.3529 201.568 38.4489 201.464C38.5476 201.36 38.5969 201.221 38.5969 201.048C38.5969 200.867 38.5489 200.723 38.4529 200.616C38.3596 200.507 38.2209 200.452 38.0369 200.452ZM39.5193 200.504C39.5193 200.043 39.5966 199.683 39.7513 199.424C39.9086 199.163 40.178 199.032 40.5593 199.032C40.9406 199.032 41.2086 199.163 41.3633 199.424C41.5206 199.683 41.5993 200.043 41.5993 200.504C41.5993 200.971 41.5206 201.336 41.3633 201.6C41.2086 201.861 40.9406 201.992 40.5593 201.992C40.178 201.992 39.9086 201.861 39.7513 201.6C39.5966 201.336 39.5193 200.971 39.5193 200.504ZM41.1513 200.504C41.1513 200.288 41.1366 200.105 41.1073 199.956C41.0806 199.807 41.0246 199.685 40.9393 199.592C40.854 199.496 40.7273 199.448 40.5593 199.448C40.3913 199.448 40.2646 199.496 40.1793 199.592C40.094 199.685 40.0366 199.807 40.0073 199.956C39.9806 200.105 39.9673 200.288 39.9673 200.504C39.9673 200.728 39.9806 200.916 40.0073 201.068C40.034 201.22 40.09 201.343 40.1753 201.436C40.2633 201.529 40.3913 201.576 40.5593 201.576C40.7273 201.576 40.854 201.529 40.9393 201.436C41.0273 201.343 41.0846 201.22 41.1113 201.068C41.138 200.916 41.1513 200.728 41.1513 200.504Z" fill="black"/>
<path opacity="0.6" d="M37.056 170.76C37.0267 170.637 36.9734 170.545 36.896 170.484C36.8187 170.423 36.7107 170.392 36.572 170.392C36.3614 170.392 36.204 170.473 36.1 170.636C35.996 170.796 35.9414 171.063 35.936 171.436C36.0054 171.319 36.1067 171.228 36.24 171.164C36.3734 171.1 36.5174 171.068 36.672 171.068C36.848 171.068 37.0027 171.107 37.136 171.184C37.272 171.259 37.3774 171.368 37.452 171.512C37.5294 171.656 37.568 171.828 37.568 172.028C37.568 172.215 37.5307 172.381 37.456 172.528C37.384 172.675 37.276 172.791 37.132 172.876C36.988 172.959 36.8147 173 36.612 173C36.3374 173 36.1214 172.94 35.964 172.82C35.8094 172.697 35.7 172.525 35.636 172.304C35.5747 172.083 35.544 171.807 35.544 171.476C35.544 170.5 35.888 170.012 36.576 170.012C36.8427 170.012 37.052 170.084 37.204 170.228C37.3587 170.372 37.4494 170.549 37.476 170.76H37.056ZM36.572 171.452C36.4094 171.452 36.2707 171.501 36.156 171.6C36.044 171.696 35.988 171.836 35.988 172.02C35.988 172.204 36.04 172.351 36.144 172.46C36.2507 172.567 36.3987 172.62 36.588 172.62C36.756 172.62 36.888 172.568 36.984 172.464C37.0827 172.36 37.132 172.221 37.132 172.048C37.132 171.867 37.084 171.723 36.988 171.616C36.8947 171.507 36.756 171.452 36.572 171.452ZM38.0465 170.804C38.0625 170.556 38.1571 170.363 38.3305 170.224C38.5065 170.085 38.7305 170.016 39.0025 170.016C39.1891 170.016 39.3505 170.049 39.4865 170.116C39.6225 170.183 39.7251 170.273 39.7945 170.388C39.8638 170.503 39.8985 170.632 39.8985 170.776C39.8985 170.941 39.8545 171.083 39.7665 171.2C39.6785 171.317 39.5731 171.396 39.4505 171.436V171.452C39.6078 171.5 39.7305 171.588 39.8185 171.716C39.9065 171.841 39.9505 172.003 39.9505 172.2C39.9505 172.357 39.9145 172.497 39.8425 172.62C39.7705 172.743 39.6638 172.84 39.5225 172.912C39.3811 172.981 39.2118 173.016 39.0145 173.016C38.7265 173.016 38.4891 172.943 38.3025 172.796C38.1185 172.647 38.0198 172.433 38.0065 172.156H38.4465C38.4571 172.297 38.5118 172.413 38.6105 172.504C38.7091 172.592 38.8425 172.636 39.0105 172.636C39.1731 172.636 39.2985 172.592 39.3865 172.504C39.4745 172.413 39.5185 172.297 39.5185 172.156C39.5185 171.969 39.4585 171.837 39.3385 171.76C39.2211 171.68 39.0398 171.64 38.7945 171.64H38.6905V171.264H38.7985C39.0145 171.261 39.1785 171.225 39.2905 171.156C39.4051 171.087 39.4625 170.977 39.4625 170.828C39.4625 170.7 39.4211 170.599 39.3385 170.524C39.2558 170.447 39.1385 170.408 38.9865 170.408C38.8371 170.408 38.7211 170.447 38.6385 170.524C38.5558 170.599 38.5065 170.692 38.4905 170.804H38.0465ZM40.4295 171.504C40.4295 171.043 40.5068 170.683 40.6615 170.424C40.8188 170.163 41.0881 170.032 41.4695 170.032C41.8508 170.032 42.1188 170.163 42.2735 170.424C42.4308 170.683 42.5095 171.043 42.5095 171.504C42.5095 171.971 42.4308 172.336 42.2735 172.6C42.1188 172.861 41.8508 172.992 41.4695 172.992C41.0881 172.992 40.8188 172.861 40.6615 172.6C40.5068 172.336 40.4295 171.971 40.4295 171.504ZM42.0615 171.504C42.0615 171.288 42.0468 171.105 42.0175 170.956C41.9908 170.807 41.9348 170.685 41.8495 170.592C41.7641 170.496 41.6375 170.448 41.4695 170.448C41.3015 170.448 41.1748 170.496 41.0895 170.592C41.0041 170.685 40.9468 170.807 40.9175 170.956C40.8908 171.105 40.8775 171.288 40.8775 171.504C40.8775 171.728 40.8908 171.916 40.9175 172.068C40.9441 172.22 41.0001 172.343 41.0855 172.436C41.1735 172.529 41.3015 172.576 41.4695 172.576C41.6375 172.576 41.7641 172.529 41.8495 172.436C41.9375 172.343 41.9948 172.22 42.0215 172.068C42.0481 171.916 42.0615 171.728 42.0615 171.504Z" fill="black"/>
<path opacity="0.6" d="M37.4064 141.436L36.2944 144H35.8344L36.9584 141.484H35.4784V141.096H37.4064V141.436ZM37.7966 142.504C37.7966 142.043 37.874 141.683 38.0286 141.424C38.186 141.163 38.4553 141.032 38.8366 141.032C39.218 141.032 39.486 141.163 39.6406 141.424C39.798 141.683 39.8766 142.043 39.8766 142.504C39.8766 142.971 39.798 143.336 39.6406 143.6C39.486 143.861 39.218 143.992 38.8366 143.992C38.4553 143.992 38.186 143.861 38.0286 143.6C37.874 143.336 37.7966 142.971 37.7966 142.504ZM39.4286 142.504C39.4286 142.288 39.414 142.105 39.3846 141.956C39.358 141.807 39.302 141.685 39.2166 141.592C39.1313 141.496 39.0046 141.448 38.8366 141.448C38.6686 141.448 38.542 141.496 38.4566 141.592C38.3713 141.685 38.314 141.807 38.2846 141.956C38.258 142.105 38.2446 142.288 38.2446 142.504C38.2446 142.728 38.258 142.916 38.2846 143.068C38.3113 143.22 38.3673 143.343 38.4526 143.436C38.5406 143.529 38.6686 143.576 38.8366 143.576C39.0046 143.576 39.1313 143.529 39.2166 143.436C39.3046 143.343 39.362 143.22 39.3886 143.068C39.4153 142.916 39.4286 142.728 39.4286 142.504ZM40.3591 142.504C40.3591 142.043 40.4365 141.683 40.5911 141.424C40.7485 141.163 41.0178 141.032 41.3991 141.032C41.7805 141.032 42.0485 141.163 42.2031 141.424C42.3605 141.683 42.4391 142.043 42.4391 142.504C42.4391 142.971 42.3605 143.336 42.2031 143.6C42.0485 143.861 41.7805 143.992 41.3991 143.992C41.0178 143.992 40.7485 143.861 40.5911 143.6C40.4365 143.336 40.3591 142.971 40.3591 142.504ZM41.9911 142.504C41.9911 142.288 41.9765 142.105 41.9471 141.956C41.9205 141.807 41.8645 141.685 41.7791 141.592C41.6938 141.496 41.5671 141.448 41.3991 141.448C41.2311 141.448 41.1045 141.496 41.0191 141.592C40.9338 141.685 40.8765 141.807 40.8471 141.956C40.8205 142.105 40.8071 142.288 40.8071 142.504C40.8071 142.728 40.8205 142.916 40.8471 143.068C40.8738 143.22 40.9298 143.343 41.0151 143.436C41.1031 143.529 41.2311 143.576 41.3991 143.576C41.5671 143.576 41.6938 143.529 41.7791 143.436C41.8671 143.343 41.9245 143.22 41.9511 143.068C41.9778 142.916 41.9911 142.728 41.9911 142.504Z" fill="black"/>
<path opacity="0.6" d="M76.9781 266.22V268.224C76.9781 268.472 76.9021 268.668 76.7501 268.812C76.6008 268.956 76.4034 269.028 76.1581 269.028C75.9128 269.028 75.7141 268.956 75.5621 268.812C75.4128 268.668 75.3381 268.472 75.3381 268.224H75.7981C75.8008 268.347 75.8314 268.444 75.8901 268.516C75.9514 268.588 76.0408 268.624 76.1581 268.624C76.2754 268.624 76.3648 268.588 76.4261 268.516C76.4874 268.441 76.5181 268.344 76.5181 268.224V266.22H76.9781ZM79.7159 266.796V269H79.2599V268.74C79.1879 268.831 79.0933 268.903 78.9759 268.956C78.8613 269.007 78.7386 269.032 78.6079 269.032C78.4346 269.032 78.2786 268.996 78.1399 268.924C78.0039 268.852 77.8959 268.745 77.8159 268.604C77.7386 268.463 77.6999 268.292 77.6999 268.092V266.796H78.1519V268.024C78.1519 268.221 78.2013 268.373 78.2999 268.48C78.3986 268.584 78.5333 268.636 78.7039 268.636C78.8746 268.636 79.0093 268.584 79.1079 268.48C79.2093 268.373 79.2599 268.221 79.2599 268.024V266.796H79.7159ZM80.7736 266.04V269H80.3176V266.04H80.7736ZM83.3563 266.796L82.0043 270.036H81.5323L81.9803 268.964L81.1123 266.796H81.6203L82.2403 268.476L82.8843 266.796H83.3563ZM84.6195 266.5V266.084H85.4515V269H84.9915V266.5H84.6195Z" fill="black"/>
<path opacity="0.6" d="M115.023 266.22V268.224C115.023 268.472 114.947 268.668 114.795 268.812C114.646 268.956 114.448 269.028 114.203 269.028C113.958 269.028 113.759 268.956 113.607 268.812C113.458 268.668 113.383 268.472 113.383 268.224H113.843C113.846 268.347 113.876 268.444 113.935 268.516C113.996 268.588 114.086 268.624 114.203 268.624C114.32 268.624 114.41 268.588 114.471 268.516C114.532 268.441 114.563 268.344 114.563 268.224V266.22H115.023ZM117.761 266.796V269H117.305V268.74C117.233 268.831 117.138 268.903 117.021 268.956C116.906 269.007 116.784 269.032 116.653 269.032C116.48 269.032 116.324 268.996 116.185 268.924C116.049 268.852 115.941 268.745 115.861 268.604C115.784 268.463 115.745 268.292 115.745 268.092V266.796H116.197V268.024C116.197 268.221 116.246 268.373 116.345 268.48C116.444 268.584 116.578 268.636 116.749 268.636C116.92 268.636 117.054 268.584 117.153 268.48C117.254 268.373 117.305 268.221 117.305 268.024V266.796H117.761ZM118.819 266.04V269H118.363V266.04H118.819ZM121.401 266.796L120.049 270.036H119.577L120.025 268.964L119.157 266.796H119.665L120.285 268.476L120.929 266.796H121.401ZM122.976 268.38C123.232 268.159 123.434 267.977 123.58 267.836C123.73 267.692 123.854 267.543 123.952 267.388C124.051 267.233 124.1 267.079 124.1 266.924C124.1 266.764 124.062 266.639 123.984 266.548C123.91 266.457 123.791 266.412 123.628 266.412C123.471 266.412 123.348 266.463 123.26 266.564C123.175 266.663 123.13 266.796 123.124 266.964H122.684C122.692 266.66 122.783 266.428 122.956 266.268C123.132 266.105 123.355 266.024 123.624 266.024C123.915 266.024 124.142 266.104 124.304 266.264C124.47 266.424 124.552 266.637 124.552 266.904C124.552 267.096 124.503 267.281 124.404 267.46C124.308 267.636 124.192 267.795 124.056 267.936C123.923 268.075 123.752 268.236 123.544 268.42L123.364 268.58H124.632V268.96H122.688V268.628L122.976 268.38Z" fill="black"/>
<path opacity="0.6" d="M154.99 266.22V268.224C154.99 268.472 154.914 268.668 154.762 268.812C154.612 268.956 154.415 269.028 154.17 269.028C153.924 269.028 153.726 268.956 153.574 268.812C153.424 268.668 153.35 268.472 153.35 268.224H153.81C153.812 268.347 153.843 268.444 153.902 268.516C153.963 268.588 154.052 268.624 154.17 268.624C154.287 268.624 154.376 268.588 154.438 268.516C154.499 268.441 154.53 268.344 154.53 268.224V266.22H154.99ZM157.728 266.796V269H157.272V268.74C157.2 268.831 157.105 268.903 156.988 268.956C156.873 269.007 156.75 269.032 156.62 269.032C156.446 269.032 156.29 268.996 156.152 268.924C156.016 268.852 155.908 268.745 155.828 268.604C155.75 268.463 155.712 268.292 155.712 268.092V266.796H156.164V268.024C156.164 268.221 156.213 268.373 156.312 268.48C156.41 268.584 156.545 268.636 156.716 268.636C156.886 268.636 157.021 268.584 157.12 268.48C157.221 268.373 157.272 268.221 157.272 268.024V266.796H157.728ZM158.785 266.04V269H158.329V266.04H158.785ZM161.368 266.796L160.016 270.036H159.544L159.992 268.964L159.124 266.796H159.632L160.252 268.476L160.896 266.796H161.368ZM162.683 266.804C162.699 266.556 162.794 266.363 162.967 266.224C163.143 266.085 163.367 266.016 163.639 266.016C163.826 266.016 163.987 266.049 164.123 266.116C164.259 266.183 164.362 266.273 164.431 266.388C164.501 266.503 164.535 266.632 164.535 266.776C164.535 266.941 164.491 267.083 164.403 267.2C164.315 267.317 164.21 267.396 164.087 267.436V267.452C164.245 267.5 164.367 267.588 164.455 267.716C164.543 267.841 164.587 268.003 164.587 268.2C164.587 268.357 164.551 268.497 164.479 268.62C164.407 268.743 164.301 268.84 164.159 268.912C164.018 268.981 163.849 269.016 163.651 269.016C163.363 269.016 163.126 268.943 162.939 268.796C162.755 268.647 162.657 268.433 162.643 268.156H163.083C163.094 268.297 163.149 268.413 163.247 268.504C163.346 268.592 163.479 268.636 163.647 268.636C163.81 268.636 163.935 268.592 164.023 268.504C164.111 268.413 164.155 268.297 164.155 268.156C164.155 267.969 164.095 267.837 163.975 267.76C163.858 267.68 163.677 267.64 163.431 267.64H163.327V267.264H163.435C163.651 267.261 163.815 267.225 163.927 267.156C164.042 267.087 164.099 266.977 164.099 266.828C164.099 266.7 164.058 266.599 163.975 266.524C163.893 266.447 163.775 266.408 163.623 266.408C163.474 266.408 163.358 266.447 163.275 266.524C163.193 266.599 163.143 266.692 163.127 266.804H162.683Z" fill="black"/>
<path opacity="0.6" d="M194.882 266.22V268.224C194.882 268.472 194.806 268.668 194.654 268.812C194.505 268.956 194.308 269.028 194.062 269.028C193.817 269.028 193.618 268.956 193.466 268.812C193.317 268.668 193.242 268.472 193.242 268.224H193.702C193.705 268.347 193.736 268.444 193.794 268.516C193.856 268.588 193.945 268.624 194.062 268.624C194.18 268.624 194.269 268.588 194.33 268.516C194.392 268.441 194.422 268.344 194.422 268.224V266.22H194.882ZM197.62 266.796V269H197.164V268.74C197.092 268.831 196.998 268.903 196.88 268.956C196.766 269.007 196.643 269.032 196.512 269.032C196.339 269.032 196.183 268.996 196.044 268.924C195.908 268.852 195.8 268.745 195.72 268.604C195.643 268.463 195.604 268.292 195.604 268.092V266.796H196.056V268.024C196.056 268.221 196.106 268.373 196.204 268.48C196.303 268.584 196.438 268.636 196.608 268.636C196.779 268.636 196.914 268.584 197.012 268.48C197.114 268.373 197.164 268.221 197.164 268.024V266.796H197.62ZM198.678 266.04V269H198.222V266.04H198.678ZM201.261 266.796L199.909 270.036H199.437L199.885 268.964L199.017 266.796H199.525L200.145 268.476L200.789 266.796H201.261ZM202.528 268.392V268.048L203.872 266.12H204.424V267.996H204.796V268.392H204.424V269H203.976V268.392H202.528ZM203.996 266.584L203.052 267.996H203.996V266.584Z" fill="black"/>
<path opacity="0.6" d="M234.9 266.22V268.224C234.9 268.472 234.824 268.668 234.672 268.812C234.523 268.956 234.325 269.028 234.08 269.028C233.835 269.028 233.636 268.956 233.484 268.812C233.335 268.668 233.26 268.472 233.26 268.224H233.72C233.723 268.347 233.753 268.444 233.812 268.516C233.873 268.588 233.963 268.624 234.08 268.624C234.197 268.624 234.287 268.588 234.348 268.516C234.409 268.441 234.44 268.344 234.44 268.224V266.22H234.9ZM237.638 266.796V269H237.182V268.74C237.11 268.831 237.015 268.903 236.898 268.956C236.783 269.007 236.66 269.032 236.53 269.032C236.356 269.032 236.2 268.996 236.062 268.924C235.926 268.852 235.818 268.745 235.738 268.604C235.66 268.463 235.622 268.292 235.622 268.092V266.796H236.074V268.024C236.074 268.221 236.123 268.373 236.222 268.48C236.32 268.584 236.455 268.636 236.626 268.636C236.796 268.636 236.931 268.584 237.03 268.48C237.131 268.373 237.182 268.221 237.182 268.024V266.796H237.638ZM238.695 266.04V269H238.239V266.04H238.695ZM241.278 266.796L239.926 270.036H239.454L239.902 268.964L239.034 266.796H239.542L240.162 268.476L240.806 266.796H241.278ZM244.481 266.476H243.141V267.272C243.197 267.197 243.28 267.135 243.389 267.084C243.501 267.033 243.62 267.008 243.745 267.008C243.969 267.008 244.151 267.056 244.289 267.152C244.431 267.248 244.531 267.369 244.589 267.516C244.651 267.663 244.681 267.817 244.681 267.98C244.681 268.177 244.643 268.353 244.565 268.508C244.491 268.66 244.377 268.78 244.225 268.868C244.076 268.956 243.892 269 243.673 269C243.383 269 243.149 268.928 242.973 268.784C242.797 268.64 242.692 268.449 242.657 268.212H243.101C243.131 268.337 243.196 268.437 243.297 268.512C243.399 268.584 243.525 268.62 243.677 268.62C243.867 268.62 244.008 268.563 244.101 268.448C244.197 268.333 244.245 268.181 244.245 267.992C244.245 267.8 244.197 267.653 244.101 267.552C244.005 267.448 243.864 267.396 243.677 267.396C243.547 267.396 243.436 267.429 243.345 267.496C243.257 267.56 243.193 267.648 243.153 267.76H242.721V266.076H244.481V266.476Z" fill="black"/>
<path opacity="0.6" d="M274.894 266.22V268.224C274.894 268.472 274.818 268.668 274.666 268.812C274.517 268.956 274.319 269.028 274.074 269.028C273.829 269.028 273.63 268.956 273.478 268.812C273.329 268.668 273.254 268.472 273.254 268.224H273.714C273.717 268.347 273.747 268.444 273.806 268.516C273.867 268.588 273.957 268.624 274.074 268.624C274.191 268.624 274.281 268.588 274.342 268.516C274.403 268.441 274.434 268.344 274.434 268.224V266.22H274.894ZM277.632 266.796V269H277.176V268.74C277.104 268.831 277.009 268.903 276.892 268.956C276.777 269.007 276.655 269.032 276.524 269.032C276.351 269.032 276.195 268.996 276.056 268.924C275.92 268.852 275.812 268.745 275.732 268.604C275.655 268.463 275.616 268.292 275.616 268.092V266.796H276.068V268.024C276.068 268.221 276.117 268.373 276.216 268.48C276.315 268.584 276.449 268.636 276.62 268.636C276.791 268.636 276.925 268.584 277.024 268.48C277.125 268.373 277.176 268.221 277.176 268.024V266.796H277.632ZM278.69 266.04V269H278.234V266.04H278.69ZM281.272 266.796L279.92 270.036H279.448L279.896 268.964L279.028 266.796H279.536L280.156 268.476L280.8 266.796H281.272ZM284.163 266.76C284.134 266.637 284.081 266.545 284.003 266.484C283.926 266.423 283.818 266.392 283.679 266.392C283.469 266.392 283.311 266.473 283.207 266.636C283.103 266.796 283.049 267.063 283.043 267.436C283.113 267.319 283.214 267.228 283.347 267.164C283.481 267.1 283.625 267.068 283.779 267.068C283.955 267.068 284.11 267.107 284.243 267.184C284.379 267.259 284.485 267.368 284.559 267.512C284.637 267.656 284.675 267.828 284.675 268.028C284.675 268.215 284.638 268.381 284.563 268.528C284.491 268.675 284.383 268.791 284.239 268.876C284.095 268.959 283.922 269 283.719 269C283.445 269 283.229 268.94 283.071 268.82C282.917 268.697 282.807 268.525 282.743 268.304C282.682 268.083 282.651 267.807 282.651 267.476C282.651 266.5 282.995 266.012 283.683 266.012C283.95 266.012 284.159 266.084 284.311 266.228C284.466 266.372 284.557 266.549 284.583 266.76H284.163ZM283.679 267.452C283.517 267.452 283.378 267.501 283.263 267.6C283.151 267.696 283.095 267.836 283.095 268.02C283.095 268.204 283.147 268.351 283.251 268.46C283.358 268.567 283.506 268.62 283.695 268.62C283.863 268.62 283.995 268.568 284.091 268.464C284.19 268.36 284.239 268.221 284.239 268.048C284.239 267.867 284.191 267.723 284.095 267.616C284.002 267.507 283.863 267.452 283.679 267.452Z" fill="black"/>
<path opacity="0.6" d="M315.058 266.22V268.224C315.058 268.472 314.982 268.668 314.83 268.812C314.681 268.956 314.484 269.028 314.238 269.028C313.993 269.028 313.794 268.956 313.642 268.812C313.493 268.668 313.418 268.472 313.418 268.224H313.878C313.881 268.347 313.912 268.444 313.97 268.516C314.032 268.588 314.121 268.624 314.238 268.624C314.356 268.624 314.445 268.588 314.506 268.516C314.568 268.441 314.598 268.344 314.598 268.224V266.22H315.058ZM317.796 266.796V269H317.34V268.74C317.268 268.831 317.173 268.903 317.056 268.956C316.941 269.007 316.819 269.032 316.688 269.032C316.515 269.032 316.359 268.996 316.22 268.924C316.084 268.852 315.976 268.745 315.896 268.604C315.819 268.463 315.78 268.292 315.78 268.092V266.796H316.232V268.024C316.232 268.221 316.281 268.373 316.38 268.48C316.479 268.584 316.613 268.636 316.784 268.636C316.955 268.636 317.089 268.584 317.188 268.48C317.289 268.373 317.34 268.221 317.34 268.024V266.796H317.796ZM318.854 266.04V269H318.398V266.04H318.854ZM321.436 266.796L320.084 270.036H319.612L320.06 268.964L319.192 266.796H319.7L320.32 268.476L320.964 266.796H321.436ZM324.608 266.436L323.496 269H323.036L324.16 266.484H322.68V266.096H324.608V266.436Z" fill="black"/>
<circle cx="79.5" cy="230.5" r="2" fill="#1A377D" stroke="#1A377D"/>
<circle cx="120" cy="192" r="2" fill="#1A377D" stroke="#1A377D" stroke-width="2"/>
<circle cx="160" cy="171" r="2" fill="#1A377D" stroke="#1A377D" stroke-width="2"/>
<circle cx="200" cy="189" r="2" fill="#1A377D" stroke="#1A377D" stroke-width="2"/>
<circle cx="240" cy="152" r="2" fill="#1A377D" stroke="#1A377D" stroke-width="2"/>
<circle cx="280" cy="181" r="2" fill="#1A377D" stroke="#1A377D" stroke-width="2"/>
<circle cx="321" cy="190" r="2" fill="#1A377D" stroke="#1A377D" stroke-width="2"/>
<line x1="80.6511" y1="229.642" x2="119.651" y2="191.642" stroke="#1A377D"/>
<line x1="119.768" y1="191.557" x2="159.768" y2="170.557" stroke="#1A377D"/>
<line x1="160.215" y1="170.548" x2="200.215" y2="189.548" stroke="#1A377D"/>
<line x1="199.656" y1="189.638" x2="239.656" y2="151.637" stroke="#1A377D"/>
<line x1="240.3" y1="151.6" x2="280.3" y2="181.6" stroke="#1A377D"/>
<line x1="280.098" y1="181.51" x2="320.098" y2="189.51" stroke="#1A377D"/>
<path d="M156 78H230V101C230 105.971 225.971 110 221 110H165C160.029 110 156 105.971 156 101V78Z" fill="#E8EBF2"/>
<path d="M177.669 97.44L175.581 103H174.525L172.429 97.44H173.405L175.053 102.064L176.709 97.44H177.669ZM178.896 98.008C178.731 98.008 178.592 97.952 178.48 97.84C178.368 97.728 178.312 97.5893 178.312 97.424C178.312 97.2587 178.368 97.12 178.48 97.008C178.592 96.896 178.731 96.84 178.896 96.84C179.056 96.84 179.192 96.896 179.304 97.008C179.416 97.12 179.472 97.2587 179.472 97.424C179.472 97.5893 179.416 97.728 179.304 97.84C179.192 97.952 179.056 98.008 178.896 98.008ZM179.344 98.592V103H178.432V98.592H179.344ZM184.581 100.688C184.581 100.853 184.571 101.003 184.549 101.136H181.181C181.208 101.488 181.339 101.771 181.573 101.984C181.808 102.197 182.096 102.304 182.437 102.304C182.928 102.304 183.275 102.099 183.477 101.688H184.461C184.328 102.093 184.085 102.427 183.733 102.688C183.387 102.944 182.955 103.072 182.437 103.072C182.016 103.072 181.637 102.979 181.301 102.792C180.971 102.6 180.709 102.333 180.517 101.992C180.331 101.645 180.237 101.245 180.237 100.792C180.237 100.339 180.328 99.9413 180.509 99.6C180.696 99.2533 180.955 98.9867 181.285 98.8C181.621 98.6133 182.005 98.52 182.437 98.52C182.853 98.52 183.224 98.6107 183.549 98.792C183.875 98.9733 184.128 99.2293 184.309 99.56C184.491 99.8853 184.581 100.261 184.581 100.688ZM183.629 100.4C183.624 100.064 183.504 99.7947 183.269 99.592C183.035 99.3893 182.744 99.288 182.397 99.288C182.083 99.288 181.813 99.3893 181.589 99.592C181.365 99.7893 181.232 100.059 181.189 100.4H183.629ZM191.399 98.592L190.031 103H189.071L188.183 99.744L187.295 103H186.335L184.959 98.592H185.887L186.807 102.136L187.743 98.592H188.695L189.591 102.12L190.503 98.592H191.399ZM200.015 97.44V103H199.103V99.192L197.407 103H196.775L195.071 99.192V103H194.159V97.44H195.143L197.095 101.8L199.039 97.44H200.015ZM203.125 103.072C202.709 103.072 202.333 102.979 201.997 102.792C201.661 102.6 201.397 102.333 201.205 101.992C201.013 101.645 200.917 101.245 200.917 100.792C200.917 100.344 201.016 99.9467 201.213 99.6C201.411 99.2533 201.68 98.9867 202.021 98.8C202.363 98.6133 202.744 98.52 203.165 98.52C203.587 98.52 203.968 98.6133 204.309 98.8C204.651 98.9867 204.92 99.2533 205.117 99.6C205.315 99.9467 205.413 100.344 205.413 100.792C205.413 101.24 205.312 101.637 205.109 101.984C204.907 102.331 204.629 102.6 204.277 102.792C203.931 102.979 203.547 103.072 203.125 103.072ZM203.125 102.28C203.36 102.28 203.579 102.224 203.781 102.112C203.989 102 204.157 101.832 204.285 101.608C204.413 101.384 204.477 101.112 204.477 100.792C204.477 100.472 204.416 100.203 204.293 99.984C204.171 99.76 204.008 99.592 203.805 99.48C203.603 99.368 203.384 99.312 203.149 99.312C202.915 99.312 202.696 99.368 202.493 99.48C202.296 99.592 202.139 99.76 202.021 99.984C201.904 100.203 201.845 100.472 201.845 100.792C201.845 101.267 201.965 101.635 202.205 101.896C202.451 102.152 202.757 102.28 203.125 102.28ZM207.227 99.232C207.36 99.008 207.536 98.8347 207.755 98.712C207.979 98.584 208.243 98.52 208.547 98.52V99.464H208.315C207.958 99.464 207.686 99.5547 207.499 99.736C207.318 99.9173 207.227 100.232 207.227 100.68V103H206.315V98.592H207.227V99.232ZM213.425 100.688C213.425 100.853 213.414 101.003 213.393 101.136H210.025C210.052 101.488 210.182 101.771 210.417 101.984C210.652 102.197 210.94 102.304 211.281 102.304C211.772 102.304 212.118 102.099 212.321 101.688H213.305C213.172 102.093 212.929 102.427 212.577 102.688C212.23 102.944 211.798 103.072 211.281 103.072C210.86 103.072 210.481 102.979 210.145 102.792C209.814 102.6 209.553 102.333 209.361 101.992C209.174 101.645 209.081 101.245 209.081 100.792C209.081 100.339 209.172 99.9413 209.353 99.6C209.54 99.2533 209.798 98.9867 210.129 98.8C210.465 98.6133 210.849 98.52 211.281 98.52C211.697 98.52 212.068 98.6107 212.393 98.792C212.718 98.9733 212.972 99.2293 213.153 99.56C213.334 99.8853 213.425 100.261 213.425 100.688ZM212.473 100.4C212.468 100.064 212.348 99.7947 212.113 99.592C211.878 99.3893 211.588 99.288 211.241 99.288C210.926 99.288 210.657 99.3893 210.433 99.592C210.209 99.7893 210.076 100.059 210.033 100.4H212.473Z" fill="black"/>
<g clip-path="url(#clip0_819_2920)">
<path d="M196.004 87.54C196.042 87.5013 196.073 87.4553 196.094 87.4047C196.115 87.3541 196.126 87.2998 196.126 87.245C196.126 87.1902 196.115 87.1359 196.094 87.0853C196.073 87.0347 196.042 86.9887 196.004 86.95L193.234 84.18C193.203 84.1491 193.166 84.1246 193.126 84.1079C193.085 84.0911 193.042 84.0825 192.999 84.0825C192.955 84.0825 192.912 84.0911 192.871 84.1079C192.831 84.1246 192.794 84.1491 192.764 84.18L189.994 86.95C189.83 87.1133 189.83 87.3767 189.994 87.54C190.157 87.7033 190.42 87.7033 190.584 87.54L193 85.1267L195.417 87.5433C195.577 87.7033 195.844 87.7033 196.004 87.54Z" fill="black"/>
</g>
<defs>
<filter id="filter0_dd_819_2920" x="0" y="62" width="385" height="248" filterUnits="userSpaceOnUse" color-interpolation-filters="sRGB">
<feFlood flood-opacity="0" result="BackgroundImageFix"/>
<feColorMatrix in="SourceAlpha" type="matrix" values="0 0 0 0 0 0 0 0 0 0 0 0 0 0 0 0 0 0 127 0" result="hardAlpha"/>
<feOffset dy="4"/>
<feGaussianBlur stdDeviation="10"/>
<feComposite in2="hardAlpha" operator="out"/>
<feColorMatrix type="matrix" values="0 0 0 0 0 0 0 0 0 0 0 0 0 0 0 0 0 0 0.25 0"/>
<feBlend mode="normal" in2="BackgroundImageFix" result="effect1_dropShadow_819_2920"/>
<feColorMatrix in="SourceAlpha" type="matrix" values="0 0 0 0 0 0 0 0 0 0 0 0 0 0 0 0 0 0 127 0" result="hardAlpha"/>
<feOffset dy="4"/>
<feGaussianBlur stdDeviation="2"/>
<feComposite in2="hardAlpha" operator="out"/>
<feColorMatrix type="matrix" values="0 0 0 0 0 0 0 0 0 0 0 0 0 0 0 0 0 0 0.25 0"/>
<feBlend mode="normal" in2="effect1_dropShadow_819_2920" result="effect2_dropShadow_819_2920"/>
<feBlend mode="normal" in="SourceGraphic" in2="effect2_dropShadow_819_2920" result="shape"/>
</filter>
<clipPath id="clip0_819_2920">
<rect width="8" height="8" fill="white" transform="translate(197 82) rotate(90)"/>
</clipPath>
</defs>
</svg>
