<svg width="377" height="106" viewBox="0 0 377 106" fill="none" xmlns="http://www.w3.org/2000/svg">
<path d="M0 0H377L302.422 51.2135L377 106H0V0Z" fill="#FF4848"/>
<path d="M103.08 22.88V34H101.256V29.136H96.024V34H94.2V22.88H96.024V27.648H101.256V22.88H103.08ZM113.561 29.376C113.561 29.7067 113.54 30.0053 113.497 30.272H106.761C106.815 30.976 107.076 31.5413 107.545 31.968C108.015 32.3947 108.591 32.608 109.273 32.608C110.255 32.608 110.948 32.1973 111.353 31.376H113.321C113.055 32.1867 112.569 32.8533 111.865 33.376C111.172 33.888 110.308 34.144 109.273 34.144C108.431 34.144 107.673 33.9573 107.001 33.584C106.34 33.2 105.817 32.6667 105.433 31.984C105.06 31.2907 104.873 30.4907 104.873 29.584C104.873 28.6773 105.055 27.8827 105.417 27.2C105.791 26.5067 106.308 25.9733 106.969 25.6C107.641 25.2267 108.409 25.04 109.273 25.04C110.105 25.04 110.847 25.2213 111.497 25.584C112.148 25.9467 112.655 26.4587 113.017 27.12C113.38 27.7707 113.561 28.5227 113.561 29.376ZM111.657 28.8C111.647 28.128 111.407 27.5893 110.937 27.184C110.468 26.7787 109.887 26.576 109.193 26.576C108.564 26.576 108.025 26.7787 107.577 27.184C107.129 27.5787 106.863 28.1173 106.777 28.8H111.657ZM117.18 22.16V34H115.356V22.16H117.18ZM121.399 22.16V34H119.575V22.16H121.399ZM127.618 34.144C126.786 34.144 126.034 33.9573 125.362 33.584C124.69 33.2 124.162 32.6667 123.778 31.984C123.394 31.2907 123.202 30.4907 123.202 29.584C123.202 28.688 123.399 27.8933 123.794 27.2C124.188 26.5067 124.727 25.9733 125.41 25.6C126.092 25.2267 126.855 25.04 127.698 25.04C128.54 25.04 129.303 25.2267 129.986 25.6C130.668 25.9733 131.207 26.5067 131.602 27.2C131.996 27.8933 132.194 28.688 132.194 29.584C132.194 30.48 131.991 31.2747 131.586 31.968C131.18 32.6613 130.626 33.2 129.922 33.584C129.228 33.9573 128.46 34.144 127.618 34.144ZM127.618 32.56C128.087 32.56 128.524 32.448 128.93 32.224C129.346 32 129.682 31.664 129.938 31.216C130.194 30.768 130.322 30.224 130.322 29.584C130.322 28.944 130.199 28.4053 129.954 27.968C129.708 27.52 129.383 27.184 128.978 26.96C128.572 26.736 128.135 26.624 127.666 26.624C127.196 26.624 126.759 26.736 126.354 26.96C125.959 27.184 125.644 27.52 125.41 27.968C125.175 28.4053 125.058 28.944 125.058 29.584C125.058 30.5333 125.298 31.2693 125.778 31.792C126.268 32.304 126.882 32.56 127.618 32.56ZM141.817 34.112C141.07 34.112 140.398 33.984 139.801 33.728C139.204 33.4613 138.734 33.088 138.393 32.608C138.052 32.128 137.881 31.568 137.881 30.928H139.833C139.876 31.408 140.062 31.8027 140.393 32.112C140.734 32.4213 141.209 32.576 141.817 32.576C142.446 32.576 142.937 32.4267 143.289 32.128C143.641 31.8187 143.817 31.424 143.817 30.944C143.817 30.5707 143.705 30.2667 143.481 30.032C143.268 29.7973 142.996 29.616 142.665 29.488C142.345 29.36 141.897 29.2213 141.321 29.072C140.596 28.88 140.004 28.688 139.545 28.496C139.097 28.2933 138.713 27.984 138.393 27.568C138.073 27.152 137.913 26.5973 137.913 25.904C137.913 25.264 138.073 24.704 138.393 24.224C138.713 23.744 139.161 23.376 139.737 23.12C140.313 22.864 140.98 22.736 141.737 22.736C142.814 22.736 143.694 23.008 144.377 23.552C145.07 24.0853 145.454 24.8213 145.529 25.76H143.513C143.481 25.3547 143.289 25.008 142.937 24.72C142.585 24.432 142.121 24.288 141.545 24.288C141.022 24.288 140.596 24.4213 140.265 24.688C139.934 24.9547 139.769 25.3387 139.769 25.84C139.769 26.1813 139.87 26.464 140.073 26.688C140.286 26.9013 140.553 27.072 140.873 27.2C141.193 27.328 141.63 27.4667 142.185 27.616C142.921 27.8187 143.518 28.0213 143.977 28.224C144.446 28.4267 144.841 28.7413 145.161 29.168C145.492 29.584 145.657 30.144 145.657 30.848C145.657 31.4133 145.502 31.9467 145.193 32.448C144.894 32.9493 144.452 33.3547 143.865 33.664C143.289 33.9627 142.606 34.112 141.817 34.112ZM147.201 29.552C147.201 28.6667 147.383 27.8827 147.745 27.2C148.119 26.5173 148.62 25.9893 149.249 25.616C149.889 25.232 150.593 25.04 151.361 25.04C152.055 25.04 152.657 25.1787 153.169 25.456C153.692 25.7227 154.108 26.0587 154.417 26.464V25.184H156.257V34H154.417V32.688C154.108 33.104 153.687 33.4507 153.153 33.728C152.62 34.0053 152.012 34.144 151.329 34.144C150.572 34.144 149.879 33.952 149.249 33.568C148.62 33.1733 148.119 32.6293 147.745 31.936C147.383 31.232 147.201 30.4373 147.201 29.552ZM154.417 29.584C154.417 28.976 154.289 28.448 154.033 28C153.788 27.552 153.463 27.2107 153.057 26.976C152.652 26.7413 152.215 26.624 151.745 26.624C151.276 26.624 150.839 26.7413 150.433 26.976C150.028 27.2 149.697 27.536 149.441 27.984C149.196 28.4213 149.073 28.944 149.073 29.552C149.073 30.16 149.196 30.6933 149.441 31.152C149.697 31.6107 150.028 31.9627 150.433 32.208C150.849 32.4427 151.287 32.56 151.745 32.56C152.215 32.56 152.652 32.4427 153.057 32.208C153.463 31.9733 153.788 31.632 154.033 31.184C154.289 30.7253 154.417 30.192 154.417 29.584ZM159.581 24.016C159.25 24.016 158.973 23.904 158.749 23.68C158.525 23.456 158.413 23.1787 158.413 22.848C158.413 22.5173 158.525 22.24 158.749 22.016C158.973 21.792 159.25 21.68 159.581 21.68C159.901 21.68 160.173 21.792 160.397 22.016C160.621 22.24 160.733 22.5173 160.733 22.848C160.733 23.1787 160.621 23.456 160.397 23.68C160.173 23.904 159.901 24.016 159.581 24.016ZM160.477 25.184V34H158.653V25.184H160.477ZM164.872 31.808L162.936 36.224H161.752L162.888 31.808H164.872ZM172.446 32.528H176.206V34H170.622V22.88H172.446V32.528ZM185.811 29.376C185.811 29.7067 185.79 30.0053 185.747 30.272H179.011C179.065 30.976 179.326 31.5413 179.795 31.968C180.265 32.3947 180.841 32.608 181.523 32.608C182.505 32.608 183.198 32.1973 183.603 31.376H185.571C185.305 32.1867 184.819 32.8533 184.115 33.376C183.422 33.888 182.558 34.144 181.523 34.144C180.681 34.144 179.923 33.9573 179.251 33.584C178.59 33.2 178.067 32.6667 177.683 31.984C177.31 31.2907 177.123 30.4907 177.123 29.584C177.123 28.6773 177.305 27.8827 177.667 27.2C178.041 26.5067 178.558 25.9733 179.219 25.6C179.891 25.2267 180.659 25.04 181.523 25.04C182.355 25.04 183.097 25.2213 183.747 25.584C184.398 25.9467 184.905 26.4587 185.267 27.12C185.63 27.7707 185.811 28.5227 185.811 29.376ZM183.907 28.8C183.897 28.128 183.657 27.5893 183.187 27.184C182.718 26.7787 182.137 26.576 181.443 26.576C180.814 26.576 180.275 26.7787 179.827 27.184C179.379 27.5787 179.113 28.1173 179.027 28.8H183.907ZM189.734 26.672V31.552C189.734 31.8827 189.809 32.1227 189.958 32.272C190.118 32.4107 190.385 32.48 190.758 32.48H191.878V34H190.438C189.617 34 188.988 33.808 188.55 33.424C188.113 33.04 187.894 32.416 187.894 31.552V26.672H186.854V25.184H187.894V22.992H189.734V25.184H191.878V26.672H189.734ZM209.428 22.88V34H207.604V26.384L204.212 34H202.948L199.54 26.384V34H197.716V22.88H199.684L203.588 31.6L207.476 22.88H209.428ZM219.905 29.376C219.905 29.7067 219.884 30.0053 219.841 30.272H213.105C213.158 30.976 213.42 31.5413 213.889 31.968C214.358 32.3947 214.934 32.608 215.617 32.608C216.598 32.608 217.292 32.1973 217.697 31.376H219.665C219.398 32.1867 218.913 32.8533 218.209 33.376C217.516 33.888 216.652 34.144 215.617 34.144C214.774 34.144 214.017 33.9573 213.345 33.584C212.684 33.2 212.161 32.6667 211.777 31.984C211.404 31.2907 211.217 30.4907 211.217 29.584C211.217 28.6773 211.398 27.8827 211.761 27.2C212.134 26.5067 212.652 25.9733 213.313 25.6C213.985 25.2267 214.753 25.04 215.617 25.04C216.449 25.04 217.19 25.2213 217.841 25.584C218.492 25.9467 218.998 26.4587 219.361 27.12C219.724 27.7707 219.905 28.5227 219.905 29.376ZM218.001 28.8C217.99 28.128 217.75 27.5893 217.281 27.184C216.812 26.7787 216.23 26.576 215.537 26.576C214.908 26.576 214.369 26.7787 213.921 27.184C213.473 27.5787 213.206 28.1173 213.121 28.8H218.001ZM100.328 58L96.024 53.024V58H94.2V46.88H96.024V51.952L100.344 46.88H102.632L97.8 52.448L102.712 58H100.328ZM108.773 49.04C109.466 49.04 110.085 49.184 110.629 49.472C111.184 49.76 111.616 50.1867 111.925 50.752C112.234 51.3173 112.389 52 112.389 52.8V58H110.581V53.072C110.581 52.2827 110.384 51.68 109.989 51.264C109.594 50.8373 109.056 50.624 108.373 50.624C107.69 50.624 107.146 50.8373 106.741 51.264C106.346 51.68 106.149 52.2827 106.149 53.072V58H104.325V49.184H106.149V50.192C106.448 49.8293 106.826 49.5467 107.285 49.344C107.754 49.1413 108.25 49.04 108.773 49.04ZM118.54 58.144C117.708 58.144 116.956 57.9573 116.284 57.584C115.612 57.2 115.084 56.6667 114.7 55.984C114.316 55.2907 114.124 54.4907 114.124 53.584C114.124 52.688 114.321 51.8933 114.716 51.2C115.11 50.5067 115.649 49.9733 116.332 49.6C117.014 49.2267 117.777 49.04 118.62 49.04C119.462 49.04 120.225 49.2267 120.908 49.6C121.59 49.9733 122.129 50.5067 122.524 51.2C122.918 51.8933 123.116 52.688 123.116 53.584C123.116 54.48 122.913 55.2747 122.508 55.968C122.102 56.6613 121.548 57.2 120.844 57.584C120.15 57.9573 119.382 58.144 118.54 58.144ZM118.54 56.56C119.009 56.56 119.446 56.448 119.852 56.224C120.268 56 120.604 55.664 120.86 55.216C121.116 54.768 121.244 54.224 121.244 53.584C121.244 52.944 121.121 52.4053 120.876 51.968C120.63 51.52 120.305 51.184 119.9 50.96C119.494 50.736 119.057 50.624 118.588 50.624C118.118 50.624 117.681 50.736 117.276 50.96C116.881 51.184 116.566 51.52 116.332 51.968C116.097 52.4053 115.98 52.944 115.98 53.584C115.98 54.5333 116.22 55.2693 116.7 55.792C117.19 56.304 117.804 56.56 118.54 56.56ZM136.759 49.184L134.023 58H132.103L130.327 51.488L128.551 58H126.631L123.879 49.184H125.735L127.575 56.272L129.447 49.184H131.351L133.143 56.24L134.967 49.184H136.759ZM150.214 49.184L144.806 62.144H142.918L144.71 57.856L141.238 49.184H143.27L145.75 55.904L148.326 49.184H150.214ZM155.415 58.144C154.583 58.144 153.831 57.9573 153.159 57.584C152.487 57.2 151.959 56.6667 151.575 55.984C151.191 55.2907 150.999 54.4907 150.999 53.584C150.999 52.688 151.196 51.8933 151.591 51.2C151.985 50.5067 152.524 49.9733 153.207 49.6C153.889 49.2267 154.652 49.04 155.495 49.04C156.337 49.04 157.1 49.2267 157.783 49.6C158.465 49.9733 159.004 50.5067 159.399 51.2C159.793 51.8933 159.991 52.688 159.991 53.584C159.991 54.48 159.788 55.2747 159.383 55.968C158.977 56.6613 158.423 57.2 157.719 57.584C157.025 57.9573 156.257 58.144 155.415 58.144ZM155.415 56.56C155.884 56.56 156.321 56.448 156.727 56.224C157.143 56 157.479 55.664 157.735 55.216C157.991 54.768 158.119 54.224 158.119 53.584C158.119 52.944 157.996 52.4053 157.751 51.968C157.505 51.52 157.18 51.184 156.775 50.96C156.369 50.736 155.932 50.624 155.463 50.624C154.993 50.624 154.556 50.736 154.151 50.96C153.756 51.184 153.441 51.52 153.207 51.968C152.972 52.4053 152.855 52.944 152.855 53.584C152.855 54.5333 153.095 55.2693 153.575 55.792C154.065 56.304 154.679 56.56 155.415 56.56ZM169.778 49.184V58H167.954V56.96C167.666 57.3227 167.287 57.6107 166.818 57.824C166.359 58.0267 165.868 58.128 165.346 58.128C164.652 58.128 164.028 57.984 163.474 57.696C162.93 57.408 162.498 56.9813 162.178 56.416C161.868 55.8507 161.714 55.168 161.714 54.368V49.184H163.522V54.096C163.522 54.8853 163.719 55.4933 164.114 55.92C164.508 56.336 165.047 56.544 165.73 56.544C166.412 56.544 166.951 56.336 167.346 55.92C167.751 55.4933 167.954 54.8853 167.954 54.096V49.184H169.778ZM174.008 50.464C174.275 50.016 174.627 49.6693 175.064 49.424C175.512 49.168 176.04 49.04 176.648 49.04V50.928H176.184C175.47 50.928 174.926 51.1093 174.552 51.472C174.19 51.8347 174.008 52.464 174.008 53.36V58H172.184V49.184H174.008V50.464ZM181.873 52.416C181.873 51.328 182.124 50.352 182.625 49.488C183.137 48.624 183.825 47.952 184.689 47.472C185.564 46.9813 186.519 46.736 187.553 46.736C188.737 46.736 189.788 47.0293 190.705 47.616C191.633 48.192 192.305 49.0133 192.721 50.08H190.529C190.241 49.4933 189.841 49.056 189.329 48.768C188.817 48.48 188.225 48.336 187.553 48.336C186.817 48.336 186.161 48.5013 185.585 48.832C185.009 49.1627 184.556 49.6373 184.225 50.256C183.905 50.8747 183.745 51.5947 183.745 52.416C183.745 53.2373 183.905 53.9573 184.225 54.576C184.556 55.1947 185.009 55.6747 185.585 56.016C186.161 56.3467 186.817 56.512 187.553 56.512C188.225 56.512 188.817 56.368 189.329 56.08C189.841 55.792 190.241 55.3547 190.529 54.768H192.721C192.305 55.8347 191.633 56.656 190.705 57.232C189.788 57.808 188.737 58.096 187.553 58.096C186.508 58.096 185.553 57.856 184.689 57.376C183.825 56.8853 183.137 56.208 182.625 55.344C182.124 54.48 181.873 53.504 181.873 52.416ZM198.68 58.144C197.848 58.144 197.096 57.9573 196.424 57.584C195.752 57.2 195.224 56.6667 194.84 55.984C194.456 55.2907 194.264 54.4907 194.264 53.584C194.264 52.688 194.462 51.8933 194.856 51.2C195.251 50.5067 195.79 49.9733 196.472 49.6C197.155 49.2267 197.918 49.04 198.76 49.04C199.603 49.04 200.366 49.2267 201.048 49.6C201.731 49.9733 202.27 50.5067 202.664 51.2C203.059 51.8933 203.256 52.688 203.256 53.584C203.256 54.48 203.054 55.2747 202.648 55.968C202.243 56.6613 201.688 57.2 200.984 57.584C200.291 57.9573 199.523 58.144 198.68 58.144ZM198.68 56.56C199.15 56.56 199.587 56.448 199.992 56.224C200.408 56 200.744 55.664 201 55.216C201.256 54.768 201.384 54.224 201.384 53.584C201.384 52.944 201.262 52.4053 201.016 51.968C200.771 51.52 200.446 51.184 200.04 50.96C199.635 50.736 199.198 50.624 198.728 50.624C198.259 50.624 197.822 50.736 197.416 50.96C197.022 51.184 196.707 51.52 196.472 51.968C196.238 52.4053 196.12 52.944 196.12 53.584C196.12 54.5333 196.36 55.2693 196.84 55.792C197.331 56.304 197.944 56.56 198.68 56.56ZM215.731 49.04C216.425 49.04 217.043 49.184 217.587 49.472C218.142 49.76 218.574 50.1867 218.883 50.752C219.203 51.3173 219.363 52 219.363 52.8V58H217.555V53.072C217.555 52.2827 217.358 51.68 216.963 51.264C216.569 50.8373 216.03 50.624 215.347 50.624C214.665 50.624 214.121 50.8373 213.715 51.264C213.321 51.68 213.123 52.2827 213.123 53.072V58H211.315V53.072C211.315 52.2827 211.118 51.68 210.723 51.264C210.329 50.8373 209.79 50.624 209.107 50.624C208.425 50.624 207.881 50.8373 207.475 51.264C207.081 51.68 206.883 52.2827 206.883 53.072V58H205.059V49.184H206.883V50.192C207.182 49.8293 207.561 49.5467 208.019 49.344C208.478 49.1413 208.969 49.04 209.491 49.04C210.195 49.04 210.825 49.1893 211.379 49.488C211.934 49.7867 212.361 50.2187 212.659 50.784C212.926 50.2507 213.342 49.8293 213.907 49.52C214.473 49.2 215.081 49.04 215.731 49.04ZM223.508 50.48C223.818 50.0747 224.239 49.7333 224.772 49.456C225.306 49.1787 225.908 49.04 226.58 49.04C227.348 49.04 228.047 49.232 228.676 49.616C229.316 49.9893 229.818 50.5173 230.18 51.2C230.543 51.8827 230.724 52.6667 230.724 53.552C230.724 54.4373 230.543 55.232 230.18 55.936C229.818 56.6293 229.316 57.1733 228.676 57.568C228.047 57.952 227.348 58.144 226.58 58.144C225.908 58.144 225.311 58.0107 224.788 57.744C224.266 57.4667 223.839 57.1253 223.508 56.72V62.192H221.684V49.184H223.508V50.48ZM228.868 53.552C228.868 52.944 228.74 52.4213 228.484 51.984C228.239 51.536 227.908 51.2 227.492 50.976C227.087 50.7413 226.65 50.624 226.18 50.624C225.722 50.624 225.284 50.7413 224.868 50.976C224.463 51.2107 224.132 51.552 223.876 52C223.631 52.448 223.508 52.976 223.508 53.584C223.508 54.192 223.631 54.7253 223.876 55.184C224.132 55.632 224.463 55.9733 224.868 56.208C225.284 56.4427 225.722 56.56 226.18 56.56C226.65 56.56 227.087 56.4427 227.492 56.208C227.908 55.9627 228.239 55.6107 228.484 55.152C228.74 54.6933 228.868 54.16 228.868 53.552ZM231.92 53.552C231.92 52.6667 232.101 51.8827 232.464 51.2C232.837 50.5173 233.339 49.9893 233.968 49.616C234.608 49.232 235.312 49.04 236.08 49.04C236.773 49.04 237.376 49.1787 237.888 49.456C238.411 49.7227 238.827 50.0587 239.136 50.464V49.184H240.976V58H239.136V56.688C238.827 57.104 238.405 57.4507 237.872 57.728C237.339 58.0053 236.731 58.144 236.048 58.144C235.291 58.144 234.597 57.952 233.968 57.568C233.339 57.1733 232.837 56.6293 232.464 55.936C232.101 55.232 231.92 54.4373 231.92 53.552ZM239.136 53.584C239.136 52.976 239.008 52.448 238.752 52C238.507 51.552 238.181 51.2107 237.776 50.976C237.371 50.7413 236.933 50.624 236.464 50.624C235.995 50.624 235.557 50.7413 235.152 50.976C234.747 51.2 234.416 51.536 234.16 51.984C233.915 52.4213 233.792 52.944 233.792 53.552C233.792 54.16 233.915 54.6933 234.16 55.152C234.416 55.6107 234.747 55.9627 235.152 56.208C235.568 56.4427 236.005 56.56 236.464 56.56C236.933 56.56 237.371 56.4427 237.776 56.208C238.181 55.9733 238.507 55.632 238.752 55.184C239.008 54.7253 239.136 54.192 239.136 53.584ZM247.82 49.04C248.513 49.04 249.132 49.184 249.676 49.472C250.231 49.76 250.663 50.1867 250.972 50.752C251.281 51.3173 251.436 52 251.436 52.8V58H249.628V53.072C249.628 52.2827 249.431 51.68 249.036 51.264C248.641 50.8373 248.103 50.624 247.42 50.624C246.737 50.624 246.193 50.8373 245.788 51.264C245.393 51.68 245.196 52.2827 245.196 53.072V58H243.372V49.184H245.196V50.192C245.495 49.8293 245.873 49.5467 246.332 49.344C246.801 49.1413 247.297 49.04 247.82 49.04ZM261.699 49.184L256.291 62.144H254.403L256.195 57.856L252.723 49.184H254.755L257.235 55.904L259.811 49.184H261.699ZM98.648 73.04C99.3413 73.04 99.96 73.184 100.504 73.472C101.059 73.76 101.491 74.1867 101.8 74.752C102.109 75.3173 102.264 76 102.264 76.8V82H100.456V77.072C100.456 76.2827 100.259 75.68 99.864 75.264C99.4693 74.8373 98.9307 74.624 98.248 74.624C97.5653 74.624 97.0213 74.8373 96.616 75.264C96.2213 75.68 96.024 76.2827 96.024 77.072V82H94.2V73.184H96.024V74.192C96.3227 73.8293 96.7013 73.5467 97.16 73.344C97.6293 73.1413 98.1253 73.04 98.648 73.04ZM103.983 77.552C103.983 76.6667 104.164 75.8827 104.527 75.2C104.9 74.5173 105.401 73.9893 106.031 73.616C106.671 73.232 107.375 73.04 108.143 73.04C108.836 73.04 109.439 73.1787 109.951 73.456C110.473 73.7227 110.889 74.0587 111.199 74.464V73.184H113.039V82H111.199V80.688C110.889 81.104 110.468 81.4507 109.935 81.728C109.401 82.0053 108.793 82.144 108.111 82.144C107.353 82.144 106.66 81.952 106.031 81.568C105.401 81.1733 104.9 80.6293 104.527 79.936C104.164 79.232 103.983 78.4373 103.983 77.552ZM111.199 77.584C111.199 76.976 111.071 76.448 110.815 76C110.569 75.552 110.244 75.2107 109.839 74.976C109.433 74.7413 108.996 74.624 108.527 74.624C108.057 74.624 107.62 74.7413 107.215 74.976C106.809 75.2 106.479 75.536 106.223 75.984C105.977 76.4213 105.855 76.944 105.855 77.552C105.855 78.16 105.977 78.6933 106.223 79.152C106.479 79.6107 106.809 79.9627 107.215 80.208C107.631 80.4427 108.068 80.56 108.527 80.56C108.996 80.56 109.433 80.4427 109.839 80.208C110.244 79.9733 110.569 79.632 110.815 79.184C111.071 78.7253 111.199 78.192 111.199 77.584ZM126.106 73.04C126.8 73.04 127.418 73.184 127.962 73.472C128.517 73.76 128.949 74.1867 129.258 74.752C129.578 75.3173 129.738 76 129.738 76.8V82H127.93V77.072C127.93 76.2827 127.733 75.68 127.338 75.264C126.944 74.8373 126.405 74.624 125.722 74.624C125.04 74.624 124.496 74.8373 124.09 75.264C123.696 75.68 123.498 76.2827 123.498 77.072V82H121.69V77.072C121.69 76.2827 121.493 75.68 121.098 75.264C120.704 74.8373 120.165 74.624 119.482 74.624C118.8 74.624 118.256 74.8373 117.85 75.264C117.456 75.68 117.258 76.2827 117.258 77.072V82H115.434V73.184H117.258V74.192C117.557 73.8293 117.936 73.5467 118.394 73.344C118.853 73.1413 119.344 73.04 119.866 73.04C120.57 73.04 121.2 73.1893 121.754 73.488C122.309 73.7867 122.736 74.2187 123.034 74.784C123.301 74.2507 123.717 73.8293 124.282 73.52C124.848 73.2 125.456 73.04 126.106 73.04ZM140.139 77.376C140.139 77.7067 140.118 78.0053 140.075 78.272H133.339C133.393 78.976 133.654 79.5413 134.123 79.968C134.593 80.3947 135.169 80.608 135.851 80.608C136.833 80.608 137.526 80.1973 137.931 79.376H139.899C139.633 80.1867 139.147 80.8533 138.443 81.376C137.75 81.888 136.886 82.144 135.851 82.144C135.009 82.144 134.251 81.9573 133.579 81.584C132.918 81.2 132.395 80.6667 132.011 79.984C131.638 79.2907 131.451 78.4907 131.451 77.584C131.451 76.6773 131.633 75.8827 131.995 75.2C132.369 74.5067 132.886 73.9733 133.547 73.6C134.219 73.2267 134.987 73.04 135.851 73.04C136.683 73.04 137.425 73.2213 138.075 73.584C138.726 73.9467 139.233 74.4587 139.595 75.12C139.958 75.7707 140.139 76.5227 140.139 77.376ZM138.235 76.8C138.225 76.128 137.985 75.5893 137.515 75.184C137.046 74.7787 136.465 74.576 135.771 74.576C135.142 74.576 134.603 74.7787 134.155 75.184C133.707 75.5787 133.441 76.1173 133.355 76.8H138.235ZM144.222 70.88L144.014 78.64H142.494L142.286 70.88H144.222ZM143.31 82.112C142.98 82.112 142.702 82 142.478 81.776C142.254 81.552 142.142 81.2747 142.142 80.944C142.142 80.6133 142.254 80.336 142.478 80.112C142.702 79.888 142.98 79.776 143.31 79.776C143.63 79.776 143.902 79.888 144.126 80.112C144.35 80.336 144.462 80.6133 144.462 80.944C144.462 81.2747 144.35 81.552 144.126 81.776C143.902 82 143.63 82.112 143.31 82.112Z" fill="white"/>
<path d="M48.5003 50.0834C52.2743 50.0834 55.3337 47.024 55.3337 43.2501C55.3337 39.4761 52.2743 36.4167 48.5003 36.4167C44.7264 36.4167 41.667 39.4761 41.667 43.2501C41.667 47.024 44.7264 50.0834 48.5003 50.0834Z" stroke="white" stroke-width="1.5"/>
<path d="M62.1617 63.7502C62.1668 63.47 62.1668 63.1847 62.1668 62.896C62.1668 58.6508 56.0476 55.2085 48.5002 55.2085C40.9527 55.2085 34.8335 58.6508 34.8335 62.896C34.8335 67.1412 34.8335 70.5835 48.5002 70.5835C52.3115 70.5835 55.0602 70.3153 57.0418 69.837" stroke="white" stroke-width="1.5" stroke-linecap="round"/>
</svg>
