<svg width="66" height="41" viewBox="0 0 66 41" fill="none" xmlns="http://www.w3.org/2000/svg">
<rect y="0.651855" width="66" height="39.8674" rx="7" fill="#FF3636"/>
<path d="M20.989 12.5994L11 26.9059H14.2831C14.2831 26.9059 21.7574 16.0403 21.9669 15.9195C22.1765 15.7988 26.5772 22.7408 26.5772 22.7408H30L22.7353 12.5994C22.2176 12.2213 21.8287 12.2333 20.989 12.5994Z" fill="white"/>
<path d="M18 26.8456L19.3881 24.2526L33.9269 24.132L34 26.9059L18 26.8456Z" fill="white"/>
<path d="M26.9132 12.3727L33.7808 12.3203L33.8539 15.0261L28.6458 14.9597L26.9132 12.3727Z" fill="white"/>
<path d="M34.1836 26.9059C36.8113 26.888 39.3217 26.1025 41.1626 24.7222C43.0034 23.3419 44.0239 21.4799 43.9996 19.5457C43.9752 17.6116 42.908 15.7638 41.0327 14.4088C39.1575 13.0539 36.6277 12.3027 34 12.3206L34.0343 15.0446C35.6805 15.0334 37.2653 15.504 38.4401 16.3528C39.6149 17.2017 40.2835 18.3593 40.2988 19.571C40.314 20.7826 39.6747 21.9492 38.5215 22.8139C37.3682 23.6786 35.7955 24.1707 34.1493 24.182L34.1836 26.9059Z" fill="white"/>
<path d="M49.5679 26.9059C48.5117 26.9059 47.561 26.7418 46.716 26.4136C45.8711 26.0717 45.2071 25.593 44.7243 24.9776C44.2414 24.3622 44 23.6442 44 22.8236H46.7613C46.8217 23.439 47.0857 23.9451 47.5535 24.3417C48.0364 24.7383 48.7078 24.9366 49.5679 24.9366C50.4582 24.9366 51.1523 24.7451 51.6502 24.3622C52.1481 23.9656 52.3971 23.4596 52.3971 22.8441C52.3971 22.3655 52.2387 21.9757 51.9218 21.6748C51.62 21.3739 51.2353 21.1414 50.7675 20.9773C50.3148 20.8132 49.6811 20.6354 48.8663 20.444C47.8402 20.1978 47.0027 19.9516 46.3539 19.7054C45.7202 19.4456 45.177 19.049 44.7243 18.5156C44.2716 17.9822 44.0453 17.2711 44.0453 16.3821C44.0453 15.5616 44.2716 14.8436 44.7243 14.2281C45.177 13.6127 45.8107 13.1409 46.6255 12.8127C47.4403 12.4844 48.3834 12.3203 49.4547 12.3203C50.9787 12.3203 52.2236 12.6691 53.1893 13.3665C54.1701 14.0503 54.7133 14.994 54.8189 16.1975H51.9671C51.9218 15.6778 51.6502 15.2333 51.1523 14.8641C50.6543 14.4948 49.9979 14.3102 49.1831 14.3102C48.4438 14.3102 47.8402 14.4811 47.3724 14.8231C46.9047 15.165 46.6708 15.6573 46.6708 16.3001C46.6708 16.7377 46.8141 17.1001 47.1008 17.3873C47.4026 17.6609 47.7798 17.8797 48.2325 18.0438C48.6852 18.2079 49.3038 18.3857 50.0885 18.5772C51.1296 18.837 51.9746 19.0969 52.6235 19.3567C53.2874 19.6165 53.8457 20.02 54.2984 20.567C54.7661 21.1004 55 21.8184 55 22.721C55 23.4459 54.7812 24.1297 54.3436 24.7725C53.9211 25.4152 53.2949 25.9349 52.465 26.3315C51.6502 26.7145 50.6845 26.9059 49.5679 26.9059Z" fill="white"/>
</svg>
