<svg width="96" height="58" viewBox="0 0 96 58" fill="none" xmlns="http://www.w3.org/2000/svg">
<rect width="96" height="58" rx="7" fill="#FF3636"/>
<path d="M31.2463 16.4784L16 41H21.011C21.011 41 32.4191 22.376 32.739 22.1691C33.0588 21.9622 39.7757 33.8608 39.7757 33.8608H45L33.9118 16.4784C33.1217 15.8303 32.528 15.8508 31.2463 16.4784Z" fill="white"/>
<path d="M27 40.8966L28.9954 36.4521L49.895 36.2454L50 41L27 40.8966Z" fill="white"/>
<path d="M39.8128 16.0899L49.6849 16L49.79 20.6378L42.3034 20.524L39.8128 16.0899Z" fill="white"/>
<path d="M50.2387 41C53.6547 40.9693 56.9182 39.6229 59.3113 37.257C61.7044 34.8912 63.0311 31.6996 62.9994 28.3845C62.9678 25.0693 61.5804 21.9022 59.1426 19.5797C56.7047 17.2573 53.416 15.9698 50 16.0005L50.0446 20.6695C52.1846 20.6503 54.2449 21.4568 55.7722 22.9118C57.2994 24.3667 58.1686 26.3509 58.1884 28.4277C58.2082 30.5046 57.3771 32.504 55.8779 33.9862C54.3787 35.4683 52.3341 36.3118 50.1941 36.331L50.2387 41Z" fill="white"/>
<path d="M71.6049 41C69.9726 41 68.5034 40.7187 67.1975 40.1561C65.8916 39.5701 64.8656 38.7496 64.1193 37.6948C63.3731 36.6399 63 35.4093 63 34.0028H67.2675C67.3608 35.0577 67.7689 35.925 68.4918 36.6048C69.238 37.2846 70.2757 37.6245 71.6049 37.6245C72.9808 37.6245 74.0535 37.2963 74.823 36.6399C75.5926 35.9601 75.9774 35.0928 75.9774 34.038C75.9774 33.2175 75.7325 32.5495 75.2428 32.0338C74.7764 31.518 74.1818 31.1195 73.4588 30.8383C72.7593 30.557 71.7798 30.2522 70.5206 29.9241C68.9348 29.5021 67.6406 29.0802 66.6379 28.6582C65.6584 28.2128 64.8189 27.5331 64.1193 26.6188C63.4198 25.7046 63.07 24.4857 63.07 22.962C63.07 21.5556 63.4198 20.3249 64.1193 19.27C64.8189 18.2152 65.7984 17.4065 67.0576 16.8439C68.3169 16.2813 69.7743 16 71.43 16C73.7853 16 75.7092 16.5977 77.2016 17.7932C78.7174 18.9653 79.5569 20.5827 79.7202 22.6456H75.3128C75.2428 21.7548 74.823 20.993 74.0535 20.3601C73.284 19.7271 72.2695 19.4107 71.0103 19.4107C69.8676 19.4107 68.9348 19.7037 68.2119 20.2897C67.489 20.8758 67.1276 21.7196 67.1276 22.8214C67.1276 23.5715 67.3491 24.1927 67.7922 24.685C68.2586 25.1538 68.8416 25.5288 69.5412 25.8101C70.2407 26.0914 71.1968 26.3962 72.4095 26.7243C74.0185 27.1697 75.3244 27.6151 76.3272 28.0605C77.3532 28.5059 78.216 29.1974 78.9156 30.135C79.6385 31.0492 80 32.2799 80 33.827C80 35.0694 79.6619 36.2414 78.9856 37.3432C78.3326 38.4449 77.3649 39.3357 76.0823 40.0155C74.823 40.6718 73.3306 41 71.6049 41Z" fill="white"/>
</svg>
