<svg width="22" height="22" viewBox="0 0 22 22" fill="none" xmlns="http://www.w3.org/2000/svg">
<path fill-rule="evenodd" clip-rule="evenodd" d="M1.83398 4.5835C1.83398 3.85415 2.12372 3.15468 2.63944 2.63895C3.15517 2.12323 3.85464 1.8335 4.58398 1.8335H17.4173C18.1467 1.8335 18.8461 2.12323 19.3619 2.63895C19.8776 3.15468 20.1673 3.85415 20.1673 4.5835V10.5418C20.1672 10.6192 20.1574 10.6961 20.138 10.771C20.1574 10.8458 20.1672 10.9228 20.1673 11.0002V17.4168C20.1673 18.1462 19.8776 18.8456 19.3619 19.3614C18.8461 19.8771 18.1467 20.1668 17.4173 20.1668H4.58398C3.85464 20.1668 3.15517 19.8771 2.63944 19.3614C2.12372 18.8456 1.83398 18.1462 1.83398 17.4168V14.6668C1.83406 14.5895 1.84391 14.5125 1.86332 14.4377C1.84393 14.3628 1.83408 14.2858 1.83398 14.2085V4.5835ZM4.57848 13.5943C4.25948 13.5998 3.95515 13.6145 3.66732 13.6365V4.5835C3.66732 4.34038 3.7639 4.10722 3.9358 3.93532C4.10771 3.76341 4.34087 3.66683 4.58398 3.66683H17.4173C17.6604 3.66683 17.8936 3.76341 18.0655 3.93532C18.2374 4.10722 18.334 4.34038 18.334 4.5835V10.0982C14.3951 10.2256 11.5507 11.1743 9.55232 12.5026C10.3095 12.7712 11.1565 13.1534 11.987 13.6539C13.2694 14.4239 14.5729 15.5056 15.4502 16.9383C15.513 17.041 15.555 17.1551 15.5737 17.274C15.5925 17.3929 15.5877 17.5143 15.5595 17.6314C15.5313 17.7484 15.4804 17.8588 15.4095 17.9561C15.3387 18.0535 15.2494 18.1359 15.1467 18.1987C15.0441 18.2616 14.93 18.3036 14.8111 18.3223C14.6922 18.3411 14.5707 18.3363 14.4537 18.3081C14.3366 18.2799 14.2263 18.229 14.129 18.1581C14.0316 18.0873 13.9492 17.998 13.8863 17.8953C13.2117 16.7926 12.1648 15.8988 11.0428 15.2251C9.92265 14.5522 8.78323 14.1324 7.99307 13.9491C6.87997 13.6949 5.74024 13.5761 4.59865 13.5952H4.57848V13.5943ZM6.39715 5.9475C6.80572 5.65963 7.29253 5.50355 7.79232 5.50016C8.16815 5.50016 8.71173 5.60558 9.18748 5.9475C9.70998 6.32333 10.084 6.943 10.084 7.79183C10.084 8.64066 9.70998 9.25941 9.18748 9.63525C8.77902 9.92343 8.2922 10.0798 7.79232 10.0835C7.41648 10.0835 6.8729 9.97808 6.39715 9.63525C5.87465 9.25941 5.50065 8.64158 5.50065 7.79183C5.50065 6.943 5.87465 6.32425 6.39715 5.9475Z" fill="white"/>
</svg>
