<svg width="18" height="18" viewBox="0 0 18 18" fill="none" xmlns="http://www.w3.org/2000/svg">
<path d="M14.9211 4.5H3.07895C2.62113 4.5 2.25 4.87113 2.25 5.32895V12.9079C2.25 13.3657 2.62113 13.7368 3.07895 13.7368H14.9211C15.3789 13.7368 15.75 13.3657 15.75 12.9079V5.32895C15.75 4.87113 15.3789 4.5 14.9211 4.5Z" fill="white" stroke="#F3F3F3"/>
<path fill-rule="evenodd" clip-rule="evenodd" d="M7.16419 11.6977V12.0475V12.3973H7.01088V12.3123C6.96226 12.3753 6.88848 12.4148 6.7882 12.4148C6.59049 12.4148 6.4355 12.2612 6.4355 12.0475C6.4355 11.8339 6.59049 11.6801 6.7882 11.6801C6.88848 11.6801 6.96226 11.7196 7.01088 11.7826V11.6977H7.16419ZM6.80727 11.8235C6.67456 11.8235 6.59335 11.9245 6.59335 12.0475C6.59335 12.1704 6.67456 12.2714 6.80727 12.2714C6.93407 12.2714 7.01967 12.1748 7.01967 12.0475C7.01967 11.9202 6.93407 11.8235 6.80727 11.8235ZM12.3448 12.0475C12.3448 11.9245 12.4261 11.8235 12.5588 11.8235C12.6857 11.8235 12.7712 11.9202 12.7712 12.0475C12.7712 12.1748 12.6857 12.2714 12.5588 12.2714C12.4261 12.2714 12.3448 12.1704 12.3448 12.0475ZM12.9159 11.4167V12.0475V12.3973H12.7624V12.3123C12.7138 12.3753 12.64 12.4148 12.5397 12.4148C12.342 12.4148 12.187 12.2612 12.187 12.0475C12.187 11.8339 12.342 11.6801 12.5397 11.6801C12.64 11.6801 12.7138 11.7196 12.7624 11.7826V11.4167H12.9159ZM9.06719 11.8163C9.16595 11.8163 9.22943 11.8778 9.24565 11.986H8.87978C8.89614 11.885 8.95794 11.8163 9.06719 11.8163ZM8.71903 12.0475C8.71903 11.8294 8.86355 11.6801 9.07022 11.6801C9.26777 11.6801 9.40351 11.8294 9.40502 12.0475C9.40502 12.0679 9.40351 12.087 9.40199 12.1059H8.87843C8.90055 12.2319 8.99052 12.2773 9.08929 12.2773C9.16003 12.2773 9.23535 12.2508 9.29444 12.2041L9.36957 12.3168C9.28397 12.3885 9.18672 12.4148 9.08052 12.4148C8.86947 12.4148 8.71903 12.2699 8.71903 12.0475ZM10.9214 12.0475C10.9214 11.9245 11.0026 11.8235 11.1353 11.8235C11.2621 11.8235 11.3477 11.9202 11.3477 12.0475C11.3477 12.1748 11.2621 12.2714 11.1353 12.2714C11.0026 12.2714 10.9214 12.1704 10.9214 12.0475ZM11.4922 11.6977V12.0475V12.3973H11.3389V12.3123C11.2901 12.3753 11.2165 12.4148 11.1162 12.4148C10.9185 12.4148 10.7635 12.2612 10.7635 12.0475C10.7635 11.8339 10.9185 11.6801 11.1162 11.6801C11.2165 11.6801 11.2901 11.7196 11.3389 11.7826V11.6977H11.4922ZM10.0556 12.0475C10.0556 12.2597 10.2045 12.4148 10.4317 12.4148C10.5379 12.4148 10.6087 12.3914 10.6853 12.3314L10.6117 12.2085C10.5542 12.2495 10.4937 12.2714 10.4272 12.2714C10.3048 12.2699 10.2148 12.1822 10.2148 12.0475C10.2148 11.9128 10.3048 11.825 10.4272 11.8235C10.4937 11.8235 10.5542 11.8454 10.6117 11.8865L10.6853 11.7635C10.6087 11.7035 10.5379 11.6801 10.4317 11.6801C10.2045 11.6801 10.0556 11.8352 10.0556 12.0475ZM11.8463 11.7826C11.8861 11.7211 11.9437 11.6801 12.0322 11.6801C12.0632 11.6801 12.1075 11.686 12.1414 11.6992L12.0941 11.8426C12.0617 11.8294 12.0293 11.825 11.9982 11.825C11.8979 11.825 11.8478 11.8893 11.8478 12.0051V12.3973H11.6943V11.6977H11.8463V11.7826ZM7.92246 11.7533C7.84866 11.7051 7.74703 11.6801 7.63491 11.6801C7.45629 11.6801 7.3413 11.765 7.3413 11.9041C7.3413 12.0182 7.42692 12.0885 7.58461 12.1105L7.65703 12.1207C7.74111 12.1324 7.78081 12.1543 7.78081 12.1939C7.78081 12.248 7.72475 12.2788 7.62006 12.2788C7.51386 12.2788 7.43722 12.2452 7.38554 12.2056L7.31328 12.324C7.39736 12.3855 7.50356 12.4148 7.61855 12.4148C7.82216 12.4148 7.94018 12.3197 7.94018 12.1865C7.94018 12.0635 7.84731 11.9992 7.69384 11.9773L7.62158 11.9669C7.55524 11.9582 7.50204 11.9451 7.50204 11.8982C7.50204 11.8469 7.55218 11.8163 7.63626 11.8163C7.72626 11.8163 7.81337 11.85 7.8561 11.8763L7.92246 11.7533ZM9.71486 11.7826C9.75453 11.7211 9.81211 11.6801 9.90057 11.6801C9.93164 11.6801 9.97588 11.686 10.0098 11.6992L9.96252 11.8426C9.93012 11.8294 9.8977 11.825 9.86663 11.825C9.76635 11.825 9.71621 11.8893 9.71621 12.0051V12.3973H9.5629V11.6977H9.71486V11.7826ZM8.59223 11.6977H8.34151V11.4854H8.18652V11.6977H8.04351V11.8367H8.18652V12.1559C8.18652 12.3182 8.24999 12.4148 8.43134 12.4148C8.49785 12.4148 8.57451 12.3944 8.62314 12.3607L8.57889 12.2304C8.53314 12.2567 8.483 12.2699 8.44316 12.2699C8.36649 12.2699 8.34151 12.223 8.34151 12.1528V11.8367H8.59223V11.6977ZM6.2999 11.9582V12.3973H6.14491V12.0079C6.14491 11.8893 6.09478 11.8235 5.99009 11.8235C5.88827 11.8235 5.81753 11.888 5.81753 12.0094V12.3973H5.66254V12.0079C5.66254 11.8893 5.61105 11.8235 5.50923 11.8235C5.40438 11.8235 5.33653 11.888 5.33653 12.0094V12.3973H5.1817V11.6977H5.33518V11.7839C5.39275 11.702 5.46636 11.6801 5.54165 11.6801C5.64937 11.6801 5.72604 11.727 5.77466 11.8046C5.83965 11.7064 5.93251 11.6786 6.02251 11.6801C6.1937 11.6816 6.2999 11.7928 6.2999 11.9582Z" fill="#231F20"/>
<path d="M10.1952 10.509H7.87164V6.36584H10.1952V10.509Z" fill="#FF5F00"/>
<path d="M8.01904 8.43768C8.01904 7.59722 8.41564 6.84856 9.03325 6.36611C8.58162 6.01331 8.01161 5.80273 7.39215 5.80273C5.92562 5.80273 4.73682 6.98243 4.73682 8.43768C4.73682 9.89293 5.92562 11.0726 7.39215 11.0726C8.01161 11.0726 8.58162 10.862 9.03325 10.5092C8.41564 10.0268 8.01904 9.27814 8.01904 8.43768Z" fill="#EB001B"/>
<path d="M13.3299 8.43768C13.3299 9.89293 12.1411 11.0726 10.6746 11.0726C10.0551 11.0726 9.48509 10.862 9.03326 10.5092C9.65104 10.0268 10.0477 9.27814 10.0477 8.43768C10.0477 7.59722 9.65104 6.84856 9.03326 6.36611C9.48509 6.01331 10.0551 5.80273 10.6746 5.80273C12.1411 5.80273 13.3299 6.98243 13.3299 8.43768Z" fill="#F79E1B"/>
</svg>
