<svg width="48" height="48" viewBox="0 0 48 48" fill="none" xmlns="http://www.w3.org/2000/svg">
<circle cx="24" cy="24" r="24" fill="#212121"/>
<path d="M24 22C26.2091 22 28 20.2091 28 18C28 15.7909 26.2091 14 24 14C21.7909 14 20 15.7909 20 18C20 20.2091 21.7909 22 24 22Z" stroke="white" stroke-width="1.5"/>
<path d="M31.997 30C32 29.836 32 29.669 32 29.5C32 27.015 28.418 25 24 25C19.582 25 16 27.015 16 29.5C16 31.985 16 34 24 34C26.231 34 27.84 33.843 29 33.563" stroke="white" stroke-width="1.5" stroke-linecap="round"/>
</svg>
