<svg width="521" height="550" viewBox="0 0 521 550" fill="none" xmlns="http://www.w3.org/2000/svg">
<path d="M309.511 314.92C309.606 315.006 309.696 315.096 309.782 315.191L310.556 315.992L313.541 319.153L324.803 331.216L364.709 374.243H364.247L409.513 322.396L409.825 322.043L410.083 322.437L413.38 327.403L447.628 378.965L447.153 378.883L480.071 352.587L480.261 352.437L480.424 352.614L505.553 381.108L512.338 388.883L514.101 390.919C514.495 391.38 514.685 391.624 514.685 391.624C514.685 391.624 514.454 391.407 514.047 390.973L512.256 388.883L505.336 381.203L480.044 352.912H480.396L447.56 379.385L447.289 379.602L447.085 379.304L412.797 327.824L409.486 322.844H410.042C393.57 341.705 378.074 359.412 364.722 374.69L364.492 374.948L364.261 374.69C347.87 356.861 334.152 341.962 324.531 331.487L313.405 319.275L310.488 316.046C310.176 315.68 309.931 315.408 309.741 315.205C309.551 315.001 309.497 314.933 309.511 314.92Z" fill="#E6E6E6"/>
<path d="M360.028 374.596C360.019 375.538 360.292 376.462 360.811 377.249C361.33 378.036 362.071 378.651 362.94 379.016C363.81 379.38 364.768 379.478 365.693 379.296C366.618 379.114 367.468 378.661 368.135 377.994C368.801 377.328 369.254 376.478 369.436 375.553C369.618 374.628 369.521 373.669 369.156 372.8C368.792 371.931 368.177 371.189 367.39 370.671C366.602 370.152 365.679 369.879 364.736 369.887C363.489 369.894 362.296 370.393 361.414 371.274C360.533 372.156 360.035 373.349 360.028 374.596Z" fill="#E0E0E0"/>
<path d="M443.164 380.253C443.17 381.193 443.454 382.11 443.981 382.888C444.508 383.666 445.254 384.271 446.124 384.625C446.995 384.979 447.951 385.067 448.871 384.877C449.792 384.687 450.635 384.229 451.295 383.56C451.955 382.89 452.401 382.04 452.578 381.117C452.754 380.194 452.653 379.239 452.286 378.374C451.92 377.508 451.305 376.771 450.519 376.255C449.733 375.74 448.812 375.469 447.873 375.477C446.615 375.487 445.414 375.996 444.531 376.892C443.649 377.787 443.157 378.996 443.164 380.253Z" fill="#E0E0E0"/>
<path d="M475.498 354.107C475.506 355.043 475.792 355.956 476.319 356.73C476.846 357.505 477.591 358.105 478.459 358.456C479.327 358.807 480.28 358.893 481.197 358.702C482.114 358.512 482.954 358.053 483.611 357.385C484.267 356.717 484.711 355.87 484.886 354.95C485.061 354.03 484.959 353.078 484.593 352.216C484.227 351.354 483.614 350.62 482.831 350.106C482.047 349.592 481.129 349.322 480.193 349.33C478.938 349.345 477.74 349.855 476.86 350.75C475.981 351.645 475.491 352.852 475.498 354.107Z" fill="#E0E0E0"/>
<path d="M405.034 323.033C405.04 323.973 405.324 324.89 405.851 325.668C406.378 326.446 407.124 327.051 407.994 327.405C408.865 327.759 409.821 327.846 410.741 327.657C411.662 327.467 412.506 327.009 413.165 326.339C413.825 325.67 414.272 324.82 414.448 323.897C414.624 322.974 414.523 322.019 414.156 321.154C413.79 320.288 413.175 319.551 412.389 319.035C411.604 318.519 410.682 318.248 409.743 318.256C408.485 318.267 407.284 318.776 406.401 319.671C405.519 320.567 405.027 321.775 405.034 323.033Z" fill="#E0E0E0"/>
<path d="M510.938 391.759C510.943 392.699 511.227 393.616 511.754 394.394C512.281 395.172 513.027 395.777 513.898 396.131C514.768 396.485 515.724 396.573 516.645 396.383C517.565 396.193 518.409 395.735 519.069 395.066C519.728 394.396 520.175 393.546 520.351 392.623C520.528 391.7 520.426 390.745 520.06 389.88C519.693 389.014 519.078 388.277 518.293 387.761C517.507 387.246 516.586 386.975 515.646 386.983C514.389 386.993 513.187 387.502 512.305 388.398C511.422 389.293 510.93 390.502 510.938 391.759Z" fill="#E0E0E0"/>
<path d="M94.9989 32.4312H64.5098V153.696H94.9989V32.4312Z" fill="#E6E6E6"/>
<path d="M139.847 58.8759H109.357V153.681H139.847V58.8759Z" fill="#E6E6E6"/>
<path d="M185.383 80.5315H154.894V153.681H185.383V80.5315Z" fill="#E6E6E6"/>
<path d="M227.539 110.247H197.05V153.694H227.539V110.247Z" fill="#E6E6E6"/>
<path d="M203.129 2.17236C203.129 2.17236 202.844 2.53872 202.288 3.19002L199.751 6.10732L190.103 17.0981L155.313 56.4476L155.123 56.6512L154.906 56.4883L132.205 39.0931H132.667L100.915 79.3382L100.536 79.8267L100.305 80.1252L100.02 79.8674L57.2646 42.1054H57.7395C40.9549 64.1412 26.7347 82.9611 16.5581 96.2721L4.71255 111.754L1.55102 115.825L0.72332 116.87C0.630938 116.993 0.531253 117.111 0.424805 117.222C0.501882 117.09 0.588026 116.963 0.682616 116.842L1.4696 115.757L4.54973 111.591L16.2325 96.0007L57.2103 41.6441L57.4274 41.3591L57.6852 41.5898L100.495 79.2568H99.9792L100.359 78.7683L132.151 38.5504L132.354 38.2926L132.612 38.4961L155.272 55.8778H154.865L189.832 16.8403C194.052 12.159 197.363 8.48187 199.629 5.9852L202.22 3.13575C202.817 2.45731 203.129 2.17236 203.129 2.17236Z" fill="#E6E6E6"/>
<path d="M198.095 30.2992C198.085 30.0933 198.107 29.887 198.163 29.6886L198.503 27.9518C198.855 26.3371 199.33 24.1932 199.859 21.5744C201.067 16.1469 202.777 8.73832 204.744 0.434202L205.178 0.841265L203.645 1.31617C195.137 3.93495 187.43 6.25522 181.84 7.91062L175.205 9.82382L173.387 10.3123C173.178 10.3901 172.958 10.4314 172.735 10.4344C172.93 10.3287 173.134 10.2423 173.346 10.1766L175.123 9.56602L181.691 7.43571C187.24 5.6582 194.934 3.25652 203.401 0.651303L204.934 0.189963L205.531 0L205.382 0.610593C203.496 8.95542 201.773 16.3369 200.416 21.6965C199.751 24.2882 199.208 26.4185 198.815 28.0196C198.625 28.6845 198.462 29.2544 198.34 29.7157C198.287 29.9211 198.205 30.1177 198.095 30.2992Z" fill="#E6E6E6"/>
<path d="M438.618 207.21C444.677 207.112 450.629 208.812 455.721 212.096C460.813 215.38 464.818 220.1 467.227 225.66C469.637 231.219 470.344 237.368 469.26 243.33C468.175 249.291 465.347 254.797 461.133 259.151C456.919 263.506 451.509 266.513 445.586 267.792C439.663 269.072 433.494 268.566 427.859 266.34C422.223 264.114 417.374 260.266 413.925 255.284C410.476 250.302 408.582 244.409 408.482 238.351C408.359 230.228 411.462 222.387 417.112 216.55C422.761 210.712 430.496 207.353 438.618 207.21ZM439.351 252.503C442.248 252.449 445.063 251.538 447.442 249.884C449.821 248.231 451.656 245.909 452.716 243.213C453.776 240.517 454.013 237.567 453.397 234.736C452.781 231.906 451.34 229.321 449.256 227.309C447.172 225.296 444.538 223.947 441.688 223.431C438.837 222.915 435.897 223.256 433.24 224.41C430.583 225.564 428.327 227.48 426.758 229.915C425.189 232.351 424.378 235.196 424.425 238.093C424.459 240.019 424.872 241.92 425.64 243.687C426.408 245.454 427.517 247.052 428.903 248.39C430.289 249.728 431.925 250.78 433.718 251.486C435.511 252.192 437.425 252.537 439.351 252.503Z" fill="#E0E0E0"/>
<path d="M438.561 203.398C447.698 203.267 456.514 206.765 463.076 213.123C469.638 219.482 473.412 228.184 473.569 237.32L452.673 237.863C452.537 228.785 446.39 225.094 439.104 224.633C437.313 224.526 435.52 224.791 433.837 225.41C432.153 226.03 430.617 226.992 429.323 228.234C428.029 229.477 427.007 230.974 426.32 232.631C425.633 234.288 425.296 236.069 425.331 237.863L404.653 238.419C404.511 229.28 408.003 220.459 414.36 213.892C420.718 207.326 429.422 203.551 438.561 203.398Z" fill="#F0F0F0"/>
<path d="M190.524 342.22C201.073 331.151 215.544 324.666 230.825 324.158C246.107 323.651 260.976 329.162 272.236 339.506C277.767 344.604 282.231 350.748 285.369 357.584C288.508 364.42 290.259 371.81 290.52 379.327C290.781 386.845 289.548 394.339 286.891 401.376C284.235 408.413 280.208 414.853 275.045 420.322C264.496 431.39 250.025 437.876 234.744 438.384C219.462 438.891 204.592 433.38 193.333 423.036C187.802 417.938 183.338 411.793 180.199 404.958C177.061 398.122 175.31 390.732 175.049 383.214C174.788 375.697 176.021 368.203 178.677 361.166C181.334 354.129 185.361 347.689 190.524 342.22ZM252.941 399.942C255.416 397.328 257.347 394.248 258.621 390.88C259.894 387.513 260.485 383.926 260.359 380.329C260.232 376.731 259.391 373.194 257.885 369.925C256.379 366.655 254.237 363.718 251.584 361.284C246.195 356.344 239.081 353.718 231.774 353.972C224.468 354.225 217.553 357.339 212.519 362.641C210.044 365.255 208.113 368.335 206.84 371.702C205.566 375.069 204.975 378.656 205.102 382.254C205.228 385.852 206.069 389.388 207.575 392.658C209.082 395.928 211.224 398.865 213.876 401.298C219.265 406.25 226.386 408.884 233.7 408.63C241.014 408.376 247.935 405.255 252.968 399.942H252.941Z" fill="#F5F5F5"/>
<path d="M190.527 342.22C201.075 331.151 215.547 324.666 230.828 324.158C246.11 323.651 260.979 329.162 272.239 339.506L251.641 361.325C246.252 356.385 239.138 353.759 231.831 354.012C224.525 354.266 217.61 357.379 212.577 362.682C210.101 365.295 208.17 368.376 206.897 371.743C205.623 375.11 205.033 378.697 205.159 382.295C205.285 385.892 206.126 389.429 207.632 392.699C209.139 395.968 211.281 398.905 213.934 401.339L193.309 423.076C187.774 417.976 183.307 411.828 180.167 404.988C177.027 398.147 175.277 390.752 175.018 383.23C174.759 375.707 175.997 368.209 178.659 361.169C181.322 354.129 185.356 347.688 190.527 342.22Z" fill="#E0E0E0"/>
<path d="M269.873 330.13C298.368 356.495 301.828 399.331 275.165 427.609L246.223 402.656C258.964 389.155 261.732 371.122 248.095 358.516L269.873 330.13Z" fill="#EBEBEB"/>
<path d="M243.208 404.446L260.4 438.449C267.508 435.843 273.914 431.621 279.111 426.115L248.228 401.175L243.208 404.446Z" fill="#E0E0E0"/>
<path d="M308.067 90.573C307.817 75.3314 312.092 60.3579 320.353 47.5467C328.614 34.7356 340.49 24.6625 354.477 18.6018C368.464 12.541 383.934 10.765 398.931 13.4983C413.928 16.2316 427.777 23.3515 438.726 33.9572C449.675 44.5629 457.233 58.1779 460.443 73.0798C463.653 87.9816 462.372 103.501 456.76 117.674C451.148 131.847 441.459 144.038 428.918 152.703C416.376 161.368 401.547 166.119 386.305 166.355C365.891 166.645 346.194 158.833 331.529 144.628C316.864 130.424 308.428 110.986 308.067 90.573ZM421.95 88.7412C421.831 81.4565 419.555 74.3706 415.409 68.3795C411.263 62.3885 405.434 57.7613 398.658 55.083C391.882 52.4048 384.465 51.7958 377.343 53.333C370.221 54.8702 363.715 58.4846 358.648 63.7192C353.58 68.9538 350.178 75.5735 348.873 82.7412C347.567 89.909 348.416 97.303 351.313 103.988C354.209 110.674 359.023 116.35 365.145 120.299C371.267 124.249 378.423 126.295 385.708 126.178C395.475 126.01 404.777 121.974 411.572 114.955C418.366 107.937 422.099 98.5089 421.95 88.7412Z" fill="#FAFAFA"/>
<path d="M308.07 90.573C307.762 70.1452 315.571 50.4296 329.784 35.7537C343.997 21.0778 363.452 12.6408 383.879 12.2944L384.531 52.4988C374.76 52.6554 365.452 56.6868 358.654 63.7062C351.856 70.7256 348.125 80.158 348.282 89.9284C348.438 99.6988 352.47 109.007 359.489 115.805C366.508 122.603 375.941 126.334 385.711 126.178L386.308 166.355C365.892 166.652 346.191 158.842 331.525 144.636C316.858 130.43 308.424 110.988 308.07 90.573Z" fill="#E0E0E0"/>
<path d="M376.959 6.10604C426.662 5.30548 466.323 43.7052 467.11 93.4078L420.067 94.1677C419.687 70.3951 401.519 55.4287 377.76 55.8222L376.959 6.10604Z" fill="#F0F0F0"/>
<path d="M467.722 548.899C467.722 549.089 366.268 549.252 241.123 549.252C115.978 549.252 14.5234 549.089 14.5234 548.899C14.5234 548.709 115.95 548.533 241.123 548.533C366.295 548.533 467.722 548.696 467.722 548.899Z" fill="#263238"/>
<path d="M153.562 360.753L404.993 358.949V362.477L153.562 364.729V360.753Z" fill="#263238"/>
<path d="M148.08 105.131L153.806 362.857L404.992 360.903V100.802L148.08 105.131Z" fill="white"/>
<path d="M148.082 105.132L404.994 100.505H405.306V100.817C405.306 175.269 405.306 263.127 405.306 356.86V361.27H404.953L153.767 363.184H153.469V362.885C150.226 208.418 148.109 107.791 148.041 105.145C148.041 107.751 150.456 208.418 154.066 362.858L153.767 362.559L404.953 360.565L404.6 360.918V356.847C404.6 263.113 404.6 175.255 404.6 100.803L404.912 101.115L148.082 105.132Z" fill="#263238"/>
<path d="M147.077 106.853L406.092 105.374L406.418 94.5059L147.077 96.1205V106.853Z" fill="#263238"/>
<path d="M271.07 369.885C270.636 369.885 270.175 367.864 270.053 365.34C269.931 362.816 270.202 360.754 270.636 360.726C271.07 360.699 271.532 362.735 271.654 365.258C271.776 367.782 271.518 369.885 271.07 369.885Z" fill="#263238"/>
<path d="M270.971 368.027C270.971 367.932 271.405 367.905 272.083 368.177C272.493 368.349 272.876 368.577 273.223 368.855C273.69 369.23 274.081 369.691 274.376 370.212C274.779 370.933 274.981 371.749 274.962 372.574C274.943 373.4 274.703 374.205 274.268 374.907C274.007 375.33 273.676 375.706 273.291 376.019C272.888 376.343 272.428 376.587 271.934 376.739C270.885 377.028 269.768 376.947 268.772 376.508C268.269 376.284 267.809 375.971 267.415 375.585C267.024 375.199 266.715 374.737 266.506 374.228C266.131 373.303 266.05 372.284 266.276 371.311C266.443 370.5 266.834 369.752 267.405 369.152C267.975 368.553 268.703 368.125 269.505 367.919C270.531 367.638 271.624 367.735 272.585 368.19C273.237 368.516 273.481 368.855 273.426 368.936C273.372 369.018 273.006 368.936 272.382 368.774C271.532 368.615 270.655 368.69 269.844 368.991C269.322 369.194 268.857 369.52 268.487 369.941C268.064 370.437 267.787 371.041 267.689 371.686C267.591 372.331 267.675 372.991 267.931 373.591C268.227 374.235 268.755 374.744 269.41 375.015C270.062 375.307 270.794 375.369 271.486 375.192C272.123 375.027 272.674 374.63 273.033 374.079C273.387 373.559 273.597 372.956 273.644 372.329C273.685 372.045 273.685 371.757 273.644 371.474C273.599 371.207 273.522 370.948 273.413 370.7C273.065 369.902 272.518 369.206 271.825 368.679C271.323 368.326 270.971 368.136 270.971 368.027Z" fill="#263238"/>
<path d="M308.344 246.165C308.344 246.165 308.344 246.165 308.181 246.165H307.719L305.928 246.247L299.022 246.545L273.621 247.495C252.169 248.282 222.521 249.327 189.793 250.453L178.531 250.833H178.273V250.575C175.993 220.629 173.931 193.789 172.506 174.495C171.801 164.861 171.244 157.113 170.851 151.78C170.674 149.067 170.525 147.045 170.43 145.647C170.43 144.942 170.349 144.413 170.335 144.046C170.322 143.68 170.335 143.734 170.335 143.639C170.335 143.544 170.335 143.503 170.335 143.503C170.341 143.548 170.341 143.594 170.335 143.639C170.335 143.734 170.335 143.87 170.335 144.046C170.335 144.223 170.417 144.942 170.484 145.634C170.593 146.991 170.769 149.094 171 151.767C171.421 157.099 172.045 164.847 172.818 174.454C174.338 193.694 176.428 220.466 178.734 250.534L178.463 250.29L189.725 249.897C222.453 248.784 252.142 247.793 273.553 247.115L298.968 246.328L305.874 246.138H307.665H308.289L308.344 246.165Z" fill="#455A64"/>
<path d="M217.391 135.158V138.618L253.185 136.908V134.005L217.391 135.158Z" fill="#263238"/>
<path d="M190.291 243.208H202.733L200.779 209.435H188.581L190.291 243.208Z" fill="#1A377D"/>
<path d="M212.844 243.221H225.273L223.333 196.015H211.135L212.844 243.221Z" fill="#1A377D"/>
<path d="M233.959 241.714H246.401L244.447 179.908H232.263L233.959 241.714Z" fill="#1A377D"/>
<path d="M282.397 239.313H294.826L292.886 155.078H280.688L282.397 239.313Z" fill="#1A377D"/>
<path d="M258.828 239.598H271.257L269.303 167.113H257.118L258.828 239.598Z" fill="#1A377D"/>
<path d="M182.474 200.683C182.149 200.181 204.374 185.364 232.095 167.589C259.817 149.814 282.585 135.811 282.911 136.38C283.236 136.95 261.011 151.7 233.276 169.475C205.541 187.25 182.773 201.185 182.474 200.683Z" fill="#1A377D"/>
<path d="M270.609 136.326C270.5 135.729 278.546 133.721 288.614 131.821L291.165 131.347L289.713 133.504L289.632 133.626C283.879 142.174 278.777 148.837 278.302 148.552C277.827 148.267 282.074 141.021 287.8 132.459L287.882 132.337L288.994 134.02C278.94 135.851 270.717 136.91 270.609 136.326Z" fill="#1A377D"/>
<path d="M188.581 254.618H201.58L201.987 256.925H188.581V254.618Z" fill="#263238"/>
<path d="M211.598 253.668H224.597L225.004 255.975H211.598V253.668Z" fill="#263238"/>
<path d="M235.285 252.991H248.284L248.691 255.297H235.285V252.991Z" fill="#263238"/>
<path d="M257.483 252.434H270.482L270.889 254.754H257.483V252.434Z" fill="#263238"/>
<path d="M284.991 251.62H297.99L298.397 253.94H284.991V251.62Z" fill="#263238"/>
<path d="M343.296 343.59C366.212 343.59 384.79 325.013 384.79 302.097C384.79 279.181 366.212 260.603 343.296 260.603C320.38 260.603 301.803 279.181 301.803 302.097C301.803 325.013 320.38 343.59 343.296 343.59Z" fill="#1A377D"/>
<path opacity="0.3" d="M343.296 343.59C366.212 343.59 384.79 325.013 384.79 302.097C384.79 279.181 366.212 260.603 343.296 260.603C320.38 260.603 301.803 279.181 301.803 302.097C301.803 325.013 320.38 343.59 343.296 343.59Z" fill="black"/>
<path d="M343.295 302.041L302.819 311.146C296.306 281.294 320.377 260.547 343.295 260.547" fill="#1A377D"/>
<path d="M343.349 302.041L343.077 260.547C373.634 260.547 388.777 288.486 383.892 310.874L343.349 302.041Z" fill="#1A377D"/>
<path d="M343.349 302.041L343.077 260.547C373.634 260.547 388.777 288.486 383.892 310.874L343.349 302.041Z" fill="#1A377D"/>
<path opacity="0.1" d="M343.349 302.041L343.077 260.547C373.634 260.547 388.777 288.486 383.892 310.874L343.349 302.041Z" fill="black"/>
<path d="M385.86 203.844C385.054 203.305 384.194 202.851 383.295 202.487C380.789 201.721 378.101 201.797 375.643 202.704C372.467 203.695 369.319 206.219 366.267 209.38C363.214 212.542 359.943 216.368 355.167 218.607C352.863 219.752 350.269 220.182 347.718 219.842C345.417 219.364 343.193 218.57 341.11 217.481C339.276 216.526 337.316 215.836 335.289 215.432C333.525 215.155 331.72 215.381 330.078 216.083C327.663 217.108 325.688 218.954 324.502 221.294C324.12 222.173 323.807 223.08 323.565 224.007C323.608 223.026 323.843 222.062 324.257 221.172C325.394 218.701 327.39 216.728 329.875 215.622C331.577 214.864 333.457 214.596 335.302 214.849C337.397 215.237 339.426 215.923 341.327 216.884C343.356 217.936 345.52 218.703 347.759 219.163C350.172 219.464 352.621 219.049 354.801 217.969C359.387 215.825 362.603 212.026 365.737 208.919C368.872 205.812 372.115 203.193 375.412 202.23C377.973 201.336 380.761 201.336 383.322 202.23C384.006 202.493 384.65 202.849 385.236 203.288C385.466 203.447 385.676 203.634 385.86 203.844Z" fill="#263238"/>
<path d="M389.374 230.657C389.374 230.86 374.638 231.009 356.47 231.009C338.301 231.009 323.565 230.86 323.565 230.657C323.565 230.453 338.301 230.304 356.47 230.304C374.638 230.304 389.374 230.467 389.374 230.657Z" fill="#263238"/>
<path d="M385.712 230.657C385.522 230.657 385.359 222.272 385.359 211.919C385.359 201.566 385.522 193.194 385.712 193.194C385.902 193.194 386.065 201.579 386.065 211.919C386.065 222.258 385.916 230.657 385.712 230.657Z" fill="#263238"/>
<path d="M330.197 214.876C330.197 214.876 330.102 214.74 330.197 214.496C330.26 214.324 330.359 214.169 330.488 214.04C330.617 213.911 330.772 213.812 330.944 213.749C331.202 213.635 331.486 213.594 331.766 213.63C332.045 213.666 332.31 213.778 332.531 213.953C332.77 214.221 332.911 214.563 332.931 214.922C332.951 215.28 332.849 215.635 332.641 215.928C332.433 216.221 332.132 216.435 331.786 216.535C331.441 216.635 331.072 216.614 330.74 216.477C330.506 216.337 330.314 216.138 330.183 215.9C330.052 215.661 329.986 215.392 329.994 215.12C329.991 214.939 330.024 214.76 330.092 214.592C330.159 214.424 330.26 214.271 330.387 214.143C330.591 213.98 330.74 213.98 330.754 214.007C330.767 214.034 330.387 214.401 330.482 215.093C330.501 215.271 330.561 215.442 330.658 215.593C330.754 215.743 330.885 215.87 331.038 215.961C331.229 216.009 331.429 215.999 331.614 215.931C331.798 215.864 331.958 215.742 332.072 215.582C332.186 215.423 332.249 215.232 332.254 215.036C332.258 214.84 332.204 214.647 332.097 214.482C331.961 214.37 331.799 214.294 331.627 214.258C331.454 214.223 331.276 214.23 331.106 214.279C330.414 214.387 330.292 214.903 330.197 214.876Z" fill="#263238"/>
<path d="M374.571 201.267C374.571 201.267 374.571 201.105 374.815 200.969C375.131 200.81 375.496 200.781 375.833 200.888C376.101 200.96 376.344 201.105 376.535 201.306C376.726 201.507 376.859 201.756 376.919 202.027C376.939 202.377 376.842 202.724 376.642 203.012C376.441 203.299 376.15 203.511 375.814 203.613C375.479 203.715 375.119 203.701 374.793 203.573C374.466 203.446 374.192 203.212 374.015 202.909C373.917 202.648 373.892 202.365 373.942 202.09C373.992 201.815 374.116 201.559 374.3 201.349C374.529 201.078 374.855 200.907 375.209 200.874C375.453 200.874 375.575 200.955 375.562 200.996C375.548 201.037 375.046 201.064 374.707 201.647C374.613 201.793 374.554 201.958 374.536 202.13C374.517 202.302 374.538 202.476 374.598 202.638C374.718 202.784 374.878 202.892 375.059 202.947C375.239 203.002 375.432 203.002 375.613 202.946C375.794 202.891 375.954 202.783 376.073 202.636C376.192 202.489 376.264 202.311 376.281 202.122C376.245 201.953 376.17 201.795 376.061 201.661C375.953 201.527 375.814 201.42 375.657 201.349C375.06 201.05 374.639 201.362 374.571 201.267Z" fill="#263238"/>
<path d="M384.544 156.855C384.544 157.045 370.27 157.208 352.671 157.208C335.072 157.208 320.798 157.045 320.798 156.855C320.798 156.665 335.059 156.502 352.671 156.502C370.283 156.502 384.544 156.692 384.544 156.855Z" fill="#263238"/>
<path d="M384.544 165.742C384.544 165.946 370.27 166.095 352.671 166.095C335.072 166.095 320.798 165.946 320.798 165.742C320.798 165.539 335.059 165.39 352.671 165.39C370.283 165.39 384.544 165.552 384.544 165.742Z" fill="#263238"/>
<path d="M384.544 174.604C384.544 174.794 370.27 174.957 352.671 174.957C335.072 174.957 320.798 174.794 320.798 174.604C320.798 174.414 335.059 174.251 352.671 174.251C370.283 174.251 384.544 174.4 384.544 174.604Z" fill="#263238"/>
<path d="M384.544 183.449C384.544 183.653 370.27 183.802 352.671 183.802C335.072 183.802 320.798 183.653 320.798 183.449C320.798 183.246 335.059 183.097 352.671 183.097C370.283 183.097 384.544 183.26 384.544 183.449Z" fill="#263238"/>
<path d="M354.72 140.695H320.798V143.558H354.72V140.695Z" fill="#263238"/>
<path d="M214.69 282.842H180.768V285.705H214.69V282.842Z" fill="#263238"/>
<path d="M273.594 299.437C273.594 299.64 253.01 299.789 227.622 299.789C202.235 299.789 181.638 299.64 181.638 299.437C181.638 299.233 202.222 299.084 227.622 299.084C253.023 299.084 273.594 299.247 273.594 299.437Z" fill="#263238"/>
<path d="M274.135 307.47C274.135 307.66 253.185 307.823 227.35 307.823C201.515 307.823 180.564 307.66 180.564 307.47C180.564 307.28 201.501 307.117 227.35 307.117C253.198 307.117 274.135 307.307 274.135 307.47Z" fill="#263238"/>
<path d="M275.206 315.041C275.206 315.231 254.134 315.394 228.149 315.394C202.165 315.394 181.093 315.231 181.093 315.041C181.093 314.851 202.165 314.689 228.149 314.689C254.134 314.689 275.206 314.838 275.206 315.041Z" fill="#263238"/>
<path d="M230.038 323.1C230.038 323.29 219.183 323.453 205.831 323.453C192.479 323.453 181.638 323.29 181.638 323.1C181.638 322.91 192.493 322.747 205.831 322.747C219.169 322.747 230.038 322.91 230.038 323.1Z" fill="#263238"/>
<path d="M82.2752 542.753V530.541L59.3032 530.337L59.1133 548.289L60.4702 548.384C66.8068 548.777 92.7097 549.931 96.9567 548.682C101.76 547.271 82.2752 542.753 82.2752 542.753Z" fill="#1A377D"/>
<path d="M97.5639 547.556C97.5639 547.773 88.9749 547.95 78.3776 547.95C67.7804 547.95 59.1777 547.773 59.1777 547.556C59.1777 547.339 67.7804 547.163 78.3776 547.163C88.9749 547.163 97.5639 547.339 97.5639 547.556Z" fill="#263238"/>
<path d="M82.6844 545.264C82.4944 545.155 82.6844 544.49 83.1457 543.907C83.6071 543.323 84.2448 542.943 84.3805 543.093C84.5161 543.242 84.2176 543.798 83.7699 544.449C83.3221 545.101 82.8743 545.372 82.6844 545.264Z" fill="#263238"/>
<path d="M84.1494 546.064C83.9459 545.982 84.0544 545.25 84.5022 544.49C84.95 543.73 85.547 543.269 85.7098 543.404C85.8727 543.54 85.6013 544.178 85.1807 544.883C84.76 545.589 84.3529 546.145 84.1494 546.064Z" fill="#263238"/>
<path d="M66.085 547.475C65.9901 547.543 65.6373 547.217 65.1352 546.674C64.5241 545.965 63.8472 545.315 63.1135 544.734C62.3818 544.196 61.529 543.847 60.6304 543.716C59.9384 543.621 59.4906 543.716 59.4499 543.608C59.4092 543.499 59.8434 543.214 60.6439 543.16C61.6989 543.13 62.7328 543.46 63.5748 544.096C64.3774 544.711 65.0584 545.471 65.583 546.335C66.0036 546.973 66.1936 547.407 66.085 547.475Z" fill="#263238"/>
<path d="M82.7481 542.958C82.8566 543.134 82.4495 543.568 81.7982 543.799C81.1469 544.03 80.5635 543.948 80.5363 543.731C80.5092 543.514 80.957 543.27 81.5404 543.066C82.1239 542.863 82.6259 542.768 82.7481 542.958Z" fill="#263238"/>
<path d="M82.37 541.763C82.37 541.98 81.773 542.17 81.0131 542.183C80.2533 542.197 79.6562 542.02 79.6562 541.803C79.6562 541.586 80.2804 541.41 81.0131 541.396C81.7458 541.383 82.37 541.545 82.37 541.763Z" fill="#1A377D"/>
<path d="M97.5639 547.556C97.5639 547.773 88.9749 547.95 78.3776 547.95C67.7804 547.95 59.1777 547.773 59.1777 547.556C59.1777 547.339 67.7804 547.163 78.3776 547.163C88.9749 547.163 97.5639 547.339 97.5639 547.556Z" fill="#263238"/>
<path d="M82.6844 545.264C82.4944 545.155 82.6844 544.49 83.1457 543.907C83.6071 543.323 84.2448 542.943 84.3805 543.093C84.5161 543.242 84.2176 543.798 83.7699 544.449C83.3221 545.101 82.8743 545.372 82.6844 545.264Z" fill="#263238"/>
<path d="M84.1494 546.064C83.9459 545.982 84.0544 545.25 84.5022 544.49C84.95 543.73 85.547 543.269 85.7098 543.404C85.8727 543.54 85.6013 544.178 85.1807 544.883C84.76 545.589 84.3529 546.145 84.1494 546.064Z" fill="#263238"/>
<path d="M66.085 547.475C65.9901 547.543 65.6373 547.217 65.1352 546.674C64.5241 545.965 63.8472 545.315 63.1135 544.734C62.3818 544.196 61.529 543.847 60.6304 543.716C59.9384 543.621 59.4906 543.716 59.4499 543.608C59.4092 543.499 59.8434 543.214 60.6439 543.16C61.6989 543.13 62.7328 543.46 63.5748 544.096C64.3774 544.711 65.0584 545.471 65.583 546.335C66.0036 546.973 66.1936 547.407 66.085 547.475Z" fill="#263238"/>
<path d="M82.7481 542.958C82.8566 543.134 82.4495 543.568 81.7982 543.799C81.1469 544.03 80.5635 543.948 80.5363 543.731C80.5092 543.514 80.957 543.27 81.5404 543.066C82.1239 542.863 82.6259 542.768 82.7481 542.958Z" fill="#263238"/>
<path d="M82.37 541.763C82.37 541.98 81.773 542.17 81.0131 542.183C80.2533 542.197 79.6562 542.02 79.6562 541.803C79.6562 541.586 80.2804 541.41 81.0131 541.396C81.7458 541.383 82.37 541.545 82.37 541.763Z" fill="#263238"/>
<path d="M106.509 538.411L110.132 526.701L88.2322 519.754L82.8047 536.837L84.1616 537.353C90.0911 539.605 114.501 548.371 118.925 548.438C123.783 548.493 106.509 538.411 106.509 538.411Z" fill="#1A377D"/>
<path d="M119.698 547.515C119.698 547.732 111.366 545.358 101.244 542.21C91.1216 539.062 82.9668 536.362 83.0346 536.158C83.1024 535.955 91.3523 538.329 101.488 541.464C111.624 544.598 119.765 547.312 119.698 547.515Z" fill="#263238"/>
<path d="M106.158 540.921C106.009 540.759 106.362 540.189 107.013 539.714C107.664 539.239 108.37 539.117 108.438 539.307C108.505 539.497 108.071 539.931 107.474 540.365C106.877 540.799 106.307 541.071 106.158 540.921Z" fill="#263238"/>
<path d="M107.312 542.129C107.149 541.993 107.461 541.315 108.126 540.772C108.791 540.23 109.483 539.917 109.605 540.094C109.727 540.27 109.266 540.799 108.655 541.356C108.045 541.912 107.488 542.211 107.312 542.129Z" fill="#263238"/>
<path d="M89.6697 538.139C89.5612 538.139 89.3305 537.773 89.0184 537.094C88.6457 536.238 88.1913 535.42 87.6615 534.652C87.1228 533.923 86.415 533.336 85.5991 532.942C84.9613 532.657 84.5 532.603 84.5 532.494C84.5 532.386 84.9885 532.223 85.7755 532.413C86.7875 532.7 87.6724 533.322 88.2857 534.177C88.8667 534.998 89.2942 535.917 89.5476 536.891C89.724 537.623 89.7647 538.139 89.6697 538.139Z" fill="#455A64"/>
<path d="M106.902 538.736C106.902 538.94 106.441 539.238 105.749 539.265C105.057 539.292 104.514 539.035 104.555 538.817C104.596 538.6 105.111 538.505 105.722 538.478C106.332 538.451 106.794 538.519 106.902 538.736Z" fill="#263238"/>
<path d="M106.906 537.502C106.906 537.706 106.227 537.706 105.481 537.502C104.735 537.299 104.206 536.933 104.273 536.729C104.341 536.525 104.993 536.539 105.698 536.729C106.404 536.919 106.96 537.285 106.906 537.502Z" fill="#263238"/>
<path d="M122.1 300.182L91.95 297.862L46.2773 294.158L51.3792 539.496L91.0409 538.98C91.0409 538.98 91.0409 536.266 90.9459 531.463L114.203 537.827C114.203 537.827 136.863 461.271 144.583 429.86C151.029 403.685 122.1 300.182 122.1 300.182ZM90.5117 493.362C89.9147 436.725 89.2227 340.414 90.0504 328.636C90.0504 328.636 112.14 413.428 112.344 420.117C112.48 424.161 100.173 463.293 90.5117 493.362Z" fill="#455A64"/>
<path d="M91.2595 529.686C91.2595 529.903 82.3855 530.079 71.4491 530.079C60.5126 530.079 51.625 529.903 51.625 529.686C51.625 529.469 60.499 529.292 71.4491 529.292C82.3991 529.292 91.2595 529.469 91.2595 529.686Z" fill="#455A64"/>
<path d="M90.9062 520.866C92.1468 521.16 93.3627 521.55 94.5427 522.033L103.62 525.194L112.698 528.37C113.982 528.737 115.227 529.227 116.416 529.835C115.09 529.651 113.786 529.337 112.521 528.899C110.16 528.207 106.917 527.176 103.362 525.941C99.8074 524.706 96.578 523.485 94.3527 522.549C93.1315 522.15 91.9716 521.584 90.9062 520.866Z" fill="#455A64"/>
<path d="M127.24 419.358C124.787 419.93 122.281 420.248 119.763 420.308C117.266 420.627 114.742 420.686 112.232 420.485C114.684 419.903 117.19 419.58 119.709 419.521C122.206 419.203 124.731 419.148 127.24 419.358Z" fill="#455A64"/>
<path d="M124.65 423.809C122.7 423.644 120.779 423.225 118.938 422.561C117.021 422.142 115.169 421.472 113.429 420.566C115.385 420.715 117.311 421.13 119.155 421.801C122.248 422.696 124.718 423.592 124.65 423.809Z" fill="#455A64"/>
<path d="M93.6956 298.176C93.8779 299.724 93.9459 301.284 93.8991 302.843C93.8991 305.733 93.8991 309.723 93.8991 314.132C93.8991 316.317 93.8991 318.407 93.8177 320.333C93.8674 322.069 93.5435 323.795 92.8679 325.395C92.3866 326.485 91.6173 327.423 90.6426 328.108C90.3103 328.384 89.9134 328.571 89.4893 328.651C89.4893 328.651 89.8692 328.407 90.4798 327.891C91.3366 327.157 92.0024 326.226 92.4201 325.177C92.9859 323.623 93.2395 321.972 93.1664 320.32C93.1664 318.38 93.1664 316.249 93.1664 314.105C93.1664 309.695 93.275 305.706 93.3564 302.83C93.352 301.272 93.4654 299.716 93.6956 298.176Z" fill="#455A64"/>
<path d="M71.0002 296.79C71.0148 296.989 71.0148 297.188 71.0002 297.387C71.0002 297.821 71.0002 298.405 71.0002 299.151C71.0002 300.725 70.8781 303.005 70.7831 305.935C70.5931 311.838 70.3217 320.318 69.9825 330.78C69.3448 351.757 68.6935 380.754 68.5307 412.763C68.3678 444.772 68.7342 473.822 69.1548 494.786C69.3855 505.248 69.5619 513.783 69.6976 519.631C69.6976 522.548 69.8061 524.814 69.8468 526.415C69.8468 527.161 69.8468 527.772 69.8468 528.179C69.8614 528.378 69.8614 528.577 69.8468 528.776C69.8322 528.577 69.8322 528.378 69.8468 528.179C69.8468 527.758 69.8468 527.175 69.7518 526.429C69.7518 524.841 69.6026 522.575 69.4805 519.644C69.2498 513.783 68.9784 505.288 68.707 494.8C68.1507 473.809 67.7165 444.812 67.8793 412.763C68.0422 380.713 68.7749 351.703 69.5347 330.766C69.9147 320.278 70.2675 311.77 70.566 305.922C70.7152 303.018 70.8373 300.752 70.9188 299.137C70.9188 298.391 71.0002 297.781 71.0273 297.373C71.0043 297.18 70.9952 296.985 71.0002 296.79Z" fill="#455A64"/>
<path d="M112.22 302.964C112.302 303.144 112.37 303.33 112.423 303.521C112.545 303.928 112.722 304.471 112.939 305.176C113.373 306.628 114.065 308.772 114.825 311.567C116.385 317.144 118.489 325.244 120.836 335.326C123.183 345.408 125.789 357.43 128.502 370.836C131.216 384.242 134.079 399.005 136.644 414.582C136.969 416.535 137.268 418.476 137.526 420.416C137.526 420.932 137.621 421.461 137.621 421.963L137.376 423.401C137.2 424.365 137.064 425.328 136.847 426.264C136.074 430.036 135.205 433.727 134.269 437.336C132.424 444.555 130.47 451.462 128.543 458.029C124.717 471.163 121.026 482.914 117.892 492.779C114.757 502.643 112.138 510.581 110.293 516.063L108.149 522.372L107.566 524.014C107.515 524.203 107.442 524.385 107.349 524.557C107.384 524.363 107.434 524.173 107.498 523.987C107.634 523.58 107.796 523.037 108.013 522.332L110.035 515.981L117.417 492.629C120.483 482.751 124.12 470.987 127.919 457.852C129.819 451.285 131.759 444.365 133.604 437.16C134.527 433.564 135.395 429.887 136.169 426.129C136.386 425.192 136.508 424.243 136.671 423.293L136.915 421.868C136.915 421.407 136.847 420.959 136.82 420.511C136.562 418.598 136.277 416.658 135.952 414.717C133.374 399.154 130.524 384.391 127.81 370.985C125.097 357.579 122.641 345.462 120.361 335.435C118.082 325.407 116.033 317.225 114.554 311.635C113.848 308.84 113.197 306.682 112.803 305.217L112.356 303.548C112.289 303.359 112.243 303.163 112.22 302.964Z" fill="#455A64"/>
<path d="M90.3894 488.384C90.4987 489.015 90.5396 489.656 90.5116 490.297C90.5116 491.654 90.5116 493.431 90.5794 495.534C90.5794 500.08 90.7422 506.118 90.8372 512.78C90.9322 519.443 91.19 525.481 91.3121 530.026C91.3121 532.129 91.4207 533.893 91.4614 535.264C91.5227 535.9 91.5227 536.541 91.4614 537.177C91.3117 536.555 91.2298 535.918 91.2171 535.277C91.1086 534.043 90.9865 532.265 90.8508 530.053C90.5794 525.644 90.3216 519.538 90.1723 512.794C90.0231 506.05 90.0502 499.944 90.1723 495.534C90.1723 493.323 90.2673 491.464 90.3216 490.297C90.2941 489.658 90.3168 489.019 90.3894 488.384Z" fill="#455A64"/>
<path d="M122.1 300.182L91.95 297.862L46.2773 294.158L51.3792 539.496L91.0409 538.98C91.0409 538.98 91.0409 536.266 90.9459 531.463L114.203 537.827C114.203 537.827 136.863 461.271 144.583 429.86C151.029 403.685 122.1 300.182 122.1 300.182ZM90.5117 493.362C89.9147 436.725 89.2227 340.414 90.0504 328.636C90.0504 328.636 112.14 413.428 112.344 420.117C112.48 424.161 100.173 463.293 90.5117 493.362Z" fill="#263238"/>
<path d="M91.2595 529.686C91.2595 529.903 82.3855 530.079 71.4491 530.079C60.5126 530.079 51.625 529.903 51.625 529.686C51.625 529.469 60.499 529.292 71.4491 529.292C82.3991 529.292 91.2595 529.469 91.2595 529.686Z" fill="#455A64"/>
<path d="M90.9062 520.866C92.1468 521.16 93.3627 521.55 94.5427 522.033L103.62 525.194L112.698 528.37C113.982 528.737 115.227 529.227 116.416 529.835C115.09 529.651 113.786 529.337 112.521 528.899C110.16 528.207 106.917 527.176 103.362 525.941C99.8074 524.706 96.578 523.485 94.3527 522.549C93.1315 522.15 91.9716 521.584 90.9062 520.866Z" fill="#455A64"/>
<path d="M127.24 419.358C124.787 419.93 122.281 420.248 119.763 420.308C117.266 420.627 114.742 420.686 112.232 420.485C114.684 419.903 117.19 419.58 119.709 419.521C122.206 419.203 124.731 419.148 127.24 419.358Z" fill="#455A64"/>
<path d="M124.65 423.809C122.7 423.644 120.779 423.225 118.938 422.561C117.021 422.142 115.169 421.472 113.429 420.566C115.385 420.715 117.311 421.13 119.155 421.801C122.248 422.696 124.718 423.592 124.65 423.809Z" fill="#455A64"/>
<path d="M93.6956 298.176C93.8779 299.724 93.9459 301.284 93.8991 302.843C93.8991 305.733 93.8991 309.723 93.8991 314.132C93.8991 316.317 93.8991 318.407 93.8177 320.333C93.8674 322.069 93.5435 323.795 92.8679 325.395C92.3866 326.485 91.6173 327.423 90.6426 328.108C90.3103 328.384 89.9134 328.571 89.4893 328.651C89.4893 328.651 89.8692 328.407 90.4798 327.891C91.3366 327.157 92.0024 326.226 92.4201 325.177C92.9859 323.623 93.2395 321.972 93.1664 320.32C93.1664 318.38 93.1664 316.249 93.1664 314.105C93.1664 309.695 93.275 305.706 93.3564 302.83C93.352 301.272 93.4654 299.716 93.6956 298.176Z" fill="#455A64"/>
<path d="M71.0002 296.79C71.0148 296.989 71.0148 297.188 71.0002 297.387C71.0002 297.821 71.0002 298.405 71.0002 299.151C71.0002 300.725 70.8781 303.005 70.7831 305.935C70.5931 311.838 70.3217 320.318 69.9825 330.78C69.3448 351.757 68.6935 380.754 68.5307 412.763C68.3678 444.772 68.7342 473.822 69.1548 494.786C69.3855 505.248 69.5619 513.783 69.6976 519.631C69.6976 522.548 69.8061 524.814 69.8468 526.415C69.8468 527.161 69.8468 527.772 69.8468 528.179C69.8614 528.378 69.8614 528.577 69.8468 528.776C69.8322 528.577 69.8322 528.378 69.8468 528.179C69.8468 527.758 69.8468 527.175 69.7518 526.429C69.7518 524.841 69.6026 522.575 69.4805 519.644C69.2498 513.783 68.9784 505.288 68.707 494.8C68.1507 473.809 67.7165 444.812 67.8793 412.763C68.0422 380.713 68.7749 351.703 69.5347 330.766C69.9147 320.278 70.2675 311.77 70.566 305.922C70.7152 303.018 70.8373 300.752 70.9188 299.137C70.9188 298.391 71.0002 297.781 71.0273 297.373C71.0043 297.18 70.9952 296.985 71.0002 296.79Z" fill="#455A64"/>
<path d="M112.22 302.964C112.302 303.144 112.37 303.33 112.423 303.521C112.545 303.928 112.722 304.471 112.939 305.176C113.373 306.628 114.065 308.772 114.825 311.567C116.385 317.144 118.489 325.244 120.836 335.326C123.183 345.408 125.789 357.43 128.502 370.836C131.216 384.242 134.079 399.005 136.644 414.582C136.969 416.535 137.268 418.476 137.526 420.416C137.526 420.932 137.621 421.461 137.621 421.963L137.376 423.401C137.2 424.365 137.064 425.328 136.847 426.264C136.074 430.036 135.205 433.727 134.269 437.336C132.424 444.555 130.47 451.462 128.543 458.029C124.717 471.163 121.026 482.914 117.892 492.779C114.757 502.643 112.138 510.581 110.293 516.063L108.149 522.372L107.566 524.014C107.515 524.203 107.442 524.385 107.349 524.557C107.384 524.363 107.434 524.173 107.498 523.987C107.634 523.58 107.796 523.037 108.013 522.332L110.035 515.981L117.417 492.629C120.483 482.751 124.12 470.987 127.919 457.852C129.819 451.285 131.759 444.365 133.604 437.16C134.527 433.564 135.395 429.887 136.169 426.129C136.386 425.192 136.508 424.243 136.671 423.293L136.915 421.868C136.915 421.407 136.847 420.959 136.82 420.511C136.562 418.598 136.277 416.658 135.952 414.717C133.374 399.154 130.524 384.391 127.81 370.985C125.097 357.579 122.641 345.462 120.361 335.435C118.082 325.407 116.033 317.225 114.554 311.635C113.848 308.84 113.197 306.682 112.803 305.217L112.356 303.548C112.289 303.359 112.243 303.163 112.22 302.964Z" fill="#455A64"/>
<path d="M90.3894 488.384C90.4987 489.015 90.5396 489.656 90.5116 490.297C90.5116 491.654 90.5116 493.431 90.5794 495.534C90.5794 500.08 90.7422 506.118 90.8372 512.78C90.9322 519.443 91.19 525.481 91.3121 530.026C91.3121 532.129 91.4207 533.893 91.4614 535.264C91.5227 535.9 91.5227 536.541 91.4614 537.177C91.3117 536.555 91.2298 535.918 91.2171 535.277C91.1086 534.043 90.9865 532.265 90.8508 530.053C90.5794 525.644 90.3216 519.538 90.1723 512.794C90.0231 506.05 90.0502 499.944 90.1723 495.534C90.1723 493.323 90.2673 491.464 90.3216 490.297C90.2941 489.658 90.3168 489.019 90.3894 488.384Z" fill="#455A64"/>
<path d="M70.1596 182.432L93.2266 184.142C93.5387 181.428 93.9864 171.102 93.9864 171.102C93.9864 171.102 103.607 170.22 104.312 160.695C105.018 151.17 104.719 129.174 104.719 129.174C99.4457 126.509 93.5556 125.301 87.6584 125.676C81.7613 126.05 76.0713 127.994 71.1772 131.305L69.6982 132.309L70.1596 182.432Z" fill="#E5BAAB"/>
<path d="M101.435 145.417C101.252 145.225 101.13 144.983 101.083 144.722C101.036 144.461 101.067 144.191 101.172 143.947C101.276 143.704 101.45 143.496 101.672 143.35C101.893 143.204 102.153 143.126 102.418 143.126C102.684 143.126 102.943 143.204 103.165 143.35C103.387 143.496 103.561 143.704 103.665 143.947C103.77 144.191 103.801 144.461 103.754 144.722C103.707 144.983 103.585 145.225 103.402 145.417C103.275 145.551 103.123 145.657 102.954 145.73C102.785 145.802 102.602 145.84 102.418 145.84C102.234 145.84 102.052 145.802 101.883 145.73C101.714 145.657 101.561 145.551 101.435 145.417Z" fill="#263238"/>
<path d="M103.877 143.381C103.714 143.544 102.832 142.77 101.516 142.675C100.2 142.58 99.2095 143.205 99.0739 143.028C98.9382 142.852 99.1688 142.662 99.6166 142.377C100.194 141.998 100.883 141.826 101.571 141.888C102.264 141.93 102.923 142.202 103.443 142.662C103.837 143.001 103.959 143.286 103.877 143.381Z" fill="#263238"/>
<path d="M88.6767 143.597C88.8916 143.754 89.0556 143.971 89.1483 144.22C89.241 144.47 89.2583 144.741 89.1981 145C89.1379 145.259 89.0028 145.495 88.8096 145.678C88.6164 145.861 88.3737 145.983 88.1117 146.029C87.8496 146.075 87.5798 146.043 87.3357 145.937C87.0917 145.831 86.8842 145.656 86.7391 145.433C86.594 145.21 86.5176 144.949 86.5196 144.683C86.5215 144.417 86.6016 144.157 86.75 143.936C86.8518 143.785 86.9833 143.655 87.1364 143.555C87.2895 143.456 87.4612 143.388 87.6411 143.356C87.8211 143.325 88.0055 143.33 88.1835 143.371C88.3614 143.412 88.5292 143.489 88.6767 143.597Z" fill="#263238"/>
<path d="M89.5482 143.667C89.3854 143.817 88.5034 143.043 87.1872 142.948C85.8711 142.853 84.8805 143.491 84.7448 143.315C84.6092 143.138 84.8398 142.935 85.274 142.65C85.8623 142.284 86.5507 142.113 87.2415 142.161C87.9325 142.211 88.589 142.483 89.114 142.935C89.5075 143.287 89.6296 143.599 89.5482 143.667Z" fill="#263238"/>
<path d="M94.1489 154.821C94.843 154.606 95.5663 154.501 96.2928 154.509C96.6455 154.509 96.9305 154.441 96.9712 154.251C97.0055 153.9 96.9396 153.548 96.7812 153.233L95.9128 150.519C95.0773 148.199 94.4639 145.805 94.0811 143.369C95.1325 145.596 95.9729 147.918 96.5913 150.302L97.4054 153.016C97.6013 153.465 97.6396 153.967 97.514 154.441C97.4569 154.568 97.3706 154.68 97.2622 154.767C97.1537 154.854 97.0261 154.914 96.8898 154.943C96.6961 154.968 96.5 154.968 96.3063 154.943C95.5853 155.018 94.8569 154.976 94.1489 154.821Z" fill="#263238"/>
<path d="M89.7919 156.001C88.435 155.105 93.4283 158.24 96.1149 158.28C95.627 158.941 94.9287 159.417 94.1348 159.629C93.3409 159.841 92.4984 159.777 91.7458 159.447C88.9506 158.212 89.7919 156.001 89.7919 156.001Z" fill="white"/>
<path d="M93.9317 170.967C89.5258 170.781 85.2749 169.288 81.7197 166.679C81.7197 166.679 84.23 173.721 93.796 173.464L93.9317 170.967Z" fill="#D78776"/>
<path d="M71.5142 140.763C71.2971 140.681 64.4313 139.786 65.0826 147.9C65.7339 156.014 73.7124 152.663 73.6988 152.432C73.6852 152.201 71.5142 140.763 71.5142 140.763Z" fill="#E5BAAB"/>
<path d="M70.9172 149.787C70.9172 149.787 70.795 149.895 70.5644 150.031C70.2376 150.199 69.8599 150.237 69.506 150.14C68.9566 149.847 68.4942 149.414 68.1655 148.885C67.8367 148.356 67.6532 147.75 67.6335 147.127C67.5587 146.435 67.6422 145.734 67.8777 145.079C67.932 144.819 68.0479 144.576 68.2156 144.371C68.3832 144.165 68.5977 144.003 68.8411 143.898C69.0014 143.846 69.1744 143.85 69.3321 143.91C69.4897 143.969 69.6227 144.079 69.7095 144.224C69.8317 144.441 69.8045 144.604 69.8452 144.617C69.8859 144.631 70.008 144.468 69.8452 144.142C69.7886 143.943 69.6637 143.77 69.4924 143.654C69.2517 143.511 68.9663 143.462 68.6919 143.518C68.3687 143.61 68.0743 143.782 67.8368 144.02C67.5993 144.257 67.4265 144.552 67.335 144.875C67.0424 145.602 66.9351 146.39 67.0229 147.168C67.038 147.893 67.2678 148.597 67.6832 149.191C68.0987 149.786 68.6811 150.243 69.3568 150.506C69.5792 150.553 69.8092 150.549 70.0299 150.495C70.2507 150.441 70.4565 150.338 70.6322 150.194C70.9172 149.99 70.9579 149.8 70.9172 149.787Z" fill="#D78776"/>
<path d="M105.33 125.742C105.88 125.727 106.418 125.587 106.904 125.331C107.39 125.075 107.811 124.71 108.134 124.266C108.456 123.821 108.672 123.308 108.765 122.767C108.858 122.225 108.825 121.67 108.669 121.143C108.513 120.616 108.238 120.132 107.865 119.729C107.492 119.326 107.031 119.014 106.518 118.817C106.005 118.62 105.454 118.544 104.907 118.594C104.359 118.644 103.831 118.82 103.363 119.107C104.498 118.165 105.422 116.996 106.077 115.674C106.393 115.008 106.498 114.26 106.377 113.532C106.255 112.804 105.914 112.131 105.398 111.603C104.801 111.208 104.11 110.978 103.396 110.935C102.681 110.892 101.968 111.038 101.328 111.359C99.3058 112.228 97.7047 113.937 95.6287 114.656C93.5527 115.376 91.2324 115.023 89.0071 115.118C86.5101 115.162 84.0918 115.999 82.1006 117.506C80.4039 118.839 79.3058 120.791 79.0476 122.933C78.7809 122.567 78.486 122.222 78.1656 121.902C77.1103 120.643 75.6866 119.746 74.095 119.338C74 119.514 75.8589 120.545 77.6364 122.391C78.1203 122.854 78.5736 123.348 78.9933 123.87C75.8996 123.49 72.4938 123.463 70.0514 125.389C69.062 126.271 68.28 127.361 67.7615 128.581C67.2431 129.801 67.001 131.121 67.0527 132.445C67.0527 135.077 68.1382 137.588 68.9117 140.112C69.0987 140.827 69.4211 141.499 69.8615 142.093L71.0284 148.877L75.2754 148.796L75.0041 134.562C75.0041 134.562 74.5699 128.564 79.726 129.134C84.8822 129.704 91.9379 135.471 101.952 134.006C103.595 133.914 105.196 133.45 106.633 132.649C107.329 132.208 107.894 131.59 108.271 130.857C108.648 130.125 108.823 129.305 108.777 128.483C108.678 127.665 108.261 126.918 107.616 126.405C106.971 125.892 106.15 125.654 105.33 125.742Z" fill="#263238"/>
<path d="M191.621 195.989L192.245 191.674C192.883 189.313 193.283 186.895 193.439 184.455C193.541 183.242 193.431 182.021 193.113 180.846C192.793 179.367 192.263 177.941 191.539 176.612C190.752 175.459 191.783 173.899 192.896 174.374C194.009 174.848 196.329 177.915 197.075 182.338C197.822 186.762 201.309 180.629 202.611 178.417C203.914 176.205 208.297 169.543 209.301 169.407C210.766 169.204 211.255 170.764 209.884 172.922C208.514 175.079 204.905 181.931 206.112 182.556C207.016 182.411 207.941 182.457 208.826 182.691C208.969 182.733 209.095 182.818 209.187 182.935C209.28 183.052 209.334 183.194 209.342 183.343C209.336 184.027 209.409 184.71 209.559 185.378C209.559 185.378 211.336 184.971 211.703 185.744C211.95 186.539 212.065 187.368 212.042 188.2C212.042 188.2 213.399 187.739 214.05 188.2C215.407 189.299 213.67 191.185 213.67 191.185C209.675 195.951 205.383 200.46 200.82 204.686L191.471 195.677" fill="#E5BAAB"/>
<path d="M209.021 185.675C208.622 186.514 208.086 187.28 207.434 187.941C206.891 188.593 206.212 189.298 205.412 190.153C204.994 190.597 204.541 191.006 204.055 191.374C203.756 191.612 203.395 191.759 203.015 191.797C202.635 191.836 202.252 191.764 201.911 191.591C201.725 191.483 201.568 191.331 201.453 191.149C201.337 190.968 201.266 190.761 201.246 190.547C201.219 190.164 201.304 189.782 201.49 189.448C201.825 188.944 202.187 188.459 202.576 187.996C203.268 187.127 203.838 186.313 204.313 185.608C204.768 184.81 205.29 184.052 205.873 183.342C205.647 184.244 205.261 185.099 204.733 185.865C204.24 186.738 203.697 187.58 203.105 188.389C202.745 188.822 202.41 189.275 202.101 189.746C201.857 190.194 201.87 190.75 202.264 190.954C202.485 191.047 202.728 191.08 202.966 191.049C203.205 191.018 203.431 190.924 203.621 190.777C204.071 190.436 204.497 190.065 204.896 189.665C205.71 188.905 206.416 188.186 206.999 187.575C207.607 186.875 208.285 186.238 209.021 185.675Z" fill="#D78776"/>
<path d="M211.397 188.458C210.998 189.182 210.485 189.837 209.877 190.398C209.264 191.055 208.597 191.658 207.883 192.203C207.454 192.527 207 192.817 206.526 193.071C206.244 193.212 205.942 193.308 205.63 193.356C205.442 193.387 205.249 193.377 205.064 193.328C204.879 193.279 204.707 193.191 204.558 193.071C204.308 192.812 204.149 192.477 204.108 192.119C204.066 191.761 204.143 191.4 204.328 191.09C204.602 190.606 204.925 190.152 205.291 189.733C205.888 189.041 206.444 188.376 207.001 187.711C207.991 186.571 208.643 185.907 208.724 185.961C208.366 186.706 207.909 187.4 207.367 188.023L205.847 190.181C205.527 190.565 205.236 190.973 204.979 191.402C204.874 191.575 204.826 191.776 204.84 191.978C204.855 192.18 204.932 192.372 205.06 192.528C205.305 192.759 205.82 192.664 206.268 192.447C206.713 192.216 207.144 191.958 207.557 191.673C208.262 191.17 208.937 190.627 209.579 190.045C210.118 189.444 210.729 188.911 211.397 188.458Z" fill="#D78776"/>
<path d="M211.949 192.337C212.017 192.337 211.949 192.948 211.311 193.694C211.118 193.925 210.88 194.115 210.612 194.253C210.344 194.39 210.051 194.472 209.751 194.495C209.362 194.498 208.984 194.369 208.679 194.128C208.51 193.987 208.376 193.811 208.284 193.611C208.193 193.412 208.147 193.195 208.15 192.975C208.257 192.284 208.537 191.63 208.964 191.075C209.25 190.628 209.563 190.197 209.9 189.786C210.483 189.081 210.904 188.714 210.985 188.782C211.067 188.85 210.768 189.311 210.307 190.139C210.036 190.614 209.764 191.048 209.52 191.496C209.193 191.975 208.967 192.515 208.855 193.084C208.866 193.314 208.965 193.531 209.131 193.691C209.298 193.85 209.52 193.939 209.751 193.938C210.201 193.924 210.631 193.746 210.958 193.436C211.569 192.785 211.854 192.283 211.949 192.337Z" fill="#D78776"/>
<path d="M190.608 190.384C190.608 190.384 155.017 225.405 150.024 225.663C144.325 225.934 126.794 201.076 126.794 201.076C115.573 183.762 100.769 180.967 95.3687 180.533V178.389L68.8417 176.218C68.8417 176.218 68.8417 178.497 68.8417 180.492H57.1318C57.1318 180.492 36.1001 179.529 32.9521 207.779L48.0678 219.733L54.2688 242.8C56.4262 250.833 48.7191 263.628 45.042 284.348C44.4749 287.802 45.0514 291.347 46.6838 294.443L123.28 303.249L119.209 244.686L117.974 231.117C124.284 239.733 135.614 251.918 149.495 251.647C173.172 251.199 206.063 201.442 206.063 201.442L190.608 190.384Z" fill="#E0E0E0"/>
<path d="M86.4401 178.009C86.5717 179.213 86.5717 180.428 86.4401 181.632C86.2423 184.647 85.8342 187.644 85.219 190.601L85.124 191.049L84.7169 190.832C83.7942 190.343 82.8308 189.828 81.8539 189.258C78.0546 187.019 74.8117 184.712 72.3557 183.111C71.0299 182.304 69.7522 181.421 68.5293 180.465C68.9354 180.584 69.3234 180.757 69.6826 180.981C70.3882 181.374 71.4059 181.944 72.6271 182.691C75.0966 184.183 78.3803 186.436 82.1253 188.647C83.0751 189.204 84.0249 189.733 84.9476 190.221L84.4455 190.452C85.2325 186.951 85.6124 183.817 85.8974 181.592C86.0056 180.388 86.1869 179.191 86.4401 178.009Z" fill="#FAFAFA"/>
<path d="M95.4509 180.682C95.2805 181.848 95.0265 183 94.6911 184.129C94.4332 185.201 94.1619 186.476 93.7005 187.86C93.4604 188.592 93.1749 189.308 92.8457 190.004C92.7508 190.254 92.58 190.467 92.3572 190.615C92.2027 190.71 92.0205 190.749 91.8406 190.727C91.6607 190.705 91.4936 190.622 91.3667 190.493C91.1124 190.118 90.9072 189.712 90.7561 189.285C89.3992 186.205 88.3273 183.41 87.5403 181.361C87.0453 180.288 86.6677 179.164 86.4141 178.009C87.0479 179.007 87.5797 180.067 88.0016 181.171C88.9107 183.166 90.1184 185.934 91.4074 189.014C91.5326 189.356 91.6869 189.688 91.8687 190.004C91.9366 190.004 91.8687 190.004 91.9908 190.004C92.093 189.921 92.1724 189.814 92.2215 189.692C92.5462 189.025 92.836 188.341 93.0899 187.643C93.5648 186.286 93.8905 185.038 94.2026 183.993C94.4724 182.84 94.8921 181.727 95.4509 180.682Z" fill="#FAFAFA"/>
<path d="M90.5108 275.447C90.446 275.129 90.4097 274.807 90.4023 274.483C90.4023 273.778 90.348 272.873 90.2395 271.77C90.1309 269.273 89.9681 265.813 89.7781 261.566C89.4525 252.882 88.9911 241.009 88.5027 227.902C88.0142 214.794 87.7021 202.921 87.4307 194.237C87.3357 189.977 87.2543 186.517 87.1865 184.02C87.1865 182.88 87.1865 181.958 87.1865 181.306C87.1514 180.982 87.1514 180.654 87.1865 180.329C87.249 180.647 87.2808 180.969 87.2815 181.293C87.2815 181.998 87.39 182.921 87.4579 184.006C87.5664 186.49 87.7292 189.95 87.9192 194.197C88.2448 202.881 88.6926 214.753 89.1947 227.861C89.6967 240.968 89.9817 252.841 90.2666 261.539C90.3616 265.786 90.443 269.246 90.5108 271.742C90.5108 272.896 90.5108 273.818 90.5108 274.524C90.5428 274.831 90.5428 275.14 90.5108 275.447Z" fill="#F5F5F5"/>
<path d="M85.6758 186.583L87.9011 192.716L89.8143 186.135L86.8427 179.541L85.6758 186.583Z" fill="#1A377D"/>
<path d="M88.3131 190.886L86.8477 259.924L97.2685 281.715L101.38 257.196L88.3131 190.886Z" fill="#1A377D"/>
<path d="M150.404 234.198C150.404 234.198 150.404 234.402 150.404 234.741L150.323 235.257L150.092 234.741C149.567 233.369 149.265 231.921 149.197 230.453C148.972 228.817 149.168 227.149 149.767 225.609C149.97 225.609 149.767 227.78 149.902 230.413C150.011 232.285 150.309 233.886 150.404 234.66H150.092C150.214 234.293 150.35 234.198 150.404 234.198Z" fill="#FAFAFA"/>
<path d="M153.453 233.968C152.441 232.906 151.688 231.624 151.255 230.223C150.602 228.929 150.245 227.506 150.21 226.057C150.901 227.319 151.464 228.646 151.893 230.019C152.54 231.282 153.062 232.604 153.453 233.968Z" fill="#FAFAFA"/>
<path d="M203.838 204.74C200.903 203.187 198.083 201.428 195.398 199.475C192.585 197.719 189.9 195.765 187.365 193.627C190.299 195.192 193.119 196.96 195.805 198.919C198.617 200.666 201.302 202.611 203.838 204.74Z" fill="#FAFAFA"/>
<path d="M55.9003 215.825C55.9003 215.825 50.2557 255.175 52.9288 257.373C67.6916 269.789 88.2077 276.302 95.5348 278.35C96.6068 278.093 97.8551 277.753 99.2934 277.292C100.54 276.896 101.71 276.29 102.753 275.501C104.085 274.567 105.282 273.453 106.308 272.19C106.464 271.919 106.699 271.703 106.982 271.572C107.265 271.441 107.582 271.401 107.889 271.457C108.196 271.514 108.477 271.665 108.695 271.888C108.913 272.112 109.055 272.398 109.104 272.706C109.172 274.063 107 277.55 102.916 280.101C102.916 280.101 112.319 295.23 115.318 296.601C118.317 297.971 126.892 301.825 125.441 302.557C123.989 303.29 113.554 300.264 113.554 300.264L92.3869 294.606C92.3869 294.606 22.3718 283.629 27.0259 251.511C29.8889 231.823 33.0097 214.089 34.1359 209.597L55.9003 215.825Z" fill="#E5BAAB"/>
<path d="M32.9507 207.766L26.7362 250.657C25.2844 263.86 34.1312 274.348 46.0311 280.251C64.1455 289.22 91.0389 295.624 90.8082 295.584C90.5775 295.543 92.6264 276.438 92.6264 276.438C92.6264 276.438 54.9187 260.155 53.7382 253.1C52.5577 246.044 58.528 216.735 58.528 216.735L32.9507 207.766Z" fill="#E0E0E0"/>
<path d="M90.7521 295.583C90.7379 295.47 90.7379 295.356 90.7521 295.244C90.7521 294.972 90.7521 294.647 90.8199 294.253C90.8878 293.317 90.9827 292.055 91.1184 290.44C91.4034 287.075 91.824 282.299 92.3261 276.424L92.4753 276.668L73.479 267.482L68.0514 264.768C66.2196 263.791 64.3743 262.719 62.5425 261.539C60.684 260.339 58.8987 259.03 57.1964 257.617C56.3415 256.898 55.4867 256.138 54.6726 255.338C54.2135 254.935 53.8438 254.44 53.5871 253.886C53.4432 253.617 53.3381 253.329 53.275 253.031C53.1859 252.748 53.1223 252.457 53.085 252.163C52.4744 247.468 53.7228 243.044 54.4419 238.825C55.1611 234.605 55.8802 230.493 56.5586 226.613C57.9155 218.824 59.1503 211.823 60.1815 205.907C60.7383 203.286 61.0562 200.62 61.1313 197.942C61.1575 195.926 60.7406 193.93 59.9101 192.094C59.3774 190.935 58.6212 189.893 57.6849 189.027C57.0335 188.444 56.6401 188.213 56.6536 188.172C57.0573 188.375 57.4353 188.626 57.7798 188.918C58.7761 189.759 59.585 190.799 60.1544 191.971C61.045 193.836 61.5085 195.875 61.5113 197.942C61.481 200.645 61.1948 203.339 60.6564 205.988C59.6659 211.918 58.4854 218.933 57.1828 226.735C56.5179 230.629 55.8259 234.727 55.1068 238.947C54.9304 240.005 54.7404 241.077 54.5505 242.162C54.3605 243.248 54.157 244.306 54.0077 245.392C53.6509 247.586 53.5916 249.817 53.8313 252.027C53.8743 252.297 53.9332 252.564 54.0077 252.828C54.0611 253.088 54.1525 253.34 54.2791 253.574C54.5026 254.053 54.8265 254.479 55.2289 254.822C56.0295 255.609 56.8572 256.355 57.6984 257.061C59.3781 258.46 61.1407 259.756 62.9767 260.942C64.7813 262.122 66.5996 263.181 68.4042 264.158L73.8318 266.871L92.6789 276.261L92.8281 276.342V276.505C92.2175 282.38 91.729 287.143 91.3898 290.508C91.1998 292.109 91.0642 293.385 90.9556 294.307C90.9013 294.705 90.8606 295.031 90.8335 295.284C90.8161 295.386 90.7888 295.486 90.7521 295.583Z" fill="#FAFAFA"/>
<path d="M87.2523 273.819C87.2925 274.802 87.2151 275.786 87.0216 276.75C86.791 278.541 86.411 281.011 85.909 283.724C85.4069 286.438 84.837 288.88 84.3757 290.631C84.1895 291.596 83.8746 292.531 83.4395 293.412C83.4868 292.432 83.6369 291.458 83.8872 290.509C84.2852 288.464 84.7375 286.158 85.2441 283.589C85.7189 280.295 86.3895 277.033 87.2523 273.819Z" fill="#FAFAFA"/>
<path d="M90.7557 295.583C90.5297 295.582 90.3054 295.545 90.0908 295.474L88.2319 295.027L81.4475 293.236C75.7079 291.689 67.7294 289.653 59.181 286.519C55.1583 285.048 51.2413 283.302 47.4575 281.295C44.3664 279.651 41.4165 277.754 38.6378 275.623C36.763 274.188 34.9944 272.619 33.346 270.928C32.7625 270.331 32.3419 269.857 31.9891 269.572C31.8276 269.412 31.6904 269.229 31.582 269.029C31.582 269.029 32.2605 269.667 33.4817 270.793C35.202 272.394 37.0142 273.894 38.9092 275.284C41.7151 277.302 44.6627 279.116 47.7289 280.712C51.5032 282.673 55.4012 284.386 59.3981 285.841C67.8922 288.961 75.8571 291.065 81.556 292.747L88.3404 294.742L90.1722 295.325C90.377 295.386 90.5731 295.472 90.7557 295.583Z" fill="#FAFAFA"/>
<path d="M91.2181 278.404C91.2262 278.647 91.1618 278.886 91.0332 279.092C90.9046 279.298 90.7176 279.461 90.4961 279.56C90.2746 279.659 90.0286 279.69 89.7895 279.648C89.5504 279.607 89.3291 279.495 89.1537 279.328C88.9783 279.16 88.8568 278.944 88.8048 278.707C88.7527 278.47 88.7725 278.223 88.8615 277.997C88.9505 277.771 89.1048 277.577 89.3046 277.44C89.5044 277.302 89.7407 277.227 89.9833 277.224C90.3026 277.22 90.6106 277.342 90.8414 277.562C91.0723 277.783 91.2075 278.085 91.2181 278.404Z" fill="#FAFAFA"/>
</svg>
