<svg width="598" height="452" viewBox="0 0 598 452" fill="none" xmlns="http://www.w3.org/2000/svg">
<path d="M566.847 283.931C566.488 270.775 567.51 248.339 555.976 239.101C545.843 230.99 537.964 241.998 535.12 250.877C528.231 272.418 531.465 296.171 531.486 318.407C531.486 318.744 531.486 319.081 531.486 319.46C530.949 335.829 528.979 353.535 530.77 369.873C530.77 369.873 529.011 353.504 516.16 360.519C503.309 367.534 522.585 404.348 522.585 404.348C522.585 404.348 507.396 393.246 500.381 402.6C493.366 411.953 509.145 422.466 509.145 422.466C509.145 422.466 494.535 418.379 494.535 422.466C494.535 426.553 499.212 430.06 512.652 431.819H585.101C585.101 431.819 596.793 425.383 594.455 418.379C592.116 411.374 579.834 415.408 579.834 415.408C579.834 415.408 598.542 392.614 597.372 382.681C596.203 372.748 572.24 384.44 572.24 384.44C572.24 384.44 590.936 337.103 587.429 316.068C584.669 299.499 571.808 310.801 564.803 317.206C566.452 306.195 567.136 295.061 566.847 283.931Z" fill="#1A377D" stroke="white" stroke-linecap="round" stroke-linejoin="round"/>
<path opacity="0.5" d="M566.847 283.931C566.488 270.775 567.51 248.339 555.976 239.101C545.843 230.99 537.964 241.998 535.12 250.877C528.231 272.418 531.465 296.171 531.486 318.407C531.486 318.744 531.486 319.081 531.486 319.46C530.949 335.829 528.979 353.535 530.77 369.873C530.77 369.873 529.011 353.504 516.16 360.519C503.309 367.534 522.585 404.348 522.585 404.348C522.585 404.348 507.396 393.246 500.381 402.6C493.366 411.953 509.145 422.466 509.145 422.466C509.145 422.466 494.535 418.379 494.535 422.466C494.535 426.553 499.212 430.06 512.652 431.819H585.101C585.101 431.819 596.793 425.383 594.455 418.379C592.116 411.374 579.834 415.408 579.834 415.408C579.834 415.408 598.542 392.614 597.372 382.681C596.203 372.748 572.24 384.44 572.24 384.44C572.24 384.44 590.936 337.103 587.429 316.068C584.669 299.499 571.808 310.801 564.803 317.206C566.452 306.195 567.136 295.061 566.847 283.931Z" fill="white"/>
<path d="M543.602 431.188L548.868 270.48" stroke="white" stroke-linecap="round" stroke-linejoin="round"/>
<path d="M546.523 363.984L573.984 338.272" stroke="white" stroke-linecap="round" stroke-linejoin="round"/>
<path d="M559.372 352.293L565.218 335.934" stroke="white" stroke-linecap="round" stroke-linejoin="round"/>
<path d="M523.735 383.851L544.771 406.645" stroke="white" stroke-linecap="round" stroke-linejoin="round"/>
<path d="M579.833 396.711L544.768 414.828" stroke="white" stroke-linecap="round" stroke-linejoin="round"/>
<path d="M561.134 407.224L573.984 406.645" stroke="white" stroke-linecap="round" stroke-linejoin="round"/>
<path d="M543.602 431.188L548.868 270.48" stroke="#1A377D" stroke-linecap="round" stroke-linejoin="round"/>
<path d="M546.523 363.984L573.984 338.272" stroke="#1A377D" stroke-linecap="round" stroke-linejoin="round"/>
<path d="M559.372 352.293L565.218 335.934" stroke="#1A377D" stroke-linecap="round" stroke-linejoin="round"/>
<path d="M523.735 383.851L544.771 406.645" stroke="#1A377D" stroke-linecap="round" stroke-linejoin="round"/>
<path d="M579.833 396.711L544.768 414.828" stroke="#1A377D" stroke-linecap="round" stroke-linejoin="round"/>
<path d="M561.134 407.224L573.984 406.645" stroke="#1A377D" stroke-linecap="round" stroke-linejoin="round"/>
<g opacity="0.8">
<path d="M543.602 431.187L548.868 270.48" stroke="white" stroke-linecap="round" stroke-linejoin="round"/>
<path d="M546.54 363.987L574.001 338.275" stroke="white" stroke-linecap="round" stroke-linejoin="round"/>
<path d="M559.38 352.294L565.226 335.935" stroke="white" stroke-linecap="round" stroke-linejoin="round"/>
<path d="M523.74 383.851L544.775 406.645" stroke="white" stroke-linecap="round" stroke-linejoin="round"/>
<path d="M579.836 396.71L544.771 414.828" stroke="white" stroke-linecap="round" stroke-linejoin="round"/>
<path d="M561.146 407.226L573.997 406.646" stroke="white" stroke-linecap="round" stroke-linejoin="round"/>
</g>
<path d="M443.209 398.712C443.209 415.05 456.154 428.301 456.154 428.301C456.154 428.301 469.1 415.05 469.1 398.712C469.1 382.375 456.154 369.124 456.154 369.124C456.154 369.124 443.209 382.365 443.209 398.712Z" fill="#1A377D"/>
<path d="M434.239 423.92C440.559 431.009 451.24 431.778 451.24 431.778C451.24 431.778 451.756 421.044 445.478 413.955C439.201 406.866 428.478 406.097 428.478 406.097C428.478 406.097 427.951 416.831 434.239 423.92Z" fill="#1A377D"/>
<path d="M467.227 413.712C460.623 420.506 460.665 431.25 460.665 431.25C460.665 431.25 471.399 430.965 477.992 424.161C484.586 417.356 484.565 406.623 484.565 406.623C484.565 406.623 473.821 406.907 467.227 413.712Z" fill="#1A377D"/>
<g opacity="0.5">
<path d="M443.209 398.712C443.209 415.05 456.154 428.301 456.154 428.301C456.154 428.301 469.1 415.05 469.1 398.712C469.1 382.375 456.154 369.124 456.154 369.124C456.154 369.124 443.209 382.365 443.209 398.712Z" fill="white"/>
<path d="M456.163 428.301V369.124" stroke="white" stroke-linecap="round" stroke-linejoin="round"/>
<path d="M456.163 390.159L448.916 383.829" stroke="white" stroke-linecap="round" stroke-linejoin="round"/>
<path d="M456.276 399.935L465.251 386.937" stroke="white" stroke-linecap="round" stroke-linejoin="round"/>
<path d="M456.164 405.57L445.462 396.026" stroke="white" stroke-linecap="round" stroke-linejoin="round"/>
<path d="M456.276 413.166L466.862 403.738" stroke="white" stroke-linecap="round" stroke-linejoin="round"/>
<path d="M456.274 419.726L447.984 413.164" stroke="white" stroke-linecap="round" stroke-linejoin="round"/>
<path d="M434.238 423.92C440.558 431.009 451.239 431.778 451.239 431.778C451.239 431.778 451.755 421.044 445.478 413.955C439.2 406.866 428.477 406.097 428.477 406.097C428.477 406.097 427.95 416.831 434.238 423.92Z" fill="white"/>
<path d="M451.241 431.778L428.479 406.097" stroke="white" stroke-linecap="round" stroke-linejoin="round"/>
<path d="M436.564 415.229L430.981 415.271" stroke="white" stroke-linecap="round" stroke-linejoin="round"/>
<path d="M440.378 419.42L439.272 410.33" stroke="white" stroke-linecap="round" stroke-linejoin="round"/>
<path d="M442.491 421.918L434.181 421.887" stroke="white" stroke-linecap="round" stroke-linejoin="round"/>
<path d="M445.471 425.163L446.429 416.999" stroke="white" stroke-linecap="round" stroke-linejoin="round"/>
<path d="M448 428.007L441.88 428.354" stroke="white" stroke-linecap="round" stroke-linejoin="round"/>
<path d="M467.235 413.712C460.631 420.506 460.673 431.25 460.673 431.25C460.673 431.25 471.406 430.965 478 424.161C484.594 417.356 484.573 406.623 484.573 406.623C484.573 406.623 473.829 406.907 467.235 413.712Z" fill="white"/>
<path d="M460.673 431.25L484.573 406.623" stroke="white" stroke-linecap="round" stroke-linejoin="round"/>
<path d="M476.076 415.377L475.623 409.815" stroke="white" stroke-linecap="round" stroke-linejoin="round"/>
<path d="M472.174 419.494L481.159 417.704" stroke="white" stroke-linecap="round" stroke-linejoin="round"/>
<path d="M469.839 421.792L469.249 413.502" stroke="white" stroke-linecap="round" stroke-linejoin="round"/>
<path d="M466.815 424.993L475.031 425.351" stroke="white" stroke-linecap="round" stroke-linejoin="round"/>
<path d="M464.171 427.722L463.37 421.654" stroke="white" stroke-linecap="round" stroke-linejoin="round"/>
</g>
<path d="M456.154 428.301V369.124" stroke="#1A377D" stroke-linecap="round" stroke-linejoin="round"/>
<path d="M456.163 390.159L448.916 383.829" stroke="#1A377D" stroke-linecap="round" stroke-linejoin="round"/>
<path d="M456.277 399.935L465.252 386.937" stroke="#1A377D" stroke-linecap="round" stroke-linejoin="round"/>
<path d="M456.165 405.57L445.463 396.026" stroke="#1A377D" stroke-linecap="round" stroke-linejoin="round"/>
<path d="M456.277 413.165L466.863 403.738" stroke="#1A377D" stroke-linecap="round" stroke-linejoin="round"/>
<path d="M456.279 419.727L447.989 413.165" stroke="#1A377D" stroke-linecap="round" stroke-linejoin="round"/>
<g opacity="0.7">
<path d="M456.167 428.301V369.124" stroke="white" stroke-linecap="round" stroke-linejoin="round"/>
<path d="M456.163 390.159L448.916 383.829" stroke="white" stroke-linecap="round" stroke-linejoin="round"/>
<path d="M456.277 399.935L465.252 386.937" stroke="white" stroke-linecap="round" stroke-linejoin="round"/>
<path d="M456.165 405.57L445.463 396.026" stroke="white" stroke-linecap="round" stroke-linejoin="round"/>
<path d="M456.277 413.165L466.863 403.738" stroke="white" stroke-linecap="round" stroke-linejoin="round"/>
<path d="M456.279 419.727L447.989 413.165" stroke="white" stroke-linecap="round" stroke-linejoin="round"/>
</g>
<path d="M451.247 431.777L428.484 406.097" stroke="#1A377D" stroke-linecap="round" stroke-linejoin="round"/>
<path d="M436.569 415.229L430.986 415.271" stroke="#1A377D" stroke-linecap="round" stroke-linejoin="round"/>
<path d="M440.382 419.42L439.276 410.33" stroke="#1A377D" stroke-linecap="round" stroke-linejoin="round"/>
<path d="M442.492 421.918L434.182 421.887" stroke="#1A377D" stroke-linecap="round" stroke-linejoin="round"/>
<path d="M445.471 425.162L446.429 416.999" stroke="#1A377D" stroke-linecap="round" stroke-linejoin="round"/>
<path d="M447.993 428.007L441.873 428.354" stroke="#1A377D" stroke-linecap="round" stroke-linejoin="round"/>
<g opacity="0.7">
<path d="M451.245 431.778L428.482 406.098" stroke="white" stroke-linecap="round" stroke-linejoin="round"/>
<path d="M436.568 415.23L430.985 415.272" stroke="white" stroke-linecap="round" stroke-linejoin="round"/>
<path d="M440.385 419.421L439.279 410.331" stroke="white" stroke-linecap="round" stroke-linejoin="round"/>
<path d="M442.495 421.918L434.185 421.887" stroke="white" stroke-linecap="round" stroke-linejoin="round"/>
<path d="M445.475 425.163L446.433 417" stroke="white" stroke-linecap="round" stroke-linejoin="round"/>
<path d="M448.009 428.006L441.889 428.354" stroke="white" stroke-linecap="round" stroke-linejoin="round"/>
</g>
<path d="M460.665 431.25L484.565 406.623" stroke="#1A377D" stroke-linecap="round" stroke-linejoin="round"/>
<path d="M476.063 415.377L475.61 409.815" stroke="#1A377D" stroke-linecap="round" stroke-linejoin="round"/>
<path d="M472.162 419.496L481.147 417.706" stroke="#1A377D" stroke-linecap="round" stroke-linejoin="round"/>
<path d="M469.84 421.791L469.25 413.501" stroke="#1A377D" stroke-linecap="round" stroke-linejoin="round"/>
<path d="M466.82 424.995L475.036 425.353" stroke="#1A377D" stroke-linecap="round" stroke-linejoin="round"/>
<path d="M464.174 427.722L463.373 421.654" stroke="#1A377D" stroke-linecap="round" stroke-linejoin="round"/>
<g opacity="0.7">
<path d="M460.665 431.25L484.565 406.623" stroke="white" stroke-linecap="round" stroke-linejoin="round"/>
<path d="M476.063 415.377L475.61 409.815" stroke="white" stroke-linecap="round" stroke-linejoin="round"/>
<path d="M472.162 419.495L481.147 417.704" stroke="white" stroke-linecap="round" stroke-linejoin="round"/>
<path d="M469.84 421.791L469.25 413.502" stroke="white" stroke-linecap="round" stroke-linejoin="round"/>
<path d="M466.82 424.993L475.036 425.351" stroke="white" stroke-linecap="round" stroke-linejoin="round"/>
<path d="M464.175 427.722L463.374 421.655" stroke="white" stroke-linecap="round" stroke-linejoin="round"/>
</g>
<path d="M31.2434 283.931C31.591 270.775 30.5798 248.339 42.1138 239.101C52.2469 230.99 60.1258 241.998 62.9593 250.877C69.8587 272.418 66.6144 296.171 66.6038 318.407C66.6038 318.744 66.6038 319.081 66.6038 319.46C67.1516 335.829 69.1108 353.535 67.3306 369.873C67.3306 369.873 69.0792 353.504 81.9404 360.519C94.8017 367.534 75.5045 404.348 75.5045 404.348C75.5045 404.348 90.7042 393.246 97.7194 402.6C104.735 411.953 88.9767 422.423 88.9767 422.423C88.9767 422.423 103.586 418.337 103.586 422.423C103.586 426.51 98.9097 430.018 85.4691 431.777H12.989C12.989 431.777 1.29702 425.341 3.63542 418.337C5.97383 411.332 18.2452 415.408 18.2452 415.408C18.2452 415.408 -0.451527 392.614 0.717676 382.681C1.88688 372.748 25.8503 384.44 25.8503 384.44C25.8503 384.44 7.14303 337.103 10.6506 316.1C13.4104 299.531 26.2821 310.833 33.2763 317.237C31.6291 306.216 30.9489 295.071 31.2434 283.931Z" fill="#1A377D" stroke="white" stroke-linecap="round" stroke-linejoin="round"/>
<path opacity="0.5" d="M31.2434 283.931C31.591 270.775 30.5798 248.339 42.1138 239.101C52.2469 230.99 60.1258 241.998 62.9593 250.877C69.8587 272.418 66.6144 296.171 66.6038 318.407C66.6038 318.744 66.6038 319.081 66.6038 319.46C67.1516 335.829 69.1108 353.535 67.3306 369.873C67.3306 369.873 69.0792 353.504 81.9404 360.519C94.8017 367.534 75.5045 404.348 75.5045 404.348C75.5045 404.348 90.7042 393.246 97.7194 402.6C104.735 411.953 88.9767 422.423 88.9767 422.423C88.9767 422.423 103.586 418.337 103.586 422.423C103.586 426.51 98.9097 430.018 85.4691 431.777H12.989C12.989 431.777 1.29702 425.341 3.63542 418.337C5.97383 411.332 18.2452 415.408 18.2452 415.408C18.2452 415.408 -0.451527 392.614 0.717676 382.681C1.88688 372.748 25.8503 384.44 25.8503 384.44C25.8503 384.44 7.14303 337.103 10.6506 316.1C13.4104 299.531 26.2821 310.833 33.2763 317.237C31.6291 306.216 30.9489 295.071 31.2434 283.931Z" fill="white"/>
<path d="M54.4837 431.188L49.2275 270.48" stroke="white" stroke-linecap="round" stroke-linejoin="round"/>
<path d="M51.5569 363.984L24.0859 338.272" stroke="white" stroke-linecap="round" stroke-linejoin="round"/>
<path d="M38.7103 352.293L32.8643 335.934" stroke="white" stroke-linecap="round" stroke-linejoin="round"/>
<path d="M74.3457 383.851L53.3105 406.645" stroke="white" stroke-linecap="round" stroke-linejoin="round"/>
<path d="M18.25 396.711L53.3155 414.828" stroke="white" stroke-linecap="round" stroke-linejoin="round"/>
<path d="M36.9472 407.224L24.0859 406.645" stroke="white" stroke-linecap="round" stroke-linejoin="round"/>
<path d="M54.4837 431.188L49.2275 270.48" stroke="#1A377D" stroke-linecap="round" stroke-linejoin="round"/>
<path d="M51.5569 363.984L24.0859 338.272" stroke="#1A377D" stroke-linecap="round" stroke-linejoin="round"/>
<path d="M38.7103 352.293L32.8643 335.934" stroke="#1A377D" stroke-linecap="round" stroke-linejoin="round"/>
<path d="M74.3457 383.851L53.3105 406.645" stroke="#1A377D" stroke-linecap="round" stroke-linejoin="round"/>
<path d="M18.25 396.711L53.3155 414.828" stroke="#1A377D" stroke-linecap="round" stroke-linejoin="round"/>
<path d="M36.9472 407.224L24.0859 406.645" stroke="#1A377D" stroke-linecap="round" stroke-linejoin="round"/>
<g opacity="0.8">
<path d="M54.4827 431.187L49.2266 270.48" stroke="white" stroke-linecap="round" stroke-linejoin="round"/>
<path d="M51.5667 363.987L24.0957 338.275" stroke="white" stroke-linecap="round" stroke-linejoin="round"/>
<path d="M38.7093 352.292L32.8633 335.934" stroke="white" stroke-linecap="round" stroke-linejoin="round"/>
<path d="M74.3525 383.851L53.3174 406.645" stroke="white" stroke-linecap="round" stroke-linejoin="round"/>
<path d="M18.248 396.71L53.3136 414.828" stroke="white" stroke-linecap="round" stroke-linejoin="round"/>
<path d="M36.9569 407.226L24.0957 406.646" stroke="white" stroke-linecap="round" stroke-linejoin="round"/>
</g>
<path d="M156.977 398.712C156.977 415.05 144.032 428.301 144.032 428.301C144.032 428.301 131.107 415.05 131.107 398.712C131.107 382.375 144.053 369.124 144.053 369.124C144.053 369.124 156.977 382.365 156.977 398.712Z" fill="#1A377D"/>
<path d="M165.942 423.92C159.622 431.009 148.941 431.778 148.941 431.778C148.941 431.778 148.425 421.044 154.713 413.955C161.002 406.866 171.714 406.097 171.714 406.097C171.714 406.097 172.188 416.831 165.942 423.92Z" fill="#1A377D"/>
<path d="M132.961 413.712C139.555 420.506 139.523 431.25 139.523 431.25C139.523 431.25 128.79 430.965 122.185 424.161C115.581 417.356 115.623 406.623 115.623 406.623C115.623 406.623 126.357 406.907 132.961 413.712Z" fill="#1A377D"/>
<g opacity="0.5">
<path d="M156.982 398.712C156.982 415.05 144.037 428.301 144.037 428.301C144.037 428.301 131.112 415.05 131.112 398.712C131.112 382.375 144.058 369.124 144.058 369.124C144.058 369.124 156.982 382.365 156.982 398.712Z" fill="white"/>
<path d="M144.035 428.301V369.124" stroke="white" stroke-linecap="round" stroke-linejoin="round"/>
<path d="M144.035 390.159L151.282 383.829" stroke="white" stroke-linecap="round" stroke-linejoin="round"/>
<path d="M143.916 399.935L134.941 386.937" stroke="white" stroke-linecap="round" stroke-linejoin="round"/>
<path d="M144.035 405.57L154.737 396.026" stroke="white" stroke-linecap="round" stroke-linejoin="round"/>
<path d="M143.917 413.165L133.331 403.738" stroke="white" stroke-linecap="round" stroke-linejoin="round"/>
<path d="M143.915 419.726L152.194 413.164" stroke="white" stroke-linecap="round" stroke-linejoin="round"/>
<path d="M165.945 423.92C159.625 431.009 148.944 431.778 148.944 431.778C148.944 431.778 148.428 421.044 154.716 413.955C161.005 406.866 171.717 406.097 171.717 406.097C171.717 406.097 172.191 416.831 165.945 423.92Z" fill="white"/>
<path d="M148.941 431.778L171.715 406.097" stroke="white" stroke-linecap="round" stroke-linejoin="round"/>
<path d="M163.618 415.229L169.19 415.271" stroke="white" stroke-linecap="round" stroke-linejoin="round"/>
<path d="M159.81 419.42L160.916 410.33" stroke="white" stroke-linecap="round" stroke-linejoin="round"/>
<path d="M157.684 421.918L166.005 421.887" stroke="white" stroke-linecap="round" stroke-linejoin="round"/>
<path d="M154.716 425.163L153.758 416.999" stroke="white" stroke-linecap="round" stroke-linejoin="round"/>
<path d="M152.193 428.007L158.313 428.354" stroke="white" stroke-linecap="round" stroke-linejoin="round"/>
<path d="M132.959 413.712C139.553 420.506 139.521 431.25 139.521 431.25C139.521 431.25 128.788 430.965 122.183 424.161C115.579 417.356 115.621 406.623 115.621 406.623C115.621 406.623 126.355 406.907 132.959 413.712Z" fill="white"/>
<path d="M139.521 431.25L115.621 406.623" stroke="white" stroke-linecap="round" stroke-linejoin="round"/>
<path d="M124.105 415.377L124.569 409.815" stroke="white" stroke-linecap="round" stroke-linejoin="round"/>
<path d="M128.021 419.494L119.036 417.704" stroke="white" stroke-linecap="round" stroke-linejoin="round"/>
<path d="M130.334 421.791L130.934 413.502" stroke="white" stroke-linecap="round" stroke-linejoin="round"/>
<path d="M133.358 424.993L125.142 425.351" stroke="white" stroke-linecap="round" stroke-linejoin="round"/>
<path d="M136.023 427.722L136.813 421.654" stroke="white" stroke-linecap="round" stroke-linejoin="round"/>
</g>
<path d="M144.034 428.301V369.124" stroke="#1A377D" stroke-linecap="round" stroke-linejoin="round"/>
<path d="M144.034 390.159L151.281 383.829" stroke="#1A377D" stroke-linecap="round" stroke-linejoin="round"/>
<path d="M143.918 399.935L134.943 386.937" stroke="#1A377D" stroke-linecap="round" stroke-linejoin="round"/>
<path d="M144.034 405.57L154.736 396.026" stroke="#1A377D" stroke-linecap="round" stroke-linejoin="round"/>
<path d="M143.914 413.166L133.328 403.738" stroke="#1A377D" stroke-linecap="round" stroke-linejoin="round"/>
<path d="M143.921 419.726L152.2 413.164" stroke="#1A377D" stroke-linecap="round" stroke-linejoin="round"/>
<g opacity="0.7">
<path d="M144.04 428.301V369.124" stroke="white" stroke-linecap="round" stroke-linejoin="round"/>
<path d="M144.04 390.159L151.287 383.829" stroke="white" stroke-linecap="round" stroke-linejoin="round"/>
<path d="M143.927 399.935L134.952 386.937" stroke="white" stroke-linecap="round" stroke-linejoin="round"/>
<path d="M144.04 405.57L154.742 396.026" stroke="white" stroke-linecap="round" stroke-linejoin="round"/>
<path d="M143.922 413.165L133.336 403.738" stroke="white" stroke-linecap="round" stroke-linejoin="round"/>
<path d="M143.919 419.727L152.198 413.165" stroke="white" stroke-linecap="round" stroke-linejoin="round"/>
</g>
<path d="M148.943 431.777L171.716 406.097" stroke="#1A377D" stroke-linecap="round" stroke-linejoin="round"/>
<path d="M163.619 415.229L169.191 415.271" stroke="#1A377D" stroke-linecap="round" stroke-linejoin="round"/>
<path d="M159.807 419.42L160.913 410.33" stroke="#1A377D" stroke-linecap="round" stroke-linejoin="round"/>
<path d="M157.686 421.918L166.007 421.887" stroke="#1A377D" stroke-linecap="round" stroke-linejoin="round"/>
<path d="M154.712 425.162L153.754 416.999" stroke="#1A377D" stroke-linecap="round" stroke-linejoin="round"/>
<path d="M152.203 428.007L158.323 428.354" stroke="#1A377D" stroke-linecap="round" stroke-linejoin="round"/>
<g opacity="0.7">
<path d="M148.942 431.778L171.716 406.097" stroke="white" stroke-linecap="round" stroke-linejoin="round"/>
<path d="M163.62 415.229L169.192 415.271" stroke="white" stroke-linecap="round" stroke-linejoin="round"/>
<path d="M159.806 419.42L160.912 410.33" stroke="white" stroke-linecap="round" stroke-linejoin="round"/>
<path d="M157.685 421.918L166.006 421.887" stroke="white" stroke-linecap="round" stroke-linejoin="round"/>
<path d="M154.713 425.162L153.755 416.999" stroke="white" stroke-linecap="round" stroke-linejoin="round"/>
<path d="M152.194 428.007L158.314 428.354" stroke="white" stroke-linecap="round" stroke-linejoin="round"/>
</g>
<path d="M139.523 431.25L115.623 406.623" stroke="#1A377D" stroke-linecap="round" stroke-linejoin="round"/>
<path d="M124.12 415.377L124.584 409.815" stroke="#1A377D" stroke-linecap="round" stroke-linejoin="round"/>
<path d="M128.023 419.496L119.038 417.706" stroke="#1A377D" stroke-linecap="round" stroke-linejoin="round"/>
<path d="M130.342 421.792L130.942 413.502" stroke="#1A377D" stroke-linecap="round" stroke-linejoin="round"/>
<path d="M133.366 424.995L125.15 425.353" stroke="#1A377D" stroke-linecap="round" stroke-linejoin="round"/>
<path d="M136.021 427.722L136.811 421.654" stroke="#1A377D" stroke-linecap="round" stroke-linejoin="round"/>
<g opacity="0.7">
<path d="M139.521 431.25L115.621 406.623" stroke="white" stroke-linecap="round" stroke-linejoin="round"/>
<path d="M124.105 415.377L124.569 409.815" stroke="white" stroke-linecap="round" stroke-linejoin="round"/>
<path d="M128.021 419.495L119.036 417.704" stroke="white" stroke-linecap="round" stroke-linejoin="round"/>
<path d="M130.334 421.791L130.934 413.502" stroke="white" stroke-linecap="round" stroke-linejoin="round"/>
<path d="M133.358 424.993L125.142 425.351" stroke="white" stroke-linecap="round" stroke-linejoin="round"/>
<path d="M136.023 427.722L136.813 421.655" stroke="white" stroke-linecap="round" stroke-linejoin="round"/>
</g>
<path d="M448.558 118.724H163.809C163.724 118.726 163.639 118.71 163.56 118.679C163.481 118.647 163.409 118.6 163.348 118.54C163.287 118.48 163.239 118.409 163.206 118.33C163.173 118.252 163.156 118.167 163.156 118.082C163.156 117.909 163.225 117.743 163.348 117.62C163.47 117.498 163.636 117.429 163.809 117.429H448.558C448.643 117.429 448.727 117.446 448.806 117.479C448.885 117.512 448.956 117.56 449.016 117.621C449.076 117.682 449.123 117.754 449.154 117.833C449.186 117.912 449.202 117.997 449.2 118.082C449.2 118.252 449.132 118.416 449.012 118.536C448.891 118.657 448.728 118.724 448.558 118.724Z" fill="#1A377D"/>
<g opacity="0.3">
<path d="M448.56 118.725H163.811C163.726 118.726 163.641 118.711 163.562 118.679C163.483 118.647 163.411 118.6 163.35 118.54C163.289 118.481 163.241 118.409 163.208 118.331C163.175 118.252 163.158 118.168 163.158 118.082C163.158 117.909 163.227 117.743 163.349 117.62C163.472 117.498 163.638 117.429 163.811 117.429H448.56C448.645 117.429 448.729 117.446 448.808 117.479C448.887 117.512 448.958 117.56 449.018 117.621C449.077 117.682 449.125 117.754 449.156 117.833C449.188 117.912 449.203 117.997 449.202 118.082C449.202 118.253 449.134 118.416 449.014 118.537C448.893 118.657 448.73 118.725 448.56 118.725Z" fill="white"/>
</g>
<path d="M447.99 231.664H163.242C163.157 231.665 163.072 231.649 162.993 231.618C162.914 231.586 162.842 231.539 162.781 231.479C162.72 231.419 162.672 231.348 162.639 231.269C162.606 231.191 162.589 231.106 162.589 231.021C162.589 230.848 162.658 230.682 162.78 230.559C162.903 230.437 163.069 230.368 163.242 230.368H447.99C448.075 230.368 448.16 230.385 448.239 230.418C448.317 230.451 448.389 230.499 448.448 230.56C448.508 230.621 448.555 230.693 448.587 230.772C448.619 230.851 448.634 230.936 448.633 231.021C448.633 231.106 448.616 231.189 448.584 231.267C448.552 231.345 448.504 231.416 448.445 231.475C448.385 231.535 448.314 231.582 448.236 231.615C448.158 231.647 448.075 231.664 447.99 231.664Z" fill="#1A377D"/>
<g opacity="0.3">
<path d="M447.99 231.664H163.242C163.157 231.665 163.072 231.649 162.993 231.618C162.914 231.586 162.842 231.539 162.781 231.479C162.72 231.419 162.672 231.348 162.639 231.269C162.606 231.191 162.589 231.106 162.589 231.021C162.589 230.848 162.658 230.682 162.78 230.559C162.903 230.437 163.069 230.368 163.242 230.368H447.99C448.075 230.368 448.16 230.385 448.239 230.418C448.317 230.451 448.389 230.499 448.448 230.56C448.508 230.621 448.555 230.693 448.587 230.772C448.619 230.851 448.634 230.936 448.633 231.021C448.633 231.106 448.616 231.189 448.584 231.267C448.552 231.345 448.504 231.416 448.445 231.475C448.385 231.535 448.314 231.582 448.236 231.615C448.158 231.647 448.075 231.664 447.99 231.664Z" fill="white"/>
</g>
<path d="M447.99 323.988H163.242C163.069 323.988 162.903 323.919 162.78 323.797C162.658 323.674 162.589 323.508 162.589 323.335C162.589 323.25 162.606 323.165 162.639 323.087C162.672 323.008 162.72 322.937 162.781 322.877C162.842 322.817 162.914 322.77 162.993 322.738C163.072 322.707 163.157 322.691 163.242 322.693H447.99C448.075 322.693 448.158 322.709 448.236 322.741C448.314 322.774 448.385 322.821 448.445 322.881C448.504 322.94 448.552 323.011 448.584 323.089C448.616 323.167 448.633 323.251 448.633 323.335C448.634 323.42 448.619 323.505 448.587 323.584C448.555 323.663 448.508 323.735 448.448 323.796C448.389 323.857 448.317 323.905 448.239 323.938C448.16 323.971 448.075 323.988 447.99 323.988Z" fill="#1A377D"/>
<g opacity="0.3">
<path d="M447.99 323.988H163.242C163.069 323.988 162.903 323.919 162.78 323.797C162.658 323.674 162.589 323.508 162.589 323.335C162.589 323.25 162.606 323.165 162.639 323.087C162.672 323.008 162.72 322.937 162.781 322.877C162.842 322.817 162.914 322.77 162.993 322.738C163.072 322.707 163.157 322.691 163.242 322.693H447.99C448.075 322.693 448.158 322.709 448.236 322.741C448.314 322.774 448.385 322.821 448.445 322.881C448.504 322.94 448.552 323.011 448.584 323.089C448.616 323.167 448.633 323.251 448.633 323.335C448.634 323.42 448.619 323.505 448.587 323.584C448.555 323.663 448.508 323.735 448.448 323.796C448.389 323.857 448.317 323.905 448.239 323.938C448.16 323.971 448.075 323.988 447.99 323.988Z" fill="white"/>
</g>
<path d="M223.776 339.61V435.696" stroke="#4E4D4D" stroke-width="0.265171" stroke-miterlimit="10"/>
<path d="M237.495 339.61V435.696" stroke="#4E4D4D" stroke-width="0.265171" stroke-miterlimit="10"/>
<path d="M251.227 339.61V435.696" stroke="#4E4D4D" stroke-width="0.265171" stroke-miterlimit="10"/>
<path d="M264.948 339.61V435.696" stroke="#4E4D4D" stroke-width="0.265171" stroke-miterlimit="10"/>
<path d="M278.679 339.61V435.696" stroke="#4E4D4D" stroke-width="0.265171" stroke-miterlimit="10"/>
<path d="M292.4 339.61V435.696" stroke="#4E4D4D" stroke-width="0.265171" stroke-miterlimit="10"/>
<path d="M306.129 339.61V435.696" stroke="#4E4D4D" stroke-width="0.265171" stroke-miterlimit="10"/>
<path d="M319.848 339.61V435.696" stroke="#4E4D4D" stroke-width="0.265171" stroke-miterlimit="10"/>
<path d="M333.579 339.61V435.696" stroke="#4E4D4D" stroke-width="0.265171" stroke-miterlimit="10"/>
<path d="M347.298 339.61V435.696" stroke="#4E4D4D" stroke-width="0.265171" stroke-miterlimit="10"/>
<path d="M361.029 339.61V435.696" stroke="#4E4D4D" stroke-width="0.265171" stroke-miterlimit="10"/>
<path d="M374.749 339.61V435.696" stroke="#4E4D4D" stroke-width="0.265171" stroke-miterlimit="10"/>
<path d="M224.462 348.53H374.067" stroke="#4E4D4D" stroke-width="0.265171" stroke-miterlimit="10"/>
<path d="M224.462 361.572H374.067" stroke="#4E4D4D" stroke-width="0.265171" stroke-miterlimit="10"/>
<path d="M224.462 374.612H374.067" stroke="#4E4D4D" stroke-width="0.265171" stroke-miterlimit="10"/>
<path d="M224.462 387.653H374.067" stroke="#4E4D4D" stroke-width="0.265171" stroke-miterlimit="10"/>
<path d="M224.462 400.694H374.067" stroke="#4E4D4D" stroke-width="0.265171" stroke-miterlimit="10"/>
<path d="M224.462 413.734H374.067" stroke="#4E4D4D" stroke-width="0.265171" stroke-miterlimit="10"/>
<path d="M224.462 426.775H374.067" stroke="#4E4D4D" stroke-width="0.265171" stroke-miterlimit="10"/>
<path d="M255.895 373.317L235.818 435.211H277.868L257.78 373.317C257.716 373.117 257.59 372.943 257.421 372.819C257.252 372.696 257.047 372.629 256.838 372.629C256.628 372.629 256.424 372.696 256.254 372.819C256.085 372.943 255.959 373.117 255.895 373.317Z" fill="#1A377D" stroke="#4E4D4D" stroke-width="1.06068" stroke-miterlimit="10"/>
<path d="M294.173 352.818L267.45 435.21H322.814L296.059 352.818C295.995 352.619 295.869 352.444 295.699 352.321C295.53 352.197 295.326 352.131 295.116 352.131C294.906 352.131 294.702 352.197 294.533 352.321C294.363 352.444 294.237 352.619 294.173 352.818Z" fill="#4E4D4D" stroke="#4E4D4D" stroke-width="1.06068" stroke-miterlimit="10"/>
<path d="M329.393 387.475L313.898 435.213H346.762L331.236 387.475C331.164 387.29 331.037 387.131 330.872 387.019C330.708 386.907 330.514 386.847 330.315 386.847C330.116 386.847 329.921 386.907 329.757 387.019C329.593 387.131 329.466 387.29 329.393 387.475Z" fill="#1A377D" stroke="#4E4D4D" stroke-width="1.06068" stroke-miterlimit="10"/>
<path d="M350.616 403.864L340.451 435.211H362.666L352.501 403.864C352.437 403.664 352.311 403.49 352.142 403.366C351.973 403.243 351.768 403.176 351.559 403.176C351.349 403.176 351.145 403.243 350.975 403.366C350.806 403.49 350.68 403.664 350.616 403.864Z" fill="#4E4D4D" stroke="#4E4D4D" stroke-width="1.06068" stroke-miterlimit="10"/>
<path d="M221.97 309.24C215.947 309.24 210.059 307.454 205.051 304.108C200.044 300.761 196.14 296.005 193.836 290.441C191.531 284.877 190.928 278.754 192.103 272.847C193.278 266.94 196.178 261.514 200.437 257.255C204.696 252.996 210.122 250.096 216.029 248.921C221.936 247.746 228.059 248.349 233.623 250.654C239.187 252.959 243.943 256.862 247.289 261.869C250.635 266.877 252.421 272.765 252.421 278.788C252.413 286.861 249.202 294.602 243.493 300.311C237.784 306.02 230.043 309.231 221.97 309.24ZM221.97 257.279C217.716 257.281 213.558 258.544 210.023 260.909C206.487 263.273 203.732 266.633 202.105 270.564C200.479 274.494 200.054 278.819 200.886 282.99C201.717 287.162 203.766 290.994 206.775 294.001C209.783 297.008 213.616 299.055 217.788 299.884C221.96 300.713 226.284 300.287 230.214 298.658C234.143 297.03 237.502 294.273 239.865 290.736C242.228 287.199 243.489 283.041 243.489 278.788C243.484 273.083 241.214 267.614 237.179 263.581C233.145 259.548 227.674 257.281 221.97 257.279Z" fill="#4E4D4D" stroke="#4E4D4D" stroke-width="1.06068" stroke-miterlimit="10"/>
<path d="M221.968 309.239C217.859 309.252 213.789 308.426 210.01 306.813C206.23 305.199 202.819 302.831 199.985 299.854L206.442 293.671C208.443 295.774 210.852 297.447 213.522 298.586C216.191 299.725 219.066 300.307 221.968 300.297C224.793 300.297 227.59 299.74 230.2 298.659C232.809 297.578 235.18 295.994 237.178 293.997C239.175 291.999 240.759 289.628 241.84 287.019C242.921 284.409 243.478 281.612 243.478 278.787C243.478 275.963 242.921 273.166 241.84 270.556C240.759 267.947 239.175 265.576 237.178 263.578C235.18 261.581 232.809 259.997 230.2 258.916C227.59 257.835 224.793 257.278 221.968 257.278V248.336C225.967 248.336 229.927 249.123 233.622 250.654C237.316 252.184 240.674 254.427 243.501 257.255C246.329 260.082 248.572 263.439 250.102 267.134C251.633 270.829 252.42 274.788 252.42 278.787C252.42 282.786 251.633 286.746 250.102 290.441C248.572 294.136 246.329 297.493 243.501 300.32C240.674 303.148 237.316 305.391 233.622 306.921C229.927 308.452 225.967 309.239 221.968 309.239Z" fill="#1A377D" stroke="#4E4D4D" stroke-width="1.06068" stroke-miterlimit="10"/>
<path d="M297.076 309.239C291.052 309.242 285.164 307.457 280.155 304.113C275.146 300.768 271.241 296.012 268.934 290.448C266.628 284.884 266.023 278.761 267.197 272.853C268.371 266.945 271.27 261.518 275.529 257.258C279.787 252.999 285.213 250.097 291.12 248.921C297.028 247.746 303.151 248.348 308.716 250.653C314.281 252.957 319.038 256.86 322.384 261.868C325.731 266.876 327.517 272.764 327.517 278.788C327.509 286.859 324.299 294.599 318.592 300.307C312.886 306.016 305.148 309.228 297.076 309.239ZM297.076 257.278C292.823 257.283 288.666 258.548 285.132 260.914C281.597 263.28 278.844 266.64 277.219 270.571C275.594 274.502 275.171 278.826 276.004 282.997C276.836 287.168 278.886 290.998 281.895 294.004C284.904 297.01 288.737 299.057 292.908 299.885C297.08 300.713 301.404 300.286 305.333 298.657C309.262 297.029 312.62 294.272 314.982 290.735C317.345 287.198 318.606 283.041 318.606 278.788C318.598 273.082 316.326 267.613 312.289 263.58C308.253 259.548 302.781 257.281 297.076 257.278Z" fill="#4E4D4D" stroke="#4E4D4D" stroke-width="1.06068" stroke-miterlimit="10"/>
<path d="M308.918 306.838L305.442 298.611C310.01 296.675 313.769 293.22 316.082 288.831C318.395 284.441 319.12 279.388 318.135 274.525C317.15 269.662 314.515 265.289 310.676 262.147C306.837 259.004 302.03 257.284 297.068 257.278V248.336C304.095 248.336 310.905 250.767 316.344 255.215C321.783 259.663 325.516 265.856 326.911 272.742C328.306 279.629 327.276 286.786 323.997 293C320.718 299.214 315.391 304.103 308.918 306.838Z" fill="#1A377D" stroke="#4E4D4D" stroke-width="1.06068" stroke-miterlimit="10"/>
<path d="M372.17 309.239C366.147 309.239 360.259 307.454 355.252 304.107C350.244 300.761 346.341 296.005 344.036 290.441C341.731 284.877 341.128 278.754 342.303 272.847C343.478 266.94 346.378 261.514 350.637 257.255C354.896 252.996 360.322 250.096 366.229 248.921C372.136 247.746 378.259 248.349 383.823 250.654C389.388 252.958 394.143 256.862 397.49 261.869C400.836 266.877 402.622 272.765 402.622 278.788C402.613 286.861 399.402 294.602 393.693 300.311C387.984 306.02 380.244 309.231 372.17 309.239ZM372.17 257.278C367.916 257.278 363.757 258.54 360.22 260.903C356.683 263.267 353.926 266.626 352.298 270.556C350.67 274.487 350.244 278.811 351.074 282.984C351.904 287.156 353.952 290.989 356.96 293.997C359.969 297.005 363.801 299.053 367.973 299.883C372.146 300.713 376.471 300.287 380.401 298.659C384.331 297.031 387.69 294.275 390.054 290.737C392.417 287.2 393.679 283.042 393.679 278.788C393.673 273.085 391.405 267.617 387.373 263.584C383.34 259.552 377.873 257.284 372.17 257.278Z" fill="#4E4D4D" stroke="#4E4D4D" stroke-width="1.06068" stroke-miterlimit="10"/>
<path d="M393.244 274.5C392.245 269.647 389.605 265.285 385.769 262.149C381.932 259.013 377.133 257.293 372.178 257.278V248.336C379.196 248.353 385.994 250.787 391.429 255.228C396.863 259.669 400.603 265.846 402.019 272.72L393.244 274.5Z" fill="#1A377D" stroke="#4E4D4D" stroke-width="1.06068" stroke-miterlimit="10"/>
<path d="M234.119 214.62H377.131" stroke="#4E4D4D" stroke-width="1.06068" stroke-miterlimit="10"/>
<path d="M234.119 214.621V211.577" stroke="#4E4D4D" stroke-width="1.06068" stroke-miterlimit="10"/>
<path d="M262.715 214.62V211.576" stroke="#4E4D4D" stroke-width="1.06068" stroke-miterlimit="10"/>
<path d="M291.318 214.621V211.577" stroke="#4E4D4D" stroke-width="1.06068" stroke-miterlimit="10"/>
<path d="M319.925 214.62V211.576" stroke="#4E4D4D" stroke-width="1.06068" stroke-miterlimit="10"/>
<path d="M348.521 214.621V211.577" stroke="#4E4D4D" stroke-width="1.06068" stroke-miterlimit="10"/>
<path d="M377.127 214.621V211.577" stroke="#4E4D4D" stroke-width="1.06068" stroke-miterlimit="10"/>
<path d="M258.711 173.972H238.118V198.357H258.711V173.972Z" fill="#1A377D" stroke="#4E4D4D" stroke-width="1.06068" stroke-miterlimit="10"/>
<path d="M287.314 145.522H266.722V202.423H287.314V145.522Z" fill="#1A377D" stroke="#4E4D4D" stroke-width="1.06068" stroke-miterlimit="10"/>
<path d="M315.919 105.695H295.326V169.106H315.919V105.695Z" fill="#1A377D" stroke="#4E4D4D" stroke-width="1.06068" stroke-miterlimit="10"/>
<path d="M344.517 165.042H323.924V177.239H344.517V165.042Z" fill="#1A377D" stroke="#4E4D4D" stroke-width="1.06068" stroke-miterlimit="10"/>
<path d="M373.112 157.72H352.52V189.426H373.112V157.72Z" fill="#1A377D" stroke="#4E4D4D" stroke-width="1.06068" stroke-miterlimit="10"/>
<path d="M258.711 198.369H238.118V214.633H258.711V198.369Z" fill="#4E4D4D" stroke="#4E4D4D" stroke-width="1.06068" stroke-miterlimit="10"/>
<path d="M287.314 202.434H266.722V214.631H287.314V202.434Z" fill="#4E4D4D" stroke="#4E4D4D" stroke-width="1.06068" stroke-miterlimit="10"/>
<path d="M315.919 169.096H295.326V214.621H315.919V169.096Z" fill="#4E4D4D" stroke="#4E4D4D" stroke-width="1.06068" stroke-miterlimit="10"/>
<path d="M344.517 177.229H323.924V214.622H344.517V177.229Z" fill="#4E4D4D" stroke="#4E4D4D" stroke-width="1.06068" stroke-miterlimit="10"/>
<path d="M373.112 189.425H352.52V214.62H373.112V189.425Z" fill="#4E4D4D" stroke="#4E4D4D" stroke-width="1.06068" stroke-miterlimit="10"/>
<path d="M415.238 94.1821C414.99 94.1838 414.746 94.1241 414.527 94.0083C414.308 93.8925 414.122 93.7242 413.984 93.5185L369.681 28.9068L324.735 76.8336L278.841 46.9189L234.443 57.2205L189.35 93.845C189.037 94.0992 188.636 94.2187 188.235 94.1772C187.834 94.1358 187.466 93.9367 187.211 93.6238C186.957 93.3109 186.838 92.9098 186.879 92.5088C186.921 92.1078 187.12 91.7397 187.433 91.4855L233.074 54.4186L279.42 43.6641L324.271 72.9047L370.06 24.072L416.491 91.8015C416.648 92.0288 416.741 92.2948 416.758 92.5708C416.775 92.8467 416.717 93.1222 416.589 93.3673C416.461 93.6124 416.268 93.8178 416.032 93.9614C415.796 94.1051 415.525 94.1814 415.248 94.1821H415.238Z" fill="#4E4D4D"/>
<path d="M192.201 92.6639C192.201 93.4076 191.981 94.1346 191.568 94.753C191.155 95.3714 190.567 95.8534 189.88 96.138C189.193 96.4226 188.437 96.4971 187.707 96.352C186.978 96.2069 186.308 95.8488 185.782 95.3229C185.256 94.797 184.898 94.1269 184.753 93.3975C184.608 92.668 184.682 91.9119 184.967 91.2248C185.252 90.5377 185.733 89.9504 186.352 89.5372C186.97 89.124 187.697 88.9034 188.441 88.9034C189.438 88.9034 190.395 89.2996 191.1 90.0048C191.805 90.71 192.201 91.6665 192.201 92.6639Z" fill="#1A377D"/>
<path d="M233.755 59.5788C235.831 59.5788 237.515 57.8952 237.515 55.8184C237.515 53.7416 235.831 52.058 233.755 52.058C231.678 52.058 229.994 53.7416 229.994 55.8184C229.994 57.8952 231.678 59.5788 233.755 59.5788Z" fill="#1A377D"/>
<path d="M279.123 49.0468C281.2 49.0468 282.883 47.3632 282.883 45.2864C282.883 43.2096 281.2 41.526 279.123 41.526C277.046 41.526 275.362 43.2096 275.362 45.2864C275.362 47.3632 277.046 49.0468 279.123 49.0468Z" fill="#1A377D"/>
<path d="M324.489 78.6246C326.566 78.6246 328.249 76.941 328.249 74.8642C328.249 72.7874 326.566 71.1038 324.489 71.1038C322.412 71.1038 320.729 72.7874 320.729 74.8642C320.729 76.941 322.412 78.6246 324.489 78.6246Z" fill="#1A377D"/>
<path d="M373.612 26.4947C373.612 27.2384 373.391 27.9654 372.978 28.5838C372.565 29.2022 371.977 29.6842 371.29 29.9688C370.603 30.2534 369.847 30.3279 369.118 30.1828C368.388 30.0377 367.718 29.6796 367.192 29.1537C366.666 28.6278 366.308 27.9577 366.163 27.2283C366.018 26.4988 366.092 25.7427 366.377 25.0556C366.662 24.3685 367.144 23.7812 367.762 23.368C368.38 22.9548 369.107 22.7343 369.851 22.7343C370.849 22.7343 371.805 23.1304 372.51 23.8357C373.215 24.5409 373.612 25.4973 373.612 26.4947Z" fill="#1A377D"/>
<path d="M418.989 92.6639C418.989 93.4076 418.768 94.1346 418.355 94.753C417.942 95.3714 417.354 95.8534 416.667 96.138C415.98 96.4226 415.224 96.4971 414.495 96.352C413.765 96.2069 413.095 95.8488 412.569 95.3229C412.043 94.797 411.685 94.1269 411.54 93.3975C411.395 92.668 411.469 91.9119 411.754 91.2248C412.039 90.5377 412.521 89.9504 413.139 89.5372C413.757 89.124 414.484 88.9034 415.228 88.9034C416.226 88.9034 417.182 89.2996 417.887 90.0048C418.592 90.71 418.989 91.6665 418.989 92.6639Z" fill="#1A377D"/>
<path d="M496.329 451.073C536.481 451.073 569.03 446.701 569.03 441.308C569.03 435.915 536.481 431.544 496.329 431.544C456.177 431.544 423.628 435.915 423.628 441.308C423.628 446.701 456.177 451.073 496.329 451.073Z" fill="#1A377D"/>
<path opacity="0.7" d="M496.329 451.073C536.481 451.073 569.03 446.701 569.03 441.308C569.03 435.915 536.481 431.544 496.329 431.544C456.177 431.544 423.628 435.915 423.628 441.308C423.628 446.701 456.177 451.073 496.329 451.073Z" fill="white"/>
<path d="M98.0117 451.073C135.063 451.073 165.099 446.701 165.099 441.308C165.099 435.915 135.063 431.544 98.0117 431.544C60.9607 431.544 30.9248 435.915 30.9248 441.308C30.9248 446.701 60.9607 451.073 98.0117 451.073Z" fill="#1A377D"/>
<path opacity="0.7" d="M98.0117 451.073C135.063 451.073 165.099 446.701 165.099 441.308C165.099 435.915 135.063 431.544 98.0117 431.544C60.9607 431.544 30.9248 435.915 30.9248 441.308C30.9248 446.701 60.9607 451.073 98.0117 451.073Z" fill="white"/>
<path d="M475.828 97.3116C475.828 97.3116 503.446 94.6361 505.026 99.2392C506.606 103.842 506.08 114.355 506.08 114.355C507.471 114.716 508.828 115.199 510.135 115.798C510.504 116.156 514.591 118.831 510.778 123.224C509.782 124.337 508.575 125.243 507.228 125.889C505.546 126.633 503.947 127.551 502.456 128.627L496.916 134.916L497.969 143.016C497.969 143.016 500.444 144.807 503.467 151.053C503.467 151.053 510.609 155.266 514.801 157.657C518.249 159.469 521.834 161.004 525.524 162.25C525.524 162.25 527.441 162.871 527.304 164.251C527.168 165.631 517.761 196.904 517.761 196.904L512.811 212.705C512.717 214.646 512.463 216.577 512.052 218.477C511.346 221.879 508.692 224.112 505.943 223.417L506.217 235.004C506.217 235.004 493.303 241.461 472.004 240.365C472.004 240.365 461.977 239.396 454.561 233.908L454.424 206.837L420.254 200.222C420.254 200.222 415.925 199.306 418.147 195.409C420.37 191.511 427.838 181.842 427.838 181.842L451.843 152.475C451.843 152.475 453.497 150.526 454.108 149.905C454.719 149.283 456.215 148.851 462.145 148.356C468.075 147.861 474.722 146.713 474.722 146.713C474.722 146.713 478.324 143.616 478.84 143.616C479.357 143.616 479.462 138.982 479.462 138.982C477.64 137.667 476.125 135.973 475.021 134.016C473.918 132.06 473.251 129.887 473.068 127.648C472.552 120.127 475.849 102.505 475.849 102.505L475.828 97.3116Z" fill="white"/>
<path d="M454.972 233.804C454.972 233.804 452.064 276.991 452.064 297.657C452.064 318.323 453.36 335.061 454.003 349.576C454.645 364.091 452.064 374.087 454.319 384.726C456.573 395.364 461.745 426.333 461.745 426.333L467.822 429.998C467.822 429.998 468.876 405.361 471.088 396.66C473.3 387.959 473.995 351.188 475.301 339.896C476.607 328.604 480.789 288.619 480.789 288.619C480.789 288.619 496.916 330.542 500.802 346.995C504.689 363.448 517.898 400.526 520.816 409.553C523.733 418.58 528.231 431.957 528.231 431.957C529.598 432.357 531.033 432.465 532.444 432.273C533.054 432.224 533.641 432.021 534.15 431.682C534.658 431.342 535.072 430.879 535.352 430.335C535.352 430.335 531.065 403.328 529.179 390.203C526.851 373.971 523.059 349.576 520.752 340.549C518.446 331.522 514.949 317.323 514.949 310.55C514.949 303.777 506.248 235.763 506.248 235.763C506.248 235.763 475.933 248.961 454.972 233.804Z" fill="#4E4D4D"/>
<path d="M480.774 288.619L467.839 273.535" stroke="white" stroke-width="0.530341" stroke-miterlimit="10" stroke-linecap="round"/>
<path d="M464.526 274.641L475.176 284.553" stroke="white" stroke-width="0.530341" stroke-miterlimit="10" stroke-linecap="round"/>
<path d="M487.298 275.747C490.025 268.848 495.092 263.128 501.613 259.589" stroke="white" stroke-width="0.530341" stroke-miterlimit="10" stroke-linecap="round"/>
<path d="M502.336 239.408C502.336 239.408 500.872 244.906 502.705 248.214C504.538 251.521 506.381 251.521 506.381 251.521C506.381 251.521 509.678 269.502 509.678 279.782C509.678 290.063 507.476 291.158 509.678 302.534C511.879 313.91 513.354 317.587 513.354 324.191C513.354 330.795 516.282 335.209 518.852 339.243C521.423 343.277 522.16 355.043 522.16 359.794C522.16 364.544 523.624 369.706 525.099 374.477C525.099 374.477 525.446 385.179 527.3 387.686C529.154 390.193 529.502 398.704 529.502 398.704" stroke="white" stroke-width="0.530341" stroke-miterlimit="10" stroke-linecap="round"/>
<path d="M478.112 287.124C478.112 287.124 478.839 295.55 476.269 310.244C473.699 324.938 471.866 328.962 471.497 345.847C471.129 362.732 472.603 365.671 471.866 374.477C471.129 383.283 466.726 397.197 466.726 403.517C466.726 409.837 467.4 430.04 467.4 430.04" stroke="white" stroke-width="0.530341" stroke-miterlimit="10" stroke-linecap="round"/>
<path d="M470.042 241.608L470.779 244.547L475.551 245.642L474.814 241.977" stroke="white" stroke-width="0.530341" stroke-miterlimit="10" stroke-linecap="round"/>
<path d="M475.573 245.643C475.573 245.643 484.379 245.274 488.782 243.81L487.729 240.871" stroke="white" stroke-width="0.530341" stroke-miterlimit="10" stroke-linecap="round"/>
<path d="M491.694 240.135L492.748 243.811C492.748 243.811 499.794 243.411 500.848 242.357" stroke="white" stroke-width="0.530341" stroke-miterlimit="10" stroke-linecap="round"/>
<path d="M470.781 244.548C468.346 244.472 465.962 243.841 463.807 242.705L460.5 240.872L461.553 238.302" stroke="white" stroke-width="0.530341" stroke-miterlimit="10" stroke-linecap="round"/>
<path d="M461.747 426.331C461.747 426.331 445.947 436.643 443.682 441.478C441.417 446.312 450.455 444.385 456.901 441.804C463.348 439.223 467.435 429.996 467.435 429.996L461.747 426.331Z" fill="white" stroke="#4E4D4D" stroke-width="1.06068" stroke-miterlimit="10" stroke-linecap="round"/>
<path d="M528.746 432.093C529.543 436.511 531.112 440.754 533.381 444.628C536.857 450.032 543.419 454.666 543.419 446.166C543.419 437.665 535.319 430.366 535.319 430.366C535.319 430.366 531.295 432.546 528.746 432.093Z" fill="white" stroke="#4E4D4D" stroke-width="1.06068" stroke-miterlimit="10" stroke-linecap="round"/>
<path d="M475.723 103.147C475.723 103.147 472.299 124.382 473.458 129.649C476.102 141.436 485.382 140.93 491.186 138.676C496.611 136.569 502.025 129.122 502.72 128.143C502.769 128.074 502.839 128.022 502.92 127.995C503.784 127.753 509.145 126.047 511.505 121.907C514.085 117.388 509.25 115.461 509.25 115.461" fill="white"/>
<mask id="mask0_819_7162" style="mask-type:luminance" maskUnits="userSpaceOnUse" x="473" y="103" width="40" height="37">
<path d="M475.724 103.148C475.724 103.148 472.3 124.383 473.459 129.65C476.103 141.436 485.383 140.931 491.187 138.677C496.611 136.57 502.026 129.123 502.721 128.143C502.77 128.074 502.84 128.023 502.921 127.996C503.785 127.754 509.146 126.047 511.506 121.908C514.086 117.389 509.251 115.461 509.251 115.461" fill="white"/>
</mask>
<g mask="url(#mask0_819_7162)">
<g style="mix-blend-mode:multiply" opacity="0.5">
<path d="M497.686 133.609L502.805 127.984C502.805 127.984 508.862 126.12 511.506 121.854C513.054 119.357 512.201 117.177 511.264 116.587C509.979 115.891 508.653 115.276 507.293 114.744L505.576 118.525L504.112 118.778C504.112 118.778 504.723 114.881 502.953 112.574C501.183 110.267 500.783 103.589 500.783 103.589C500.783 103.589 498.308 116.903 498.002 122.475C497.924 125.576 496.955 128.589 495.211 131.155C495.211 131.155 495.527 134.557 496.138 137.959C496.212 138.359 496.285 138.96 496.359 139.708L497.202 138.359L497.665 139.644C497.138 137.432 496.896 135.083 497.686 133.609Z" fill="#1A377D"/>
</g>
</g>
<path d="M475.723 103.147C475.723 103.147 472.299 124.382 473.458 129.649C476.102 141.436 485.382 140.93 491.186 138.676C496.611 136.569 502.025 129.122 502.72 128.143C502.769 128.074 502.839 128.022 502.92 127.995C503.784 127.753 509.145 126.047 511.505 121.907C514.085 117.388 509.25 115.461 509.25 115.461" stroke="#4E4D4D" stroke-width="1.06068" stroke-miterlimit="10" stroke-linecap="round"/>
<path d="M488.829 113.944C488.629 114.786 488.829 115.545 489.218 115.639C489.608 115.734 490.135 115.144 490.335 114.312C490.535 113.48 490.335 112.722 489.945 112.616C489.556 112.511 489.029 113.111 488.829 113.944Z" fill="#4E4D4D"/>
<path d="M479.78 111.744C479.58 112.587 479.78 113.345 480.17 113.44C480.559 113.535 481.086 112.945 481.286 112.113C481.486 111.281 481.286 110.512 480.896 110.417C480.507 110.322 479.969 110.902 479.78 111.744Z" fill="#4E4D4D"/>
<path d="M494.445 110.258C493.947 109.382 493.238 108.645 492.383 108.113C491.527 107.581 490.552 107.272 489.547 107.214" stroke="#4E4D4D" stroke-width="1.06068" stroke-miterlimit="10" stroke-linecap="round"/>
<path d="M482.617 107.371C481.788 107.009 480.868 106.907 479.98 107.081C479.092 107.254 478.278 107.693 477.646 108.34" stroke="#4E4D4D" stroke-width="1.06068" stroke-miterlimit="10" stroke-linecap="round"/>
<path d="M483.233 111.206C483.252 112.617 483.147 114.027 482.917 115.419C482.569 117.178 481.2 117.526 481.547 118.884C481.895 120.243 483.654 120.38 483.654 120.38" stroke="#4E4D4D" stroke-width="1.06068" stroke-miterlimit="10" stroke-linecap="round"/>
<path d="M485.477 125.867C486.222 126.105 487.01 126.178 487.787 126.082C488.563 125.985 489.309 125.722 489.974 125.309" stroke="#4E4D4D" stroke-width="1.06068" stroke-miterlimit="10" stroke-linecap="round"/>
<path d="M502.169 88.3177C502.169 88.3177 495.08 82.1873 488.307 82.1873C481.534 82.1873 476.046 86.0635 471.854 86.4006C467.662 86.7377 464.765 82.8509 462.184 88.0122C459.604 93.1735 469.284 101.885 475.73 103.17C482.177 104.455 491.204 102.527 493.784 102.201C496.257 102.031 498.738 102.031 501.21 102.201C501.21 102.201 499.272 108.331 501.21 110.269C503.149 112.207 503.465 113.492 503.465 114.777C503.575 116.196 503.79 117.604 504.107 118.991L506.045 119.644L507.014 116.094C509.629 113.306 511.416 109.844 512.176 106.098C513.134 100.294 508.299 94.5113 508.299 94.5113L502.169 88.3177Z" fill="#4E4D4D"/>
<path d="M475.01 100.523C475.01 100.523 486.038 102.63 494.676 99.0383C503.313 95.4464 495.866 88.3153 495.866 88.3153" stroke="white" stroke-width="0.530341" stroke-miterlimit="10" stroke-linecap="round"/>
<path d="M497.684 87.7161C498.579 87.7161 506.026 93.3725 504.53 97.5437C503.035 101.715 500.064 102.02 500.064 102.02" stroke="white" stroke-width="0.530341" stroke-miterlimit="10" stroke-linecap="round"/>
<path d="M496.462 215.665L487.151 210.757C484.758 210.624 482.378 210.314 480.03 209.83C477.86 209.208 455.593 207.08 455.593 207.08L455.256 212.347C455.256 212.347 480.652 215.76 485.908 216.381C491.164 217.003 495.82 219.478 496.747 221.027C497.674 222.575 499.538 224.123 498.611 228.4C497.684 232.677 491.491 238.933 491.491 238.933C491.196 238.491 506.385 237.395 506.237 235.773C505.911 232.55 504.194 223.133 504.194 223.133L496.462 215.665Z" fill="#1A377D"/>
<path opacity="0.5" d="M496.462 215.665L487.151 210.757C484.758 210.624 482.378 210.314 480.03 209.83C477.86 209.208 455.593 207.08 455.593 207.08L455.256 212.347C455.256 212.347 480.652 215.76 485.908 216.381C491.164 217.003 495.82 219.478 496.747 221.027C497.674 222.575 499.538 224.123 498.611 228.4C497.684 232.677 491.491 238.933 491.491 238.933C491.248 238.459 506.416 237.385 506.237 235.773C505.742 231.665 504.194 223.133 504.194 223.133L496.462 215.665Z" fill="white"/>
<path d="M527.186 164.135C526.364 160.28 520.234 160.796 516.537 158.658C512.84 156.52 503.897 151.569 503.897 151.569L499.568 145.06C498.786 143.304 498.155 141.486 497.682 139.624L497.219 138.339L496.376 139.688C496.913 145.46 497.429 160.238 497.429 160.238L499.283 169.529C499.283 169.529 506.414 200.181 508.268 206.996C510.122 213.811 510.122 218.445 508.89 220.615C507.657 222.785 508.068 223.775 508.068 223.775C508.068 223.775 512.903 220.036 512.608 216.328C512.218 211.967 527.765 166.748 527.186 164.135Z" fill="#1A377D"/>
<path opacity="0.5" d="M527.186 164.135C526.765 160.217 520.234 160.796 516.537 158.658C512.84 156.52 503.897 151.569 503.897 151.569L499.568 145.06C498.786 143.304 498.155 141.486 497.682 139.624L497.219 138.339L496.376 139.688C496.913 145.46 497.429 160.238 497.429 160.238L499.283 169.529C499.283 169.529 506.414 200.181 508.268 206.996C510.122 213.811 510.122 218.445 508.89 220.615C507.657 222.785 508.068 223.775 508.068 223.775C508.068 223.775 513.04 220.025 512.608 216.328C512.113 212.357 527.565 167.39 527.186 164.135Z" fill="white"/>
<path d="M500.121 160.272C500.121 160.272 498.183 142.86 497.214 138.342C496.245 133.823 496.898 131.253 492.706 131.253C488.514 131.253 483.352 130.6 484.279 132.864C485.206 135.129 491.652 133.18 492.706 134.149C493.759 135.118 493.022 137.373 493.022 137.373C493.022 137.373 484.595 138.026 484.595 140.28C484.595 142.534 484.922 148.706 486.533 149.307C488.145 149.907 488.787 146.41 488.787 146.41C488.787 146.41 489.114 153.784 490.726 156.406C491.752 158.026 492.941 159.537 494.275 160.915L500.121 160.272Z" fill="white" stroke="#4E4D4D" stroke-width="1.06068" stroke-miterlimit="10" stroke-linecap="round"/>
<path d="M494.311 165.105C494.311 165.105 493.342 205.131 494.954 211.546C496.565 217.961 505.277 226.704 509.785 222.511C514.293 218.319 512.05 209.292 512.05 205.1C512.05 200.908 501.727 169.95 501.727 167.685C501.573 165.805 501.137 163.958 500.431 162.208" stroke="#4E4D4D" stroke-width="1.06068" stroke-miterlimit="10" stroke-linecap="round"/>
<path d="M494.964 169.951L501.41 169.298" stroke="#4E4D4D" stroke-width="1.06068" stroke-miterlimit="10" stroke-linecap="round"/>
<path d="M453.733 189.963L454.976 154.35C454.976 154.35 453.427 153.423 452.806 156.826C452.184 160.228 451.879 167.053 451.879 167.053C451.879 167.053 444.442 162.408 446.307 165.189C448.171 167.97 451.257 174.174 451.257 174.174L439.755 185.624L445.022 187.794L453.733 189.963Z" fill="#1A377D"/>
<path opacity="0.5" d="M453.733 189.963L454.976 154.35C454.976 154.35 453.427 153.423 452.806 156.826C452.184 160.228 451.879 167.053 451.879 167.053C451.879 167.053 444.442 162.408 446.307 165.189C448.171 167.97 451.257 174.174 451.257 174.174L439.755 185.624L445.022 187.794L453.733 189.963Z" fill="white"/>
<path d="M469.149 162.304C469.149 162.304 468.56 164.411 471.035 164.411C473.51 164.411 477.86 162.652 477.86 162.652L477.544 159.155C477.544 159.155 471.593 162.051 469.149 162.304Z" fill="#1A377D"/>
<path opacity="0.5" d="M469.149 162.304C469.149 162.304 468.56 164.411 471.035 164.411C473.51 164.411 477.86 162.652 477.86 162.652L477.544 159.155C477.544 159.155 471.593 162.051 469.149 162.304Z" fill="white"/>
<path d="M479.785 138.752C479.785 138.752 476.562 157.712 478.5 161.925C480.438 166.138 483.335 165.148 485.589 163.221C487.843 161.293 490.75 156.448 490.75 156.448" stroke="#4E4D4D" stroke-width="1.06068" stroke-miterlimit="10" stroke-linecap="round"/>
<path d="M454.326 207.353L454.979 233.802C454.979 233.802 462.353 240.891 476.583 240.891C490.814 240.891 506.256 235.73 506.256 235.73V226.376" stroke="#4E4D4D" stroke-width="1.06068" stroke-miterlimit="10" stroke-linecap="round"/>
<path d="M497.868 142.531C497.868 142.531 503.672 148.335 503.672 153.823C503.672 159.311 502.703 160.596 502.703 160.596" stroke="#4E4D4D" stroke-width="1.06068" stroke-miterlimit="10" stroke-linecap="round"/>
<path d="M503.021 150.601C503.021 150.601 511.732 155.751 516.566 158.659C521.401 161.566 527.216 161.555 527.216 164.136C527.216 166.717 513.67 210.578 513.67 210.578" stroke="#4E4D4D" stroke-width="1.06068" stroke-miterlimit="10" stroke-linecap="round"/>
<path d="M508.501 165.105L505.277 178.008" stroke="#4E4D4D" stroke-width="1.06068" stroke-miterlimit="10" stroke-linecap="round"/>
<path d="M454.407 172.678L449.193 161.744" stroke="#4E4D4D" stroke-width="0.530341" stroke-miterlimit="10" stroke-linecap="round"/>
<path d="M454.412 175.808L446.597 171.121" stroke="#4E4D4D" stroke-width="0.530341" stroke-miterlimit="10" stroke-linecap="round"/>
<path d="M479.91 200.265L478.351 208.08" stroke="#4E4D4D" stroke-width="0.530341" stroke-miterlimit="10" stroke-linecap="round"/>
<path d="M522.074 163.832C522.074 163.832 514.269 165.391 506.979 174.239" stroke="#4E4D4D" stroke-width="0.530341" stroke-miterlimit="10" stroke-linecap="round"/>
<path d="M516.873 163.357C516.873 163.357 514.766 162.83 507.509 169.076" stroke="#4E4D4D" stroke-width="0.530341" stroke-miterlimit="10" stroke-linecap="round"/>
<path d="M479.905 165.914L476.787 190.373L479.389 190.9L481.474 183.094" stroke="#4E4D4D" stroke-width="0.530341" stroke-miterlimit="10" stroke-linecap="round"/>
<path d="M481.996 229.938C472.621 237.754 459.612 237.227 459.612 237.227" stroke="#4E4D4D" stroke-width="0.530341" stroke-miterlimit="10" stroke-linecap="round"/>
<path d="M442.38 187.458C442.38 187.458 436.008 181.623 426.98 189.049" stroke="#4E4D4D" stroke-width="0.530341" stroke-miterlimit="10" stroke-linecap="round"/>
<path d="M479.164 143.502C479.164 143.502 476.583 144.145 473.676 148.664C470.769 153.182 467.229 160.914 469.81 161.556C472.391 162.199 477.183 159.302 477.183 159.302" stroke="#4E4D4D" stroke-width="1.06068" stroke-miterlimit="10" stroke-linecap="round"/>
<path d="M489.156 160.596L492.379 163.492" stroke="#4E4D4D" stroke-width="1.06068" stroke-miterlimit="10" stroke-linecap="round"/>
<path d="M474.643 146.724C474.643 146.724 462.708 148.336 457.874 148.662C453.039 148.989 453.976 150.769 452.396 151.886C449.847 153.666 420.606 190.733 418.689 194.282C416.772 197.832 417.078 199.444 420.301 200.413C423.524 201.382 455.63 207.028 455.63 207.028L483.996 209.935L486.25 202.836C486.25 202.836 492.844 203.71 494.003 203.71" stroke="#4E4D4D" stroke-width="1.06068" stroke-miterlimit="10" stroke-linecap="round"/>
<path d="M483.021 200.223C476.76 198.406 470.709 195.935 464.967 192.849" stroke="#4E4D4D" stroke-width="1.06068" stroke-miterlimit="10" stroke-linecap="round"/>
<path d="M462.397 192.196C462.397 192.196 452.917 188.678 447.787 188.035C442.658 187.393 434.8 187.182 434.8 187.182" stroke="#4E4D4D" stroke-width="1.06068" stroke-miterlimit="10" stroke-linecap="round"/>
<path d="M453.68 188.004L454.649 162.524" stroke="#4E4D4D" stroke-width="1.06068" stroke-miterlimit="10" stroke-linecap="round"/>
<path d="M483.998 209.936C486.211 211.048 488.529 211.937 490.918 212.59" stroke="#4E4D4D" stroke-width="1.06068" stroke-miterlimit="10" stroke-linecap="round"/>
<path d="M61.9316 189.412L65.7341 168.63L89.8029 159.15C89.8029 159.15 90.9721 152.693 92.1518 152.409C93.3315 152.124 94.4902 149.47 94.4902 149.47L93.9109 144.15C93.9109 144.15 96.1123 135.724 107.183 142.286C107.183 142.286 103.833 144.519 104.413 145.446C104.992 146.373 103.77 149.322 105.234 149.322C106.698 149.322 109.658 151.187 111.154 152.693C112.201 153.818 113.126 155.05 113.914 156.369L126.375 157.085C127.652 157.096 128.923 157.269 130.156 157.602C130.367 151.513 129.619 146.868 128.144 143.255C122.783 130.215 113.008 125.559 111.607 119.028C110.206 112.498 110.912 111.813 110.912 111.813C112.336 110.365 113.379 108.586 113.947 106.635C114.515 104.685 114.591 102.624 114.167 100.637C112.776 93.6535 107.415 88.7555 88.0859 87.8285C68.7572 86.9016 71.5591 100.163 71.5591 100.163L71.7908 101.09C71.7908 101.09 59.4457 105.303 61.7841 120.882C64.1225 136.461 70.8639 143.234 70.6322 148.121C70.4004 153.009 63.1745 154.873 52.9256 166.028C42.6766 177.183 40.591 193.963 44.7833 204.907C46.89 210.289 51.0085 214.777 56.1804 218.126L61.9316 189.412Z" fill="#4E4D4D"/>
<path d="M78.0702 191.466V196.164L69.1484 223.73C74.7234 225.205 80.57 225.328 86.2019 224.088C89.3811 223.259 92.4197 221.964 95.2185 220.243L78.0702 191.466Z" fill="#4E4D4D"/>
<path d="M103.718 145.279L104.771 150.019C104.771 150.019 107.931 146.859 114.104 156.454C114.104 156.454 126.933 156.149 130.43 157.898C130.43 157.898 131.157 158.108 133.527 160.626C135.897 163.143 144.808 171.159 144.808 171.159C144.808 171.159 156.247 181.777 157.385 182.598C158.523 183.42 162.789 187.496 165.98 188.918L174.533 169.442L178.346 159.804L180.453 151.872H181.127L181.275 145.479L180.759 137.853C180.843 137.465 181.02 137.103 181.275 136.799C182.158 135.575 182.837 134.216 183.287 132.775C183.287 132.059 182.56 127.825 182.56 127.825C182.56 127.825 182.202 126.771 182.981 126.645C183.761 126.519 186.636 127.519 186.994 129.531L188.048 129.173C188.92 127.089 190.007 125.101 191.292 123.243C192.998 121.031 194.747 119.64 195.832 120.357C196.13 120.562 196.344 120.867 196.437 121.216C196.53 121.566 196.494 121.937 196.337 122.263L192.946 128.499C192.946 128.499 191.45 130.511 193.304 131.227C193.304 131.227 197.317 133.808 197.58 136.072C197.844 138.337 196.39 140.286 195.105 141.95C193.82 143.614 191.555 147.217 191.555 147.217L188.922 149.545L187.869 153.558L189.112 155.106L187.258 163.143L185.92 169.168L185.246 172.823L181.032 187.254L176.819 199.831C176.819 199.831 174.649 207.036 169.393 206.835C164.137 206.635 158.375 203.791 156.511 202.864C154.646 201.937 139.278 193.911 139.278 193.911L136.118 192.415C136.54 193.854 136.721 195.352 136.655 196.85C136.603 199.631 133.611 205.761 132.737 207.151L132.221 218.022C132.017 219.908 132.052 221.812 132.326 223.689C132.79 226.522 135.16 242.554 135.676 244.555C135.676 244.555 130.557 249.19 115.304 251.392C100.052 253.593 92.9104 250.022 92.9104 250.022L86.1164 246.03L94.4904 229.482C94.4904 229.482 96.5971 224.563 96.3864 223.268C96.1757 221.972 92.5733 216.389 92.5733 216.389L79.354 192.858L78.7325 193.068L76.6785 199.936L69.2525 223.225L59.4775 252.297C59.4775 252.297 56.8021 259.671 55.6961 261.851L52.6098 271.257C52.7812 272.938 53.1964 274.584 53.8422 276.145L46.0791 271.121L47.459 263.747L49.1759 252.75L51.2826 240.795L53.1365 230.904L56.0963 217.716L57.1497 214.072L59.2563 203.77L62.9641 185.084L66.1241 169.084L88.2441 160.289L89.624 159.235C89.9308 157.199 90.6785 155.254 91.8149 153.537C92.6036 152.407 93.5427 151.39 94.6063 150.514C94.6063 150.514 94.5009 149.134 94.4272 147.828C94.3535 146.521 94.0164 144.12 94.0164 144.12C94.0164 144.12 100.853 147.059 103.718 145.279Z" fill="white"/>
<path d="M74.0801 102.943C74.0801 102.943 78.1776 93.8739 86.3725 93.8739C94.5675 93.8739 111.537 109.969 111.537 109.969" stroke="white" stroke-width="0.530341" stroke-miterlimit="10" stroke-linecap="round"/>
<path d="M77.5908 104.376C77.5908 104.376 82.5626 99.1091 88.714 101.153C94.8655 103.196 95.7398 110.517 95.7398 110.517" stroke="white" stroke-width="0.530341" stroke-miterlimit="10" stroke-linecap="round"/>
<path d="M73.4986 105.281C73.4986 105.281 66.1885 109.379 65.5986 116.995C65.0087 124.61 75.837 133.669 77.3011 143.918C78.7653 154.167 71.1602 156.495 58.8678 164.985C46.5753 173.474 48.6293 192.487 51.2627 196.585" stroke="white" stroke-width="0.530341" stroke-miterlimit="10" stroke-linecap="round"/>
<path d="M52.7275 198.935C52.7275 198.935 54.4761 202.738 57.1094 203.907" stroke="white" stroke-width="0.530341" stroke-miterlimit="10" stroke-linecap="round"/>
<path d="M74.3817 125.181C74.0356 125.924 73.8803 126.742 73.9299 127.56C73.9796 128.379 74.2327 129.172 74.6662 129.868C76.1303 132.501 87.3062 145.668 86.3792 151.82C85.4523 157.971 79.6484 161.763 79.6484 161.763" stroke="white" stroke-width="0.530341" stroke-miterlimit="10" stroke-linecap="round"/>
<path d="M79.9365 105.281C79.9365 105.281 73.2057 108.21 73.5006 114.941C73.7956 121.671 75.2597 123.43 75.2597 123.43" stroke="white" stroke-width="0.530341" stroke-miterlimit="10" stroke-linecap="round"/>
<path d="M111.544 127.551C113.635 132.285 116.505 136.636 120.034 140.423C125.301 145.689 125.88 153.305 125.88 153.305" stroke="white" stroke-width="0.530341" stroke-miterlimit="10" stroke-linecap="round"/>
<path d="M117.688 144.204C117.688 144.204 120.322 150.355 120.322 154.158" stroke="white" stroke-width="0.530341" stroke-miterlimit="10" stroke-linecap="round"/>
<path d="M103.109 145.837L94.8401 153.284C94.8401 153.284 93.9553 155.538 92.291 159.151C90.6267 162.764 90.9006 169.684 90.9006 169.684L95.9987 179.828C95.9987 179.828 86.1922 168.578 85.6339 167.188C85.0756 165.798 74.8161 168.304 72.878 169.137C70.9399 169.969 68.4329 171.633 68.9912 174.129C69.5495 176.626 72.0459 179.944 70.9293 180.502C69.8128 181.06 66.7687 179.67 66.7687 181.334C66.7687 182.999 70.3816 189.382 68.7173 191.594C67.0531 193.806 56.5092 229.598 56.5092 229.598C56.5092 229.598 63.1663 224.047 61.502 226.27C59.8377 228.492 51.8008 246.515 51.8008 246.515L48.7461 257.048L55.9614 219.612L62.0603 188.012L65.7259 168.631C69.2651 167.451 89.7946 159.151 89.7946 159.151C89.7946 159.151 91.4167 152.325 94.4819 149.471L93.9026 144.151C93.9026 144.151 99.4958 146.111 103.109 145.837Z" fill="#1A377D"/>
<path opacity="0.5" d="M103.109 145.837L94.8401 153.284C94.8401 153.284 93.9553 155.538 92.291 159.151C90.6267 162.764 90.9006 169.684 90.9006 169.684L95.9987 179.828C95.9987 179.828 86.1922 168.578 85.6339 167.188C85.0756 165.798 74.8161 168.304 72.878 169.137C70.9399 169.969 68.4329 171.633 68.9912 174.129C69.5495 176.626 72.0459 179.944 70.9293 180.502C69.8128 181.06 66.7687 179.67 66.7687 181.334C66.7687 182.999 70.3816 189.382 68.7173 191.594C67.0531 193.806 56.5092 229.598 56.5092 229.598C56.5092 229.598 63.1663 224.047 61.502 226.27C59.8377 228.492 51.8008 246.515 51.8008 246.515L48.7461 257.048L55.9614 219.612L62.0603 188.012L65.7259 168.631C69.2651 167.451 89.7946 159.151 89.7946 159.151C89.7946 159.151 90.237 152.831 94.4925 150.619L93.9026 144.151C93.9026 144.151 99.4958 146.111 103.109 145.837Z" fill="white"/>
<path d="M133.892 183.272C133.892 183.272 138.884 174.961 139.443 176.899C140.001 178.837 138.052 185.484 138.052 185.484C138.052 185.484 143.319 183.545 142.771 185.21C142.223 186.874 141.107 187.706 141.381 188.538C141.655 189.37 159.688 198.798 161.91 199.904C164.133 201.01 169.4 194.637 171.896 196.575C174.392 198.513 171.896 205.16 166.903 205.17C161.91 205.181 147.49 198.85 147.49 198.85L136.135 192.246" fill="#1A377D"/>
<path opacity="0.5" d="M133.892 183.272C133.892 183.272 138.884 174.961 139.443 176.899C140.001 178.837 138.052 185.484 138.052 185.484C138.052 185.484 143.319 183.545 142.771 185.21C142.223 186.874 141.107 187.706 141.381 188.538C141.655 189.37 159.688 198.798 161.91 199.904C164.133 201.01 169.4 194.637 171.896 196.575C174.392 198.513 171.896 205.16 166.903 205.17C161.91 205.181 147.49 198.85 147.49 198.85L136.177 192.267" fill="white"/>
<path d="M103.945 216.83C103.945 216.83 136.367 199.64 131.1 206.013C125.834 212.385 108.38 219.611 103.945 216.83Z" fill="#1A377D"/>
<path opacity="0.5" d="M103.945 216.83C103.945 216.83 136.367 199.64 131.1 206.013C125.834 212.385 108.38 219.611 103.945 216.83Z" fill="white"/>
<path d="M93.9111 144.204C93.9111 144.204 94.1429 148.628 94.8486 153.283C95.5543 157.939 95.3121 157.939 99.7361 163.522C104.16 169.105 108.816 173.771 109.511 172.844" stroke="#4E4D4D" stroke-width="1.06068" stroke-miterlimit="10" stroke-linecap="round"/>
<path d="M109.745 171.211C109.745 171.211 110.208 163.058 108.586 157.707C106.964 152.356 104.626 150.482 104.626 149.281C104.547 148.03 104.392 146.784 104.162 145.552" stroke="#4E4D4D" stroke-width="1.06068" stroke-miterlimit="10" stroke-linecap="round"/>
<path d="M93.9073 150.956C92.0467 152.631 90.7452 154.837 90.1785 157.276C89.4833 160.994 88.7881 165.418 88.7881 165.418L96.0034 179.859C96.6317 177.345 97.5693 174.917 98.7948 172.633C99.4017 171.506 100.188 170.485 101.123 169.61" stroke="#4E4D4D" stroke-width="1.06068" stroke-miterlimit="10" stroke-linecap="round"/>
<path d="M111.377 167.251C111.886 167.123 112.416 167.098 112.935 167.178C113.454 167.258 113.952 167.44 114.4 167.714C116.264 168.652 119.993 173.539 119.993 173.539C119.993 173.539 117.433 161.426 113.009 155.148C108.585 148.87 105.552 149.323 105.552 149.323" stroke="#4E4D4D" stroke-width="1.06068" stroke-miterlimit="10" stroke-linecap="round"/>
<path d="M88.0879 160.035L65.7361 168.63C65.7361 168.63 57.5939 213.102 54.5603 224.973C51.5267 236.844 46.418 270.383 46.418 270.383L52.4641 271.541L54.5708 265.495" stroke="#4E4D4D" stroke-linecap="round" stroke-linejoin="round"/>
<path d="M55.7227 262.019C55.7227 262.019 57.1131 259.912 60.8419 248.326C64.5707 236.739 74.5352 208.299 76.21 202.685C77.8848 197.07 79.2331 193.373 79.2331 193.373" stroke="#4E4D4D" stroke-width="1.06068" stroke-miterlimit="10" stroke-linecap="round"/>
<path d="M75.2812 186.537C75.2812 186.537 94.136 220.244 95.7686 221.697C97.4013 223.151 95.0734 227.048 94.5994 229.144" stroke="#4E4D4D" stroke-width="1.06068" stroke-miterlimit="10" stroke-linecap="round"/>
<path d="M92.5081 233.377L86.4619 245.954C86.4619 245.954 90.4225 252.011 107.181 252.011C117.154 252.041 126.985 249.64 135.821 245.016C135.821 245.016 131.861 224.066 132.092 220.337C132.324 216.608 132.798 206.833 132.798 206.833C132.798 206.833 137.012 200.513 136.516 195.657C136.021 190.801 133.957 185.176 133.957 184.249C133.957 183.323 133.493 173.305 133.493 173.305" stroke="#4E4D4D" stroke-width="1.06068" stroke-miterlimit="10" stroke-linecap="round"/>
<path d="M107.145 212.681L123.829 202.443" stroke="#4E4D4D" stroke-width="0.530341" stroke-miterlimit="10" stroke-linecap="round"/>
<path d="M115.939 209.468L125.009 204.201" stroke="#4E4D4D" stroke-width="0.530341" stroke-miterlimit="10" stroke-linecap="round"/>
<path d="M165.861 189.139L162.459 197.471" stroke="#4E4D4D" stroke-width="0.530341" stroke-miterlimit="10" stroke-linecap="round"/>
<path d="M164.503 192.781L161.29 196.005" stroke="#4E4D4D" stroke-width="0.530341" stroke-miterlimit="10" stroke-linecap="round"/>
<path d="M69.4032 222.349C69.4032 222.349 63.8416 228.785 60.0391 231.418" stroke="#4E4D4D" stroke-width="0.530341" stroke-miterlimit="10" stroke-linecap="round"/>
<path d="M66.183 224.097C66.183 224.097 56.524 231.702 54.1855 233.461" stroke="#4E4D4D" stroke-width="0.530341" stroke-miterlimit="10" stroke-linecap="round"/>
<path d="M67.8975 169.957C70.8092 174.074 73.4482 178.377 75.7975 182.839" stroke="#4E4D4D" stroke-width="0.530341" stroke-miterlimit="10" stroke-linecap="round"/>
<path d="M76.7197 184.883L78.7632 188.391" stroke="#4E4D4D" stroke-width="0.530341" stroke-miterlimit="10" stroke-linecap="round"/>
<path d="M133.957 184.251L136.517 171.211" stroke="#4E4D4D" stroke-width="0.530341" stroke-miterlimit="10" stroke-linecap="round"/>
<path d="M134.896 185.178L138.846 179.596" stroke="#4E4D4D" stroke-width="0.530341" stroke-miterlimit="10" stroke-linecap="round"/>
<path d="M79.2364 193.33L68.0605 187.273" stroke="#4E4D4D" stroke-width="0.530341" stroke-miterlimit="10" stroke-linecap="round"/>
<path d="M109.27 174.004C109.27 174.004 113.483 182.43 114.863 188.445" stroke="#4E4D4D" stroke-width="0.530341" stroke-miterlimit="10" stroke-linecap="round"/>
<path d="M178.427 159.329C179.541 159.247 180.661 159.392 181.718 159.754C182.775 160.116 183.748 160.688 184.578 161.436" stroke="#4E4D4D" stroke-width="0.530341" stroke-miterlimit="10" stroke-linecap="round"/>
<path d="M50.4561 264.6L53.3422 265.675" stroke="#4E4D4D" stroke-width="0.530341" stroke-miterlimit="10" stroke-linecap="round"/>
<path d="M46.337 270.804C46.3732 274.809 46.1622 278.812 45.705 282.791C45.0098 287.689 45.2415 298.865 46.1685 302.352C47.0954 305.838 47.5694 306.565 48.4963 304.458C49.4233 302.352 52.2252 290.028 52.2252 290.028C52.2252 290.028 52.6886 298.17 54.7848 297.475C56.8809 296.779 55.7222 292.819 55.7222 289.322C55.7222 285.825 55.954 284.666 55.7222 281.875C55.4905 279.083 52.3831 272.184 52.3831 272.184" fill="white"/>
<path d="M46.337 270.804C46.3732 274.809 46.1622 278.812 45.705 282.791C45.0098 287.689 45.2415 298.865 46.1685 302.352C47.0954 305.838 47.5694 306.565 48.4963 304.458C49.4233 302.352 52.2252 290.028 52.2252 290.028C52.2252 290.028 52.6886 298.17 54.7848 297.475C56.8809 296.779 55.7222 292.819 55.7222 289.322C55.7222 285.825 55.954 284.666 55.7222 281.875C55.4905 279.083 52.3831 272.184 52.3831 272.184" stroke="#4E4D4D" stroke-miterlimit="10" stroke-linecap="round"/>
<path d="M181.153 151.693C181.048 149.633 181.048 147.57 181.153 145.51C181.343 143.572 180.574 140.675 180.764 138.137C180.953 135.598 183.471 134.661 183.081 131.374C182.691 128.088 181.922 127.698 182.502 126.929C183.081 126.16 186.715 127.308 186.947 129.436C187.153 131.626 187.153 133.83 186.947 136.019C186.757 136.599 188.105 140.233 187.337 141.813C186.896 142.669 186.57 143.579 186.367 144.52" stroke="#4E4D4D" stroke-width="0.880843" stroke-miterlimit="10" stroke-linecap="round"/>
<path d="M187.724 129.268C187.724 129.268 192.169 120.377 194.686 120.177C197.204 119.977 196.424 122.284 195.645 123.464C194.865 124.643 192.358 128.878 192.169 130.626C191.979 132.375 189.651 138.158 189.651 138.158" stroke="#4E4D4D" stroke-width="0.880843" stroke-miterlimit="10" stroke-linecap="round"/>
<path d="M192.194 130.627C192.194 130.627 198.966 134.682 197.46 138C195.954 141.318 195.132 142.645 193.974 142.214C192.946 141.689 192.028 140.974 191.267 140.107" stroke="#4E4D4D" stroke-width="0.880843" stroke-miterlimit="10" stroke-linecap="round"/>
<path d="M194.687 142.223C194.687 142.223 192.938 145.119 191.59 146.868C190.814 147.878 189.895 148.768 188.862 149.512L188.04 152.366" stroke="#4E4D4D" stroke-width="0.880843" stroke-miterlimit="10" stroke-linecap="round"/>
<path d="M113.465 156.306C113.465 156.306 129.528 156.074 131.624 158.634C133.72 161.193 159.106 184.482 162.171 186.579C165.236 188.675 165.9 189.138 165.9 189.138C165.9 189.138 178.466 160.698 178.466 159.329C178.466 157.959 180.573 151.65 180.573 151.65C180.573 151.65 184.533 152.113 185.471 152.113C186.408 152.113 188.957 155.147 188.957 155.147C188.957 155.147 185.471 169.346 185.471 170.947C185.471 172.548 178.951 194.7 175.917 201.494C172.884 208.288 168.702 207.308 161.95 205.212C155.198 203.116 136.807 192.646 136.807 192.646" stroke="#4E4D4D" stroke-width="1.06068" stroke-miterlimit="10" stroke-linecap="round"/>
<path d="M86.4612 245.957C86.4612 245.957 77.1392 269.278 74.6217 285.151C72.1042 301.025 73.1787 338.145 72.4519 342.116C71.725 346.087 61.6341 364.826 61.6341 373.842C61.6341 382.859 56.2305 429.363 56.2305 429.363L59.8329 431.523C59.8329 431.523 72.4729 392.549 77.1392 382.49C81.8055 372.431 88.3151 348.604 90.1163 343.917C91.9175 339.23 104.547 301.731 105.263 297.043C105.98 292.356 110.309 280.822 110.309 280.822C110.309 280.822 119.683 338.145 121.485 350.047C123.286 361.95 135.905 426.477 135.905 426.477C136.734 426.68 137.58 426.8 138.433 426.836C139.486 426.836 139.876 425.034 139.876 425.034C139.876 425.034 144.921 379.246 143.478 366.985C142.035 354.724 137.717 339.598 137.717 335.258C137.717 330.919 144.205 293.441 144.205 280.485C144.205 267.529 135.778 245.04 135.778 245.04C135.778 245.04 105.874 260.124 86.4612 245.957Z" fill="#4E4D4D"/>
<path d="M137.585 337.638C137.585 337.638 134.372 351.395 129.979 358.705" stroke="white" stroke-width="0.530341" stroke-miterlimit="10" stroke-linecap="round"/>
<path d="M136.713 351.688C136.713 351.688 134.08 361.631 128.813 366.319" stroke="white" stroke-width="0.530341" stroke-miterlimit="10" stroke-linecap="round"/>
<path d="M74.3828 347.297C74.3828 347.297 76.4263 359.294 78.7647 364.266" stroke="white" stroke-width="0.530341" stroke-miterlimit="10" stroke-linecap="round"/>
<path d="M73.7861 354.324C73.7861 354.324 75.5452 362.814 78.7579 367.786" stroke="white" stroke-width="0.530341" stroke-miterlimit="10" stroke-linecap="round"/>
<path d="M111.249 280.874L122.952 271.215" stroke="white" stroke-width="0.530341" stroke-miterlimit="10" stroke-linecap="round"/>
<path d="M116.811 276.776L130.567 270.625" stroke="white" stroke-width="0.530341" stroke-miterlimit="10" stroke-linecap="round"/>
<path d="M86.6553 260.385C86.6553 260.385 95.735 266.231 101.002 271.213" stroke="white" stroke-width="0.530341" stroke-miterlimit="10" stroke-linecap="round"/>
<path d="M56.6143 429.331C56.6143 429.331 42.9209 440.918 42.9209 446.669C42.9209 452.42 48.3245 452.073 54.0968 446.669C59.8691 441.265 60.164 430.132 60.164 430.132L56.6143 429.331Z" fill="white" stroke="#4E4D4D" stroke-width="1.06068" stroke-miterlimit="10" stroke-linecap="round"/>
<path d="M135.906 426.477C135.906 426.477 140.594 438.011 145.65 443.067C150.706 448.123 153.581 449.913 153.581 444.499C153.581 439.085 150.337 432.965 139.888 425.034C139.877 425.034 142.763 427.193 135.906 426.477Z" fill="white" stroke="#4E4D4D" stroke-width="1.06068" stroke-miterlimit="10" stroke-linecap="round"/>
<path d="M87.538 107.22C86.6005 106.872 85.7157 106.451 84.7993 106.061C83.8829 105.672 82.2081 105.461 81.5761 108.336C80.6387 112.55 87.1588 116.026 85.0627 119.512C83.7586 121.633 81.7988 123.272 79.48 124.179C79.1025 124.308 78.7092 124.386 78.3108 124.41C76.4464 124.642 73.4233 124.41 74.3502 127.665C75.2772 130.92 78.3108 133.722 80.1752 133.722H82.0396C82.0396 133.722 84.1463 140.042 92.0463 143.497C99.9463 146.952 105.318 146.762 107.183 142.338C109.047 137.914 110.448 134.185 110.448 128.36C110.448 122.535 108.341 112.76 108.341 112.76C108.341 112.76 106.477 115.331 99.2616 112.065C94.49 109.906 90.0239 108.157 87.538 107.22Z" fill="white"/>
<mask id="mask1_819_7162" style="mask-type:luminance" maskUnits="userSpaceOnUse" x="74" y="105" width="37" height="41">
<path d="M87.5312 107.22C86.5937 106.873 85.7089 106.451 84.7925 106.062C83.8761 105.672 82.2013 105.461 81.5693 108.337C80.6318 112.55 87.152 116.026 85.0558 119.513C83.7518 121.634 81.7919 123.272 79.4732 124.179C79.0957 124.309 78.7024 124.387 78.304 124.411C76.4396 124.642 73.4165 124.411 74.3434 127.666C75.2703 130.92 78.3039 133.722 80.1683 133.722H82.0328C82.0328 133.722 84.1394 140.042 92.0394 143.497C99.9395 146.952 105.311 146.763 107.176 142.338C109.04 137.914 110.441 134.186 110.441 128.361C110.441 122.536 108.335 112.761 108.335 112.761C108.335 112.761 106.47 115.331 99.2548 112.066C94.4832 109.906 90.017 108.158 87.5312 107.22Z" fill="white"/>
</mask>
<g mask="url(#mask1_819_7162)">
<g style="mix-blend-mode:multiply" opacity="0.5">
<path d="M99.2672 112.066C99.2672 112.066 88.1334 111.445 86.4691 111.719C84.8049 111.992 86.743 116.985 86.1953 121.978C85.6475 126.971 85.9109 135.018 88.1334 137.515C90.7561 140.089 93.5352 142.498 96.4548 144.73C96.4548 144.73 87.9122 143.35 84.8049 139.737C81.6975 136.124 81.2025 134.186 81.2025 134.186C81.2025 134.186 73.9871 129.973 73.4288 126.697C72.8706 123.421 77.6422 125.159 79.9279 123.537C81.213 122.652 86.5323 120.988 85.1946 116.553C83.8569 112.119 81.6975 111.287 81.6133 108.316C81.5501 106.21 83.4039 105.599 84.5415 105.409C85.0544 105.323 85.5814 105.4 86.0478 105.63L99.2672 112.066Z" fill="#1A377D"/>
</g>
</g>
<path d="M87.538 107.22C86.6005 106.872 85.7157 106.451 84.7993 106.061C83.8829 105.672 82.2081 105.461 81.5761 108.336C80.6387 112.55 87.1588 116.026 85.0627 119.512C83.7586 121.633 81.7988 123.272 79.48 124.179C79.1025 124.308 78.7092 124.386 78.3108 124.41C76.4464 124.642 73.4233 124.41 74.3502 127.665C75.2772 130.92 78.3108 133.722 80.1752 133.722H82.0396C82.0396 133.722 84.1463 140.042 92.0463 143.497C99.9463 146.952 105.318 146.762 107.183 142.338C109.047 137.914 110.448 134.185 110.448 128.36C110.448 122.535 108.341 112.76 108.341 112.76C108.341 112.76 106.477 115.331 99.2616 112.065C94.49 109.906 90.0239 108.157 87.538 107.22Z" stroke="#4E4D4D" stroke-width="1.06068" stroke-miterlimit="10" stroke-linecap="round"/>
<path d="M95.7575 121.019C95.9049 121.904 95.6626 122.683 95.2097 122.757C94.7568 122.83 94.2933 122.167 94.1564 121.282C94.0194 120.397 94.2617 119.607 94.7041 119.534C95.1465 119.46 95.61 120.176 95.7575 121.019Z" fill="#4E4D4D"/>
<path d="M105.401 119.409C105.538 120.294 105.296 121.073 104.853 121.147C104.411 121.22 103.937 120.557 103.8 119.672C103.663 118.787 103.895 118.008 104.337 117.934C104.78 117.86 105.254 118.524 105.401 119.409Z" fill="#4E4D4D"/>
<path d="M90.1787 116.721C90.7681 115.845 91.5675 115.131 92.5041 114.643C93.4407 114.156 94.4845 113.91 95.5402 113.93" stroke="#4E4D4D" stroke-width="1.06068" stroke-miterlimit="10" stroke-linecap="round"/>
<path d="M102.762 114.626C103.656 114.313 104.625 114.28 105.539 114.53C106.454 114.78 107.27 115.302 107.881 116.027" stroke="#4E4D4D" stroke-width="1.06068" stroke-miterlimit="10" stroke-linecap="round"/>
<path d="M101.833 118.587C101.705 120.059 101.705 121.539 101.833 123.011C102.065 124.876 103.455 125.339 102.992 126.74C102.528 128.141 100.664 128.13 100.664 128.13" stroke="#4E4D4D" stroke-width="1.06068" stroke-miterlimit="10" stroke-linecap="round"/>
<path d="M98.3374 133.722C97.5396 133.911 96.7106 133.925 95.907 133.763C95.1034 133.601 94.3443 133.267 93.6816 132.785" stroke="#4E4D4D" stroke-width="1.06068" stroke-miterlimit="10" stroke-linecap="round"/>
</svg>
