<svg width="211" height="213" viewBox="0 0 211 213" fill="none" xmlns="http://www.w3.org/2000/svg">
<path d="M124.22 63.442L156.599 98.4209L99.5379 152.823L64.5075 116.022L124.22 63.442Z" stroke="#263238" stroke-linecap="round" stroke-linejoin="round"/>
<path d="M72.8835 108.644L106.457 146.228" stroke="#263238" stroke-linecap="round" stroke-linejoin="round"/>
<path d="M108.953 137.781L92.8496 119.875" stroke="#263238" stroke-linecap="round" stroke-linejoin="round"/>
<path d="M110.401 132.758L105.91 127.394" stroke="#263238" stroke-linecap="round" stroke-linejoin="round"/>
<path d="M117.658 129.52L93.5329 102.85" stroke="#263238" stroke-linecap="round" stroke-linejoin="round"/>
<path d="M96.9399 87.4618L129.513 124.246" stroke="#263238" stroke-linecap="round" stroke-linejoin="round" stroke-dasharray="1 2"/>
<path d="M98.7481 146.788L78.1486 124.946" stroke="#263238" stroke-linecap="round" stroke-linejoin="round"/>
<path d="M100.364 144.762L91.0289 134.279" stroke="#263238" stroke-linecap="round" stroke-linejoin="round"/>
<path d="M131.043 117.044L114.287 98.8911" stroke="#263238" stroke-linecap="round" stroke-linejoin="round"/>
<path d="M134.543 112.634L129.217 106.844" stroke="#263238" stroke-linecap="round" stroke-linejoin="round"/>
<path d="M137.433 110.315L113.187 83.7736" stroke="#263238" stroke-linecap="round" stroke-linejoin="round"/>
<path d="M150.98 98.1869L144.321 91.0902" stroke="#263238" stroke-linecap="round" stroke-linejoin="round"/>
<path d="M128.443 74.3606L122.785 68.1847" stroke="#263238" stroke-linecap="round" stroke-linejoin="round"/>
<path d="M120.562 73.0748C121.141 72.9187 121.749 72.8898 122.345 72.99C122.94 73.0903 123.509 73.3174 124.014 73.656" stroke="#263238" stroke-linecap="round" stroke-linejoin="round"/>
<path d="M118.059 78.9173C117.624 77.9854 117.533 76.9321 117.802 75.9487C118.071 74.9653 118.683 74.1171 119.526 73.558" stroke="#263238" stroke-linecap="round" stroke-linejoin="round"/>
<path d="M120.565 81.1405C119.816 80.9143 119.148 80.4703 118.644 79.8649" stroke="#263238" stroke-linecap="round" stroke-linejoin="round"/>
<path d="M125.263 74.9463C125.633 75.591 125.832 76.3187 125.841 77.0586C125.85 77.7984 125.669 78.5252 125.315 79.1682C124.961 79.8112 124.446 80.3484 123.821 80.7275C123.196 81.1066 122.482 81.3148 121.748 81.3317" stroke="#263238" stroke-linecap="round" stroke-linejoin="round"/>
<path d="M128.773 82.6646C128.573 81.8865 128.405 81.0954 128.141 80.3431" stroke="#263238" stroke-linecap="round" stroke-linejoin="round"/>
<path d="M131.745 88.5189C130.103 88.7657 129.372 84.9327 129.085 83.8624" stroke="#263238" stroke-linecap="round" stroke-linejoin="round"/>
<path d="M131.915 81.0784L134.153 87.7101C133.714 87.8522 133.282 88.017 132.855 88.1787" stroke="#263238" stroke-linecap="round" stroke-linejoin="round"/>
<path d="M128.799 79.0342C130.63 78.7589 130.961 78.2154 131.56 79.9746" stroke="#263238" stroke-linecap="round" stroke-linejoin="round"/>
<path d="M69.9868 213.102L72.4101 222.216L75.5026 212.423C80.8571 213.441 86.3683 212.515 91.0534 209.81" stroke="#263238" stroke-linecap="round" stroke-linejoin="round"/>
<path d="M61.3174 205.577C63.7148 207.654 66.4156 209.343 69.3209 210.583" stroke="#263238" stroke-linecap="round" stroke-linejoin="round"/>
<path d="M57.0743 167.256C47.7454 176.138 48.5738 192.263 58.9199 203.281" stroke="#263238" stroke-linecap="round" stroke-linejoin="round"/>
<path d="M70.2994 161.631C69.0973 161.705 67.9043 161.874 66.7314 162.138" stroke="#263238" stroke-linecap="round" stroke-linejoin="round"/>
<path d="M94.5458 207.148C103.878 198.271 103.046 182.141 92.6984 171.131C88.0633 166.092 81.8635 162.798 75.1516 161.81" stroke="#263238" stroke-linecap="round" stroke-linejoin="round"/>
<path d="M90.2261 191.353C91.8747 185.326 86.1293 182.044 80.9144 182.422C81.7154 177.236 78.9625 171.186 72.8528 172.34C62.5569 174.273 64.2374 188.353 65.5289 194.553C65.6709 195.258 65.7831 195.84 65.8951 196.313C66.3576 196.468 66.9259 196.633 67.6102 196.834C73.6415 198.644 87.443 201.517 90.2261 191.353Z" stroke="#263238" stroke-linecap="round" stroke-linejoin="round"/>
<path opacity="0.2" d="M159.61 230.228C159.61 230.228 137.727 241.317 134.241 246.96C130.755 252.602 97.0564 275.145 92.0199 276.687C92.0199 276.687 95.0245 286.073 99.8804 287.524C104.736 288.974 105.031 295.633 112.857 302.07C120.684 308.508 179.005 264.392 179.005 264.392L201.697 250.736L205.185 230.001L159.61 230.228Z" fill="black" fill-opacity="0.7"/>
<path d="M156.3 247.253C156.12 247.294 155.933 247.296 155.751 247.26C153.06 246.52 146.686 240.21 141.459 234.635C137.126 230.022 133.594 225.93 133.594 225.93C133.594 225.93 160.011 204.803 163.015 202.949C166.019 201.096 211.17 165.452 211.17 165.452L220.082 178.609L231.907 196.064C231.907 196.064 230.674 196.973 228.517 198.555C214.788 208.66 163.394 245.987 156.3 247.253Z" fill="#E39292"/>
<mask id="mask0_0_13507" style="mask-type:luminance" maskUnits="userSpaceOnUse" x="133" y="165" width="99" height="83">
<path d="M156.3 247.253C156.12 247.294 155.933 247.296 155.751 247.26C153.06 246.52 146.686 240.21 141.459 234.635C137.126 230.022 133.594 225.93 133.594 225.93C133.594 225.93 160.011 204.803 163.015 202.949C166.019 201.096 211.17 165.452 211.17 165.452L220.082 178.609L231.907 196.064C231.907 196.064 230.674 196.973 228.517 198.555C214.788 208.66 163.394 245.987 156.3 247.253Z" fill="white"/>
</mask>
<g mask="url(#mask0_0_13507)">
<path opacity="0.2" d="M156.3 247.252L143.396 233.44L138.518 228.226C139.081 225.649 138.35 224.398 138.35 224.398L142.417 221.211L149.094 216.027L207.831 170.413C209.739 171.27 212.375 170.646 212.375 170.646L218.304 179.53L228.579 194.917L228.53 198.533C214.788 208.66 163.393 245.987 156.3 247.252Z" fill="black" fill-opacity="0.7"/>
<path d="M156.3 247.252L143.396 233.44L138.518 228.226C139.081 225.649 138.35 224.398 138.35 224.398L142.417 221.211L149.094 216.027L207.831 170.413C209.739 171.27 212.375 170.646 212.375 170.646L218.304 179.53L228.579 194.917L228.53 198.533C214.788 208.66 163.393 245.987 156.3 247.252Z" stroke="#263238" stroke-linecap="round" stroke-linejoin="round"/>
<path d="M160.176 212.083L163.434 217.34L161.819 218.343L160.404 217.196L157.961 214.047L160.176 212.083Z" fill="#E39292" stroke="#263238" stroke-linecap="round" stroke-linejoin="round"/>
<path d="M208.789 175.165C208.789 175.165 199.275 182.514 197.291 183.806" stroke="#263238" stroke-linecap="round" stroke-linejoin="round"/>
<path d="M210.102 177.541L204.804 181.501" stroke="#263238" stroke-linecap="round" stroke-linejoin="round"/>
<path d="M217.157 184.23L210.985 188.934L211.458 189.896L217.873 185.531L217.157 184.23Z" fill="#E39292" stroke="#263238" stroke-linecap="round" stroke-linejoin="round"/>
<path opacity="0.2" d="M156.3 247.252C156.12 247.293 155.933 247.296 155.751 247.259C153.061 246.519 146.686 240.209 141.46 234.635L145.806 231.953L142.42 221.236L141.909 219.619L149.097 216.052L176.559 202.421L218.297 179.561L220.071 178.589L231.907 196.063C231.907 196.063 230.674 196.973 228.517 198.555C214.789 208.66 163.394 245.987 156.3 247.252Z" fill="black" fill-opacity="0.7"/>
</g>
<path d="M156.3 247.253C156.12 247.294 155.933 247.296 155.751 247.26C153.06 246.52 146.686 240.21 141.459 234.635C137.126 230.022 133.594 225.93 133.594 225.93C133.594 225.93 160.011 204.803 163.015 202.949C166.019 201.096 211.17 165.452 211.17 165.452L220.082 178.609L231.907 196.064C231.907 196.064 230.674 196.973 228.517 198.555C214.788 208.66 163.394 245.987 156.3 247.253Z" stroke="#263238" stroke-linecap="round" stroke-linejoin="round"/>
<path d="M97.3277 296.774C98.4164 296.258 112.028 285.608 113.599 284.598C117.897 281.838 122.827 277.067 122.827 277.067C126.143 272.607 135.431 264.998 139.048 256.326C142.665 247.654 150.308 242.945 156.315 238.167C162.322 233.389 161.88 233.926 167.757 230.571C172.169 228.044 176.376 225.178 180.344 221.997C183.929 219.249 190.177 214.323 194.03 213.552C197.882 212.782 200.489 215.376 199.407 220.647C198.326 225.917 186.295 235.219 184.706 236.199C183.117 237.18 178.153 240.243 176.962 242.591C176.962 242.591 184.359 247.145 185.277 246.579C186.194 246.013 194.181 240.813 195.216 241.517L205.182 230.005L212.3 235.781C211.933 237.922 211.256 239.993 210.292 241.928C209.511 243.558 208.567 245.102 207.474 246.535C201.283 254.646 198.71 263.129 197.013 265.599C195.317 268.069 176.156 278.469 172.713 280.594C169.27 282.719 152.003 290.255 149.369 291.962C147.464 293.198 141.096 298.958 136.401 303.678C134.579 305.48 121.023 317.961 120.083 319.171L97.3277 296.774Z" fill="white"/>
<path opacity="0.4" d="M197.319 243.1C196.251 243.692 188.752 250.061 188.752 250.061C187.229 252.207 177.253 251.774 177.253 251.774C176.047 251.094 172.24 252.834 172.24 252.834C170.951 249.168 173.702 237.254 173.702 237.254C173.702 237.254 170.164 238.231 162.135 241.829C154.107 245.427 140.317 262.532 129.779 272.696C119.241 282.859 113.614 284.589 113.614 284.589C117.911 281.829 122.842 277.058 122.842 277.058C126.158 272.598 135.445 264.989 139.063 256.317C142.68 247.645 150.308 242.945 156.315 238.167C162.322 233.389 161.88 233.926 167.757 230.571C172.169 228.044 176.376 225.178 180.344 221.997C183.929 219.249 190.177 214.323 194.03 213.552C197.882 212.782 200.489 215.376 199.407 220.647C198.326 225.917 186.295 235.219 184.706 236.199C183.117 237.18 178.153 240.243 176.962 242.591C176.962 242.591 184.359 247.145 185.277 246.579C186.194 246.013 194.181 240.813 195.216 241.517L205.182 230.005L212.3 235.781C211.933 237.922 211.256 239.993 210.292 241.928C204.139 242.438 197.997 242.75 197.319 243.1Z" fill="#E39292"/>
<path d="M120.101 319.146C123.538 314.883 146.782 293.659 149.402 291.961C152.022 290.263 169.308 282.715 172.746 280.593C176.185 278.472 195.355 268.066 197.047 265.599C198.738 263.131 201.317 254.646 207.507 246.535C209.953 243.403 211.608 239.716 212.334 235.781L205.215 230.004L195.249 241.516C194.209 240.803 186.228 246.012 185.31 246.578C184.393 247.144 176.995 242.591 176.995 242.591C178.206 240.231 183.151 237.179 184.74 236.199C186.328 235.218 198.364 225.914 199.441 220.646C200.518 215.379 197.917 212.774 194.063 213.552C190.209 214.33 183.962 219.249 180.377 221.997C176.406 225.181 172.193 228.051 167.776 230.579C161.899 233.935 162.347 233.387 156.334 238.175C150.32 242.964 142.678 247.673 139.057 256.341C135.437 265.008 126.153 272.622 122.837 277.081C122.837 277.081 101.417 294.854 97.337 296.789" stroke="#263238" stroke-linecap="round" stroke-linejoin="round"/>
<path d="M234.898 187.221L247.772 228.982C247.772 228.982 202.196 239.635 195.927 239.958L160.354 255.984C160.354 255.984 147.158 232.373 143.776 219.857C143.776 219.857 182.189 205.387 186.984 202.923C191.778 200.46 234.898 187.221 234.898 187.221Z" fill="#E39292"/>
<mask id="mask1_0_13507" style="mask-type:luminance" maskUnits="userSpaceOnUse" x="143" y="187" width="105" height="69">
<path d="M234.899 187.222L247.773 228.983C247.773 228.983 202.197 239.636 195.928 239.959L160.355 255.985C160.355 255.985 147.159 232.374 143.777 219.858C143.777 219.858 182.19 205.388 186.985 202.924C191.779 200.461 234.899 187.222 234.899 187.222Z" fill="white"/>
</mask>
<g mask="url(#mask1_0_13507)">
<path opacity="0.2" d="M190.431 203.97L228.692 191.316C228.692 191.316 232.463 193.701 234.799 194.083L243.499 224.325C243.499 224.325 241.061 225.939 240.379 228.4L195.457 238.147L166.316 251.77C166.316 251.77 163.398 247.775 160.097 249.256C160.097 249.256 150.975 236.093 147.709 225.505C147.709 225.505 150.344 222.395 151.415 219.463L190.431 203.97Z" fill="black" fill-opacity="0.7"/>
<path d="M190.431 203.97L228.692 191.316C228.692 191.316 232.463 193.701 234.799 194.083L243.499 224.325C243.499 224.325 241.061 225.939 240.379 228.4L195.457 238.147L166.316 251.77C166.316 251.77 163.398 247.775 160.097 249.256C160.097 249.256 150.975 236.093 147.709 225.505C147.709 225.505 150.344 222.395 151.415 219.463L190.431 203.97Z" stroke="#263238" stroke-linecap="round" stroke-linejoin="round"/>
<path d="M192.773 211.644C192.773 211.644 202.91 208.623 206.44 217.834C209.97 227.044 196.384 228.994 196.384 228.994C196.384 228.994 187.77 234.378 184.834 226.95C182.286 220.508 183.511 215.481 192.773 211.644Z" fill="#E39292" stroke="#263238" stroke-linecap="round" stroke-linejoin="round"/>
<path d="M176.573 213.531L178.419 219.429L176.6 219.982L175.51 218.519L173.926 214.86L176.573 213.531Z" fill="#E39292" stroke="#263238" stroke-linecap="round" stroke-linejoin="round"/>
<path opacity="0.2" d="M196.168 239.926C194.766 236.086 193.919 232.412 194.014 229.249C194.014 229.249 190.413 233.722 186.126 244.346L160.343 255.964C160.343 255.964 151.729 240.556 146.638 228.037C158.447 225.564 180.658 220.603 183.821 217.614C188.173 213.526 196.264 213.488 196.264 213.488C205.275 223.595 220.501 229.392 232.293 232.542C218.741 235.596 200.532 239.585 196.168 239.926Z" fill="black" fill-opacity="0.7"/>
</g>
<path d="M234.898 187.221L247.772 228.982C247.772 228.982 202.196 239.635 195.927 239.958L160.354 255.984C160.354 255.984 147.158 232.373 143.776 219.857C143.776 219.857 182.189 205.387 186.984 202.923C191.778 200.46 234.898 187.221 234.898 187.221Z" stroke="#263238" stroke-linecap="round" stroke-linejoin="round"/>
<path d="M172.029 253.573L132.797 270.779C134.462 268.193 136.59 262.629 137.622 259.796C138.012 258.742 138.238 258.06 138.238 258.06L139.045 256.321C142.665 247.654 150.305 242.94 156.321 238.156C162.338 233.372 161.886 233.915 167.764 230.56C172.173 228.036 176.378 225.174 180.344 221.997C183.929 219.249 190.177 214.323 194.029 213.552C195.917 213.174 197.506 213.61 198.502 214.772C199.499 215.933 199.944 217.95 199.407 220.647C198.33 225.914 186.295 235.219 184.706 236.199C183.117 237.18 178.153 240.243 176.962 242.591C176.986 242.576 173.09 249.306 172.029 253.573Z" fill="white"/>
<path opacity="0.4" d="M141.382 254.35C140.704 256.233 139.227 258.14 137.621 259.796C138.011 258.742 138.237 258.06 138.237 258.06L139.044 256.321C142.664 247.654 150.304 242.94 156.321 238.156C162.337 233.372 161.886 233.915 167.763 230.56C172.172 228.036 176.377 225.174 180.343 221.997C183.928 219.249 190.177 214.323 194.029 213.552C195.916 213.174 197.505 213.61 198.502 214.771C199.331 217.65 198.388 221.621 194.709 225.071C188.557 230.9 190.161 220.738 183.23 222.894C176.298 225.049 176.064 228.278 175.124 230.126C174.183 231.974 170.137 232.851 164.836 234.244C159.534 235.637 143.251 249.177 141.382 254.35Z" fill="#E39292"/>
<path d="M172.028 253.573C173.086 249.301 176.985 242.576 176.985 242.576C178.196 240.216 183.141 237.164 184.729 236.184C186.318 235.204 198.354 225.899 199.431 220.632C200.508 215.364 197.907 212.759 194.053 213.537C190.199 214.315 183.952 219.234 180.367 221.982C176.395 225.167 172.183 228.036 167.766 230.565C161.888 233.92 162.337 233.372 156.324 238.161C150.31 242.949 142.667 247.659 139.047 256.326L138.24 258.065C138.24 258.065 135.084 267.225 132.796 270.779" stroke="#263238" stroke-linecap="round" stroke-linejoin="round"/>
<path opacity="0.2" d="M196.669 120.737C196.669 120.737 201.917 101.947 202.187 100.709C202.457 99.4716 215.106 90.8596 219.513 85.1848C223.919 79.51 256.91 57.7221 256.91 57.7221C256.91 57.7221 258.135 54.1529 253.253 49.2339C248.37 44.315 247.383 37.1488 239.797 32.9825C232.212 28.8161 187.938 73.2943 187.938 73.2943L156.184 110.304L196.669 120.737Z" fill="black" fill-opacity="0.7"/>
<path d="M201.351 128.531C201.351 128.531 166.523 143.052 159.074 140.382C154.784 138.832 150.75 134.78 148.301 130.488C146.529 127.378 145.574 124.144 145.935 121.671C146.788 115.782 145.148 109.276 145.576 105.27C146.004 101.263 153.45 96.6554 158.678 91.0158C163.906 85.3762 162.535 82.7315 168.479 78.2634C174.424 73.7953 192.274 59.5536 195.024 52.0266C197.774 44.4995 201.91 41.8118 206.279 36.7026C210.648 31.5934 222.466 6.64753 222.466 6.64753L247.976 33.9408C247.976 33.9408 237.393 44.7015 229.242 54.2598C225.373 58.7961 222.046 63.0656 220.665 65.7756C217.981 70.9986 214.89 75.9951 211.422 80.7189C209.966 86.485 203.111 93.379 196.426 98.3109L196.998 109.482C199.234 116.963 201.351 128.531 201.351 128.531Z" fill="white"/>
<path opacity="0.4" d="M201.352 128.531C201.352 128.531 166.524 143.052 159.075 140.381C154.785 138.832 150.751 134.78 148.302 130.488C144.567 119.031 148.379 112.977 148.869 110.81C149.523 107.926 158.806 98.9367 165.855 96.3769C172.903 93.8171 174.641 91.4569 177.032 88.5033C182.33 81.9601 190.434 86.9453 193.454 86.1122C196.474 85.2792 210.63 76.1915 213.276 70.0637C214.687 66.8068 224.708 54.4749 229.236 54.2705C225.367 58.8067 222.041 63.0762 220.659 65.7863C217.975 71.0093 214.884 76.0057 211.416 80.7296C209.96 86.4956 203.105 93.3897 196.42 98.3216L196.992 109.493C199.235 116.963 201.352 128.531 201.352 128.531Z" fill="#E39292"/>
<path d="M180.097 89.0941C180.097 89.0941 176.979 88.5909 176.022 87.0394" stroke="#263238" stroke-linecap="round" stroke-linejoin="round"/>
<path d="M175.585 97.1585C175.585 97.1585 170.469 97.7058 167.727 95.2287" stroke="#263238" stroke-linecap="round" stroke-linejoin="round"/>
<path d="M150.362 108.086C150.362 108.086 154.816 111.242 158.291 110.033" stroke="#263238" stroke-linecap="round" stroke-linejoin="round"/>
<path d="M197 109.495C197 109.495 195.002 109.25 193.925 109.915" stroke="#263238" stroke-linecap="round" stroke-linejoin="round"/>
<path d="M247.988 33.9604C247.988 33.9604 224.977 57.3658 220.658 65.8072C217.973 71.0302 214.883 76.0267 211.415 80.7505C209.959 86.5165 203.099 93.4135 196.414 98.3455L196.986 109.517C199.221 116.985 201.33 128.53 201.33 128.53C201.33 128.53 166.503 143.052 159.054 140.381C151.605 137.71 145.12 127.59 145.941 121.66C146.763 115.73 145.154 109.265 145.583 105.259C146.011 101.252 153.456 96.6445 158.685 91.0049C163.913 85.3654 162.541 82.7206 168.486 78.2525C174.43 73.7844 192.281 59.5428 195.031 52.0157C197.781 44.4886 201.917 41.8009 206.286 36.6917C210.654 31.5825 222.466 6.64753 222.466 6.64753" stroke="#263238" stroke-linecap="round" stroke-linejoin="round"/>
<path d="M210.695 139.07L100.843 135.681L107.018 148.669L128.316 186.568L200.071 147.517L210.695 139.07Z" fill="#263238" stroke="#263238" stroke-linecap="round" stroke-linejoin="round"/>
<path d="M210.699 139.067L128.2 183.398L100.842 135.68L164.084 101.754L183.723 91.2219L195.496 112.105L210.699 139.067Z" fill="#757575"/>
<mask id="mask2_0_13507" style="mask-type:luminance" maskUnits="userSpaceOnUse" x="100" y="91" width="111" height="93">
<path d="M210.698 139.067L128.199 183.398L100.842 135.68L164.083 101.754L183.722 91.2219L195.495 112.105L210.698 139.067Z" fill="white"/>
</mask>
<g mask="url(#mask2_0_13507)">
<path d="M133.04 170.743C134.981 173.889 139.062 174.891 142.156 172.982C145.25 171.073 146.184 166.976 144.243 163.83C142.302 160.685 138.221 159.682 135.127 161.591C132.033 163.5 131.099 167.598 133.04 170.743Z" fill="#BFBFBF" stroke="#263238" stroke-miterlimit="10"/>
<path d="M141.37 163.387L143.254 167.553" stroke="#263238" stroke-linecap="round" stroke-linejoin="round"/>
<path d="M139.808 162.92L142.83 169.061" stroke="#263238" stroke-linecap="round" stroke-linejoin="round"/>
<path d="M133.79 165.745L136.816 171.891" stroke="#263238" stroke-linecap="round" stroke-linejoin="round"/>
<path d="M139.707 165.598C139.766 165.782 139.893 165.936 140.061 166.03C140.229 166.123 140.425 166.148 140.609 166.099L140.832 166.558L136.53 168.609L136.201 167.924L139.483 166.36L139.233 165.836L139.707 165.598Z" fill="#263238"/>
<path d="M140.863 167.849C141.021 168.104 140.905 168.338 140.621 168.473L140.573 168.503L140.443 168.237L140.486 168.21C140.602 168.139 140.637 168.077 140.595 167.987C140.553 167.898 140.476 167.871 140.355 167.932C140.233 167.994 140.155 168.096 140.088 168.354C140.071 168.475 140.025 168.59 139.955 168.688C139.885 168.787 139.792 168.867 139.685 168.922C139.401 169.056 139.175 168.992 139.043 168.714C138.912 168.436 139.006 168.222 139.282 168.086L139.384 168.023L139.511 168.283L139.39 168.358C139.274 168.429 139.247 168.494 139.289 168.583C139.331 168.672 139.406 168.708 139.528 168.646C139.65 168.584 139.727 168.482 139.794 168.224C139.811 168.103 139.857 167.989 139.927 167.89C139.997 167.791 140.09 167.711 140.198 167.656C140.509 167.512 140.757 167.569 140.863 167.849Z" fill="#263238"/>
<path d="M141.079 168.352L141.5 169.218L141.245 169.334L141.105 169.041L139.601 169.759L139.464 169.484L140.973 168.763L140.832 168.47L141.079 168.352Z" fill="#263238"/>
<path d="M192.539 117.54L188.864 107.197C188.769 106.93 188.478 106.788 188.214 106.88L181.847 109.093C181.584 109.185 181.447 109.476 181.542 109.743L185.217 120.085C185.312 120.352 185.603 120.495 185.866 120.403L192.233 118.19C192.497 118.098 192.634 117.807 192.539 117.54Z" fill="white" stroke="#263238" stroke-linecap="round" stroke-linejoin="round"/>
<path d="M184.33 112.208L184.343 112.152C184.343 112.152 184.401 112.117 184.41 112.077C184.417 112.04 184.432 112.006 184.454 111.976C184.462 111.968 184.472 111.961 184.483 111.958C184.483 111.958 184.498 111.982 184.541 111.976C184.555 111.984 184.571 111.988 184.588 111.988C184.604 111.989 184.621 111.985 184.635 111.979C184.642 111.972 184.651 111.967 184.66 111.964L184.678 111.993C184.77 111.937 184.801 111.836 184.837 111.732C184.923 111.483 184.992 111.4 185.126 111.357C185.26 111.315 185.324 111.344 185.361 111.436C185.398 111.528 185.361 111.599 185.23 111.646L185.163 111.687L185.261 111.966L185.314 111.933C185.42 111.913 185.514 111.853 185.576 111.766C185.639 111.678 185.665 111.569 185.65 111.461L185.784 111.419L185.702 111.178L185.566 111.228C185.448 111.037 185.251 110.988 185.004 111.073C184.895 111.115 184.799 111.183 184.725 111.273C184.651 111.363 184.601 111.47 184.58 111.586C184.499 111.832 184.42 111.922 184.291 111.961C184.162 112 184.09 111.97 184.058 111.874C184.025 111.779 184.054 111.707 184.181 111.663L184.329 111.612L184.231 111.333L184.12 111.402C184.063 111.409 184.009 111.427 183.96 111.456C183.911 111.484 183.868 111.522 183.834 111.568C183.8 111.613 183.775 111.666 183.762 111.721C183.748 111.777 183.746 111.835 183.755 111.891L183.639 111.963L183.721 112.204L183.857 112.154L183.936 112.282C183.973 112.312 184.016 112.334 184.062 112.346C184.11 112.358 184.16 112.361 184.209 112.357C184.301 112.226 184.316 112.217 184.33 112.208Z" fill="#263238"/>
<path d="M185.241 113.51C185.278 113.484 185.309 113.451 185.334 113.412C185.35 113.396 185.37 113.383 185.392 113.376C185.411 113.375 185.43 113.38 185.447 113.39C185.644 113.451 185.699 113.194 185.649 113.048C185.633 112.997 185.603 112.951 185.565 112.915C185.526 112.878 185.478 112.852 185.427 112.839L185.867 112.71L186.049 113.221L186.311 113.127L186.038 112.361C185.997 112.366 185.957 112.377 185.919 112.394C185.885 112.415 185.902 112.465 185.864 112.488C185.825 112.512 185.83 112.509 185.811 112.521C185.788 112.548 185.776 112.582 185.776 112.617C185.792 112.642 185.763 112.693 185.731 112.706C185.724 112.715 185.714 112.721 185.702 112.724C185.646 112.733 185.589 112.723 185.538 112.696C185.523 112.679 185.502 112.668 185.479 112.665L185.45 112.683C185.416 112.704 185.373 112.676 185.335 112.659C185.298 112.641 185.098 112.663 184.973 112.699L185.072 112.977L185.12 112.947C185.251 112.9 185.319 112.946 185.353 113.034C185.387 113.121 185.36 113.206 185.226 113.248L184.82 113.39C184.709 113.459 184.624 113.396 184.591 113.301C184.559 113.205 184.583 113.136 184.714 113.089L184.885 113.031L184.787 112.753L184.633 112.807C184.569 112.82 184.509 112.847 184.456 112.886C184.404 112.925 184.36 112.975 184.328 113.032C184.297 113.09 184.278 113.154 184.273 113.22C184.267 113.285 184.276 113.352 184.299 113.414C184.321 113.477 184.356 113.534 184.402 113.582C184.448 113.63 184.503 113.668 184.564 113.693C184.626 113.718 184.691 113.73 184.757 113.728C184.822 113.725 184.887 113.709 184.945 113.679C185.051 113.638 185.151 113.581 185.241 113.51Z" fill="#263238"/>
<path d="M186.542 117.133C186.578 117.105 186.609 117.072 186.635 117.035C186.651 117.019 186.671 117.006 186.693 116.999C186.712 116.998 186.732 117.003 186.748 117.013C186.943 117.069 186.997 116.812 186.951 116.671C186.934 116.62 186.905 116.574 186.866 116.538C186.827 116.501 186.78 116.475 186.729 116.462L187.169 116.333L187.351 116.844L187.613 116.75L187.34 115.983C187.298 115.986 187.257 115.998 187.22 116.017C187.186 116.037 187.201 116.083 187.165 116.111C187.13 116.14 187.132 116.132 187.112 116.144C187.09 116.171 187.077 116.205 187.078 116.24C187.093 116.264 187.065 116.316 187.033 116.329C187.001 116.342 187.033 116.329 187.004 116.347C186.946 116.356 186.887 116.345 186.837 116.314C186.821 116.3 186.802 116.291 186.781 116.288C186.781 116.288 186.781 116.288 186.752 116.306C186.723 116.323 186.678 116.304 186.64 116.286C186.603 116.269 186.403 116.291 186.278 116.327L186.376 116.605L186.425 116.575C186.556 116.528 186.624 116.574 186.658 116.662C186.692 116.749 186.661 116.829 186.53 116.876L186.125 117.018C186.014 117.087 185.928 117.024 185.896 116.929C185.864 116.833 185.888 116.764 186.019 116.717L186.19 116.659L186.091 116.381L185.938 116.435C185.878 116.451 185.822 116.48 185.774 116.519C185.726 116.559 185.687 116.608 185.658 116.663C185.63 116.719 185.613 116.78 185.609 116.842C185.605 116.905 185.614 116.968 185.635 117.027C185.656 117.087 185.689 117.142 185.732 117.188C185.775 117.234 185.827 117.272 185.884 117.297C185.941 117.323 186.003 117.337 186.065 117.338C186.128 117.338 186.189 117.326 186.247 117.302C186.354 117.263 186.454 117.206 186.542 117.133Z" fill="#263238"/>
<path d="M186.064 113.775C186.195 113.728 186.268 113.771 186.297 113.862C186.31 113.889 186.312 113.92 186.304 113.948C186.296 113.977 186.278 114.001 186.254 114.018L186.305 114.101C186.293 114.113 186.283 114.127 186.277 114.142C186.27 114.158 186.267 114.175 186.268 114.192C186.262 114.236 186.271 114.284 186.269 114.334C186.329 114.319 186.386 114.291 186.435 114.252C186.484 114.213 186.524 114.164 186.552 114.108C186.581 114.052 186.597 113.99 186.6 113.927C186.603 113.864 186.593 113.8 186.57 113.741C186.554 113.676 186.524 113.615 186.482 113.563C186.439 113.511 186.386 113.47 186.325 113.441C186.265 113.413 186.199 113.399 186.133 113.401C186.066 113.402 186.002 113.419 185.943 113.45C185.911 113.466 185.881 113.485 185.851 113.506C185.774 113.554 185.798 113.539 185.818 113.636C185.837 113.732 185.814 113.781 185.747 113.727L185.775 113.771C185.775 113.771 185.741 113.792 185.726 113.801C185.712 113.81 185.702 113.816 185.668 113.803C185.658 113.815 185.644 113.824 185.629 113.827C185.629 113.827 185.542 113.826 185.526 113.822C185.494 113.823 185.461 113.815 185.432 113.799C185.354 113.759 185.374 113.706 185.266 113.746C185.157 113.786 185.144 113.787 185.09 113.807C185.025 113.821 184.965 113.848 184.912 113.887C184.859 113.927 184.815 113.977 184.784 114.035C184.752 114.093 184.733 114.157 184.727 114.223C184.722 114.29 184.731 114.357 184.753 114.42C184.775 114.483 184.811 114.541 184.857 114.589C184.902 114.638 184.958 114.676 185.019 114.702C185.081 114.728 185.147 114.74 185.213 114.738C185.279 114.737 185.343 114.721 185.403 114.692L185.789 114.562L185.771 114.532C185.761 114.458 185.757 114.383 185.76 114.309L185.771 114.241L185.276 114.411C185.16 114.482 185.072 114.415 185.042 114.324C185.013 114.234 185.039 114.157 185.17 114.11L185.915 113.847C185.954 113.819 186.001 113.804 186.049 113.805L186.064 113.775Z" fill="#263238"/>
<path d="M186.013 115.475L186.028 115.499C186.052 115.484 186.076 115.469 186.11 115.448L186.177 115.557L186.6 115.411C186.665 115.397 186.725 115.369 186.778 115.33C186.831 115.291 186.875 115.24 186.907 115.182C186.938 115.125 186.958 115.06 186.963 114.994C186.968 114.928 186.959 114.861 186.937 114.798C186.915 114.735 186.879 114.677 186.833 114.628C186.788 114.579 186.732 114.541 186.671 114.515C186.609 114.49 186.543 114.477 186.477 114.479C186.411 114.481 186.347 114.497 186.287 114.526L186.22 114.567C186.212 114.62 186.176 114.669 186.173 114.718C186.17 114.768 186.227 114.807 186.136 114.843C186.045 114.878 186.05 114.855 186.045 114.899C186.039 114.944 186.066 114.934 186.035 114.959C186.031 114.97 186.024 114.979 186.014 114.985C186.004 114.991 185.993 114.993 185.982 114.992C185.982 114.992 185.961 114.958 185.914 114.98C185.868 115.002 185.842 115.024 185.814 115.001C185.786 114.977 185.814 114.872 185.776 114.821C185.759 114.805 185.737 114.794 185.714 114.789C185.691 114.784 185.668 114.785 185.646 114.793C185.548 114.818 185.453 114.852 185.361 114.894C185.299 114.907 185.241 114.935 185.191 114.974C185.141 115.013 185.1 115.063 185.071 115.12C185.043 115.177 185.027 115.24 185.026 115.304C185.024 115.368 185.037 115.432 185.063 115.491C185.083 115.556 185.116 115.616 185.161 115.667C185.206 115.717 185.262 115.758 185.324 115.784C185.388 115.805 185.454 115.815 185.521 115.812C185.559 115.819 185.599 115.811 185.631 115.791C185.664 115.771 185.689 115.739 185.7 115.702L185.684 115.677L185.779 115.571C185.779 115.571 185.779 115.571 185.829 115.588C185.88 115.604 185.921 115.531 185.985 115.559C186.049 115.588 185.997 115.471 186.013 115.475ZM185.557 115.471C185.426 115.518 185.353 115.475 185.321 115.38C185.289 115.284 185.318 115.212 185.449 115.165L186.439 114.825C186.57 114.778 186.64 114.816 186.672 114.912C186.705 115.007 186.676 115.079 186.545 115.126L185.557 115.471Z" fill="#263238"/>
<path d="M185.683 116.281L185.404 116.378L185.302 116.096L185.582 115.998L185.683 116.281Z" fill="#263238"/>
<path d="M187.379 118.068C187.398 118.098 187.509 118.029 187.553 118.015C187.618 118.001 187.679 117.974 187.731 117.934C187.784 117.895 187.828 117.845 187.86 117.787C187.892 117.729 187.911 117.665 187.916 117.598C187.921 117.532 187.912 117.465 187.89 117.402C187.868 117.339 187.833 117.281 187.787 117.233C187.741 117.184 187.685 117.145 187.624 117.12C187.563 117.094 187.497 117.082 187.431 117.083C187.365 117.085 187.3 117.101 187.241 117.13L186.872 117.256C186.853 117.356 186.722 117.348 186.673 117.42C186.623 117.491 186.673 117.42 186.644 117.437C186.615 117.455 186.555 117.391 186.516 117.414C186.516 117.414 186.434 117.411 186.39 117.404C186.357 117.403 186.325 117.411 186.297 117.427C186.233 117.441 186.172 117.469 186.119 117.508C186.067 117.547 186.023 117.598 185.991 117.655C185.959 117.713 185.94 117.778 185.935 117.844C185.929 117.91 185.938 117.977 185.961 118.04C185.983 118.103 186.018 118.161 186.064 118.21C186.11 118.258 186.165 118.297 186.227 118.323C186.288 118.348 186.354 118.361 186.42 118.359C186.486 118.357 186.551 118.341 186.61 118.312L186.912 118.207C186.98 118.166 187.213 118.144 187.211 118.023C187.21 117.901 187.187 117.983 187.215 117.953C187.222 117.94 187.233 117.929 187.245 117.921C187.258 117.913 187.272 117.909 187.287 117.908C187.372 117.937 187.317 118.032 187.379 118.068ZM186.77 118.031C186.741 118.049 186.701 118.006 186.647 118.005C186.587 118.016 186.53 118.035 186.476 118.063C186.345 118.11 186.277 118.064 186.243 117.976C186.209 117.889 186.236 117.804 186.37 117.762C186.404 117.741 186.528 117.726 186.551 117.698C186.574 117.67 186.521 117.649 186.567 117.593C186.608 117.548 186.661 117.515 186.721 117.498C186.734 117.494 186.745 117.487 186.755 117.477C186.755 117.477 186.783 117.426 186.818 117.439C186.818 117.439 186.88 117.4 186.924 117.373C186.963 117.566 187.196 117.415 187.308 117.38C187.42 117.345 187.512 117.376 187.542 117.466C187.571 117.557 187.545 117.634 187.419 117.678C187.3 117.705 187.185 117.748 187.078 117.807C187.088 117.829 187.089 117.854 187.083 117.877C187.077 117.901 187.064 117.921 187.044 117.936C187.016 117.947 186.99 117.963 186.967 117.983C186.967 117.983 186.924 118.01 186.904 118.022C186.885 118.034 186.886 117.993 186.874 117.973C186.86 117.963 186.845 117.956 186.828 117.953C186.811 117.951 186.794 117.952 186.778 117.958L186.77 118.031Z" fill="#263238"/>
<path d="M189.197 113.157L189.863 115.037" stroke="#263238" stroke-linecap="round" stroke-linejoin="round"/>
<path d="M187.681 108.886L188.861 112.225" stroke="#263238" stroke-linecap="round" stroke-linejoin="round"/>
<path d="M186.409 109.332L187.194 111.533" stroke="#263238" stroke-linecap="round" stroke-linejoin="round"/>
<path opacity="0.4" d="M102.87 137.39C105.126 139.56 107.114 141.997 108.788 144.646C111.861 149.366 112.858 152.981 117.194 155.729C121.53 158.477 119.659 163.15 123.889 165.726C128.119 168.301 132.257 168.155 133.528 170.367C134.8 172.579 170.998 154.703 177.527 152.111C184.056 149.52 201.832 141.608 205.634 140.313L128.833 181.799L102.87 137.39Z" fill="white"/>
<path d="M117.591 128.591L110.653 149.408L103.621 136.283L117.591 128.591Z" fill="#E39292" stroke="#263238" stroke-linecap="round" stroke-linejoin="round"/>
<path d="M165.535 142.889L159.965 146.062C159.187 146.505 158.329 146.788 157.438 146.894C156.548 147.001 155.642 146.93 154.774 146.685C153.905 146.439 153.091 146.025 152.377 145.464C151.663 144.904 151.063 144.209 150.613 143.42L147.296 137.602C146.844 136.81 146.55 135.939 146.431 135.037C146.312 134.136 146.371 133.222 146.604 132.349C146.837 131.475 147.24 130.66 147.789 129.948C148.339 129.237 149.024 128.644 149.805 128.204L157.062 124.079C158.631 123.186 160.497 122.963 162.25 123.459C164.003 123.955 165.499 125.13 166.409 126.724L169.73 132.538C169.827 132.695 169.924 132.853 169.999 133.05C168.753 132.718 167.438 132.836 166.282 133.381C165.126 133.926 164.202 134.866 163.671 136.035C163.14 137.205 163.036 138.532 163.377 139.784C163.717 141.036 164.481 142.135 165.535 142.889Z" fill="#E39292" stroke="#263238" stroke-linecap="round" stroke-linejoin="round"/>
<path d="M170.877 141.01C170.341 141.316 169.726 141.453 169.108 141.405C168.49 141.357 167.898 141.126 167.405 140.741C166.913 140.355 166.543 139.833 166.342 139.24C166.141 138.647 166.119 138.01 166.277 137.41C166.436 136.809 166.768 136.272 167.232 135.866C167.697 135.461 168.272 135.205 168.885 135.131C169.499 135.057 170.123 135.168 170.679 135.451C171.235 135.733 171.698 136.174 172.009 136.718C172.424 137.448 172.538 138.309 172.326 139.113C172.114 139.917 171.593 140.599 170.877 141.01Z" fill="#E39292" stroke="#263238" stroke-linecap="round" stroke-linejoin="round"/>
<path opacity="0.4" d="M150.13 130.241L162.336 134.268C162.336 134.268 165.454 130.88 167.301 131.204L164.819 127.183C164.225 126.213 163.289 125.502 162.202 125.197C161.115 124.891 159.959 125.013 158.97 125.539L150.13 130.241Z" fill="white"/>
<path opacity="0.4" d="M168.366 137.265L171.404 137.865C171.404 137.865 171.455 136.295 170.298 136.073C169.141 135.852 168.366 137.265 168.366 137.265Z" fill="white"/>
<path d="M125.76 162.348L133.513 176.2" stroke="#263238" stroke-linecap="round" stroke-linejoin="round"/>
<path d="M121.538 158.5L131.794 177.261" stroke="#263238" stroke-linecap="round" stroke-linejoin="round"/>
<path d="M125.994 174.271L128.93 179.028" stroke="#263238" stroke-linecap="round" stroke-linejoin="round"/>
<path opacity="0.2" d="M164.548 127.641C156.958 122.711 163.842 108.051 163.801 104.429C163.803 103.529 163.898 102.632 164.083 101.753L183.722 91.2212L195.492 112.099C192.59 113.707 189.502 115.673 188.104 117.417C185.046 121.202 172.129 132.569 164.548 127.641Z" fill="black" fill-opacity="0.7"/>
<path opacity="0.4" d="M159.145 120.203C159.145 120.203 160.204 127.237 163.172 128.89C166.139 130.544 170.512 131.601 176.735 128.297C176.735 128.297 170.353 136.811 163.704 131.687C157.055 126.563 159.145 120.203 159.145 120.203Z" fill="white"/>
<path opacity="0.4" d="M154.436 120.113C154.436 120.113 158.419 133.247 166.799 134.747C166.799 134.747 163.401 135.949 159.319 131.268C155.237 126.588 154.436 120.113 154.436 120.113Z" fill="white"/>
<path opacity="0.4" d="M184.935 126.37C185.906 124.584 173.06 133.968 173.06 133.968C173.06 133.968 182.932 130.019 184.935 126.37Z" fill="white"/>
</g>
<path d="M210.699 139.067L128.2 183.398L100.842 135.68L164.084 101.754L183.723 91.2219L195.496 112.105L210.699 139.067Z" stroke="#263238" stroke-linecap="round" stroke-linejoin="round"/>
<path opacity="0.4" d="M129.254 186.055L128.628 184.09L203.997 143.202L199.632 146.892L129.254 186.055Z" fill="white"/>
<path d="M164.549 127.642C163.815 127.205 163.192 126.601 162.731 125.879C162.271 125.157 161.985 124.337 161.899 123.487C161.785 121.995 162.145 120.512 162.927 119.253C165.169 115.192 169.763 105.11 171.416 102.755C173.07 100.399 178.114 94.3305 179.466 90.5469C180.819 86.7633 184.116 83.1155 184.116 83.1155L222.609 58.2921C217.691 62.9332 213.271 70.0877 213.271 70.0877C213.564 73.7528 212.919 77.4186 211.398 80.7338C211.183 81.5588 210.889 82.3599 210.521 83.1261C207.649 89.2777 199.904 96.1782 193.247 100.517C185.723 105.431 183.818 110.091 179.676 118.28C175.534 126.469 167.667 129.378 164.549 127.642Z" fill="white"/>
<path opacity="0.4" d="M164.549 127.641C163.821 127.198 163.204 126.592 162.744 125.871C162.284 125.15 161.995 124.334 161.899 123.487C163.873 125.347 166.804 127.579 168.045 125.884C170.04 123.195 164.208 122.53 164.531 120.189C164.853 117.848 168.715 107.682 174.155 109.267C179.594 110.853 184.318 106.385 184.33 102.989C184.341 99.5922 188.962 98.9441 195.163 96.1886C198.929 94.543 205.732 88.0197 210.537 83.1427C207.665 89.2943 199.921 96.1948 193.263 100.534C185.74 105.447 183.835 110.107 179.693 118.297C175.551 126.486 167.575 129.435 164.549 127.641Z" fill="#E39292"/>
<path d="M222.632 58.2771C217.715 62.9182 213.295 70.0726 213.295 70.0726C213.588 73.7378 212.943 77.4035 211.422 80.7188C209.739 87.3913 200.811 95.5844 193.29 100.49C185.768 105.396 183.861 110.064 179.719 118.253C175.578 126.442 167.933 129.593 164.537 127.622C162.164 126.252 160.676 123.299 162.915 119.234C165.153 115.168 169.75 105.091 171.404 102.735C173.058 100.379 178.101 94.3108 179.454 90.5272C180.807 86.7435 184.104 83.0958 184.104 83.0958" stroke="#263238" stroke-linecap="round" stroke-linejoin="round"/>
<path d="M174.156 105.606C174.156 105.606 176.393 108.605 178.459 109.337" stroke="#263238" stroke-linecap="round" stroke-linejoin="round"/>
<path d="M182.63 82.4259C182.63 82.4259 180.8 82.7012 181.351 86.8356" stroke="#263238" stroke-linecap="round" stroke-linejoin="round"/>
</svg>
