<svg width="18" height="18" viewBox="0 0 18 18" fill="none" xmlns="http://www.w3.org/2000/svg">
<path d="M15.3258 1.35726C14.3423 0.407279 12.5644 0 10.2901 0H3.68918C3.22386 0 2.82845 0.286788 2.7556 0.675645L0.00713496 15.4477C-0.0475053 15.739 0.218646 16.0029 0.56705 16.0029H4.64215L5.66563 10.5016L5.6339 10.6739C5.70676 10.285 6.09923 9.99825 6.56396 9.99825H8.50046C12.3047 9.99825 15.2835 8.68878 16.1536 4.90079C16.1795 4.78876 16.2018 4.67972 16.2212 4.57317C16.1113 4.52388 16.1113 4.52388 16.2212 4.57317C16.4803 3.17309 16.2194 2.22012 15.3258 1.35726Z" fill="white"/>
<path d="M7.22493 4.06881C7.33363 4.02499 7.45466 4.00059 7.58156 4.00059H12.7565C13.3693 4.00059 13.941 4.03445 14.4633 4.10565C14.6131 4.12606 14.7582 4.14947 14.8992 4.17635C15.0403 4.20274 15.1771 4.23261 15.3099 4.26547C15.3763 4.28191 15.4415 4.29883 15.5056 4.31676C15.7623 4.38945 16.0014 4.47409 16.2212 4.57317C16.4803 3.17259 16.2194 2.22012 15.3258 1.35726C14.3417 0.407279 12.5644 0 10.2901 0H3.68859C3.22386 0 2.82845 0.286788 2.7556 0.675645L0.00713536 15.4472C-0.0475049 15.739 0.218646 16.0024 0.566463 16.0024H4.64215L6.76549 4.5916C6.80896 4.35759 6.9864 4.1659 7.22493 4.06881Z" fill="white"/>
<path d="M16.1536 4.90086C15.2834 8.68835 12.3047 9.99832 8.50042 9.99832H6.56333C6.0986 9.99832 5.70613 10.2851 5.63386 10.674L4.36069 17.5141C4.3131 17.769 4.54576 18 4.8501 18H8.28538C8.69195 18 9.03801 17.7491 9.10146 17.409L9.13495 17.2606L9.78241 13.7833L9.82412 13.5911C9.88758 13.2511 10.2336 13.0001 10.6402 13.0001H11.1543C14.4821 13.0001 17.0877 11.8545 17.8492 8.54097C18.167 7.15633 18.0025 6.00021 17.1618 5.18814C16.9068 4.94218 16.5901 4.73904 16.2211 4.57324C16.2012 4.68029 16.1794 4.78883 16.1536 4.90086Z" fill="#2790C3"/>
<path d="M15.3108 4.26537C15.178 4.23251 15.0411 4.20263 14.9001 4.17625C14.7591 4.14986 14.6134 4.12646 14.4642 4.10604C13.9413 4.03435 13.3702 4.00049 12.7568 4.00049H7.58243C7.45493 4.00049 7.3339 4.02489 7.2258 4.0692C6.98667 4.16629 6.80982 4.35748 6.76635 4.59199L5.66649 10.5015L5.63477 10.6738C5.70703 10.2849 6.0995 9.99814 6.56424 9.99814H8.50132C12.3056 9.99814 15.2844 8.68868 16.1545 4.90068C16.1803 4.78866 16.2021 4.68012 16.222 4.57307C16.0017 4.47449 15.7632 4.38935 15.5064 4.31715C15.4424 4.29923 15.3772 4.2818 15.3108 4.26537Z" fill="black"/>
</svg>
