<svg width="41" height="41" viewBox="0 0 41 41" fill="none" xmlns="http://www.w3.org/2000/svg">
<path d="M20.5003 17.0834C24.2743 17.0834 27.3337 14.024 27.3337 10.2501C27.3337 6.47614 24.2743 3.41675 20.5003 3.41675C16.7264 3.41675 13.667 6.47614 13.667 10.2501C13.667 14.024 16.7264 17.0834 20.5003 17.0834Z" stroke="white" stroke-width="1.5"/>
<path d="M34.1617 30.7502C34.1668 30.47 34.1668 30.1847 34.1668 29.896C34.1668 25.6508 28.0476 22.2085 20.5002 22.2085C12.9527 22.2085 6.8335 25.6508 6.8335 29.896C6.8335 34.1412 6.8335 37.5835 20.5002 37.5835C24.3115 37.5835 27.0602 37.3153 29.0418 36.837" stroke="white" stroke-width="1.5" stroke-linecap="round"/>
</svg>
