<svg width="56" height="56" viewBox="0 0 56 56" fill="none" xmlns="http://www.w3.org/2000/svg">
<path d="M27.9993 23.3334C33.154 23.3334 37.3327 19.1547 37.3327 14.0001C37.3327 8.84542 33.154 4.66675 27.9993 4.66675C22.8447 4.66675 18.666 8.84542 18.666 14.0001C18.666 19.1547 22.8447 23.3334 27.9993 23.3334Z" stroke="black" stroke-width="1.5"/>
<path d="M46.6593 42C46.6663 41.6174 46.6663 41.2277 46.6663 40.8334C46.6663 35.035 38.3083 30.3334 27.9997 30.3334C17.691 30.3334 9.33301 35.035 9.33301 40.8334C9.33301 46.6317 9.33301 51.3334 27.9997 51.3334C33.2053 51.3334 36.9597 50.967 39.6663 50.3137" stroke="black" stroke-width="1.5" stroke-linecap="round"/>
</svg>
