<svg width="48" height="48" viewBox="0 0 48 48" fill="none" xmlns="http://www.w3.org/2000/svg">
<path d="M33.8399 9C30.1379 9 27.2439 11.788 24.6239 15.33C21.0239 10.746 18.0139 9 14.4119 9C7.06794 9 1.43994 18.56 1.43994 28.676C1.43994 35.006 4.50194 39 9.63194 39C13.3239 39 15.9799 37.26 20.7019 29.006C20.7019 29.006 22.6699 25.532 24.0219 23.138C24.4979 23.904 24.9959 24.728 25.5219 25.614L27.7359 29.338C32.0479 36.554 34.4519 39 38.8039 39C43.8039 39 46.5839 34.952 46.5839 28.49C46.5839 17.896 40.8299 9 33.8399 9ZM17.0999 26.772C13.2739 32.772 11.9499 34.118 9.81994 34.118C7.62594 34.118 6.32194 32.192 6.32194 28.758C6.32194 21.414 9.98394 13.904 14.3499 13.904C16.7139 13.904 18.6899 15.268 21.7159 19.6C18.8419 24.008 17.0999 26.772 17.0999 26.772ZM31.5479 26.018L28.8999 21.6C28.2347 20.5136 27.5465 19.4413 26.8359 18.384C29.2219 14.702 31.1879 12.866 33.5299 12.866C38.3899 12.866 42.2799 20.026 42.2799 28.818C42.2799 32.17 41.1819 34.116 38.9079 34.116C36.7279 34.116 35.6879 32.678 31.5479 26.018Z" fill="#1A377D"/>
</svg>
