<svg width="13" height="13" viewBox="0 0 13 13" fill="none" xmlns="http://www.w3.org/2000/svg">
<g opacity="0.4">
<path d="M9.76744 9.00079L12.0874 11.3202L11.3209 12.0867L9.00153 9.76671C8.13851 10.4585 7.06507 10.8348 5.95898 10.8333C3.26798 10.8333 1.08398 8.64925 1.08398 5.95825C1.08398 3.26725 3.26798 1.08325 5.95898 1.08325C8.64998 1.08325 10.834 3.26725 10.834 5.95825C10.8356 7.06434 10.4593 8.13778 9.76744 9.00079ZM8.68086 8.59888C9.3683 7.89194 9.7522 6.94432 9.75065 5.95825C9.75065 3.86363 8.05361 2.16659 5.95898 2.16659C3.86436 2.16659 2.16732 3.86363 2.16732 5.95825C2.16732 8.05288 3.86436 9.74992 5.95898 9.74992C6.94505 9.75147 7.89267 9.36756 8.59961 8.68013L8.68086 8.59888Z" fill="black"/>
</g>
</svg>
