<svg width="385" height="248" viewBox="0 0 385 248" fill="none" xmlns="http://www.w3.org/2000/svg">
<g filter="url(#filter0_dd_12_38)">
<path d="M20 28C20 21.3726 25.3726 16 32 16H353C359.627 16 365 21.3726 365 28V212C365 218.627 359.627 224 353 224H32C25.3726 224 20 218.627 20 212V28Z" fill="white"/>
</g>
<path d="M156 16H230V39C230 43.9706 225.971 48 221 48H165C160.029 48 156 43.9706 156 39V16Z" fill="#E8EBF2"/>
<path d="M177.669 35.44L175.581 41H174.525L172.429 35.44H173.405L175.053 40.064L176.709 35.44H177.669ZM178.896 36.008C178.731 36.008 178.592 35.952 178.48 35.84C178.368 35.728 178.312 35.5893 178.312 35.424C178.312 35.2587 178.368 35.12 178.48 35.008C178.592 34.896 178.731 34.84 178.896 34.84C179.056 34.84 179.192 34.896 179.304 35.008C179.416 35.12 179.472 35.2587 179.472 35.424C179.472 35.5893 179.416 35.728 179.304 35.84C179.192 35.952 179.056 36.008 178.896 36.008ZM179.344 36.592V41H178.432V36.592H179.344ZM184.581 38.688C184.581 38.8533 184.571 39.0027 184.549 39.136H181.181C181.208 39.488 181.339 39.7707 181.573 39.984C181.808 40.1973 182.096 40.304 182.437 40.304C182.928 40.304 183.275 40.0987 183.477 39.688H184.461C184.328 40.0933 184.085 40.4267 183.733 40.688C183.387 40.944 182.955 41.072 182.437 41.072C182.016 41.072 181.637 40.9787 181.301 40.792C180.971 40.6 180.709 40.3333 180.517 39.992C180.331 39.6453 180.237 39.2453 180.237 38.792C180.237 38.3387 180.328 37.9413 180.509 37.6C180.696 37.2533 180.955 36.9867 181.285 36.8C181.621 36.6133 182.005 36.52 182.437 36.52C182.853 36.52 183.224 36.6107 183.549 36.792C183.875 36.9733 184.128 37.2293 184.309 37.56C184.491 37.8853 184.581 38.2613 184.581 38.688ZM183.629 38.4C183.624 38.064 183.504 37.7947 183.269 37.592C183.035 37.3893 182.744 37.288 182.397 37.288C182.083 37.288 181.813 37.3893 181.589 37.592C181.365 37.7893 181.232 38.0587 181.189 38.4H183.629ZM191.399 36.592L190.031 41H189.071L188.183 37.744L187.295 41H186.335L184.959 36.592H185.887L186.807 40.136L187.743 36.592H188.695L189.591 40.12L190.503 36.592H191.399ZM200.015 35.44V41H199.103V37.192L197.407 41H196.775L195.071 37.192V41H194.159V35.44H195.143L197.095 39.8L199.039 35.44H200.015ZM203.125 41.072C202.709 41.072 202.333 40.9787 201.997 40.792C201.661 40.6 201.397 40.3333 201.205 39.992C201.013 39.6453 200.917 39.2453 200.917 38.792C200.917 38.344 201.016 37.9467 201.213 37.6C201.411 37.2533 201.68 36.9867 202.021 36.8C202.363 36.6133 202.744 36.52 203.165 36.52C203.587 36.52 203.968 36.6133 204.309 36.8C204.651 36.9867 204.92 37.2533 205.117 37.6C205.315 37.9467 205.413 38.344 205.413 38.792C205.413 39.24 205.312 39.6373 205.109 39.984C204.907 40.3307 204.629 40.6 204.277 40.792C203.931 40.9787 203.547 41.072 203.125 41.072ZM203.125 40.28C203.36 40.28 203.579 40.224 203.781 40.112C203.989 40 204.157 39.832 204.285 39.608C204.413 39.384 204.477 39.112 204.477 38.792C204.477 38.472 204.416 38.2027 204.293 37.984C204.171 37.76 204.008 37.592 203.805 37.48C203.603 37.368 203.384 37.312 203.149 37.312C202.915 37.312 202.696 37.368 202.493 37.48C202.296 37.592 202.139 37.76 202.021 37.984C201.904 38.2027 201.845 38.472 201.845 38.792C201.845 39.2667 201.965 39.6347 202.205 39.896C202.451 40.152 202.757 40.28 203.125 40.28ZM207.227 37.232C207.36 37.008 207.536 36.8347 207.755 36.712C207.979 36.584 208.243 36.52 208.547 36.52V37.464H208.315C207.958 37.464 207.686 37.5547 207.499 37.736C207.318 37.9173 207.227 38.232 207.227 38.68V41H206.315V36.592H207.227V37.232ZM213.425 38.688C213.425 38.8533 213.414 39.0027 213.393 39.136H210.025C210.052 39.488 210.182 39.7707 210.417 39.984C210.652 40.1973 210.94 40.304 211.281 40.304C211.772 40.304 212.118 40.0987 212.321 39.688H213.305C213.172 40.0933 212.929 40.4267 212.577 40.688C212.23 40.944 211.798 41.072 211.281 41.072C210.86 41.072 210.481 40.9787 210.145 40.792C209.814 40.6 209.553 40.3333 209.361 39.992C209.174 39.6453 209.081 39.2453 209.081 38.792C209.081 38.3387 209.172 37.9413 209.353 37.6C209.54 37.2533 209.798 36.9867 210.129 36.8C210.465 36.6133 210.849 36.52 211.281 36.52C211.697 36.52 212.068 36.6107 212.393 36.792C212.718 36.9733 212.972 37.2293 213.153 37.56C213.334 37.8853 213.425 38.2613 213.425 38.688ZM212.473 38.4C212.468 38.064 212.348 37.7947 212.113 37.592C211.878 37.3893 211.588 37.288 211.241 37.288C210.926 37.288 210.657 37.3893 210.433 37.592C210.209 37.7893 210.076 38.0587 210.033 38.4H212.473Z" fill="black"/>
<g clip-path="url(#clip0_12_38)">
<path d="M196.003 25.54C196.042 25.5013 196.073 25.4553 196.094 25.4047C196.115 25.3541 196.126 25.2998 196.126 25.245C196.126 25.1902 196.115 25.1359 196.094 25.0853C196.073 25.0347 196.042 24.9887 196.003 24.95L193.233 22.18C193.202 22.1491 193.166 22.1246 193.126 22.1079C193.085 22.0911 193.042 22.0825 192.998 22.0825C192.955 22.0825 192.911 22.0911 192.871 22.1079C192.831 22.1246 192.794 22.1491 192.763 22.18L189.993 24.95C189.83 25.1133 189.83 25.3767 189.993 25.54C190.157 25.7033 190.42 25.7033 190.583 25.54L193 23.1267L195.417 25.5433C195.577 25.7033 195.843 25.7033 196.003 25.54Z" fill="black"/>
</g>
<line opacity="0.23" x1="53.5" y1="61" x2="53.5" y2="223" stroke="black"/>
<line opacity="0.23" x1="37" y1="206.5" x2="347" y2="206.5" stroke="black"/>
<path opacity="0.6" d="M32.7127 176.38C32.9687 176.159 33.17 175.977 33.3167 175.836C33.466 175.692 33.59 175.543 33.6887 175.388C33.7874 175.233 33.8367 175.079 33.8367 174.924C33.8367 174.764 33.798 174.639 33.7207 174.548C33.646 174.457 33.5274 174.412 33.3647 174.412C33.2074 174.412 33.0847 174.463 32.9967 174.564C32.9114 174.663 32.866 174.796 32.8607 174.964H32.4207C32.4287 174.66 32.5194 174.428 32.6927 174.268C32.8687 174.105 33.0914 174.024 33.3607 174.024C33.6514 174.024 33.878 174.104 34.0407 174.264C34.206 174.424 34.2887 174.637 34.2887 174.904C34.2887 175.096 34.2394 175.281 34.1407 175.46C34.0447 175.636 33.9287 175.795 33.7927 175.936C33.6594 176.075 33.4887 176.236 33.2807 176.42L33.1007 176.58H34.3687V176.96H32.4247V176.628L32.7127 176.38ZM34.7693 175.504C34.7693 175.043 34.8466 174.683 35.0013 174.424C35.1586 174.163 35.428 174.032 35.8093 174.032C36.1906 174.032 36.4586 174.163 36.6133 174.424C36.7706 174.683 36.8493 175.043 36.8493 175.504C36.8493 175.971 36.7706 176.336 36.6133 176.6C36.4586 176.861 36.1906 176.992 35.8093 176.992C35.428 176.992 35.1586 176.861 35.0013 176.6C34.8466 176.336 34.7693 175.971 34.7693 175.504ZM36.4013 175.504C36.4013 175.288 36.3866 175.105 36.3573 174.956C36.3306 174.807 36.2746 174.685 36.1893 174.592C36.104 174.496 35.9773 174.448 35.8093 174.448C35.6413 174.448 35.5146 174.496 35.4293 174.592C35.344 174.685 35.2866 174.807 35.2573 174.956C35.2306 175.105 35.2173 175.288 35.2173 175.504C35.2173 175.728 35.2306 175.916 35.2573 176.068C35.284 176.22 35.34 176.343 35.4253 176.436C35.5133 176.529 35.6413 176.576 35.8093 176.576C35.9773 176.576 36.104 176.529 36.1893 176.436C36.2773 176.343 36.3346 176.22 36.3613 176.068C36.388 175.916 36.4013 175.728 36.4013 175.504ZM37.3318 175.504C37.3318 175.043 37.4091 174.683 37.5638 174.424C37.7211 174.163 37.9905 174.032 38.3718 174.032C38.7531 174.032 39.0211 174.163 39.1758 174.424C39.3331 174.683 39.4118 175.043 39.4118 175.504C39.4118 175.971 39.3331 176.336 39.1758 176.6C39.0211 176.861 38.7531 176.992 38.3718 176.992C37.9905 176.992 37.7211 176.861 37.5638 176.6C37.4091 176.336 37.3318 175.971 37.3318 175.504ZM38.9638 175.504C38.9638 175.288 38.9491 175.105 38.9198 174.956C38.8931 174.807 38.8371 174.685 38.7518 174.592C38.6665 174.496 38.5398 174.448 38.3718 174.448C38.2038 174.448 38.0771 174.496 37.9918 174.592C37.9065 174.685 37.8491 174.807 37.8198 174.956C37.7931 175.105 37.7798 175.288 37.7798 175.504C37.7798 175.728 37.7931 175.916 37.8198 176.068C37.8465 176.22 37.9025 176.343 37.9878 176.436C38.0758 176.529 38.2038 176.576 38.3718 176.576C38.5398 176.576 38.6665 176.529 38.7518 176.436C38.8398 176.343 38.8971 176.22 38.9238 176.068C38.9505 175.916 38.9638 175.728 38.9638 175.504ZM39.8943 175.504C39.8943 175.043 39.9716 174.683 40.1263 174.424C40.2836 174.163 40.553 174.032 40.9343 174.032C41.3156 174.032 41.5836 174.163 41.7383 174.424C41.8956 174.683 41.9743 175.043 41.9743 175.504C41.9743 175.971 41.8956 176.336 41.7383 176.6C41.5836 176.861 41.3156 176.992 40.9343 176.992C40.553 176.992 40.2836 176.861 40.1263 176.6C39.9716 176.336 39.8943 175.971 39.8943 175.504ZM41.5263 175.504C41.5263 175.288 41.5116 175.105 41.4823 174.956C41.4556 174.807 41.3996 174.685 41.3143 174.592C41.229 174.496 41.1023 174.448 40.9343 174.448C40.7663 174.448 40.6396 174.496 40.5543 174.592C40.469 174.685 40.4116 174.807 40.3823 174.956C40.3556 175.105 40.3423 175.288 40.3423 175.504C40.3423 175.728 40.3556 175.916 40.3823 176.068C40.409 176.22 40.465 176.343 40.5503 176.436C40.6383 176.529 40.7663 176.576 40.9343 176.576C41.1023 176.576 41.229 176.529 41.3143 176.436C41.4023 176.343 41.4596 176.22 41.4863 176.068C41.513 175.916 41.5263 175.728 41.5263 175.504ZM42.4568 175.504C42.4568 175.043 42.5341 174.683 42.6888 174.424C42.8461 174.163 43.1155 174.032 43.4968 174.032C43.8781 174.032 44.1461 174.163 44.3008 174.424C44.4581 174.683 44.5368 175.043 44.5368 175.504C44.5368 175.971 44.4581 176.336 44.3008 176.6C44.1461 176.861 43.8781 176.992 43.4968 176.992C43.1155 176.992 42.8461 176.861 42.6888 176.6C42.5341 176.336 42.4568 175.971 42.4568 175.504ZM44.0888 175.504C44.0888 175.288 44.0741 175.105 44.0448 174.956C44.0181 174.807 43.9621 174.685 43.8768 174.592C43.7915 174.496 43.6648 174.448 43.4968 174.448C43.3288 174.448 43.2021 174.496 43.1168 174.592C43.0315 174.685 42.9741 174.807 42.9448 174.956C42.9181 175.105 42.9048 175.288 42.9048 175.504C42.9048 175.728 42.9181 175.916 42.9448 176.068C42.9715 176.22 43.0275 176.343 43.1128 176.436C43.2008 176.529 43.3288 176.576 43.4968 176.576C43.6648 176.576 43.7915 176.529 43.8768 176.436C43.9648 176.343 44.0221 176.22 44.0488 176.068C44.0755 175.916 44.0888 175.728 44.0888 175.504Z" fill="black"/>
<path opacity="0.6" d="M32.8316 146.476C32.5543 146.337 32.4156 146.119 32.4156 145.82C32.4156 145.676 32.4516 145.544 32.5236 145.424C32.5956 145.304 32.7036 145.209 32.8476 145.14C32.9916 145.068 33.1676 145.032 33.3756 145.032C33.5809 145.032 33.7556 145.068 33.8996 145.14C34.0463 145.209 34.1556 145.304 34.2276 145.424C34.2996 145.544 34.3356 145.676 34.3356 145.82C34.3356 145.969 34.2969 146.101 34.2196 146.216C34.1449 146.328 34.0449 146.415 33.9196 146.476C34.0716 146.532 34.1916 146.624 34.2796 146.752C34.3676 146.877 34.4116 147.025 34.4116 147.196C34.4116 147.369 34.3676 147.523 34.2796 147.656C34.1916 147.789 34.0689 147.892 33.9116 147.964C33.7543 148.036 33.5756 148.072 33.3756 148.072C33.1756 148.072 32.9969 148.036 32.8396 147.964C32.6849 147.892 32.5636 147.789 32.4756 147.656C32.3876 147.523 32.3436 147.369 32.3436 147.196C32.3436 147.023 32.3876 146.873 32.4756 146.748C32.5636 146.623 32.6823 146.532 32.8316 146.476ZM33.8996 145.876C33.8996 145.727 33.8529 145.612 33.7596 145.532C33.6663 145.452 33.5383 145.412 33.3756 145.412C33.2156 145.412 33.0889 145.452 32.9956 145.532C32.9023 145.612 32.8556 145.728 32.8556 145.88C32.8556 146.013 32.9036 146.123 32.9996 146.208C33.0983 146.291 33.2236 146.332 33.3756 146.332C33.5276 146.332 33.6529 146.289 33.7516 146.204C33.8503 146.119 33.8996 146.009 33.8996 145.876ZM33.3756 146.676C33.1996 146.676 33.0556 146.72 32.9436 146.808C32.8343 146.893 32.7796 147.017 32.7796 147.18C32.7796 147.332 32.8329 147.456 32.9396 147.552C33.0463 147.645 33.1916 147.692 33.3756 147.692C33.5569 147.692 33.6996 147.644 33.8036 147.548C33.9103 147.452 33.9636 147.329 33.9636 147.18C33.9636 147.02 33.9089 146.896 33.7996 146.808C33.6929 146.72 33.5516 146.676 33.3756 146.676ZM34.8904 146.504C34.8904 146.043 34.9677 145.683 35.1224 145.424C35.2797 145.163 35.5491 145.032 35.9304 145.032C36.3117 145.032 36.5797 145.163 36.7344 145.424C36.8917 145.683 36.9704 146.043 36.9704 146.504C36.9704 146.971 36.8917 147.336 36.7344 147.6C36.5797 147.861 36.3117 147.992 35.9304 147.992C35.5491 147.992 35.2797 147.861 35.1224 147.6C34.9677 147.336 34.8904 146.971 34.8904 146.504ZM36.5224 146.504C36.5224 146.288 36.5077 146.105 36.4784 145.956C36.4517 145.807 36.3957 145.685 36.3104 145.592C36.2251 145.496 36.0984 145.448 35.9304 145.448C35.7624 145.448 35.6357 145.496 35.5504 145.592C35.4651 145.685 35.4077 145.807 35.3784 145.956C35.3517 146.105 35.3384 146.288 35.3384 146.504C35.3384 146.728 35.3517 146.916 35.3784 147.068C35.4051 147.22 35.4611 147.343 35.5464 147.436C35.6344 147.529 35.7624 147.576 35.9304 147.576C36.0984 147.576 36.2251 147.529 36.3104 147.436C36.3984 147.343 36.4557 147.22 36.4824 147.068C36.5091 146.916 36.5224 146.728 36.5224 146.504ZM37.4529 146.504C37.4529 146.043 37.5302 145.683 37.6849 145.424C37.8422 145.163 38.1116 145.032 38.4929 145.032C38.8742 145.032 39.1422 145.163 39.2969 145.424C39.4542 145.683 39.5329 146.043 39.5329 146.504C39.5329 146.971 39.4542 147.336 39.2969 147.6C39.1422 147.861 38.8742 147.992 38.4929 147.992C38.1116 147.992 37.8422 147.861 37.6849 147.6C37.5302 147.336 37.4529 146.971 37.4529 146.504ZM39.0849 146.504C39.0849 146.288 39.0702 146.105 39.0409 145.956C39.0142 145.807 38.9582 145.685 38.8729 145.592C38.7876 145.496 38.6609 145.448 38.4929 145.448C38.3249 145.448 38.1982 145.496 38.1129 145.592C38.0276 145.685 37.9702 145.807 37.9409 145.956C37.9142 146.105 37.9009 146.288 37.9009 146.504C37.9009 146.728 37.9142 146.916 37.9409 147.068C37.9676 147.22 38.0236 147.343 38.1089 147.436C38.1969 147.529 38.3249 147.576 38.4929 147.576C38.6609 147.576 38.7876 147.529 38.8729 147.436C38.9609 147.343 39.0182 147.22 39.0449 147.068C39.0716 146.916 39.0849 146.728 39.0849 146.504ZM40.0154 146.504C40.0154 146.043 40.0927 145.683 40.2474 145.424C40.4047 145.163 40.6741 145.032 41.0554 145.032C41.4367 145.032 41.7047 145.163 41.8594 145.424C42.0167 145.683 42.0954 146.043 42.0954 146.504C42.0954 146.971 42.0167 147.336 41.8594 147.6C41.7047 147.861 41.4367 147.992 41.0554 147.992C40.6741 147.992 40.4047 147.861 40.2474 147.6C40.0927 147.336 40.0154 146.971 40.0154 146.504ZM41.6474 146.504C41.6474 146.288 41.6327 146.105 41.6034 145.956C41.5767 145.807 41.5207 145.685 41.4354 145.592C41.3501 145.496 41.2234 145.448 41.0554 145.448C40.8874 145.448 40.7607 145.496 40.6754 145.592C40.5901 145.685 40.5327 145.807 40.5034 145.956C40.4767 146.105 40.4634 146.288 40.4634 146.504C40.4634 146.728 40.4767 146.916 40.5034 147.068C40.5301 147.22 40.5861 147.343 40.6714 147.436C40.7594 147.529 40.8874 147.576 41.0554 147.576C41.2234 147.576 41.3501 147.529 41.4354 147.436C41.5234 147.343 41.5807 147.22 41.6074 147.068C41.6341 146.916 41.6474 146.728 41.6474 146.504ZM42.5779 146.504C42.5779 146.043 42.6552 145.683 42.8099 145.424C42.9672 145.163 43.2366 145.032 43.6179 145.032C43.9992 145.032 44.2672 145.163 44.4219 145.424C44.5792 145.683 44.6579 146.043 44.6579 146.504C44.6579 146.971 44.5792 147.336 44.4219 147.6C44.2672 147.861 43.9992 147.992 43.6179 147.992C43.2366 147.992 42.9672 147.861 42.8099 147.6C42.6552 147.336 42.5779 146.971 42.5779 146.504ZM44.2099 146.504C44.2099 146.288 44.1952 146.105 44.1659 145.956C44.1392 145.807 44.0832 145.685 43.9979 145.592C43.9126 145.496 43.7859 145.448 43.6179 145.448C43.4499 145.448 43.3232 145.496 43.2379 145.592C43.1526 145.685 43.0952 145.807 43.0659 145.956C43.0392 146.105 43.0259 146.288 43.0259 146.504C43.0259 146.728 43.0392 146.916 43.0659 147.068C43.0926 147.22 43.1486 147.343 43.2339 147.436C43.3219 147.529 43.4499 147.576 43.6179 147.576C43.7859 147.576 43.9126 147.529 43.9979 147.436C44.0859 147.343 44.1432 147.22 44.1699 147.068C44.1966 146.916 44.2099 146.728 44.2099 146.504Z" fill="black"/>
<path opacity="0.6" d="M31.6624 116.5V116.084H32.4944V119H32.0344V116.5H31.6624ZM33.6809 118.452L33.1969 119.556H32.9009L33.1849 118.452H33.6809ZM33.9633 118.392V118.048L35.3073 116.12H35.8593V117.996H36.2313V118.392H35.8593V119H35.4113V118.392H33.9633ZM35.4313 116.584L34.4873 117.996H35.4313V116.584ZM36.6091 117.504C36.6091 117.043 36.6865 116.683 36.8411 116.424C36.9985 116.163 37.2678 116.032 37.6491 116.032C38.0305 116.032 38.2985 116.163 38.4531 116.424C38.6105 116.683 38.6891 117.043 38.6891 117.504C38.6891 117.971 38.6105 118.336 38.4531 118.6C38.2985 118.861 38.0305 118.992 37.6491 118.992C37.2678 118.992 36.9985 118.861 36.8411 118.6C36.6865 118.336 36.6091 117.971 36.6091 117.504ZM38.2411 117.504C38.2411 117.288 38.2265 117.105 38.1971 116.956C38.1705 116.807 38.1145 116.685 38.0291 116.592C37.9438 116.496 37.8171 116.448 37.6491 116.448C37.4811 116.448 37.3545 116.496 37.2691 116.592C37.1838 116.685 37.1265 116.807 37.0971 116.956C37.0705 117.105 37.0571 117.288 37.0571 117.504C37.0571 117.728 37.0705 117.916 37.0971 118.068C37.1238 118.22 37.1798 118.343 37.2651 118.436C37.3531 118.529 37.4811 118.576 37.6491 118.576C37.8171 118.576 37.9438 118.529 38.0291 118.436C38.1171 118.343 38.1745 118.22 38.2011 118.068C38.2278 117.916 38.2411 117.728 38.2411 117.504ZM39.7316 118.452L39.2476 119.556H38.9516L39.2356 118.452H39.7316ZM40.0701 117.504C40.0701 117.043 40.1474 116.683 40.3021 116.424C40.4594 116.163 40.7287 116.032 41.1101 116.032C41.4914 116.032 41.7594 116.163 41.9141 116.424C42.0714 116.683 42.1501 117.043 42.1501 117.504C42.1501 117.971 42.0714 118.336 41.9141 118.6C41.7594 118.861 41.4914 118.992 41.1101 118.992C40.7287 118.992 40.4594 118.861 40.3021 118.6C40.1474 118.336 40.0701 117.971 40.0701 117.504ZM41.7021 117.504C41.7021 117.288 41.6874 117.105 41.6581 116.956C41.6314 116.807 41.5754 116.685 41.4901 116.592C41.4047 116.496 41.2781 116.448 41.1101 116.448C40.9421 116.448 40.8154 116.496 40.7301 116.592C40.6447 116.685 40.5874 116.807 40.5581 116.956C40.5314 117.105 40.5181 117.288 40.5181 117.504C40.5181 117.728 40.5314 117.916 40.5581 118.068C40.5847 118.22 40.6407 118.343 40.7261 118.436C40.8141 118.529 40.9421 118.576 41.1101 118.576C41.2781 118.576 41.4047 118.529 41.4901 118.436C41.5781 118.343 41.6354 118.22 41.6621 118.068C41.6887 117.916 41.7021 117.728 41.7021 117.504ZM42.6326 117.504C42.6326 117.043 42.7099 116.683 42.8646 116.424C43.0219 116.163 43.2912 116.032 43.6726 116.032C44.0539 116.032 44.3219 116.163 44.4766 116.424C44.6339 116.683 44.7126 117.043 44.7126 117.504C44.7126 117.971 44.6339 118.336 44.4766 118.6C44.3219 118.861 44.0539 118.992 43.6726 118.992C43.2912 118.992 43.0219 118.861 42.8646 118.6C42.7099 118.336 42.6326 117.971 42.6326 117.504ZM44.2646 117.504C44.2646 117.288 44.2499 117.105 44.2206 116.956C44.1939 116.807 44.1379 116.685 44.0526 116.592C43.9672 116.496 43.8406 116.448 43.6726 116.448C43.5046 116.448 43.3779 116.496 43.2926 116.592C43.2072 116.685 43.1499 116.807 43.1206 116.956C43.0939 117.105 43.0806 117.288 43.0806 117.504C43.0806 117.728 43.0939 117.916 43.1206 118.068C43.1472 118.22 43.2032 118.343 43.2886 118.436C43.3766 118.529 43.5046 118.576 43.6726 118.576C43.8406 118.576 43.9672 118.529 44.0526 118.436C44.1406 118.343 44.1979 118.22 44.2246 118.068C44.2512 117.916 44.2646 117.728 44.2646 117.504ZM45.1951 117.504C45.1951 117.043 45.2724 116.683 45.4271 116.424C45.5844 116.163 45.8537 116.032 46.2351 116.032C46.6164 116.032 46.8844 116.163 47.0391 116.424C47.1964 116.683 47.2751 117.043 47.2751 117.504C47.2751 117.971 47.1964 118.336 47.0391 118.6C46.8844 118.861 46.6164 118.992 46.2351 118.992C45.8537 118.992 45.5844 118.861 45.4271 118.6C45.2724 118.336 45.1951 117.971 45.1951 117.504ZM46.8271 117.504C46.8271 117.288 46.8124 117.105 46.7831 116.956C46.7564 116.807 46.7004 116.685 46.6151 116.592C46.5297 116.496 46.4031 116.448 46.2351 116.448C46.0671 116.448 45.9404 116.496 45.8551 116.592C45.7697 116.685 45.7124 116.807 45.6831 116.956C45.6564 117.105 45.6431 117.288 45.6431 117.504C45.6431 117.728 45.6564 117.916 45.6831 118.068C45.7097 118.22 45.7657 118.343 45.8511 118.436C45.9391 118.529 46.0671 118.576 46.2351 118.576C46.4031 118.576 46.5297 118.529 46.6151 118.436C46.7031 118.343 46.7604 118.22 46.7871 118.068C46.8137 117.916 46.8271 117.728 46.8271 117.504Z" fill="black"/>
<path opacity="0.6" d="M31.533 89.38C31.789 89.1587 31.9903 88.9773 32.137 88.836C32.2863 88.692 32.4103 88.5427 32.509 88.388C32.6077 88.2333 32.657 88.0787 32.657 87.924C32.657 87.764 32.6183 87.6387 32.541 87.548C32.4663 87.4573 32.3477 87.412 32.185 87.412C32.0277 87.412 31.905 87.4627 31.817 87.564C31.7317 87.6627 31.6863 87.796 31.681 87.964H31.241C31.249 87.66 31.3397 87.428 31.513 87.268C31.689 87.1053 31.9117 87.024 32.181 87.024C32.4717 87.024 32.6983 87.104 32.861 87.264C33.0263 87.424 33.109 87.6373 33.109 87.904C33.109 88.096 33.0597 88.2813 32.961 88.46C32.865 88.636 32.749 88.7947 32.613 88.936C32.4797 89.0747 32.309 89.236 32.101 89.42L31.921 89.58H33.189V89.96H31.245V89.628L31.533 89.38ZM34.1496 89.452L33.6656 90.556H33.3696L33.6536 89.452H34.1496ZM34.488 88.504C34.488 88.0427 34.5654 87.6827 34.72 87.424C34.8774 87.1627 35.1467 87.032 35.528 87.032C35.9094 87.032 36.1774 87.1627 36.332 87.424C36.4894 87.6827 36.568 88.0427 36.568 88.504C36.568 88.9707 36.4894 89.336 36.332 89.6C36.1774 89.8613 35.9094 89.992 35.528 89.992C35.1467 89.992 34.8774 89.8613 34.72 89.6C34.5654 89.336 34.488 88.9707 34.488 88.504ZM36.12 88.504C36.12 88.288 36.1054 88.1053 36.076 87.956C36.0494 87.8067 35.9934 87.6853 35.908 87.592C35.8227 87.496 35.696 87.448 35.528 87.448C35.36 87.448 35.2334 87.496 35.148 87.592C35.0627 87.6853 35.0054 87.8067 34.976 87.956C34.9494 88.1053 34.936 88.288 34.936 88.504C34.936 88.728 34.9494 88.916 34.976 89.068C35.0027 89.22 35.0587 89.3427 35.144 89.436C35.232 89.5293 35.36 89.576 35.528 89.576C35.696 89.576 35.8227 89.5293 35.908 89.436C35.996 89.3427 36.0534 89.22 36.08 89.068C36.1067 88.916 36.12 88.728 36.12 88.504ZM37.0505 88.504C37.0505 88.0427 37.1279 87.6827 37.2825 87.424C37.4399 87.1627 37.7092 87.032 38.0905 87.032C38.4719 87.032 38.7399 87.1627 38.8945 87.424C39.0519 87.6827 39.1305 88.0427 39.1305 88.504C39.1305 88.9707 39.0519 89.336 38.8945 89.6C38.7399 89.8613 38.4719 89.992 38.0905 89.992C37.7092 89.992 37.4399 89.8613 37.2825 89.6C37.1279 89.336 37.0505 88.9707 37.0505 88.504ZM38.6825 88.504C38.6825 88.288 38.6679 88.1053 38.6385 87.956C38.6119 87.8067 38.5559 87.6853 38.4705 87.592C38.3852 87.496 38.2585 87.448 38.0905 87.448C37.9225 87.448 37.7959 87.496 37.7105 87.592C37.6252 87.6853 37.5679 87.8067 37.5385 87.956C37.5119 88.1053 37.4985 88.288 37.4985 88.504C37.4985 88.728 37.5119 88.916 37.5385 89.068C37.5652 89.22 37.6212 89.3427 37.7065 89.436C37.7945 89.5293 37.9225 89.576 38.0905 89.576C38.2585 89.576 38.3852 89.5293 38.4705 89.436C38.5585 89.3427 38.6159 89.22 38.6425 89.068C38.6692 88.916 38.6825 88.728 38.6825 88.504ZM40.173 89.452L39.689 90.556H39.393L39.677 89.452H40.173ZM40.5115 88.504C40.5115 88.0427 40.5888 87.6827 40.7435 87.424C40.9008 87.1627 41.1702 87.032 41.5515 87.032C41.9328 87.032 42.2008 87.1627 42.3555 87.424C42.5128 87.6827 42.5915 88.0427 42.5915 88.504C42.5915 88.9707 42.5128 89.336 42.3555 89.6C42.2008 89.8613 41.9328 89.992 41.5515 89.992C41.1702 89.992 40.9008 89.8613 40.7435 89.6C40.5888 89.336 40.5115 88.9707 40.5115 88.504ZM42.1435 88.504C42.1435 88.288 42.1288 88.1053 42.0995 87.956C42.0728 87.8067 42.0168 87.6853 41.9315 87.592C41.8462 87.496 41.7195 87.448 41.5515 87.448C41.3835 87.448 41.2568 87.496 41.1715 87.592C41.0862 87.6853 41.0288 87.8067 40.9995 87.956C40.9728 88.1053 40.9595 88.288 40.9595 88.504C40.9595 88.728 40.9728 88.916 40.9995 89.068C41.0262 89.22 41.0822 89.3427 41.1675 89.436C41.2555 89.5293 41.3835 89.576 41.5515 89.576C41.7195 89.576 41.8462 89.5293 41.9315 89.436C42.0195 89.3427 42.0768 89.22 42.1035 89.068C42.1302 88.916 42.1435 88.728 42.1435 88.504ZM43.074 88.504C43.074 88.0427 43.1513 87.6827 43.306 87.424C43.4633 87.1627 43.7327 87.032 44.114 87.032C44.4953 87.032 44.7633 87.1627 44.918 87.424C45.0753 87.6827 45.154 88.0427 45.154 88.504C45.154 88.9707 45.0753 89.336 44.918 89.6C44.7633 89.8613 44.4953 89.992 44.114 89.992C43.7327 89.992 43.4633 89.8613 43.306 89.6C43.1513 89.336 43.074 88.9707 43.074 88.504ZM44.706 88.504C44.706 88.288 44.6913 88.1053 44.662 87.956C44.6353 87.8067 44.5793 87.6853 44.494 87.592C44.4087 87.496 44.282 87.448 44.114 87.448C43.946 87.448 43.8193 87.496 43.734 87.592C43.6487 87.6853 43.5913 87.8067 43.562 87.956C43.5353 88.1053 43.522 88.288 43.522 88.504C43.522 88.728 43.5353 88.916 43.562 89.068C43.5887 89.22 43.6447 89.3427 43.73 89.436C43.818 89.5293 43.946 89.576 44.114 89.576C44.282 89.576 44.4087 89.5293 44.494 89.436C44.582 89.3427 44.6393 89.22 44.666 89.068C44.6927 88.916 44.706 88.728 44.706 88.504ZM45.6365 88.504C45.6365 88.0427 45.7138 87.6827 45.8685 87.424C46.0258 87.1627 46.2952 87.032 46.6765 87.032C47.0578 87.032 47.3258 87.1627 47.4805 87.424C47.6378 87.6827 47.7165 88.0427 47.7165 88.504C47.7165 88.9707 47.6378 89.336 47.4805 89.6C47.3258 89.8613 47.0578 89.992 46.6765 89.992C46.2952 89.992 46.0258 89.8613 45.8685 89.6C45.7138 89.336 45.6365 88.9707 45.6365 88.504ZM47.2685 88.504C47.2685 88.288 47.2538 88.1053 47.2245 87.956C47.1978 87.8067 47.1418 87.6853 47.0565 87.592C46.9712 87.496 46.8445 87.448 46.6765 87.448C46.5085 87.448 46.3818 87.496 46.2965 87.592C46.2112 87.6853 46.1538 87.8067 46.1245 87.956C46.0978 88.1053 46.0845 88.288 46.0845 88.504C46.0845 88.728 46.0978 88.916 46.1245 89.068C46.1512 89.22 46.2072 89.3427 46.2925 89.436C46.3805 89.5293 46.5085 89.576 46.6765 89.576C46.8445 89.576 46.9712 89.5293 47.0565 89.436C47.1445 89.3427 47.2018 89.22 47.2285 89.068C47.2552 88.916 47.2685 88.728 47.2685 88.504Z" fill="black"/>
<path opacity="0.6" d="M76.9781 211.22V213.224C76.9781 213.472 76.9021 213.668 76.7501 213.812C76.6008 213.956 76.4034 214.028 76.1581 214.028C75.9128 214.028 75.7141 213.956 75.5621 213.812C75.4128 213.668 75.3381 213.472 75.3381 213.224H75.7981C75.8008 213.347 75.8314 213.444 75.8901 213.516C75.9514 213.588 76.0408 213.624 76.1581 213.624C76.2754 213.624 76.3648 213.588 76.4261 213.516C76.4874 213.441 76.5181 213.344 76.5181 213.224V211.22H76.9781ZM79.7159 211.796V214H79.2599V213.74C79.1879 213.831 79.0933 213.903 78.9759 213.956C78.8613 214.007 78.7386 214.032 78.6079 214.032C78.4346 214.032 78.2786 213.996 78.1399 213.924C78.0039 213.852 77.8959 213.745 77.8159 213.604C77.7386 213.463 77.6999 213.292 77.6999 213.092V211.796H78.1519V213.024C78.1519 213.221 78.2013 213.373 78.2999 213.48C78.3986 213.584 78.5333 213.636 78.7039 213.636C78.8746 213.636 79.0093 213.584 79.1079 213.48C79.2093 213.373 79.2599 213.221 79.2599 213.024V211.796H79.7159ZM80.7736 211.04V214H80.3176V211.04H80.7736ZM83.3563 211.796L82.0043 215.036H81.5323L81.9803 213.964L81.1123 211.796H81.6203L82.2403 213.476L82.8843 211.796H83.3563ZM84.6195 211.5V211.084H85.4515V214H84.9915V211.5H84.6195Z" fill="black"/>
<path opacity="0.6" d="M115.023 211.22V213.224C115.023 213.472 114.947 213.668 114.795 213.812C114.646 213.956 114.448 214.028 114.203 214.028C113.958 214.028 113.759 213.956 113.607 213.812C113.458 213.668 113.383 213.472 113.383 213.224H113.843C113.846 213.347 113.876 213.444 113.935 213.516C113.996 213.588 114.086 213.624 114.203 213.624C114.32 213.624 114.41 213.588 114.471 213.516C114.532 213.441 114.563 213.344 114.563 213.224V211.22H115.023ZM117.761 211.796V214H117.305V213.74C117.233 213.831 117.138 213.903 117.021 213.956C116.906 214.007 116.784 214.032 116.653 214.032C116.48 214.032 116.324 213.996 116.185 213.924C116.049 213.852 115.941 213.745 115.861 213.604C115.784 213.463 115.745 213.292 115.745 213.092V211.796H116.197V213.024C116.197 213.221 116.246 213.373 116.345 213.48C116.444 213.584 116.578 213.636 116.749 213.636C116.92 213.636 117.054 213.584 117.153 213.48C117.254 213.373 117.305 213.221 117.305 213.024V211.796H117.761ZM118.819 211.04V214H118.363V211.04H118.819ZM121.401 211.796L120.049 215.036H119.577L120.025 213.964L119.157 211.796H119.665L120.285 213.476L120.929 211.796H121.401ZM122.976 213.38C123.232 213.159 123.434 212.977 123.58 212.836C123.73 212.692 123.854 212.543 123.952 212.388C124.051 212.233 124.1 212.079 124.1 211.924C124.1 211.764 124.062 211.639 123.984 211.548C123.91 211.457 123.791 211.412 123.628 211.412C123.471 211.412 123.348 211.463 123.26 211.564C123.175 211.663 123.13 211.796 123.124 211.964H122.684C122.692 211.66 122.783 211.428 122.956 211.268C123.132 211.105 123.355 211.024 123.624 211.024C123.915 211.024 124.142 211.104 124.304 211.264C124.47 211.424 124.552 211.637 124.552 211.904C124.552 212.096 124.503 212.281 124.404 212.46C124.308 212.636 124.192 212.795 124.056 212.936C123.923 213.075 123.752 213.236 123.544 213.42L123.364 213.58H124.632V213.96H122.688V213.628L122.976 213.38Z" fill="black"/>
<path opacity="0.6" d="M154.99 211.22V213.224C154.99 213.472 154.914 213.668 154.762 213.812C154.612 213.956 154.415 214.028 154.17 214.028C153.924 214.028 153.726 213.956 153.574 213.812C153.424 213.668 153.35 213.472 153.35 213.224H153.81C153.812 213.347 153.843 213.444 153.902 213.516C153.963 213.588 154.052 213.624 154.17 213.624C154.287 213.624 154.376 213.588 154.438 213.516C154.499 213.441 154.53 213.344 154.53 213.224V211.22H154.99ZM157.728 211.796V214H157.272V213.74C157.2 213.831 157.105 213.903 156.988 213.956C156.873 214.007 156.75 214.032 156.62 214.032C156.446 214.032 156.29 213.996 156.152 213.924C156.016 213.852 155.908 213.745 155.828 213.604C155.75 213.463 155.712 213.292 155.712 213.092V211.796H156.164V213.024C156.164 213.221 156.213 213.373 156.312 213.48C156.41 213.584 156.545 213.636 156.716 213.636C156.886 213.636 157.021 213.584 157.12 213.48C157.221 213.373 157.272 213.221 157.272 213.024V211.796H157.728ZM158.785 211.04V214H158.329V211.04H158.785ZM161.368 211.796L160.016 215.036H159.544L159.992 213.964L159.124 211.796H159.632L160.252 213.476L160.896 211.796H161.368ZM162.683 211.804C162.699 211.556 162.794 211.363 162.967 211.224C163.143 211.085 163.367 211.016 163.639 211.016C163.826 211.016 163.987 211.049 164.123 211.116C164.259 211.183 164.362 211.273 164.431 211.388C164.501 211.503 164.535 211.632 164.535 211.776C164.535 211.941 164.491 212.083 164.403 212.2C164.315 212.317 164.21 212.396 164.087 212.436V212.452C164.245 212.5 164.367 212.588 164.455 212.716C164.543 212.841 164.587 213.003 164.587 213.2C164.587 213.357 164.551 213.497 164.479 213.62C164.407 213.743 164.301 213.84 164.159 213.912C164.018 213.981 163.849 214.016 163.651 214.016C163.363 214.016 163.126 213.943 162.939 213.796C162.755 213.647 162.657 213.433 162.643 213.156H163.083C163.094 213.297 163.149 213.413 163.247 213.504C163.346 213.592 163.479 213.636 163.647 213.636C163.81 213.636 163.935 213.592 164.023 213.504C164.111 213.413 164.155 213.297 164.155 213.156C164.155 212.969 164.095 212.837 163.975 212.76C163.858 212.68 163.677 212.64 163.431 212.64H163.327V212.264H163.435C163.651 212.261 163.815 212.225 163.927 212.156C164.042 212.087 164.099 211.977 164.099 211.828C164.099 211.7 164.058 211.599 163.975 211.524C163.893 211.447 163.775 211.408 163.623 211.408C163.474 211.408 163.358 211.447 163.275 211.524C163.193 211.599 163.143 211.692 163.127 211.804H162.683Z" fill="black"/>
<path opacity="0.6" d="M194.882 211.22V213.224C194.882 213.472 194.806 213.668 194.654 213.812C194.505 213.956 194.308 214.028 194.062 214.028C193.817 214.028 193.618 213.956 193.466 213.812C193.317 213.668 193.242 213.472 193.242 213.224H193.702C193.705 213.347 193.736 213.444 193.794 213.516C193.856 213.588 193.945 213.624 194.062 213.624C194.18 213.624 194.269 213.588 194.33 213.516C194.392 213.441 194.422 213.344 194.422 213.224V211.22H194.882ZM197.62 211.796V214H197.164V213.74C197.092 213.831 196.998 213.903 196.88 213.956C196.766 214.007 196.643 214.032 196.512 214.032C196.339 214.032 196.183 213.996 196.044 213.924C195.908 213.852 195.8 213.745 195.72 213.604C195.643 213.463 195.604 213.292 195.604 213.092V211.796H196.056V213.024C196.056 213.221 196.106 213.373 196.204 213.48C196.303 213.584 196.438 213.636 196.608 213.636C196.779 213.636 196.914 213.584 197.012 213.48C197.114 213.373 197.164 213.221 197.164 213.024V211.796H197.62ZM198.678 211.04V214H198.222V211.04H198.678ZM201.261 211.796L199.909 215.036H199.437L199.885 213.964L199.017 211.796H199.525L200.145 213.476L200.789 211.796H201.261ZM202.528 213.392V213.048L203.872 211.12H204.424V212.996H204.796V213.392H204.424V214H203.976V213.392H202.528ZM203.996 211.584L203.052 212.996H203.996V211.584Z" fill="black"/>
<path opacity="0.6" d="M234.9 211.22V213.224C234.9 213.472 234.824 213.668 234.672 213.812C234.523 213.956 234.325 214.028 234.08 214.028C233.835 214.028 233.636 213.956 233.484 213.812C233.335 213.668 233.26 213.472 233.26 213.224H233.72C233.723 213.347 233.753 213.444 233.812 213.516C233.873 213.588 233.963 213.624 234.08 213.624C234.197 213.624 234.287 213.588 234.348 213.516C234.409 213.441 234.44 213.344 234.44 213.224V211.22H234.9ZM237.638 211.796V214H237.182V213.74C237.11 213.831 237.015 213.903 236.898 213.956C236.783 214.007 236.66 214.032 236.53 214.032C236.356 214.032 236.2 213.996 236.062 213.924C235.926 213.852 235.818 213.745 235.738 213.604C235.66 213.463 235.622 213.292 235.622 213.092V211.796H236.074V213.024C236.074 213.221 236.123 213.373 236.222 213.48C236.32 213.584 236.455 213.636 236.626 213.636C236.796 213.636 236.931 213.584 237.03 213.48C237.131 213.373 237.182 213.221 237.182 213.024V211.796H237.638ZM238.695 211.04V214H238.239V211.04H238.695ZM241.278 211.796L239.926 215.036H239.454L239.902 213.964L239.034 211.796H239.542L240.162 213.476L240.806 211.796H241.278ZM244.481 211.476H243.141V212.272C243.197 212.197 243.28 212.135 243.389 212.084C243.501 212.033 243.62 212.008 243.745 212.008C243.969 212.008 244.151 212.056 244.289 212.152C244.431 212.248 244.531 212.369 244.589 212.516C244.651 212.663 244.681 212.817 244.681 212.98C244.681 213.177 244.643 213.353 244.565 213.508C244.491 213.66 244.377 213.78 244.225 213.868C244.076 213.956 243.892 214 243.673 214C243.383 214 243.149 213.928 242.973 213.784C242.797 213.64 242.692 213.449 242.657 213.212H243.101C243.131 213.337 243.196 213.437 243.297 213.512C243.399 213.584 243.525 213.62 243.677 213.62C243.867 213.62 244.008 213.563 244.101 213.448C244.197 213.333 244.245 213.181 244.245 212.992C244.245 212.8 244.197 212.653 244.101 212.552C244.005 212.448 243.864 212.396 243.677 212.396C243.547 212.396 243.436 212.429 243.345 212.496C243.257 212.56 243.193 212.648 243.153 212.76H242.721V211.076H244.481V211.476Z" fill="black"/>
<path opacity="0.6" d="M274.894 211.22V213.224C274.894 213.472 274.818 213.668 274.666 213.812C274.517 213.956 274.319 214.028 274.074 214.028C273.829 214.028 273.63 213.956 273.478 213.812C273.329 213.668 273.254 213.472 273.254 213.224H273.714C273.717 213.347 273.747 213.444 273.806 213.516C273.867 213.588 273.957 213.624 274.074 213.624C274.191 213.624 274.281 213.588 274.342 213.516C274.403 213.441 274.434 213.344 274.434 213.224V211.22H274.894ZM277.632 211.796V214H277.176V213.74C277.104 213.831 277.009 213.903 276.892 213.956C276.777 214.007 276.655 214.032 276.524 214.032C276.351 214.032 276.195 213.996 276.056 213.924C275.92 213.852 275.812 213.745 275.732 213.604C275.655 213.463 275.616 213.292 275.616 213.092V211.796H276.068V213.024C276.068 213.221 276.117 213.373 276.216 213.48C276.315 213.584 276.449 213.636 276.62 213.636C276.791 213.636 276.925 213.584 277.024 213.48C277.125 213.373 277.176 213.221 277.176 213.024V211.796H277.632ZM278.69 211.04V214H278.234V211.04H278.69ZM281.272 211.796L279.92 215.036H279.448L279.896 213.964L279.028 211.796H279.536L280.156 213.476L280.8 211.796H281.272ZM284.163 211.76C284.134 211.637 284.081 211.545 284.003 211.484C283.926 211.423 283.818 211.392 283.679 211.392C283.469 211.392 283.311 211.473 283.207 211.636C283.103 211.796 283.049 212.063 283.043 212.436C283.113 212.319 283.214 212.228 283.347 212.164C283.481 212.1 283.625 212.068 283.779 212.068C283.955 212.068 284.11 212.107 284.243 212.184C284.379 212.259 284.485 212.368 284.559 212.512C284.637 212.656 284.675 212.828 284.675 213.028C284.675 213.215 284.638 213.381 284.563 213.528C284.491 213.675 284.383 213.791 284.239 213.876C284.095 213.959 283.922 214 283.719 214C283.445 214 283.229 213.94 283.071 213.82C282.917 213.697 282.807 213.525 282.743 213.304C282.682 213.083 282.651 212.807 282.651 212.476C282.651 211.5 282.995 211.012 283.683 211.012C283.95 211.012 284.159 211.084 284.311 211.228C284.466 211.372 284.557 211.549 284.583 211.76H284.163ZM283.679 212.452C283.517 212.452 283.378 212.501 283.263 212.6C283.151 212.696 283.095 212.836 283.095 213.02C283.095 213.204 283.147 213.351 283.251 213.46C283.358 213.567 283.506 213.62 283.695 213.62C283.863 213.62 283.995 213.568 284.091 213.464C284.19 213.36 284.239 213.221 284.239 213.048C284.239 212.867 284.191 212.723 284.095 212.616C284.002 212.507 283.863 212.452 283.679 212.452Z" fill="black"/>
<path opacity="0.6" d="M315.058 211.22V213.224C315.058 213.472 314.982 213.668 314.83 213.812C314.681 213.956 314.484 214.028 314.238 214.028C313.993 214.028 313.794 213.956 313.642 213.812C313.493 213.668 313.418 213.472 313.418 213.224H313.878C313.881 213.347 313.912 213.444 313.97 213.516C314.032 213.588 314.121 213.624 314.238 213.624C314.356 213.624 314.445 213.588 314.506 213.516C314.568 213.441 314.598 213.344 314.598 213.224V211.22H315.058ZM317.796 211.796V214H317.34V213.74C317.268 213.831 317.173 213.903 317.056 213.956C316.941 214.007 316.819 214.032 316.688 214.032C316.515 214.032 316.359 213.996 316.22 213.924C316.084 213.852 315.976 213.745 315.896 213.604C315.819 213.463 315.78 213.292 315.78 213.092V211.796H316.232V213.024C316.232 213.221 316.281 213.373 316.38 213.48C316.479 213.584 316.613 213.636 316.784 213.636C316.955 213.636 317.089 213.584 317.188 213.48C317.289 213.373 317.34 213.221 317.34 213.024V211.796H317.796ZM318.854 211.04V214H318.398V211.04H318.854ZM321.436 211.796L320.084 215.036H319.612L320.06 213.964L319.192 211.796H319.7L320.32 213.476L320.964 211.796H321.436ZM324.608 211.436L323.496 214H323.036L324.16 211.484H322.68V211.096H324.608V211.436Z" fill="black"/>
<path d="M69 147C69 145.895 69.8954 145 71 145H77C78.1046 145 79 145.895 79 147V206H69V147Z" fill="#1A377D"/>
<path d="M109 156C109 154.895 109.895 154 111 154H117C118.105 154 119 154.895 119 156V206H109V156Z" fill="#1A377D"/>
<path d="M149 184C149 182.895 149.895 182 151 182H157C158.105 182 159 182.895 159 184V206H149V184Z" fill="#1A377D"/>
<path d="M189 156C189 154.895 189.895 154 191 154H197C198.105 154 199 154.895 199 156V206H189V156Z" fill="#1A377D"/>
<path d="M229 115C229 113.895 229.895 113 231 113H237C238.105 113 239 113.895 239 115V206H229V115Z" fill="#1A377D"/>
<path d="M269 153C269 151.895 269.895 151 271 151H277C278.105 151 279 151.895 279 153V206H269V153Z" fill="#1A377D"/>
<path d="M309 117C309 115.895 309.895 115 311 115H317C318.105 115 319 115.895 319 117V206H309V117Z" fill="#1A377D"/>
<path d="M80 115C80 113.895 80.8954 113 82 113H88C89.1046 113 90 113.895 90 115V206H80V115Z" fill="#FF4848"/>
<path d="M120 138C120 136.895 120.895 136 122 136H128C129.105 136 130 136.895 130 138V206H120V138Z" fill="#FF4848"/>
<path d="M160 86C160 84.8954 160.895 84 162 84H168C169.105 84 170 84.8954 170 86V206H160V86Z" fill="#FF4848"/>
<path d="M200 187C200 185.895 200.895 185 202 185H208C209.105 185 210 185.895 210 187V206H200V187Z" fill="#FF4848"/>
<path d="M240 165C240 163.895 240.895 163 242 163H248C249.105 163 250 163.895 250 165V206H240V165Z" fill="#FF4848"/>
<path d="M280 156C280 154.895 280.895 154 282 154H288C289.105 154 290 154.895 290 156V206H280V156Z" fill="#FF4848"/>
<path d="M320 133C320 131.895 320.895 131 322 131H328C329.105 131 330 131.895 330 133V206H320V133Z" fill="#FF4848"/>
<circle cx="278" cy="46" r="4" fill="#FF4848"/>
<circle cx="278" cy="65" r="4" fill="#1A377D"/>
<path d="M293.564 48.049C293.242 48.049 292.952 47.993 292.696 47.881C292.444 47.7643 292.245 47.6057 292.101 47.405C291.956 47.1997 291.881 46.964 291.877 46.698H292.556C292.579 46.9267 292.672 47.1203 292.836 47.279C293.004 47.433 293.246 47.51 293.564 47.51C293.867 47.51 294.105 47.4353 294.278 47.286C294.455 47.132 294.544 46.936 294.544 46.698C294.544 46.5113 294.492 46.3597 294.39 46.243C294.287 46.1263 294.159 46.0377 294.005 45.977C293.851 45.9163 293.643 45.851 293.382 45.781C293.06 45.697 292.801 45.613 292.605 45.529C292.413 45.445 292.248 45.3143 292.108 45.137C291.972 44.955 291.905 44.7123 291.905 44.409C291.905 44.143 291.972 43.9073 292.108 43.702C292.243 43.4967 292.432 43.338 292.675 43.226C292.922 43.114 293.204 43.058 293.522 43.058C293.979 43.058 294.352 43.1723 294.642 43.401C294.936 43.6297 295.101 43.933 295.139 44.311H294.439C294.415 44.1243 294.317 43.961 294.145 43.821C293.972 43.6763 293.743 43.604 293.459 43.604C293.193 43.604 292.976 43.674 292.808 43.814C292.64 43.9493 292.556 44.1407 292.556 44.388C292.556 44.5653 292.605 44.71 292.703 44.822C292.805 44.934 292.929 45.0203 293.074 45.081C293.223 45.137 293.431 45.2023 293.697 45.277C294.019 45.3657 294.278 45.4543 294.474 45.543C294.67 45.627 294.838 45.76 294.978 45.942C295.118 46.1193 295.188 46.362 295.188 46.67C295.188 46.908 295.125 47.132 294.999 47.342C294.873 47.552 294.686 47.7223 294.439 47.853C294.191 47.9837 293.9 48.049 293.564 48.049ZM296.762 44.871C296.888 44.6517 297.075 44.4697 297.322 44.325C297.574 44.1757 297.866 44.101 298.197 44.101C298.538 44.101 298.846 44.1827 299.121 44.346C299.401 44.5093 299.62 44.7403 299.779 45.039C299.938 45.333 300.017 45.676 300.017 46.068C300.017 46.4553 299.938 46.8007 299.779 47.104C299.62 47.4073 299.401 47.643 299.121 47.811C298.846 47.979 298.538 48.063 298.197 48.063C297.87 48.063 297.581 47.9907 297.329 47.846C297.082 47.6967 296.893 47.5123 296.762 47.293V49.82H296.125V44.164H296.762V44.871ZM299.366 46.068C299.366 45.7787 299.308 45.5267 299.191 45.312C299.074 45.0973 298.916 44.934 298.715 44.822C298.519 44.71 298.302 44.654 298.064 44.654C297.831 44.654 297.614 44.7123 297.413 44.829C297.217 44.941 297.058 45.1067 296.937 45.326C296.82 45.5407 296.762 45.7903 296.762 46.075C296.762 46.3643 296.82 46.6187 296.937 46.838C297.058 47.0527 297.217 47.2183 297.413 47.335C297.614 47.447 297.831 47.503 298.064 47.503C298.302 47.503 298.519 47.447 298.715 47.335C298.916 47.2183 299.074 47.0527 299.191 46.838C299.308 46.6187 299.366 46.362 299.366 46.068ZM304.355 45.935C304.355 46.0563 304.348 46.1847 304.334 46.32H301.268C301.292 46.698 301.42 46.9943 301.653 47.209C301.891 47.419 302.178 47.524 302.514 47.524C302.79 47.524 303.018 47.461 303.2 47.335C303.387 47.2043 303.518 47.0317 303.592 46.817H304.278C304.176 47.1857 303.97 47.4867 303.662 47.72C303.354 47.9487 302.972 48.063 302.514 48.063C302.15 48.063 301.824 47.9813 301.534 47.818C301.25 47.6547 301.026 47.4237 300.862 47.125C300.699 46.8217 300.617 46.4717 300.617 46.075C300.617 45.6783 300.697 45.3307 300.855 45.032C301.014 44.7333 301.236 44.5047 301.52 44.346C301.81 44.1827 302.141 44.101 302.514 44.101C302.878 44.101 303.2 44.1803 303.48 44.339C303.76 44.4977 303.975 44.717 304.124 44.997C304.278 45.2723 304.355 45.585 304.355 45.935ZM303.697 45.802C303.697 45.5593 303.644 45.3517 303.536 45.179C303.429 45.0017 303.282 44.8687 303.095 44.78C302.913 44.6867 302.71 44.64 302.486 44.64C302.164 44.64 301.889 44.7427 301.66 44.948C301.436 45.1533 301.308 45.438 301.275 45.802H303.697ZM307.065 44.094C307.532 44.094 307.91 44.2363 308.199 44.521C308.489 44.801 308.633 45.207 308.633 45.739V48H308.003V45.83C308.003 45.4473 307.908 45.1557 307.716 44.955C307.525 44.7497 307.264 44.647 306.932 44.647C306.596 44.647 306.328 44.752 306.127 44.962C305.931 45.172 305.833 45.4777 305.833 45.879V48H305.196V44.164H305.833V44.71C305.959 44.514 306.13 44.3623 306.344 44.255C306.564 44.1477 306.804 44.094 307.065 44.094ZM309.436 46.068C309.436 45.676 309.515 45.333 309.674 45.039C309.832 44.7403 310.049 44.5093 310.325 44.346C310.605 44.1827 310.917 44.101 311.263 44.101C311.561 44.101 311.839 44.171 312.096 44.311C312.352 44.4463 312.548 44.626 312.684 44.85V42.82H313.328V48H312.684V47.279C312.558 47.5077 312.371 47.6967 312.124 47.846C311.876 47.9907 311.587 48.063 311.256 48.063C310.915 48.063 310.605 47.979 310.325 47.811C310.049 47.643 309.832 47.4073 309.674 47.104C309.515 46.8007 309.436 46.4553 309.436 46.068ZM312.684 46.075C312.684 45.7857 312.625 45.5337 312.509 45.319C312.392 45.1043 312.233 44.941 312.033 44.829C311.837 44.7123 311.62 44.654 311.382 44.654C311.144 44.654 310.927 44.71 310.731 44.822C310.535 44.934 310.378 45.0973 310.262 45.312C310.145 45.5267 310.087 45.7787 310.087 46.068C310.087 46.362 310.145 46.6187 310.262 46.838C310.378 47.0527 310.535 47.2183 310.731 47.335C310.927 47.447 311.144 47.503 311.382 47.503C311.62 47.503 311.837 47.447 312.033 47.335C312.233 47.2183 312.392 47.0527 312.509 46.838C312.625 46.6187 312.684 46.3643 312.684 46.075ZM315.762 48.063C315.468 48.063 315.205 48.014 314.971 47.916C314.738 47.8133 314.554 47.6733 314.418 47.496C314.283 47.314 314.208 47.1063 314.194 46.873H314.852C314.871 47.0643 314.96 47.2207 315.118 47.342C315.282 47.4633 315.494 47.524 315.755 47.524C315.998 47.524 316.189 47.4703 316.329 47.363C316.469 47.2557 316.539 47.1203 316.539 46.957C316.539 46.789 316.465 46.6653 316.315 46.586C316.166 46.502 315.935 46.4203 315.622 46.341C315.338 46.2663 315.104 46.1917 314.922 46.117C314.745 46.0377 314.591 45.9233 314.46 45.774C314.334 45.62 314.271 45.4193 314.271 45.172C314.271 44.976 314.33 44.7963 314.446 44.633C314.563 44.4697 314.729 44.3413 314.943 44.248C315.158 44.15 315.403 44.101 315.678 44.101C316.103 44.101 316.446 44.2083 316.707 44.423C316.969 44.6377 317.109 44.9317 317.127 45.305H316.49C316.476 45.1043 316.395 44.9433 316.245 44.822C316.101 44.7007 315.905 44.64 315.657 44.64C315.429 44.64 315.247 44.689 315.111 44.787C314.976 44.885 314.908 45.0133 314.908 45.172C314.908 45.298 314.948 45.403 315.027 45.487C315.111 45.5663 315.214 45.6317 315.335 45.683C315.461 45.7297 315.634 45.7833 315.853 45.844C316.129 45.9187 316.353 45.9933 316.525 46.068C316.698 46.138 316.845 46.2453 316.966 46.39C317.092 46.5347 317.158 46.7237 317.162 46.957C317.162 47.167 317.104 47.356 316.987 47.524C316.871 47.692 316.705 47.825 316.49 47.923C316.28 48.0163 316.038 48.063 315.762 48.063Z" fill="black"/>
<path d="M294.528 67L293.366 65.005H292.596V67H291.959V62.121H293.534C293.903 62.121 294.213 62.184 294.465 62.31C294.722 62.436 294.913 62.6063 295.039 62.821C295.165 63.0357 295.228 63.2807 295.228 63.556C295.228 63.892 295.13 64.1883 294.934 64.445C294.743 64.7017 294.453 64.872 294.066 64.956L295.291 67H294.528ZM292.596 64.494H293.534C293.879 64.494 294.138 64.41 294.311 64.242C294.484 64.0693 294.57 63.8407 294.57 63.556C294.57 63.2667 294.484 63.0427 294.311 62.884C294.143 62.7253 293.884 62.646 293.534 62.646H292.596V64.494ZM299.718 64.935C299.718 65.0563 299.711 65.1847 299.697 65.32H296.631C296.654 65.698 296.782 65.9943 297.016 66.209C297.254 66.419 297.541 66.524 297.877 66.524C298.152 66.524 298.381 66.461 298.563 66.335C298.749 66.2043 298.88 66.0317 298.955 65.817H299.641C299.538 66.1857 299.333 66.4867 299.025 66.72C298.717 66.9487 298.334 67.063 297.877 67.063C297.513 67.063 297.186 66.9813 296.897 66.818C296.612 66.6547 296.388 66.4237 296.225 66.125C296.061 65.8217 295.98 65.4717 295.98 65.075C295.98 64.6783 296.059 64.3307 296.218 64.032C296.376 63.7333 296.598 63.5047 296.883 63.346C297.172 63.1827 297.503 63.101 297.877 63.101C298.241 63.101 298.563 63.1803 298.843 63.339C299.123 63.4977 299.337 63.717 299.487 63.997C299.641 64.2723 299.718 64.585 299.718 64.935ZM299.06 64.802C299.06 64.5593 299.006 64.3517 298.899 64.179C298.791 64.0017 298.644 63.8687 298.458 63.78C298.276 63.6867 298.073 63.64 297.849 63.64C297.527 63.64 297.251 63.7427 297.023 63.948C296.799 64.1533 296.67 64.438 296.638 64.802H299.06ZM301.987 66.412L303.177 63.164H303.856L302.351 67H301.609L300.104 63.164H300.79L301.987 66.412ZM307.982 64.935C307.982 65.0563 307.975 65.1847 307.961 65.32H304.895C304.919 65.698 305.047 65.9943 305.28 66.209C305.518 66.419 305.805 66.524 306.141 66.524C306.417 66.524 306.645 66.461 306.827 66.335C307.014 66.2043 307.145 66.0317 307.219 65.817H307.905C307.803 66.1857 307.597 66.4867 307.289 66.72C306.981 66.9487 306.599 67.063 306.141 67.063C305.777 67.063 305.451 66.9813 305.161 66.818C304.877 66.6547 304.653 66.4237 304.489 66.125C304.326 65.8217 304.244 65.4717 304.244 65.075C304.244 64.6783 304.324 64.3307 304.482 64.032C304.641 63.7333 304.863 63.5047 305.147 63.346C305.437 63.1827 305.768 63.101 306.141 63.101C306.505 63.101 306.827 63.1803 307.107 63.339C307.387 63.4977 307.602 63.717 307.751 63.997C307.905 64.2723 307.982 64.585 307.982 64.935ZM307.324 64.802C307.324 64.5593 307.271 64.3517 307.163 64.179C307.056 64.0017 306.909 63.8687 306.722 63.78C306.54 63.6867 306.337 63.64 306.113 63.64C305.791 63.64 305.516 63.7427 305.287 63.948C305.063 64.1533 304.935 64.438 304.902 64.802H307.324ZM310.692 63.094C311.159 63.094 311.537 63.2363 311.826 63.521C312.116 63.801 312.26 64.207 312.26 64.739V67H311.63V64.83C311.63 64.4473 311.535 64.1557 311.343 63.955C311.152 63.7497 310.891 63.647 310.559 63.647C310.223 63.647 309.955 63.752 309.754 63.962C309.558 64.172 309.46 64.4777 309.46 64.879V67H308.823V63.164H309.46V63.71C309.586 63.514 309.757 63.3623 309.971 63.255C310.191 63.1477 310.431 63.094 310.692 63.094ZM316.703 63.164V67H316.066V66.433C315.944 66.629 315.774 66.783 315.555 66.895C315.34 67.0023 315.102 67.056 314.841 67.056C314.542 67.056 314.274 66.9953 314.036 66.874C313.798 66.748 313.609 66.5613 313.469 66.314C313.333 66.0667 313.266 65.7657 313.266 65.411V63.164H313.896V65.327C313.896 65.705 313.991 65.9967 314.183 66.202C314.374 66.4027 314.635 66.503 314.967 66.503C315.307 66.503 315.576 66.398 315.772 66.188C315.968 65.978 316.066 65.6723 316.066 65.271V63.164H316.703ZM321.278 64.935C321.278 65.0563 321.271 65.1847 321.257 65.32H318.191C318.215 65.698 318.343 65.9943 318.576 66.209C318.814 66.419 319.101 66.524 319.437 66.524C319.713 66.524 319.941 66.461 320.123 66.335C320.31 66.2043 320.441 66.0317 320.515 65.817H321.201C321.099 66.1857 320.893 66.4867 320.585 66.72C320.277 66.9487 319.895 67.063 319.437 67.063C319.073 67.063 318.747 66.9813 318.457 66.818C318.173 66.6547 317.949 66.4237 317.785 66.125C317.622 65.8217 317.54 65.4717 317.54 65.075C317.54 64.6783 317.62 64.3307 317.778 64.032C317.937 63.7333 318.159 63.5047 318.443 63.346C318.733 63.1827 319.064 63.101 319.437 63.101C319.801 63.101 320.123 63.1803 320.403 63.339C320.683 63.4977 320.898 63.717 321.047 63.997C321.201 64.2723 321.278 64.585 321.278 64.935ZM320.62 64.802C320.62 64.5593 320.567 64.3517 320.459 64.179C320.352 64.0017 320.205 63.8687 320.018 63.78C319.836 63.6867 319.633 63.64 319.409 63.64C319.087 63.64 318.812 63.7427 318.583 63.948C318.359 64.1533 318.231 64.438 318.198 64.802H320.62Z" fill="black"/>
<line opacity="0.2" x1="51" y1="175.8" x2="347" y2="175.8" stroke="black" stroke-width="0.4"/>
<line opacity="0.2" x1="51" y1="146.8" x2="347" y2="146.8" stroke="black" stroke-width="0.4"/>
<line opacity="0.2" x1="51" y1="117.8" x2="347" y2="117.8" stroke="black" stroke-width="0.4"/>
<line opacity="0.2" x1="51" y1="88.8" x2="347" y2="88.8" stroke="black" stroke-width="0.4"/>
<defs>
<filter id="filter0_dd_12_38" x="0" y="0" width="385" height="248" filterUnits="userSpaceOnUse" color-interpolation-filters="sRGB">
<feFlood flood-opacity="0" result="BackgroundImageFix"/>
<feColorMatrix in="SourceAlpha" type="matrix" values="0 0 0 0 0 0 0 0 0 0 0 0 0 0 0 0 0 0 127 0" result="hardAlpha"/>
<feOffset dy="4"/>
<feGaussianBlur stdDeviation="10"/>
<feComposite in2="hardAlpha" operator="out"/>
<feColorMatrix type="matrix" values="0 0 0 0 0 0 0 0 0 0 0 0 0 0 0 0 0 0 0.25 0"/>
<feBlend mode="normal" in2="BackgroundImageFix" result="effect1_dropShadow_12_38"/>
<feColorMatrix in="SourceAlpha" type="matrix" values="0 0 0 0 0 0 0 0 0 0 0 0 0 0 0 0 0 0 127 0" result="hardAlpha"/>
<feOffset dy="4"/>
<feGaussianBlur stdDeviation="2"/>
<feComposite in2="hardAlpha" operator="out"/>
<feColorMatrix type="matrix" values="0 0 0 0 0 0 0 0 0 0 0 0 0 0 0 0 0 0 0.25 0"/>
<feBlend mode="normal" in2="effect1_dropShadow_12_38" result="effect2_dropShadow_12_38"/>
<feBlend mode="normal" in="SourceGraphic" in2="effect2_dropShadow_12_38" result="shape"/>
</filter>
<clipPath id="clip0_12_38">
<rect width="8" height="8" fill="white" transform="translate(197 20) rotate(90)"/>
</clipPath>
</defs>
</svg>
