<svg width="385" height="248" viewBox="0 0 385 248" fill="none" xmlns="http://www.w3.org/2000/svg">
<g filter="url(#filter0_dd_4_1230)">
<path d="M20 16H353C359.627 16 365 21.3726 365 28V212C365 218.627 359.627 224 353 224H32C25.3726 224 20 218.627 20 212V16Z" fill="white"/>
</g>
<line opacity="0.23" x1="53.5" y1="52" x2="53.5" y2="214" stroke="black"/>
<line opacity="0.23" x1="37" y1="197.5" x2="347" y2="197.5" stroke="black"/>
<path opacity="0.6" d="M34.637 164.5V164.084H35.469V167H35.009V164.5H34.637ZM36.0955 165.504C36.0955 165.043 36.1728 164.683 36.3275 164.424C36.4848 164.163 36.7541 164.032 37.1355 164.032C37.5168 164.032 37.7848 164.163 37.9395 164.424C38.0968 164.683 38.1755 165.043 38.1755 165.504C38.1755 165.971 38.0968 166.336 37.9395 166.6C37.7848 166.861 37.5168 166.992 37.1355 166.992C36.7541 166.992 36.4848 166.861 36.3275 166.6C36.1728 166.336 36.0955 165.971 36.0955 165.504ZM37.7275 165.504C37.7275 165.288 37.7128 165.105 37.6835 164.956C37.6568 164.807 37.6008 164.685 37.5155 164.592C37.4301 164.496 37.3035 164.448 37.1355 164.448C36.9675 164.448 36.8408 164.496 36.7555 164.592C36.6701 164.685 36.6128 164.807 36.5835 164.956C36.5568 165.105 36.5435 165.288 36.5435 165.504C36.5435 165.728 36.5568 165.916 36.5835 166.068C36.6101 166.22 36.6661 166.343 36.7515 166.436C36.8395 166.529 36.9675 166.576 37.1355 166.576C37.3035 166.576 37.4301 166.529 37.5155 166.436C37.6035 166.343 37.6608 166.22 37.6875 166.068C37.7141 165.916 37.7275 165.728 37.7275 165.504ZM38.658 165.504C38.658 165.043 38.7353 164.683 38.89 164.424C39.0473 164.163 39.3166 164.032 39.698 164.032C40.0793 164.032 40.3473 164.163 40.502 164.424C40.6593 164.683 40.738 165.043 40.738 165.504C40.738 165.971 40.6593 166.336 40.502 166.6C40.3473 166.861 40.0793 166.992 39.698 166.992C39.3166 166.992 39.0473 166.861 38.89 166.6C38.7353 166.336 38.658 165.971 38.658 165.504ZM40.29 165.504C40.29 165.288 40.2753 165.105 40.246 164.956C40.2193 164.807 40.1633 164.685 40.078 164.592C39.9926 164.496 39.866 164.448 39.698 164.448C39.53 164.448 39.4033 164.496 39.318 164.592C39.2326 164.685 39.1753 164.807 39.146 164.956C39.1193 165.105 39.106 165.288 39.106 165.504C39.106 165.728 39.1193 165.916 39.146 166.068C39.1726 166.22 39.2286 166.343 39.314 166.436C39.402 166.529 39.53 166.576 39.698 166.576C39.866 166.576 39.9926 166.529 40.078 166.436C40.166 166.343 40.2233 166.22 40.25 166.068C40.2766 165.916 40.29 165.728 40.29 165.504ZM41.2205 165.504C41.2205 165.043 41.2978 164.683 41.4525 164.424C41.6098 164.163 41.8791 164.032 42.2605 164.032C42.6418 164.032 42.9098 164.163 43.0645 164.424C43.2218 164.683 43.3005 165.043 43.3005 165.504C43.3005 165.971 43.2218 166.336 43.0645 166.6C42.9098 166.861 42.6418 166.992 42.2605 166.992C41.8791 166.992 41.6098 166.861 41.4525 166.6C41.2978 166.336 41.2205 165.971 41.2205 165.504ZM42.8525 165.504C42.8525 165.288 42.8378 165.105 42.8085 164.956C42.7818 164.807 42.7258 164.685 42.6405 164.592C42.5551 164.496 42.4285 164.448 42.2605 164.448C42.0925 164.448 41.9658 164.496 41.8805 164.592C41.7951 164.685 41.7378 164.807 41.7085 164.956C41.6818 165.105 41.6685 165.288 41.6685 165.504C41.6685 165.728 41.6818 165.916 41.7085 166.068C41.7351 166.22 41.7911 166.343 41.8765 166.436C41.9645 166.529 42.0925 166.576 42.2605 166.576C42.4285 166.576 42.5551 166.529 42.6405 166.436C42.7285 166.343 42.7858 166.22 42.8125 166.068C42.8391 165.916 42.8525 165.728 42.8525 165.504Z" fill="black"/>
<path opacity="0.6" d="M34.494 137.38C34.75 137.159 34.9513 136.977 35.098 136.836C35.2473 136.692 35.3713 136.543 35.47 136.388C35.5686 136.233 35.618 136.079 35.618 135.924C35.618 135.764 35.5793 135.639 35.502 135.548C35.4273 135.457 35.3086 135.412 35.146 135.412C34.9886 135.412 34.866 135.463 34.778 135.564C34.6926 135.663 34.6473 135.796 34.642 135.964H34.202C34.21 135.66 34.3006 135.428 34.474 135.268C34.65 135.105 34.8726 135.024 35.142 135.024C35.4326 135.024 35.6593 135.104 35.822 135.264C35.9873 135.424 36.07 135.637 36.07 135.904C36.07 136.096 36.0206 136.281 35.922 136.46C35.826 136.636 35.71 136.795 35.574 136.936C35.4406 137.075 35.27 137.236 35.062 137.42L34.882 137.58H36.15V137.96H34.206V137.628L34.494 137.38ZM36.5505 136.504C36.5505 136.043 36.6279 135.683 36.7825 135.424C36.9399 135.163 37.2092 135.032 37.5905 135.032C37.9719 135.032 38.2399 135.163 38.3945 135.424C38.5519 135.683 38.6305 136.043 38.6305 136.504C38.6305 136.971 38.5519 137.336 38.3945 137.6C38.2399 137.861 37.9719 137.992 37.5905 137.992C37.2092 137.992 36.9399 137.861 36.7825 137.6C36.6279 137.336 36.5505 136.971 36.5505 136.504ZM38.1825 136.504C38.1825 136.288 38.1679 136.105 38.1385 135.956C38.1119 135.807 38.0559 135.685 37.9705 135.592C37.8852 135.496 37.7585 135.448 37.5905 135.448C37.4225 135.448 37.2959 135.496 37.2105 135.592C37.1252 135.685 37.0679 135.807 37.0385 135.956C37.0119 136.105 36.9985 136.288 36.9985 136.504C36.9985 136.728 37.0119 136.916 37.0385 137.068C37.0652 137.22 37.1212 137.343 37.2065 137.436C37.2945 137.529 37.4225 137.576 37.5905 137.576C37.7585 137.576 37.8852 137.529 37.9705 137.436C38.0585 137.343 38.1159 137.22 38.1425 137.068C38.1692 136.916 38.1825 136.728 38.1825 136.504ZM39.113 136.504C39.113 136.043 39.1904 135.683 39.345 135.424C39.5024 135.163 39.7717 135.032 40.153 135.032C40.5344 135.032 40.8024 135.163 40.957 135.424C41.1144 135.683 41.193 136.043 41.193 136.504C41.193 136.971 41.1144 137.336 40.957 137.6C40.8024 137.861 40.5344 137.992 40.153 137.992C39.7717 137.992 39.5024 137.861 39.345 137.6C39.1904 137.336 39.113 136.971 39.113 136.504ZM40.745 136.504C40.745 136.288 40.7304 136.105 40.701 135.956C40.6744 135.807 40.6184 135.685 40.533 135.592C40.4477 135.496 40.321 135.448 40.153 135.448C39.985 135.448 39.8584 135.496 39.773 135.592C39.6877 135.685 39.6304 135.807 39.601 135.956C39.5744 136.105 39.561 136.288 39.561 136.504C39.561 136.728 39.5744 136.916 39.601 137.068C39.6277 137.22 39.6837 137.343 39.769 137.436C39.857 137.529 39.985 137.576 40.153 137.576C40.321 137.576 40.4477 137.529 40.533 137.436C40.621 137.343 40.6784 137.22 40.705 137.068C40.7317 136.916 40.745 136.728 40.745 136.504ZM41.6755 136.504C41.6755 136.043 41.7529 135.683 41.9075 135.424C42.0649 135.163 42.3342 135.032 42.7155 135.032C43.0969 135.032 43.3649 135.163 43.5195 135.424C43.6769 135.683 43.7555 136.043 43.7555 136.504C43.7555 136.971 43.6769 137.336 43.5195 137.6C43.3649 137.861 43.0969 137.992 42.7155 137.992C42.3342 137.992 42.0649 137.861 41.9075 137.6C41.7529 137.336 41.6755 136.971 41.6755 136.504ZM43.3075 136.504C43.3075 136.288 43.2929 136.105 43.2635 135.956C43.2369 135.807 43.1809 135.685 43.0955 135.592C43.0102 135.496 42.8835 135.448 42.7155 135.448C42.5475 135.448 42.4209 135.496 42.3355 135.592C42.2502 135.685 42.1929 135.807 42.1635 135.956C42.1369 136.105 42.1235 136.288 42.1235 136.504C42.1235 136.728 42.1369 136.916 42.1635 137.068C42.1902 137.22 42.2462 137.343 42.3315 137.436C42.4195 137.529 42.5475 137.576 42.7155 137.576C42.8835 137.576 43.0102 137.529 43.0955 137.436C43.1835 137.343 43.2409 137.22 43.2675 137.068C43.2942 136.916 43.3075 136.728 43.3075 136.504Z" fill="black"/>
<path opacity="0.6" d="M34.7008 106.804C34.7168 106.556 34.8114 106.363 34.9848 106.224C35.1608 106.085 35.3848 106.016 35.6568 106.016C35.8434 106.016 36.0048 106.049 36.1408 106.116C36.2768 106.183 36.3794 106.273 36.4488 106.388C36.5181 106.503 36.5528 106.632 36.5528 106.776C36.5528 106.941 36.5088 107.083 36.4208 107.2C36.3328 107.317 36.2274 107.396 36.1048 107.436V107.452C36.2621 107.5 36.3848 107.588 36.4728 107.716C36.5608 107.841 36.6048 108.003 36.6048 108.2C36.6048 108.357 36.5688 108.497 36.4968 108.62C36.4248 108.743 36.3181 108.84 36.1768 108.912C36.0354 108.981 35.8661 109.016 35.6688 109.016C35.3808 109.016 35.1434 108.943 34.9568 108.796C34.7728 108.647 34.6741 108.433 34.6608 108.156H35.1008C35.1114 108.297 35.1661 108.413 35.2648 108.504C35.3634 108.592 35.4968 108.636 35.6648 108.636C35.8274 108.636 35.9528 108.592 36.0408 108.504C36.1288 108.413 36.1728 108.297 36.1728 108.156C36.1728 107.969 36.1128 107.837 35.9928 107.76C35.8754 107.68 35.6941 107.64 35.4488 107.64H35.3448V107.264H35.4528C35.6688 107.261 35.8328 107.225 35.9448 107.156C36.0594 107.087 36.1168 106.977 36.1168 106.828C36.1168 106.7 36.0754 106.599 35.9928 106.524C35.9101 106.447 35.7928 106.408 35.6408 106.408C35.4914 106.408 35.3754 106.447 35.2928 106.524C35.2101 106.599 35.1608 106.692 35.1448 106.804H34.7008ZM37.0838 107.504C37.0838 107.043 37.1611 106.683 37.3158 106.424C37.4731 106.163 37.7424 106.032 38.1238 106.032C38.5051 106.032 38.7731 106.163 38.9278 106.424C39.0851 106.683 39.1638 107.043 39.1638 107.504C39.1638 107.971 39.0851 108.336 38.9278 108.6C38.7731 108.861 38.5051 108.992 38.1238 108.992C37.7424 108.992 37.4731 108.861 37.3158 108.6C37.1611 108.336 37.0838 107.971 37.0838 107.504ZM38.7158 107.504C38.7158 107.288 38.7011 107.105 38.6718 106.956C38.6451 106.807 38.5891 106.685 38.5038 106.592C38.4184 106.496 38.2918 106.448 38.1238 106.448C37.9558 106.448 37.8291 106.496 37.7438 106.592C37.6584 106.685 37.6011 106.807 37.5718 106.956C37.5451 107.105 37.5318 107.288 37.5318 107.504C37.5318 107.728 37.5451 107.916 37.5718 108.068C37.5984 108.22 37.6544 108.343 37.7398 108.436C37.8278 108.529 37.9558 108.576 38.1238 108.576C38.2918 108.576 38.4184 108.529 38.5038 108.436C38.5918 108.343 38.6491 108.22 38.6758 108.068C38.7024 107.916 38.7158 107.728 38.7158 107.504ZM39.6463 107.504C39.6463 107.043 39.7236 106.683 39.8783 106.424C40.0356 106.163 40.3049 106.032 40.6863 106.032C41.0676 106.032 41.3356 106.163 41.4903 106.424C41.6476 106.683 41.7263 107.043 41.7263 107.504C41.7263 107.971 41.6476 108.336 41.4903 108.6C41.3356 108.861 41.0676 108.992 40.6863 108.992C40.3049 108.992 40.0356 108.861 39.8783 108.6C39.7236 108.336 39.6463 107.971 39.6463 107.504ZM41.2783 107.504C41.2783 107.288 41.2636 107.105 41.2343 106.956C41.2076 106.807 41.1516 106.685 41.0663 106.592C40.9809 106.496 40.8543 106.448 40.6863 106.448C40.5183 106.448 40.3916 106.496 40.3063 106.592C40.2209 106.685 40.1636 106.807 40.1343 106.956C40.1076 107.105 40.0943 107.288 40.0943 107.504C40.0943 107.728 40.1076 107.916 40.1343 108.068C40.1609 108.22 40.2169 108.343 40.3023 108.436C40.3903 108.529 40.5183 108.576 40.6863 108.576C40.8543 108.576 40.9809 108.529 41.0663 108.436C41.1543 108.343 41.2116 108.22 41.2383 108.068C41.2649 107.916 41.2783 107.728 41.2783 107.504ZM42.2088 107.504C42.2088 107.043 42.2861 106.683 42.4408 106.424C42.5981 106.163 42.8674 106.032 43.2488 106.032C43.6301 106.032 43.8981 106.163 44.0528 106.424C44.2101 106.683 44.2888 107.043 44.2888 107.504C44.2888 107.971 44.2101 108.336 44.0528 108.6C43.8981 108.861 43.6301 108.992 43.2488 108.992C42.8674 108.992 42.5981 108.861 42.4408 108.6C42.2861 108.336 42.2088 107.971 42.2088 107.504ZM43.8408 107.504C43.8408 107.288 43.8261 107.105 43.7968 106.956C43.7701 106.807 43.7141 106.685 43.6288 106.592C43.5434 106.496 43.4168 106.448 43.2488 106.448C43.0808 106.448 42.9541 106.496 42.8688 106.592C42.7834 106.685 42.7261 106.807 42.6968 106.956C42.6701 107.105 42.6568 107.288 42.6568 107.504C42.6568 107.728 42.6701 107.916 42.6968 108.068C42.7234 108.22 42.7794 108.343 42.8648 108.436C42.9528 108.529 43.0808 108.576 43.2488 108.576C43.4168 108.576 43.5434 108.529 43.6288 108.436C43.7168 108.343 43.7741 108.22 43.8008 108.068C43.8274 107.916 43.8408 107.728 43.8408 107.504Z" fill="black"/>
<path opacity="0.6" d="M34.5453 79.392V79.048L35.8893 77.12H36.4413V78.996H36.8133V79.392H36.4413V80H35.9933V79.392H34.5453ZM36.0133 77.584L35.0693 78.996H36.0133V77.584ZM37.1912 78.504C37.1912 78.0427 37.2685 77.6827 37.4232 77.424C37.5805 77.1627 37.8498 77.032 38.2312 77.032C38.6125 77.032 38.8805 77.1627 39.0352 77.424C39.1925 77.6827 39.2712 78.0427 39.2712 78.504C39.2712 78.9707 39.1925 79.336 39.0352 79.6C38.8805 79.8613 38.6125 79.992 38.2312 79.992C37.8498 79.992 37.5805 79.8613 37.4232 79.6C37.2685 79.336 37.1912 78.9707 37.1912 78.504ZM38.8232 78.504C38.8232 78.288 38.8085 78.1053 38.7792 77.956C38.7525 77.8067 38.6965 77.6853 38.6112 77.592C38.5258 77.496 38.3992 77.448 38.2312 77.448C38.0632 77.448 37.9365 77.496 37.8512 77.592C37.7658 77.6853 37.7085 77.8067 37.6792 77.956C37.6525 78.1053 37.6392 78.288 37.6392 78.504C37.6392 78.728 37.6525 78.916 37.6792 79.068C37.7058 79.22 37.7618 79.3427 37.8472 79.436C37.9352 79.5293 38.0632 79.576 38.2312 79.576C38.3992 79.576 38.5258 79.5293 38.6112 79.436C38.6992 79.3427 38.7565 79.22 38.7832 79.068C38.8098 78.916 38.8232 78.728 38.8232 78.504ZM39.7537 78.504C39.7537 78.0427 39.831 77.6827 39.9857 77.424C40.143 77.1627 40.4123 77.032 40.7937 77.032C41.175 77.032 41.443 77.1627 41.5977 77.424C41.755 77.6827 41.8337 78.0427 41.8337 78.504C41.8337 78.9707 41.755 79.336 41.5977 79.6C41.443 79.8613 41.175 79.992 40.7937 79.992C40.4123 79.992 40.143 79.8613 39.9857 79.6C39.831 79.336 39.7537 78.9707 39.7537 78.504ZM41.3857 78.504C41.3857 78.288 41.371 78.1053 41.3417 77.956C41.315 77.8067 41.259 77.6853 41.1737 77.592C41.0883 77.496 40.9617 77.448 40.7937 77.448C40.6257 77.448 40.499 77.496 40.4137 77.592C40.3283 77.6853 40.271 77.8067 40.2417 77.956C40.215 78.1053 40.2017 78.288 40.2017 78.504C40.2017 78.728 40.215 78.916 40.2417 79.068C40.2683 79.22 40.3243 79.3427 40.4097 79.436C40.4977 79.5293 40.6257 79.576 40.7937 79.576C40.9617 79.576 41.0883 79.5293 41.1737 79.436C41.2617 79.3427 41.319 79.22 41.3457 79.068C41.3723 78.916 41.3857 78.728 41.3857 78.504ZM42.3162 78.504C42.3162 78.0427 42.3935 77.6827 42.5482 77.424C42.7055 77.1627 42.9748 77.032 43.3562 77.032C43.7375 77.032 44.0055 77.1627 44.1602 77.424C44.3175 77.6827 44.3962 78.0427 44.3962 78.504C44.3962 78.9707 44.3175 79.336 44.1602 79.6C44.0055 79.8613 43.7375 79.992 43.3562 79.992C42.9748 79.992 42.7055 79.8613 42.5482 79.6C42.3935 79.336 42.3162 78.9707 42.3162 78.504ZM43.9482 78.504C43.9482 78.288 43.9335 78.1053 43.9042 77.956C43.8775 77.8067 43.8215 77.6853 43.7362 77.592C43.6508 77.496 43.5242 77.448 43.3562 77.448C43.1882 77.448 43.0615 77.496 42.9762 77.592C42.8908 77.6853 42.8335 77.8067 42.8042 77.956C42.7775 78.1053 42.7642 78.288 42.7642 78.504C42.7642 78.728 42.7775 78.916 42.8042 79.068C42.8308 79.22 42.8868 79.3427 42.9722 79.436C43.0602 79.5293 43.1882 79.576 43.3562 79.576C43.5242 79.576 43.6508 79.5293 43.7362 79.436C43.8242 79.3427 43.8815 79.22 43.9082 79.068C43.9348 78.916 43.9482 78.728 43.9482 78.504Z" fill="black"/>
<path opacity="0.6" d="M76.9781 202.22V204.224C76.9781 204.472 76.9021 204.668 76.7501 204.812C76.6008 204.956 76.4034 205.028 76.1581 205.028C75.9128 205.028 75.7141 204.956 75.5621 204.812C75.4128 204.668 75.3381 204.472 75.3381 204.224H75.7981C75.8008 204.347 75.8314 204.444 75.8901 204.516C75.9514 204.588 76.0408 204.624 76.1581 204.624C76.2754 204.624 76.3648 204.588 76.4261 204.516C76.4874 204.441 76.5181 204.344 76.5181 204.224V202.22H76.9781ZM79.7159 202.796V205H79.2599V204.74C79.1879 204.831 79.0933 204.903 78.9759 204.956C78.8613 205.007 78.7386 205.032 78.6079 205.032C78.4346 205.032 78.2786 204.996 78.1399 204.924C78.0039 204.852 77.8959 204.745 77.8159 204.604C77.7386 204.463 77.6999 204.292 77.6999 204.092V202.796H78.1519V204.024C78.1519 204.221 78.2013 204.373 78.2999 204.48C78.3986 204.584 78.5333 204.636 78.7039 204.636C78.8746 204.636 79.0093 204.584 79.1079 204.48C79.2093 204.373 79.2599 204.221 79.2599 204.024V202.796H79.7159ZM80.7736 202.04V205H80.3176V202.04H80.7736ZM83.3563 202.796L82.0043 206.036H81.5323L81.9803 204.964L81.1123 202.796H81.6203L82.2403 204.476L82.8843 202.796H83.3563ZM84.6195 202.5V202.084H85.4515V205H84.9915V202.5H84.6195Z" fill="black"/>
<path opacity="0.6" d="M115.023 202.22V204.224C115.023 204.472 114.947 204.668 114.795 204.812C114.646 204.956 114.448 205.028 114.203 205.028C113.958 205.028 113.759 204.956 113.607 204.812C113.458 204.668 113.383 204.472 113.383 204.224H113.843C113.846 204.347 113.876 204.444 113.935 204.516C113.996 204.588 114.086 204.624 114.203 204.624C114.32 204.624 114.41 204.588 114.471 204.516C114.532 204.441 114.563 204.344 114.563 204.224V202.22H115.023ZM117.761 202.796V205H117.305V204.74C117.233 204.831 117.138 204.903 117.021 204.956C116.906 205.007 116.784 205.032 116.653 205.032C116.48 205.032 116.324 204.996 116.185 204.924C116.049 204.852 115.941 204.745 115.861 204.604C115.784 204.463 115.745 204.292 115.745 204.092V202.796H116.197V204.024C116.197 204.221 116.246 204.373 116.345 204.48C116.444 204.584 116.578 204.636 116.749 204.636C116.92 204.636 117.054 204.584 117.153 204.48C117.254 204.373 117.305 204.221 117.305 204.024V202.796H117.761ZM118.819 202.04V205H118.363V202.04H118.819ZM121.401 202.796L120.049 206.036H119.577L120.025 204.964L119.157 202.796H119.665L120.285 204.476L120.929 202.796H121.401ZM122.976 204.38C123.232 204.159 123.434 203.977 123.58 203.836C123.73 203.692 123.854 203.543 123.952 203.388C124.051 203.233 124.1 203.079 124.1 202.924C124.1 202.764 124.062 202.639 123.984 202.548C123.91 202.457 123.791 202.412 123.628 202.412C123.471 202.412 123.348 202.463 123.26 202.564C123.175 202.663 123.13 202.796 123.124 202.964H122.684C122.692 202.66 122.783 202.428 122.956 202.268C123.132 202.105 123.355 202.024 123.624 202.024C123.915 202.024 124.142 202.104 124.304 202.264C124.47 202.424 124.552 202.637 124.552 202.904C124.552 203.096 124.503 203.281 124.404 203.46C124.308 203.636 124.192 203.795 124.056 203.936C123.923 204.075 123.752 204.236 123.544 204.42L123.364 204.58H124.632V204.96H122.688V204.628L122.976 204.38Z" fill="black"/>
<path opacity="0.6" d="M154.99 202.22V204.224C154.99 204.472 154.914 204.668 154.762 204.812C154.612 204.956 154.415 205.028 154.17 205.028C153.924 205.028 153.726 204.956 153.574 204.812C153.424 204.668 153.35 204.472 153.35 204.224H153.81C153.812 204.347 153.843 204.444 153.902 204.516C153.963 204.588 154.052 204.624 154.17 204.624C154.287 204.624 154.376 204.588 154.438 204.516C154.499 204.441 154.53 204.344 154.53 204.224V202.22H154.99ZM157.728 202.796V205H157.272V204.74C157.2 204.831 157.105 204.903 156.988 204.956C156.873 205.007 156.75 205.032 156.62 205.032C156.446 205.032 156.29 204.996 156.152 204.924C156.016 204.852 155.908 204.745 155.828 204.604C155.75 204.463 155.712 204.292 155.712 204.092V202.796H156.164V204.024C156.164 204.221 156.213 204.373 156.312 204.48C156.41 204.584 156.545 204.636 156.716 204.636C156.886 204.636 157.021 204.584 157.12 204.48C157.221 204.373 157.272 204.221 157.272 204.024V202.796H157.728ZM158.785 202.04V205H158.329V202.04H158.785ZM161.368 202.796L160.016 206.036H159.544L159.992 204.964L159.124 202.796H159.632L160.252 204.476L160.896 202.796H161.368ZM162.683 202.804C162.699 202.556 162.794 202.363 162.967 202.224C163.143 202.085 163.367 202.016 163.639 202.016C163.826 202.016 163.987 202.049 164.123 202.116C164.259 202.183 164.362 202.273 164.431 202.388C164.501 202.503 164.535 202.632 164.535 202.776C164.535 202.941 164.491 203.083 164.403 203.2C164.315 203.317 164.21 203.396 164.087 203.436V203.452C164.245 203.5 164.367 203.588 164.455 203.716C164.543 203.841 164.587 204.003 164.587 204.2C164.587 204.357 164.551 204.497 164.479 204.62C164.407 204.743 164.301 204.84 164.159 204.912C164.018 204.981 163.849 205.016 163.651 205.016C163.363 205.016 163.126 204.943 162.939 204.796C162.755 204.647 162.657 204.433 162.643 204.156H163.083C163.094 204.297 163.149 204.413 163.247 204.504C163.346 204.592 163.479 204.636 163.647 204.636C163.81 204.636 163.935 204.592 164.023 204.504C164.111 204.413 164.155 204.297 164.155 204.156C164.155 203.969 164.095 203.837 163.975 203.76C163.858 203.68 163.677 203.64 163.431 203.64H163.327V203.264H163.435C163.651 203.261 163.815 203.225 163.927 203.156C164.042 203.087 164.099 202.977 164.099 202.828C164.099 202.7 164.058 202.599 163.975 202.524C163.893 202.447 163.775 202.408 163.623 202.408C163.474 202.408 163.358 202.447 163.275 202.524C163.193 202.599 163.143 202.692 163.127 202.804H162.683Z" fill="black"/>
<path opacity="0.6" d="M194.882 202.22V204.224C194.882 204.472 194.806 204.668 194.654 204.812C194.505 204.956 194.308 205.028 194.062 205.028C193.817 205.028 193.618 204.956 193.466 204.812C193.317 204.668 193.242 204.472 193.242 204.224H193.702C193.705 204.347 193.736 204.444 193.794 204.516C193.856 204.588 193.945 204.624 194.062 204.624C194.18 204.624 194.269 204.588 194.33 204.516C194.392 204.441 194.422 204.344 194.422 204.224V202.22H194.882ZM197.62 202.796V205H197.164V204.74C197.092 204.831 196.998 204.903 196.88 204.956C196.766 205.007 196.643 205.032 196.512 205.032C196.339 205.032 196.183 204.996 196.044 204.924C195.908 204.852 195.8 204.745 195.72 204.604C195.643 204.463 195.604 204.292 195.604 204.092V202.796H196.056V204.024C196.056 204.221 196.106 204.373 196.204 204.48C196.303 204.584 196.438 204.636 196.608 204.636C196.779 204.636 196.914 204.584 197.012 204.48C197.114 204.373 197.164 204.221 197.164 204.024V202.796H197.62ZM198.678 202.04V205H198.222V202.04H198.678ZM201.261 202.796L199.909 206.036H199.437L199.885 204.964L199.017 202.796H199.525L200.145 204.476L200.789 202.796H201.261ZM202.528 204.392V204.048L203.872 202.12H204.424V203.996H204.796V204.392H204.424V205H203.976V204.392H202.528ZM203.996 202.584L203.052 203.996H203.996V202.584Z" fill="black"/>
<path opacity="0.6" d="M234.9 202.22V204.224C234.9 204.472 234.824 204.668 234.672 204.812C234.523 204.956 234.325 205.028 234.08 205.028C233.835 205.028 233.636 204.956 233.484 204.812C233.335 204.668 233.26 204.472 233.26 204.224H233.72C233.723 204.347 233.753 204.444 233.812 204.516C233.873 204.588 233.963 204.624 234.08 204.624C234.197 204.624 234.287 204.588 234.348 204.516C234.409 204.441 234.44 204.344 234.44 204.224V202.22H234.9ZM237.638 202.796V205H237.182V204.74C237.11 204.831 237.015 204.903 236.898 204.956C236.783 205.007 236.66 205.032 236.53 205.032C236.356 205.032 236.2 204.996 236.062 204.924C235.926 204.852 235.818 204.745 235.738 204.604C235.66 204.463 235.622 204.292 235.622 204.092V202.796H236.074V204.024C236.074 204.221 236.123 204.373 236.222 204.48C236.32 204.584 236.455 204.636 236.626 204.636C236.796 204.636 236.931 204.584 237.03 204.48C237.131 204.373 237.182 204.221 237.182 204.024V202.796H237.638ZM238.695 202.04V205H238.239V202.04H238.695ZM241.278 202.796L239.926 206.036H239.454L239.902 204.964L239.034 202.796H239.542L240.162 204.476L240.806 202.796H241.278ZM244.481 202.476H243.141V203.272C243.197 203.197 243.28 203.135 243.389 203.084C243.501 203.033 243.62 203.008 243.745 203.008C243.969 203.008 244.151 203.056 244.289 203.152C244.431 203.248 244.531 203.369 244.589 203.516C244.651 203.663 244.681 203.817 244.681 203.98C244.681 204.177 244.643 204.353 244.565 204.508C244.491 204.66 244.377 204.78 244.225 204.868C244.076 204.956 243.892 205 243.673 205C243.383 205 243.149 204.928 242.973 204.784C242.797 204.64 242.692 204.449 242.657 204.212H243.101C243.131 204.337 243.196 204.437 243.297 204.512C243.399 204.584 243.525 204.62 243.677 204.62C243.867 204.62 244.008 204.563 244.101 204.448C244.197 204.333 244.245 204.181 244.245 203.992C244.245 203.8 244.197 203.653 244.101 203.552C244.005 203.448 243.864 203.396 243.677 203.396C243.547 203.396 243.436 203.429 243.345 203.496C243.257 203.56 243.193 203.648 243.153 203.76H242.721V202.076H244.481V202.476Z" fill="black"/>
<path opacity="0.6" d="M274.894 202.22V204.224C274.894 204.472 274.818 204.668 274.666 204.812C274.517 204.956 274.319 205.028 274.074 205.028C273.829 205.028 273.63 204.956 273.478 204.812C273.329 204.668 273.254 204.472 273.254 204.224H273.714C273.717 204.347 273.747 204.444 273.806 204.516C273.867 204.588 273.957 204.624 274.074 204.624C274.191 204.624 274.281 204.588 274.342 204.516C274.403 204.441 274.434 204.344 274.434 204.224V202.22H274.894ZM277.632 202.796V205H277.176V204.74C277.104 204.831 277.009 204.903 276.892 204.956C276.777 205.007 276.655 205.032 276.524 205.032C276.351 205.032 276.195 204.996 276.056 204.924C275.92 204.852 275.812 204.745 275.732 204.604C275.655 204.463 275.616 204.292 275.616 204.092V202.796H276.068V204.024C276.068 204.221 276.117 204.373 276.216 204.48C276.315 204.584 276.449 204.636 276.62 204.636C276.791 204.636 276.925 204.584 277.024 204.48C277.125 204.373 277.176 204.221 277.176 204.024V202.796H277.632ZM278.69 202.04V205H278.234V202.04H278.69ZM281.272 202.796L279.92 206.036H279.448L279.896 204.964L279.028 202.796H279.536L280.156 204.476L280.8 202.796H281.272ZM284.163 202.76C284.134 202.637 284.081 202.545 284.003 202.484C283.926 202.423 283.818 202.392 283.679 202.392C283.469 202.392 283.311 202.473 283.207 202.636C283.103 202.796 283.049 203.063 283.043 203.436C283.113 203.319 283.214 203.228 283.347 203.164C283.481 203.1 283.625 203.068 283.779 203.068C283.955 203.068 284.11 203.107 284.243 203.184C284.379 203.259 284.485 203.368 284.559 203.512C284.637 203.656 284.675 203.828 284.675 204.028C284.675 204.215 284.638 204.381 284.563 204.528C284.491 204.675 284.383 204.791 284.239 204.876C284.095 204.959 283.922 205 283.719 205C283.445 205 283.229 204.94 283.071 204.82C282.917 204.697 282.807 204.525 282.743 204.304C282.682 204.083 282.651 203.807 282.651 203.476C282.651 202.5 282.995 202.012 283.683 202.012C283.95 202.012 284.159 202.084 284.311 202.228C284.466 202.372 284.557 202.549 284.583 202.76H284.163ZM283.679 203.452C283.517 203.452 283.378 203.501 283.263 203.6C283.151 203.696 283.095 203.836 283.095 204.02C283.095 204.204 283.147 204.351 283.251 204.46C283.358 204.567 283.506 204.62 283.695 204.62C283.863 204.62 283.995 204.568 284.091 204.464C284.19 204.36 284.239 204.221 284.239 204.048C284.239 203.867 284.191 203.723 284.095 203.616C284.002 203.507 283.863 203.452 283.679 203.452Z" fill="black"/>
<path opacity="0.6" d="M315.058 202.22V204.224C315.058 204.472 314.982 204.668 314.83 204.812C314.681 204.956 314.484 205.028 314.238 205.028C313.993 205.028 313.794 204.956 313.642 204.812C313.493 204.668 313.418 204.472 313.418 204.224H313.878C313.881 204.347 313.912 204.444 313.97 204.516C314.032 204.588 314.121 204.624 314.238 204.624C314.356 204.624 314.445 204.588 314.506 204.516C314.568 204.441 314.598 204.344 314.598 204.224V202.22H315.058ZM317.796 202.796V205H317.34V204.74C317.268 204.831 317.173 204.903 317.056 204.956C316.941 205.007 316.819 205.032 316.688 205.032C316.515 205.032 316.359 204.996 316.22 204.924C316.084 204.852 315.976 204.745 315.896 204.604C315.819 204.463 315.78 204.292 315.78 204.092V202.796H316.232V204.024C316.232 204.221 316.281 204.373 316.38 204.48C316.479 204.584 316.613 204.636 316.784 204.636C316.955 204.636 317.089 204.584 317.188 204.48C317.289 204.373 317.34 204.221 317.34 204.024V202.796H317.796ZM318.854 202.04V205H318.398V202.04H318.854ZM321.436 202.796L320.084 206.036H319.612L320.06 204.964L319.192 202.796H319.7L320.32 204.476L320.964 202.796H321.436ZM324.608 202.436L323.496 205H323.036L324.16 202.484H322.68V202.096H324.608V202.436Z" fill="black"/>
<path d="M73 142C73 139.791 74.7909 138 77 138H86C88.2091 138 90 139.791 90 142V197H73V142Z" fill="#1A377D"/>
<path d="M112 121C112 118.791 113.791 117 116 117H126C128.209 117 130 118.791 130 121V197H112V121Z" fill="#1A377D"/>
<path d="M152 99C152 96.7909 153.791 95 156 95H166C168.209 95 170 96.7909 170 99V197H152V99Z" fill="#1A377D"/>
<path d="M192 180C192 177.791 193.791 176 196 176H206C208.209 176 210 177.791 210 180V197H192V180Z" fill="#1A377D"/>
<path d="M232 124C232 121.791 233.791 120 236 120H246C248.209 120 250 121.791 250 124V197H232V124Z" fill="#1A377D"/>
<path d="M274 171C274 168.791 275.791 167 278 167H286C288.209 167 290 168.791 290 171V197H274V171Z" fill="#1A377D"/>
<path d="M312 84C312 81.7909 313.791 80 316 80H326C328.209 80 330 81.7909 330 84V197H312V84Z" fill="#1A377D"/>
<line opacity="0.2" x1="50" y1="166.8" x2="347" y2="166.8" stroke="black" stroke-width="0.4" stroke-dasharray="0.8 0.8"/>
<line opacity="0.2" x1="50" y1="137.8" x2="347" y2="137.8" stroke="black" stroke-width="0.4" stroke-dasharray="0.8 0.8"/>
<line opacity="0.2" x1="50" y1="108.8" x2="347" y2="108.8" stroke="black" stroke-width="0.4" stroke-dasharray="0.8 0.8"/>
<line opacity="0.2" x1="50" y1="79.8" x2="347" y2="79.8" stroke="black" stroke-width="0.4" stroke-dasharray="0.8 0.8"/>
<path d="M156 16H230V39C230 43.9706 225.971 48 221 48H165C160.029 48 156 43.9706 156 39V16Z" fill="#E8EBF2"/>
<path d="M177.669 35.44L175.581 41H174.525L172.429 35.44H173.405L175.053 40.064L176.709 35.44H177.669ZM178.896 36.008C178.731 36.008 178.592 35.952 178.48 35.84C178.368 35.728 178.312 35.5893 178.312 35.424C178.312 35.2587 178.368 35.12 178.48 35.008C178.592 34.896 178.731 34.84 178.896 34.84C179.056 34.84 179.192 34.896 179.304 35.008C179.416 35.12 179.472 35.2587 179.472 35.424C179.472 35.5893 179.416 35.728 179.304 35.84C179.192 35.952 179.056 36.008 178.896 36.008ZM179.344 36.592V41H178.432V36.592H179.344ZM184.581 38.688C184.581 38.8533 184.571 39.0027 184.549 39.136H181.181C181.208 39.488 181.339 39.7707 181.573 39.984C181.808 40.1973 182.096 40.304 182.437 40.304C182.928 40.304 183.275 40.0987 183.477 39.688H184.461C184.328 40.0933 184.085 40.4267 183.733 40.688C183.387 40.944 182.955 41.072 182.437 41.072C182.016 41.072 181.637 40.9787 181.301 40.792C180.971 40.6 180.709 40.3333 180.517 39.992C180.331 39.6453 180.237 39.2453 180.237 38.792C180.237 38.3387 180.328 37.9413 180.509 37.6C180.696 37.2533 180.955 36.9867 181.285 36.8C181.621 36.6133 182.005 36.52 182.437 36.52C182.853 36.52 183.224 36.6107 183.549 36.792C183.875 36.9733 184.128 37.2293 184.309 37.56C184.491 37.8853 184.581 38.2613 184.581 38.688ZM183.629 38.4C183.624 38.064 183.504 37.7947 183.269 37.592C183.035 37.3893 182.744 37.288 182.397 37.288C182.083 37.288 181.813 37.3893 181.589 37.592C181.365 37.7893 181.232 38.0587 181.189 38.4H183.629ZM191.399 36.592L190.031 41H189.071L188.183 37.744L187.295 41H186.335L184.959 36.592H185.887L186.807 40.136L187.743 36.592H188.695L189.591 40.12L190.503 36.592H191.399ZM200.015 35.44V41H199.103V37.192L197.407 41H196.775L195.071 37.192V41H194.159V35.44H195.143L197.095 39.8L199.039 35.44H200.015ZM203.125 41.072C202.709 41.072 202.333 40.9787 201.997 40.792C201.661 40.6 201.397 40.3333 201.205 39.992C201.013 39.6453 200.917 39.2453 200.917 38.792C200.917 38.344 201.016 37.9467 201.213 37.6C201.411 37.2533 201.68 36.9867 202.021 36.8C202.363 36.6133 202.744 36.52 203.165 36.52C203.587 36.52 203.968 36.6133 204.309 36.8C204.651 36.9867 204.92 37.2533 205.117 37.6C205.315 37.9467 205.413 38.344 205.413 38.792C205.413 39.24 205.312 39.6373 205.109 39.984C204.907 40.3307 204.629 40.6 204.277 40.792C203.931 40.9787 203.547 41.072 203.125 41.072ZM203.125 40.28C203.36 40.28 203.579 40.224 203.781 40.112C203.989 40 204.157 39.832 204.285 39.608C204.413 39.384 204.477 39.112 204.477 38.792C204.477 38.472 204.416 38.2027 204.293 37.984C204.171 37.76 204.008 37.592 203.805 37.48C203.603 37.368 203.384 37.312 203.149 37.312C202.915 37.312 202.696 37.368 202.493 37.48C202.296 37.592 202.139 37.76 202.021 37.984C201.904 38.2027 201.845 38.472 201.845 38.792C201.845 39.2667 201.965 39.6347 202.205 39.896C202.451 40.152 202.757 40.28 203.125 40.28ZM207.227 37.232C207.36 37.008 207.536 36.8347 207.755 36.712C207.979 36.584 208.243 36.52 208.547 36.52V37.464H208.315C207.958 37.464 207.686 37.5547 207.499 37.736C207.318 37.9173 207.227 38.232 207.227 38.68V41H206.315V36.592H207.227V37.232ZM213.425 38.688C213.425 38.8533 213.414 39.0027 213.393 39.136H210.025C210.052 39.488 210.182 39.7707 210.417 39.984C210.652 40.1973 210.94 40.304 211.281 40.304C211.772 40.304 212.118 40.0987 212.321 39.688H213.305C213.172 40.0933 212.929 40.4267 212.577 40.688C212.23 40.944 211.798 41.072 211.281 41.072C210.86 41.072 210.481 40.9787 210.145 40.792C209.814 40.6 209.553 40.3333 209.361 39.992C209.174 39.6453 209.081 39.2453 209.081 38.792C209.081 38.3387 209.172 37.9413 209.353 37.6C209.54 37.2533 209.798 36.9867 210.129 36.8C210.465 36.6133 210.849 36.52 211.281 36.52C211.697 36.52 212.068 36.6107 212.393 36.792C212.718 36.9733 212.972 37.2293 213.153 37.56C213.334 37.8853 213.425 38.2613 213.425 38.688ZM212.473 38.4C212.468 38.064 212.348 37.7947 212.113 37.592C211.878 37.3893 211.588 37.288 211.241 37.288C210.926 37.288 210.657 37.3893 210.433 37.592C210.209 37.7893 210.076 38.0587 210.033 38.4H212.473Z" fill="black"/>
<g clip-path="url(#clip0_4_1230)">
<path d="M196.003 25.54C196.042 25.5013 196.073 25.4553 196.094 25.4047C196.115 25.3541 196.126 25.2998 196.126 25.245C196.126 25.1902 196.115 25.1359 196.094 25.0853C196.073 25.0347 196.042 24.9887 196.003 24.95L193.233 22.18C193.202 22.1491 193.166 22.1246 193.126 22.1079C193.085 22.0911 193.042 22.0825 192.998 22.0825C192.955 22.0825 192.911 22.0911 192.871 22.1079C192.831 22.1246 192.794 22.1491 192.763 22.18L189.993 24.95C189.83 25.1133 189.83 25.3767 189.993 25.54C190.157 25.7033 190.42 25.7033 190.583 25.54L193 23.1267L195.417 25.5433C195.577 25.7033 195.843 25.7033 196.003 25.54Z" fill="black"/>
</g>
<defs>
<filter id="filter0_dd_4_1230" x="0" y="0" width="385" height="248" filterUnits="userSpaceOnUse" color-interpolation-filters="sRGB">
<feFlood flood-opacity="0" result="BackgroundImageFix"/>
<feColorMatrix in="SourceAlpha" type="matrix" values="0 0 0 0 0 0 0 0 0 0 0 0 0 0 0 0 0 0 127 0" result="hardAlpha"/>
<feOffset dy="4"/>
<feGaussianBlur stdDeviation="10"/>
<feComposite in2="hardAlpha" operator="out"/>
<feColorMatrix type="matrix" values="0 0 0 0 0 0 0 0 0 0 0 0 0 0 0 0 0 0 0.25 0"/>
<feBlend mode="normal" in2="BackgroundImageFix" result="effect1_dropShadow_4_1230"/>
<feColorMatrix in="SourceAlpha" type="matrix" values="0 0 0 0 0 0 0 0 0 0 0 0 0 0 0 0 0 0 127 0" result="hardAlpha"/>
<feOffset dy="4"/>
<feGaussianBlur stdDeviation="2"/>
<feComposite in2="hardAlpha" operator="out"/>
<feColorMatrix type="matrix" values="0 0 0 0 0 0 0 0 0 0 0 0 0 0 0 0 0 0 0.25 0"/>
<feBlend mode="normal" in2="effect1_dropShadow_4_1230" result="effect2_dropShadow_4_1230"/>
<feBlend mode="normal" in="SourceGraphic" in2="effect2_dropShadow_4_1230" result="shape"/>
</filter>
<clipPath id="clip0_4_1230">
<rect width="8" height="8" fill="white" transform="translate(197 20) rotate(90)"/>
</clipPath>
</defs>
</svg>
