<svg width="12" height="12" viewBox="0 0 12 12" fill="none" xmlns="http://www.w3.org/2000/svg">
<path d="M1.51001 8.19988C2.32001 9.85988 4.02501 10.9999 6.00001 10.9999C8.76001 10.9999 11 8.75988 11 5.99988C11 5.65988 10.965 5.32488 10.9 5.00488" stroke="#292D32" stroke-width="1.5" stroke-linecap="round" stroke-linejoin="round"/>
<path d="M7.01 1.1C6.68 1.035 6.345 1 6 1C3.24 1 1 3.24 1 6" stroke="#292D32" stroke-width="1.5" stroke-linecap="round" stroke-linejoin="round"/>
<path d="M9.5 1C8.67 1 8 1.67 8 2.5C8 3.33 8.67 4 9.5 4C10.33 4 11 3.33 11 2.5C11 2.32 10.97 2.15 10.91 1.995" stroke="#292D32" stroke-width="1.5" stroke-linecap="round" stroke-linejoin="round"/>
</svg>
