<svg width="24" height="7" viewBox="0 0 24 7" fill="none" xmlns="http://www.w3.org/2000/svg">
<path d="M18.1497 6.6083H16.8793L18.6445 0H19.9149L18.1497 6.6083ZM17.4899 0.206978C17.403 0.0809913 17.267 0.0179981 17.0818 0.0179981H10.1019L9.7575 1.31386H16.1066L15.7362 2.69671H10.6575V2.69372H9.38709L8.33373 6.6383H9.60413L10.3102 3.99258H16.0198C16.1992 3.99258 16.367 3.92958 16.5233 3.8036C16.6796 3.67761 16.7838 3.52163 16.833 3.33565L17.539 0.689927C17.594 0.491948 17.5767 0.332965 17.4899 0.206978ZM7.59291 6.19434C7.52346 6.45532 7.29195 6.6383 7.0315 6.6383H0.482737C0.303319 6.6383 0.170203 6.5753 0.0833872 6.44932C-0.00342805 6.32333 -0.023685 6.16735 0.0284042 5.98137L1.62581 0.0179981H2.8962L1.46954 5.34543H6.55113L7.97779 0.0179981H9.24819L7.59291 6.19434Z" fill="white"/>
<path d="M22.3001 0L24 3.31915L20.4255 6.6383L22.3001 0Z" fill="#098041"/>
<path d="M21.2802 0L22.9787 3.31915L19.4042 6.6383L21.2802 0Z" fill="#E97626"/>
</svg>
