<svg width="62" height="38" viewBox="0 0 62 38" fill="none" xmlns="http://www.w3.org/2000/svg">
<path d="M0 8.06061C0 3.60886 3.5983 0 8.03704 0H53.963C58.4017 0 62 3.60886 62 8.06061V29.9394C62 34.3911 58.4017 38 53.963 38H8.03704C3.5983 38 0 34.3911 0 29.9394V8.06061Z" fill="#FF3636"/>
<path d="M19.9913 10.6722L10.3333 26.4848H13.5076C13.5076 26.4848 20.7342 14.4752 20.9368 14.3418C21.1394 14.2083 25.3943 21.8812 25.3943 21.8812H28.7037L21.6797 10.6722C21.1792 10.2542 20.8032 10.2674 19.9913 10.6722Z" fill="white"/>
<path d="M17.2222 26.4182L18.5172 23.5521L32.08 23.4188L32.1481 26.4848L17.2222 26.4182Z" fill="white"/>
<path d="M25.5371 10.4216L31.9437 10.3636L32.0118 13.3543L27.1534 13.2809L25.5371 10.4216Z" fill="white"/>
<path d="M32.2957 26.4848C34.4076 26.465 36.4252 25.5968 37.9047 24.0712C39.3842 22.5456 40.2044 20.4875 40.1848 18.3497C40.1653 16.212 39.3076 14.1696 37.8004 12.672C36.2932 11.1744 34.26 10.3442 32.1481 10.364L32.1757 13.3748C33.4988 13.3623 34.7725 13.8825 35.7167 14.8207C36.6609 15.7589 37.1982 17.0384 37.2105 18.3776C37.2228 19.7169 36.7089 21.0062 35.7821 21.962C34.8552 22.9178 33.5912 23.4617 32.2681 23.4741L32.2957 26.4848Z" fill="white"/>
<path d="M45.9968 26.4848C44.8943 26.4848 43.9021 26.3035 43.0201 25.9407C42.1381 25.5628 41.4452 25.0337 40.9412 24.3535C40.4372 23.6733 40.1852 22.8797 40.1852 21.9727H43.0674C43.1304 22.6529 43.406 23.2122 43.8942 23.6506C44.3982 24.089 45.0991 24.3081 45.9968 24.3081C46.926 24.3081 47.6505 24.0965 48.1702 23.6733C48.69 23.2349 48.9499 22.6756 48.9499 21.9954C48.9499 21.4663 48.7845 21.0355 48.4537 20.703C48.1387 20.3704 47.7371 20.1135 47.2489 19.9321C46.7764 19.7507 46.1149 19.5542 45.2644 19.3425C44.1935 19.0705 43.3194 18.7984 42.6421 18.5263C41.9806 18.2391 41.4137 17.8007 40.9412 17.2112C40.4687 16.6217 40.2324 15.8356 40.2324 14.8531C40.2324 13.9461 40.4687 13.1525 40.9412 12.4723C41.4137 11.7921 42.0751 11.2706 42.9256 10.9078C43.7761 10.545 44.7605 10.3636 45.8787 10.3636C47.4694 10.3636 48.7687 10.7491 49.7767 11.52C50.8004 12.2758 51.3674 13.3188 51.4777 14.649H48.501C48.4537 14.0746 48.1702 13.5833 47.6505 13.1752C47.1308 12.7671 46.4457 12.563 45.5952 12.563C44.8235 12.563 44.1935 12.752 43.7052 13.1299C43.217 13.5078 42.9729 14.0519 42.9729 14.7624C42.9729 15.2461 43.1225 15.6467 43.4217 15.9641C43.7367 16.2664 44.1305 16.5083 44.603 16.6897C45.0754 16.8711 45.7212 17.0676 46.5402 17.2792C47.6269 17.5664 48.5089 17.8536 49.1861 18.1408C49.8791 18.428 50.4618 18.8739 50.9343 19.4786C51.4226 20.0681 51.6667 20.8617 51.6667 21.8594C51.6667 22.6605 51.4383 23.4163 50.9816 24.1268C50.5406 24.8372 49.887 25.4116 49.0207 25.85C48.1702 26.2732 47.1623 26.4848 45.9968 26.4848Z" fill="white"/>
</svg>
