<svg width="18" height="18" viewBox="0 0 18 18" fill="none" xmlns="http://www.w3.org/2000/svg">
<path d="M16.6658 11.826L16.4977 10.9822H14.6122L14.3123 11.82L12.801 11.823C13.7723 9.48822 14.4937 7.75947 14.964 6.63522C15.087 6.34122 15.3053 6.19122 15.627 6.19347C15.873 6.19572 16.2743 6.19572 16.8315 6.19422L18 11.8237L16.6658 11.826ZM15.0367 9.82647H16.2518L15.798 7.71147L15.0367 9.82647ZM5.295 6.19272L6.8145 6.19422L4.4655 11.8267L2.92725 11.8252C2.54044 10.3375 2.15844 8.84845 1.78125 7.35822C1.70625 7.06122 1.55775 6.85347 1.272 6.75522C0.85 6.61377 0.425955 6.47851 0 6.34947L0 6.19422H2.42775C2.84775 6.19422 3.093 6.39747 3.17175 6.81447C3.25125 7.23222 3.45075 8.29647 3.77175 10.005L5.295 6.19272ZM8.9025 6.19422L7.70175 11.826L6.255 11.8237L7.455 6.19272L8.9025 6.19422ZM11.835 6.08997C12.2677 6.08997 12.813 6.22497 13.1265 6.34947L12.873 7.51647C12.5895 7.40247 12.123 7.24872 11.7308 7.25397C11.1607 7.26372 10.8083 7.50297 10.8083 7.73247C10.8083 8.10597 11.4202 8.29422 12.0502 8.70222C12.7687 9.16722 12.864 9.58497 12.855 10.0395C12.8452 10.9807 12.0503 11.91 10.3733 11.91C9.60825 11.8987 9.33225 11.835 8.70825 11.613L8.97225 10.395C9.6075 10.6605 9.87675 10.7452 10.4198 10.7452C10.917 10.7452 11.3438 10.5442 11.3475 10.194C11.3505 9.94497 11.1975 9.82122 10.6395 9.51372C10.0815 9.20547 9.2985 8.77947 9.309 7.92222C9.32175 6.82572 10.3605 6.08997 11.835 6.08997Z" fill="white"/>
</svg>
