<svg width="18" height="18" viewBox="0 0 18 18" fill="none" xmlns="http://www.w3.org/2000/svg">
<path d="M2.25 16.5H15.75" stroke="black" stroke-width="1.5" stroke-linecap="round" stroke-linejoin="round"/>
<path d="M4.19998 6.28491H3C2.5875 6.28491 2.25 6.62241 2.25 7.03491V13.4999C2.25 13.9124 2.5875 14.2499 3 14.2499H4.19998C4.61248 14.2499 4.94998 13.9124 4.94998 13.4999V7.03491C4.94998 6.62241 4.61248 6.28491 4.19998 6.28491Z" stroke="black" stroke-width="1.5" stroke-linecap="round" stroke-linejoin="round"/>
<path d="M9.60001 3.89258H8.40002C7.98752 3.89258 7.65002 4.23008 7.65002 4.64258V13.5001C7.65002 13.9126 7.98752 14.2501 8.40002 14.2501H9.60001C10.0125 14.2501 10.35 13.9126 10.35 13.5001V4.64258C10.35 4.23008 10.0125 3.89258 9.60001 3.89258Z" stroke="black" stroke-width="1.5" stroke-linecap="round" stroke-linejoin="round"/>
<path d="M15 1.5H13.8C13.3875 1.5 13.05 1.8375 13.05 2.25V13.5C13.05 13.9125 13.3875 14.25 13.8 14.25H15C15.4125 14.25 15.75 13.9125 15.75 13.5V2.25C15.75 1.8375 15.4125 1.5 15 1.5Z" stroke="black" stroke-width="1.5" stroke-linecap="round" stroke-linejoin="round"/>
</svg>
