<svg width="18" height="18" viewBox="0 0 18 18" fill="none" xmlns="http://www.w3.org/2000/svg">
<path opacity="0.34" d="M5.53842 13.68C6.30313 13.68 6.92304 13.0353 6.92304 12.24C6.92304 11.4448 6.30313 10.8 5.53842 10.8C4.77372 10.8 4.15381 11.4448 4.15381 12.24C4.15381 13.0353 4.77372 13.68 5.53842 13.68Z" stroke="black" stroke-width="1.5" stroke-miterlimit="10" stroke-linecap="round" stroke-linejoin="round"/>
<path d="M0.923096 12.6623V11.8175C0.923096 11.3183 1.3154 10.9055 1.80002 10.9055C2.6354 10.9055 2.97694 10.2911 2.55694 9.5375C2.31694 9.1055 2.46002 8.5439 2.88002 8.2943L3.67848 7.8191C4.0431 7.5935 4.51386 7.7279 4.73079 8.1071L4.78156 8.1983C5.19694 8.9519 5.88002 8.9519 6.30002 8.1983L6.35079 8.1071C6.56771 7.7279 7.03848 7.5935 7.4031 7.8191L8.20156 8.2943C8.62156 8.5439 8.76463 9.1055 8.52463 9.5375C8.10463 10.2911 8.44617 10.9055 9.28156 10.9055C9.76156 10.9055 10.1585 11.3135 10.1585 11.8175V12.6623C10.1585 13.1615 9.76617 13.5743 9.28156 13.5743C8.44617 13.5743 8.10463 14.1887 8.52463 14.9423C8.76463 15.3791 8.62156 15.9359 8.20156 16.1855L7.4031 16.6607C7.03848 16.8863 6.56771 16.7519 6.35079 16.3727L6.30002 16.2815C5.88463 15.5279 5.20156 15.5279 4.78156 16.2815L4.73079 16.3727C4.51386 16.7519 4.0431 16.8863 3.67848 16.6607L2.88002 16.1855C2.46002 15.9359 2.31694 15.3743 2.55694 14.9423C2.97694 14.1887 2.6354 13.5743 1.80002 13.5743C1.3154 13.5743 0.923096 13.1615 0.923096 12.6623Z" stroke="black" stroke-width="1.5" stroke-miterlimit="10" stroke-linecap="round" stroke-linejoin="round"/>
<path opacity="0.34" d="M12.8077 7.20007C13.5246 7.20007 14.1058 6.55536 14.1058 5.76007C14.1058 4.96478 13.5246 4.32007 12.8077 4.32007C12.0908 4.32007 11.5096 4.96478 11.5096 5.76007C11.5096 6.55536 12.0908 7.20007 12.8077 7.20007Z" stroke="black" stroke-width="1.5" stroke-miterlimit="10" stroke-linecap="round" stroke-linejoin="round"/>
<path d="M8.48071 6.18232V5.33752C8.48071 4.83832 8.8485 4.42552 9.30283 4.42552C10.086 4.42552 10.4062 3.81112 10.0124 3.05752C9.78744 2.62552 9.92158 2.06392 10.3153 1.81432L11.0639 1.33912C11.4057 1.11352 11.8471 1.24792 12.0504 1.62712L12.098 1.71832C12.4874 2.47192 13.1278 2.47192 13.5216 1.71832L13.5692 1.62712C13.7725 1.24792 14.2139 1.11352 14.5557 1.33912L15.3043 1.81432C15.698 2.06392 15.8322 2.62552 15.6072 3.05752C15.2134 3.81112 15.5336 4.42552 16.3168 4.42552C16.7668 4.42552 17.1389 4.83352 17.1389 5.33752V6.18232C17.1389 6.68152 16.7711 7.09432 16.3168 7.09432C15.5336 7.09432 15.2134 7.70872 15.6072 8.46232C15.8322 8.89912 15.698 9.45592 15.3043 9.70552L14.5557 10.1807C14.2139 10.4063 13.7725 10.2719 13.5692 9.89272L13.5216 9.80152C13.1322 9.04792 12.4918 9.04792 12.098 9.80152L12.0504 9.89272C11.8471 10.2719 11.4057 10.4063 11.0639 10.1807L10.3153 9.70552C9.92158 9.45592 9.78744 8.89432 10.0124 8.46232C10.4062 7.70872 10.086 7.09432 9.30283 7.09432C8.8485 7.09432 8.48071 6.68152 8.48071 6.18232Z" stroke="black" stroke-width="1.5" stroke-miterlimit="10" stroke-linecap="round" stroke-linejoin="round"/>
</svg>
