<svg width="12" height="12" viewBox="0 0 12 12" fill="none" xmlns="http://www.w3.org/2000/svg">
<path d="M6 4.06494V6.47994" stroke="#292D32" stroke-width="1.5" stroke-linecap="round" stroke-linejoin="round"/>
<path d="M2.12 3.10004C2.12 2.57004 2.555 2.13504 3.085 2.13504H3.95C4.15 2.13504 4.43 2.03004 4.58 1.90504L5.37 1.23004C5.72 0.935039 6.285 0.935039 6.625 1.23004L7.415 1.90504C7.565 2.03004 7.85 2.13504 8.05 2.13504H8.9C9.43 2.13504 9.865 2.57004 9.865 3.10004V3.95004C9.865 4.15004 9.97 4.43004 10.095 4.58004L10.77 5.37004C11.065 5.72004 11.065 6.28504 10.77 6.62504L10.095 7.41504C9.97 7.56504 9.865 7.84504 9.865 8.04504V8.89504C9.865 9.42504 9.43 9.86004 8.9 9.86004H8.05C7.85 9.86004 7.57 9.96504 7.42 10.09L6.63 10.765C6.28 11.06 5.715 11.06 5.375 10.765L4.585 10.09C4.435 9.96504 4.15 9.86004 3.955 9.86004H3.085C2.555 9.86004 2.12 9.42504 2.12 8.89504V8.04004C2.12 7.84504 2.02 7.56004 1.895 7.41504L1.22 6.62004C0.930002 6.27504 0.930002 5.71504 1.22 5.37004L1.5 5.04004" stroke="#292D32" stroke-width="1.5" stroke-linecap="round" stroke-linejoin="round"/>
<path d="M5.99725 8H6.00174" stroke="#292D32" stroke-width="2" stroke-linecap="round" stroke-linejoin="round"/>
</svg>
