<svg width="12" height="12" viewBox="0 0 12 12" fill="none" xmlns="http://www.w3.org/2000/svg">
<g clip-path="url(#clip0_0_11204)">
<path d="M10 8.75C10.1926 8.7501 10.3778 8.82429 10.5172 8.9572C10.6566 9.09012 10.7395 9.27157 10.7488 9.46396C10.758 9.65634 10.6929 9.84492 10.5669 9.9906C10.4409 10.1363 10.2637 10.2279 10.072 10.2465L10 10.25H2C1.80739 10.2499 1.6222 10.1757 1.48281 10.0428C1.34341 9.90988 1.26049 9.72843 1.25124 9.53604C1.24198 9.34366 1.3071 9.15508 1.43309 9.0094C1.55908 8.86371 1.73629 8.77209 1.928 8.7535L2 8.75H10ZM10 5.25C10.1989 5.25 10.3897 5.32902 10.5303 5.46967C10.671 5.61032 10.75 5.80109 10.75 6C10.75 6.19891 10.671 6.38968 10.5303 6.53033C10.3897 6.67098 10.1989 6.75 10 6.75H2C1.80109 6.75 1.61032 6.67098 1.46967 6.53033C1.32902 6.38968 1.25 6.19891 1.25 6C1.25 5.80109 1.32902 5.61032 1.46967 5.46967C1.61032 5.32902 1.80109 5.25 2 5.25H10ZM10 1.75C10.1989 1.75 10.3897 1.82902 10.5303 1.96967C10.671 2.11032 10.75 2.30109 10.75 2.5C10.75 2.69891 10.671 2.88968 10.5303 3.03033C10.3897 3.17098 10.1989 3.25 10 3.25H2C1.80109 3.25 1.61032 3.17098 1.46967 3.03033C1.32902 2.88968 1.25 2.69891 1.25 2.5C1.25 2.30109 1.32902 2.11032 1.46967 1.96967C1.61032 1.82902 1.80109 1.75 2 1.75H10Z" fill="#292D32"/>
</g>
<defs>
<clipPath id="clip0_0_11204">
<rect width="12" height="12" fill="white"/>
</clipPath>
</defs>
</svg>
