<svg width="16" height="16" viewBox="0 0 16 16" fill="none" xmlns="http://www.w3.org/2000/svg">
<path d="M10.0002 4.93994C10.0002 2.95327 8.62016 2.19327 6.94016 3.24661L4.9935 4.46661C4.78016 4.59327 4.5335 4.66661 4.28683 4.66661H3.3335C2.00016 4.66661 1.3335 5.33327 1.3335 6.66661V9.33327C1.3335 10.6666 2.00016 11.3333 3.3335 11.3333H4.28683C4.5335 11.3333 4.78016 11.4066 4.9935 11.5333L6.94016 12.7533C8.62016 13.8066 10.0002 13.0399 10.0002 11.0599V7.64661" stroke="white" stroke-width="1.5" stroke-linecap="round" stroke-linejoin="round"/>
<path d="M12 5.33325C13.1867 6.91325 13.1867 9.08659 12 10.6666" stroke="white" stroke-width="1.5" stroke-linecap="round" stroke-linejoin="round"/>
<path d="M13.2202 12.3333C14.1869 11.0467 14.6669 9.52667 14.6669 8" stroke="white" stroke-width="1.5" stroke-linecap="round" stroke-linejoin="round"/>
<path d="M13.2202 3.66675C13.6135 4.18675 13.9202 4.74675 14.1535 5.33341" stroke="white" stroke-width="1.5" stroke-linecap="round" stroke-linejoin="round"/>
</svg>
