<svg width="12" height="12" viewBox="0 0 12 12" fill="none" xmlns="http://www.w3.org/2000/svg">
<path d="M9 6.5V5.5H11V6.5H9ZM9.6 10L8 8.8L8.6 8L10.2 9.2L9.6 10ZM8.6 4L8 3.2L9.6 2L10.2 2.8L8.6 4ZM2.5 9.5V7.5H2C1.725 7.5 1.4895 7.402 1.2935 7.206C1.0975 7.01 0.999668 6.77467 1 6.5V5.5C1 5.225 1.098 4.9895 1.294 4.7935C1.49 4.5975 1.72533 4.49967 2 4.5H4L6.5 3V9L4 7.5H3.5V9.5H2.5ZM7 7.675V4.325C7.225 4.525 7.40633 4.76883 7.544 5.0565C7.68167 5.34417 7.75033 5.65867 7.75 6C7.75 6.34167 7.68117 6.65633 7.5435 6.944C7.40583 7.23167 7.22467 7.47533 7 7.675Z" fill="black"/>
</svg>
