<svg width="26" height="26" viewBox="0 0 26 26" fill="none" xmlns="http://www.w3.org/2000/svg">
<path d="M24.3317 6.50004C23.4975 6.87921 22.5983 7.12837 21.6667 7.24754C22.62 6.67337 23.3567 5.76337 23.7033 4.66921C22.8042 5.21087 21.8075 5.59004 20.7567 5.80671C19.9008 4.87504 18.6983 4.33337 17.3333 4.33337C14.7875 4.33337 12.7075 6.41337 12.7075 8.98087C12.7075 9.34921 12.7508 9.70671 12.8267 10.0425C8.97 9.84754 5.53584 7.99504 3.25 5.18921C2.84917 5.87171 2.62167 6.67337 2.62167 7.51837C2.62167 9.13254 3.43417 10.5625 4.69083 11.375C3.92167 11.375 3.20667 11.1584 2.57834 10.8334V10.8659C2.57834 13.1192 4.18167 15.0042 6.305 15.4267C5.62329 15.6133 4.9076 15.6392 4.21417 15.5025C4.50841 16.4261 5.08467 17.2341 5.86194 17.8132C6.63921 18.3923 7.5784 18.7132 8.5475 18.7309C6.90477 20.0313 4.8685 20.7343 2.77333 20.7242C2.405 20.7242 2.03667 20.7025 1.66833 20.6592C3.72667 21.9809 6.175 22.75 8.79667 22.75C17.3333 22.75 22.0242 15.665 22.0242 9.52254C22.0242 9.31671 22.0242 9.12171 22.0133 8.91587C22.9233 8.26587 23.7033 7.44254 24.3317 6.50004Z" fill="#1D9BF0"/>
</svg>
