<svg width="18" height="18" viewBox="0 0 18 18" fill="none" xmlns="http://www.w3.org/2000/svg">
<g clip-path="url(#clip0_0_12891)">
<path d="M17.4881 7.37749C17.5931 7.98157 17.6454 8.59361 17.6445 9.20674C17.6445 11.945 16.6658 14.2602 14.9625 15.8274H14.9648C13.4753 17.2032 11.4277 17.9997 9 17.9997C6.61305 17.9997 4.32387 17.0515 2.63604 15.3637C0.948212 13.6759 0 11.3867 0 8.99974C0 6.61279 0.948212 4.32361 2.63604 2.63578C4.32387 0.947951 6.61305 -0.00026062 9 -0.00026062C11.2342 -0.0264263 13.3918 0.812926 15.021 2.34199L12.4515 4.91149C11.5227 4.02609 10.2831 3.54123 9 3.56149C6.65213 3.56149 4.6575 5.14549 3.9465 7.27849C3.56952 8.39618 3.56952 9.60667 3.9465 10.7244H3.94987C4.66425 12.854 6.6555 14.438 9.00338 14.438C10.2161 14.438 11.2579 14.1275 12.0656 13.5785H12.0623C12.5313 13.2678 12.9325 12.8652 13.2416 12.3952C13.5508 11.9252 13.7616 11.3973 13.8611 10.8436H9V7.37861L17.4881 7.37749Z" fill="#E33629"/>
</g>
<defs>
<clipPath id="clip0_0_12891">
<rect width="18" height="18" fill="white"/>
</clipPath>
</defs>
</svg>
