<svg width="48" height="48" viewBox="0 0 48 48" fill="none" xmlns="http://www.w3.org/2000/svg">
<path d="M15.7384 23.6064C9.44336 23.6064 9.44336 26.4235 9.44336 29.9015V31.4753C9.44336 35.8189 9.44336 39.3442 17.3122 39.3442H29.9024C36.1975 39.3442 37.7712 35.8189 37.7712 31.4753V29.9015C37.7712 26.4235 37.7712 23.6064 31.4761 23.6064C29.9024 23.6064 29.4617 23.9369 28.6434 24.5507L27.0381 26.2504C25.1811 28.2333 22.0335 28.2333 20.1607 26.2504L18.5712 24.5507C17.7529 23.9369 17.3122 23.6064 15.7384 23.6064Z" stroke="#292D32" stroke-width="1.5" stroke-miterlimit="10" stroke-linecap="round" stroke-linejoin="round"/>
<path d="M34.6236 23.6064V14.1637C34.6236 10.6857 34.6236 7.86865 28.3285 7.86865H18.8859C12.5908 7.86865 12.5908 10.6857 12.5908 14.1637V23.6064" stroke="#292D32" stroke-width="1.5" stroke-miterlimit="10" stroke-linecap="round" stroke-linejoin="round"/>
<path d="M21.3252 19.2471H26.5659" stroke="#292D32" stroke-width="1.5" stroke-linecap="round" stroke-linejoin="round"/>
<path d="M20.0186 14.5259H27.8874" stroke="#292D32" stroke-width="1.5" stroke-linecap="round" stroke-linejoin="round"/>
</svg>
