<svg width="39" height="39" viewBox="0 0 39 39" fill="none" xmlns="http://www.w3.org/2000/svg">
<path d="M11.7384 19.6064C5.44336 19.6064 5.44336 22.4235 5.44336 25.9015V27.4753C5.44336 31.8189 5.44336 35.3442 13.3122 35.3442H25.9024C32.1975 35.3442 33.7712 31.8189 33.7712 27.4753V25.9015C33.7712 22.4235 33.7712 19.6064 27.4761 19.6064C25.9024 19.6064 25.4617 19.9369 24.6434 20.5507L23.0381 22.2504C21.1811 24.2333 18.0335 24.2333 16.1607 22.2504L14.5712 20.5507C13.7529 19.9369 13.3122 19.6064 11.7384 19.6064Z" stroke="#292D32" stroke-width="1.5" stroke-miterlimit="10" stroke-linecap="round" stroke-linejoin="round"/>
<path d="M30.6236 19.6064V10.1637C30.6236 6.6857 30.6236 3.86865 24.3285 3.86865H14.8859C8.59082 3.86865 8.59082 6.6857 8.59082 10.1637V19.6064" stroke="#292D32" stroke-width="1.5" stroke-miterlimit="10" stroke-linecap="round" stroke-linejoin="round"/>
<path d="M17.3252 15.2471H22.5659" stroke="#292D32" stroke-width="1.5" stroke-linecap="round" stroke-linejoin="round"/>
<path d="M16.0186 10.5259H23.8874" stroke="#292D32" stroke-width="1.5" stroke-linecap="round" stroke-linejoin="round"/>
</svg>
