<svg width="22" height="22" viewBox="0 0 22 22" fill="none" xmlns="http://www.w3.org/2000/svg">
<path d="M7.33334 8.25C7.59306 8.25 7.81092 8.162 7.98692 7.986C8.16292 7.81 8.25061 7.59245 8.25 7.33334C8.25 7.07361 8.162 6.85575 7.986 6.67975C7.81 6.50375 7.59245 6.41606 7.33334 6.41667C7.07361 6.41667 6.85575 6.50467 6.67975 6.68067C6.50375 6.85667 6.41606 7.07422 6.41667 7.33334C6.41667 7.59306 6.50467 7.81092 6.68067 7.98692C6.85667 8.16292 7.07422 8.25061 7.33334 8.25ZM11 8.25C11.2597 8.25 11.4776 8.162 11.6536 7.986C11.8296 7.81 11.9173 7.59245 11.9167 7.33334C11.9167 7.07361 11.8287 6.85575 11.6527 6.67975C11.4767 6.50375 11.2591 6.41606 11 6.41667C10.7403 6.41667 10.5224 6.50467 10.3464 6.68067C10.1704 6.85667 10.0827 7.07422 10.0833 7.33334C10.0833 7.59306 10.1713 7.81092 10.3473 7.98692C10.5233 8.16292 10.7409 8.25061 11 8.25ZM14.6667 8.25C14.9264 8.25 15.1443 8.162 15.3203 7.986C15.4963 7.81 15.5839 7.59245 15.5833 7.33334C15.5833 7.07361 15.4953 6.85575 15.3193 6.67975C15.1433 6.50375 14.9258 6.41606 14.6667 6.41667C14.4069 6.41667 14.1891 6.50467 14.0131 6.68067C13.8371 6.85667 13.7494 7.07422 13.75 7.33334C13.75 7.59306 13.838 7.81092 14.014 7.98692C14.19 8.16292 14.4076 8.25061 14.6667 8.25ZM4.58333 19.25C4.07917 19.25 3.64742 19.0703 3.28808 18.711C2.92875 18.3517 2.74939 17.9202 2.75 17.4167V4.58333C2.75 4.07917 2.92967 3.64742 3.289 3.28808C3.64833 2.92875 4.07978 2.74939 4.58333 2.75H17.4167C17.9208 2.75 18.3526 2.92967 18.7119 3.289C19.0713 3.64833 19.2506 4.07978 19.25 4.58333V17.4167C19.25 17.9208 19.0703 18.3526 18.711 18.7119C18.3517 19.0713 17.9202 19.2506 17.4167 19.25H4.58333Z" fill="white"/>
</svg>
