<svg width="40" height="50" viewBox="0 0 40 50" fill="none" xmlns="http://www.w3.org/2000/svg">
<path d="M19.9993 20.3334C25.154 20.3334 29.3327 16.1547 29.3327 11.0001C29.3327 5.84542 25.154 1.66675 19.9993 1.66675C14.8447 1.66675 10.666 5.84542 10.666 11.0001C10.666 16.1547 14.8447 20.3334 19.9993 20.3334Z" stroke="black" stroke-width="1.5"/>
<path d="M38.6593 39.0002C38.6663 38.6175 38.6663 38.2278 38.6663 37.8335C38.6663 32.0352 30.3083 27.3335 19.9997 27.3335C9.69101 27.3335 1.33301 32.0352 1.33301 37.8335C1.33301 43.6318 1.33301 48.3335 19.9997 48.3335C25.2053 48.3335 28.9597 47.9672 31.6663 47.3138" stroke="black" stroke-width="1.5" stroke-linecap="round"/>
</svg>
