<svg width="18" height="18" viewBox="0 0 18 18" fill="none" xmlns="http://www.w3.org/2000/svg">
<path d="M16.3417 1.10996L16.7842 1.55246C17.394 2.16296 17.3017 3.24521 16.5765 3.96971L7.45123 13.095L4.49473 14.1765C4.12348 14.313 3.76198 14.136 3.68848 13.7827C3.66364 13.6546 3.67533 13.522 3.72223 13.4002L4.82473 10.4182L13.9245 1.31771C14.6497 0.593208 15.732 0.499458 16.3417 1.10996ZM7.05298 2.01746C7.15147 2.01746 7.249 2.03686 7.33999 2.07455C7.43098 2.11224 7.51366 2.16748 7.58331 2.23713C7.65295 2.30677 7.7082 2.38945 7.74589 2.48045C7.78358 2.57144 7.80298 2.66897 7.80298 2.76746C7.80298 2.86595 7.78358 2.96348 7.74589 3.05447C7.7082 3.14546 7.65295 3.22814 7.58331 3.29779C7.51366 3.36743 7.43098 3.42268 7.33999 3.46037C7.249 3.49806 7.15147 3.51746 7.05298 3.51746H4.05298C3.65515 3.51746 3.27362 3.67549 2.99232 3.9568C2.71101 4.2381 2.55298 4.61963 2.55298 5.01746V14.0175C2.55298 14.4153 2.71101 14.7968 2.99232 15.0781C3.27362 15.3594 3.65515 15.5175 4.05298 15.5175H13.053C13.4508 15.5175 13.8323 15.3594 14.1136 15.0781C14.3949 14.7968 14.553 14.4153 14.553 14.0175V11.0175C14.553 10.8185 14.632 10.6278 14.7726 10.4871C14.9133 10.3465 15.1041 10.2675 15.303 10.2675C15.5019 10.2675 15.6927 10.3465 15.8333 10.4871C15.974 10.6278 16.053 10.8185 16.053 11.0175V14.0175C16.053 14.8131 15.7369 15.5762 15.1743 16.1388C14.6117 16.7014 13.8486 17.0175 13.053 17.0175H4.05298C3.25733 17.0175 2.49427 16.7014 1.93166 16.1388C1.36905 15.5762 1.05298 14.8131 1.05298 14.0175V5.01746C1.05298 4.22181 1.36905 3.45875 1.93166 2.89614C2.49427 2.33353 3.25733 2.01746 4.05298 2.01746H7.05298Z" fill="black"/>
</svg>
