<svg width="22" height="24" viewBox="0 0 22 24" fill="none" xmlns="http://www.w3.org/2000/svg">
<path d="M9.16732 4.5V18C9.16732 19.08 8.76397 20.07 8.1223 20.79L8.08566 20.83C8.00316 20.92 7.91149 21.01 7.82899 21.08C7.55399 21.34 7.24231 21.54 6.92147 21.68C6.82064 21.73 6.71982 21.77 6.61899 21.81C6.26149 21.94 5.87648 22 5.50065 22C5.25315 22 5.00566 21.97 4.76733 21.92C4.64816 21.89 4.52898 21.86 4.40982 21.82C4.26315 21.77 4.12566 21.72 3.98816 21.65C3.98816 21.64 3.98815 21.64 3.97898 21.65C3.72231 21.51 3.47483 21.35 3.24566 21.16L3.23648 21.15C3.11732 21.05 3.00733 20.95 2.9065 20.83C2.80566 20.71 2.70481 20.59 2.60398 20.46C2.42981 20.21 2.28316 19.94 2.15482 19.66C2.16399 19.65 2.16399 19.65 2.15482 19.65C2.15482 19.65 2.15481 19.64 2.14565 19.63C2.09065 19.49 2.04481 19.34 1.99898 19.19C1.96231 19.06 1.93481 18.93 1.90731 18.8C1.86147 18.54 1.83398 18.27 1.83398 18V4.5C1.83398 3 2.75065 2 4.12565 2H6.87565C8.25065 2 9.16732 3 9.16732 4.5Z" stroke="white" stroke-width="1.5" stroke-linecap="round" stroke-linejoin="round"/>
<path opacity="0.4" d="M20.1667 16.5V19.5C20.1667 21 19.25 22 17.875 22H5.5C5.87583 22 6.26083 21.94 6.61833 21.81C6.71917 21.77 6.81999 21.73 6.92082 21.68C7.24166 21.54 7.55334 21.34 7.82834 21.08C7.91084 21.01 8.00251 20.92 8.08501 20.83L8.12165 20.79L14.355 14H17.875C19.25 14 20.1667 15 20.1667 16.5Z" stroke="white" stroke-width="1.5" stroke-linecap="round" stroke-linejoin="round"/>
<path d="M4.40888 21.8204C3.85888 21.6404 3.3364 21.3104 2.90557 20.8304C2.46557 20.3604 2.16305 19.7904 1.99805 19.1904C2.35555 20.4404 3.26305 21.4304 4.40888 21.8204Z" stroke="white" stroke-width="1.5" stroke-linecap="round" stroke-linejoin="round"/>
<path d="M16.8386 11.2899L14.3544 14L8.12109 20.7899C8.76276 20.0699 9.16611 19.08 9.16611 18V8.33995L11.6503 5.62996C12.6219 4.56996 13.9236 4.56996 14.8953 5.62996L16.8386 7.74996C17.8103 8.80996 17.8103 10.2299 16.8386 11.2899Z" stroke="white" stroke-width="1.5" stroke-linecap="round" stroke-linejoin="round"/>
<path opacity="0.4" d="M5.50065 19C6.00691 19 6.41732 18.5523 6.41732 18C6.41732 17.4477 6.00691 17 5.50065 17C4.99439 17 4.58398 17.4477 4.58398 18C4.58398 18.5523 4.99439 19 5.50065 19Z" stroke="white" stroke-width="1.5" stroke-linecap="round" stroke-linejoin="round"/>
</svg>
