<svg width="12" height="12" viewBox="0 0 12 12" fill="none" xmlns="http://www.w3.org/2000/svg">
<path d="M11 2.575V3.925C11 5.05 10.55 5.5 9.425 5.5H8.075C6.95 5.5 6.5 5.05 6.5 3.925V2.575C6.5 1.45 6.95 1 8.075 1H9.425C10.55 1 11 1.45 11 2.575Z" stroke="#292D32" stroke-width="1.5" stroke-linecap="round" stroke-linejoin="round"/>
<path d="M5.5 8.075V9.425C5.5 10.55 5.05 11 3.925 11H2.575C1.45 11 1 10.55 1 9.425V8.075C1 6.95 1.45 6.5 2.575 6.5H3.925C5.05 6.5 5.5 6.95 5.5 8.075Z" stroke="#292D32" stroke-width="1.5" stroke-linecap="round" stroke-linejoin="round"/>
<path d="M4.48 3.37506C4.685 3.33006 4.92499 3.31006 5.18999 3.31006H6.5V3.92506C6.5 5.05006 6.95 5.50006 8.075 5.50006H8.68999V6.81006C8.68999 8.15506 8.155 8.69006 6.81 8.69006H5.5V8.07506C5.5 6.95006 5.05 6.50006 3.925 6.50006H3.31V5.19006" stroke="#292D32" stroke-width="1.5" stroke-linecap="round" stroke-linejoin="round"/>
</svg>
