<svg width="18" height="18" viewBox="0 0 18 18" fill="none" xmlns="http://www.w3.org/2000/svg">
<path d="M11.8125 9C11.0896 9 10.3907 8.67727 9.84371 8.09156C9.3118 7.52027 8.98695 6.75844 8.92965 5.94703C8.86848 5.08148 9.1325 4.28555 9.67285 3.70547C10.2132 3.12539 10.9687 2.8125 11.8125 2.8125C12.6502 2.8125 13.4079 3.13102 13.9464 3.70969C14.4903 4.29398 14.755 5.08852 14.6939 5.94668C14.6352 6.75914 14.3107 7.52062 13.7798 8.09121C13.2342 8.67727 12.5356 9 11.8125 9ZM16.4471 15.1875H7.17816C7.02914 15.1883 6.88192 15.1549 6.74783 15.0899C6.61375 15.0248 6.49637 14.9299 6.40473 14.8124C6.30752 14.685 6.24039 14.5372 6.20837 14.3802C6.17634 14.2232 6.18025 14.061 6.2198 13.9057C6.51582 12.7171 7.24918 11.7313 8.34043 11.0552C9.30898 10.4555 10.5419 10.125 11.8125 10.125C13.108 10.125 14.3086 10.4414 15.2827 11.0408C16.3764 11.7134 17.1109 12.7048 17.4055 13.9078C17.4445 14.0632 17.448 14.2254 17.4156 14.3824C17.3832 14.5393 17.3158 14.6869 17.2184 14.8141C17.1269 14.9311 17.0098 15.0256 16.8761 15.0903C16.7424 15.155 16.5956 15.1883 16.4471 15.1875ZM5.16793 9.14062C3.93078 9.14062 2.84305 7.99031 2.74215 6.57668C2.69223 5.85246 2.91793 5.18273 3.37496 4.6916C3.82707 4.20539 4.4648 3.9375 5.16793 3.9375C5.87105 3.9375 6.50387 4.2068 6.95844 4.69582C7.41898 5.19082 7.64398 5.85914 7.59125 6.57738C7.49035 7.99066 6.40297 9.14062 5.16793 9.14062ZM7.47629 10.2463C6.85789 9.94395 6.05527 9.79277 5.16828 9.79277C4.13258 9.79277 3.12676 10.0628 2.33574 10.5529C1.43891 11.1094 0.835624 11.9197 0.591991 12.8981C0.556338 13.0389 0.552965 13.1858 0.582127 13.328C0.611288 13.4703 0.672229 13.604 0.76039 13.7194C0.844043 13.8268 0.951212 13.9135 1.07366 13.973C1.1961 14.0325 1.33055 14.0631 1.46668 14.0625H5.36902C5.43489 14.0625 5.49866 14.0394 5.54922 13.9972C5.59978 13.9549 5.63393 13.8963 5.6457 13.8315C5.64957 13.8094 5.65449 13.7872 5.66012 13.7654C5.95824 12.568 6.6568 11.5562 7.68898 10.8186C7.72695 10.7913 7.75748 10.7549 7.77782 10.7127C7.79816 10.6706 7.80766 10.624 7.80546 10.5773C7.80326 10.5305 7.78943 10.4851 7.76523 10.445C7.74102 10.4049 7.7072 10.3716 7.66684 10.3479C7.61164 10.3155 7.54836 10.2814 7.47629 10.2463Z" fill="white"/>
</svg>
